<?xml version="1.0" encoding="UTF-8" standalone="no"?>
<!DOCTYPE svg PUBLIC "-//W3C//DTD SVG 1.1//EN"
 "http://www.w3.org/Graphics/SVG/1.1/DTD/svg11.dtd">
<!-- Generated by graphviz version 2.38.0 (20140413.2041)
 -->
<!-- Title: activity_0 Pages: 1 -->
<svg width="1119pt" height="980pt"
 viewBox="0.00 0.00 1119.28 980.00" xmlns="http://www.w3.org/2000/svg" xmlns:xlink="http://www.w3.org/1999/xlink">
<g id="graph0" class="graph" transform="scale(1 1) rotate(0) translate(4 976)">
<title>activity_0</title>
<polygon fill="white" stroke="none" points="-4,4 -4,-976 1115.28,-976 1115.28,4 -4,4"/>
<!-- state_0 -->
<g id="node1" class="node"><title>state_0</title>
<g id="a_node1"><a xlink:href="0.png" xlink:title="&lt;TABLE&gt;">
<polygon fill="none" stroke="black" points="433.28,-972 303.28,-972 303.28,-682 433.28,-682 433.28,-972"/>
<text text-anchor="start" x="348.28" y="-960.8" font-family="Times New Roman,serif" font-size="14.00">state_0</text>
<text text-anchor="start" x="337.78" y="-945.8" font-family="Times New Roman,serif" font-size="14.00">incoming:9</text>
<text text-anchor="start" x="338.78" y="-930.8" font-family="Times New Roman,serif" font-size="14.00">outgoing:8</text>
<text text-anchor="start" x="350.28" y="-915.8" font-family="Times New Roman,serif" font-size="14.00">loop:5</text>
<image xlink:href="0.png" width="130px" height="230px" preserveAspectRatio="xMinYMin meet" x="303.28" y="-912"/>
</a>
</g>
</g>
<!-- state_0&#45;&gt;state_0 -->
<g id="edge1" class="edge"><title>state_0&#45;&gt;state_0</title>
<path fill="none" stroke="black" d="M433.352,-832.898C443.978,-832.054 451.28,-830.088 451.28,-827 451.28,-825.022 448.283,-823.504 443.335,-822.447"/>
<polygon fill="black" stroke="black" points="443.73,-818.968 433.352,-821.102 442.795,-825.905 443.73,-818.968"/>
<text text-anchor="middle" x="508.78" y="-823.3" font-family="Times New Roman,serif" font-size="14.00"> &#160;&#160;click(&quot;index=1&quot;) &#160;&#160;</text>
</g>
<!-- state_0&#45;&gt;state_0 -->
<g id="edge2" class="edge"><title>state_0&#45;&gt;state_0</title>
<path fill="none" stroke="black" d="M433.461,-838.26C492.313,-842.159 566.28,-838.405 566.28,-827 566.28,-816.241 500.455,-812.291 443.59,-815.151"/>
<polygon fill="black" stroke="black" points="443.241,-811.665 433.461,-815.74 443.647,-818.653 443.241,-811.665"/>
<text text-anchor="middle" x="623.78" y="-823.3" font-family="Times New Roman,serif" font-size="14.00"> &#160;&#160;click(&quot;index=2&quot;) &#160;&#160;</text>
</g>
<!-- state_0&#45;&gt;state_0 -->
<g id="edge3" class="edge"><title>state_0&#45;&gt;state_0</title>
<path fill="none" stroke="black" d="M433.555,-841.306C527.129,-850.919 681.28,-846.15 681.28,-827 681.28,-808.523 537.778,-803.434 443.64,-811.733"/>
<polygon fill="black" stroke="black" points="443.178,-808.261 433.555,-812.694 443.842,-815.23 443.178,-808.261"/>
<text text-anchor="middle" x="738.78" y="-823.3" font-family="Times New Roman,serif" font-size="14.00"> &#160;&#160;click(&quot;index=3&quot;) &#160;&#160;</text>
</g>
<!-- state_0&#45;&gt;state_0 -->
<g id="edge4" class="edge"><title>state_0&#45;&gt;state_0</title>
<path fill="none" stroke="black" d="M433.554,-843.745C555.869,-859.543 796.28,-853.961 796.28,-827 796.28,-800.776 568.837,-794.779 443.845,-809.007"/>
<polygon fill="black" stroke="black" points="443.06,-805.576 433.554,-810.255 443.902,-812.525 443.06,-805.576"/>
<text text-anchor="middle" x="849.28" y="-823.3" font-family="Times New Roman,serif" font-size="14.00"> &#160;&#160;swipe(&quot;Right&quot;) &#160;&#160;</text>
</g>
<!-- state_0&#45;&gt;state_0 -->
<g id="edge5" class="edge"><title>state_0&#45;&gt;state_0</title>
<path fill="none" stroke="black" d="M433.33,-845.913C578.87,-868.105 902.28,-861.801 902.28,-827 902.28,-792.981 593.235,-786.192 443.4,-806.635"/>
<polygon fill="black" stroke="black" points="442.728,-803.196 433.33,-808.087 443.727,-810.124 442.728,-803.196"/>
<text text-anchor="middle" x="951.78" y="-823.3" font-family="Times New Roman,serif" font-size="14.00"> &#160;&#160;swipe(&quot;Left&quot;) &#160;&#160;</text>
</g>
<!-- state_8 -->
<g id="node2" class="node"><title>state_8</title>
<g id="a_node2"><a xlink:href="8.png" xlink:title="&lt;TABLE&gt;">
<polygon fill="none" stroke="black" points="282.28,-631 152.28,-631 152.28,-341 282.28,-341 282.28,-631"/>
<text text-anchor="start" x="197.28" y="-619.8" font-family="Times New Roman,serif" font-size="14.00">state_8</text>
<text text-anchor="start" x="186.78" y="-604.8" font-family="Times New Roman,serif" font-size="14.00">incoming:3</text>
<text text-anchor="start" x="187.78" y="-589.8" font-family="Times New Roman,serif" font-size="14.00">outgoing:6</text>
<text text-anchor="start" x="199.28" y="-574.8" font-family="Times New Roman,serif" font-size="14.00">loop:2</text>
<image xlink:href="8.png" width="130px" height="230px" preserveAspectRatio="xMinYMin meet" x="152.28" y="-571"/>
</a>
</g>
</g>
<!-- state_0&#45;&gt;state_8 -->
<g id="edge6" class="edge"><title>state_0&#45;&gt;state_8</title>
<path fill="none" stroke="black" d="M357.157,-681.747C354.241,-670.465 350.661,-659.419 346.28,-649 332.708,-616.725 310.793,-585.561 288.848,-559.335"/>
<polygon fill="black" stroke="black" points="291.506,-557.058 282.356,-551.716 286.177,-561.598 291.506,-557.058"/>
<text text-anchor="middle" x="415.28" y="-652.8" font-family="Times New Roman,serif" font-size="14.00"> &#160;&#160;press(&quot;MenuKey&quot;) &#160;&#160;</text>
</g>
<!-- activity_1 -->
<g id="node4" class="node"><title>activity_1</title>
<ellipse fill="none" stroke="red" cx="69.2801" cy="-145" rx="46.2923" ry="18"/>
<text text-anchor="middle" x="69.2801" y="-141.3" font-family="Times New Roman,serif" font-size="14.00" fill="red">activity_1</text>
</g>
<!-- state_0&#45;&gt;activity_1 -->
<g id="edge7" class="edge"><title>state_0&#45;&gt;activity_1</title>
<path fill="none" stroke="red" d="M302.964,-813.379C217.504,-792.684 73.3227,-742.153 28.2801,-631 -37.948,-467.567 31.0436,-248.3 58.8089,-172.83"/>
<polygon fill="red" stroke="red" points="62.2024,-173.749 62.4347,-163.156 55.6477,-171.292 62.2024,-173.749"/>
<text text-anchor="middle" x="85.7801" y="-482.3" font-family="Times New Roman,serif" font-size="14.00" fill="red"> &#160;&#160;click(&quot;index=0&quot;) &#160;&#160;</text>
</g>
<!-- final -->
<g id="node5" class="node"><title>final</title>
<image xlink:href="-2.png" width="50px" height="50px" preserveAspectRatio="xMinYMin meet" x="541.28" y="-511"/>
</g>
<!-- state_0&#45;&gt;final -->
<g id="edge8" class="edge"><title>state_0&#45;&gt;final</title>
<path fill="none" stroke="red" d="M433.366,-751.999C476.066,-702.878 525.268,-644.958 532.28,-631 549.92,-595.889 558.618,-551.325 562.763,-521.14"/>
<polygon fill="red" stroke="red" points="566.25,-521.465 564.046,-511.102 559.306,-520.578 566.25,-521.465"/>
<text text-anchor="middle" x="581.78" y="-652.8" font-family="Times New Roman,serif" font-size="14.00" fill="red"> &#160;&#160;press(&quot;BackKey&quot;) &#160;&#160;</text>
</g>
<!-- state_8&#45;&gt;state_0 -->
<g id="edge12" class="edge"><title>state_8&#45;&gt;state_0</title>
<path fill="none" stroke="black" d="M152.013,-618.614C147.683,-623.063 143.109,-627.222 138.28,-631 117.435,-647.308 45.1267,-621.696 70.2801,-664 118.21,-744.61 221.836,-787.62 293.31,-808.616"/>
<polygon fill="black" stroke="black" points="292.596,-812.052 303.173,-811.434 294.519,-805.321 292.596,-812.052"/>
<text text-anchor="middle" x="132.78" y="-652.8" font-family="Times New Roman,serif" font-size="14.00"> &#160;&#160;press(&quot;BackKey&quot;) &#160;&#160;</text>
</g>
<!-- state_8&#45;&gt;state_0 -->
<g id="edge13" class="edge"><title>state_8&#45;&gt;state_0</title>
<path fill="none" stroke="black" d="M205.268,-631.256C207.205,-642.538 210.119,-653.583 214.28,-664 230.935,-705.692 263.989,-742.788 295.219,-770.926"/>
<polygon fill="black" stroke="black" points="293.293,-773.895 303.108,-777.884 297.924,-768.645 293.293,-773.895"/>
<text text-anchor="middle" x="278.28" y="-652.8" font-family="Times New Roman,serif" font-size="14.00"> &#160;&#160;press(&quot;MenuKey&quot;) &#160;&#160;</text>
</g>
<!-- state_8&#45;&gt;state_8 -->
<g id="edge10" class="edge"><title>state_8&#45;&gt;state_8</title>
<path fill="none" stroke="black" d="M282.352,-500.746C292.978,-498.635 300.28,-493.72 300.28,-486 300.28,-480.934 297.135,-477.076 291.97,-474.425"/>
<polygon fill="black" stroke="black" points="292.945,-471.061 282.352,-471.254 290.753,-477.709 292.945,-471.061"/>
<text text-anchor="middle" x="353.28" y="-482.3" font-family="Times New Roman,serif" font-size="14.00"> &#160;&#160;swipe(&quot;Right&quot;) &#160;&#160;</text>
</g>
<!-- state_8&#45;&gt;state_8 -->
<g id="edge11" class="edge"><title>state_8&#45;&gt;state_8</title>
<path fill="none" stroke="black" d="M282.393,-514.524C338.184,-523.648 406.28,-514.14 406.28,-486 406.28,-459.509 345.93,-449.53 292.311,-456.064"/>
<polygon fill="black" stroke="black" points="291.8,-452.601 282.393,-457.476 292.787,-459.531 291.8,-452.601"/>
<text text-anchor="middle" x="455.78" y="-482.3" font-family="Times New Roman,serif" font-size="14.00"> &#160;&#160;swipe(&quot;Left&quot;) &#160;&#160;</text>
</g>
<!-- state_9 -->
<g id="node3" class="node"><title>state_9</title>
<g id="a_node3"><a xlink:href="9.png" xlink:title="&lt;TABLE&gt;">
<polygon fill="none" stroke="black" points="724.28,-290 594.28,-290 594.28,-0 724.28,-0 724.28,-290"/>
<text text-anchor="start" x="639.28" y="-278.8" font-family="Times New Roman,serif" font-size="14.00">state_9</text>
<text text-anchor="start" x="628.78" y="-263.8" font-family="Times New Roman,serif" font-size="14.00">incoming:4</text>
<text text-anchor="start" x="629.78" y="-248.8" font-family="Times New Roman,serif" font-size="14.00">outgoing:5</text>
<text text-anchor="start" x="641.28" y="-233.8" font-family="Times New Roman,serif" font-size="14.00">loop:3</text>
<image xlink:href="9.png" width="130px" height="230px" preserveAspectRatio="xMinYMin meet" x="594.28" y="-230"/>
</a>
</g>
</g>
<!-- state_8&#45;&gt;state_9 -->
<g id="edge9" class="edge"><title>state_8&#45;&gt;state_9</title>
<path fill="none" stroke="black" d="M282.499,-434.979C363.571,-372.8 501.551,-266.974 586.139,-202.097"/>
<polygon fill="black" stroke="black" points="588.349,-204.813 594.154,-195.949 584.089,-199.258 588.349,-204.813"/>
<text text-anchor="middle" x="491.28" y="-311.8" font-family="Times New Roman,serif" font-size="14.00"> &#160;&#160;click(&quot;About&quot;) &#160;&#160;</text>
</g>
<!-- state_8&#45;&gt;activity_1 -->
<g id="edge14" class="edge"><title>state_8&#45;&gt;activity_1</title>
<path fill="none" stroke="red" d="M154.3,-340.742C126.541,-277.159 96.6661,-208.729 80.7736,-172.326"/>
<polygon fill="red" stroke="red" points="83.884,-170.703 76.6752,-162.939 77.4687,-173.504 83.884,-170.703"/>
<text text-anchor="middle" x="191.28" y="-311.8" font-family="Times New Roman,serif" font-size="14.00" fill="red"> &#160;&#160;click(&quot;圖庫&quot;) &#160;&#160;</text>
</g>
<!-- state_9&#45;&gt;state_0 -->
<g id="edge15" class="edge"><title>state_9&#45;&gt;state_0</title>
<path fill="none" stroke="black" d="M724.403,-221.746C749.558,-255.844 775.359,-298.048 788.28,-341 825.41,-464.425 857.622,-522.354 788.28,-631 712.177,-750.24 542.271,-797.688 443.463,-815.702"/>
<polygon fill="black" stroke="black" points="442.779,-812.268 433.541,-817.455 443.998,-819.161 442.779,-812.268"/>
<text text-anchor="middle" x="876.28" y="-482.3" font-family="Times New Roman,serif" font-size="14.00"> &#160;&#160;click(&quot;確定&quot;) &#160;&#160;</text>
</g>
<!-- state_9&#45;&gt;state_0 -->
<g id="edge18" class="edge"><title>state_9&#45;&gt;state_0</title>
<path fill="none" stroke="black" d="M658.81,-290.109C657.809,-437.778 654.722,-648.043 645.28,-664 601.271,-738.374 508.891,-782.096 442.919,-805.005"/>
<polygon fill="black" stroke="black" points="441.733,-801.712 433.386,-808.236 443.98,-808.341 441.733,-801.712"/>
<text text-anchor="middle" x="720.78" y="-482.3" font-family="Times New Roman,serif" font-size="14.00"> &#160;&#160;press(&quot;BackKey&quot;) &#160;&#160;</text>
</g>
<!-- state_9&#45;&gt;state_9 -->
<g id="edge16" class="edge"><title>state_9&#45;&gt;state_9</title>
<path fill="none" stroke="black" d="M724.352,-154.831C734.978,-153.423 742.28,-150.146 742.28,-145 742.28,-141.703 739.283,-139.173 734.335,-137.411"/>
<polygon fill="black" stroke="black" points="734.876,-133.945 724.352,-135.169 733.342,-140.775 734.876,-133.945"/>
<text text-anchor="middle" x="795.28" y="-141.3" font-family="Times New Roman,serif" font-size="14.00"> &#160;&#160;swipe(&quot;Right&quot;) &#160;&#160;</text>
</g>
<!-- state_9&#45;&gt;state_9 -->
<g id="edge17" class="edge"><title>state_9&#45;&gt;state_9</title>
<path fill="none" stroke="black" d="M724.393,-164.016C780.184,-170.099 848.28,-163.76 848.28,-145 848.28,-127.376 788.18,-120.715 734.645,-125.016"/>
<polygon fill="black" stroke="black" points="734.02,-121.559 724.393,-125.984 734.678,-128.528 734.02,-121.559"/>
<text text-anchor="middle" x="897.78" y="-141.3" font-family="Times New Roman,serif" font-size="14.00"> &#160;&#160;swipe(&quot;Left&quot;) &#160;&#160;</text>
</g>
<!-- state_9&#45;&gt;state_9 -->
<g id="edge19" class="edge"><title>state_9&#45;&gt;state_9</title>
<path fill="none" stroke="black" d="M724.423,-169.517C811.207,-184.632 947.28,-176.46 947.28,-145 947.28,-114.738 821.374,-106.024 734.543,-118.858"/>
<polygon fill="black" stroke="black" points="733.741,-115.441 724.423,-120.483 734.852,-122.353 733.741,-115.441"/>
<text text-anchor="middle" x="1011.28" y="-141.3" font-family="Times New Roman,serif" font-size="14.00"> &#160;&#160;press(&quot;MenuKey&quot;) &#160;&#160;</text>
</g>
</g>
</svg>
