<?xml version="1.0" encoding="UTF-8" standalone="no"?>
<!DOCTYPE svg PUBLIC "-//W3C//DTD SVG 1.1//EN"
 "http://www.w3.org/Graphics/SVG/1.1/DTD/svg11.dtd">
<!-- Generated by graphviz version 2.38.0 (20140413.2041)
 -->
<!-- Title: result Pages: 1 -->
<svg width="593pt" height="352pt"
 viewBox="0.00 0.00 593.00 351.50" xmlns="http://www.w3.org/2000/svg" xmlns:xlink="http://www.w3.org/1999/xlink">
<g id="graph0" class="graph" transform="scale(1 1) rotate(0) translate(4 347.5)">
<title>result</title>
<polygon fill="white" stroke="none" points="-4,4 -4,-347.5 589,-347.5 589,4 -4,4"/>
<!-- initial -->
<g id="node1" class="node"><title>initial</title>
<image xlink:href="-1.png" width="50px" height="50px" preserveAspectRatio="xMinYMin meet" x="0" y="-193"/>
</g>
<!-- activity_0 -->
<g id="node2" class="node"><title>activity_0</title>
<g id="a_node2"><a xlink:href="activity_0.svg" xlink:title="&lt;TABLE&gt;">
<polygon fill="none" stroke="black" points="217,-305.5 87,-305.5 87,-30.5 217,-30.5 217,-305.5"/>
<text text-anchor="start" x="124.5" y="-293.8" font-family="Times New Roman,serif" font-size="14.00">activity_0</text>
<text text-anchor="start" x="121.5" y="-278.8" font-family="Times New Roman,serif" font-size="14.00">incoming:0</text>
<text text-anchor="start" x="122.5" y="-263.8" font-family="Times New Roman,serif" font-size="14.00">outgoing:3</text>
<image xlink:href="0.png" width="130px" height="230px" preserveAspectRatio="xMinYMin meet" x="87" y="-260"/>
</a>
</g>
</g>
<!-- initial&#45;&gt;activity_0 -->
<g id="edge1" class="edge"><title>initial&#45;&gt;activity_0</title>
<path fill="none" stroke="black" d="M50.1013,-168C57.9994,-168 67.2332,-168 76.8484,-168"/>
<polygon fill="black" stroke="black" points="76.9667,-171.5 86.9666,-168 76.9666,-164.5 76.9667,-171.5"/>
</g>
<!-- activity_1 -->
<g id="node3" class="node"><title>activity_1</title>
<g id="a_node3"><a xlink:href="activity_1.svg" xlink:title="&lt;TABLE&gt;">
<polygon fill="none" stroke="black" points="585,-343.5 455,-343.5 455,-68.5 585,-68.5 585,-343.5"/>
<text text-anchor="start" x="492.5" y="-331.8" font-family="Times New Roman,serif" font-size="14.00">activity_1</text>
<text text-anchor="start" x="489.5" y="-316.8" font-family="Times New Roman,serif" font-size="14.00">incoming:2</text>
<text text-anchor="start" x="490.5" y="-301.8" font-family="Times New Roman,serif" font-size="14.00">outgoing:0</text>
<image xlink:href="1.png" width="130px" height="230px" preserveAspectRatio="xMinYMin meet" x="455" y="-298"/>
</a>
</g>
</g>
<!-- activity_0&#45;&gt;activity_1 -->
<g id="edge2" class="edge"><title>activity_0&#45;&gt;activity_1</title>
<path fill="none" stroke="black" d="M217.341,-181.282C223.297,-182.292 229.251,-183.219 235,-184 305.844,-193.623 387.245,-199.393 444.686,-202.594"/>
<polygon fill="black" stroke="black" points="444.591,-206.093 454.766,-203.142 444.971,-199.104 444.591,-206.093"/>
<text text-anchor="middle" x="336" y="-204.8" font-family="Times New Roman,serif" font-size="14.00"> &#160;&#160;&lt;a0.s0,click(&quot;index=0&quot;),a1.s1&gt; &#160;&#160;</text>
</g>
<!-- activity_0&#45;&gt;activity_1 -->
<g id="edge4" class="edge"><title>activity_0&#45;&gt;activity_1</title>
<path fill="none" stroke="black" d="M217.132,-158.642C275.335,-152.183 363.097,-147.554 437,-165 439.667,-165.63 442.347,-166.36 445.025,-167.175"/>
<polygon fill="black" stroke="black" points="444.095,-170.556 454.69,-170.465 446.351,-163.929 444.095,-170.556"/>
<text text-anchor="middle" x="336" y="-168.8" font-family="Times New Roman,serif" font-size="14.00"> &#160;&#160;&lt;a0.s8,click(&quot;圖庫&quot;),a1.s15&gt; &#160;&#160;</text>
</g>
<!-- final -->
<g id="node4" class="node"><title>final</title>
<image xlink:href="-2.png" width="50px" height="50px" preserveAspectRatio="xMinYMin meet" x="495" y="-50"/>
</g>
<!-- activity_0&#45;&gt;final -->
<g id="edge3" class="edge"><title>activity_0&#45;&gt;final</title>
<path fill="none" stroke="black" d="M217.356,-140.243C223.309,-137.763 229.258,-135.316 235,-133 324.849,-96.7579 431.955,-56.9296 485.31,-37.315"/>
<polygon fill="black" stroke="black" points="486.755,-40.5127 494.937,-33.7809 484.343,-33.9415 486.755,-40.5127"/>
<text text-anchor="middle" x="336" y="-136.8" font-family="Times New Roman,serif" font-size="14.00"> &#160;&#160;&lt;a0.s0,press(&quot;BackKey&quot;),final&gt; &#160;&#160;</text>
</g>
</g>
</svg>
