<?xml version="1.0" encoding="UTF-8" standalone="no"?>
<!DOCTYPE svg PUBLIC "-//W3C//DTD SVG 1.1//EN"
 "http://www.w3.org/Graphics/SVG/1.1/DTD/svg11.dtd">
<!-- Generated by graphviz version 2.38.0 (20140413.2041)
 -->
<!-- Title: g Pages: 1 -->
<svg width="1253pt" height="823pt"
 viewBox="0.00 0.00 1253.00 823.00" xmlns="http://www.w3.org/2000/svg" xmlns:xlink="http://www.w3.org/1999/xlink">
<g id="graph0" class="graph" transform="scale(1 1) rotate(0) translate(4 819)">
<title>g</title>
<polygon fill="white" stroke="none" points="-4,4 -4,-819 1249,-819 1249,4 -4,4"/>
<text text-anchor="middle" x="622.5" y="-7.8" font-family="Times New Roman,serif" font-size="14.00"> &#160;&#160;activity_2 &#160;&#160;</text>
<!-- state_0 -->
<g id="node1" class="node"><title>state_0</title>
<g id="a_node1"><a xlink:href="0.png">
<polygon fill="none" stroke="black" points="567,-815 437,-815 437,-585 567,-585 567,-815"/>
<image xlink:href="0.png" width="130px" height="230px" preserveAspectRatio="xMinYMin meet" x="437" y="-815"/>
</a>
</g>
</g>
<!-- state_0&#45;&gt;state_0 -->
<g id="edge1" class="edge"><title>state_0&#45;&gt;state_0</title>
<path fill="none" stroke="black" d="M567.072,-704.857C577.697,-704.162 585,-702.543 585,-700 585,-698.371 582.003,-697.121 577.055,-696.25"/>
<polygon fill="black" stroke="black" points="577.397,-692.767 567.072,-695.143 576.625,-699.724 577.397,-692.767"/>
<text text-anchor="middle" x="642.5" y="-696.3" font-family="Times New Roman,serif" font-size="14.00"> &#160;&#160;click(&quot;index=1&quot;) &#160;&#160;</text>
</g>
<!-- state_0&#45;&gt;state_0 -->
<g id="edge2" class="edge"><title>state_0&#45;&gt;state_0</title>
<path fill="none" stroke="black" d="M567.181,-709.273C626.033,-712.484 700,-709.393 700,-700 700,-691.139 634.175,-687.887 577.31,-690.242"/>
<polygon fill="black" stroke="black" points="577.002,-686.752 567.181,-690.727 577.337,-693.744 577.002,-686.752"/>
<text text-anchor="middle" x="757.5" y="-696.3" font-family="Times New Roman,serif" font-size="14.00"> &#160;&#160;click(&quot;index=2&quot;) &#160;&#160;</text>
</g>
<!-- state_0&#45;&gt;state_0 -->
<g id="edge3" class="edge"><title>state_0&#45;&gt;state_0</title>
<path fill="none" stroke="black" d="M567.275,-711.782C660.849,-719.698 815,-715.771 815,-700 815,-684.784 671.498,-680.593 577.36,-687.427"/>
<polygon fill="black" stroke="black" points="576.971,-683.947 567.275,-688.218 577.518,-690.926 576.971,-683.947"/>
<text text-anchor="middle" x="872.5" y="-696.3" font-family="Times New Roman,serif" font-size="14.00"> &#160;&#160;click(&quot;index=3&quot;) &#160;&#160;</text>
</g>
<!-- state_0&#45;&gt;state_0 -->
<g id="edge4" class="edge"><title>state_0&#45;&gt;state_0</title>
<path fill="none" stroke="black" d="M567.274,-713.79C689.589,-726.8 930,-722.203 930,-700 930,-678.404 702.557,-673.465 577.565,-685.182"/>
<polygon fill="black" stroke="black" points="576.876,-681.733 567.274,-686.21 577.572,-688.699 576.876,-681.733"/>
<text text-anchor="middle" x="983" y="-696.3" font-family="Times New Roman,serif" font-size="14.00"> &#160;&#160;swipe(&quot;Right&quot;) &#160;&#160;</text>
</g>
<!-- state_0&#45;&gt;state_0 -->
<g id="edge5" class="edge"><title>state_0&#45;&gt;state_0</title>
<path fill="none" stroke="black" d="M567.05,-715.575C712.59,-733.851 1036,-728.66 1036,-700 1036,-671.984 726.955,-666.394 577.12,-683.229"/>
<polygon fill="black" stroke="black" points="576.567,-679.77 567.05,-684.425 577.393,-686.721 576.567,-679.77"/>
<text text-anchor="middle" x="1085.5" y="-696.3" font-family="Times New Roman,serif" font-size="14.00"> &#160;&#160;swipe(&quot;Left&quot;) &#160;&#160;</text>
</g>
<!-- state_8 -->
<g id="node2" class="node"><title>state_8</title>
<g id="a_node2"><a xlink:href="8.png">
<polygon fill="none" stroke="black" points="349,-534 219,-534 219,-304 349,-304 349,-534"/>
<image xlink:href="8.png" width="130px" height="230px" preserveAspectRatio="xMinYMin meet" x="219" y="-534"/>
</a>
</g>
</g>
<!-- state_0&#45;&gt;state_8 -->
<g id="edge6" class="edge"><title>state_0&#45;&gt;state_8</title>
<path fill="none" stroke="black" d="M436.72,-690.777C365.655,-677.954 255.31,-645.846 204,-567 188.267,-542.823 196.767,-515.291 213.072,-490.641"/>
<polygon fill="black" stroke="black" points="215.979,-492.592 218.877,-482.401 210.257,-488.56 215.979,-492.592"/>
<text text-anchor="middle" x="268" y="-555.8" font-family="Times New Roman,serif" font-size="14.00"> &#160;&#160;press(&quot;MenuKey&quot;) &#160;&#160;</text>
</g>
<!-- state_1 -->
<g id="node4" class="node"><title>state_1</title>
<g id="a_node4"><a xlink:href="1.png">
<polygon fill="none" stroke="black" points="130,-534 0,-534 0,-304 130,-304 130,-534"/>
<image xlink:href="1.png" width="130px" height="230px" preserveAspectRatio="xMinYMin meet" x="0" y="-534"/>
</a>
</g>
</g>
<!-- state_0&#45;&gt;state_1 -->
<g id="edge7" class="edge"><title>state_0&#45;&gt;state_1</title>
<path fill="none" stroke="black" d="M436.944,-699.492C341.86,-696.343 166.732,-675.129 79,-567 73.3081,-559.985 68.918,-552.116 65.579,-543.761"/>
<polygon fill="black" stroke="black" points="68.8261,-542.441 62.2425,-534.14 62.2126,-544.735 68.8261,-542.441"/>
<text text-anchor="middle" x="136.5" y="-555.8" font-family="Times New Roman,serif" font-size="14.00"> &#160;&#160;click(&quot;index=0&quot;) &#160;&#160;</text>
</g>
<!-- state_final -->
<g id="node6" class="node"><title>state_final</title>
<g id="a_node6"><a xlink:href="-2.png">
<polygon fill="none" stroke="black" points="738,-534 608,-534 608,-304 738,-304 738,-534"/>
<image xlink:href="-2.png" width="76px" height="74px" preserveAspectRatio="xMinYMin meet" x="635" y="-456"/>
</a>
</g>
</g>
<!-- state_0&#45;&gt;state_final -->
<g id="edge8" class="edge"><title>state_0&#45;&gt;state_final</title>
<path fill="none" stroke="black" d="M567.063,-644.814C590.072,-622.745 614.346,-595.68 631,-567 635.309,-559.579 639.2,-551.688 642.709,-543.563"/>
<polygon fill="black" stroke="black" points="645.951,-544.884 646.511,-534.304 639.475,-542.225 645.951,-544.884"/>
<text text-anchor="middle" x="700.5" y="-555.8" font-family="Times New Roman,serif" font-size="14.00"> &#160;&#160;press(&quot;BackKey&quot;) &#160;&#160;</text>
</g>
<!-- state_8&#45;&gt;state_0 -->
<g id="edge12" class="edge"><title>state_8&#45;&gt;state_0</title>
<path fill="none" stroke="black" d="M333.573,-534.193C340.175,-545.652 347.337,-556.805 355,-567 375.917,-594.83 403.356,-621.342 428.857,-643.206"/>
<polygon fill="black" stroke="black" points="426.804,-646.054 436.7,-649.839 431.324,-640.709 426.804,-646.054"/>
<text text-anchor="middle" x="417.5" y="-555.8" font-family="Times New Roman,serif" font-size="14.00"> &#160;&#160;press(&quot;BackKey&quot;) &#160;&#160;</text>
</g>
<!-- state_8&#45;&gt;state_0 -->
<g id="edge13" class="edge"><title>state_8&#45;&gt;state_0</title>
<path fill="none" stroke="black" d="M349.367,-446.834C393.587,-468.515 449.329,-503.44 480,-552 484.556,-559.213 488.302,-567.016 491.372,-575.134"/>
<polygon fill="black" stroke="black" points="488.127,-576.462 494.672,-584.794 494.751,-574.199 488.127,-576.462"/>
<text text-anchor="middle" x="551" y="-555.8" font-family="Times New Roman,serif" font-size="14.00"> &#160;&#160;press(&quot;MenuKey&quot;) &#160;&#160;</text>
</g>
<!-- state_8&#45;&gt;state_8 -->
<g id="edge10" class="edge"><title>state_8&#45;&gt;state_8</title>
<path fill="none" stroke="black" d="M349.072,-431.144C359.697,-429.405 367,-425.357 367,-419 367,-414.927 364.003,-411.802 359.055,-409.625"/>
<polygon fill="black" stroke="black" points="359.643,-406.156 349.072,-406.856 357.773,-412.902 359.643,-406.156"/>
<text text-anchor="middle" x="420" y="-415.3" font-family="Times New Roman,serif" font-size="14.00"> &#160;&#160;swipe(&quot;Right&quot;) &#160;&#160;</text>
</g>
<!-- state_8&#45;&gt;state_8 -->
<g id="edge11" class="edge"><title>state_8&#45;&gt;state_8</title>
<path fill="none" stroke="black" d="M349.113,-442.491C404.904,-450.004 473,-442.174 473,-419 473,-397.229 412.9,-389 359.364,-394.313"/>
<polygon fill="black" stroke="black" points="358.64,-390.874 349.113,-395.509 359.451,-397.827 358.64,-390.874"/>
<text text-anchor="middle" x="522.5" y="-415.3" font-family="Times New Roman,serif" font-size="14.00"> &#160;&#160;swipe(&quot;Left&quot;) &#160;&#160;</text>
</g>
<!-- state_9 -->
<g id="node3" class="node"><title>state_9</title>
<g id="a_node3"><a xlink:href="9.png">
<polygon fill="none" stroke="black" points="858,-253 728,-253 728,-23 858,-23 858,-253"/>
<image xlink:href="9.png" width="130px" height="230px" preserveAspectRatio="xMinYMin meet" x="728" y="-253"/>
</a>
</g>
</g>
<!-- state_8&#45;&gt;state_9 -->
<g id="edge9" class="edge"><title>state_8&#45;&gt;state_9</title>
<path fill="none" stroke="black" d="M349.241,-382.239C444.026,-330.285 619.327,-234.196 718.874,-179.631"/>
<polygon fill="black" stroke="black" points="720.589,-182.682 727.676,-174.806 717.224,-176.544 720.589,-182.682"/>
<text text-anchor="middle" x="591" y="-274.8" font-family="Times New Roman,serif" font-size="14.00"> &#160;&#160;click(&quot;About&quot;) &#160;&#160;</text>
</g>
<!-- state_15 -->
<g id="node5" class="node"><title>state_15</title>
<g id="a_node5"><a xlink:href="15.png">
<polygon fill="none" stroke="black" points="349,-253 219,-253 219,-23 349,-23 349,-253"/>
<image xlink:href="15.png" width="130px" height="230px" preserveAspectRatio="xMinYMin meet" x="219" y="-253"/>
</a>
</g>
</g>
<!-- state_8&#45;&gt;state_15 -->
<g id="edge14" class="edge"><title>state_8&#45;&gt;state_15</title>
<path fill="none" stroke="black" d="M284,-303.715C284,-290.404 284,-276.776 284,-263.338"/>
<polygon fill="black" stroke="black" points="287.5,-263.107 284,-253.107 280.5,-263.107 287.5,-263.107"/>
<text text-anchor="middle" x="332" y="-274.8" font-family="Times New Roman,serif" font-size="14.00"> &#160;&#160;click(&quot;圖庫&quot;) &#160;&#160;</text>
</g>
<!-- state_9&#45;&gt;state_0 -->
<g id="edge15" class="edge"><title>state_9&#45;&gt;state_0</title>
<path fill="none" stroke="black" d="M798.633,-253.215C801.811,-362.324 799.895,-517.299 767,-567 724.051,-631.892 639.215,-666.197 577.059,-683.398"/>
<polygon fill="black" stroke="black" points="576.043,-680.046 567.288,-686.013 577.853,-686.808 576.043,-680.046"/>
<text text-anchor="middle" x="847" y="-415.3" font-family="Times New Roman,serif" font-size="14.00"> &#160;&#160;click(&quot;確定&quot;) &#160;&#160;</text>
</g>
<!-- state_9&#45;&gt;state_0 -->
<g id="edge18" class="edge"><title>state_9&#45;&gt;state_0</title>
<path fill="none" stroke="black" d="M858.021,-220.07C874.706,-245.475 890.369,-274.598 899,-304 927.791,-402.084 955.741,-448.971 899,-534 827.247,-641.525 670.88,-679.082 577.225,-692.128"/>
<polygon fill="black" stroke="black" points="576.694,-688.667 567.244,-693.458 577.619,-695.606 576.694,-688.667"/>
<text text-anchor="middle" x="993.5" y="-415.3" font-family="Times New Roman,serif" font-size="14.00"> &#160;&#160;press(&quot;BackKey&quot;) &#160;&#160;</text>
</g>
<!-- state_9&#45;&gt;state_9 -->
<g id="edge16" class="edge"><title>state_9&#45;&gt;state_9</title>
<path fill="none" stroke="black" d="M858.072,-146.096C868.697,-144.937 876,-142.238 876,-138 876,-135.285 873.003,-133.202 868.055,-131.75"/>
<polygon fill="black" stroke="black" points="868.541,-128.281 858.072,-129.904 867.269,-135.164 868.541,-128.281"/>
<text text-anchor="middle" x="929" y="-134.3" font-family="Times New Roman,serif" font-size="14.00"> &#160;&#160;swipe(&quot;Right&quot;) &#160;&#160;</text>
</g>
<!-- state_9&#45;&gt;state_9 -->
<g id="edge17" class="edge"><title>state_9&#45;&gt;state_9</title>
<path fill="none" stroke="black" d="M858.113,-153.66C913.904,-158.669 982,-153.449 982,-138 982,-123.486 921.9,-118 868.364,-121.542"/>
<polygon fill="black" stroke="black" points="867.812,-118.075 858.113,-122.34 868.355,-125.053 867.812,-118.075"/>
<text text-anchor="middle" x="1031.5" y="-134.3" font-family="Times New Roman,serif" font-size="14.00"> &#160;&#160;swipe(&quot;Left&quot;) &#160;&#160;</text>
</g>
<!-- state_9&#45;&gt;state_9 -->
<g id="edge19" class="edge"><title>state_9&#45;&gt;state_9</title>
<path fill="none" stroke="black" d="M858.143,-158.19C944.927,-170.638 1081,-163.908 1081,-138 1081,-113.079 955.094,-105.902 868.263,-116.471"/>
<polygon fill="black" stroke="black" points="867.597,-113.028 858.143,-117.81 868.516,-119.968 867.597,-113.028"/>
<text text-anchor="middle" x="1145" y="-134.3" font-family="Times New Roman,serif" font-size="14.00"> &#160;&#160;press(&quot;MenuKey&quot;) &#160;&#160;</text>
</g>
</g>
</svg>
