<?xml version="1.0" encoding="UTF-8" standalone="no"?>
<!DOCTYPE svg PUBLIC "-//W3C//DTD SVG 1.1//EN"
 "http://www.w3.org/Graphics/SVG/1.1/DTD/svg11.dtd">
<!-- Generated by graphviz version 2.38.0 (20140413.2041)
 -->
<!-- Title: activity_0 Pages: 1 -->
<svg width="3403pt" height="1749pt"
 viewBox="0.00 0.00 3403.00 1749.00" xmlns="http://www.w3.org/2000/svg" xmlns:xlink="http://www.w3.org/1999/xlink">
<g id="graph0" class="graph" transform="scale(1 1) rotate(0) translate(4 1745)">
<title>activity_0</title>
<polygon fill="white" stroke="none" points="-4,4 -4,-1745 3399,-1745 3399,4 -4,4"/>
<!-- state_0 -->
<g id="node1" class="node"><title>state_0</title>
<g id="a_node1"><a xlink:href="0.png" xlink:title="&lt;TABLE&gt;">
<polygon fill="none" stroke="black" points="2491,-1741 2361,-1741 2361,-1451 2491,-1451 2491,-1741"/>
<text text-anchor="start" x="2406" y="-1729.8" font-family="Times New Roman,serif" font-size="14.00">state_0</text>
<text text-anchor="start" x="2395.5" y="-1714.8" font-family="Times New Roman,serif" font-size="14.00">incoming:9</text>
<text text-anchor="start" x="2396.5" y="-1699.8" font-family="Times New Roman,serif" font-size="14.00">outgoing:6</text>
<text text-anchor="start" x="2408" y="-1684.8" font-family="Times New Roman,serif" font-size="14.00">loop:3</text>
<image xlink:href="0.png" width="130px" height="230px" preserveAspectRatio="xMinYMin meet" x="2361" y="-1681"/>
</a>
</g>
</g>
<!-- state_0&#45;&gt;state_0 -->
<g id="edge1" class="edge"><title>state_0&#45;&gt;state_0</title>
<path fill="none" stroke="black" d="M2491.07,-1605.83C2501.7,-1604.42 2509,-1601.15 2509,-1596 2509,-1592.7 2506,-1590.17 2501.06,-1588.41"/>
<polygon fill="black" stroke="black" points="2501.6,-1584.95 2491.07,-1586.17 2500.06,-1591.78 2501.6,-1584.95"/>
<text text-anchor="middle" x="2580" y="-1592.3" font-family="Times New Roman,serif" font-size="14.00"> &#160;&#160;longClick(&quot;index=1&quot;) &#160;&#160;</text>
</g>
<!-- state_0&#45;&gt;state_0 -->
<g id="edge2" class="edge"><title>state_0&#45;&gt;state_0</title>
<path fill="none" stroke="black" d="M2491.1,-1614.04C2558.76,-1621.69 2651,-1615.67 2651,-1596 2651,-1577.29 2567.55,-1570.93 2501.17,-1576.94"/>
<polygon fill="black" stroke="black" points="2500.69,-1573.47 2491.1,-1577.96 2501.4,-1580.43 2500.69,-1573.47"/>
<text text-anchor="middle" x="2704" y="-1592.3" font-family="Times New Roman,serif" font-size="14.00"> &#160;&#160;swipe(&quot;Right&quot;) &#160;&#160;</text>
</g>
<!-- state_0&#45;&gt;state_0 -->
<g id="edge3" class="edge"><title>state_0&#45;&gt;state_0</title>
<path fill="none" stroke="black" d="M2491.01,-1619.34C2589.26,-1636.03 2757,-1628.25 2757,-1596 2757,-1564.82 2600.22,-1556.52 2501.02,-1571.08"/>
<polygon fill="black" stroke="black" points="2500.34,-1567.65 2491.01,-1572.66 2501.44,-1574.56 2500.34,-1567.65"/>
<text text-anchor="middle" x="2806.5" y="-1592.3" font-family="Times New Roman,serif" font-size="14.00"> &#160;&#160;swipe(&quot;Left&quot;) &#160;&#160;</text>
</g>
<!-- state_6 -->
<g id="node2" class="node"><title>state_6</title>
<g id="a_node2"><a xlink:href="6.png" xlink:title="&lt;TABLE&gt;">
<polygon fill="none" stroke="black" points="350,-631 220,-631 220,-341 350,-341 350,-631"/>
<text text-anchor="start" x="265" y="-619.8" font-family="Times New Roman,serif" font-size="14.00">state_6</text>
<text text-anchor="start" x="254.5" y="-604.8" font-family="Times New Roman,serif" font-size="14.00">incoming:7</text>
<text text-anchor="start" x="255.5" y="-589.8" font-family="Times New Roman,serif" font-size="14.00">outgoing:5</text>
<text text-anchor="start" x="267" y="-574.8" font-family="Times New Roman,serif" font-size="14.00">loop:2</text>
<image xlink:href="6.png" width="130px" height="230px" preserveAspectRatio="xMinYMin meet" x="220" y="-571"/>
</a>
</g>
</g>
<!-- state_0&#45;&gt;state_6 -->
<g id="edge4" class="edge"><title>state_0&#45;&gt;state_6</title>
<path fill="none" stroke="black" d="M2360.8,-1592.81C1974.24,-1579.42 0,-1505.05 0,-1383 0,-1383 0,-1383 0,-826 0,-694.61 126.986,-587.581 211.43,-530.934"/>
<polygon fill="black" stroke="black" points="213.567,-533.716 219.972,-525.276 209.702,-527.879 213.567,-533.716"/>
<text text-anchor="middle" x="64" y="-1164.3" font-family="Times New Roman,serif" font-size="14.00"> &#160;&#160;press(&quot;MenuKey&quot;) &#160;&#160;</text>
</g>
<!-- activity_1 -->
<g id="node9" class="node"><title>activity_1</title>
<ellipse fill="none" stroke="red" cx="1351" cy="-1382" rx="46.2923" ry="18"/>
<text text-anchor="middle" x="1351" y="-1378.3" font-family="Times New Roman,serif" font-size="14.00" fill="red">activity_1</text>
</g>
<!-- state_0&#45;&gt;activity_1 -->
<g id="edge5" class="edge"><title>state_0&#45;&gt;activity_1</title>
<path fill="none" stroke="red" d="M2360.77,-1582.14C2163.64,-1543.26 1576.79,-1427.53 1401.19,-1392.9"/>
<polygon fill="red" stroke="red" points="1401.68,-1389.43 1391.19,-1390.93 1400.32,-1396.29 1401.68,-1389.43"/>
<text text-anchor="middle" x="1640.5" y="-1421.8" font-family="Times New Roman,serif" font-size="14.00" fill="red"> &#160;&#160;click(&quot;index=1&quot;) &#160;&#160;</text>
</g>
<!-- final -->
<g id="node10" class="node"><title>final</title>
<image xlink:href="-2.png" width="50px" height="50px" preserveAspectRatio="xMinYMin meet" x="1637" y="-511"/>
</g>
<!-- state_0&#45;&gt;final -->
<g id="edge6" class="edge"><title>state_0&#45;&gt;final</title>
<path fill="none" stroke="red" d="M2491.18,-1550.82C2557.24,-1501.68 2655.32,-1415.54 2696,-1313 2743.53,-1193.19 2746.18,-1141.72 2696,-1023 2611.32,-822.665 2539.73,-778.874 2345,-682 2323.36,-671.235 2154.02,-651.667 2130,-649 2072.22,-642.584 1923.84,-650.297 1869,-631 1799.99,-606.718 1732.87,-552.775 1694.58,-518.243"/>
<polygon fill="red" stroke="red" points="1696.6,-515.348 1686.85,-511.187 1691.88,-520.516 1696.6,-515.348"/>
<text text-anchor="middle" x="2794.5" y="-1164.3" font-family="Times New Roman,serif" font-size="14.00" fill="red"> &#160;&#160;press(&quot;BackKey&quot;) &#160;&#160;</text>
</g>
<!-- state_6&#45;&gt;state_0 -->
<g id="edge10" class="edge"><title>state_6&#45;&gt;state_0</title>
<path fill="none" stroke="black" d="M219.896,-606.525C191.256,-669.857 164,-750.074 164,-826 164,-1383 164,-1383 164,-1383 164,-1495.4 1957.91,-1575.74 2350.63,-1591.98"/>
<polygon fill="black" stroke="black" points="2350.61,-1595.48 2360.74,-1592.39 2350.89,-1588.48 2350.61,-1595.48"/>
<text text-anchor="middle" x="226.5" y="-1164.3" font-family="Times New Roman,serif" font-size="14.00"> &#160;&#160;press(&quot;BackKey&quot;) &#160;&#160;</text>
</g>
<!-- state_6&#45;&gt;state_0 -->
<g id="edge11" class="edge"><title>state_6&#45;&gt;state_0</title>
<path fill="none" stroke="black" d="M256.992,-631.193C254.528,-648.261 252.429,-665.481 251,-682 239.889,-810.409 207.475,-850.682 251,-972 260.916,-999.639 281.169,-996.125 293,-1023 345.446,-1142.14 264.935,-1202.66 334,-1313 347.931,-1335.26 358.399,-1336.82 383,-1346 756.001,-1485.12 2027.54,-1570.71 2350.78,-1590.55"/>
<polygon fill="black" stroke="black" points="2350.78,-1594.06 2360.97,-1591.17 2351.2,-1587.07 2350.78,-1594.06"/>
<text text-anchor="middle" x="398" y="-1164.3" font-family="Times New Roman,serif" font-size="14.00"> &#160;&#160;press(&quot;MenuKey&quot;) &#160;&#160;</text>
</g>
<!-- state_6&#45;&gt;state_6 -->
<g id="edge8" class="edge"><title>state_6&#45;&gt;state_6</title>
<path fill="none" stroke="black" d="M350.072,-500.746C360.697,-498.635 368,-493.72 368,-486 368,-480.934 364.855,-477.076 359.69,-474.425"/>
<polygon fill="black" stroke="black" points="360.665,-471.061 350.072,-471.254 358.473,-477.709 360.665,-471.061"/>
<text text-anchor="middle" x="421" y="-482.3" font-family="Times New Roman,serif" font-size="14.00"> &#160;&#160;swipe(&quot;Right&quot;) &#160;&#160;</text>
</g>
<!-- state_6&#45;&gt;state_6 -->
<g id="edge9" class="edge"><title>state_6&#45;&gt;state_6</title>
<path fill="none" stroke="black" d="M350.113,-514.524C405.904,-523.648 474,-514.14 474,-486 474,-459.509 413.65,-449.53 360.031,-456.064"/>
<polygon fill="black" stroke="black" points="359.52,-452.601 350.113,-457.476 360.507,-459.531 359.52,-452.601"/>
<text text-anchor="middle" x="523.5" y="-482.3" font-family="Times New Roman,serif" font-size="14.00"> &#160;&#160;swipe(&quot;Left&quot;) &#160;&#160;</text>
</g>
<!-- state_7 -->
<g id="node3" class="node"><title>state_7</title>
<g id="a_node3"><a xlink:href="7.png" xlink:title="&lt;TABLE&gt;">
<polygon fill="none" stroke="black" points="3008,-290 2878,-290 2878,-0 3008,-0 3008,-290"/>
<text text-anchor="start" x="2923" y="-278.8" font-family="Times New Roman,serif" font-size="14.00">state_7</text>
<text text-anchor="start" x="2912.5" y="-263.8" font-family="Times New Roman,serif" font-size="14.00">incoming:5</text>
<text text-anchor="start" x="2913.5" y="-248.8" font-family="Times New Roman,serif" font-size="14.00">outgoing:5</text>
<text text-anchor="start" x="2925" y="-233.8" font-family="Times New Roman,serif" font-size="14.00">loop:3</text>
<image xlink:href="7.png" width="130px" height="230px" preserveAspectRatio="xMinYMin meet" x="2878" y="-230"/>
</a>
</g>
</g>
<!-- state_6&#45;&gt;state_7 -->
<g id="edge7" class="edge"><title>state_6&#45;&gt;state_7</title>
<path fill="none" stroke="black" d="M350.044,-476.704C712.452,-430.483 2480.11,-205.036 2867.76,-155.596"/>
<polygon fill="black" stroke="black" points="2868.27,-159.06 2877.74,-154.323 2867.38,-152.116 2868.27,-159.06"/>
<text text-anchor="middle" x="1662" y="-311.8" font-family="Times New Roman,serif" font-size="14.00"> &#160;&#160;click(&quot;大约&quot;) &#160;&#160;</text>
</g>
<!-- state_7&#45;&gt;state_0 -->
<g id="edge12" class="edge"><title>state_7&#45;&gt;state_0</title>
<path fill="none" stroke="black" d="M2981.21,-290.113C2993.97,-349.952 3005,-420.383 3005,-485 3005,-1383 3005,-1383 3005,-1383 3005,-1489.12 2657.69,-1558.03 2501.05,-1583.71"/>
<polygon fill="black" stroke="black" points="2500.32,-1580.28 2491.01,-1585.34 2501.44,-1587.19 2500.32,-1580.28"/>
<text text-anchor="middle" x="3050.5" y="-993.8" font-family="Times New Roman,serif" font-size="14.00"> &#160;&#160;click(&quot;OK&quot;) &#160;&#160;</text>
</g>
<!-- state_7&#45;&gt;state_0 -->
<g id="edge15" class="edge"><title>state_7&#45;&gt;state_0</title>
<path fill="none" stroke="black" d="M3008.04,-220.419C3058.17,-285.578 3119,-385.198 3119,-485 3119,-1383 3119,-1383 3119,-1383 3119,-1511.05 2680.88,-1569.5 2501.35,-1588.07"/>
<polygon fill="black" stroke="black" points="2500.79,-1584.61 2491.2,-1589.11 2501.5,-1591.58 2500.79,-1584.61"/>
<text text-anchor="middle" x="3181.5" y="-993.8" font-family="Times New Roman,serif" font-size="14.00"> &#160;&#160;press(&quot;BackKey&quot;) &#160;&#160;</text>
</g>
<!-- state_7&#45;&gt;state_7 -->
<g id="edge13" class="edge"><title>state_7&#45;&gt;state_7</title>
<path fill="none" stroke="black" d="M3008.07,-154.831C3018.7,-153.423 3026,-150.146 3026,-145 3026,-141.703 3023,-139.173 3018.06,-137.411"/>
<polygon fill="black" stroke="black" points="3018.6,-133.945 3008.07,-135.169 3017.06,-140.775 3018.6,-133.945"/>
<text text-anchor="middle" x="3079" y="-141.3" font-family="Times New Roman,serif" font-size="14.00"> &#160;&#160;swipe(&quot;Right&quot;) &#160;&#160;</text>
</g>
<!-- state_7&#45;&gt;state_7 -->
<g id="edge14" class="edge"><title>state_7&#45;&gt;state_7</title>
<path fill="none" stroke="black" d="M3008.11,-164.016C3063.9,-170.099 3132,-163.76 3132,-145 3132,-127.376 3071.9,-120.715 3018.36,-125.016"/>
<polygon fill="black" stroke="black" points="3017.74,-121.559 3008.11,-125.984 3018.4,-128.528 3017.74,-121.559"/>
<text text-anchor="middle" x="3181.5" y="-141.3" font-family="Times New Roman,serif" font-size="14.00"> &#160;&#160;swipe(&quot;Left&quot;) &#160;&#160;</text>
</g>
<!-- state_7&#45;&gt;state_7 -->
<g id="edge16" class="edge"><title>state_7&#45;&gt;state_7</title>
<path fill="none" stroke="black" d="M3008.14,-169.517C3094.93,-184.632 3231,-176.46 3231,-145 3231,-114.738 3105.09,-106.024 3018.26,-118.858"/>
<polygon fill="black" stroke="black" points="3017.46,-115.441 3008.14,-120.483 3018.57,-122.353 3017.46,-115.441"/>
<text text-anchor="middle" x="3295" y="-141.3" font-family="Times New Roman,serif" font-size="14.00"> &#160;&#160;press(&quot;MenuKey&quot;) &#160;&#160;</text>
</g>
<!-- state_32 -->
<g id="node4" class="node"><title>state_32</title>
<g id="a_node4"><a xlink:href="32.png" xlink:title="&lt;TABLE&gt;">
<polygon fill="none" stroke="black" points="1666,-1313 1536,-1313 1536,-1023 1666,-1023 1666,-1313"/>
<text text-anchor="start" x="1577.5" y="-1301.8" font-family="Times New Roman,serif" font-size="14.00">state_32</text>
<text text-anchor="start" x="1570.5" y="-1286.8" font-family="Times New Roman,serif" font-size="14.00">incoming:3</text>
<text text-anchor="start" x="1571.5" y="-1271.8" font-family="Times New Roman,serif" font-size="14.00">outgoing:9</text>
<text text-anchor="start" x="1583" y="-1256.8" font-family="Times New Roman,serif" font-size="14.00">loop:0</text>
<image xlink:href="32.png" width="130px" height="230px" preserveAspectRatio="xMinYMin meet" x="1536" y="-1253"/>
</a>
</g>
</g>
<!-- state_32&#45;&gt;state_6 -->
<g id="edge24" class="edge"><title>state_32&#45;&gt;state_6</title>
<path fill="none" stroke="black" d="M1535.76,-1027.07C1534.2,-1025.67 1532.62,-1024.31 1531,-1023 1494.53,-993.443 1356.96,-1007.29 1326,-972 1283.23,-923.243 1340.9,-725.736 1293,-682 1260.25,-652.098 536.479,-679.681 495,-664 442.943,-644.32 394.701,-605.792 357.617,-569.693"/>
<polygon fill="black" stroke="black" points="359.924,-567.052 350.351,-562.512 355.004,-572.031 359.924,-567.052"/>
<text text-anchor="middle" x="1390" y="-823.3" font-family="Times New Roman,serif" font-size="14.00"> &#160;&#160;press(&quot;MenuKey&quot;) &#160;&#160;</text>
</g>
<!-- state_72 -->
<g id="node5" class="node"><title>state_72</title>
<g id="a_node5"><a xlink:href="72.png" xlink:title="&lt;TABLE&gt;">
<polygon fill="none" stroke="black" points="1935,-972 1805,-972 1805,-682 1935,-682 1935,-972"/>
<text text-anchor="start" x="1846.5" y="-960.8" font-family="Times New Roman,serif" font-size="14.00">state_72</text>
<text text-anchor="start" x="1836" y="-945.8" font-family="Times New Roman,serif" font-size="14.00">incoming:10</text>
<text text-anchor="start" x="1840.5" y="-930.8" font-family="Times New Roman,serif" font-size="14.00">outgoing:9</text>
<text text-anchor="start" x="1852" y="-915.8" font-family="Times New Roman,serif" font-size="14.00">loop:3</text>
<image xlink:href="72.png" width="130px" height="230px" preserveAspectRatio="xMinYMin meet" x="1805" y="-912"/>
</a>
</g>
</g>
<!-- state_32&#45;&gt;state_72 -->
<g id="edge18" class="edge"><title>state_32&#45;&gt;state_72</title>
<path fill="none" stroke="black" d="M1651.04,-1022.89C1659.81,-1010.44 1670.05,-999.133 1682,-990 1721.01,-960.182 1750.93,-1000.38 1791,-972 1793.14,-970.486 1795.22,-968.894 1797.26,-967.234"/>
<polygon fill="black" stroke="black" points="1799.7,-969.752 1804.86,-960.501 1795.05,-964.512 1799.7,-969.752"/>
<text text-anchor="middle" x="1753" y="-993.8" font-family="Times New Roman,serif" font-size="14.00"> &#160;&#160;longClick(&quot;index=1&quot;) &#160;&#160;</text>
</g>
<!-- state_32&#45;&gt;state_72 -->
<g id="edge22" class="edge"><title>state_32&#45;&gt;state_72</title>
<path fill="none" stroke="black" d="M1666.05,-1135.65C1716.5,-1108.06 1784.31,-1063.22 1824,-1005 1829,-997.662 1833.46,-989.814 1837.44,-981.656"/>
<polygon fill="black" stroke="black" points="1840.73,-982.872 1841.72,-972.323 1834.37,-979.951 1840.73,-982.872"/>
<text text-anchor="middle" x="1884" y="-993.8" font-family="Times New Roman,serif" font-size="14.00"> &#160;&#160;swipe(&quot;Right&quot;) &#160;&#160;</text>
</g>
<!-- state_32&#45;&gt;state_72 -->
<g id="edge23" class="edge"><title>state_32&#45;&gt;state_72</title>
<path fill="none" stroke="black" d="M1547.03,-1022.62C1549.16,-1010.7 1554.15,-999.579 1563,-990 1597.5,-952.674 1748.32,-999.593 1791,-972 1792.99,-970.711 1794.94,-969.353 1796.85,-967.932"/>
<polygon fill="black" stroke="black" points="1799.39,-970.37 1804.9,-961.321 1794.95,-964.959 1799.39,-970.37"/>
<text text-anchor="middle" x="1612.5" y="-993.8" font-family="Times New Roman,serif" font-size="14.00"> &#160;&#160;swipe(&quot;Left&quot;) &#160;&#160;</text>
</g>
<!-- state_76 -->
<g id="node6" class="node"><title>state_76</title>
<g id="a_node6"><a xlink:href="76.png" xlink:title="&lt;TABLE&gt;">
<polygon fill="none" stroke="black" points="2008,-631 1878,-631 1878,-341 2008,-341 2008,-631"/>
<text text-anchor="start" x="1919.5" y="-619.8" font-family="Times New Roman,serif" font-size="14.00">state_76</text>
<text text-anchor="start" x="1912.5" y="-604.8" font-family="Times New Roman,serif" font-size="14.00">incoming:6</text>
<text text-anchor="start" x="1913.5" y="-589.8" font-family="Times New Roman,serif" font-size="14.00">outgoing:6</text>
<text text-anchor="start" x="1925" y="-574.8" font-family="Times New Roman,serif" font-size="14.00">loop:2</text>
<image xlink:href="76.png" width="130px" height="230px" preserveAspectRatio="xMinYMin meet" x="1878" y="-571"/>
</a>
</g>
</g>
<!-- state_32&#45;&gt;state_76 -->
<g id="edge20" class="edge"><title>state_32&#45;&gt;state_76</title>
<path fill="none" stroke="black" d="M1535.81,-1045.3C1531.25,-1037.68 1526.62,-1030.2 1522,-1023 1506.72,-999.218 1492.9,-998.83 1484,-972 1463.72,-910.831 1439.66,-728.769 1484,-682 1509.8,-654.787 1788.28,-682.317 1821,-664 1840.06,-653.329 1856.79,-638.284 1871.24,-621.423"/>
<polygon fill="black" stroke="black" points="1874.07,-623.5 1877.73,-613.557 1868.67,-619.047 1874.07,-623.5"/>
<text text-anchor="middle" x="1555" y="-823.3" font-family="Times New Roman,serif" font-size="14.00"> &#160;&#160;longClick(&quot;index=0&quot;) &#160;&#160;</text>
</g>
<!-- state_32&#45;&gt;activity_1 -->
<g id="edge17" class="edge"><title>state_32&#45;&gt;activity_1</title>
<path fill="none" stroke="red" d="M1535.79,-1302.15C1531.46,-1306.12 1526.87,-1309.76 1522,-1313 1490.38,-1334.05 1377.69,-1303.01 1352,-1331 1346.39,-1337.12 1344.83,-1345.64 1345.08,-1353.92"/>
<polygon fill="red" stroke="red" points="1341.62,-1354.52 1346.19,-1364.07 1348.58,-1353.75 1341.62,-1354.52"/>
<text text-anchor="middle" x="1409.5" y="-1334.8" font-family="Times New Roman,serif" font-size="14.00" fill="red"> &#160;&#160;click(&quot;index=1&quot;) &#160;&#160;</text>
</g>
<!-- state_32&#45;&gt;activity_1 -->
<g id="edge19" class="edge"><title>state_32&#45;&gt;activity_1</title>
<path fill="none" stroke="red" d="M1535.81,-1297.45C1531.42,-1302.92 1526.81,-1308.14 1522,-1313 1510.52,-1324.6 1503.95,-1322.54 1490,-1331 1479.56,-1337.33 1478.07,-1340.85 1467,-1346 1445.68,-1355.92 1420.86,-1363.85 1399.66,-1369.64"/>
<polygon fill="red" stroke="red" points="1398.66,-1366.28 1389.89,-1372.23 1400.45,-1373.05 1398.66,-1366.28"/>
<text text-anchor="middle" x="1547.5" y="-1334.8" font-family="Times New Roman,serif" font-size="14.00" fill="red"> &#160;&#160;click(&quot;index=0&quot;) &#160;&#160;</text>
</g>
<!-- state_32&#45;&gt;activity_1 -->
<g id="edge21" class="edge"><title>state_32&#45;&gt;activity_1</title>
<path fill="none" stroke="red" d="M1622.37,-1313.3C1618.94,-1325.23 1613.38,-1336.38 1605,-1346 1579.94,-1374.75 1474.65,-1380.69 1407.75,-1381.48"/>
<polygon fill="red" stroke="red" points="1407.33,-1377.98 1397.36,-1381.57 1407.39,-1384.98 1407.33,-1377.98"/>
<text text-anchor="middle" x="1670.5" y="-1334.8" font-family="Times New Roman,serif" font-size="14.00" fill="red"> &#160;&#160;click(&quot;index=1&quot;) &#160;&#160;</text>
</g>
<!-- state_32&#45;&gt;final -->
<g id="edge25" class="edge"><title>state_32&#45;&gt;final</title>
<path fill="none" stroke="red" d="M1535.97,-1040.5C1534.51,-1022.37 1538.11,-1004.86 1550,-990 1572.77,-961.542 1606.31,-999.693 1630,-972 1659.14,-937.943 1661.95,-626.38 1662.07,-521.37"/>
<polygon fill="red" stroke="red" points="1665.57,-521.302 1662.07,-511.301 1658.57,-521.3 1665.57,-521.302"/>
<text text-anchor="middle" x="1722.5" y="-823.3" font-family="Times New Roman,serif" font-size="14.00" fill="red"> &#160;&#160;press(&quot;BackKey&quot;) &#160;&#160;</text>
</g>
<!-- state_72&#45;&gt;state_6 -->
<g id="edge33" class="edge"><title>state_72&#45;&gt;state_6</title>
<path fill="none" stroke="black" d="M1804.74,-692.146C1800.43,-688.408 1795.85,-684.999 1791,-682 1746.74,-654.635 1374.76,-669.385 1323,-664 959.315,-626.161 530.288,-539.401 360.035,-503.264"/>
<polygon fill="black" stroke="black" points="360.68,-499.823 350.171,-501.165 359.224,-506.67 360.68,-499.823"/>
<text text-anchor="middle" x="1387" y="-652.8" font-family="Times New Roman,serif" font-size="14.00"> &#160;&#160;press(&quot;MenuKey&quot;) &#160;&#160;</text>
</g>
<!-- state_72&#45;&gt;state_72 -->
<g id="edge27" class="edge"><title>state_72&#45;&gt;state_72</title>
<path fill="none" stroke="black" d="M1935.07,-836.831C1945.7,-835.423 1953,-832.146 1953,-827 1953,-823.703 1950,-821.173 1945.06,-819.411"/>
<polygon fill="black" stroke="black" points="1945.6,-815.945 1935.07,-817.169 1944.06,-822.775 1945.6,-815.945"/>
<text text-anchor="middle" x="2024" y="-823.3" font-family="Times New Roman,serif" font-size="14.00"> &#160;&#160;longClick(&quot;index=1&quot;) &#160;&#160;</text>
</g>
<!-- state_72&#45;&gt;state_72 -->
<g id="edge31" class="edge"><title>state_72&#45;&gt;state_72</title>
<path fill="none" stroke="black" d="M1935.1,-845.04C2002.76,-852.686 2095,-846.673 2095,-827 2095,-808.288 2011.55,-801.934 1945.17,-807.938"/>
<polygon fill="black" stroke="black" points="1944.69,-804.468 1935.1,-808.96 1945.4,-811.432 1944.69,-804.468"/>
<text text-anchor="middle" x="2148" y="-823.3" font-family="Times New Roman,serif" font-size="14.00"> &#160;&#160;swipe(&quot;Right&quot;) &#160;&#160;</text>
</g>
<!-- state_72&#45;&gt;state_72 -->
<g id="edge32" class="edge"><title>state_72&#45;&gt;state_72</title>
<path fill="none" stroke="black" d="M1935.01,-850.336C2033.26,-867.027 2201,-859.249 2201,-827 2201,-795.822 2044.22,-787.516 1945.02,-802.082"/>
<polygon fill="black" stroke="black" points="1944.34,-798.646 1935.01,-803.664 1945.44,-805.56 1944.34,-798.646"/>
<text text-anchor="middle" x="2250.5" y="-823.3" font-family="Times New Roman,serif" font-size="14.00"> &#160;&#160;swipe(&quot;Left&quot;) &#160;&#160;</text>
</g>
<!-- state_72&#45;&gt;state_76 -->
<g id="edge29" class="edge"><title>state_72&#45;&gt;state_76</title>
<path fill="none" stroke="black" d="M1935.06,-808.918C2002.18,-787.434 2103.31,-743.365 2149,-664 2187.8,-596.597 2091.08,-542.571 2017.37,-512.666"/>
<polygon fill="black" stroke="black" points="2018.64,-509.403 2008.05,-508.962 2016.05,-515.908 2018.64,-509.403"/>
<text text-anchor="middle" x="2225" y="-652.8" font-family="Times New Roman,serif" font-size="14.00"> &#160;&#160;longClick(&quot;index=0&quot;) &#160;&#160;</text>
</g>
<!-- state_72&#45;&gt;activity_1 -->
<g id="edge26" class="edge"><title>state_72&#45;&gt;activity_1</title>
<path fill="none" stroke="red" d="M1935.02,-863.723C1988.32,-897.085 2060.01,-952.314 2092,-1023 2121.6,-1088.39 2141.54,-1294.06 2092,-1346 2068.45,-1370.69 1576.02,-1378.49 1407.21,-1380.44"/>
<polygon fill="red" stroke="red" points="1407,-1376.94 1397.04,-1380.56 1407.07,-1383.94 1407,-1376.94"/>
<text text-anchor="middle" x="2179.5" y="-1164.3" font-family="Times New Roman,serif" font-size="14.00" fill="red"> &#160;&#160;click(&quot;index=1&quot;) &#160;&#160;</text>
</g>
<!-- state_72&#45;&gt;activity_1 -->
<g id="edge28" class="edge"><title>state_72&#45;&gt;activity_1</title>
<path fill="none" stroke="red" d="M1935.09,-907.017C1953.99,-939.744 1964.07,-976.603 1941,-1005 1916.38,-1035.31 1879.62,-992.69 1855,-1023 1773.73,-1123.04 1769.35,-1216.68 1855,-1313 1900.5,-1364.17 1962.5,-1279.83 2008,-1331 2012.43,-1335.98 2012.59,-1341.16 2008,-1346 1987.47,-1367.65 1562.77,-1377.27 1407.34,-1380.08"/>
<polygon fill="red" stroke="red" points="1407,-1376.59 1397.06,-1380.26 1407.12,-1383.59 1407,-1376.59"/>
<text text-anchor="middle" x="1912.5" y="-1164.3" font-family="Times New Roman,serif" font-size="14.00" fill="red"> &#160;&#160;click(&quot;index=0&quot;) &#160;&#160;</text>
</g>
<!-- state_72&#45;&gt;activity_1 -->
<g id="edge30" class="edge"><title>state_72&#45;&gt;activity_1</title>
<path fill="none" stroke="red" d="M1935.16,-840.754C2022.54,-861.743 2174.4,-912.761 2241,-1023 2274.32,-1078.16 2280.57,-1262.13 2241,-1313 2189.79,-1378.84 1595.19,-1382.03 1407.44,-1381.38"/>
<polygon fill="red" stroke="red" points="1407.25,-1377.88 1397.23,-1381.34 1407.22,-1384.88 1407.25,-1377.88"/>
<text text-anchor="middle" x="2325.5" y="-1164.3" font-family="Times New Roman,serif" font-size="14.00" fill="red"> &#160;&#160;click(&quot;index=1&quot;) &#160;&#160;</text>
</g>
<!-- state_72&#45;&gt;final -->
<g id="edge34" class="edge"><title>state_72&#45;&gt;final</title>
<path fill="none" stroke="red" d="M1804.99,-695.435C1800.58,-690.636 1795.91,-686.124 1791,-682 1771.94,-666.008 1756.26,-680.89 1738,-664 1696.53,-625.65 1676.7,-560.854 1668,-521.204"/>
<polygon fill="red" stroke="red" points="1671.39,-520.295 1665.93,-511.213 1664.54,-521.716 1671.39,-520.295"/>
<text text-anchor="middle" x="1800.5" y="-652.8" font-family="Times New Roman,serif" font-size="14.00" fill="red"> &#160;&#160;press(&quot;BackKey&quot;) &#160;&#160;</text>
</g>
<!-- state_76&#45;&gt;state_0 -->
<g id="edge35" class="edge"><title>state_76&#45;&gt;state_0</title>
<path fill="none" stroke="black" d="M2008.14,-500.56C2139.98,-532.225 2426,-624.18 2426,-826 2426,-1383 2426,-1383 2426,-1383 2426,-1401.65 2426,-1421.22 2426,-1440.62"/>
<polygon fill="black" stroke="black" points="2422.5,-1440.74 2426,-1450.74 2429.5,-1440.74 2422.5,-1440.74"/>
<text text-anchor="middle" x="2483.5" y="-1164.3" font-family="Times New Roman,serif" font-size="14.00"> &#160;&#160;click(&quot;index=0&quot;) &#160;&#160;</text>
</g>
<!-- state_76&#45;&gt;state_0 -->
<g id="edge36" class="edge"><title>state_76&#45;&gt;state_0</title>
<path fill="none" stroke="black" d="M2008.17,-491.509C2169.95,-506.589 2577,-569.971 2577,-826 2577,-1383 2577,-1383 2577,-1383 2577,-1442.34 2537.26,-1496.59 2498.56,-1535.35"/>
<polygon fill="black" stroke="black" points="2496.05,-1532.91 2491.35,-1542.41 2500.95,-1537.91 2496.05,-1532.91"/>
<text text-anchor="middle" x="2634.5" y="-1164.3" font-family="Times New Roman,serif" font-size="14.00"> &#160;&#160;click(&quot;index=0&quot;) &#160;&#160;</text>
</g>
<!-- state_76&#45;&gt;state_72 -->
<g id="edge39" class="edge"><title>state_76&#45;&gt;state_72</title>
<path fill="none" stroke="black" d="M1877.9,-619.871C1874.77,-629.579 1872.07,-639.349 1870,-649 1868.43,-656.311 1867.16,-663.832 1866.14,-671.456"/>
<polygon fill="black" stroke="black" points="1862.65,-671.188 1864.95,-681.53 1869.6,-672.011 1862.65,-671.188"/>
<text text-anchor="middle" x="1932.5" y="-652.8" font-family="Times New Roman,serif" font-size="14.00"> &#160;&#160;press(&quot;BackKey&quot;) &#160;&#160;</text>
</g>
<!-- state_76&#45;&gt;state_72 -->
<g id="edge40" class="edge"><title>state_76&#45;&gt;state_72</title>
<path fill="none" stroke="black" d="M2000.44,-631.258C2000.27,-642.373 1998.62,-653.39 1995,-664 1983.88,-696.604 1963.25,-727.752 1941.91,-753.869"/>
<polygon fill="black" stroke="black" points="1939,-751.891 1935.28,-761.808 1944.38,-756.38 1939,-751.891"/>
<text text-anchor="middle" x="2062" y="-652.8" font-family="Times New Roman,serif" font-size="14.00"> &#160;&#160;press(&quot;MenuKey&quot;) &#160;&#160;</text>
</g>
<!-- state_76&#45;&gt;state_76 -->
<g id="edge37" class="edge"><title>state_76&#45;&gt;state_76</title>
<path fill="none" stroke="black" d="M2008.07,-500.746C2018.7,-498.635 2026,-493.72 2026,-486 2026,-480.934 2022.86,-477.076 2017.69,-474.425"/>
<polygon fill="black" stroke="black" points="2018.66,-471.061 2008.07,-471.254 2016.47,-477.709 2018.66,-471.061"/>
<text text-anchor="middle" x="2079" y="-482.3" font-family="Times New Roman,serif" font-size="14.00"> &#160;&#160;swipe(&quot;Right&quot;) &#160;&#160;</text>
</g>
<!-- state_76&#45;&gt;state_76 -->
<g id="edge38" class="edge"><title>state_76&#45;&gt;state_76</title>
<path fill="none" stroke="black" d="M2008.11,-514.524C2063.9,-523.648 2132,-514.14 2132,-486 2132,-459.509 2071.65,-449.53 2018.03,-456.064"/>
<polygon fill="black" stroke="black" points="2017.52,-452.601 2008.11,-457.476 2018.51,-459.531 2017.52,-452.601"/>
<text text-anchor="middle" x="2181.5" y="-482.3" font-family="Times New Roman,serif" font-size="14.00"> &#160;&#160;swipe(&quot;Left&quot;) &#160;&#160;</text>
</g>
<!-- state_62 -->
<g id="node7" class="node"><title>state_62</title>
<g id="a_node7"><a xlink:href="62.png" xlink:title="&lt;TABLE&gt;">
<polygon fill="none" stroke="black" points="883,-972 753,-972 753,-682 883,-682 883,-972"/>
<text text-anchor="start" x="794.5" y="-960.8" font-family="Times New Roman,serif" font-size="14.00">state_62</text>
<text text-anchor="start" x="787.5" y="-945.8" font-family="Times New Roman,serif" font-size="14.00">incoming:7</text>
<text text-anchor="start" x="788.5" y="-930.8" font-family="Times New Roman,serif" font-size="14.00">outgoing:9</text>
<text text-anchor="start" x="800" y="-915.8" font-family="Times New Roman,serif" font-size="14.00">loop:3</text>
<image xlink:href="62.png" width="130px" height="230px" preserveAspectRatio="xMinYMin meet" x="753" y="-912"/>
</a>
</g>
</g>
<!-- state_62&#45;&gt;state_6 -->
<g id="edge49" class="edge"><title>state_62&#45;&gt;state_6</title>
<path fill="none" stroke="black" d="M752.728,-692.162C748.418,-688.421 743.847,-685.006 739,-682 697.7,-656.388 337.288,-697.413 302,-664 294.763,-657.147 289.081,-649.208 284.677,-640.565"/>
<polygon fill="black" stroke="black" points="287.818,-639.017 280.538,-631.32 281.429,-641.877 287.818,-639.017"/>
<text text-anchor="middle" x="366" y="-652.8" font-family="Times New Roman,serif" font-size="14.00"> &#160;&#160;press(&quot;MenuKey&quot;) &#160;&#160;</text>
</g>
<!-- state_62&#45;&gt;state_76 -->
<g id="edge44" class="edge"><title>state_62&#45;&gt;state_76</title>
<path fill="none" stroke="black" d="M883.111,-802.741C974.602,-770.92 1146.95,-714.11 1298,-682 1341.61,-672.73 1653.79,-645.347 1696,-631 1758.29,-609.828 1822.29,-571.979 1869.53,-540.398"/>
<polygon fill="black" stroke="black" points="1871.52,-543.276 1877.86,-534.782 1867.61,-537.473 1871.52,-543.276"/>
<text text-anchor="middle" x="1641" y="-652.8" font-family="Times New Roman,serif" font-size="14.00"> &#160;&#160;longClick(&quot;index=0&quot;) &#160;&#160;</text>
</g>
<!-- state_62&#45;&gt;state_62 -->
<g id="edge42" class="edge"><title>state_62&#45;&gt;state_62</title>
<path fill="none" stroke="black" d="M883.072,-836.831C893.697,-835.423 901,-832.146 901,-827 901,-823.703 898.003,-821.173 893.055,-819.411"/>
<polygon fill="black" stroke="black" points="893.596,-815.945 883.072,-817.169 892.062,-822.775 893.596,-815.945"/>
<text text-anchor="middle" x="972" y="-823.3" font-family="Times New Roman,serif" font-size="14.00"> &#160;&#160;longClick(&quot;index=1&quot;) &#160;&#160;</text>
</g>
<!-- state_62&#45;&gt;state_62 -->
<g id="edge46" class="edge"><title>state_62&#45;&gt;state_62</title>
<path fill="none" stroke="black" d="M883.098,-845.04C950.758,-852.686 1043,-846.673 1043,-827 1043,-808.288 959.546,-801.934 893.171,-807.938"/>
<polygon fill="black" stroke="black" points="892.693,-804.468 883.098,-808.96 893.4,-811.432 892.693,-804.468"/>
<text text-anchor="middle" x="1096" y="-823.3" font-family="Times New Roman,serif" font-size="14.00"> &#160;&#160;swipe(&quot;Right&quot;) &#160;&#160;</text>
</g>
<!-- state_62&#45;&gt;state_62 -->
<g id="edge47" class="edge"><title>state_62&#45;&gt;state_62</title>
<path fill="none" stroke="black" d="M883.011,-850.336C981.262,-867.027 1149,-859.249 1149,-827 1149,-795.822 992.216,-787.516 893.019,-802.082"/>
<polygon fill="black" stroke="black" points="892.342,-798.646 883.011,-803.664 893.435,-805.56 892.342,-798.646"/>
<text text-anchor="middle" x="1198.5" y="-823.3" font-family="Times New Roman,serif" font-size="14.00"> &#160;&#160;swipe(&quot;Left&quot;) &#160;&#160;</text>
</g>
<!-- state_62&#45;&gt;activity_1 -->
<g id="edge41" class="edge"><title>state_62&#45;&gt;activity_1</title>
<path fill="none" stroke="red" d="M883.011,-836.425C980.09,-852.891 1159.96,-899.29 1239,-1023 1273.7,-1077.31 1275.33,-1259.77 1239,-1313 1228.82,-1327.91 1169.4,-1316.6 1193,-1346 1205.89,-1362.06 1255.82,-1371.2 1296.14,-1376.08"/>
<polygon fill="red" stroke="red" points="1295.83,-1379.57 1306.16,-1377.24 1296.63,-1372.62 1295.83,-1379.57"/>
<text text-anchor="middle" x="1322.5" y="-1164.3" font-family="Times New Roman,serif" font-size="14.00" fill="red"> &#160;&#160;click(&quot;index=1&quot;) &#160;&#160;</text>
</g>
<!-- state_62&#45;&gt;activity_1 -->
<g id="edge43" class="edge"><title>state_62&#45;&gt;activity_1</title>
<path fill="none" stroke="red" d="M883.164,-886.825C910.194,-915.184 938.942,-951.4 955,-990 1010.35,-1123.04 890.44,-1202.57 983,-1313 1022.22,-1359.79 1202.22,-1374.53 1295.14,-1379.06"/>
<polygon fill="red" stroke="red" points="1295.05,-1382.56 1305.21,-1379.53 1295.38,-1375.57 1295.05,-1382.56"/>
<text text-anchor="middle" x="1040.5" y="-1164.3" font-family="Times New Roman,serif" font-size="14.00" fill="red"> &#160;&#160;click(&quot;index=0&quot;) &#160;&#160;</text>
</g>
<!-- state_62&#45;&gt;activity_1 -->
<g id="edge45" class="edge"><title>state_62&#45;&gt;activity_1</title>
<path fill="none" stroke="red" d="M883.044,-853.313C949.681,-883.031 1050.1,-939.162 1098,-1023 1130.06,-1079.12 1084.47,-1259.01 1120,-1313 1139.67,-1342.9 1236.36,-1363.22 1298.25,-1373.4"/>
<polygon fill="red" stroke="red" points="1297.81,-1376.88 1308.24,-1375.01 1298.92,-1369.97 1297.81,-1376.88"/>
<text text-anchor="middle" x="1177.5" y="-1164.3" font-family="Times New Roman,serif" font-size="14.00" fill="red"> &#160;&#160;click(&quot;index=1&quot;) &#160;&#160;</text>
</g>
<!-- state_62&#45;&gt;final -->
<g id="edge48" class="edge"><title>state_62&#45;&gt;final</title>
<path fill="none" stroke="red" d="M752.912,-692.663C748.546,-688.75 743.913,-685.167 739,-682 694.792,-653.503 538.749,-702.58 503,-664 498.469,-659.11 498.624,-654.03 503,-649 512.55,-638.022 1433.77,-516.879 1626.79,-491.604"/>
<polygon fill="red" stroke="red" points="1627.48,-495.043 1636.94,-490.275 1626.57,-488.103 1627.48,-495.043"/>
<text text-anchor="middle" x="565.5" y="-652.8" font-family="Times New Roman,serif" font-size="14.00" fill="red"> &#160;&#160;press(&quot;BackKey&quot;) &#160;&#160;</text>
</g>
<!-- state_69 -->
<g id="node8" class="node"><title>state_69</title>
<g id="a_node8"><a xlink:href="69.png" xlink:title="&lt;TABLE&gt;">
<polygon fill="none" stroke="black" points="601,-1313 471,-1313 471,-1023 601,-1023 601,-1313"/>
<text text-anchor="start" x="512.5" y="-1301.8" font-family="Times New Roman,serif" font-size="14.00">state_69</text>
<text text-anchor="start" x="505.5" y="-1286.8" font-family="Times New Roman,serif" font-size="14.00">incoming:1</text>
<text text-anchor="start" x="506.5" y="-1271.8" font-family="Times New Roman,serif" font-size="14.00">outgoing:9</text>
<text text-anchor="start" x="518" y="-1256.8" font-family="Times New Roman,serif" font-size="14.00">loop:0</text>
<image xlink:href="69.png" width="130px" height="230px" preserveAspectRatio="xMinYMin meet" x="471" y="-1253"/>
</a>
</g>
</g>
<!-- state_69&#45;&gt;state_6 -->
<g id="edge57" class="edge"><title>state_69&#45;&gt;state_6</title>
<path fill="none" stroke="black" d="M470.913,-1035.85C466.528,-1031.24 461.893,-1026.93 457,-1023 425.409,-997.646 306.308,-1004.4 282,-972 244.064,-921.431 251.662,-763.33 264.43,-641.237"/>
<polygon fill="black" stroke="black" points="267.939,-641.344 265.518,-631.029 260.978,-640.602 267.939,-641.344"/>
<text text-anchor="middle" x="346" y="-823.3" font-family="Times New Roman,serif" font-size="14.00"> &#160;&#160;press(&quot;MenuKey&quot;) &#160;&#160;</text>
</g>
<!-- state_69&#45;&gt;state_76 -->
<g id="edge53" class="edge"><title>state_69&#45;&gt;state_76</title>
<path fill="none" stroke="black" d="M522.888,-1022.63C522.549,-1016.68 522.249,-1010.78 522,-1005 521.713,-998.34 518.184,-995.467 522,-990 535.279,-970.975 556.727,-990.291 571,-972 610.871,-920.904 554.819,-726.436 602,-682 624.146,-661.142 1666.82,-639.618 1696,-631 1758.87,-612.43 1822.61,-574.694 1869.59,-542.511"/>
<polygon fill="black" stroke="black" points="1871.64,-545.35 1877.87,-536.779 1867.65,-539.595 1871.64,-545.35"/>
<text text-anchor="middle" x="673" y="-823.3" font-family="Times New Roman,serif" font-size="14.00"> &#160;&#160;longClick(&quot;index=0&quot;) &#160;&#160;</text>
</g>
<!-- state_69&#45;&gt;state_62 -->
<g id="edge51" class="edge"><title>state_69&#45;&gt;state_62</title>
<path fill="none" stroke="black" d="M601.167,-1136.22C652.741,-1108.68 722.874,-1063.63 765,-1005 770.361,-997.539 775.185,-989.532 779.526,-981.195"/>
<polygon fill="black" stroke="black" points="782.763,-982.544 784.05,-972.028 776.486,-979.447 782.763,-982.544"/>
<text text-anchor="middle" x="844" y="-993.8" font-family="Times New Roman,serif" font-size="14.00"> &#160;&#160;longClick(&quot;index=1&quot;) &#160;&#160;</text>
</g>
<!-- state_69&#45;&gt;state_62 -->
<g id="edge55" class="edge"><title>state_69&#45;&gt;state_62</title>
<path fill="none" stroke="black" d="M518.609,-1022.64C522.363,-1010.64 528.261,-999.498 537,-990 567.514,-956.835 701.277,-996.658 739,-972 740.988,-970.701 742.93,-969.333 744.827,-967.904"/>
<polygon fill="black" stroke="black" points="747.387,-970.329 752.861,-961.258 742.925,-964.935 747.387,-970.329"/>
<text text-anchor="middle" x="590" y="-993.8" font-family="Times New Roman,serif" font-size="14.00"> &#160;&#160;swipe(&quot;Right&quot;) &#160;&#160;</text>
</g>
<!-- state_69&#45;&gt;state_62 -->
<g id="edge56" class="edge"><title>state_69&#45;&gt;state_62</title>
<path fill="none" stroke="black" d="M601.241,-1062.58C623.232,-1030.4 646.181,-1000.61 662,-990 691.186,-970.421 711.008,-993.25 739,-972 741.136,-970.378 743.222,-968.681 745.259,-966.917"/>
<polygon fill="black" stroke="black" points="747.961,-969.181 752.87,-959.792 743.177,-964.071 747.961,-969.181"/>
<text text-anchor="middle" x="711.5" y="-993.8" font-family="Times New Roman,serif" font-size="14.00"> &#160;&#160;swipe(&quot;Left&quot;) &#160;&#160;</text>
</g>
<!-- state_69&#45;&gt;activity_1 -->
<g id="edge50" class="edge"><title>state_69&#45;&gt;activity_1</title>
<path fill="none" stroke="red" d="M470.998,-1300.26C466.589,-1304.84 461.926,-1309.12 457,-1313 433.124,-1331.82 409.455,-1306.84 391,-1331 386.953,-1336.3 386.373,-1341.2 391,-1346 422.486,-1378.65 1094,-1381.08 1294.78,-1381.08"/>
<polygon fill="red" stroke="red" points="1294.82,-1384.58 1304.82,-1381.08 1294.82,-1377.58 1294.82,-1384.58"/>
<text text-anchor="middle" x="448.5" y="-1334.8" font-family="Times New Roman,serif" font-size="14.00" fill="red"> &#160;&#160;click(&quot;index=1&quot;) &#160;&#160;</text>
</g>
<!-- state_69&#45;&gt;activity_1 -->
<g id="edge52" class="edge"><title>state_69&#45;&gt;activity_1</title>
<path fill="none" stroke="red" d="M510.645,-1313.29C514.109,-1325.38 519.957,-1336.56 529,-1346 555.464,-1373.61 1113.21,-1379.52 1294.57,-1380.71"/>
<polygon fill="red" stroke="red" points="1294.68,-1384.21 1304.7,-1380.78 1294.72,-1377.21 1294.68,-1384.21"/>
<text text-anchor="middle" x="586.5" y="-1334.8" font-family="Times New Roman,serif" font-size="14.00" fill="red"> &#160;&#160;click(&quot;index=0&quot;) &#160;&#160;</text>
</g>
<!-- state_69&#45;&gt;activity_1 -->
<g id="edge54" class="edge"><title>state_69&#45;&gt;activity_1</title>
<path fill="none" stroke="red" d="M601.179,-1272.16C624.577,-1305.63 649.482,-1336.6 667,-1346 721.606,-1375.29 1140.83,-1380.09 1294.65,-1380.86"/>
<polygon fill="red" stroke="red" points="1294.8,-1384.36 1304.82,-1380.9 1294.84,-1377.36 1294.8,-1384.36"/>
<text text-anchor="middle" x="724.5" y="-1334.8" font-family="Times New Roman,serif" font-size="14.00" fill="red"> &#160;&#160;click(&quot;index=1&quot;) &#160;&#160;</text>
</g>
<!-- state_69&#45;&gt;final -->
<g id="edge58" class="edge"><title>state_69&#45;&gt;final</title>
<path fill="none" stroke="red" d="M470.925,-1047.09C460.601,-1022.88 451.519,-997.128 446,-972 418.35,-846.112 385.45,-795.781 446,-682 458.335,-658.822 470.477,-658.38 495,-649 522.349,-638.539 1434.94,-517.116 1626.82,-491.662"/>
<polygon fill="red" stroke="red" points="1627.47,-495.107 1636.92,-490.323 1626.55,-488.168 1627.47,-495.107"/>
<text text-anchor="middle" x="508.5" y="-823.3" font-family="Times New Roman,serif" font-size="14.00" fill="red"> &#160;&#160;press(&quot;BackKey&quot;) &#160;&#160;</text>
</g>
<!-- activity_1&#45;&gt;state_7 -->
<g id="edge62" class="edge"><title>activity_1&#45;&gt;state_7</title>
<path fill="none" stroke="red" d="M1397.27,-1380.64C1645.25,-1378.5 2807.6,-1365.65 2861,-1313 2960.73,-1214.66 2881,-1138.56 2881,-998.5 2881,-998.5 2881,-998.5 2881,-485 2881,-423.917 2890.86,-357.638 2902.72,-300.023"/>
<polygon fill="red" stroke="red" points="2906.17,-300.618 2904.79,-290.113 2899.32,-299.183 2906.17,-300.618"/>
<text text-anchor="middle" x="2929" y="-823.3" font-family="Times New Roman,serif" font-size="14.00" fill="red"> &#160;&#160;click(&quot;大约&quot;) &#160;&#160;</text>
</g>
<!-- activity_1&#45;&gt;state_32 -->
<g id="edge60" class="edge"><title>activity_1&#45;&gt;state_32</title>
<path fill="none" stroke="red" d="M1397.03,-1380.17C1493.5,-1377.96 1709.81,-1370.32 1732,-1346 1769.47,-1304.93 1722.11,-1253.42 1674.2,-1216.57"/>
<polygon fill="red" stroke="red" points="1676.3,-1213.77 1666.21,-1210.55 1672.09,-1219.36 1676.3,-1213.77"/>
<text text-anchor="middle" x="1803.5" y="-1334.8" font-family="Times New Roman,serif" font-size="14.00" fill="red"> &#160;&#160;press(&quot;BackKey&quot;) &#160;&#160;</text>
</g>
<!-- activity_1&#45;&gt;state_32 -->
<g id="edge61" class="edge"><title>activity_1&#45;&gt;state_32</title>
<path fill="none" stroke="red" d="M1397.26,-1381.4C1518.45,-1381.95 1838.08,-1380.14 1870,-1346 1900,-1313.91 1852.88,-1329.85 1819,-1313 1768.47,-1287.87 1715.56,-1253.15 1674.52,-1224.1"/>
<polygon fill="red" stroke="red" points="1676.38,-1221.13 1666.21,-1218.18 1672.32,-1226.83 1676.38,-1221.13"/>
<text text-anchor="middle" x="1941.5" y="-1334.8" font-family="Times New Roman,serif" font-size="14.00" fill="red"> &#160;&#160;press(&quot;BackKey&quot;) &#160;&#160;</text>
</g>
<!-- activity_1&#45;&gt;state_32 -->
<g id="edge66" class="edge"><title>activity_1&#45;&gt;state_32</title>
<path fill="none" stroke="red" d="M1305.66,-1378.33C1255.95,-1373.82 1186.85,-1361.91 1216,-1331 1239.37,-1306.22 1493.21,-1331.2 1522,-1313 1524.01,-1311.73 1525.97,-1310.39 1527.88,-1308.99"/>
<polygon fill="red" stroke="red" points="1530.4,-1311.45 1535.98,-1302.45 1526,-1306.01 1530.4,-1311.45"/>
<text text-anchor="middle" x="1278.5" y="-1334.8" font-family="Times New Roman,serif" font-size="14.00" fill="red"> &#160;&#160;press(&quot;BackKey&quot;) &#160;&#160;</text>
</g>
<!-- activity_1&#45;&gt;state_72 -->
<g id="edge63" class="edge"><title>activity_1&#45;&gt;state_72</title>
<path fill="none" stroke="red" d="M1305.09,-1379.47C1251.48,-1376.09 1173.85,-1365.33 1205,-1331 1232.76,-1300.41 1360.17,-1341.57 1390,-1313 1484.02,-1222.98 1345.13,-1120.83 1431,-1023 1467.21,-981.751 1495.93,-999.439 1550,-990 1602.47,-980.84 1744.07,-1000.6 1789,-972 1791.84,-970.19 1794.6,-968.244 1797.26,-966.176"/>
<polygon fill="red" stroke="red" points="1799.62,-968.76 1804.99,-959.627 1795.1,-963.419 1799.62,-968.76"/>
<text text-anchor="middle" x="1479" y="-1164.3" font-family="Times New Roman,serif" font-size="14.00" fill="red"> &#160;&#160;click(&quot;保存&quot;) &#160;&#160;</text>
</g>
<!-- activity_1&#45;&gt;state_72 -->
<g id="edge64" class="edge"><title>activity_1&#45;&gt;state_72</title>
<path fill="none" stroke="red" d="M1397.07,-1380.32C1545.29,-1377.92 2001.46,-1368.69 2023,-1346 2044.12,-1323.76 1995.36,-1318.36 1992,-1313 1957.66,-1258.25 1982.76,-1086.36 1970,-1023 1966.95,-1007.84 1965.19,-1004.17 1959,-990 1953.2,-976.741 1946.69,-963.126 1939.89,-949.693"/>
<polygon fill="red" stroke="red" points="1942.82,-947.73 1935.14,-940.428 1936.59,-950.924 1942.82,-947.73"/>
<text text-anchor="middle" x="2040" y="-1164.3" font-family="Times New Roman,serif" font-size="14.00" fill="red"> &#160;&#160;click(&quot;删除&quot;) &#160;&#160;</text>
</g>
<!-- activity_1&#45;&gt;state_62 -->
<g id="edge59" class="edge"><title>activity_1&#45;&gt;state_62</title>
<path fill="none" stroke="red" d="M1306.04,-1377.85C1239.87,-1372.89 1112.47,-1362.14 1005,-1346 971.384,-1340.95 963.458,-1337.01 930,-1331 904.973,-1326.51 833.505,-1332.34 817,-1313 733.337,-1214.96 734.159,-1121.74 817,-1023 846.588,-987.734 889.412,-1040.27 919,-1005 948.085,-970.333 922.896,-926.124 890.405,-890.561"/>
<polygon fill="red" stroke="red" points="892.785,-887.984 883.378,-883.11 887.693,-892.787 892.785,-887.984"/>
<text text-anchor="middle" x="879.5" y="-1164.3" font-family="Times New Roman,serif" font-size="14.00" fill="red"> &#160;&#160;press(&quot;BackKey&quot;) &#160;&#160;</text>
</g>
<!-- activity_1&#45;&gt;state_69 -->
<g id="edge65" class="edge"><title>activity_1&#45;&gt;state_69</title>
<path fill="none" stroke="red" d="M1304.78,-1381.06C1190.47,-1380.74 897.101,-1376.83 805,-1346 804.306,-1345.77 689.166,-1269.94 609.768,-1217.62"/>
<polygon fill="red" stroke="red" points="611.514,-1214.58 601.238,-1212 607.662,-1220.42 611.514,-1214.58"/>
<text text-anchor="middle" x="867.5" y="-1334.8" font-family="Times New Roman,serif" font-size="14.00" fill="red"> &#160;&#160;press(&quot;BackKey&quot;) &#160;&#160;</text>
</g>
</g>
</svg>
