<?xml version="1.0" encoding="UTF-8" standalone="no"?>
<!DOCTYPE svg PUBLIC "-//W3C//DTD SVG 1.1//EN"
 "http://www.w3.org/Graphics/SVG/1.1/DTD/svg11.dtd">
<!-- Generated by graphviz version 2.38.0 (20140413.2041)
 -->
<!-- Title: activity_1 Pages: 1 -->
<svg width="2733pt" height="2090pt"
 viewBox="0.00 0.00 2733.00 2090.00" xmlns="http://www.w3.org/2000/svg" xmlns:xlink="http://www.w3.org/1999/xlink">
<g id="graph0" class="graph" transform="scale(1 1) rotate(0) translate(4 2086)">
<title>activity_1</title>
<polygon fill="white" stroke="none" points="-4,4 -4,-2086 2729,-2086 2729,4 -4,4"/>
<!-- state_2 -->
<g id="node1" class="node"><title>state_2</title>
<g id="a_node1"><a xlink:href="2.png" xlink:title="&lt;TABLE&gt;">
<polygon fill="none" stroke="black" points="1904,-2082 1774,-2082 1774,-1792 1904,-1792 1904,-2082"/>
<text text-anchor="start" x="1819" y="-2070.8" font-family="Times New Roman,serif" font-size="14.00">state_2</text>
<text text-anchor="start" x="1805" y="-2055.8" font-family="Times New Roman,serif" font-size="14.00">incoming:13</text>
<text text-anchor="start" x="1806" y="-2040.8" font-family="Times New Roman,serif" font-size="14.00">outgoing:10</text>
<text text-anchor="start" x="1821" y="-2025.8" font-family="Times New Roman,serif" font-size="14.00">loop:6</text>
<image xlink:href="2.png" width="130px" height="230px" preserveAspectRatio="xMinYMin meet" x="1774" y="-2022"/>
</a>
</g>
</g>
<!-- state_2&#45;&gt;state_2 -->
<g id="edge1" class="edge"><title>state_2&#45;&gt;state_2</title>
<path fill="none" stroke="black" d="M1904.07,-1941.92C1914.7,-1941.21 1922,-1939.57 1922,-1937 1922,-1935.35 1919,-1934.09 1914.06,-1933.21"/>
<polygon fill="black" stroke="black" points="1914.4,-1929.72 1904.07,-1932.08 1913.62,-1936.68 1914.4,-1929.72"/>
<text text-anchor="middle" x="1976.5" y="-1933.3" font-family="Times New Roman,serif" font-size="14.00"> &#160;&#160;click(&quot;无标题&quot;) &#160;&#160;</text>
</g>
<!-- state_2&#45;&gt;state_2 -->
<g id="edge2" class="edge"><title>state_2&#45;&gt;state_2</title>
<path fill="none" stroke="black" d="M1904.41,-1946.48C1961.18,-1949.57 2031,-1946.41 2031,-1937 2031,-1928.14 1969.12,-1924.82 1914.5,-1927.04"/>
<polygon fill="black" stroke="black" points="1914.23,-1923.55 1904.41,-1927.52 1914.56,-1930.54 1914.23,-1923.55"/>
<text text-anchor="middle" x="2102" y="-1933.3" font-family="Times New Roman,serif" font-size="14.00"> &#160;&#160;longClick(&quot;index=1&quot;) &#160;&#160;</text>
</g>
<!-- state_2&#45;&gt;state_2 -->
<g id="edge4" class="edge"><title>state_2&#45;&gt;state_2</title>
<path fill="none" stroke="black" d="M1904.07,-1948.64C2003.1,-1957.02 2173,-1953.15 2173,-1937 2173,-1921.39 2014.19,-1917.25 1914.16,-1924.57"/>
<polygon fill="black" stroke="black" points="1913.76,-1921.09 1904.07,-1925.36 1914.31,-1928.07 1913.76,-1921.09"/>
<text text-anchor="middle" x="2230.5" y="-1933.3" font-family="Times New Roman,serif" font-size="14.00"> &#160;&#160;click(&quot;index=1&quot;) &#160;&#160;</text>
</g>
<!-- state_2&#45;&gt;state_2 -->
<g id="edge5" class="edge"><title>state_2&#45;&gt;state_2</title>
<path fill="none" stroke="black" d="M1904.26,-1950.71C2031.25,-1964.18 2288,-1959.61 2288,-1937 2288,-1914.99 2044.61,-1910.08 1914.56,-1922.26"/>
<polygon fill="black" stroke="black" points="1913.86,-1918.82 1904.26,-1923.29 1914.55,-1925.78 1913.86,-1918.82"/>
<text text-anchor="middle" x="2359" y="-1933.3" font-family="Times New Roman,serif" font-size="14.00"> &#160;&#160;longClick(&quot;index=1&quot;) &#160;&#160;</text>
</g>
<!-- state_2&#45;&gt;state_2 -->
<g id="edge7" class="edge"><title>state_2&#45;&gt;state_2</title>
<path fill="none" stroke="black" d="M1904.2,-1952.19C2061,-1971.36 2430,-1966.29 2430,-1937 2430,-1908.33 2076.69,-1902.87 1914.59,-1920.61"/>
<polygon fill="black" stroke="black" points="1913.73,-1917.18 1904.2,-1921.81 1914.54,-1924.14 1913.73,-1917.18"/>
<text text-anchor="middle" x="2483" y="-1933.3" font-family="Times New Roman,serif" font-size="14.00"> &#160;&#160;swipe(&quot;Right&quot;) &#160;&#160;</text>
</g>
<!-- state_2&#45;&gt;state_2 -->
<g id="edge8" class="edge"><title>state_2&#45;&gt;state_2</title>
<path fill="none" stroke="black" d="M1904.28,-1953.85C2081.38,-1978.46 2536,-1972.84 2536,-1937 2536,-1901.83 2098.09,-1895.76 1914.42,-1918.81"/>
<polygon fill="black" stroke="black" points="1913.74,-1915.37 1904.28,-1920.15 1914.66,-1922.31 1913.74,-1915.37"/>
<text text-anchor="middle" x="2585.5" y="-1933.3" font-family="Times New Roman,serif" font-size="14.00"> &#160;&#160;swipe(&quot;Left&quot;) &#160;&#160;</text>
</g>
<!-- state_19 -->
<g id="node2" class="node"><title>state_19</title>
<g id="a_node2"><a xlink:href="19.png" xlink:title="&lt;TABLE&gt;">
<polygon fill="none" stroke="black" points="372,-1741 242,-1741 242,-1451 372,-1451 372,-1741"/>
<text text-anchor="start" x="283.5" y="-1729.8" font-family="Times New Roman,serif" font-size="14.00">state_19</text>
<text text-anchor="start" x="276.5" y="-1714.8" font-family="Times New Roman,serif" font-size="14.00">incoming:7</text>
<text text-anchor="start" x="277.5" y="-1699.8" font-family="Times New Roman,serif" font-size="14.00">outgoing:9</text>
<text text-anchor="start" x="289" y="-1684.8" font-family="Times New Roman,serif" font-size="14.00">loop:6</text>
<image xlink:href="19.png" width="130px" height="230px" preserveAspectRatio="xMinYMin meet" x="242" y="-1681"/>
</a>
</g>
</g>
<!-- state_2&#45;&gt;state_19 -->
<g id="edge3" class="edge"><title>state_2&#45;&gt;state_19</title>
<path fill="none" stroke="black" d="M1773.66,-1921.54C1525.98,-1866.74 645.638,-1671.93 382.082,-1613.61"/>
<polygon fill="black" stroke="black" points="382.744,-1610.18 372.224,-1611.43 381.232,-1617.01 382.744,-1610.18"/>
<text text-anchor="middle" x="1146" y="-1762.8" font-family="Times New Roman,serif" font-size="14.00"> &#160;&#160;&quot;index=1&quot;.input(&quot;ab&quot;) &#160;&#160;</text>
</g>
<!-- state_33 -->
<g id="node4" class="node"><title>state_33</title>
<g id="a_node4"><a xlink:href="33.png" xlink:title="&lt;TABLE&gt;">
<polygon fill="none" stroke="black" points="584,-1059 454,-1059 454,-769 584,-769 584,-1059"/>
<text text-anchor="start" x="495.5" y="-1047.8" font-family="Times New Roman,serif" font-size="14.00">state_33</text>
<text text-anchor="start" x="488.5" y="-1032.8" font-family="Times New Roman,serif" font-size="14.00">incoming:7</text>
<text text-anchor="start" x="489.5" y="-1017.8" font-family="Times New Roman,serif" font-size="14.00">outgoing:7</text>
<text text-anchor="start" x="501" y="-1002.8" font-family="Times New Roman,serif" font-size="14.00">loop:2</text>
<image xlink:href="33.png" width="130px" height="230px" preserveAspectRatio="xMinYMin meet" x="454" y="-999"/>
</a>
</g>
</g>
<!-- state_2&#45;&gt;state_33 -->
<g id="edge9" class="edge"><title>state_2&#45;&gt;state_33</title>
<path fill="none" stroke="black" d="M1773.85,-1903.87C1722.98,-1875.84 1653.8,-1830.78 1610,-1774 1511.12,-1645.83 1515.82,-1591.31 1482,-1433 1466.98,-1362.67 1512.37,-1161.32 1462,-1110 1412.65,-1059.72 898.135,-1076.91 830,-1059 744.85,-1036.61 654.23,-991.996 592.912,-958.326"/>
<polygon fill="black" stroke="black" points="594.527,-955.22 584.082,-953.442 591.138,-961.345 594.527,-955.22"/>
<text text-anchor="middle" x="1546" y="-1421.8" font-family="Times New Roman,serif" font-size="14.00"> &#160;&#160;press(&quot;MenuKey&quot;) &#160;&#160;</text>
</g>
<!-- state_43 -->
<g id="node5" class="node"><title>state_43</title>
<g id="a_node5"><a xlink:href="43.png" xlink:title="&lt;TABLE&gt;">
<polygon fill="none" stroke="black" points="559,-631 429,-631 429,-341 559,-341 559,-631"/>
<text text-anchor="start" x="470.5" y="-619.8" font-family="Times New Roman,serif" font-size="14.00">state_43</text>
<text text-anchor="start" x="460" y="-604.8" font-family="Times New Roman,serif" font-size="14.00">incoming:10</text>
<text text-anchor="start" x="461" y="-589.8" font-family="Times New Roman,serif" font-size="14.00">outgoing:10</text>
<text text-anchor="start" x="476" y="-574.8" font-family="Times New Roman,serif" font-size="14.00">loop:7</text>
<image xlink:href="43.png" width="130px" height="230px" preserveAspectRatio="xMinYMin meet" x="429" y="-571"/>
</a>
</g>
</g>
<!-- state_2&#45;&gt;state_43 -->
<g id="edge6" class="edge"><title>state_2&#45;&gt;state_43</title>
<path fill="none" stroke="black" d="M1773.57,-1931.82C1509.96,-1914.4 525.881,-1843.68 233,-1741 118.119,-1700.72 0,-1718.74 0,-1597 0,-1597 0,-1597 0,-699 0,-518.95 280.551,-489.874 418.805,-486.476"/>
<polygon fill="black" stroke="black" points="418.985,-489.974 428.91,-486.268 418.84,-482.975 418.985,-489.974"/>
<text text-anchor="middle" x="73.5" y="-1080.8" font-family="Times New Roman,serif" font-size="14.00"> &#160;&#160;&quot;index=1&quot;.input(&quot;cd&quot;) &#160;&#160;</text>
</g>
<!-- activity_0 -->
<g id="node7" class="node"><title>activity_0</title>
<ellipse fill="none" stroke="red" cx="1314" cy="-700" rx="46.2923" ry="18"/>
<text text-anchor="middle" x="1314" y="-696.3" font-family="Times New Roman,serif" font-size="14.00" fill="red">activity_0</text>
</g>
<!-- state_2&#45;&gt;activity_0 -->
<g id="edge10" class="edge"><title>state_2&#45;&gt;activity_0</title>
<path fill="none" stroke="red" d="M1773.68,-1888.39C1738.62,-1859.3 1697.82,-1819.07 1674,-1774 1598.88,-1631.87 1719.2,-1535.98 1610,-1418 1588.47,-1394.74 1560.38,-1425.08 1541,-1400 1462.2,-1298.01 1494.12,-1230.06 1541,-1110 1552.21,-1081.29 1576.79,-1087.71 1588,-1059 1634.88,-938.941 1667.41,-870.523 1588,-769 1561.27,-734.825 1440.46,-715.397 1368.49,-706.663"/>
<polygon fill="red" stroke="red" points="1368.58,-703.15 1358.24,-705.451 1367.76,-710.101 1368.58,-703.15"/>
<text text-anchor="middle" x="1603.5" y="-1251.3" font-family="Times New Roman,serif" font-size="14.00" fill="red"> &#160;&#160;press(&quot;BackKey&quot;) &#160;&#160;</text>
</g>
<!-- state_19&#45;&gt;state_19 -->
<g id="edge11" class="edge"><title>state_19&#45;&gt;state_19</title>
<path fill="none" stroke="black" d="M372.072,-1600.92C382.697,-1600.21 390,-1598.57 390,-1596 390,-1594.35 387.003,-1593.09 382.055,-1592.21"/>
<polygon fill="black" stroke="black" points="382.4,-1588.72 372.072,-1591.08 381.619,-1595.68 382.4,-1588.72"/>
<text text-anchor="middle" x="432" y="-1592.3" font-family="Times New Roman,serif" font-size="14.00"> &#160;&#160;click(&quot;ab&quot;) &#160;&#160;</text>
</g>
<!-- state_19&#45;&gt;state_19 -->
<g id="edge12" class="edge"><title>state_19&#45;&gt;state_19</title>
<path fill="none" stroke="black" d="M372.422,-1605.85C420.276,-1608.28 474,-1604.99 474,-1596 474,-1587.64 427.566,-1584.21 382.583,-1585.72"/>
<polygon fill="black" stroke="black" points="382.267,-1582.23 372.422,-1586.15 382.56,-1589.22 382.267,-1582.23"/>
<text text-anchor="middle" x="545" y="-1592.3" font-family="Times New Roman,serif" font-size="14.00"> &#160;&#160;longClick(&quot;index=1&quot;) &#160;&#160;</text>
</g>
<!-- state_19&#45;&gt;state_19 -->
<g id="edge13" class="edge"><title>state_19&#45;&gt;state_19</title>
<path fill="none" stroke="black" d="M372.016,-1607.95C464.5,-1615.92 616,-1611.94 616,-1596 616,-1580.64 475.25,-1576.38 382.262,-1583.23"/>
<polygon fill="black" stroke="black" points="381.706,-1579.76 372.016,-1584.05 382.262,-1586.74 381.706,-1579.76"/>
<text text-anchor="middle" x="673.5" y="-1592.3" font-family="Times New Roman,serif" font-size="14.00"> &#160;&#160;click(&quot;index=1&quot;) &#160;&#160;</text>
</g>
<!-- state_19&#45;&gt;state_19 -->
<g id="edge14" class="edge"><title>state_19&#45;&gt;state_19</title>
<path fill="none" stroke="black" d="M372.279,-1610C493.69,-1623.11 731,-1618.44 731,-1596 731,-1574.17 506.49,-1569.16 382.491,-1580.96"/>
<polygon fill="black" stroke="black" points="381.875,-1577.51 372.279,-1582 382.581,-1584.47 381.875,-1577.51"/>
<text text-anchor="middle" x="802" y="-1592.3" font-family="Times New Roman,serif" font-size="14.00"> &#160;&#160;longClick(&quot;index=1&quot;) &#160;&#160;</text>
</g>
<!-- state_19&#45;&gt;state_19 -->
<g id="edge16" class="edge"><title>state_19&#45;&gt;state_19</title>
<path fill="none" stroke="black" d="M372.097,-1611.43C524.008,-1630.32 873,-1625.17 873,-1596 873,-1567.45 538.843,-1561.92 382.156,-1579.39"/>
<polygon fill="black" stroke="black" points="381.62,-1575.93 372.097,-1580.57 382.438,-1582.88 381.62,-1575.93"/>
<text text-anchor="middle" x="926" y="-1592.3" font-family="Times New Roman,serif" font-size="14.00"> &#160;&#160;swipe(&quot;Right&quot;) &#160;&#160;</text>
</g>
<!-- state_19&#45;&gt;state_19 -->
<g id="edge17" class="edge"><title>state_19&#45;&gt;state_19</title>
<path fill="none" stroke="black" d="M372.13,-1613.06C544.679,-1637.42 979,-1631.73 979,-1596 979,-1560.95 561.063,-1554.8 382.267,-1577.58"/>
<polygon fill="black" stroke="black" points="381.576,-1574.14 372.13,-1578.94 382.506,-1581.08 381.576,-1574.14"/>
<text text-anchor="middle" x="1028.5" y="-1592.3" font-family="Times New Roman,serif" font-size="14.00"> &#160;&#160;swipe(&quot;Left&quot;) &#160;&#160;</text>
</g>
<!-- state_24 -->
<g id="node3" class="node"><title>state_24</title>
<g id="a_node3"><a xlink:href="24.png" xlink:title="&lt;TABLE&gt;">
<polygon fill="none" stroke="black" points="522,-1400 392,-1400 392,-1110 522,-1110 522,-1400"/>
<text text-anchor="start" x="433.5" y="-1388.8" font-family="Times New Roman,serif" font-size="14.00">state_24</text>
<text text-anchor="start" x="423" y="-1373.8" font-family="Times New Roman,serif" font-size="14.00">incoming:15</text>
<text text-anchor="start" x="427.5" y="-1358.8" font-family="Times New Roman,serif" font-size="14.00">outgoing:9</text>
<text text-anchor="start" x="439" y="-1343.8" font-family="Times New Roman,serif" font-size="14.00">loop:7</text>
<image xlink:href="24.png" width="130px" height="230px" preserveAspectRatio="xMinYMin meet" x="392" y="-1340"/>
</a>
</g>
</g>
<!-- state_19&#45;&gt;state_24 -->
<g id="edge15" class="edge"><title>state_19&#45;&gt;state_24</title>
<path fill="none" stroke="black" d="M370.831,-1450.74C376.856,-1437.12 382.98,-1423.29 389.042,-1409.59"/>
<polygon fill="black" stroke="black" points="392.381,-1410.69 393.226,-1400.13 385.979,-1407.86 392.381,-1410.69"/>
<text text-anchor="middle" x="455.5" y="-1421.8" font-family="Times New Roman,serif" font-size="14.00"> &#160;&#160;&quot;index=1&quot;.input(&quot;cd&quot;) &#160;&#160;</text>
</g>
<!-- state_19&#45;&gt;state_33 -->
<g id="edge18" class="edge"><title>state_19&#45;&gt;state_33</title>
<path fill="none" stroke="black" d="M245.775,-1450.93C212.274,-1347.92 189.477,-1210.33 255,-1110 265.882,-1093.34 278.954,-1102.27 296,-1092 349.407,-1059.82 404.328,-1016.37 446.303,-980.581"/>
<polygon fill="black" stroke="black" points="448.675,-983.158 453.987,-973.991 444.118,-977.845 448.675,-983.158"/>
<text text-anchor="middle" x="319" y="-1251.3" font-family="Times New Roman,serif" font-size="14.00"> &#160;&#160;press(&quot;MenuKey&quot;) &#160;&#160;</text>
</g>
<!-- state_19&#45;&gt;activity_0 -->
<g id="edge19" class="edge"><title>state_19&#45;&gt;activity_0</title>
<path fill="none" stroke="red" d="M241.778,-1492.76C182.85,-1386.83 112.999,-1217.42 167,-1077 233.188,-904.885 292,-871.934 445,-769 480.695,-744.985 493.806,-744.396 536,-736 674.135,-708.513 1102.71,-702.584 1257.5,-701.33"/>
<polygon fill="red" stroke="red" points="1257.76,-704.828 1267.73,-701.25 1257.71,-697.828 1257.76,-704.828"/>
<text text-anchor="middle" x="229.5" y="-1080.8" font-family="Times New Roman,serif" font-size="14.00" fill="red"> &#160;&#160;press(&quot;BackKey&quot;) &#160;&#160;</text>
</g>
<!-- state_24&#45;&gt;state_24 -->
<g id="edge20" class="edge"><title>state_24&#45;&gt;state_24</title>
<path fill="none" stroke="black" d="M522.072,-1259.21C532.697,-1258.61 540,-1257.21 540,-1255 540,-1253.59 537.003,-1252.5 532.055,-1251.75"/>
<polygon fill="black" stroke="black" points="532.361,-1248.26 522.072,-1250.79 531.69,-1255.23 532.361,-1248.26"/>
<text text-anchor="middle" x="582" y="-1251.3" font-family="Times New Roman,serif" font-size="14.00"> &#160;&#160;click(&quot;ab&quot;) &#160;&#160;</text>
</g>
<!-- state_24&#45;&gt;state_24 -->
<g id="edge21" class="edge"><title>state_24&#45;&gt;state_24</title>
<path fill="none" stroke="black" d="M522.422,-1263.45C570.276,-1265.52 624,-1262.71 624,-1255 624,-1247.83 577.566,-1244.9 532.583,-1246.19"/>
<polygon fill="black" stroke="black" points="532.29,-1242.7 522.422,-1246.55 532.542,-1249.69 532.29,-1242.7"/>
<text text-anchor="middle" x="695" y="-1251.3" font-family="Times New Roman,serif" font-size="14.00"> &#160;&#160;longClick(&quot;index=1&quot;) &#160;&#160;</text>
</g>
<!-- state_24&#45;&gt;state_24 -->
<g id="edge22" class="edge"><title>state_24&#45;&gt;state_24</title>
<path fill="none" stroke="black" d="M522.016,-1265.25C614.5,-1272.08 766,-1268.66 766,-1255 766,-1241.83 625.25,-1238.18 532.262,-1244.05"/>
<polygon fill="black" stroke="black" points="531.754,-1240.58 522.016,-1244.75 532.231,-1247.56 531.754,-1240.58"/>
<text text-anchor="middle" x="808.5" y="-1251.3" font-family="Times New Roman,serif" font-size="14.00"> &#160;&#160;click(&quot;cd&quot;) &#160;&#160;</text>
</g>
<!-- state_24&#45;&gt;state_24 -->
<g id="edge23" class="edge"><title>state_24&#45;&gt;state_24</title>
<path fill="none" stroke="black" d="M522.316,-1267.33C636.797,-1278.15 851,-1274.04 851,-1255 851,-1236.51 649.164,-1232.1 532.627,-1241.76"/>
<polygon fill="black" stroke="black" points="531.969,-1238.3 522.316,-1242.67 532.586,-1245.27 531.969,-1238.3"/>
<text text-anchor="middle" x="922" y="-1251.3" font-family="Times New Roman,serif" font-size="14.00"> &#160;&#160;longClick(&quot;index=1&quot;) &#160;&#160;</text>
</g>
<!-- state_24&#45;&gt;state_24 -->
<g id="edge24" class="edge"><title>state_24&#45;&gt;state_24</title>
<path fill="none" stroke="black" d="M522.223,-1268.51C668.249,-1284.36 993,-1279.86 993,-1255 993,-1230.7 682.674,-1225.85 532.327,-1240.45"/>
<polygon fill="black" stroke="black" points="531.813,-1236.99 522.223,-1241.49 532.528,-1243.95 531.813,-1236.99"/>
<text text-anchor="middle" x="1066.5" y="-1251.3" font-family="Times New Roman,serif" font-size="14.00"> &#160;&#160;&quot;index=1&quot;.input(&quot;cd&quot;) &#160;&#160;</text>
</g>
<!-- state_24&#45;&gt;state_24 -->
<g id="edge25" class="edge"><title>state_24&#45;&gt;state_24</title>
<path fill="none" stroke="black" d="M522.268,-1269.55C696.875,-1290.52 1140,-1285.67 1140,-1255 1140,-1224.9 713.167,-1219.67 532.261,-1239.31"/>
<polygon fill="black" stroke="black" points="531.807,-1235.83 522.268,-1240.45 532.601,-1242.79 531.807,-1235.83"/>
<text text-anchor="middle" x="1193" y="-1251.3" font-family="Times New Roman,serif" font-size="14.00"> &#160;&#160;swipe(&quot;Right&quot;) &#160;&#160;</text>
</g>
<!-- state_24&#45;&gt;state_24 -->
<g id="edge26" class="edge"><title>state_24&#45;&gt;state_24</title>
<path fill="none" stroke="black" d="M522.214,-1270.81C715.787,-1296.61 1246,-1291.34 1246,-1255 1246,-1219.28 733.755,-1213.58 532.429,-1237.9"/>
<polygon fill="black" stroke="black" points="531.695,-1234.46 522.214,-1239.19 532.575,-1241.41 531.695,-1234.46"/>
<text text-anchor="middle" x="1295.5" y="-1251.3" font-family="Times New Roman,serif" font-size="14.00"> &#160;&#160;swipe(&quot;Left&quot;) &#160;&#160;</text>
</g>
<!-- state_24&#45;&gt;state_33 -->
<g id="edge27" class="edge"><title>state_24&#45;&gt;state_33</title>
<path fill="none" stroke="black" d="M493.53,-1109.78C494.757,-1103.78 495.92,-1097.84 497,-1092 498.386,-1084.51 499.708,-1076.82 500.967,-1069.04"/>
<polygon fill="black" stroke="black" points="504.426,-1069.58 502.528,-1059.15 497.512,-1068.48 504.426,-1069.58"/>
<text text-anchor="middle" x="563" y="-1080.8" font-family="Times New Roman,serif" font-size="14.00"> &#160;&#160;press(&quot;MenuKey&quot;) &#160;&#160;</text>
</g>
<!-- state_24&#45;&gt;activity_0 -->
<g id="edge28" class="edge"><title>state_24&#45;&gt;activity_0</title>
<path fill="none" stroke="red" d="M522.201,-1251.86C722.883,-1243.7 1324.31,-1207.09 1433,-1059 1471.13,-1007.05 1465.35,-824.739 1433,-769 1417.36,-742.056 1386.6,-724.886 1360.27,-714.54"/>
<polygon fill="red" stroke="red" points="1361.39,-711.226 1350.8,-711.032 1358.96,-717.789 1361.39,-711.226"/>
<text text-anchor="middle" x="1521.5" y="-910.3" font-family="Times New Roman,serif" font-size="14.00" fill="red"> &#160;&#160;press(&quot;BackKey&quot;) &#160;&#160;</text>
</g>
<!-- state_33&#45;&gt;state_24 -->
<g id="edge32" class="edge"><title>state_33&#45;&gt;state_24</title>
<path fill="none" stroke="black" d="M584.316,-966.84C618.85,-1000.92 650.448,-1047.32 631,-1092 610.402,-1139.32 568.412,-1179.07 530.843,-1207.34"/>
<polygon fill="black" stroke="black" points="528.38,-1204.81 522.406,-1213.56 532.533,-1210.45 528.38,-1204.81"/>
<text text-anchor="middle" x="696.5" y="-1080.8" font-family="Times New Roman,serif" font-size="14.00"> &#160;&#160;press(&quot;BackKey&quot;) &#160;&#160;</text>
</g>
<!-- state_33&#45;&gt;state_24 -->
<g id="edge33" class="edge"><title>state_33&#45;&gt;state_24</title>
<path fill="none" stroke="black" d="M453.828,-963.116C420.43,-991.958 383.066,-1031.77 365,-1077 362.527,-1083.19 362.949,-1085.66 365,-1092 368.036,-1101.39 372.728,-1101.66 378,-1110 380.904,-1114.59 383.814,-1119.3 386.712,-1124.08"/>
<polygon fill="black" stroke="black" points="383.768,-1125.98 391.913,-1132.76 389.772,-1122.38 383.768,-1125.98"/>
<text text-anchor="middle" x="429" y="-1080.8" font-family="Times New Roman,serif" font-size="14.00"> &#160;&#160;press(&quot;MenuKey&quot;) &#160;&#160;</text>
</g>
<!-- state_33&#45;&gt;state_33 -->
<g id="edge30" class="edge"><title>state_33&#45;&gt;state_33</title>
<path fill="none" stroke="black" d="M584.072,-928.746C594.697,-926.635 602,-921.72 602,-914 602,-908.934 598.855,-905.076 593.69,-902.425"/>
<polygon fill="black" stroke="black" points="594.665,-899.061 584.072,-899.254 592.473,-905.709 594.665,-899.061"/>
<text text-anchor="middle" x="655" y="-910.3" font-family="Times New Roman,serif" font-size="14.00"> &#160;&#160;swipe(&quot;Right&quot;) &#160;&#160;</text>
</g>
<!-- state_33&#45;&gt;state_33 -->
<g id="edge31" class="edge"><title>state_33&#45;&gt;state_33</title>
<path fill="none" stroke="black" d="M584.113,-942.524C639.904,-951.648 708,-942.14 708,-914 708,-887.509 647.65,-877.53 594.031,-884.064"/>
<polygon fill="black" stroke="black" points="593.52,-880.601 584.113,-885.476 594.507,-887.531 593.52,-880.601"/>
<text text-anchor="middle" x="757.5" y="-910.3" font-family="Times New Roman,serif" font-size="14.00"> &#160;&#160;swipe(&quot;Left&quot;) &#160;&#160;</text>
</g>
<!-- state_33&#45;&gt;activity_0 -->
<g id="edge29" class="edge"><title>state_33&#45;&gt;activity_0</title>
<path fill="none" stroke="red" d="M584.023,-870.724C634.272,-838.046 705.556,-791.675 768,-751 778.226,-744.339 779.425,-739.866 791,-736 876.147,-707.56 1140.69,-702.168 1257.54,-701.191"/>
<polygon fill="red" stroke="red" points="1257.73,-704.689 1267.71,-701.114 1257.68,-697.69 1257.73,-704.689"/>
<text text-anchor="middle" x="839" y="-739.8" font-family="Times New Roman,serif" font-size="14.00" fill="red"> &#160;&#160;click(&quot;大约&quot;) &#160;&#160;</text>
</g>
<!-- state_33&#45;&gt;activity_0 -->
<g id="edge34" class="edge"><title>state_33&#45;&gt;activity_0</title>
<path fill="none" stroke="red" d="M528.717,-768.846C534.577,-756.406 542.472,-745.113 553,-736 579.566,-713.004 1086.54,-704.067 1257.93,-701.696"/>
<polygon fill="red" stroke="red" points="1258.06,-705.194 1268.01,-701.558 1257.96,-698.195 1258.06,-705.194"/>
<text text-anchor="middle" x="601" y="-739.8" font-family="Times New Roman,serif" font-size="14.00" fill="red"> &#160;&#160;click(&quot;保存&quot;) &#160;&#160;</text>
</g>
<!-- state_33&#45;&gt;activity_0 -->
<g id="edge35" class="edge"><title>state_33&#45;&gt;activity_0</title>
<path fill="none" stroke="red" d="M584.068,-829.805C618.664,-786.68 656.407,-741.781 668,-736 719.962,-710.087 1109.48,-703.2 1257.32,-701.51"/>
<polygon fill="red" stroke="red" points="1257.58,-705.008 1267.54,-701.397 1257.5,-698.008 1257.58,-705.008"/>
<text text-anchor="middle" x="716" y="-739.8" font-family="Times New Roman,serif" font-size="14.00" fill="red"> &#160;&#160;click(&quot;删除&quot;) &#160;&#160;</text>
</g>
<!-- state_43&#45;&gt;state_33 -->
<g id="edge44" class="edge"><title>state_43&#45;&gt;state_33</title>
<path fill="none" stroke="black" d="M503.914,-631.405C504.288,-637.348 504.651,-643.232 505,-649 507.146,-684.491 509.275,-722.676 511.201,-758.676"/>
<polygon fill="black" stroke="black" points="507.712,-758.969 511.739,-768.768 514.702,-758.596 507.712,-758.969"/>
<text text-anchor="middle" x="572" y="-696.3" font-family="Times New Roman,serif" font-size="14.00"> &#160;&#160;press(&quot;MenuKey&quot;) &#160;&#160;</text>
</g>
<!-- state_43&#45;&gt;state_43 -->
<g id="edge36" class="edge"><title>state_43&#45;&gt;state_43</title>
<path fill="none" stroke="black" d="M559.072,-490.213C569.697,-489.61 577,-488.206 577,-486 577,-484.587 574.003,-483.503 569.055,-482.748"/>
<polygon fill="black" stroke="black" points="569.361,-479.261 559.072,-481.787 568.69,-486.229 569.361,-479.261"/>
<text text-anchor="middle" x="631.5" y="-482.3" font-family="Times New Roman,serif" font-size="14.00"> &#160;&#160;click(&quot;无标题&quot;) &#160;&#160;</text>
</g>
<!-- state_43&#45;&gt;state_43 -->
<g id="edge37" class="edge"><title>state_43&#45;&gt;state_43</title>
<path fill="none" stroke="black" d="M559.408,-494.127C616.178,-496.772 686,-494.064 686,-486 686,-478.409 624.121,-475.563 569.505,-477.463"/>
<polygon fill="black" stroke="black" points="569.258,-473.97 559.408,-477.873 569.542,-480.965 569.258,-473.97"/>
<text text-anchor="middle" x="757" y="-482.3" font-family="Times New Roman,serif" font-size="14.00"> &#160;&#160;longClick(&quot;index=1&quot;) &#160;&#160;</text>
</g>
<!-- state_43&#45;&gt;state_43 -->
<g id="edge39" class="edge"><title>state_43&#45;&gt;state_43</title>
<path fill="none" stroke="black" d="M559.069,-495.974C658.098,-503.163 828,-499.839 828,-486 828,-472.621 669.193,-469.069 569.158,-475.345"/>
<polygon fill="black" stroke="black" points="568.81,-471.861 559.069,-476.026 569.282,-478.845 568.81,-471.861"/>
<text text-anchor="middle" x="870.5" y="-482.3" font-family="Times New Roman,serif" font-size="14.00"> &#160;&#160;click(&quot;cd&quot;) &#160;&#160;</text>
</g>
<!-- state_43&#45;&gt;state_43 -->
<g id="edge40" class="edge"><title>state_43&#45;&gt;state_43</title>
<path fill="none" stroke="black" d="M559.165,-498.044C679.403,-509.225 913,-505.21 913,-486 913,-467.315 692.003,-463.006 569.275,-473.073"/>
<polygon fill="black" stroke="black" points="568.822,-469.599 559.165,-473.956 569.431,-476.572 568.822,-469.599"/>
<text text-anchor="middle" x="984" y="-482.3" font-family="Times New Roman,serif" font-size="14.00"> &#160;&#160;longClick(&quot;index=1&quot;) &#160;&#160;</text>
</g>
<!-- state_43&#45;&gt;state_43 -->
<g id="edge41" class="edge"><title>state_43&#45;&gt;state_43</title>
<path fill="none" stroke="black" d="M559.223,-499.281C710.22,-515.403 1055,-510.976 1055,-486 1055,-461.56 724.876,-456.796 569.218,-471.708"/>
<polygon fill="black" stroke="black" points="568.82,-468.231 559.223,-472.719 569.524,-475.195 568.82,-468.231"/>
<text text-anchor="middle" x="1128.5" y="-482.3" font-family="Times New Roman,serif" font-size="14.00"> &#160;&#160;&quot;index=1&quot;.input(&quot;cd&quot;) &#160;&#160;</text>
</g>
<!-- state_43&#45;&gt;state_43 -->
<g id="edge42" class="edge"><title>state_43&#45;&gt;state_43</title>
<path fill="none" stroke="black" d="M559.076,-500.334C737.946,-521.55 1202,-516.772 1202,-486 1202,-455.784 754.562,-450.631 569.046,-470.541"/>
<polygon fill="black" stroke="black" points="568.621,-467.067 559.076,-471.666 569.406,-474.023 568.621,-467.067"/>
<text text-anchor="middle" x="1255" y="-482.3" font-family="Times New Roman,serif" font-size="14.00"> &#160;&#160;swipe(&quot;Right&quot;) &#160;&#160;</text>
</g>
<!-- state_43&#45;&gt;state_43 -->
<g id="edge43" class="edge"><title>state_43&#45;&gt;state_43</title>
<path fill="none" stroke="black" d="M559.282,-501.631C757.004,-527.63 1308,-522.42 1308,-486 1308,-450.185 775.147,-444.551 569.417,-469.1"/>
<polygon fill="black" stroke="black" points="568.769,-465.653 559.282,-470.369 569.639,-472.599 568.769,-465.653"/>
<text text-anchor="middle" x="1357.5" y="-482.3" font-family="Times New Roman,serif" font-size="14.00"> &#160;&#160;swipe(&quot;Left&quot;) &#160;&#160;</text>
</g>
<!-- state_46 -->
<g id="node6" class="node"><title>state_46</title>
<g id="a_node6"><a xlink:href="46.png" xlink:title="&lt;TABLE&gt;">
<polygon fill="none" stroke="black" points="479,-290 349,-290 349,-0 479,-0 479,-290"/>
<text text-anchor="start" x="390.5" y="-278.8" font-family="Times New Roman,serif" font-size="14.00">state_46</text>
<text text-anchor="start" x="383.5" y="-263.8" font-family="Times New Roman,serif" font-size="14.00">incoming:7</text>
<text text-anchor="start" x="384.5" y="-248.8" font-family="Times New Roman,serif" font-size="14.00">outgoing:9</text>
<text text-anchor="start" x="396" y="-233.8" font-family="Times New Roman,serif" font-size="14.00">loop:6</text>
<image xlink:href="46.png" width="130px" height="230px" preserveAspectRatio="xMinYMin meet" x="349" y="-230"/>
</a>
</g>
</g>
<!-- state_43&#45;&gt;state_46 -->
<g id="edge38" class="edge"><title>state_43&#45;&gt;state_46</title>
<path fill="none" stroke="black" d="M459.957,-340.742C456.774,-327.256 453.54,-313.552 450.338,-299.981"/>
<polygon fill="black" stroke="black" points="453.716,-299.057 448.013,-290.128 446.903,-300.665 453.716,-299.057"/>
<text text-anchor="middle" x="527" y="-311.8" font-family="Times New Roman,serif" font-size="14.00"> &#160;&#160;&quot;index=1&quot;.input(&quot;ab&quot;) &#160;&#160;</text>
</g>
<!-- state_43&#45;&gt;activity_0 -->
<g id="edge45" class="edge"><title>state_43&#45;&gt;activity_0</title>
<path fill="none" stroke="red" d="M559.478,-552.282C604.078,-592.259 666.693,-640.179 732,-664 827.386,-698.793 1130.67,-700.549 1257.45,-699.68"/>
<polygon fill="red" stroke="red" points="1257.74,-703.178 1267.71,-699.601 1257.69,-696.178 1257.74,-703.178"/>
<text text-anchor="middle" x="794.5" y="-652.8" font-family="Times New Roman,serif" font-size="14.00" fill="red"> &#160;&#160;press(&quot;BackKey&quot;) &#160;&#160;</text>
</g>
<!-- state_46&#45;&gt;state_24 -->
<g id="edge50" class="edge"><title>state_46&#45;&gt;state_24</title>
<path fill="none" stroke="black" d="M348.936,-204.008C286.296,-266.555 201,-372.398 201,-485 201,-744.5 201,-744.5 201,-744.5 201,-914.159 248.012,-963.68 359,-1092 366.939,-1101.18 374.086,-1099.97 384.519,-1108.51"/>
<polygon fill="black" stroke="black" points="382.302,-1111.24 391.892,-1115.75 387.205,-1106.24 382.302,-1111.24"/>
<text text-anchor="middle" x="274.5" y="-696.3" font-family="Times New Roman,serif" font-size="14.00"> &#160;&#160;&quot;index=1&quot;.input(&quot;cd&quot;) &#160;&#160;</text>
</g>
<!-- state_46&#45;&gt;state_33 -->
<g id="edge53" class="edge"><title>state_46&#45;&gt;state_33</title>
<path fill="none" stroke="black" d="M376.655,-290.247C355.602,-395.547 339.548,-540.812 373,-664 388.021,-719.314 418.764,-774.907 448.182,-819.487"/>
<polygon fill="black" stroke="black" points="445.382,-821.597 453.849,-827.966 451.202,-817.707 445.382,-821.597"/>
<text text-anchor="middle" x="437" y="-652.8" font-family="Times New Roman,serif" font-size="14.00"> &#160;&#160;press(&quot;MenuKey&quot;) &#160;&#160;</text>
</g>
<!-- state_46&#45;&gt;state_46 -->
<g id="edge46" class="edge"><title>state_46&#45;&gt;state_46</title>
<path fill="none" stroke="black" d="M479.072,-149.915C489.697,-149.212 497,-147.573 497,-145 497,-143.352 494.003,-142.087 489.055,-141.205"/>
<polygon fill="black" stroke="black" points="489.4,-137.722 479.072,-140.085 488.619,-144.679 489.4,-137.722"/>
<text text-anchor="middle" x="539" y="-141.3" font-family="Times New Roman,serif" font-size="14.00"> &#160;&#160;click(&quot;ab&quot;) &#160;&#160;</text>
</g>
<!-- state_46&#45;&gt;state_46 -->
<g id="edge47" class="edge"><title>state_46&#45;&gt;state_46</title>
<path fill="none" stroke="black" d="M479.422,-154.853C527.276,-157.277 581,-153.993 581,-145 581,-136.64 534.566,-133.213 489.583,-134.72"/>
<polygon fill="black" stroke="black" points="489.267,-131.23 479.422,-135.147 489.56,-138.224 489.267,-131.23"/>
<text text-anchor="middle" x="652" y="-141.3" font-family="Times New Roman,serif" font-size="14.00"> &#160;&#160;longClick(&quot;index=1&quot;) &#160;&#160;</text>
</g>
<!-- state_46&#45;&gt;state_46 -->
<g id="edge48" class="edge"><title>state_46&#45;&gt;state_46</title>
<path fill="none" stroke="black" d="M479.016,-156.953C571.5,-164.922 723,-160.938 723,-145 723,-129.638 582.25,-125.382 489.262,-132.23"/>
<polygon fill="black" stroke="black" points="488.706,-128.763 479.016,-133.047 489.262,-135.741 488.706,-128.763"/>
<text text-anchor="middle" x="761.5" y="-141.3" font-family="Times New Roman,serif" font-size="14.00"> &#160;&#160;click(&quot;c&quot;) &#160;&#160;</text>
</g>
<!-- state_46&#45;&gt;state_46 -->
<g id="edge49" class="edge"><title>state_46&#45;&gt;state_46</title>
<path fill="none" stroke="black" d="M479.201,-159.48C591.757,-171.99 800,-167.163 800,-145 800,-123.486 603.78,-118.308 489.332,-129.466"/>
<polygon fill="black" stroke="black" points="488.784,-126.004 479.201,-130.52 489.509,-132.966 488.784,-126.004"/>
<text text-anchor="middle" x="871" y="-141.3" font-family="Times New Roman,serif" font-size="14.00"> &#160;&#160;longClick(&quot;index=1&quot;) &#160;&#160;</text>
</g>
<!-- state_46&#45;&gt;state_46 -->
<g id="edge51" class="edge"><title>state_46&#45;&gt;state_46</title>
<path fill="none" stroke="black" d="M479.046,-160.827C623.374,-179.242 942,-173.966 942,-145 942,-116.684 637.527,-111.007 489.03,-127.968"/>
<polygon fill="black" stroke="black" points="488.555,-124.5 479.046,-129.173 489.394,-131.45 488.555,-124.5"/>
<text text-anchor="middle" x="995" y="-141.3" font-family="Times New Roman,serif" font-size="14.00"> &#160;&#160;swipe(&quot;Right&quot;) &#160;&#160;</text>
</g>
<!-- state_46&#45;&gt;state_46 -->
<g id="edge52" class="edge"><title>state_46&#45;&gt;state_46</title>
<path fill="none" stroke="black" d="M479.139,-162.444C644.793,-186.363 1048,-180.548 1048,-145 1048,-110.146 660.389,-103.876 489.112,-126.188"/>
<polygon fill="black" stroke="black" points="488.571,-122.73 479.139,-127.556 489.522,-129.665 488.571,-122.73"/>
<text text-anchor="middle" x="1097.5" y="-141.3" font-family="Times New Roman,serif" font-size="14.00"> &#160;&#160;swipe(&quot;Left&quot;) &#160;&#160;</text>
</g>
<!-- state_46&#45;&gt;activity_0 -->
<g id="edge54" class="edge"><title>state_46&#45;&gt;activity_0</title>
<path fill="none" stroke="red" d="M479.129,-146.991C696.145,-151.797 1388.59,-179.73 1524,-341 1606.88,-439.708 1599.81,-526.765 1524,-631 1489.17,-678.885 1419.89,-693.739 1370.43,-697.99"/>
<polygon fill="red" stroke="red" points="1369.91,-694.519 1360.19,-698.744 1370.42,-701.5 1369.91,-694.519"/>
<text text-anchor="middle" x="1645.5" y="-482.3" font-family="Times New Roman,serif" font-size="14.00" fill="red"> &#160;&#160;press(&quot;BackKey&quot;) &#160;&#160;</text>
</g>
<!-- activity_0&#45;&gt;state_2 -->
<g id="edge55" class="edge"><title>activity_0&#45;&gt;state_2</title>
<path fill="none" stroke="red" d="M1359.68,-703.449C1409.2,-707.049 1490.11,-715.705 1557,-736 1589.53,-745.87 1602.44,-744.493 1626,-769 1674.29,-819.236 1688,-843.32 1688,-913 1688,-1597 1688,-1597 1688,-1597 1688,-1683.17 1729.21,-1771.83 1768.58,-1836.86"/>
<polygon fill="red" stroke="red" points="1765.65,-1838.78 1773.87,-1845.47 1771.62,-1835.12 1765.65,-1838.78"/>
<text text-anchor="middle" x="1745.5" y="-1251.3" font-family="Times New Roman,serif" font-size="14.00" fill="red"> &#160;&#160;click(&quot;index=1&quot;) &#160;&#160;</text>
</g>
<!-- activity_0&#45;&gt;state_2 -->
<g id="edge58" class="edge"><title>activity_0&#45;&gt;state_2</title>
<path fill="none" stroke="red" d="M1358.9,-704.681C1448.34,-712.681 1645.06,-733.819 1702,-769 1777.15,-815.43 1839,-824.663 1839,-913 1839,-1597 1839,-1597 1839,-1597 1839,-1657.24 1839,-1723.5 1839,-1781.34"/>
<polygon fill="red" stroke="red" points="1835.5,-1781.66 1839,-1791.66 1842.5,-1781.66 1835.5,-1781.66"/>
<text text-anchor="middle" x="1896.5" y="-1251.3" font-family="Times New Roman,serif" font-size="14.00" fill="red"> &#160;&#160;click(&quot;index=1&quot;) &#160;&#160;</text>
</g>
<!-- activity_0&#45;&gt;state_2 -->
<g id="edge61" class="edge"><title>activity_0&#45;&gt;state_2</title>
<path fill="none" stroke="red" d="M1359.87,-702.699C1473.96,-707.567 1767.46,-724.209 1853,-769 1931.26,-809.977 1990,-824.663 1990,-913 1990,-1597 1990,-1597 1990,-1597 1990,-1683.17 1948.79,-1771.83 1909.42,-1836.86"/>
<polygon fill="red" stroke="red" points="1906.38,-1835.12 1904.13,-1845.47 1912.35,-1838.78 1906.38,-1835.12"/>
<text text-anchor="middle" x="2047.5" y="-1251.3" font-family="Times New Roman,serif" font-size="14.00" fill="red"> &#160;&#160;click(&quot;index=1&quot;) &#160;&#160;</text>
</g>
<!-- activity_0&#45;&gt;state_2 -->
<g id="edge62" class="edge"><title>activity_0&#45;&gt;state_2</title>
<path fill="none" stroke="red" d="M1360.51,-701.13C1496.6,-702.197 1891.51,-710.397 2004,-769 2082.34,-809.813 2141,-824.663 2141,-913 2141,-1597 2141,-1597 2141,-1597 2141,-1733.73 2002.33,-1840.82 1912.92,-1895.65"/>
<polygon fill="red" stroke="red" points="1910.9,-1892.78 1904.16,-1900.96 1914.52,-1898.77 1910.9,-1892.78"/>
<text text-anchor="middle" x="2198.5" y="-1251.3" font-family="Times New Roman,serif" font-size="14.00" fill="red"> &#160;&#160;click(&quot;index=1&quot;) &#160;&#160;</text>
</g>
<!-- activity_0&#45;&gt;state_2 -->
<g id="edge63" class="edge"><title>activity_0&#45;&gt;state_2</title>
<path fill="none" stroke="red" d="M1359.69,-702.623C1524.76,-708.766 2084.24,-732.137 2155,-769 2233.34,-809.813 2292,-824.663 2292,-913 2292,-1597 2292,-1597 2292,-1597 2292,-1783.44 2042.98,-1879.77 1914.2,-1917.12"/>
<polygon fill="red" stroke="red" points="1913.04,-1913.81 1904.39,-1919.92 1914.96,-1920.54 1913.04,-1913.81"/>
<text text-anchor="middle" x="2349.5" y="-1251.3" font-family="Times New Roman,serif" font-size="14.00" fill="red"> &#160;&#160;click(&quot;index=0&quot;) &#160;&#160;</text>
</g>
<!-- activity_0&#45;&gt;state_2 -->
<g id="edge64" class="edge"><title>activity_0&#45;&gt;state_2</title>
<path fill="none" stroke="red" d="M1360.09,-702.08C1544.15,-706.673 2220.76,-726.339 2306,-769 2385,-808.535 2443,-824.663 2443,-913 2443,-1597 2443,-1597 2443,-1597 2443,-1836.74 2076.66,-1908.68 1914.59,-1928.77"/>
<polygon fill="red" stroke="red" points="1913.72,-1925.35 1904.21,-1930.02 1914.56,-1932.3 1913.72,-1925.35"/>
<text text-anchor="middle" x="2500.5" y="-1251.3" font-family="Times New Roman,serif" font-size="14.00" fill="red"> &#160;&#160;click(&quot;index=1&quot;) &#160;&#160;</text>
</g>
<!-- activity_0&#45;&gt;state_2 -->
<g id="edge67" class="edge"><title>activity_0&#45;&gt;state_2</title>
<path fill="none" stroke="red" d="M1360.12,-701.616C1561.45,-704.59 2357.68,-719.42 2457,-769 2536.04,-808.454 2594,-824.663 2594,-913 2594,-1597 2594,-1597 2594,-1597 2594,-1892.93 2105.31,-1932.11 1914.26,-1936.13"/>
<polygon fill="red" stroke="red" points="1913.96,-1932.63 1904.02,-1936.31 1914.09,-1939.63 1913.96,-1932.63"/>
<text text-anchor="middle" x="2651.5" y="-1251.3" font-family="Times New Roman,serif" font-size="14.00" fill="red"> &#160;&#160;click(&quot;index=1&quot;) &#160;&#160;</text>
</g>
<!-- activity_0&#45;&gt;state_24 -->
<g id="edge56" class="edge"><title>activity_0&#45;&gt;state_24</title>
<path fill="none" stroke="red" d="M1267.89,-701.043C1165.91,-702.208 926.182,-711.178 875,-769 788.722,-866.47 909.31,-952.827 834,-1059 761.649,-1161 619.543,-1213.46 531.964,-1237.24"/>
<polygon fill="red" stroke="red" points="530.855,-1233.91 522.089,-1239.86 532.652,-1240.68 530.855,-1233.91"/>
<text text-anchor="middle" x="932.5" y="-910.3" font-family="Times New Roman,serif" font-size="14.00" fill="red"> &#160;&#160;click(&quot;index=1&quot;) &#160;&#160;</text>
</g>
<!-- activity_0&#45;&gt;state_24 -->
<g id="edge57" class="edge"><title>activity_0&#45;&gt;state_24</title>
<path fill="none" stroke="red" d="M1269.67,-705.228C1197.04,-713.13 1057.57,-732.715 1026,-769 940.743,-866.977 1070.83,-957.343 990,-1059 876.93,-1201.2 650.255,-1239.72 532.267,-1250.14"/>
<polygon fill="red" stroke="red" points="531.905,-1246.66 522.233,-1250.98 532.49,-1253.63 531.905,-1246.66"/>
<text text-anchor="middle" x="1083.5" y="-910.3" font-family="Times New Roman,serif" font-size="14.00" fill="red"> &#160;&#160;click(&quot;index=0&quot;) &#160;&#160;</text>
</g>
<!-- activity_0&#45;&gt;state_24 -->
<g id="edge59" class="edge"><title>activity_0&#45;&gt;state_24</title>
<path fill="none" stroke="red" d="M1274.84,-709.609C1243.11,-718.747 1200.04,-736.509 1177,-769 1101.88,-874.947 1225.49,-960.361 1141,-1059 1061.17,-1152.2 692.977,-1218.23 532.32,-1243.09"/>
<polygon fill="red" stroke="red" points="531.396,-1239.69 522.044,-1244.67 532.459,-1246.61 531.396,-1239.69"/>
<text text-anchor="middle" x="1234.5" y="-910.3" font-family="Times New Roman,serif" font-size="14.00" fill="red"> &#160;&#160;click(&quot;index=1&quot;) &#160;&#160;</text>
</g>
<!-- activity_0&#45;&gt;state_24 -->
<g id="edge60" class="edge"><title>activity_0&#45;&gt;state_24</title>
<path fill="none" stroke="red" d="M1313.52,-718.036C1311.47,-787.44 1303.13,-1045.83 1292,-1059 1193.67,-1175.42 718.565,-1230.35 532.219,-1247.68"/>
<polygon fill="red" stroke="red" points="531.868,-1244.2 522.231,-1248.6 532.509,-1251.17 531.868,-1244.2"/>
<text text-anchor="middle" x="1368.5" y="-910.3" font-family="Times New Roman,serif" font-size="14.00" fill="red"> &#160;&#160;click(&quot;index=0&quot;) &#160;&#160;</text>
</g>
<!-- activity_0&#45;&gt;state_43 -->
<g id="edge65" class="edge"><title>activity_0&#45;&gt;state_43</title>
<path fill="none" stroke="red" d="M1267.71,-698.896C1196.21,-697.797 1055.03,-691.88 939,-664 803.669,-631.482 655.046,-565.807 568.381,-524.243"/>
<polygon fill="red" stroke="red" points="569.686,-520.987 559.158,-519.798 566.647,-527.293 569.686,-520.987"/>
<text text-anchor="middle" x="996.5" y="-652.8" font-family="Times New Roman,serif" font-size="14.00" fill="red"> &#160;&#160;click(&quot;index=1&quot;) &#160;&#160;</text>
</g>
<!-- activity_0&#45;&gt;state_43 -->
<g id="edge66" class="edge"><title>activity_0&#45;&gt;state_43</title>
<path fill="none" stroke="red" d="M1276.64,-689.34C1150.61,-656.758 739.559,-550.486 569.109,-506.418"/>
<polygon fill="red" stroke="red" points="569.771,-502.975 559.213,-503.86 568.019,-509.752 569.771,-502.975"/>
<text text-anchor="middle" x="1233.5" y="-652.8" font-family="Times New Roman,serif" font-size="14.00" fill="red"> &#160;&#160;click(&quot;index=0&quot;) &#160;&#160;</text>
</g>
</g>
</svg>
