<?xml version="1.0" encoding="UTF-8" standalone="no"?>
<!DOCTYPE svg PUBLIC "-//W3C//DTD SVG 1.1//EN"
 "http://www.w3.org/Graphics/SVG/1.1/DTD/svg11.dtd">
<!-- Generated by graphviz version 2.38.0 (20140413.2041)
 -->
<!-- Title: result Pages: 1 -->
<svg width="612pt" height="1034pt"
 viewBox="0.00 0.00 612.00 1034.01" xmlns="http://www.w3.org/2000/svg" xmlns:xlink="http://www.w3.org/1999/xlink">
<g id="graph0" class="graph" transform="scale(1 1) rotate(0) translate(4 1030.01)">
<title>result</title>
<polygon fill="white" stroke="none" points="-4,4 -4,-1030.01 608,-1030.01 608,4 -4,4"/>
<!-- initial -->
<g id="node1" class="node"><title>initial</title>
<image xlink:href="-1.png" width="50px" height="50px" preserveAspectRatio="xMinYMin meet" x="0" y="-537.015"/>
</g>
<!-- activity_0 -->
<g id="node2" class="node"><title>activity_0</title>
<g id="a_node2"><a xlink:href="activity_0.svg" xlink:title="&lt;TABLE&gt;">
<polygon fill="none" stroke="black" points="217,-649.515 87,-649.515 87,-374.515 217,-374.515 217,-649.515"/>
<text text-anchor="start" x="124.5" y="-637.815" font-family="Times New Roman,serif" font-size="14.00">activity_0</text>
<text text-anchor="start" x="121.5" y="-622.815" font-family="Times New Roman,serif" font-size="14.00">incoming:8</text>
<text text-anchor="start" x="119" y="-607.815" font-family="Times New Roman,serif" font-size="14.00">outgoing:18</text>
<image xlink:href="0.png" width="130px" height="230px" preserveAspectRatio="xMinYMin meet" x="87" y="-604.015"/>
</a>
</g>
</g>
<!-- initial&#45;&gt;activity_0 -->
<g id="edge1" class="edge"><title>initial&#45;&gt;activity_0</title>
<path fill="none" stroke="black" d="M50.1013,-512.015C57.9994,-512.015 67.2332,-512.015 76.8484,-512.015"/>
<polygon fill="black" stroke="black" points="76.9667,-515.515 86.9666,-512.015 76.9666,-508.515 76.9667,-515.515"/>
</g>
<!-- activity_1 -->
<g id="node3" class="node"><title>activity_1</title>
<g id="a_node3"><a xlink:href="activity_1.svg" xlink:title="&lt;TABLE&gt;">
<polygon fill="none" stroke="black" points="604,-744.515 474,-744.515 474,-469.515 604,-469.515 604,-744.515"/>
<text text-anchor="start" x="511.5" y="-732.815" font-family="Times New Roman,serif" font-size="14.00">activity_1</text>
<text text-anchor="start" x="505" y="-717.815" font-family="Times New Roman,serif" font-size="14.00">incoming:13</text>
<text text-anchor="start" x="509.5" y="-702.815" font-family="Times New Roman,serif" font-size="14.00">outgoing:8</text>
<image xlink:href="2.png" width="130px" height="230px" preserveAspectRatio="xMinYMin meet" x="474" y="-699.015"/>
</a>
</g>
</g>
<!-- activity_0&#45;&gt;activity_1 -->
<g id="edge2" class="edge"><title>activity_0&#45;&gt;activity_1</title>
<path fill="none" stroke="black" d="M159.041,-649.656C167.46,-767.871 187.498,-925.34 235,-965.015 310.386,-1027.98 379.183,-1026.23 456,-965.015 489.491,-938.327 510.412,-841.085 522.734,-754.675"/>
<polygon fill="black" stroke="black" points="526.205,-755.125 524.12,-744.737 519.272,-754.158 526.205,-755.125"/>
<text text-anchor="middle" x="345.5" y="-1014.81" font-family="Times New Roman,serif" font-size="14.00"> &#160;&#160;&lt;a0.s0,click(&quot;index=1&quot;),a1.s2&gt; &#160;&#160;</text>
</g>
<!-- activity_0&#45;&gt;activity_1 -->
<g id="edge12" class="edge"><title>activity_0&#45;&gt;activity_1</title>
<path fill="none" stroke="black" d="M161.745,-649.63C171.745,-756.485 192.586,-892.161 235,-927.015 253.972,-942.605 436.601,-942.07 456,-927.015 484.343,-905.019 504.568,-828.088 517.841,-755.174"/>
<polygon fill="black" stroke="black" points="521.359,-755.377 519.667,-744.918 514.468,-754.149 521.359,-755.377"/>
<text text-anchor="middle" x="345.5" y="-941.815" font-family="Times New Roman,serif" font-size="14.00"> &#160;&#160;&lt;a0.s32,click(&quot;index=1&quot;),a1.s24&gt; &#160;&#160;</text>
</g>
<!-- activity_0&#45;&gt;activity_1 -->
<g id="edge13" class="edge"><title>activity_0&#45;&gt;activity_1</title>
<path fill="none" stroke="black" d="M165.029,-649.966C176.494,-744.851 197.71,-858.964 235,-889.015 254.12,-904.423 436.362,-903.756 456,-889.015 479.272,-871.546 498.094,-813.591 511.806,-754.726"/>
<polygon fill="black" stroke="black" points="515.238,-755.422 514.049,-744.894 508.413,-753.865 515.238,-755.422"/>
<text text-anchor="middle" x="345.5" y="-903.815" font-family="Times New Roman,serif" font-size="14.00"> &#160;&#160;&lt;a0.s32,click(&quot;index=0&quot;),a1.s24&gt; &#160;&#160;</text>
</g>
<!-- activity_0&#45;&gt;activity_1 -->
<g id="edge14" class="edge"><title>activity_0&#45;&gt;activity_1</title>
<path fill="none" stroke="black" d="M168.972,-649.771C181.678,-732.159 202.762,-825.645 235,-851.015 254.297,-866.201 436.062,-865.348 456,-851.015 487.894,-828.087 507.553,-792.139 519.619,-754.816"/>
<polygon fill="black" stroke="black" points="523.109,-755.371 522.675,-744.785 516.413,-753.331 523.109,-755.371"/>
<text text-anchor="middle" x="345.5" y="-865.815" font-family="Times New Roman,serif" font-size="14.00"> &#160;&#160;&lt;a0.s32,click(&quot;index=1&quot;),a1.s2&gt; &#160;&#160;</text>
</g>
<!-- activity_0&#45;&gt;activity_1 -->
<g id="edge16" class="edge"><title>activity_0&#45;&gt;activity_1</title>
<path fill="none" stroke="black" d="M173.904,-649.605C187.518,-718.768 207.832,-792.258 235,-813.015 254.512,-827.923 435.678,-826.798 456,-813.015 477.539,-798.406 493.421,-777.144 505.131,-753.763"/>
<polygon fill="black" stroke="black" points="508.302,-755.244 509.418,-744.708 501.975,-752.248 508.302,-755.244"/>
<text text-anchor="middle" x="345.5" y="-826.815" font-family="Times New Roman,serif" font-size="14.00"> &#160;&#160;&lt;a0.s72,click(&quot;index=1&quot;),a1.s24&gt; &#160;&#160;</text>
</g>
<!-- activity_0&#45;&gt;activity_1 -->
<g id="edge17" class="edge"><title>activity_0&#45;&gt;activity_1</title>
<path fill="none" stroke="black" d="M180.339,-649.73C194.296,-704.702 212.993,-758.824 235,-775.015 254.779,-789.566 435.174,-788.024 456,-775.015 465.793,-768.897 474.448,-761.235 482.092,-752.576"/>
<polygon fill="black" stroke="black" points="484.902,-754.67 488.553,-744.724 479.497,-750.222 484.902,-754.67"/>
<text text-anchor="middle" x="345.5" y="-788.815" font-family="Times New Roman,serif" font-size="14.00"> &#160;&#160;&lt;a0.s72,click(&quot;index=0&quot;),a1.s24&gt; &#160;&#160;</text>
</g>
<!-- activity_0&#45;&gt;activity_1 -->
<g id="edge18" class="edge"><title>activity_0&#45;&gt;activity_1</title>
<path fill="none" stroke="black" d="M174.282,-649.602C186.404,-683.645 205.366,-716.274 235,-737.015 255.118,-751.095 434.498,-748.874 456,-737.015 459.414,-735.132 462.705,-733.041 465.876,-730.771"/>
<polygon fill="black" stroke="black" points="468.311,-733.308 473.993,-724.366 463.975,-727.813 468.311,-733.308"/>
<text text-anchor="middle" x="345.5" y="-749.815" font-family="Times New Roman,serif" font-size="14.00"> &#160;&#160;&lt;a0.s72,click(&quot;index=1&quot;),a1.s2&gt; &#160;&#160;</text>
</g>
<!-- activity_0&#45;&gt;activity_1 -->
<g id="edge20" class="edge"><title>activity_0&#45;&gt;activity_1</title>
<path fill="none" stroke="black" d="M190.667,-649.783C201.844,-669.27 216.304,-686.799 235,-699.015 276.113,-725.878 411.185,-719.103 456,-699.015 459.221,-697.571 462.368,-695.931 465.437,-694.126"/>
<polygon fill="black" stroke="black" points="467.405,-697.021 473.874,-688.629 463.584,-691.155 467.405,-697.021"/>
<text text-anchor="middle" x="345.5" y="-719.815" font-family="Times New Roman,serif" font-size="14.00"> &#160;&#160;&lt;a0.s62,click(&quot;index=1&quot;),a1.s2&gt; &#160;&#160;</text>
</g>
<!-- activity_0&#45;&gt;activity_1 -->
<g id="edge21" class="edge"><title>activity_0&#45;&gt;activity_1</title>
<path fill="none" stroke="black" d="M217.285,-647.854C222.75,-652.815 228.645,-657.259 235,-661.015 277.278,-686.005 408.956,-675.114 456,-661.015 458.926,-660.138 461.845,-659.119 464.742,-657.982"/>
<polygon fill="black" stroke="black" points="466.143,-661.19 473.908,-653.982 463.342,-654.775 466.143,-661.19"/>
<text text-anchor="middle" x="345.5" y="-678.815" font-family="Times New Roman,serif" font-size="14.00"> &#160;&#160;&lt;a0.s62,click(&quot;index=0&quot;),a1.s2&gt; &#160;&#160;</text>
</g>
<!-- activity_0&#45;&gt;activity_1 -->
<g id="edge22" class="edge"><title>activity_0&#45;&gt;activity_1</title>
<path fill="none" stroke="black" d="M217.165,-611.456C222.745,-615.907 228.69,-619.831 235,-623.015 278.846,-645.137 407.117,-627.739 456,-623.015 458.527,-622.771 461.091,-622.485 463.676,-622.165"/>
<polygon fill="black" stroke="black" points="464.29,-625.613 473.714,-620.773 463.328,-618.68 464.29,-625.613"/>
<text text-anchor="middle" x="345.5" y="-636.815" font-family="Times New Roman,serif" font-size="14.00"> &#160;&#160;&lt;a0.s62,click(&quot;index=1&quot;),a1.s2&gt; &#160;&#160;</text>
</g>
<!-- activity_0&#45;&gt;activity_1 -->
<g id="edge24" class="edge"><title>activity_0&#45;&gt;activity_1</title>
<path fill="none" stroke="black" d="M217.083,-575.487C222.858,-579.166 228.855,-582.417 235,-585.015 255.52,-593.689 380.93,-600.496 463.844,-604.122"/>
<polygon fill="black" stroke="black" points="463.845,-607.626 473.986,-604.559 464.146,-600.632 463.845,-607.626"/>
<text text-anchor="middle" x="345.5" y="-606.815" font-family="Times New Roman,serif" font-size="14.00"> &#160;&#160;&lt;a0.s69,click(&quot;index=1&quot;),a1.s43&gt; &#160;&#160;</text>
</g>
<!-- activity_0&#45;&gt;activity_1 -->
<g id="edge25" class="edge"><title>activity_0&#45;&gt;activity_1</title>
<path fill="none" stroke="black" d="M217.245,-541.674C223.167,-543.724 229.143,-545.553 235,-547.015 330.65,-570.888 361.112,-539.272 456,-566.015 458.638,-566.758 461.292,-567.587 463.948,-568.487"/>
<polygon fill="black" stroke="black" points="462.955,-571.851 473.548,-572.026 465.376,-565.283 462.955,-571.851"/>
<text text-anchor="middle" x="345.5" y="-569.815" font-family="Times New Roman,serif" font-size="14.00"> &#160;&#160;&lt;a0.s69,click(&quot;index=0&quot;),a1.s43&gt; &#160;&#160;</text>
</g>
<!-- activity_0&#45;&gt;activity_1 -->
<g id="edge26" class="edge"><title>activity_0&#45;&gt;activity_1</title>
<path fill="none" stroke="black" d="M217.034,-510.206C293.019,-508.957 414.629,-510.045 456,-528.015 459.082,-529.354 462.117,-530.863 465.097,-532.514"/>
<polygon fill="black" stroke="black" points="463.504,-535.643 473.863,-537.866 467.151,-529.668 463.504,-535.643"/>
<text text-anchor="middle" x="345.5" y="-531.815" font-family="Times New Roman,serif" font-size="14.00"> &#160;&#160;&lt;a0.s69,click(&quot;index=1&quot;),a1.s2&gt; &#160;&#160;</text>
</g>
<!-- final -->
<g id="node4" class="node"><title>final</title>
<image xlink:href="-2.png" width="50px" height="50px" preserveAspectRatio="xMinYMin meet" x="514" y="-138.015"/>
</g>
<!-- activity_0&#45;&gt;final -->
<g id="edge3" class="edge"><title>activity_0&#45;&gt;final</title>
<path fill="none" stroke="black" d="M171.77,-374.278C185.194,-297.66 206.039,-212.849 235,-188.015 272.449,-155.902 409.468,-183.399 456,-167.015 473.741,-160.768 491.423,-149.874 505.801,-139.499"/>
<polygon fill="black" stroke="black" points="507.935,-142.274 513.859,-133.49 503.751,-136.662 507.935,-142.274"/>
<text text-anchor="middle" x="345.5" y="-191.815" font-family="Times New Roman,serif" font-size="14.00"> &#160;&#160;&lt;a0.s0,press(&quot;BackKey&quot;),final&gt; &#160;&#160;</text>
</g>
<!-- activity_0&#45;&gt;final -->
<g id="edge15" class="edge"><title>activity_0&#45;&gt;final</title>
<path fill="none" stroke="black" d="M167.141,-374.38C179.438,-284.275 200.774,-177.882 235,-148.015 253.57,-131.81 431.592,-132.435 456,-129.015 471.72,-126.812 488.985,-123.568 503.601,-120.577"/>
<polygon fill="black" stroke="black" points="504.644,-123.934 513.716,-118.461 503.211,-117.083 504.644,-123.934"/>
<text text-anchor="middle" x="345.5" y="-151.815" font-family="Times New Roman,serif" font-size="14.00"> &#160;&#160;&lt;a0.s32,press(&quot;BackKey&quot;),final&gt; &#160;&#160;</text>
</g>
<!-- activity_0&#45;&gt;final -->
<g id="edge19" class="edge"><title>activity_0&#45;&gt;final</title>
<path fill="none" stroke="black" d="M162.777,-374.497C173.288,-271.633 194.312,-143.241 235,-110.015 275.114,-77.2576 432.758,-96.6629 503.416,-107.37"/>
<polygon fill="black" stroke="black" points="503.165,-110.873 513.582,-108.942 504.235,-103.955 503.165,-110.873"/>
<text text-anchor="middle" x="345.5" y="-113.815" font-family="Times New Roman,serif" font-size="14.00"> &#160;&#160;&lt;a0.s72,press(&quot;BackKey&quot;),final&gt; &#160;&#160;</text>
</g>
<!-- activity_0&#45;&gt;final -->
<g id="edge23" class="edge"><title>activity_0&#45;&gt;final</title>
<path fill="none" stroke="black" d="M159.982,-374.407C168.993,-260.316 189.371,-110.91 235,-73.0148 272.781,-41.6377 408.148,-61.9658 456,-73.0148 472.965,-76.932 490.479,-84.86 504.943,-92.6323"/>
<polygon fill="black" stroke="black" points="503.534,-95.854 513.971,-97.6735 506.947,-89.7422 503.534,-95.854"/>
<text text-anchor="middle" x="345.5" y="-76.8148" font-family="Times New Roman,serif" font-size="14.00"> &#160;&#160;&lt;a0.s62,press(&quot;BackKey&quot;),final&gt; &#160;&#160;</text>
</g>
<!-- activity_0&#45;&gt;final -->
<g id="edge27" class="edge"><title>activity_0&#45;&gt;final</title>
<path fill="none" stroke="black" d="M157.732,-374.307C165.245,-250.024 184.688,-80.3706 235,-38.0148 310.14,25.2427 364.44,-2.45761 456,-38.0148 478.101,-46.5976 497.879,-64.2232 512.472,-80.232"/>
<polygon fill="black" stroke="black" points="509.982,-82.7017 519.206,-87.9142 515.246,-78.0873 509.982,-82.7017"/>
<text text-anchor="middle" x="345.5" y="-41.8148" font-family="Times New Roman,serif" font-size="14.00"> &#160;&#160;&lt;a0.s69,press(&quot;BackKey&quot;),final&gt; &#160;&#160;</text>
</g>
<!-- activity_1&#45;&gt;activity_0 -->
<g id="edge4" class="edge"><title>activity_1&#45;&gt;activity_0</title>
<path fill="none" stroke="black" d="M473.976,-505.799C468.361,-501.263 462.37,-497.263 456,-494.015 368.496,-449.398 332.649,-483.423 235,-494.015 232.464,-494.29 229.892,-494.611 227.3,-494.972"/>
<polygon fill="black" stroke="black" points="226.583,-491.541 217.241,-496.539 227.66,-498.458 226.583,-491.541"/>
<text text-anchor="middle" x="345.5" y="-497.815" font-family="Times New Roman,serif" font-size="14.00"> &#160;&#160;&lt;a1.s2,press(&quot;BackKey&quot;),a0.s62&gt; &#160;&#160;</text>
</g>
<!-- activity_1&#45;&gt;activity_0 -->
<g id="edge5" class="edge"><title>activity_1&#45;&gt;activity_0</title>
<path fill="none" stroke="black" d="M477.729,-469.242C471.177,-462.655 463.954,-456.805 456,-452.015 413.93,-426.677 281.682,-436.76 235,-452.015 232.076,-452.97 229.17,-454.074 226.293,-455.301"/>
<polygon fill="black" stroke="black" points="224.749,-452.16 217.217,-459.611 227.752,-458.483 224.749,-452.16"/>
<text text-anchor="middle" x="345.5" y="-455.815" font-family="Times New Roman,serif" font-size="14.00"> &#160;&#160;&lt;a1.s19,press(&quot;BackKey&quot;),a0.s32&gt; &#160;&#160;</text>
</g>
<!-- activity_1&#45;&gt;activity_0 -->
<g id="edge6" class="edge"><title>activity_1&#45;&gt;activity_0</title>
<path fill="none" stroke="black" d="M502.021,-469.443C490.631,-448.695 475.662,-429.944 456,-417.015 414.966,-390.032 279.653,-396.571 235,-417.015 231.782,-418.488 228.643,-420.157 225.585,-421.99"/>
<polygon fill="black" stroke="black" points="223.579,-419.12 217.184,-427.567 227.451,-424.952 223.579,-419.12"/>
<text text-anchor="middle" x="345.5" y="-420.815" font-family="Times New Roman,serif" font-size="14.00"> &#160;&#160;&lt;a1.s24,press(&quot;BackKey&quot;),a0.s32&gt; &#160;&#160;</text>
</g>
<!-- activity_1&#45;&gt;activity_0 -->
<g id="edge7" class="edge"><title>activity_1&#45;&gt;activity_0</title>
<path fill="none" stroke="black" d="M517.399,-469.416C505.3,-434.645 486.18,-401.201 456,-380.015 415.805,-351.797 277.922,-356.149 235,-380.015 231.618,-381.895 228.357,-383.98 225.215,-386.239"/>
<polygon fill="black" stroke="black" points="222.84,-383.655 217.173,-392.608 227.186,-389.143 222.84,-383.655"/>
<text text-anchor="middle" x="345.5" y="-383.815" font-family="Times New Roman,serif" font-size="14.00"> &#160;&#160;&lt;a1.s33,click(&quot;大约&quot;),a0.s7&gt; &#160;&#160;</text>
</g>
<!-- activity_1&#45;&gt;activity_0 -->
<g id="edge8" class="edge"><title>activity_1&#45;&gt;activity_0</title>
<path fill="none" stroke="black" d="M511.212,-469.206C497.256,-413.112 478.404,-357.553 456,-341.015 416.488,-311.848 276.562,-314.852 235,-341.015 224.227,-347.796 214.838,-356.43 206.66,-366.202"/>
<polygon fill="black" stroke="black" points="203.756,-364.234 200.357,-374.269 209.272,-368.543 203.756,-364.234"/>
<text text-anchor="middle" x="345.5" y="-344.815" font-family="Times New Roman,serif" font-size="14.00"> &#160;&#160;&lt;a1.s33,click(&quot;保存&quot;),a0.s72&gt; &#160;&#160;</text>
</g>
<!-- activity_1&#45;&gt;activity_0 -->
<g id="edge9" class="edge"><title>activity_1&#45;&gt;activity_0</title>
<path fill="none" stroke="black" d="M517.786,-469.252C504.266,-398.346 483.817,-322.359 456,-301.015 436.519,-286.067 255.266,-287.148 235,-301.015 212.107,-316.679 195.604,-339.745 183.708,-364.941"/>
<polygon fill="black" stroke="black" points="180.406,-363.752 179.531,-374.31 186.8,-366.602 180.406,-363.752"/>
<text text-anchor="middle" x="345.5" y="-304.815" font-family="Times New Roman,serif" font-size="14.00"> &#160;&#160;&lt;a1.s33,click(&quot;删除&quot;),a0.s72&gt; &#160;&#160;</text>
</g>
<!-- activity_1&#45;&gt;activity_0 -->
<g id="edge10" class="edge"><title>activity_1&#45;&gt;activity_0</title>
<path fill="none" stroke="black" d="M521.653,-469.107C508.859,-387.776 487.817,-296.001 456,-271.015 417.375,-240.683 274.93,-242.423 235,-271.015 203.828,-293.335 184.366,-328.202 172.258,-364.549"/>
<polygon fill="black" stroke="black" points="168.846,-363.731 169.185,-374.32 175.524,-365.831 168.846,-363.731"/>
<text text-anchor="middle" x="345.5" y="-274.815" font-family="Times New Roman,serif" font-size="14.00"> &#160;&#160;&lt;a1.s43,press(&quot;BackKey&quot;),a0.s69&gt; &#160;&#160;</text>
</g>
<!-- activity_1&#45;&gt;activity_0 -->
<g id="edge11" class="edge"><title>activity_1&#45;&gt;activity_0</title>
<path fill="none" stroke="black" d="M526.081,-469.2C514.657,-373.967 493.442,-259.205 456,-229.015 417.769,-198.188 274.263,-199.513 235,-229.015 211.563,-246.625 192.675,-305.197 178.961,-364.521"/>
<polygon fill="black" stroke="black" points="175.512,-363.902 176.719,-374.428 182.34,-365.448 175.512,-363.902"/>
<text text-anchor="middle" x="345.5" y="-232.815" font-family="Times New Roman,serif" font-size="14.00"> &#160;&#160;&lt;a1.s46,press(&quot;BackKey&quot;),a0.s32&gt; &#160;&#160;</text>
</g>
</g>
</svg>
