<?xml version="1.0" encoding="UTF-8" standalone="no"?>
<!DOCTYPE svg PUBLIC "-//W3C//DTD SVG 1.1//EN"
 "http://www.w3.org/Graphics/SVG/1.1/DTD/svg11.dtd">
<!-- Generated by graphviz version 2.38.0 (20140413.2041)
 -->
<!-- Title: activity_1 Pages: 1 -->
<svg width="2737pt" height="2090pt"
 viewBox="0.00 0.00 2737.00 2090.00" xmlns="http://www.w3.org/2000/svg" xmlns:xlink="http://www.w3.org/1999/xlink">
<g id="graph0" class="graph" transform="scale(1 1) rotate(0) translate(4 2086)">
<title>activity_1</title>
<polygon fill="white" stroke="none" points="-4,4 -4,-2086 2733,-2086 2733,4 -4,4"/>
<!-- state_2 -->
<g id="node1" class="node"><title>state_2</title>
<g id="a_node1"><a xlink:href="2.png" xlink:title="&lt;TABLE&gt;">
<polygon fill="none" stroke="black" points="1908,-2082 1778,-2082 1778,-1792 1908,-1792 1908,-2082"/>
<text text-anchor="start" x="1823" y="-2070.8" font-family="Times New Roman,serif" font-size="14.00">state_2</text>
<text text-anchor="start" x="1809" y="-2055.8" font-family="Times New Roman,serif" font-size="14.00">incoming:13</text>
<text text-anchor="start" x="1810" y="-2040.8" font-family="Times New Roman,serif" font-size="14.00">outgoing:10</text>
<text text-anchor="start" x="1825" y="-2025.8" font-family="Times New Roman,serif" font-size="14.00">loop:6</text>
<image xlink:href="2.png" width="130px" height="230px" preserveAspectRatio="xMinYMin meet" x="1778" y="-2022"/>
</a>
</g>
</g>
<!-- state_2&#45;&gt;state_2 -->
<g id="edge1" class="edge"><title>state_2&#45;&gt;state_2</title>
<path fill="none" stroke="black" d="M1908.07,-1941.92C1918.7,-1941.21 1926,-1939.57 1926,-1937 1926,-1935.35 1923,-1934.09 1918.06,-1933.21"/>
<polygon fill="black" stroke="black" points="1918.4,-1929.72 1908.07,-1932.08 1917.62,-1936.68 1918.4,-1929.72"/>
<text text-anchor="middle" x="1980.5" y="-1933.3" font-family="Times New Roman,serif" font-size="14.00"> &#160;&#160;click(&quot;无标题&quot;) &#160;&#160;</text>
</g>
<!-- state_2&#45;&gt;state_2 -->
<g id="edge2" class="edge"><title>state_2&#45;&gt;state_2</title>
<path fill="none" stroke="black" d="M1908.41,-1946.48C1965.18,-1949.57 2035,-1946.41 2035,-1937 2035,-1928.14 1973.12,-1924.82 1918.5,-1927.04"/>
<polygon fill="black" stroke="black" points="1918.23,-1923.55 1908.41,-1927.52 1918.56,-1930.54 1918.23,-1923.55"/>
<text text-anchor="middle" x="2106" y="-1933.3" font-family="Times New Roman,serif" font-size="14.00"> &#160;&#160;longClick(&quot;index=1&quot;) &#160;&#160;</text>
</g>
<!-- state_2&#45;&gt;state_2 -->
<g id="edge4" class="edge"><title>state_2&#45;&gt;state_2</title>
<path fill="none" stroke="black" d="M1908.07,-1948.64C2007.1,-1957.02 2177,-1953.15 2177,-1937 2177,-1921.39 2018.19,-1917.25 1918.16,-1924.57"/>
<polygon fill="black" stroke="black" points="1917.76,-1921.09 1908.07,-1925.36 1918.31,-1928.07 1917.76,-1921.09"/>
<text text-anchor="middle" x="2234.5" y="-1933.3" font-family="Times New Roman,serif" font-size="14.00"> &#160;&#160;click(&quot;index=1&quot;) &#160;&#160;</text>
</g>
<!-- state_2&#45;&gt;state_2 -->
<g id="edge5" class="edge"><title>state_2&#45;&gt;state_2</title>
<path fill="none" stroke="black" d="M1908.26,-1950.71C2035.25,-1964.18 2292,-1959.61 2292,-1937 2292,-1914.99 2048.61,-1910.08 1918.56,-1922.26"/>
<polygon fill="black" stroke="black" points="1917.86,-1918.82 1908.26,-1923.29 1918.55,-1925.78 1917.86,-1918.82"/>
<text text-anchor="middle" x="2363" y="-1933.3" font-family="Times New Roman,serif" font-size="14.00"> &#160;&#160;longClick(&quot;index=1&quot;) &#160;&#160;</text>
</g>
<!-- state_2&#45;&gt;state_2 -->
<g id="edge7" class="edge"><title>state_2&#45;&gt;state_2</title>
<path fill="none" stroke="black" d="M1908.2,-1952.19C2065,-1971.36 2434,-1966.29 2434,-1937 2434,-1908.33 2080.69,-1902.87 1918.59,-1920.61"/>
<polygon fill="black" stroke="black" points="1917.73,-1917.18 1908.2,-1921.81 1918.54,-1924.14 1917.73,-1917.18"/>
<text text-anchor="middle" x="2487" y="-1933.3" font-family="Times New Roman,serif" font-size="14.00"> &#160;&#160;swipe(&quot;Right&quot;) &#160;&#160;</text>
</g>
<!-- state_2&#45;&gt;state_2 -->
<g id="edge8" class="edge"><title>state_2&#45;&gt;state_2</title>
<path fill="none" stroke="black" d="M1908.28,-1953.85C2085.38,-1978.46 2540,-1972.84 2540,-1937 2540,-1901.83 2102.09,-1895.76 1918.42,-1918.81"/>
<polygon fill="black" stroke="black" points="1917.74,-1915.37 1908.28,-1920.15 1918.66,-1922.31 1917.74,-1915.37"/>
<text text-anchor="middle" x="2589.5" y="-1933.3" font-family="Times New Roman,serif" font-size="14.00"> &#160;&#160;swipe(&quot;Left&quot;) &#160;&#160;</text>
</g>
<!-- state_19 -->
<g id="node2" class="node"><title>state_19</title>
<g id="a_node2"><a xlink:href="19.png" xlink:title="&lt;TABLE&gt;">
<polygon fill="none" stroke="black" points="371,-1741 241,-1741 241,-1451 371,-1451 371,-1741"/>
<text text-anchor="start" x="282.5" y="-1729.8" font-family="Times New Roman,serif" font-size="14.00">state_19</text>
<text text-anchor="start" x="275.5" y="-1714.8" font-family="Times New Roman,serif" font-size="14.00">incoming:7</text>
<text text-anchor="start" x="276.5" y="-1699.8" font-family="Times New Roman,serif" font-size="14.00">outgoing:9</text>
<text text-anchor="start" x="288" y="-1684.8" font-family="Times New Roman,serif" font-size="14.00">loop:6</text>
<image xlink:href="19.png" width="130px" height="230px" preserveAspectRatio="xMinYMin meet" x="241" y="-1681"/>
</a>
</g>
</g>
<!-- state_2&#45;&gt;state_19 -->
<g id="edge3" class="edge"><title>state_2&#45;&gt;state_19</title>
<path fill="none" stroke="black" d="M1777.94,-1921.65C1530.01,-1866.97 645.089,-1671.79 380.956,-1613.53"/>
<polygon fill="black" stroke="black" points="381.597,-1610.09 371.077,-1611.35 380.089,-1616.93 381.597,-1610.09"/>
<text text-anchor="middle" x="1147" y="-1762.8" font-family="Times New Roman,serif" font-size="14.00"> &#160;&#160;&quot;index=1&quot;.input(&quot;ab&quot;) &#160;&#160;</text>
</g>
<!-- state_33 -->
<g id="node4" class="node"><title>state_33</title>
<g id="a_node4"><a xlink:href="33.png" xlink:title="&lt;TABLE&gt;">
<polygon fill="none" stroke="black" points="584,-1059 454,-1059 454,-769 584,-769 584,-1059"/>
<text text-anchor="start" x="495.5" y="-1047.8" font-family="Times New Roman,serif" font-size="14.00">state_33</text>
<text text-anchor="start" x="488.5" y="-1032.8" font-family="Times New Roman,serif" font-size="14.00">incoming:7</text>
<text text-anchor="start" x="489.5" y="-1017.8" font-family="Times New Roman,serif" font-size="14.00">outgoing:7</text>
<text text-anchor="start" x="501" y="-1002.8" font-family="Times New Roman,serif" font-size="14.00">loop:2</text>
<image xlink:href="33.png" width="130px" height="230px" preserveAspectRatio="xMinYMin meet" x="454" y="-999"/>
</a>
</g>
</g>
<!-- state_2&#45;&gt;state_33 -->
<g id="edge9" class="edge"><title>state_2&#45;&gt;state_33</title>
<path fill="none" stroke="black" d="M1777.85,-1903.87C1726.98,-1875.84 1657.8,-1830.78 1614,-1774 1515.12,-1645.83 1519.82,-1591.31 1486,-1433 1470.98,-1362.67 1516.39,-1161.31 1466,-1110 1416.33,-1059.42 898.568,-1077.01 830,-1059 744.844,-1036.64 654.225,-992.014 592.909,-958.338"/>
<polygon fill="black" stroke="black" points="594.524,-955.231 584.079,-953.453 591.135,-961.356 594.524,-955.231"/>
<text text-anchor="middle" x="1550" y="-1421.8" font-family="Times New Roman,serif" font-size="14.00"> &#160;&#160;press(&quot;MenuKey&quot;) &#160;&#160;</text>
</g>
<!-- state_43 -->
<g id="node5" class="node"><title>state_43</title>
<g id="a_node5"><a xlink:href="43.png" xlink:title="&lt;TABLE&gt;">
<polygon fill="none" stroke="black" points="559,-631 429,-631 429,-341 559,-341 559,-631"/>
<text text-anchor="start" x="470.5" y="-619.8" font-family="Times New Roman,serif" font-size="14.00">state_43</text>
<text text-anchor="start" x="460" y="-604.8" font-family="Times New Roman,serif" font-size="14.00">incoming:10</text>
<text text-anchor="start" x="461" y="-589.8" font-family="Times New Roman,serif" font-size="14.00">outgoing:10</text>
<text text-anchor="start" x="476" y="-574.8" font-family="Times New Roman,serif" font-size="14.00">loop:7</text>
<image xlink:href="43.png" width="130px" height="230px" preserveAspectRatio="xMinYMin meet" x="429" y="-571"/>
</a>
</g>
</g>
<!-- state_2&#45;&gt;state_43 -->
<g id="edge6" class="edge"><title>state_2&#45;&gt;state_43</title>
<path fill="none" stroke="black" d="M1777.81,-1931.88C1514.03,-1914.63 525.865,-1844.28 232,-1741 117.507,-1700.76 0,-1718.36 0,-1597 0,-1597 0,-1597 0,-699 0,-518.95 280.551,-489.874 418.805,-486.476"/>
<polygon fill="black" stroke="black" points="418.985,-489.974 428.91,-486.268 418.84,-482.975 418.985,-489.974"/>
<text text-anchor="middle" x="73.5" y="-1080.8" font-family="Times New Roman,serif" font-size="14.00"> &#160;&#160;&quot;index=1&quot;.input(&quot;cd&quot;) &#160;&#160;</text>
</g>
<!-- activity_0 -->
<g id="node7" class="node"><title>activity_0</title>
<ellipse fill="none" stroke="red" cx="1314" cy="-700" rx="46.2923" ry="18"/>
<text text-anchor="middle" x="1314" y="-696.3" font-family="Times New Roman,serif" font-size="14.00" fill="red">activity_0</text>
</g>
<!-- state_2&#45;&gt;activity_0 -->
<g id="edge10" class="edge"><title>state_2&#45;&gt;activity_0</title>
<path fill="none" stroke="red" d="M1777.68,-1888.39C1742.62,-1859.3 1701.82,-1819.07 1678,-1774 1602.88,-1631.87 1723.2,-1535.98 1614,-1418 1592.47,-1394.74 1564.38,-1425.08 1545,-1400 1466.2,-1298.01 1500.77,-1231.06 1545,-1110 1555.17,-1082.15 1577.83,-1086.85 1588,-1059 1632.23,-937.936 1667.41,-870.523 1588,-769 1561.27,-734.825 1440.46,-715.397 1368.49,-706.663"/>
<polygon fill="red" stroke="red" points="1368.58,-703.15 1358.24,-705.451 1367.76,-710.101 1368.58,-703.15"/>
<text text-anchor="middle" x="1607.5" y="-1251.3" font-family="Times New Roman,serif" font-size="14.00" fill="red"> &#160;&#160;press(&quot;BackKey&quot;) &#160;&#160;</text>
</g>
<!-- state_19&#45;&gt;state_19 -->
<g id="edge11" class="edge"><title>state_19&#45;&gt;state_19</title>
<path fill="none" stroke="black" d="M371.072,-1600.92C381.697,-1600.21 389,-1598.57 389,-1596 389,-1594.35 386.003,-1593.09 381.055,-1592.21"/>
<polygon fill="black" stroke="black" points="381.4,-1588.72 371.072,-1591.08 380.619,-1595.68 381.4,-1588.72"/>
<text text-anchor="middle" x="431" y="-1592.3" font-family="Times New Roman,serif" font-size="14.00"> &#160;&#160;click(&quot;ab&quot;) &#160;&#160;</text>
</g>
<!-- state_19&#45;&gt;state_19 -->
<g id="edge12" class="edge"><title>state_19&#45;&gt;state_19</title>
<path fill="none" stroke="black" d="M371.422,-1605.85C419.276,-1608.28 473,-1604.99 473,-1596 473,-1587.64 426.566,-1584.21 381.583,-1585.72"/>
<polygon fill="black" stroke="black" points="381.267,-1582.23 371.422,-1586.15 381.56,-1589.22 381.267,-1582.23"/>
<text text-anchor="middle" x="544" y="-1592.3" font-family="Times New Roman,serif" font-size="14.00"> &#160;&#160;longClick(&quot;index=1&quot;) &#160;&#160;</text>
</g>
<!-- state_19&#45;&gt;state_19 -->
<g id="edge13" class="edge"><title>state_19&#45;&gt;state_19</title>
<path fill="none" stroke="black" d="M371.016,-1607.95C463.5,-1615.92 615,-1611.94 615,-1596 615,-1580.64 474.25,-1576.38 381.262,-1583.23"/>
<polygon fill="black" stroke="black" points="380.706,-1579.76 371.016,-1584.05 381.262,-1586.74 380.706,-1579.76"/>
<text text-anchor="middle" x="672.5" y="-1592.3" font-family="Times New Roman,serif" font-size="14.00"> &#160;&#160;click(&quot;index=1&quot;) &#160;&#160;</text>
</g>
<!-- state_19&#45;&gt;state_19 -->
<g id="edge14" class="edge"><title>state_19&#45;&gt;state_19</title>
<path fill="none" stroke="black" d="M371.279,-1610C492.69,-1623.11 730,-1618.44 730,-1596 730,-1574.17 505.49,-1569.16 381.491,-1580.96"/>
<polygon fill="black" stroke="black" points="380.875,-1577.51 371.279,-1582 381.581,-1584.47 380.875,-1577.51"/>
<text text-anchor="middle" x="801" y="-1592.3" font-family="Times New Roman,serif" font-size="14.00"> &#160;&#160;longClick(&quot;index=1&quot;) &#160;&#160;</text>
</g>
<!-- state_19&#45;&gt;state_19 -->
<g id="edge16" class="edge"><title>state_19&#45;&gt;state_19</title>
<path fill="none" stroke="black" d="M371.097,-1611.43C523.008,-1630.32 872,-1625.17 872,-1596 872,-1567.45 537.843,-1561.92 381.156,-1579.39"/>
<polygon fill="black" stroke="black" points="380.62,-1575.93 371.097,-1580.57 381.438,-1582.88 380.62,-1575.93"/>
<text text-anchor="middle" x="925" y="-1592.3" font-family="Times New Roman,serif" font-size="14.00"> &#160;&#160;swipe(&quot;Right&quot;) &#160;&#160;</text>
</g>
<!-- state_19&#45;&gt;state_19 -->
<g id="edge17" class="edge"><title>state_19&#45;&gt;state_19</title>
<path fill="none" stroke="black" d="M371.13,-1613.06C543.679,-1637.42 978,-1631.73 978,-1596 978,-1560.95 560.063,-1554.8 381.267,-1577.58"/>
<polygon fill="black" stroke="black" points="380.576,-1574.14 371.13,-1578.94 381.506,-1581.08 380.576,-1574.14"/>
<text text-anchor="middle" x="1027.5" y="-1592.3" font-family="Times New Roman,serif" font-size="14.00"> &#160;&#160;swipe(&quot;Left&quot;) &#160;&#160;</text>
</g>
<!-- state_24 -->
<g id="node3" class="node"><title>state_24</title>
<g id="a_node3"><a xlink:href="24.png" xlink:title="&lt;TABLE&gt;">
<polygon fill="none" stroke="black" points="521,-1400 391,-1400 391,-1110 521,-1110 521,-1400"/>
<text text-anchor="start" x="432.5" y="-1388.8" font-family="Times New Roman,serif" font-size="14.00">state_24</text>
<text text-anchor="start" x="422" y="-1373.8" font-family="Times New Roman,serif" font-size="14.00">incoming:15</text>
<text text-anchor="start" x="426.5" y="-1358.8" font-family="Times New Roman,serif" font-size="14.00">outgoing:9</text>
<text text-anchor="start" x="438" y="-1343.8" font-family="Times New Roman,serif" font-size="14.00">loop:7</text>
<image xlink:href="24.png" width="130px" height="230px" preserveAspectRatio="xMinYMin meet" x="391" y="-1340"/>
</a>
</g>
</g>
<!-- state_19&#45;&gt;state_24 -->
<g id="edge15" class="edge"><title>state_19&#45;&gt;state_24</title>
<path fill="none" stroke="black" d="M369.831,-1450.74C375.856,-1437.12 381.98,-1423.29 388.042,-1409.59"/>
<polygon fill="black" stroke="black" points="391.381,-1410.69 392.226,-1400.13 384.979,-1407.86 391.381,-1410.69"/>
<text text-anchor="middle" x="454.5" y="-1421.8" font-family="Times New Roman,serif" font-size="14.00"> &#160;&#160;&quot;index=1&quot;.input(&quot;cd&quot;) &#160;&#160;</text>
</g>
<!-- state_19&#45;&gt;state_33 -->
<g id="edge18" class="edge"><title>state_19&#45;&gt;state_33</title>
<path fill="none" stroke="black" d="M244.51,-1450.76C210.88,-1347.66 188.036,-1210.04 254,-1110 265.18,-1093.05 278.559,-1102.4 296,-1092 349.348,-1060.17 404.062,-1016.94 445.942,-981.165"/>
<polygon fill="black" stroke="black" points="448.306,-983.748 453.61,-974.576 443.744,-978.439 448.306,-983.748"/>
<text text-anchor="middle" x="318" y="-1251.3" font-family="Times New Roman,serif" font-size="14.00"> &#160;&#160;press(&quot;MenuKey&quot;) &#160;&#160;</text>
</g>
<!-- state_19&#45;&gt;activity_0 -->
<g id="edge19" class="edge"><title>state_19&#45;&gt;activity_0</title>
<path fill="none" stroke="red" d="M240.824,-1492.24C182.256,-1386.25 113.109,-1217.14 167,-1077 233.188,-904.885 292,-871.934 445,-769 480.695,-744.985 493.806,-744.396 536,-736 674.135,-708.513 1102.71,-702.584 1257.5,-701.33"/>
<polygon fill="red" stroke="red" points="1257.76,-704.828 1267.73,-701.25 1257.71,-697.828 1257.76,-704.828"/>
<text text-anchor="middle" x="229.5" y="-1080.8" font-family="Times New Roman,serif" font-size="14.00" fill="red"> &#160;&#160;press(&quot;BackKey&quot;) &#160;&#160;</text>
</g>
<!-- state_24&#45;&gt;state_24 -->
<g id="edge20" class="edge"><title>state_24&#45;&gt;state_24</title>
<path fill="none" stroke="black" d="M521.072,-1259.21C531.697,-1258.61 539,-1257.21 539,-1255 539,-1253.59 536.003,-1252.5 531.055,-1251.75"/>
<polygon fill="black" stroke="black" points="531.361,-1248.26 521.072,-1250.79 530.69,-1255.23 531.361,-1248.26"/>
<text text-anchor="middle" x="581" y="-1251.3" font-family="Times New Roman,serif" font-size="14.00"> &#160;&#160;click(&quot;ab&quot;) &#160;&#160;</text>
</g>
<!-- state_24&#45;&gt;state_24 -->
<g id="edge21" class="edge"><title>state_24&#45;&gt;state_24</title>
<path fill="none" stroke="black" d="M521.422,-1263.45C569.276,-1265.52 623,-1262.71 623,-1255 623,-1247.83 576.566,-1244.9 531.583,-1246.19"/>
<polygon fill="black" stroke="black" points="531.29,-1242.7 521.422,-1246.55 531.542,-1249.69 531.29,-1242.7"/>
<text text-anchor="middle" x="694" y="-1251.3" font-family="Times New Roman,serif" font-size="14.00"> &#160;&#160;longClick(&quot;index=1&quot;) &#160;&#160;</text>
</g>
<!-- state_24&#45;&gt;state_24 -->
<g id="edge22" class="edge"><title>state_24&#45;&gt;state_24</title>
<path fill="none" stroke="black" d="M521.016,-1265.25C613.5,-1272.08 765,-1268.66 765,-1255 765,-1241.83 624.25,-1238.18 531.262,-1244.05"/>
<polygon fill="black" stroke="black" points="530.754,-1240.58 521.016,-1244.75 531.231,-1247.56 530.754,-1240.58"/>
<text text-anchor="middle" x="810" y="-1251.3" font-family="Times New Roman,serif" font-size="14.00"> &#160;&#160;click(&quot;CD&quot;) &#160;&#160;</text>
</g>
<!-- state_24&#45;&gt;state_24 -->
<g id="edge23" class="edge"><title>state_24&#45;&gt;state_24</title>
<path fill="none" stroke="black" d="M521.051,-1267.25C636.638,-1278.17 855,-1274.09 855,-1255 855,-1236.45 648.831,-1232.07 531.111,-1241.86"/>
<polygon fill="black" stroke="black" points="530.703,-1238.38 521.051,-1242.75 531.321,-1245.35 530.703,-1238.38"/>
<text text-anchor="middle" x="926" y="-1251.3" font-family="Times New Roman,serif" font-size="14.00"> &#160;&#160;longClick(&quot;index=1&quot;) &#160;&#160;</text>
</g>
<!-- state_24&#45;&gt;state_24 -->
<g id="edge24" class="edge"><title>state_24&#45;&gt;state_24</title>
<path fill="none" stroke="black" d="M521.129,-1268.45C668.113,-1284.37 997,-1279.89 997,-1255 997,-1230.67 682.722,-1225.84 531.303,-1240.51"/>
<polygon fill="black" stroke="black" points="530.721,-1237.05 521.129,-1241.55 531.434,-1244.01 530.721,-1237.05"/>
<text text-anchor="middle" x="1070.5" y="-1251.3" font-family="Times New Roman,serif" font-size="14.00"> &#160;&#160;&quot;index=1&quot;.input(&quot;cd&quot;) &#160;&#160;</text>
</g>
<!-- state_24&#45;&gt;state_24 -->
<g id="edge25" class="edge"><title>state_24&#45;&gt;state_24</title>
<path fill="none" stroke="black" d="M521.299,-1269.52C696.814,-1290.52 1144,-1285.68 1144,-1255 1144,-1224.89 713.254,-1219.67 531.345,-1239.34"/>
<polygon fill="black" stroke="black" points="530.839,-1235.87 521.299,-1240.48 531.63,-1242.83 530.839,-1235.87"/>
<text text-anchor="middle" x="1197" y="-1251.3" font-family="Times New Roman,serif" font-size="14.00"> &#160;&#160;swipe(&quot;Right&quot;) &#160;&#160;</text>
</g>
<!-- state_24&#45;&gt;state_24 -->
<g id="edge26" class="edge"><title>state_24&#45;&gt;state_24</title>
<path fill="none" stroke="black" d="M521.166,-1270.76C715.523,-1296.61 1250,-1291.36 1250,-1255 1250,-1219.25 733.122,-1213.57 531.123,-1237.97"/>
<polygon fill="black" stroke="black" points="530.647,-1234.51 521.166,-1239.24 531.527,-1241.45 530.647,-1234.51"/>
<text text-anchor="middle" x="1299.5" y="-1251.3" font-family="Times New Roman,serif" font-size="14.00"> &#160;&#160;swipe(&quot;Left&quot;) &#160;&#160;</text>
</g>
<!-- state_24&#45;&gt;state_33 -->
<g id="edge27" class="edge"><title>state_24&#45;&gt;state_33</title>
<path fill="none" stroke="black" d="M493.465,-1109.79C494.716,-1103.79 495.901,-1097.85 497,-1092 498.408,-1084.51 499.748,-1076.83 501.021,-1069.05"/>
<polygon fill="black" stroke="black" points="504.479,-1069.59 502.597,-1059.16 497.566,-1068.49 504.479,-1069.59"/>
<text text-anchor="middle" x="563" y="-1080.8" font-family="Times New Roman,serif" font-size="14.00"> &#160;&#160;press(&quot;MenuKey&quot;) &#160;&#160;</text>
</g>
<!-- state_24&#45;&gt;activity_0 -->
<g id="edge28" class="edge"><title>state_24&#45;&gt;activity_0</title>
<path fill="none" stroke="red" d="M521.268,-1251.87C722.157,-1243.75 1324.2,-1207.24 1433,-1059 1471.13,-1007.05 1465.35,-824.739 1433,-769 1417.36,-742.056 1386.6,-724.886 1360.27,-714.54"/>
<polygon fill="red" stroke="red" points="1361.39,-711.226 1350.8,-711.032 1358.96,-717.789 1361.39,-711.226"/>
<text text-anchor="middle" x="1521.5" y="-910.3" font-family="Times New Roman,serif" font-size="14.00" fill="red"> &#160;&#160;press(&quot;BackKey&quot;) &#160;&#160;</text>
</g>
<!-- state_33&#45;&gt;state_24 -->
<g id="edge32" class="edge"><title>state_33&#45;&gt;state_24</title>
<path fill="none" stroke="black" d="M584.36,-966.859C618.911,-1000.95 650.512,-1047.35 631,-1092 610.193,-1139.61 567.725,-1179.48 529.837,-1207.75"/>
<polygon fill="black" stroke="black" points="527.341,-1205.24 521.33,-1213.96 531.47,-1210.89 527.341,-1205.24"/>
<text text-anchor="middle" x="696.5" y="-1080.8" font-family="Times New Roman,serif" font-size="14.00"> &#160;&#160;press(&quot;BackKey&quot;) &#160;&#160;</text>
</g>
<!-- state_33&#45;&gt;state_24 -->
<g id="edge33" class="edge"><title>state_33&#45;&gt;state_24</title>
<path fill="none" stroke="black" d="M453.828,-963.116C420.43,-991.958 383.066,-1031.77 365,-1077 359.211,-1091.49 368.911,-1096.65 377,-1110 379.864,-1114.72 382.746,-1119.56 385.629,-1124.46"/>
<polygon fill="black" stroke="black" points="382.749,-1126.47 390.813,-1133.34 388.795,-1122.94 382.749,-1126.47"/>
<text text-anchor="middle" x="429" y="-1080.8" font-family="Times New Roman,serif" font-size="14.00"> &#160;&#160;press(&quot;MenuKey&quot;) &#160;&#160;</text>
</g>
<!-- state_33&#45;&gt;state_33 -->
<g id="edge30" class="edge"><title>state_33&#45;&gt;state_33</title>
<path fill="none" stroke="black" d="M584.072,-928.746C594.697,-926.635 602,-921.72 602,-914 602,-908.934 598.855,-905.076 593.69,-902.425"/>
<polygon fill="black" stroke="black" points="594.665,-899.061 584.072,-899.254 592.473,-905.709 594.665,-899.061"/>
<text text-anchor="middle" x="655" y="-910.3" font-family="Times New Roman,serif" font-size="14.00"> &#160;&#160;swipe(&quot;Right&quot;) &#160;&#160;</text>
</g>
<!-- state_33&#45;&gt;state_33 -->
<g id="edge31" class="edge"><title>state_33&#45;&gt;state_33</title>
<path fill="none" stroke="black" d="M584.113,-942.524C639.904,-951.648 708,-942.14 708,-914 708,-887.509 647.65,-877.53 594.031,-884.064"/>
<polygon fill="black" stroke="black" points="593.52,-880.601 584.113,-885.476 594.507,-887.531 593.52,-880.601"/>
<text text-anchor="middle" x="757.5" y="-910.3" font-family="Times New Roman,serif" font-size="14.00"> &#160;&#160;swipe(&quot;Left&quot;) &#160;&#160;</text>
</g>
<!-- state_33&#45;&gt;activity_0 -->
<g id="edge29" class="edge"><title>state_33&#45;&gt;activity_0</title>
<path fill="none" stroke="red" d="M584.023,-870.724C634.272,-838.046 705.556,-791.675 768,-751 778.226,-744.339 779.425,-739.866 791,-736 876.147,-707.56 1140.69,-702.168 1257.54,-701.191"/>
<polygon fill="red" stroke="red" points="1257.73,-704.689 1267.71,-701.114 1257.68,-697.69 1257.73,-704.689"/>
<text text-anchor="middle" x="839" y="-739.8" font-family="Times New Roman,serif" font-size="14.00" fill="red"> &#160;&#160;click(&quot;大约&quot;) &#160;&#160;</text>
</g>
<!-- state_33&#45;&gt;activity_0 -->
<g id="edge34" class="edge"><title>state_33&#45;&gt;activity_0</title>
<path fill="none" stroke="red" d="M528.717,-768.846C534.577,-756.406 542.472,-745.113 553,-736 579.566,-713.004 1086.54,-704.067 1257.93,-701.696"/>
<polygon fill="red" stroke="red" points="1258.06,-705.194 1268.01,-701.558 1257.96,-698.195 1258.06,-705.194"/>
<text text-anchor="middle" x="601" y="-739.8" font-family="Times New Roman,serif" font-size="14.00" fill="red"> &#160;&#160;click(&quot;保存&quot;) &#160;&#160;</text>
</g>
<!-- state_33&#45;&gt;activity_0 -->
<g id="edge35" class="edge"><title>state_33&#45;&gt;activity_0</title>
<path fill="none" stroke="red" d="M584.068,-829.805C618.664,-786.68 656.407,-741.781 668,-736 719.962,-710.087 1109.48,-703.2 1257.32,-701.51"/>
<polygon fill="red" stroke="red" points="1257.58,-705.008 1267.54,-701.397 1257.5,-698.008 1257.58,-705.008"/>
<text text-anchor="middle" x="716" y="-739.8" font-family="Times New Roman,serif" font-size="14.00" fill="red"> &#160;&#160;click(&quot;删除&quot;) &#160;&#160;</text>
</g>
<!-- state_43&#45;&gt;state_33 -->
<g id="edge44" class="edge"><title>state_43&#45;&gt;state_33</title>
<path fill="none" stroke="black" d="M503.914,-631.405C504.288,-637.348 504.651,-643.232 505,-649 507.146,-684.491 509.275,-722.676 511.201,-758.676"/>
<polygon fill="black" stroke="black" points="507.712,-758.969 511.739,-768.768 514.702,-758.596 507.712,-758.969"/>
<text text-anchor="middle" x="572" y="-696.3" font-family="Times New Roman,serif" font-size="14.00"> &#160;&#160;press(&quot;MenuKey&quot;) &#160;&#160;</text>
</g>
<!-- state_43&#45;&gt;state_43 -->
<g id="edge36" class="edge"><title>state_43&#45;&gt;state_43</title>
<path fill="none" stroke="black" d="M559.072,-490.213C569.697,-489.61 577,-488.206 577,-486 577,-484.587 574.003,-483.503 569.055,-482.748"/>
<polygon fill="black" stroke="black" points="569.361,-479.261 559.072,-481.787 568.69,-486.229 569.361,-479.261"/>
<text text-anchor="middle" x="631.5" y="-482.3" font-family="Times New Roman,serif" font-size="14.00"> &#160;&#160;click(&quot;无标题&quot;) &#160;&#160;</text>
</g>
<!-- state_43&#45;&gt;state_43 -->
<g id="edge37" class="edge"><title>state_43&#45;&gt;state_43</title>
<path fill="none" stroke="black" d="M559.408,-494.127C616.178,-496.772 686,-494.064 686,-486 686,-478.409 624.121,-475.563 569.505,-477.463"/>
<polygon fill="black" stroke="black" points="569.258,-473.97 559.408,-477.873 569.542,-480.965 569.258,-473.97"/>
<text text-anchor="middle" x="757" y="-482.3" font-family="Times New Roman,serif" font-size="14.00"> &#160;&#160;longClick(&quot;index=1&quot;) &#160;&#160;</text>
</g>
<!-- state_43&#45;&gt;state_43 -->
<g id="edge39" class="edge"><title>state_43&#45;&gt;state_43</title>
<path fill="none" stroke="black" d="M559.069,-495.974C658.098,-503.163 828,-499.839 828,-486 828,-472.621 669.193,-469.069 569.158,-475.345"/>
<polygon fill="black" stroke="black" points="568.81,-471.861 559.069,-476.026 569.282,-478.845 568.81,-471.861"/>
<text text-anchor="middle" x="873" y="-482.3" font-family="Times New Roman,serif" font-size="14.00"> &#160;&#160;click(&quot;CD&quot;) &#160;&#160;</text>
</g>
<!-- state_43&#45;&gt;state_43 -->
<g id="edge40" class="edge"><title>state_43&#45;&gt;state_43</title>
<path fill="none" stroke="black" d="M559.279,-498.003C680.69,-509.235 918,-505.234 918,-486 918,-467.292 693.49,-462.995 569.491,-473.11"/>
<polygon fill="black" stroke="black" points="568.938,-469.645 559.279,-473.997 569.544,-476.619 568.938,-469.645"/>
<text text-anchor="middle" x="989" y="-482.3" font-family="Times New Roman,serif" font-size="14.00"> &#160;&#160;longClick(&quot;index=1&quot;) &#160;&#160;</text>
</g>
<!-- state_43&#45;&gt;state_43 -->
<g id="edge41" class="edge"><title>state_43&#45;&gt;state_43</title>
<path fill="none" stroke="black" d="M559.097,-499.223C711.008,-515.414 1060,-511.006 1060,-486 1060,-461.531 725.843,-456.785 569.156,-471.762"/>
<polygon fill="black" stroke="black" points="568.695,-468.29 559.097,-472.777 569.398,-475.255 568.695,-468.29"/>
<text text-anchor="middle" x="1133.5" y="-482.3" font-family="Times New Roman,serif" font-size="14.00"> &#160;&#160;&quot;index=1&quot;.input(&quot;cd&quot;) &#160;&#160;</text>
</g>
<!-- state_43&#45;&gt;state_43 -->
<g id="edge42" class="edge"><title>state_43&#45;&gt;state_43</title>
<path fill="none" stroke="black" d="M559.089,-500.297C738.838,-521.556 1207,-516.79 1207,-486 1207,-455.766 755.601,-450.625 569.109,-470.576"/>
<polygon fill="black" stroke="black" points="568.635,-467.107 559.089,-471.703 569.417,-474.063 568.635,-467.107"/>
<text text-anchor="middle" x="1260" y="-482.3" font-family="Times New Roman,serif" font-size="14.00"> &#160;&#160;swipe(&quot;Right&quot;) &#160;&#160;</text>
</g>
<!-- state_43&#45;&gt;state_43 -->
<g id="edge43" class="edge"><title>state_43&#45;&gt;state_43</title>
<path fill="none" stroke="black" d="M559.22,-501.587C757.7,-527.636 1313,-522.44 1313,-486 1313,-450.165 775.985,-444.545 569.396,-469.142"/>
<polygon fill="black" stroke="black" points="568.709,-465.7 559.22,-470.413 569.577,-472.646 568.709,-465.7"/>
<text text-anchor="middle" x="1362.5" y="-482.3" font-family="Times New Roman,serif" font-size="14.00"> &#160;&#160;swipe(&quot;Left&quot;) &#160;&#160;</text>
</g>
<!-- state_46 -->
<g id="node6" class="node"><title>state_46</title>
<g id="a_node6"><a xlink:href="46.png" xlink:title="&lt;TABLE&gt;">
<polygon fill="none" stroke="black" points="479,-290 349,-290 349,-0 479,-0 479,-290"/>
<text text-anchor="start" x="390.5" y="-278.8" font-family="Times New Roman,serif" font-size="14.00">state_46</text>
<text text-anchor="start" x="383.5" y="-263.8" font-family="Times New Roman,serif" font-size="14.00">incoming:7</text>
<text text-anchor="start" x="384.5" y="-248.8" font-family="Times New Roman,serif" font-size="14.00">outgoing:9</text>
<text text-anchor="start" x="396" y="-233.8" font-family="Times New Roman,serif" font-size="14.00">loop:6</text>
<image xlink:href="46.png" width="130px" height="230px" preserveAspectRatio="xMinYMin meet" x="349" y="-230"/>
</a>
</g>
</g>
<!-- state_43&#45;&gt;state_46 -->
<g id="edge38" class="edge"><title>state_43&#45;&gt;state_46</title>
<path fill="none" stroke="black" d="M459.957,-340.742C456.774,-327.256 453.54,-313.552 450.338,-299.981"/>
<polygon fill="black" stroke="black" points="453.716,-299.057 448.013,-290.128 446.903,-300.665 453.716,-299.057"/>
<text text-anchor="middle" x="527" y="-311.8" font-family="Times New Roman,serif" font-size="14.00"> &#160;&#160;&quot;index=1&quot;.input(&quot;ab&quot;) &#160;&#160;</text>
</g>
<!-- state_43&#45;&gt;activity_0 -->
<g id="edge45" class="edge"><title>state_43&#45;&gt;activity_0</title>
<path fill="none" stroke="red" d="M559.478,-552.282C604.078,-592.259 666.693,-640.179 732,-664 827.386,-698.793 1130.67,-700.549 1257.45,-699.68"/>
<polygon fill="red" stroke="red" points="1257.74,-703.178 1267.71,-699.601 1257.69,-696.178 1257.74,-703.178"/>
<text text-anchor="middle" x="794.5" y="-652.8" font-family="Times New Roman,serif" font-size="14.00" fill="red"> &#160;&#160;press(&quot;BackKey&quot;) &#160;&#160;</text>
</g>
<!-- state_46&#45;&gt;state_24 -->
<g id="edge50" class="edge"><title>state_46&#45;&gt;state_24</title>
<path fill="none" stroke="black" d="M348.936,-204.008C286.296,-266.555 201,-372.398 201,-485 201,-744.5 201,-744.5 201,-744.5 201,-914.159 249.085,-962.76 359,-1092 366.665,-1101.01 373.541,-1100.04 383.676,-1108.59"/>
<polygon fill="black" stroke="black" points="381.309,-1111.17 390.848,-1115.79 386.267,-1106.23 381.309,-1111.17"/>
<text text-anchor="middle" x="274.5" y="-696.3" font-family="Times New Roman,serif" font-size="14.00"> &#160;&#160;&quot;index=1&quot;.input(&quot;cd&quot;) &#160;&#160;</text>
</g>
<!-- state_46&#45;&gt;state_33 -->
<g id="edge53" class="edge"><title>state_46&#45;&gt;state_33</title>
<path fill="none" stroke="black" d="M376.655,-290.247C355.602,-395.547 339.548,-540.812 373,-664 388.021,-719.314 418.764,-774.907 448.182,-819.487"/>
<polygon fill="black" stroke="black" points="445.382,-821.597 453.849,-827.966 451.202,-817.707 445.382,-821.597"/>
<text text-anchor="middle" x="437" y="-652.8" font-family="Times New Roman,serif" font-size="14.00"> &#160;&#160;press(&quot;MenuKey&quot;) &#160;&#160;</text>
</g>
<!-- state_46&#45;&gt;state_46 -->
<g id="edge46" class="edge"><title>state_46&#45;&gt;state_46</title>
<path fill="none" stroke="black" d="M479.072,-149.915C489.697,-149.212 497,-147.573 497,-145 497,-143.352 494.003,-142.087 489.055,-141.205"/>
<polygon fill="black" stroke="black" points="489.4,-137.722 479.072,-140.085 488.619,-144.679 489.4,-137.722"/>
<text text-anchor="middle" x="539" y="-141.3" font-family="Times New Roman,serif" font-size="14.00"> &#160;&#160;click(&quot;ab&quot;) &#160;&#160;</text>
</g>
<!-- state_46&#45;&gt;state_46 -->
<g id="edge47" class="edge"><title>state_46&#45;&gt;state_46</title>
<path fill="none" stroke="black" d="M479.422,-154.853C527.276,-157.277 581,-153.993 581,-145 581,-136.64 534.566,-133.213 489.583,-134.72"/>
<polygon fill="black" stroke="black" points="489.267,-131.23 479.422,-135.147 489.56,-138.224 489.267,-131.23"/>
<text text-anchor="middle" x="652" y="-141.3" font-family="Times New Roman,serif" font-size="14.00"> &#160;&#160;longClick(&quot;index=1&quot;) &#160;&#160;</text>
</g>
<!-- state_46&#45;&gt;state_46 -->
<g id="edge48" class="edge"><title>state_46&#45;&gt;state_46</title>
<path fill="none" stroke="black" d="M479.016,-156.953C571.5,-164.922 723,-160.938 723,-145 723,-129.638 582.25,-125.382 489.262,-132.23"/>
<polygon fill="black" stroke="black" points="488.706,-128.763 479.016,-133.047 489.262,-135.741 488.706,-128.763"/>
<text text-anchor="middle" x="763" y="-141.3" font-family="Times New Roman,serif" font-size="14.00"> &#160;&#160;click(&quot;C&quot;) &#160;&#160;</text>
</g>
<!-- state_46&#45;&gt;state_46 -->
<g id="edge49" class="edge"><title>state_46&#45;&gt;state_46</title>
<path fill="none" stroke="black" d="M479.141,-159.433C592.397,-172.002 803,-167.191 803,-145 803,-123.459 604.556,-118.295 489.338,-129.507"/>
<polygon fill="black" stroke="black" points="488.726,-126.052 479.141,-130.567 489.45,-133.015 488.726,-126.052"/>
<text text-anchor="middle" x="874" y="-141.3" font-family="Times New Roman,serif" font-size="14.00"> &#160;&#160;longClick(&quot;index=1&quot;) &#160;&#160;</text>
</g>
<!-- state_46&#45;&gt;state_46 -->
<g id="edge51" class="edge"><title>state_46&#45;&gt;state_46</title>
<path fill="none" stroke="black" d="M479.049,-160.794C623.985,-179.248 945,-173.984 945,-145 945,-116.667 638.243,-111 489.076,-127.999"/>
<polygon fill="black" stroke="black" points="488.559,-124.536 479.049,-129.206 489.396,-131.485 488.559,-124.536"/>
<text text-anchor="middle" x="998" y="-141.3" font-family="Times New Roman,serif" font-size="14.00"> &#160;&#160;swipe(&quot;Right&quot;) &#160;&#160;</text>
</g>
<!-- state_46&#45;&gt;state_46 -->
<g id="edge52" class="edge"><title>state_46&#45;&gt;state_46</title>
<path fill="none" stroke="black" d="M479.063,-162.402C645.22,-186.37 1051,-180.569 1051,-145 1051,-110.126 660.916,-103.868 489.068,-126.227"/>
<polygon fill="black" stroke="black" points="488.495,-122.773 479.063,-127.598 489.445,-129.708 488.495,-122.773"/>
<text text-anchor="middle" x="1100.5" y="-141.3" font-family="Times New Roman,serif" font-size="14.00"> &#160;&#160;swipe(&quot;Left&quot;) &#160;&#160;</text>
</g>
<!-- state_46&#45;&gt;activity_0 -->
<g id="edge54" class="edge"><title>state_46&#45;&gt;activity_0</title>
<path fill="none" stroke="red" d="M479.04,-146.933C696.594,-151.558 1392.86,-178.984 1529,-341 1611.92,-439.677 1605.17,-527.024 1529,-631 1492.96,-680.194 1421.18,-694.698 1370.49,-698.514"/>
<polygon fill="red" stroke="red" points="1370.1,-695.032 1360.34,-699.159 1370.54,-702.018 1370.1,-695.032"/>
<text text-anchor="middle" x="1650.5" y="-482.3" font-family="Times New Roman,serif" font-size="14.00" fill="red"> &#160;&#160;press(&quot;BackKey&quot;) &#160;&#160;</text>
</g>
<!-- activity_0&#45;&gt;state_2 -->
<g id="edge55" class="edge"><title>activity_0&#45;&gt;state_2</title>
<path fill="none" stroke="red" d="M1359.7,-703.375C1409.24,-706.912 1490.17,-715.514 1557,-736 1589.12,-745.845 1601.44,-745.053 1625,-769 1674.5,-819.319 1692,-842.412 1692,-913 1692,-1597 1692,-1597 1692,-1597 1692,-1683.17 1733.21,-1771.83 1772.58,-1836.86"/>
<polygon fill="red" stroke="red" points="1769.65,-1838.78 1777.87,-1845.47 1775.62,-1835.12 1769.65,-1838.78"/>
<text text-anchor="middle" x="1749.5" y="-1251.3" font-family="Times New Roman,serif" font-size="14.00" fill="red"> &#160;&#160;click(&quot;index=1&quot;) &#160;&#160;</text>
</g>
<!-- activity_0&#45;&gt;state_2 -->
<g id="edge58" class="edge"><title>activity_0&#45;&gt;state_2</title>
<path fill="none" stroke="red" d="M1358.64,-704.621C1448.61,-712.576 1648.12,-733.735 1706,-769 1781.44,-814.963 1843,-824.663 1843,-913 1843,-1597 1843,-1597 1843,-1597 1843,-1657.24 1843,-1723.5 1843,-1781.34"/>
<polygon fill="red" stroke="red" points="1839.5,-1781.66 1843,-1791.66 1846.5,-1781.66 1839.5,-1781.66"/>
<text text-anchor="middle" x="1900.5" y="-1251.3" font-family="Times New Roman,serif" font-size="14.00" fill="red"> &#160;&#160;click(&quot;index=1&quot;) &#160;&#160;</text>
</g>
<!-- activity_0&#45;&gt;state_2 -->
<g id="edge61" class="edge"><title>activity_0&#45;&gt;state_2</title>
<path fill="none" stroke="red" d="M1359.79,-702.646C1474.42,-707.409 1770.71,-723.858 1857,-769 1935.27,-809.949 1994,-824.663 1994,-913 1994,-1597 1994,-1597 1994,-1597 1994,-1683.17 1952.79,-1771.83 1913.42,-1836.86"/>
<polygon fill="red" stroke="red" points="1910.38,-1835.12 1908.13,-1845.47 1916.35,-1838.78 1910.38,-1835.12"/>
<text text-anchor="middle" x="2051.5" y="-1251.3" font-family="Times New Roman,serif" font-size="14.00" fill="red"> &#160;&#160;click(&quot;index=1&quot;) &#160;&#160;</text>
</g>
<!-- activity_0&#45;&gt;state_2 -->
<g id="edge62" class="edge"><title>activity_0&#45;&gt;state_2</title>
<path fill="none" stroke="red" d="M1360.29,-701.098C1496.71,-702.073 1894.71,-710.029 2008,-769 2086.36,-809.787 2145,-824.663 2145,-913 2145,-1597 2145,-1597 2145,-1597 2145,-1733.73 2006.33,-1840.82 1916.92,-1895.65"/>
<polygon fill="red" stroke="red" points="1914.9,-1892.78 1908.16,-1900.96 1918.52,-1898.77 1914.9,-1892.78"/>
<text text-anchor="middle" x="2202.5" y="-1251.3" font-family="Times New Roman,serif" font-size="14.00" fill="red"> &#160;&#160;click(&quot;index=1&quot;) &#160;&#160;</text>
</g>
<!-- activity_0&#45;&gt;state_2 -->
<g id="edge63" class="edge"><title>activity_0&#45;&gt;state_2</title>
<path fill="none" stroke="red" d="M1359.91,-702.613C1525.76,-708.721 2087.89,-731.986 2159,-769 2237.36,-809.787 2296,-824.663 2296,-913 2296,-1597 2296,-1597 2296,-1597 2296,-1783.44 2046.98,-1879.77 1918.2,-1917.12"/>
<polygon fill="red" stroke="red" points="1917.04,-1913.81 1908.39,-1919.92 1918.96,-1920.54 1917.04,-1913.81"/>
<text text-anchor="middle" x="2353.5" y="-1251.3" font-family="Times New Roman,serif" font-size="14.00" fill="red"> &#160;&#160;click(&quot;index=0&quot;) &#160;&#160;</text>
</g>
<!-- activity_0&#45;&gt;state_2 -->
<g id="edge64" class="edge"><title>activity_0&#45;&gt;state_2</title>
<path fill="none" stroke="red" d="M1359.96,-702.063C1544.31,-706.609 2224.36,-726.161 2310,-769 2389,-808.518 2447,-824.663 2447,-913 2447,-1597 2447,-1597 2447,-1597 2447,-1836.74 2080.66,-1908.68 1918.59,-1928.77"/>
<polygon fill="red" stroke="red" points="1917.72,-1925.35 1908.21,-1930.02 1918.56,-1932.3 1917.72,-1925.35"/>
<text text-anchor="middle" x="2504.5" y="-1251.3" font-family="Times New Roman,serif" font-size="14.00" fill="red"> &#160;&#160;click(&quot;index=1&quot;) &#160;&#160;</text>
</g>
<!-- activity_0&#45;&gt;state_2 -->
<g id="edge67" class="edge"><title>activity_0&#45;&gt;state_2</title>
<path fill="none" stroke="red" d="M1360.28,-701.608C1562.32,-704.546 2361.33,-719.247 2461,-769 2540.04,-808.454 2598,-824.663 2598,-913 2598,-1597 2598,-1597 2598,-1597 2598,-1892.93 2109.31,-1932.11 1918.26,-1936.13"/>
<polygon fill="red" stroke="red" points="1917.96,-1932.63 1908.02,-1936.31 1918.09,-1939.63 1917.96,-1932.63"/>
<text text-anchor="middle" x="2655.5" y="-1251.3" font-family="Times New Roman,serif" font-size="14.00" fill="red"> &#160;&#160;click(&quot;index=1&quot;) &#160;&#160;</text>
</g>
<!-- activity_0&#45;&gt;state_24 -->
<g id="edge56" class="edge"><title>activity_0&#45;&gt;state_24</title>
<path fill="none" stroke="red" d="M1267.89,-701.043C1165.91,-702.208 926.182,-711.178 875,-769 788.722,-866.47 909.368,-952.867 834,-1059 761.442,-1161.18 618.965,-1213.58 531.158,-1237.3"/>
<polygon fill="red" stroke="red" points="530.031,-1233.97 521.257,-1239.91 531.819,-1240.74 530.031,-1233.97"/>
<text text-anchor="middle" x="932.5" y="-910.3" font-family="Times New Roman,serif" font-size="14.00" fill="red"> &#160;&#160;click(&quot;index=1&quot;) &#160;&#160;</text>
</g>
<!-- activity_0&#45;&gt;state_24 -->
<g id="edge57" class="edge"><title>activity_0&#45;&gt;state_24</title>
<path fill="none" stroke="red" d="M1269.67,-705.228C1197.04,-713.13 1057.57,-732.715 1026,-769 940.743,-866.977 1070.87,-957.367 990,-1059 876.7,-1201.4 649.607,-1239.83 531.404,-1250.19"/>
<polygon fill="red" stroke="red" points="531.027,-1246.71 521.351,-1251.02 531.607,-1253.68 531.027,-1246.71"/>
<text text-anchor="middle" x="1083.5" y="-910.3" font-family="Times New Roman,serif" font-size="14.00" fill="red"> &#160;&#160;click(&quot;index=0&quot;) &#160;&#160;</text>
</g>
<!-- activity_0&#45;&gt;state_24 -->
<g id="edge59" class="edge"><title>activity_0&#45;&gt;state_24</title>
<path fill="none" stroke="red" d="M1274.84,-709.609C1243.11,-718.747 1200.04,-736.509 1177,-769 1101.88,-874.947 1225.51,-960.377 1141,-1059 1061.04,-1152.31 692.318,-1218.28 531.429,-1243.11"/>
<polygon fill="red" stroke="red" points="530.492,-1239.71 521.137,-1244.68 531.552,-1246.63 530.492,-1239.71"/>
<text text-anchor="middle" x="1234.5" y="-910.3" font-family="Times New Roman,serif" font-size="14.00" fill="red"> &#160;&#160;click(&quot;index=1&quot;) &#160;&#160;</text>
</g>
<!-- activity_0&#45;&gt;state_24 -->
<g id="edge60" class="edge"><title>activity_0&#45;&gt;state_24</title>
<path fill="none" stroke="red" d="M1313.52,-718.036C1311.47,-787.441 1303.13,-1045.83 1292,-1059 1193.54,-1175.54 717.874,-1230.39 531.308,-1247.69"/>
<polygon fill="red" stroke="red" points="530.946,-1244.21 521.308,-1248.61 531.585,-1251.18 530.946,-1244.21"/>
<text text-anchor="middle" x="1368.5" y="-910.3" font-family="Times New Roman,serif" font-size="14.00" fill="red"> &#160;&#160;click(&quot;index=0&quot;) &#160;&#160;</text>
</g>
<!-- activity_0&#45;&gt;state_43 -->
<g id="edge65" class="edge"><title>activity_0&#45;&gt;state_43</title>
<path fill="none" stroke="red" d="M1276.64,-689.34C1150.61,-656.758 739.559,-550.486 569.109,-506.418"/>
<polygon fill="red" stroke="red" points="569.771,-502.975 559.213,-503.86 568.019,-509.752 569.771,-502.975"/>
<text text-anchor="middle" x="1233.5" y="-652.8" font-family="Times New Roman,serif" font-size="14.00" fill="red"> &#160;&#160;click(&quot;index=1&quot;) &#160;&#160;</text>
</g>
<!-- activity_0&#45;&gt;state_43 -->
<g id="edge66" class="edge"><title>activity_0&#45;&gt;state_43</title>
<path fill="none" stroke="red" d="M1268.47,-696.596C1209.75,-692.824 1104.75,-683.789 1017,-664 853.264,-627.073 668.834,-557.853 568.622,-517.793"/>
<polygon fill="red" stroke="red" points="569.774,-514.484 559.19,-514.009 567.168,-520.981 569.774,-514.484"/>
<text text-anchor="middle" x="1074.5" y="-652.8" font-family="Times New Roman,serif" font-size="14.00" fill="red"> &#160;&#160;click(&quot;index=0&quot;) &#160;&#160;</text>
</g>
</g>
</svg>
