<?xml version="1.0" encoding="UTF-8" standalone="no"?>
<!DOCTYPE svg PUBLIC "-//W3C//DTD SVG 1.1//EN"
 "http://www.w3.org/Graphics/SVG/1.1/DTD/svg11.dtd">
<!-- Generated by graphviz version 2.38.0 (20140413.2041)
 -->
<!-- Title: result Pages: 1 -->
<svg width="619pt" height="1491pt"
 viewBox="0.00 0.00 619.00 1490.62" xmlns="http://www.w3.org/2000/svg" xmlns:xlink="http://www.w3.org/1999/xlink">
<g id="graph0" class="graph" transform="scale(1 1) rotate(0) translate(4 1486.62)">
<title>result</title>
<polygon fill="white" stroke="none" points="-4,4 -4,-1486.62 615,-1486.62 615,4 -4,4"/>
<!-- initial -->
<g id="node1" class="node"><title>initial</title>
<image xlink:href="-1.png" width="50px" height="50px" preserveAspectRatio="xMinYMin meet" x="0" y="-761.621"/>
</g>
<!-- activity_0 -->
<g id="node2" class="node"><title>activity_0</title>
<g id="a_node2"><a xlink:href="activity_0.svg" xlink:title="&lt;TABLE&gt;">
<polygon fill="none" stroke="black" points="217,-874.121 87,-874.121 87,-599.121 217,-599.121 217,-874.121"/>
<text text-anchor="start" x="124.5" y="-862.421" font-family="Times New Roman,serif" font-size="14.00">activity_0</text>
<text text-anchor="start" x="118" y="-847.421" font-family="Times New Roman,serif" font-size="14.00">incoming:12</text>
<text text-anchor="start" x="119" y="-832.421" font-family="Times New Roman,serif" font-size="14.00">outgoing:26</text>
<image xlink:href="0.png" width="130px" height="230px" preserveAspectRatio="xMinYMin meet" x="87" y="-828.621"/>
</a>
</g>
</g>
<!-- initial&#45;&gt;activity_0 -->
<g id="edge1" class="edge"><title>initial&#45;&gt;activity_0</title>
<path fill="none" stroke="black" d="M50.1013,-736.621C57.9994,-736.621 67.2332,-736.621 76.8484,-736.621"/>
<polygon fill="black" stroke="black" points="76.9667,-740.121 86.9666,-736.621 76.9666,-733.121 76.9667,-740.121"/>
</g>
<!-- activity_1 -->
<g id="node3" class="node"><title>activity_1</title>
<g id="a_node3"><a xlink:href="activity_1.svg" xlink:title="&lt;TABLE&gt;">
<polygon fill="none" stroke="black" points="611,-1007.12 481,-1007.12 481,-732.121 611,-732.121 611,-1007.12"/>
<text text-anchor="start" x="518.5" y="-995.421" font-family="Times New Roman,serif" font-size="14.00">activity_1</text>
<text text-anchor="start" x="512" y="-980.421" font-family="Times New Roman,serif" font-size="14.00">incoming:19</text>
<text text-anchor="start" x="513" y="-965.421" font-family="Times New Roman,serif" font-size="14.00">outgoing:12</text>
<image xlink:href="2.png" width="130px" height="230px" preserveAspectRatio="xMinYMin meet" x="481" y="-961.621"/>
</a>
</g>
</g>
<!-- activity_0&#45;&gt;activity_1 -->
<g id="edge2" class="edge"><title>activity_0&#45;&gt;activity_1</title>
<path fill="none" stroke="black" d="M159.949,-874.397C170.891,-1062.96 195.102,-1382.24 235,-1417.62 310.816,-1484.86 386.227,-1483.76 463,-1417.62 521.896,-1366.88 539.11,-1161.79 543.797,-1017.46"/>
<polygon fill="black" stroke="black" points="547.304,-1017.28 544.113,-1007.18 540.308,-1017.06 547.304,-1017.28"/>
<text text-anchor="middle" x="349" y="-1471.42" font-family="Times New Roman,serif" font-size="14.00"> &#160;&#160;&lt;a0.s0,click(&quot;index=1&quot;),a1.s2&gt; &#160;&#160;</text>
</g>
<!-- activity_0&#45;&gt;activity_1 -->
<g id="edge16" class="edge"><title>activity_0&#45;&gt;activity_1</title>
<path fill="none" stroke="black" d="M161.005,-874.264C172.84,-1053.18 197.706,-1346.78 235,-1379.62 254.013,-1396.36 443.717,-1396.05 463,-1379.62 516.762,-1333.81 535.409,-1151.28 541.8,-1017.63"/>
<polygon fill="black" stroke="black" points="545.312,-1017.44 542.275,-1007.29 538.32,-1017.12 545.312,-1017.44"/>
<text text-anchor="middle" x="349" y="-1395.42" font-family="Times New Roman,serif" font-size="14.00"> &#160;&#160;&lt;a0.s39,click(&quot;index=1&quot;),a1.s30&gt; &#160;&#160;</text>
</g>
<!-- activity_0&#45;&gt;activity_1 -->
<g id="edge17" class="edge"><title>activity_0&#45;&gt;activity_1</title>
<path fill="none" stroke="black" d="M162.217,-874.467C174.946,-1043.46 200.326,-1311.33 235,-1341.62 254.078,-1358.29 443.614,-1357.93 463,-1341.62 511.673,-1300.67 531.456,-1140.17 539.497,-1017.59"/>
<polygon fill="black" stroke="black" points="543.006,-1017.54 540.147,-1007.34 536.02,-1017.1 543.006,-1017.54"/>
<text text-anchor="middle" x="349" y="-1357.42" font-family="Times New Roman,serif" font-size="14.00"> &#160;&#160;&lt;a0.s39,click(&quot;index=0&quot;),a1.s30&gt; &#160;&#160;</text>
</g>
<!-- activity_0&#45;&gt;activity_1 -->
<g id="edge18" class="edge"><title>activity_0&#45;&gt;activity_1</title>
<path fill="none" stroke="black" d="M153.06,-874.18C156.4,-1023.86 172.118,-1249.18 235,-1303.62 254.153,-1320.2 443.495,-1319.79 463,-1303.62 506.628,-1267.46 527.211,-1128.41 536.818,-1017.32"/>
<polygon fill="black" stroke="black" points="540.306,-1017.6 537.658,-1007.34 533.331,-1017.01 540.306,-1017.6"/>
<text text-anchor="middle" x="349" y="-1319.42" font-family="Times New Roman,serif" font-size="14.00"> &#160;&#160;&lt;a0.s39,click(&quot;index=1&quot;),a1.s2&gt; &#160;&#160;</text>
</g>
<!-- activity_0&#45;&gt;activity_1 -->
<g id="edge20" class="edge"><title>activity_0&#45;&gt;activity_1</title>
<path fill="none" stroke="black" d="M154.773,-874.223C159.834,-1013.81 177.265,-1216.15 235,-1265.62 254.236,-1282.11 443.354,-1281.62 463,-1265.62 501.557,-1234.23 522.55,-1116.36 533.612,-1017.31"/>
<polygon fill="black" stroke="black" points="537.112,-1017.49 534.717,-1007.17 530.153,-1016.73 537.112,-1017.49"/>
<text text-anchor="middle" x="349" y="-1281.42" font-family="Times New Roman,serif" font-size="14.00"> &#160;&#160;&lt;a0.s121,click(&quot;index=1&quot;),a1.s30&gt; &#160;&#160;</text>
</g>
<!-- activity_0&#45;&gt;activity_1 -->
<g id="edge21" class="edge"><title>activity_0&#45;&gt;activity_1</title>
<path fill="none" stroke="black" d="M156.75,-874.34C163.516,-1003.44 182.403,-1183.08 235,-1227.62 254.333,-1243.99 443.188,-1243.41 463,-1227.62 496.491,-1200.93 517.412,-1103.69 529.734,-1017.28"/>
<polygon fill="black" stroke="black" points="533.205,-1017.73 531.12,-1007.34 526.272,-1016.76 533.205,-1017.73"/>
<text text-anchor="middle" x="349" y="-1243.42" font-family="Times New Roman,serif" font-size="14.00"> &#160;&#160;&lt;a0.s121,click(&quot;index=0&quot;),a1.s30&gt; &#160;&#160;</text>
</g>
<!-- activity_0&#45;&gt;activity_1 -->
<g id="edge22" class="edge"><title>activity_0&#45;&gt;activity_1</title>
<path fill="none" stroke="black" d="M159.041,-874.263C167.46,-992.478 187.498,-1149.95 235,-1189.62 254.443,-1205.86 442.986,-1205.15 463,-1189.62 491.343,-1167.63 511.568,-1090.69 524.841,-1017.78"/>
<polygon fill="black" stroke="black" points="528.359,-1017.98 526.667,-1007.52 521.468,-1016.76 528.359,-1017.98"/>
<text text-anchor="middle" x="349" y="-1204.42" font-family="Times New Roman,serif" font-size="14.00"> &#160;&#160;&lt;a0.s121,click(&quot;index=1&quot;),a1.s2&gt; &#160;&#160;</text>
</g>
<!-- activity_0&#45;&gt;activity_1 -->
<g id="edge24" class="edge"><title>activity_0&#45;&gt;activity_1</title>
<path fill="none" stroke="black" d="M161.745,-874.236C171.745,-981.091 192.586,-1116.77 235,-1151.62 254.573,-1167.71 442.74,-1166.83 463,-1151.62 486.272,-1134.15 505.094,-1076.2 518.806,-1017.33"/>
<polygon fill="black" stroke="black" points="522.238,-1018.03 521.049,-1007.5 515.413,-1016.47 522.238,-1018.03"/>
<text text-anchor="middle" x="349" y="-1166.42" font-family="Times New Roman,serif" font-size="14.00"> &#160;&#160;&lt;a0.s68,click(&quot;index=1&quot;),a1.s59&gt; &#160;&#160;</text>
</g>
<!-- activity_0&#45;&gt;activity_1 -->
<g id="edge25" class="edge"><title>activity_0&#45;&gt;activity_1</title>
<path fill="none" stroke="black" d="M165.029,-874.573C176.494,-969.458 197.71,-1083.57 235,-1113.62 254.725,-1129.52 442.43,-1128.41 463,-1113.62 494.894,-1090.69 514.553,-1054.75 526.619,-1017.42"/>
<polygon fill="black" stroke="black" points="530.109,-1017.98 529.675,-1007.39 523.413,-1015.94 530.109,-1017.98"/>
<text text-anchor="middle" x="349" y="-1128.42" font-family="Times New Roman,serif" font-size="14.00"> &#160;&#160;&lt;a0.s68,click(&quot;index=0&quot;),a1.s59&gt; &#160;&#160;</text>
</g>
<!-- activity_0&#45;&gt;activity_1 -->
<g id="edge26" class="edge"><title>activity_0&#45;&gt;activity_1</title>
<path fill="none" stroke="black" d="M168.972,-874.378C181.678,-956.765 202.762,-1050.25 235,-1075.62 254.908,-1091.29 442.034,-1089.84 463,-1075.62 484.539,-1061.01 500.421,-1039.75 512.131,-1016.37"/>
<polygon fill="black" stroke="black" points="515.302,-1017.85 516.418,-1007.31 508.975,-1014.85 515.302,-1017.85"/>
<text text-anchor="middle" x="349" y="-1090.42" font-family="Times New Roman,serif" font-size="14.00"> &#160;&#160;&lt;a0.s68,click(&quot;index=1&quot;),a1.s2&gt; &#160;&#160;</text>
</g>
<!-- activity_0&#45;&gt;activity_1 -->
<g id="edge28" class="edge"><title>activity_0&#45;&gt;activity_1</title>
<path fill="none" stroke="black" d="M173.904,-874.212C187.518,-943.375 207.832,-1016.86 235,-1037.62 255.13,-1053 441.514,-1051.04 463,-1037.62 472.793,-1031.5 481.448,-1023.84 489.092,-1015.18"/>
<polygon fill="black" stroke="black" points="491.902,-1017.28 495.553,-1007.33 486.497,-1012.83 491.902,-1017.28"/>
<text text-anchor="middle" x="349" y="-1051.42" font-family="Times New Roman,serif" font-size="14.00"> &#160;&#160;&lt;a0.s145,click(&quot;index=1&quot;),a1.s59&gt; &#160;&#160;</text>
</g>
<!-- activity_0&#45;&gt;activity_1 -->
<g id="edge29" class="edge"><title>activity_0&#45;&gt;activity_1</title>
<path fill="none" stroke="black" d="M180.339,-874.337C194.296,-929.309 212.993,-983.431 235,-999.621 255.406,-1014.63 440.817,-1011.86 463,-999.621 466.414,-997.739 469.705,-995.647 472.876,-993.377"/>
<polygon fill="black" stroke="black" points="475.311,-995.915 480.993,-986.973 470.975,-990.419 475.311,-995.915"/>
<text text-anchor="middle" x="349" y="-1013.42" font-family="Times New Roman,serif" font-size="14.00"> &#160;&#160;&lt;a0.s145,click(&quot;index=0&quot;),a1.s59&gt; &#160;&#160;</text>
</g>
<!-- activity_0&#45;&gt;activity_1 -->
<g id="edge30" class="edge"><title>activity_0&#45;&gt;activity_1</title>
<path fill="none" stroke="black" d="M174.282,-874.209C186.404,-908.251 205.366,-940.881 235,-961.621 276.51,-990.674 416.766,-982.346 463,-961.621 466.221,-960.177 469.368,-958.537 472.437,-956.732"/>
<polygon fill="black" stroke="black" points="474.405,-959.627 480.874,-951.236 470.584,-953.762 474.405,-959.627"/>
<text text-anchor="middle" x="349" y="-983.421" font-family="Times New Roman,serif" font-size="14.00"> &#160;&#160;&lt;a0.s145,click(&quot;index=1&quot;),a1.s2&gt; &#160;&#160;</text>
</g>
<!-- activity_0&#45;&gt;activity_1 -->
<g id="edge32" class="edge"><title>activity_0&#45;&gt;activity_1</title>
<path fill="none" stroke="black" d="M190.667,-874.39C201.844,-893.877 216.304,-911.405 235,-923.621 277.415,-951.336 414.466,-938.167 463,-923.621 465.926,-922.744 468.845,-921.725 471.742,-920.589"/>
<polygon fill="black" stroke="black" points="473.143,-923.796 480.908,-916.588 470.342,-917.381 473.143,-923.796"/>
<text text-anchor="middle" x="349" y="-943.421" font-family="Times New Roman,serif" font-size="14.00"> &#160;&#160;&lt;a0.s100,click(&quot;index=1&quot;),a1.s89&gt; &#160;&#160;</text>
</g>
<!-- activity_0&#45;&gt;activity_1 -->
<g id="edge33" class="edge"><title>activity_0&#45;&gt;activity_1</title>
<path fill="none" stroke="black" d="M217.285,-872.461C222.75,-877.422 228.645,-881.865 235,-885.621 278.617,-911.403 412.568,-890.495 463,-885.621 465.527,-885.377 468.091,-885.092 470.676,-884.771"/>
<polygon fill="black" stroke="black" points="471.29,-888.22 480.714,-883.379 470.328,-881.286 471.29,-888.22"/>
<text text-anchor="middle" x="349" y="-901.421" font-family="Times New Roman,serif" font-size="14.00"> &#160;&#160;&lt;a0.s100,click(&quot;index=0&quot;),a1.s89&gt; &#160;&#160;</text>
</g>
<!-- activity_0&#45;&gt;activity_1 -->
<g id="edge34" class="edge"><title>activity_0&#45;&gt;activity_1</title>
<path fill="none" stroke="black" d="M217.159,-835.309C222.753,-839.983 228.702,-844.158 235,-847.621 245.201,-853.23 382.56,-861.276 470.978,-865.923"/>
<polygon fill="black" stroke="black" points="470.804,-869.419 480.973,-866.445 471.169,-862.429 470.804,-869.419"/>
<text text-anchor="middle" x="349" y="-868.421" font-family="Times New Roman,serif" font-size="14.00"> &#160;&#160;&lt;a0.s100,click(&quot;index=1&quot;),a1.s2&gt; &#160;&#160;</text>
</g>
<!-- activity_0&#45;&gt;activity_1 -->
<g id="edge36" class="edge"><title>activity_0&#45;&gt;activity_1</title>
<path fill="none" stroke="black" d="M217.114,-800.02C222.882,-803.716 228.869,-806.991 235,-809.621 328.448,-849.712 365.092,-801.166 463,-828.621 465.639,-829.361 468.294,-830.187 470.95,-831.084"/>
<polygon fill="black" stroke="black" points="469.96,-834.449 480.553,-834.616 472.376,-827.879 469.96,-834.449"/>
<text text-anchor="middle" x="349" y="-832.421" font-family="Times New Roman,serif" font-size="14.00"> &#160;&#160;&lt;a0.s163,click(&quot;index=1&quot;),a1.s89&gt; &#160;&#160;</text>
</g>
<!-- activity_0&#45;&gt;activity_1 -->
<g id="edge37" class="edge"><title>activity_0&#45;&gt;activity_1</title>
<path fill="none" stroke="black" d="M217.241,-766.297C223.164,-768.344 229.141,-770.167 235,-771.621 333.69,-796.116 370.359,-748.699 463,-790.621 466.062,-792.007 469.078,-793.557 472.042,-795.243"/>
<polygon fill="black" stroke="black" points="470.432,-798.363 480.77,-800.683 474.135,-792.423 470.432,-798.363"/>
<text text-anchor="middle" x="349" y="-794.421" font-family="Times New Roman,serif" font-size="14.00"> &#160;&#160;&lt;a0.s163,click(&quot;index=0&quot;),a1.s89&gt; &#160;&#160;</text>
</g>
<!-- activity_0&#45;&gt;activity_1 -->
<g id="edge38" class="edge"><title>activity_0&#45;&gt;activity_1</title>
<path fill="none" stroke="black" d="M217.025,-736.949C301.534,-737.836 442.107,-741.057 463,-752.621 466.343,-754.472 469.581,-756.524 472.715,-758.745"/>
<polygon fill="black" stroke="black" points="470.721,-761.628 480.764,-765.002 475.017,-756.102 470.721,-761.628"/>
<text text-anchor="middle" x="349" y="-756.421" font-family="Times New Roman,serif" font-size="14.00"> &#160;&#160;&lt;a0.s163,click(&quot;index=1&quot;),a1.s2&gt; &#160;&#160;</text>
</g>
<!-- final -->
<g id="node4" class="node"><title>final</title>
<image xlink:href="-2.png" width="50px" height="50px" preserveAspectRatio="xMinYMin meet" x="521" y="-172.621"/>
</g>
<!-- activity_0&#45;&gt;final -->
<g id="edge3" class="edge"><title>activity_0&#45;&gt;final</title>
<path fill="none" stroke="black" d="M159.096,-598.96C167.589,-476.544 187.706,-310.212 235,-265.621 272.104,-230.638 417.725,-263.087 463,-239.621 488.431,-226.441 509.689,-201.886 524.183,-181.458"/>
<polygon fill="black" stroke="black" points="527.212,-183.229 529.974,-173.001 521.436,-179.275 527.212,-183.229"/>
<text text-anchor="middle" x="349" y="-269.421" font-family="Times New Roman,serif" font-size="14.00"> &#160;&#160;&lt;a0.s0,press(&quot;BackKey&quot;),final&gt; &#160;&#160;</text>
</g>
<!-- activity_0&#45;&gt;final -->
<g id="edge19" class="edge"><title>activity_0&#45;&gt;final</title>
<path fill="none" stroke="black" d="M156.281,-598.905C162.645,-463.663 181.191,-270.566 235,-220.621 272.264,-186.033 414.946,-218.228 463,-201.621 480.777,-195.478 498.464,-184.598 512.835,-174.206"/>
<polygon fill="black" stroke="black" points="514.977,-176.975 520.89,-168.183 510.785,-171.369 514.977,-176.975"/>
<text text-anchor="middle" x="349" y="-224.421" font-family="Times New Roman,serif" font-size="14.00"> &#160;&#160;&lt;a0.s39,press(&quot;BackKey&quot;),final&gt; &#160;&#160;</text>
</g>
<!-- activity_0&#45;&gt;final -->
<g id="edge23" class="edge"><title>activity_0&#45;&gt;final</title>
<path fill="none" stroke="black" d="M154.488,-598.835C159.216,-453.407 176.279,-237.711 235,-182.621 253.54,-165.228 437.82,-167.116 463,-163.621 478.723,-161.439 495.988,-158.198 510.604,-155.203"/>
<polygon fill="black" stroke="black" points="511.649,-158.561 520.718,-153.085 510.213,-151.709 511.649,-158.561"/>
<text text-anchor="middle" x="349" y="-186.421" font-family="Times New Roman,serif" font-size="14.00"> &#160;&#160;&lt;a0.s121,press(&quot;BackKey&quot;),final&gt; &#160;&#160;</text>
</g>
<!-- activity_0&#45;&gt;final -->
<g id="edge27" class="edge"><title>activity_0&#45;&gt;final</title>
<path fill="none" stroke="black" d="M162.655,-598.861C175.684,-433.338 201.21,-174.054 235,-144.621 255.35,-126.896 434.095,-138.786 510.551,-144.767"/>
<polygon fill="black" stroke="black" points="510.388,-148.265 520.633,-145.568 510.942,-141.287 510.388,-148.265"/>
<text text-anchor="middle" x="349" y="-148.421" font-family="Times New Roman,serif" font-size="14.00"> &#160;&#160;&lt;a0.s68,press(&quot;BackKey&quot;),final&gt; &#160;&#160;</text>
</g>
<!-- activity_0&#45;&gt;final -->
<g id="edge31" class="edge"><title>activity_0&#45;&gt;final</title>
<path fill="none" stroke="black" d="M161.704,-599.093C174.075,-426.161 199.277,-147.931 235,-116.621 273.103,-83.2258 413.158,-107.515 463,-116.621 479.422,-119.622 496.825,-125.742 511.354,-131.758"/>
<polygon fill="black" stroke="black" points="510.337,-135.13 520.906,-135.867 513.103,-128.7 510.337,-135.13"/>
<text text-anchor="middle" x="349" y="-120.421" font-family="Times New Roman,serif" font-size="14.00"> &#160;&#160;&lt;a0.s145,press(&quot;BackKey&quot;),final&gt; &#160;&#160;</text>
</g>
<!-- activity_0&#45;&gt;final -->
<g id="edge35" class="edge"><title>activity_0&#45;&gt;final</title>
<path fill="none" stroke="black" d="M160.632,-598.91C172.162,-416.663 196.818,-114.328 235,-80.6213 272.984,-47.09 415.277,-63.6037 463,-80.6213 482.724,-87.6546 501.13,-101.694 515.486,-115.111"/>
<polygon fill="black" stroke="black" points="513.42,-117.985 523.027,-122.453 518.303,-112.97 513.42,-117.985"/>
<text text-anchor="middle" x="349" y="-84.4213" font-family="Times New Roman,serif" font-size="14.00"> &#160;&#160;&lt;a0.s100,press(&quot;BackKey&quot;),final&gt; &#160;&#160;</text>
</g>
<!-- activity_0&#45;&gt;final -->
<g id="edge39" class="edge"><title>activity_0&#45;&gt;final</title>
<path fill="none" stroke="black" d="M159.6,-599.032C170.231,-407.259 194.193,-78.8908 235,-42.6213 310.741,24.6972 371.927,1.80974 463,-42.6213 492.861,-57.1893 515.029,-88.4689 528.736,-113.119"/>
<polygon fill="black" stroke="black" points="525.78,-115.015 533.573,-122.193 531.957,-111.722 525.78,-115.015"/>
<text text-anchor="middle" x="349" y="-46.4213" font-family="Times New Roman,serif" font-size="14.00"> &#160;&#160;&lt;a0.s163,press(&quot;BackKey&quot;),final&gt; &#160;&#160;</text>
</g>
<!-- activity_1&#45;&gt;activity_0 -->
<g id="edge4" class="edge"><title>activity_1&#45;&gt;activity_0</title>
<path fill="none" stroke="black" d="M480.849,-731.974C475.349,-726.942 469.409,-722.434 463,-718.621 419.456,-692.717 285.371,-713.158 235,-718.621 232.464,-718.896 229.892,-719.218 227.3,-719.578"/>
<polygon fill="black" stroke="black" points="226.583,-716.148 217.241,-721.145 227.66,-723.064 226.583,-716.148"/>
<text text-anchor="middle" x="349" y="-722.421" font-family="Times New Roman,serif" font-size="14.00"> &#160;&#160;&lt;a1.s2,press(&quot;BackKey&quot;),a0.s163&gt; &#160;&#160;</text>
</g>
<!-- activity_1&#45;&gt;activity_0 -->
<g id="edge5" class="edge"><title>activity_1&#45;&gt;activity_0</title>
<path fill="none" stroke="black" d="M505.233,-732.037C494.351,-714.063 480.532,-697.977 463,-686.621 420.475,-659.077 283.78,-672.922 235,-686.621 232.216,-687.403 229.433,-688.309 226.663,-689.317"/>
<polygon fill="black" stroke="black" points="225.263,-686.108 217.316,-693.115 227.898,-692.593 225.263,-686.108"/>
<text text-anchor="middle" x="349" y="-690.421" font-family="Times New Roman,serif" font-size="14.00"> &#160;&#160;&lt;a1.s19,press(&quot;BackKey&quot;),a0.s39&gt; &#160;&#160;</text>
</g>
<!-- activity_1&#45;&gt;activity_0 -->
<g id="edge6" class="edge"><title>activity_1&#45;&gt;activity_0</title>
<path fill="none" stroke="black" d="M521.186,-731.964C509.026,-700.534 490.678,-670.782 463,-651.621 421.341,-622.783 281.634,-631.812 235,-651.621 231.886,-652.944 228.833,-654.449 225.846,-656.108"/>
<polygon fill="black" stroke="black" points="223.756,-653.285 217.086,-661.517 227.434,-659.241 223.756,-653.285"/>
<text text-anchor="middle" x="349" y="-655.421" font-family="Times New Roman,serif" font-size="14.00"> &#160;&#160;&lt;a1.s24,press(&quot;BackKey&quot;),a0.s39&gt; &#160;&#160;</text>
</g>
<!-- activity_1&#45;&gt;activity_0 -->
<g id="edge7" class="edge"><title>activity_1&#45;&gt;activity_0</title>
<path fill="none" stroke="black" d="M533.011,-731.944C521.768,-686.889 500.981,-641.338 463,-613.621 422.072,-583.755 279.672,-589.714 235,-613.621 231.634,-615.423 228.383,-617.43 225.243,-619.613"/>
<polygon fill="black" stroke="black" points="223.002,-616.921 217.195,-625.783 227.261,-622.477 223.002,-616.921"/>
<text text-anchor="middle" x="349" y="-617.421" font-family="Times New Roman,serif" font-size="14.00"> &#160;&#160;&lt;a1.s30,press(&quot;BackKey&quot;),a0.s39&gt; &#160;&#160;</text>
</g>
<!-- activity_1&#45;&gt;activity_0 -->
<g id="edge8" class="edge"><title>activity_1&#45;&gt;activity_0</title>
<path fill="none" stroke="black" d="M523.315,-731.865C509.617,-664.559 489.473,-593.758 463,-573.621 422.673,-542.947 278.132,-547.037 235,-573.621 226.979,-578.565 219.716,-584.56 213.141,-591.295"/>
<polygon fill="black" stroke="black" points="210.391,-589.117 206.274,-598.88 215.581,-593.815 210.391,-589.117"/>
<text text-anchor="middle" x="349" y="-577.421" font-family="Times New Roman,serif" font-size="14.00"> &#160;&#160;&lt;a1.s40,click(&quot;大约&quot;),a0.s7&gt; &#160;&#160;</text>
</g>
<!-- activity_1&#45;&gt;activity_0 -->
<g id="edge9" class="edge"><title>activity_1&#45;&gt;activity_0</title>
<path fill="none" stroke="black" d="M528.778,-731.761C516.013,-650.078 494.957,-557.735 463,-532.621 423.163,-501.315 276.979,-504.252 235,-532.621 214.06,-546.773 198.467,-567.25 186.855,-589.834"/>
<polygon fill="black" stroke="black" points="183.658,-588.405 182.438,-598.93 189.955,-591.463 183.658,-588.405"/>
<text text-anchor="middle" x="349" y="-536.421" font-family="Times New Roman,serif" font-size="14.00"> &#160;&#160;&lt;a1.s40,click(&quot;保存&quot;),a0.s121&gt; &#160;&#160;</text>
</g>
<!-- activity_1&#45;&gt;activity_0 -->
<g id="edge10" class="edge"><title>activity_1&#45;&gt;activity_0</title>
<path fill="none" stroke="black" d="M533.191,-731.946C521.807,-636.365 500.594,-520.951 463,-490.621 443.283,-474.714 255.551,-475.809 235,-490.621 202.426,-514.099 182.597,-551.078 170.585,-589.301"/>
<polygon fill="black" stroke="black" points="167.185,-588.455 167.697,-599.038 173.896,-590.446 167.185,-588.455"/>
<text text-anchor="middle" x="349" y="-494.421" font-family="Times New Roman,serif" font-size="14.00"> &#160;&#160;&lt;a1.s40,click(&quot;删除&quot;),a0.s121&gt; &#160;&#160;</text>
</g>
<!-- activity_1&#45;&gt;activity_0 -->
<g id="edge11" class="edge"><title>activity_1&#45;&gt;activity_0</title>
<path fill="none" stroke="black" d="M535.867,-732.056C525.669,-626.727 504.752,-493.85 463,-459.621 423.817,-427.499 275.594,-429.303 235,-459.621 212.399,-476.501 193.827,-532.033 180.107,-588.988"/>
<polygon fill="black" stroke="black" points="176.663,-588.344 177.775,-598.88 183.477,-589.95 176.663,-588.344"/>
<text text-anchor="middle" x="349" y="-463.421" font-family="Times New Roman,serif" font-size="14.00"> &#160;&#160;&lt;a1.s48,press(&quot;BackKey&quot;),a0.s68&gt; &#160;&#160;</text>
</g>
<!-- activity_1&#45;&gt;activity_0 -->
<g id="edge12" class="edge"><title>activity_1&#45;&gt;activity_0</title>
<path fill="none" stroke="black" d="M538.959,-731.98C530.54,-613.765 510.502,-456.296 463,-416.621 424.113,-384.142 275.027,-385.558 235,-416.621 206.657,-438.617 186.432,-515.548 173.159,-588.462"/>
<polygon fill="black" stroke="black" points="169.641,-588.259 171.333,-598.718 176.532,-589.487 169.641,-588.259"/>
<text text-anchor="middle" x="349" y="-420.421" font-family="Times New Roman,serif" font-size="14.00"> &#160;&#160;&lt;a1.s53,press(&quot;BackKey&quot;),a0.s68&gt; &#160;&#160;</text>
</g>
<!-- activity_1&#45;&gt;activity_0 -->
<g id="edge13" class="edge"><title>activity_1&#45;&gt;activity_0</title>
<path fill="none" stroke="black" d="M541.534,-732.044C534.996,-601.532 516.289,-418.824 463,-373.621 443.681,-357.234 254.789,-357.804 235,-373.621 200.862,-400.908 179.905,-500.73 167.731,-588.803"/>
<polygon fill="black" stroke="black" points="164.234,-588.55 166.363,-598.929 171.171,-589.488 164.234,-588.55"/>
<text text-anchor="middle" x="349" y="-377.421" font-family="Times New Roman,serif" font-size="14.00"> &#160;&#160;&lt;a1.s59,press(&quot;BackKey&quot;),a0.s68&gt; &#160;&#160;</text>
</g>
<!-- activity_1&#45;&gt;activity_0 -->
<g id="edge14" class="edge"><title>activity_1&#45;&gt;activity_0</title>
<path fill="none" stroke="black" d="M543.177,-731.958C538.067,-592.648 520.592,-390.959 463,-341.621 424.522,-308.658 274.3,-309.642 235,-341.621 196.594,-372.874 175.598,-490.101 164.496,-588.798"/>
<polygon fill="black" stroke="black" points="161,-588.575 163.387,-598.897 167.958,-589.339 161,-588.575"/>
<text text-anchor="middle" x="349" y="-345.421" font-family="Times New Roman,serif" font-size="14.00"> &#160;&#160;&lt;a1.s81,press(&quot;BackKey&quot;),a0.s100&gt; &#160;&#160;</text>
</g>
<!-- activity_1&#45;&gt;activity_0 -->
<g id="edge15" class="edge"><title>activity_1&#45;&gt;activity_0</title>
<path fill="none" stroke="black" d="M545.145,-731.875C542.022,-580.888 526.533,-352.696 463,-297.621 443.858,-281.028 254.489,-281.436 235,-297.621 190.708,-334.406 170.209,-476.264 160.803,-588.899"/>
<polygon fill="black" stroke="black" points="157.303,-588.763 159.982,-599.014 164.28,-589.33 157.303,-588.763"/>
<text text-anchor="middle" x="349" y="-301.421" font-family="Times New Roman,serif" font-size="14.00"> &#160;&#160;&lt;a1.s89,press(&quot;BackKey&quot;),a0.s100&gt; &#160;&#160;</text>
</g>
</g>
</svg>
