<?xml version="1.0" encoding="UTF-8" standalone="no"?>
<!DOCTYPE svg PUBLIC "-//W3C//DTD SVG 1.1//EN"
 "http://www.w3.org/Graphics/SVG/1.1/DTD/svg11.dtd">
<!-- Generated by graphviz version 2.38.0 (20140413.2041)
 -->
<!-- Title: activity_0 Pages: 1 -->
<svg width="1784pt" height="2445pt"
 viewBox="0.00 0.00 1784.00 2445.00" xmlns="http://www.w3.org/2000/svg" xmlns:xlink="http://www.w3.org/1999/xlink">
<g id="graph0" class="graph" transform="scale(1 1) rotate(0) translate(4 2441)">
<title>activity_0</title>
<polygon fill="white" stroke="none" points="-4,4 -4,-2441 1780,-2441 1780,4 -4,4"/>
<!-- state_0 -->
<g id="node1" class="node"><title>state_0</title>
<g id="a_node1"><a xlink:href="0.png" xlink:title="&lt;TABLE&gt;">
<polygon fill="none" stroke="black" points="1256,-2437 1126,-2437 1126,-2147 1256,-2147 1256,-2437"/>
<text text-anchor="start" x="1171" y="-2425.8" font-family="Times New Roman,serif" font-size="14.00">state_0</text>
<text text-anchor="start" x="1160.5" y="-2410.8" font-family="Times New Roman,serif" font-size="14.00">incoming:4</text>
<text text-anchor="start" x="1161.5" y="-2395.8" font-family="Times New Roman,serif" font-size="14.00">outgoing:7</text>
<text text-anchor="start" x="1173" y="-2380.8" font-family="Times New Roman,serif" font-size="14.00">loop:4</text>
<image xlink:href="0.png" width="130px" height="230px" preserveAspectRatio="xMinYMin meet" x="1126" y="-2377"/>
</a>
</g>
</g>
<!-- state_0&#45;&gt;state_0 -->
<g id="edge1" class="edge"><title>state_0&#45;&gt;state_0</title>
<path fill="none" stroke="black" d="M1256.07,-2299.37C1266.7,-2298.32 1274,-2295.86 1274,-2292 1274,-2289.53 1271,-2287.63 1266.06,-2286.31"/>
<polygon fill="black" stroke="black" points="1266.51,-2282.84 1256.07,-2284.63 1265.35,-2289.74 1266.51,-2282.84"/>
<text text-anchor="middle" x="1331.5" y="-2288.3" font-family="Times New Roman,serif" font-size="14.00"> &#160;&#160;click(&quot;index=1&quot;) &#160;&#160;</text>
</g>
<!-- state_0&#45;&gt;state_0 -->
<g id="edge4" class="edge"><title>state_0&#45;&gt;state_0</title>
<path fill="none" stroke="black" d="M1256.18,-2306.08C1315.03,-2310.95 1389,-2306.26 1389,-2292 1389,-2278.55 1323.17,-2273.61 1266.31,-2277.19"/>
<polygon fill="black" stroke="black" points="1265.9,-2273.71 1256.18,-2277.92 1266.41,-2280.69 1265.9,-2273.71"/>
<text text-anchor="middle" x="1442" y="-2288.3" font-family="Times New Roman,serif" font-size="14.00"> &#160;&#160;swipe(&quot;Right&quot;) &#160;&#160;</text>
</g>
<!-- state_0&#45;&gt;state_0 -->
<g id="edge5" class="edge"><title>state_0&#45;&gt;state_0</title>
<path fill="none" stroke="black" d="M1256.3,-2310.07C1347.47,-2321.84 1495,-2315.81 1495,-2292 1495,-2269.05 1357.94,-2262.62 1266.4,-2272.73"/>
<polygon fill="black" stroke="black" points="1265.82,-2269.27 1256.3,-2273.93 1266.65,-2276.22 1265.82,-2269.27"/>
<text text-anchor="middle" x="1544.5" y="-2288.3" font-family="Times New Roman,serif" font-size="14.00"> &#160;&#160;swipe(&quot;Left&quot;) &#160;&#160;</text>
</g>
<!-- state_0&#45;&gt;state_0 -->
<g id="edge6" class="edge"><title>state_0&#45;&gt;state_0</title>
<path fill="none" stroke="black" d="M1256.09,-2313.36C1372.62,-2332.57 1594,-2325.45 1594,-2292 1594,-2259.5 1384.98,-2251.85 1266.23,-2269.07"/>
<polygon fill="black" stroke="black" points="1265.44,-2265.65 1256.09,-2270.64 1266.5,-2272.57 1265.44,-2265.65"/>
<text text-anchor="middle" x="1658" y="-2288.3" font-family="Times New Roman,serif" font-size="14.00"> &#160;&#160;press(&quot;MenuKey&quot;) &#160;&#160;</text>
</g>
<!-- state_2 -->
<g id="node2" class="node"><title>state_2</title>
<g id="a_node2"><a xlink:href="2.png" xlink:title="&lt;TABLE&gt;">
<polygon fill="none" stroke="black" points="633,-2096 503,-2096 503,-1806 633,-1806 633,-2096"/>
<text text-anchor="start" x="548" y="-2084.8" font-family="Times New Roman,serif" font-size="14.00">state_2</text>
<text text-anchor="start" x="537.5" y="-2069.8" font-family="Times New Roman,serif" font-size="14.00">incoming:6</text>
<text text-anchor="start" x="538.5" y="-2054.8" font-family="Times New Roman,serif" font-size="14.00">outgoing:5</text>
<text text-anchor="start" x="550" y="-2039.8" font-family="Times New Roman,serif" font-size="14.00">loop:4</text>
<image xlink:href="2.png" width="130px" height="230px" preserveAspectRatio="xMinYMin meet" x="503" y="-2036"/>
</a>
</g>
</g>
<!-- state_0&#45;&gt;state_2 -->
<g id="edge2" class="edge"><title>state_0&#45;&gt;state_2</title>
<path fill="none" stroke="black" d="M1125.8,-2255.52C1009.06,-2192 765.079,-2059.24 642.154,-1992.35"/>
<polygon fill="black" stroke="black" points="643.614,-1989.16 633.157,-1987.45 640.268,-1995.31 643.614,-1989.16"/>
<text text-anchor="middle" x="936.5" y="-2117.8" font-family="Times New Roman,serif" font-size="14.00"> &#160;&#160;click(&quot;index=1&quot;) &#160;&#160;</text>
</g>
<!-- state_9 -->
<g id="node6" class="node"><title>state_9</title>
<g id="a_node6"><a xlink:href="9.png" xlink:title="&lt;TABLE&gt;">
<polygon fill="none" stroke="black" points="503,-732 373,-732 373,-442 503,-442 503,-732"/>
<text text-anchor="start" x="418" y="-720.8" font-family="Times New Roman,serif" font-size="14.00">state_9</text>
<text text-anchor="start" x="407.5" y="-705.8" font-family="Times New Roman,serif" font-size="14.00">incoming:6</text>
<text text-anchor="start" x="408.5" y="-690.8" font-family="Times New Roman,serif" font-size="14.00">outgoing:6</text>
<text text-anchor="start" x="420" y="-675.8" font-family="Times New Roman,serif" font-size="14.00">loop:4</text>
<image xlink:href="9.png" width="130px" height="230px" preserveAspectRatio="xMinYMin meet" x="373" y="-672"/>
</a>
</g>
</g>
<!-- state_0&#45;&gt;state_9 -->
<g id="edge3" class="edge"><title>state_0&#45;&gt;state_9</title>
<path fill="none" stroke="black" d="M1191,-2146.66C1191,-2086.48 1191,-2015.86 1191,-1952 1191,-1952 1191,-1952 1191,-927 1191,-848.088 1228.85,-809.485 1177,-750 1090.2,-650.427 683.588,-607.316 513.306,-593.412"/>
<polygon fill="black" stroke="black" points="513.419,-589.91 503.17,-592.596 512.857,-596.887 513.419,-589.91"/>
<text text-anchor="middle" x="1248.5" y="-1435.8" font-family="Times New Roman,serif" font-size="14.00"> &#160;&#160;click(&quot;index=3&quot;) &#160;&#160;</text>
</g>
<!-- final -->
<g id="node8" class="node"><title>final</title>
<image xlink:href="-2.png" width="50px" height="50px" preserveAspectRatio="xMinYMin meet" x="585" y="-50"/>
</g>
<!-- state_0&#45;&gt;final -->
<g id="edge7" class="edge"><title>state_0&#45;&gt;final</title>
<path fill="none" stroke="red" d="M1256.19,-2181.63C1288.63,-2117.1 1321,-2032.52 1321,-1952 1321,-1952 1321,-1952 1321,-245 1321,-162.538 1276.09,-141.043 1204,-101 1106.95,-47.0913 758.291,-30.9285 645.484,-27.0539"/>
<polygon fill="red" stroke="red" points="645.431,-23.5503 635.32,-26.7164 645.199,-30.5464 645.431,-23.5503"/>
<text text-anchor="middle" x="1383.5" y="-1094.8" font-family="Times New Roman,serif" font-size="14.00" fill="red"> &#160;&#160;press(&quot;BackKey&quot;) &#160;&#160;</text>
</g>
<!-- state_2&#45;&gt;state_2 -->
<g id="edge9" class="edge"><title>state_2&#45;&gt;state_2</title>
<path fill="none" stroke="black" d="M633.072,-1958.37C643.697,-1957.32 651,-1954.86 651,-1951 651,-1948.53 648.003,-1946.63 643.055,-1945.31"/>
<polygon fill="black" stroke="black" points="643.514,-1941.84 633.072,-1943.63 642.352,-1948.74 643.514,-1941.84"/>
<text text-anchor="middle" x="704" y="-1947.3" font-family="Times New Roman,serif" font-size="14.00"> &#160;&#160;swipe(&quot;Right&quot;) &#160;&#160;</text>
</g>
<!-- state_2&#45;&gt;state_2 -->
<g id="edge10" class="edge"><title>state_2&#45;&gt;state_2</title>
<path fill="none" stroke="black" d="M633.113,-1965.26C688.904,-1969.82 757,-1965.07 757,-1951 757,-1937.78 696.9,-1932.79 643.364,-1936.01"/>
<polygon fill="black" stroke="black" points="642.841,-1932.54 633.113,-1936.74 643.336,-1939.52 642.841,-1932.54"/>
<text text-anchor="middle" x="806.5" y="-1947.3" font-family="Times New Roman,serif" font-size="14.00"> &#160;&#160;swipe(&quot;Left&quot;) &#160;&#160;</text>
</g>
<!-- state_2&#45;&gt;state_2 -->
<g id="edge11" class="edge"><title>state_2&#45;&gt;state_2</title>
<path fill="none" stroke="black" d="M633.143,-1969.39C719.927,-1980.72 856,-1974.59 856,-1951 856,-1928.3 730.094,-1921.77 643.263,-1931.39"/>
<polygon fill="black" stroke="black" points="642.652,-1927.94 633.143,-1932.61 643.49,-1934.89 642.652,-1927.94"/>
<text text-anchor="middle" x="918.5" y="-1947.3" font-family="Times New Roman,serif" font-size="14.00"> &#160;&#160;press(&quot;BackKey&quot;) &#160;&#160;</text>
</g>
<!-- state_2&#45;&gt;state_2 -->
<g id="edge12" class="edge"><title>state_2&#45;&gt;state_2</title>
<path fill="none" stroke="black" d="M633.369,-1972.22C752.291,-1991.61 981,-1984.54 981,-1951 981,-1918.38 764.628,-1910.8 643.364,-1928.25"/>
<polygon fill="black" stroke="black" points="642.724,-1924.8 633.369,-1929.78 643.784,-1931.72 642.724,-1924.8"/>
<text text-anchor="middle" x="1045" y="-1947.3" font-family="Times New Roman,serif" font-size="14.00"> &#160;&#160;press(&quot;MenuKey&quot;) &#160;&#160;</text>
</g>
<!-- state_3 -->
<g id="node3" class="node"><title>state_3</title>
<g id="a_node3"><a xlink:href="3.png" xlink:title="&lt;TABLE&gt;">
<polygon fill="none" stroke="black" points="213,-1755 83,-1755 83,-1465 213,-1465 213,-1755"/>
<text text-anchor="start" x="128" y="-1743.8" font-family="Times New Roman,serif" font-size="14.00">state_3</text>
<text text-anchor="start" x="117.5" y="-1728.8" font-family="Times New Roman,serif" font-size="14.00">incoming:5</text>
<text text-anchor="start" x="118.5" y="-1713.8" font-family="Times New Roman,serif" font-size="14.00">outgoing:6</text>
<text text-anchor="start" x="130" y="-1698.8" font-family="Times New Roman,serif" font-size="14.00">loop:4</text>
<image xlink:href="3.png" width="130px" height="230px" preserveAspectRatio="xMinYMin meet" x="83" y="-1695"/>
</a>
</g>
</g>
<!-- state_2&#45;&gt;state_3 -->
<g id="edge8" class="edge"><title>state_2&#45;&gt;state_3</title>
<path fill="none" stroke="black" d="M502.836,-1897.4C426.652,-1835.91 300.883,-1734.4 221.344,-1670.2"/>
<polygon fill="black" stroke="black" points="223.297,-1667.28 213.317,-1663.72 218.9,-1672.72 223.297,-1667.28"/>
<text text-anchor="middle" x="403.5" y="-1776.8" font-family="Times New Roman,serif" font-size="14.00"> &#160;&#160;click(&quot;OK&quot;) &#160;&#160;</text>
</g>
<!-- state_3&#45;&gt;state_3 -->
<g id="edge13" class="edge"><title>state_3&#45;&gt;state_3</title>
<path fill="none" stroke="black" d="M213.072,-1617.37C223.697,-1616.32 231,-1613.86 231,-1610 231,-1607.53 228.003,-1605.63 223.055,-1604.31"/>
<polygon fill="black" stroke="black" points="223.514,-1600.84 213.072,-1602.63 222.352,-1607.74 223.514,-1600.84"/>
<text text-anchor="middle" x="288.5" y="-1606.3" font-family="Times New Roman,serif" font-size="14.00"> &#160;&#160;click(&quot;index=1&quot;) &#160;&#160;</text>
</g>
<!-- state_3&#45;&gt;state_3 -->
<g id="edge15" class="edge"><title>state_3&#45;&gt;state_3</title>
<path fill="none" stroke="black" d="M213.181,-1624.08C272.033,-1628.95 346,-1624.26 346,-1610 346,-1596.55 280.175,-1591.61 223.31,-1595.19"/>
<polygon fill="black" stroke="black" points="222.901,-1591.71 213.181,-1595.92 223.408,-1598.69 222.901,-1591.71"/>
<text text-anchor="middle" x="399" y="-1606.3" font-family="Times New Roman,serif" font-size="14.00"> &#160;&#160;swipe(&quot;Right&quot;) &#160;&#160;</text>
</g>
<!-- state_3&#45;&gt;state_3 -->
<g id="edge16" class="edge"><title>state_3&#45;&gt;state_3</title>
<path fill="none" stroke="black" d="M213.304,-1628.07C304.472,-1639.84 452,-1633.81 452,-1610 452,-1587.05 314.94,-1580.62 223.398,-1590.73"/>
<polygon fill="black" stroke="black" points="222.819,-1587.27 213.304,-1591.93 223.649,-1594.22 222.819,-1587.27"/>
<text text-anchor="middle" x="501.5" y="-1606.3" font-family="Times New Roman,serif" font-size="14.00"> &#160;&#160;swipe(&quot;Left&quot;) &#160;&#160;</text>
</g>
<!-- state_3&#45;&gt;state_3 -->
<g id="edge17" class="edge"><title>state_3&#45;&gt;state_3</title>
<path fill="none" stroke="black" d="M213.087,-1631.36C329.617,-1650.57 551,-1643.45 551,-1610 551,-1577.5 341.979,-1569.85 223.233,-1587.07"/>
<polygon fill="black" stroke="black" points="222.435,-1583.65 213.087,-1588.64 223.505,-1590.57 222.435,-1583.65"/>
<text text-anchor="middle" x="615" y="-1606.3" font-family="Times New Roman,serif" font-size="14.00"> &#160;&#160;press(&quot;MenuKey&quot;) &#160;&#160;</text>
</g>
<!-- state_5 -->
<g id="node4" class="node"><title>state_5</title>
<g id="a_node4"><a xlink:href="5.png" xlink:title="&lt;TABLE&gt;">
<polygon fill="none" stroke="black" points="213,-1414 83,-1414 83,-1124 213,-1124 213,-1414"/>
<text text-anchor="start" x="128" y="-1402.8" font-family="Times New Roman,serif" font-size="14.00">state_5</text>
<text text-anchor="start" x="117.5" y="-1387.8" font-family="Times New Roman,serif" font-size="14.00">incoming:6</text>
<text text-anchor="start" x="118.5" y="-1372.8" font-family="Times New Roman,serif" font-size="14.00">outgoing:6</text>
<text text-anchor="start" x="130" y="-1357.8" font-family="Times New Roman,serif" font-size="14.00">loop:4</text>
<image xlink:href="5.png" width="130px" height="230px" preserveAspectRatio="xMinYMin meet" x="83" y="-1354"/>
</a>
</g>
</g>
<!-- state_3&#45;&gt;state_5 -->
<g id="edge14" class="edge"><title>state_3&#45;&gt;state_5</title>
<path fill="none" stroke="black" d="M148,-1464.74C148,-1451.39 148,-1437.82 148,-1424.38"/>
<polygon fill="black" stroke="black" points="151.5,-1424.13 148,-1414.13 144.5,-1424.13 151.5,-1424.13"/>
<text text-anchor="middle" x="205.5" y="-1435.8" font-family="Times New Roman,serif" font-size="14.00"> &#160;&#160;click(&quot;index=0&quot;) &#160;&#160;</text>
</g>
<!-- state_3&#45;&gt;final -->
<g id="edge18" class="edge"><title>state_3&#45;&gt;final</title>
<path fill="none" stroke="red" d="M82.8697,-1516.17C43.163,-1450.54 0,-1358.78 0,-1270 0,-1270 0,-1270 0,-245 0,-144.276 83.4295,-142.955 175,-101 313.238,-37.6629 498.506,-27.4521 574.858,-26.0632"/>
<polygon fill="red" stroke="red" points="574.942,-29.5624 584.892,-25.9211 574.843,-22.5631 574.942,-29.5624"/>
<text text-anchor="middle" x="62.5" y="-753.8" font-family="Times New Roman,serif" font-size="14.00" fill="red"> &#160;&#160;press(&quot;BackKey&quot;) &#160;&#160;</text>
</g>
<!-- state_5&#45;&gt;state_5 -->
<g id="edge20" class="edge"><title>state_5&#45;&gt;state_5</title>
<path fill="none" stroke="black" d="M213.072,-1276.37C223.697,-1275.32 231,-1272.86 231,-1269 231,-1266.53 228.003,-1264.63 223.055,-1263.31"/>
<polygon fill="black" stroke="black" points="223.514,-1259.84 213.072,-1261.63 222.352,-1266.74 223.514,-1259.84"/>
<text text-anchor="middle" x="284" y="-1265.3" font-family="Times New Roman,serif" font-size="14.00"> &#160;&#160;swipe(&quot;Right&quot;) &#160;&#160;</text>
</g>
<!-- state_5&#45;&gt;state_5 -->
<g id="edge21" class="edge"><title>state_5&#45;&gt;state_5</title>
<path fill="none" stroke="black" d="M213.113,-1283.26C268.904,-1287.82 337,-1283.07 337,-1269 337,-1255.78 276.9,-1250.79 223.364,-1254.01"/>
<polygon fill="black" stroke="black" points="222.841,-1250.54 213.113,-1254.74 223.336,-1257.52 222.841,-1250.54"/>
<text text-anchor="middle" x="386.5" y="-1265.3" font-family="Times New Roman,serif" font-size="14.00"> &#160;&#160;swipe(&quot;Left&quot;) &#160;&#160;</text>
</g>
<!-- state_5&#45;&gt;state_5 -->
<g id="edge22" class="edge"><title>state_5&#45;&gt;state_5</title>
<path fill="none" stroke="black" d="M213.143,-1287.39C299.927,-1298.72 436,-1292.59 436,-1269 436,-1246.3 310.094,-1239.77 223.263,-1249.39"/>
<polygon fill="black" stroke="black" points="222.652,-1245.94 213.143,-1250.61 223.49,-1252.89 222.652,-1245.94"/>
<text text-anchor="middle" x="498.5" y="-1265.3" font-family="Times New Roman,serif" font-size="14.00"> &#160;&#160;press(&quot;BackKey&quot;) &#160;&#160;</text>
</g>
<!-- state_5&#45;&gt;state_5 -->
<g id="edge23" class="edge"><title>state_5&#45;&gt;state_5</title>
<path fill="none" stroke="black" d="M213.369,-1290.22C332.291,-1309.61 561,-1302.54 561,-1269 561,-1236.38 344.628,-1228.8 223.364,-1246.25"/>
<polygon fill="black" stroke="black" points="222.724,-1242.8 213.369,-1247.78 223.784,-1249.72 222.724,-1242.8"/>
<text text-anchor="middle" x="625" y="-1265.3" font-family="Times New Roman,serif" font-size="14.00"> &#160;&#160;press(&quot;MenuKey&quot;) &#160;&#160;</text>
</g>
<!-- state_6 -->
<g id="node5" class="node"><title>state_6</title>
<g id="a_node5"><a xlink:href="6.png" xlink:title="&lt;TABLE&gt;">
<polygon fill="none" stroke="black" points="399,-1073 269,-1073 269,-783 399,-783 399,-1073"/>
<text text-anchor="start" x="314" y="-1061.8" font-family="Times New Roman,serif" font-size="14.00">state_6</text>
<text text-anchor="start" x="303.5" y="-1046.8" font-family="Times New Roman,serif" font-size="14.00">incoming:5</text>
<text text-anchor="start" x="304.5" y="-1031.8" font-family="Times New Roman,serif" font-size="14.00">outgoing:7</text>
<text text-anchor="start" x="316" y="-1016.8" font-family="Times New Roman,serif" font-size="14.00">loop:4</text>
<image xlink:href="6.png" width="130px" height="230px" preserveAspectRatio="xMinYMin meet" x="269" y="-1013"/>
</a>
</g>
</g>
<!-- state_5&#45;&gt;state_6 -->
<g id="edge19" class="edge"><title>state_5&#45;&gt;state_6</title>
<path fill="none" stroke="black" d="M213.054,-1149.43C229.549,-1119.37 247.337,-1086.95 264.063,-1056.47"/>
<polygon fill="black" stroke="black" points="267.241,-1057.95 268.983,-1047.5 261.104,-1054.58 267.241,-1057.95"/>
<text text-anchor="middle" x="282.5" y="-1094.8" font-family="Times New Roman,serif" font-size="14.00"> &#160;&#160;click(&quot;行&quot;) &#160;&#160;</text>
</g>
<!-- activity_1 -->
<g id="node9" class="node"><title>activity_1</title>
<ellipse fill="none" stroke="red" cx="230" cy="-246" rx="46.2923" ry="18"/>
<text text-anchor="middle" x="230" y="-242.3" font-family="Times New Roman,serif" font-size="14.00" fill="red">activity_1</text>
</g>
<!-- state_5&#45;&gt;activity_1 -->
<g id="edge24" class="edge"><title>state_5&#45;&gt;activity_1</title>
<path fill="none" stroke="red" d="M140.278,-1123.99C136.375,-1019.9 134.427,-876.024 145,-750 160.385,-566.624 206.791,-349.56 223.727,-274.296"/>
<polygon fill="red" stroke="red" points="227.209,-274.767 226.004,-264.241 220.382,-273.221 227.209,-274.767"/>
<text text-anchor="middle" x="196.5" y="-753.8" font-family="Times New Roman,serif" font-size="14.00" fill="red"> &#160;&#160;click(&quot;給5星&quot;) &#160;&#160;</text>
</g>
<!-- state_6&#45;&gt;state_2 -->
<g id="edge26" class="edge"><title>state_6&#45;&gt;state_2</title>
<path fill="none" stroke="black" d="M399.36,-937.717C495.954,-954.504 673.811,-1001.25 752,-1124 902.682,-1360.57 845.758,-1494.42 742,-1755 720.836,-1808.15 678.307,-1856.25 640.594,-1891.38"/>
<polygon fill="black" stroke="black" points="638.128,-1888.9 633.123,-1898.23 642.859,-1894.05 638.128,-1888.9"/>
<text text-anchor="middle" x="899.5" y="-1435.8" font-family="Times New Roman,serif" font-size="14.00"> &#160;&#160;click(&quot;index=1&quot;) &#160;&#160;</text>
</g>
<!-- state_6&#45;&gt;state_6 -->
<g id="edge25" class="edge"><title>state_6&#45;&gt;state_6</title>
<path fill="none" stroke="black" d="M399.072,-935.373C409.697,-934.318 417,-931.86 417,-928 417,-925.527 414.003,-923.63 409.055,-922.308"/>
<polygon fill="black" stroke="black" points="409.514,-918.836 399.072,-920.627 408.352,-925.739 409.514,-918.836"/>
<text text-anchor="middle" x="474.5" y="-924.3" font-family="Times New Roman,serif" font-size="14.00"> &#160;&#160;click(&quot;index=1&quot;) &#160;&#160;</text>
</g>
<!-- state_6&#45;&gt;state_6 -->
<g id="edge28" class="edge"><title>state_6&#45;&gt;state_6</title>
<path fill="none" stroke="black" d="M399.181,-942.076C458.033,-946.948 532,-942.257 532,-928 532,-914.551 466.175,-909.614 409.31,-913.188"/>
<polygon fill="black" stroke="black" points="408.901,-909.709 399.181,-913.924 409.408,-916.69 408.901,-909.709"/>
<text text-anchor="middle" x="585" y="-924.3" font-family="Times New Roman,serif" font-size="14.00"> &#160;&#160;swipe(&quot;Right&quot;) &#160;&#160;</text>
</g>
<!-- state_6&#45;&gt;state_6 -->
<g id="edge29" class="edge"><title>state_6&#45;&gt;state_6</title>
<path fill="none" stroke="black" d="M399.304,-946.069C490.472,-957.836 638,-951.813 638,-928 638,-905.048 500.94,-898.623 409.398,-908.725"/>
<polygon fill="black" stroke="black" points="408.819,-905.269 399.304,-909.931 409.649,-912.22 408.819,-905.269"/>
<text text-anchor="middle" x="687.5" y="-924.3" font-family="Times New Roman,serif" font-size="14.00"> &#160;&#160;swipe(&quot;Left&quot;) &#160;&#160;</text>
</g>
<!-- state_6&#45;&gt;state_6 -->
<g id="edge30" class="edge"><title>state_6&#45;&gt;state_6</title>
<path fill="none" stroke="black" d="M399.087,-949.365C515.617,-968.574 737,-961.452 737,-928 737,-895.495 527.979,-887.851 409.233,-905.066"/>
<polygon fill="black" stroke="black" points="408.435,-901.648 399.087,-906.635 409.505,-908.566 408.435,-901.648"/>
<text text-anchor="middle" x="801" y="-924.3" font-family="Times New Roman,serif" font-size="14.00"> &#160;&#160;press(&quot;MenuKey&quot;) &#160;&#160;</text>
</g>
<!-- state_6&#45;&gt;state_9 -->
<g id="edge27" class="edge"><title>state_6&#45;&gt;state_9</title>
<path fill="none" stroke="black" d="M378.256,-782.742C382.394,-769.256 386.598,-755.552 390.761,-741.981"/>
<polygon fill="black" stroke="black" points="394.197,-742.715 393.784,-732.128 387.505,-740.662 394.197,-742.715"/>
<text text-anchor="middle" x="443.5" y="-753.8" font-family="Times New Roman,serif" font-size="14.00"> &#160;&#160;click(&quot;index=3&quot;) &#160;&#160;</text>
</g>
<!-- state_6&#45;&gt;activity_1 -->
<g id="edge31" class="edge"><title>state_6&#45;&gt;activity_1</title>
<path fill="none" stroke="red" d="M270.056,-782.827C264.209,-771.584 258.16,-760.521 252,-750 247.014,-741.484 242.123,-741.361 239,-732 183.62,-566.01 212.209,-349.967 224.943,-274.471"/>
<polygon fill="red" stroke="red" points="228.434,-274.826 226.695,-264.375 221.537,-273.629 228.434,-274.826"/>
<text text-anchor="middle" x="301.5" y="-583.3" font-family="Times New Roman,serif" font-size="14.00" fill="red"> &#160;&#160;press(&quot;BackKey&quot;) &#160;&#160;</text>
</g>
<!-- state_9&#45;&gt;state_9 -->
<g id="edge33" class="edge"><title>state_9&#45;&gt;state_9</title>
<path fill="none" stroke="black" d="M503.072,-594.373C513.697,-593.318 521,-590.86 521,-587 521,-584.527 518.003,-582.63 513.055,-581.308"/>
<polygon fill="black" stroke="black" points="513.514,-577.836 503.072,-579.627 512.352,-584.739 513.514,-577.836"/>
<text text-anchor="middle" x="574" y="-583.3" font-family="Times New Roman,serif" font-size="14.00"> &#160;&#160;swipe(&quot;Right&quot;) &#160;&#160;</text>
</g>
<!-- state_9&#45;&gt;state_9 -->
<g id="edge34" class="edge"><title>state_9&#45;&gt;state_9</title>
<path fill="none" stroke="black" d="M503.113,-601.262C558.904,-605.824 627,-601.07 627,-587 627,-573.782 566.9,-568.786 513.364,-572.012"/>
<polygon fill="black" stroke="black" points="512.841,-568.54 503.113,-572.738 513.336,-575.522 512.841,-568.54"/>
<text text-anchor="middle" x="676.5" y="-583.3" font-family="Times New Roman,serif" font-size="14.00"> &#160;&#160;swipe(&quot;Left&quot;) &#160;&#160;</text>
</g>
<!-- state_9&#45;&gt;state_9 -->
<g id="edge35" class="edge"><title>state_9&#45;&gt;state_9</title>
<path fill="none" stroke="black" d="M503.143,-605.387C589.927,-616.724 726,-610.595 726,-587 726,-564.304 600.094,-557.768 513.263,-567.393"/>
<polygon fill="black" stroke="black" points="512.652,-563.941 503.143,-568.613 513.49,-570.891 512.652,-563.941"/>
<text text-anchor="middle" x="788.5" y="-583.3" font-family="Times New Roman,serif" font-size="14.00"> &#160;&#160;press(&quot;BackKey&quot;) &#160;&#160;</text>
</g>
<!-- state_9&#45;&gt;state_9 -->
<g id="edge36" class="edge"><title>state_9&#45;&gt;state_9</title>
<path fill="none" stroke="black" d="M503.369,-608.221C622.291,-627.609 851,-620.535 851,-587 851,-554.382 634.628,-546.798 513.364,-564.248"/>
<polygon fill="black" stroke="black" points="512.724,-560.805 503.369,-565.779 513.784,-567.724 512.724,-560.805"/>
<text text-anchor="middle" x="915" y="-583.3" font-family="Times New Roman,serif" font-size="14.00"> &#160;&#160;press(&quot;MenuKey&quot;) &#160;&#160;</text>
</g>
<!-- state_10 -->
<g id="node7" class="node"><title>state_10</title>
<g id="a_node7"><a xlink:href="10.png" xlink:title="&lt;TABLE&gt;">
<polygon fill="none" stroke="black" points="675,-391 545,-391 545,-101 675,-101 675,-391"/>
<text text-anchor="start" x="586.5" y="-379.8" font-family="Times New Roman,serif" font-size="14.00">state_10</text>
<text text-anchor="start" x="579.5" y="-364.8" font-family="Times New Roman,serif" font-size="14.00">incoming:5</text>
<text text-anchor="start" x="580.5" y="-349.8" font-family="Times New Roman,serif" font-size="14.00">outgoing:6</text>
<text text-anchor="start" x="592" y="-334.8" font-family="Times New Roman,serif" font-size="14.00">loop:4</text>
<image xlink:href="10.png" width="130px" height="230px" preserveAspectRatio="xMinYMin meet" x="545" y="-331"/>
</a>
</g>
</g>
<!-- state_9&#45;&gt;state_10 -->
<g id="edge32" class="edge"><title>state_9&#45;&gt;state_10</title>
<path fill="none" stroke="black" d="M503.026,-457.839C515.173,-433.898 527.915,-408.785 540.199,-384.573"/>
<polygon fill="black" stroke="black" points="543.479,-385.844 544.882,-375.343 537.236,-382.677 543.479,-385.844"/>
<text text-anchor="middle" x="569.5" y="-412.8" font-family="Times New Roman,serif" font-size="14.00"> &#160;&#160;click(&quot;OK&quot;) &#160;&#160;</text>
</g>
<!-- state_9&#45;&gt;activity_1 -->
<g id="edge37" class="edge"><title>state_9&#45;&gt;activity_1</title>
<path fill="none" stroke="red" d="M372.782,-465.361C368.189,-457.414 363.568,-449.568 359,-442 321.386,-379.69 273.178,-309.004 247.669,-272.242"/>
<polygon fill="red" stroke="red" points="250.278,-269.862 241.693,-263.652 244.531,-273.86 250.278,-269.862"/>
<text text-anchor="middle" x="397.5" y="-412.8" font-family="Times New Roman,serif" font-size="14.00" fill="red"> &#160;&#160;click(&quot;給5星&quot;) &#160;&#160;</text>
</g>
<!-- state_10&#45;&gt;state_5 -->
<g id="edge39" class="edge"><title>state_10&#45;&gt;state_5</title>
<path fill="none" stroke="black" d="M675.015,-254.603C774.151,-270.086 960.198,-315.326 1042,-442 1196.6,-681.405 1137.18,-879.459 928,-1073 824.467,-1168.79 398.282,-1234.87 223.405,-1258.45"/>
<polygon fill="black" stroke="black" points="222.705,-1255.01 213.258,-1259.8 223.634,-1261.95 222.705,-1255.01"/>
<text text-anchor="middle" x="1182.5" y="-753.8" font-family="Times New Roman,serif" font-size="14.00"> &#160;&#160;click(&quot;index=0&quot;) &#160;&#160;</text>
</g>
<!-- state_10&#45;&gt;state_10 -->
<g id="edge38" class="edge"><title>state_10&#45;&gt;state_10</title>
<path fill="none" stroke="black" d="M675.072,-253.373C685.697,-252.318 693,-249.86 693,-246 693,-243.527 690.003,-241.63 685.055,-240.308"/>
<polygon fill="black" stroke="black" points="685.514,-236.836 675.072,-238.627 684.352,-243.739 685.514,-236.836"/>
<text text-anchor="middle" x="750.5" y="-242.3" font-family="Times New Roman,serif" font-size="14.00"> &#160;&#160;click(&quot;index=1&quot;) &#160;&#160;</text>
</g>
<!-- state_10&#45;&gt;state_10 -->
<g id="edge40" class="edge"><title>state_10&#45;&gt;state_10</title>
<path fill="none" stroke="black" d="M675.181,-260.076C734.033,-264.948 808,-260.257 808,-246 808,-232.551 742.175,-227.614 685.31,-231.188"/>
<polygon fill="black" stroke="black" points="684.901,-227.709 675.181,-231.924 685.408,-234.69 684.901,-227.709"/>
<text text-anchor="middle" x="861" y="-242.3" font-family="Times New Roman,serif" font-size="14.00"> &#160;&#160;swipe(&quot;Right&quot;) &#160;&#160;</text>
</g>
<!-- state_10&#45;&gt;state_10 -->
<g id="edge41" class="edge"><title>state_10&#45;&gt;state_10</title>
<path fill="none" stroke="black" d="M675.304,-264.069C766.472,-275.836 914,-269.813 914,-246 914,-223.048 776.94,-216.623 685.398,-226.725"/>
<polygon fill="black" stroke="black" points="684.819,-223.269 675.304,-227.931 685.649,-230.22 684.819,-223.269"/>
<text text-anchor="middle" x="963.5" y="-242.3" font-family="Times New Roman,serif" font-size="14.00"> &#160;&#160;swipe(&quot;Left&quot;) &#160;&#160;</text>
</g>
<!-- state_10&#45;&gt;state_10 -->
<g id="edge42" class="edge"><title>state_10&#45;&gt;state_10</title>
<path fill="none" stroke="black" d="M675.087,-267.365C791.617,-286.574 1013,-279.452 1013,-246 1013,-213.495 803.979,-205.851 685.233,-223.066"/>
<polygon fill="black" stroke="black" points="684.435,-219.648 675.087,-224.635 685.505,-226.566 684.435,-219.648"/>
<text text-anchor="middle" x="1077" y="-242.3" font-family="Times New Roman,serif" font-size="14.00"> &#160;&#160;press(&quot;MenuKey&quot;) &#160;&#160;</text>
</g>
<!-- state_10&#45;&gt;final -->
<g id="edge43" class="edge"><title>state_10&#45;&gt;final</title>
<path fill="none" stroke="red" d="M610,-100.755C610,-85.9168 610,-72.0283 610,-60.3452"/>
<polygon fill="red" stroke="red" points="613.5,-60.2719 610,-50.2719 606.5,-60.272 613.5,-60.2719"/>
<text text-anchor="middle" x="672.5" y="-71.8" font-family="Times New Roman,serif" font-size="14.00" fill="red"> &#160;&#160;press(&quot;BackKey&quot;) &#160;&#160;</text>
</g>
</g>
</svg>
