<?xml version="1.0" encoding="UTF-8" standalone="no"?>
<!DOCTYPE svg PUBLIC "-//W3C//DTD SVG 1.1//EN"
 "http://www.w3.org/Graphics/SVG/1.1/DTD/svg11.dtd">
<!-- Generated by graphviz version 2.38.0 (20140413.2041)
 -->
<!-- Title: result Pages: 1 -->
<svg width="567pt" height="283pt"
 viewBox="0.00 0.00 567.29 283.00" xmlns="http://www.w3.org/2000/svg" xmlns:xlink="http://www.w3.org/1999/xlink">
<g id="graph0" class="graph" transform="scale(1 1) rotate(0) translate(4 279)">
<title>result</title>
<polygon fill="white" stroke="none" points="-4,4 -4,-279 563.292,-279 563.292,4 -4,4"/>
<!-- initial -->
<g id="node1" class="node"><title>initial</title>
<image xlink:href="-1.png" width="50px" height="50px" preserveAspectRatio="xMinYMin meet" x="0" y="-162.5"/>
</g>
<!-- activity_0 -->
<g id="node2" class="node"><title>activity_0</title>
<g id="a_node2"><a xlink:href="activity_0.svg" xlink:title="&lt;TABLE&gt;">
<polygon fill="none" stroke="black" points="217,-275 87,-275 87,-0 217,-0 217,-275"/>
<text text-anchor="start" x="124.5" y="-263.3" font-family="Times New Roman,serif" font-size="14.00">activity_0</text>
<text text-anchor="start" x="121.5" y="-248.3" font-family="Times New Roman,serif" font-size="14.00">incoming:0</text>
<text text-anchor="start" x="122.5" y="-233.3" font-family="Times New Roman,serif" font-size="14.00">outgoing:6</text>
<image xlink:href="0.png" width="130px" height="230px" preserveAspectRatio="xMinYMin meet" x="87" y="-229.5"/>
</a>
</g>
</g>
<!-- initial&#45;&gt;activity_0 -->
<g id="edge1" class="edge"><title>initial&#45;&gt;activity_0</title>
<path fill="none" stroke="black" d="M50.1013,-137.5C57.9994,-137.5 67.2332,-137.5 76.8484,-137.5"/>
<polygon fill="black" stroke="black" points="76.9667,-141 86.9666,-137.5 76.9666,-134 76.9667,-141"/>
</g>
<!-- final -->
<g id="node3" class="node"><title>final</title>
<image xlink:href="-2.png" width="50px" height="50px" preserveAspectRatio="xMinYMin meet" x="488.146" y="-219.5"/>
</g>
<!-- activity_0&#45;&gt;final -->
<g id="edge2" class="edge"><title>activity_0&#45;&gt;final</title>
<path fill="none" stroke="black" d="M217.381,-201.778C223.049,-205.214 228.943,-208.195 235,-210.5 317.728,-241.989 424.402,-220.06 478.082,-205.153"/>
<polygon fill="black" stroke="black" points="479.131,-208.494 487.78,-202.375 477.203,-201.764 479.131,-208.494"/>
<text text-anchor="middle" x="342" y="-230.3" font-family="Times New Roman,serif" font-size="14.00"> &#160;&#160;&lt;a0.s0,press(&quot;BackKey&quot;),final&gt; &#160;&#160;</text>
</g>
<!-- activity_0&#45;&gt;final -->
<g id="edge3" class="edge"><title>activity_0&#45;&gt;final</title>
<path fill="none" stroke="black" d="M217.235,-167.201C223.159,-169.242 229.138,-171.057 235,-172.5 257.967,-178.152 408.244,-188.047 477.409,-192.373"/>
<polygon fill="black" stroke="black" points="477.583,-195.891 487.781,-193.018 478.018,-188.904 477.583,-195.891"/>
<text text-anchor="middle" x="342" y="-193.3" font-family="Times New Roman,serif" font-size="14.00"> &#160;&#160;&lt;a0.s3,press(&quot;BackKey&quot;),final&gt; &#160;&#160;</text>
</g>
<!-- activity_0&#45;&gt;final -->
<g id="edge7" class="edge"><title>activity_0&#45;&gt;final</title>
<path fill="none" stroke="black" d="M217.015,-137.117C290.869,-137.348 407.468,-139.97 449,-153.5 459.657,-156.972 470.26,-162.718 479.649,-168.825"/>
<polygon fill="black" stroke="black" points="477.67,-171.712 487.896,-174.481 481.628,-165.939 477.67,-171.712"/>
<text text-anchor="middle" x="342" y="-157.3" font-family="Times New Roman,serif" font-size="14.00"> &#160;&#160;&lt;a0.s10,press(&quot;BackKey&quot;),final&gt; &#160;&#160;</text>
</g>
<!-- activity_1 -->
<g id="node4" class="node"><title>activity_1</title>
<ellipse fill="none" stroke="black" cx="513.146" cy="-80.5" rx="46.2923" ry="18"/>
<text text-anchor="middle" x="513.146" y="-76.8" font-family="Times New Roman,serif" font-size="14.00">activity_1</text>
</g>
<!-- activity_0&#45;&gt;activity_1 -->
<g id="edge4" class="edge"><title>activity_0&#45;&gt;activity_1</title>
<path fill="none" stroke="black" d="M217.33,-122.684C223.288,-121.522 229.246,-120.438 235,-119.5 329.413,-104.111 354.846,-113.401 449,-96.5 454.155,-95.5746 459.512,-94.4604 464.828,-93.256"/>
<polygon fill="black" stroke="black" points="466.018,-96.5708 474.939,-90.8545 464.401,-89.7602 466.018,-96.5708"/>
<text text-anchor="middle" x="342" y="-123.3" font-family="Times New Roman,serif" font-size="14.00"> &#160;&#160;&lt;a0.s5,click(&quot;給5星&quot;),a1.s30&gt; &#160;&#160;</text>
</g>
<!-- activity_0&#45;&gt;activity_1 -->
<g id="edge5" class="edge"><title>activity_0&#45;&gt;activity_1</title>
<path fill="none" stroke="black" d="M217.217,-85.0963C223.004,-82.0769 228.964,-79.4726 235,-77.5 310.998,-52.6651 405.096,-61.3325 461.783,-70.4747"/>
<polygon fill="black" stroke="black" points="461.477,-73.9724 471.919,-72.1793 462.638,-67.0693 461.477,-73.9724"/>
<text text-anchor="middle" x="342" y="-81.3" font-family="Times New Roman,serif" font-size="14.00"> &#160;&#160;&lt;a0.s6,press(&quot;BackKey&quot;),a1.s30&gt; &#160;&#160;</text>
</g>
<!-- activity_0&#45;&gt;activity_1 -->
<g id="edge6" class="edge"><title>activity_0&#45;&gt;activity_1</title>
<path fill="none" stroke="black" d="M217.114,-52.1715C222.761,-48.0231 228.73,-44.3905 235,-41.5 321.375,-1.68295 357.505,-15.5231 449,-41.5 461.395,-45.0192 473.742,-51.74 484.187,-58.6241"/>
<polygon fill="black" stroke="black" points="482.262,-61.5488 492.472,-64.3785 486.255,-55.7994 482.262,-61.5488"/>
<text text-anchor="middle" x="342" y="-45.3" font-family="Times New Roman,serif" font-size="14.00"> &#160;&#160;&lt;a0.s9,click(&quot;給5星&quot;),a1.s30&gt; &#160;&#160;</text>
</g>
</g>
</svg>
