<?xml version="1.0" encoding="UTF-8" standalone="no"?>
<!DOCTYPE svg PUBLIC "-//W3C//DTD SVG 1.1//EN"
 "http://www.w3.org/Graphics/SVG/1.1/DTD/svg11.dtd">
<!-- Generated by graphviz version 2.38.0 (20140413.2041)
 -->
<!-- Title: g Pages: 1 -->
<svg width="1784pt" height="2228pt"
 viewBox="0.00 0.00 1784.00 2228.00" xmlns="http://www.w3.org/2000/svg" xmlns:xlink="http://www.w3.org/1999/xlink">
<g id="graph0" class="graph" transform="scale(1 1) rotate(0) translate(4 2224)">
<title>g</title>
<polygon fill="white" stroke="none" points="-4,4 -4,-2224 1780,-2224 1780,4 -4,4"/>
<text text-anchor="middle" x="888" y="-7.8" font-family="Times New Roman,serif" font-size="14.00"> &#160;&#160;activity_1 &#160;&#160;</text>
<!-- state_0 -->
<g id="node1" class="node"><title>state_0</title>
<g id="a_node1"><a xlink:href="0.png">
<polygon fill="none" stroke="black" points="1256,-2220 1126,-2220 1126,-1990 1256,-1990 1256,-2220"/>
<image xlink:href="0.png" width="130px" height="230px" preserveAspectRatio="xMinYMin meet" x="1126" y="-2220"/>
</a>
</g>
</g>
<!-- state_0&#45;&gt;state_0 -->
<g id="edge1" class="edge"><title>state_0&#45;&gt;state_0</title>
<path fill="none" stroke="black" d="M1256.07,-2111.07C1266.7,-2110.2 1274,-2108.18 1274,-2105 1274,-2102.96 1271,-2101.4 1266.06,-2100.31"/>
<polygon fill="black" stroke="black" points="1266.46,-2096.84 1256.07,-2098.93 1265.5,-2103.77 1266.46,-2096.84"/>
<text text-anchor="middle" x="1331.5" y="-2101.3" font-family="Times New Roman,serif" font-size="14.00"> &#160;&#160;click(&quot;index=1&quot;) &#160;&#160;</text>
</g>
<!-- state_0&#45;&gt;state_0 -->
<g id="edge4" class="edge"><title>state_0&#45;&gt;state_0</title>
<path fill="none" stroke="black" d="M1256.18,-2116.59C1315.03,-2120.6 1389,-2116.74 1389,-2105 1389,-2093.92 1323.17,-2089.86 1266.31,-2092.8"/>
<polygon fill="black" stroke="black" points="1265.95,-2089.32 1256.18,-2093.41 1266.37,-2096.3 1265.95,-2089.32"/>
<text text-anchor="middle" x="1442" y="-2101.3" font-family="Times New Roman,serif" font-size="14.00"> &#160;&#160;swipe(&quot;Right&quot;) &#160;&#160;</text>
</g>
<!-- state_0&#45;&gt;state_0 -->
<g id="edge5" class="edge"><title>state_0&#45;&gt;state_0</title>
<path fill="none" stroke="black" d="M1256.3,-2119.88C1347.47,-2129.57 1495,-2124.61 1495,-2105 1495,-2086.1 1357.94,-2080.81 1266.4,-2089.13"/>
<polygon fill="black" stroke="black" points="1265.91,-2085.66 1256.3,-2090.12 1266.6,-2092.62 1265.91,-2085.66"/>
<text text-anchor="middle" x="1544.5" y="-2101.3" font-family="Times New Roman,serif" font-size="14.00"> &#160;&#160;swipe(&quot;Left&quot;) &#160;&#160;</text>
</g>
<!-- state_0&#45;&gt;state_0 -->
<g id="edge6" class="edge"><title>state_0&#45;&gt;state_0</title>
<path fill="none" stroke="black" d="M1256.09,-2122.59C1372.62,-2138.41 1594,-2132.55 1594,-2105 1594,-2078.23 1384.98,-2071.94 1266.23,-2086.11"/>
<polygon fill="black" stroke="black" points="1265.57,-2082.67 1256.09,-2087.41 1266.45,-2089.61 1265.57,-2082.67"/>
<text text-anchor="middle" x="1658" y="-2101.3" font-family="Times New Roman,serif" font-size="14.00"> &#160;&#160;press(&quot;MenuKey&quot;) &#160;&#160;</text>
</g>
<!-- state_2 -->
<g id="node2" class="node"><title>state_2</title>
<g id="a_node2"><a xlink:href="2.png">
<polygon fill="none" stroke="black" points="633,-1939 503,-1939 503,-1709 633,-1709 633,-1939"/>
<image xlink:href="2.png" width="130px" height="230px" preserveAspectRatio="xMinYMin meet" x="503" y="-1939"/>
</a>
</g>
</g>
<!-- state_0&#45;&gt;state_2 -->
<g id="edge2" class="edge"><title>state_0&#45;&gt;state_2</title>
<path fill="none" stroke="black" d="M1125.8,-2074.8C1009.17,-2022.57 765.567,-1913.48 642.524,-1858.37"/>
<polygon fill="black" stroke="black" points="643.714,-1855.07 633.157,-1854.18 640.853,-1861.46 643.714,-1855.07"/>
<text text-anchor="middle" x="936.5" y="-1960.8" font-family="Times New Roman,serif" font-size="14.00"> &#160;&#160;click(&quot;index=1&quot;) &#160;&#160;</text>
</g>
<!-- state_9 -->
<g id="node6" class="node"><title>state_9</title>
<g id="a_node6"><a xlink:href="9.png">
<polygon fill="none" stroke="black" points="503,-815 373,-815 373,-585 503,-585 503,-815"/>
<image xlink:href="9.png" width="130px" height="230px" preserveAspectRatio="xMinYMin meet" x="373" y="-815"/>
</a>
</g>
</g>
<!-- state_0&#45;&gt;state_9 -->
<g id="edge3" class="edge"><title>state_0&#45;&gt;state_9</title>
<path fill="none" stroke="black" d="M1191,-1989.98C1191,-1939.43 1191,-1879.25 1191,-1825 1191,-1825 1191,-1825 1191,-980 1191,-912.736 1203.92,-879.161 1155,-833 1063.02,-746.218 677.809,-714.49 513.156,-704.743"/>
<polygon fill="black" stroke="black" points="513.295,-701.245 503.108,-704.16 512.889,-708.234 513.295,-701.245"/>
<text text-anchor="middle" x="1248.5" y="-1398.8" font-family="Times New Roman,serif" font-size="14.00"> &#160;&#160;click(&quot;index=3&quot;) &#160;&#160;</text>
</g>
<!-- state_final -->
<g id="node8" class="node"><title>state_final</title>
<g id="a_node8"><a xlink:href="-2.png">
<polygon fill="none" stroke="black" points="705,-253 575,-253 575,-23 705,-23 705,-253"/>
<image xlink:href="-2.png" width="76px" height="74px" preserveAspectRatio="xMinYMin meet" x="602" y="-175"/>
</a>
</g>
</g>
<!-- state_0&#45;&gt;state_final -->
<g id="edge7" class="edge"><title>state_0&#45;&gt;state_final</title>
<path fill="none" stroke="black" d="M1256.19,-2015.49C1288.63,-1962.88 1321,-1893.27 1321,-1825 1321,-1825 1321,-1825 1321,-418 1321,-354.264 1286.78,-339.721 1234,-304 1070.78,-193.547 835.055,-156.622 715.566,-144.595"/>
<polygon fill="black" stroke="black" points="715.711,-141.093 705.419,-143.606 715.032,-148.06 715.711,-141.093"/>
<text text-anchor="middle" x="1383.5" y="-1117.8" font-family="Times New Roman,serif" font-size="14.00"> &#160;&#160;press(&quot;BackKey&quot;) &#160;&#160;</text>
</g>
<!-- state_2&#45;&gt;state_2 -->
<g id="edge9" class="edge"><title>state_2&#45;&gt;state_2</title>
<path fill="none" stroke="black" d="M633.072,-1830.07C643.697,-1829.2 651,-1827.18 651,-1824 651,-1821.96 648.003,-1820.4 643.055,-1819.31"/>
<polygon fill="black" stroke="black" points="643.458,-1815.84 633.072,-1817.93 642.496,-1822.77 643.458,-1815.84"/>
<text text-anchor="middle" x="704" y="-1820.3" font-family="Times New Roman,serif" font-size="14.00"> &#160;&#160;swipe(&quot;Right&quot;) &#160;&#160;</text>
</g>
<!-- state_2&#45;&gt;state_2 -->
<g id="edge10" class="edge"><title>state_2&#45;&gt;state_2</title>
<path fill="none" stroke="black" d="M633.113,-1835.75C688.904,-1839.5 757,-1835.59 757,-1824 757,-1813.11 696.9,-1809 643.364,-1811.66"/>
<polygon fill="black" stroke="black" points="642.892,-1808.18 633.113,-1812.25 643.3,-1815.17 642.892,-1808.18"/>
<text text-anchor="middle" x="806.5" y="-1820.3" font-family="Times New Roman,serif" font-size="14.00"> &#160;&#160;swipe(&quot;Left&quot;) &#160;&#160;</text>
</g>
<!-- state_2&#45;&gt;state_2 -->
<g id="edge11" class="edge"><title>state_2&#45;&gt;state_2</title>
<path fill="none" stroke="black" d="M633.143,-1839.14C719.927,-1848.48 856,-1843.43 856,-1824 856,-1805.31 730.094,-1799.93 643.263,-1807.85"/>
<polygon fill="black" stroke="black" points="642.748,-1804.39 633.143,-1808.86 643.44,-1811.35 642.748,-1804.39"/>
<text text-anchor="middle" x="918.5" y="-1820.3" font-family="Times New Roman,serif" font-size="14.00"> &#160;&#160;press(&quot;BackKey&quot;) &#160;&#160;</text>
</g>
<!-- state_2&#45;&gt;state_2 -->
<g id="edge12" class="edge"><title>state_2&#45;&gt;state_2</title>
<path fill="none" stroke="black" d="M633.369,-1841.48C752.291,-1857.44 981,-1851.62 981,-1824 981,-1797.14 764.628,-1790.89 643.364,-1805.26"/>
<polygon fill="black" stroke="black" points="642.852,-1801.8 633.369,-1806.52 643.729,-1808.74 642.852,-1801.8"/>
<text text-anchor="middle" x="1045" y="-1820.3" font-family="Times New Roman,serif" font-size="14.00"> &#160;&#160;press(&quot;MenuKey&quot;) &#160;&#160;</text>
</g>
<!-- state_3 -->
<g id="node3" class="node"><title>state_3</title>
<g id="a_node3"><a xlink:href="3.png">
<polygon fill="none" stroke="black" points="213,-1658 83,-1658 83,-1428 213,-1428 213,-1658"/>
<image xlink:href="3.png" width="130px" height="230px" preserveAspectRatio="xMinYMin meet" x="83" y="-1658"/>
</a>
</g>
</g>
<!-- state_2&#45;&gt;state_3 -->
<g id="edge8" class="edge"><title>state_2&#45;&gt;state_3</title>
<path fill="none" stroke="black" d="M502.836,-1779.71C426.806,-1729.21 301.391,-1645.9 221.827,-1593.04"/>
<polygon fill="black" stroke="black" points="223.583,-1590.01 213.317,-1587.39 219.71,-1595.84 223.583,-1590.01"/>
<text text-anchor="middle" x="403.5" y="-1679.8" font-family="Times New Roman,serif" font-size="14.00"> &#160;&#160;click(&quot;OK&quot;) &#160;&#160;</text>
</g>
<!-- state_3&#45;&gt;state_3 -->
<g id="edge13" class="edge"><title>state_3&#45;&gt;state_3</title>
<path fill="none" stroke="black" d="M213.072,-1549.07C223.697,-1548.2 231,-1546.18 231,-1543 231,-1540.96 228.003,-1539.4 223.055,-1538.31"/>
<polygon fill="black" stroke="black" points="223.458,-1534.84 213.072,-1536.93 222.496,-1541.77 223.458,-1534.84"/>
<text text-anchor="middle" x="288.5" y="-1539.3" font-family="Times New Roman,serif" font-size="14.00"> &#160;&#160;click(&quot;index=1&quot;) &#160;&#160;</text>
</g>
<!-- state_3&#45;&gt;state_3 -->
<g id="edge15" class="edge"><title>state_3&#45;&gt;state_3</title>
<path fill="none" stroke="black" d="M213.181,-1554.59C272.033,-1558.6 346,-1554.74 346,-1543 346,-1531.92 280.175,-1527.86 223.31,-1530.8"/>
<polygon fill="black" stroke="black" points="222.954,-1527.32 213.181,-1531.41 223.372,-1534.3 222.954,-1527.32"/>
<text text-anchor="middle" x="399" y="-1539.3" font-family="Times New Roman,serif" font-size="14.00"> &#160;&#160;swipe(&quot;Right&quot;) &#160;&#160;</text>
</g>
<!-- state_3&#45;&gt;state_3 -->
<g id="edge16" class="edge"><title>state_3&#45;&gt;state_3</title>
<path fill="none" stroke="black" d="M213.304,-1557.88C304.472,-1567.57 452,-1562.61 452,-1543 452,-1524.1 314.94,-1518.81 223.398,-1527.13"/>
<polygon fill="black" stroke="black" points="222.914,-1523.66 213.304,-1528.12 223.599,-1530.62 222.914,-1523.66"/>
<text text-anchor="middle" x="501.5" y="-1539.3" font-family="Times New Roman,serif" font-size="14.00"> &#160;&#160;swipe(&quot;Left&quot;) &#160;&#160;</text>
</g>
<!-- state_3&#45;&gt;state_3 -->
<g id="edge17" class="edge"><title>state_3&#45;&gt;state_3</title>
<path fill="none" stroke="black" d="M213.087,-1560.59C329.617,-1576.41 551,-1570.55 551,-1543 551,-1516.23 341.979,-1509.94 223.233,-1524.11"/>
<polygon fill="black" stroke="black" points="222.565,-1520.67 213.087,-1525.41 223.45,-1527.61 222.565,-1520.67"/>
<text text-anchor="middle" x="615" y="-1539.3" font-family="Times New Roman,serif" font-size="14.00"> &#160;&#160;press(&quot;MenuKey&quot;) &#160;&#160;</text>
</g>
<!-- state_5 -->
<g id="node4" class="node"><title>state_5</title>
<g id="a_node4"><a xlink:href="5.png">
<polygon fill="none" stroke="black" points="213,-1377 83,-1377 83,-1147 213,-1147 213,-1377"/>
<image xlink:href="5.png" width="130px" height="230px" preserveAspectRatio="xMinYMin meet" x="83" y="-1377"/>
</a>
</g>
</g>
<!-- state_3&#45;&gt;state_5 -->
<g id="edge14" class="edge"><title>state_3&#45;&gt;state_5</title>
<path fill="none" stroke="black" d="M148,-1427.72C148,-1414.4 148,-1400.78 148,-1387.34"/>
<polygon fill="black" stroke="black" points="151.5,-1387.11 148,-1377.11 144.5,-1387.11 151.5,-1387.11"/>
<text text-anchor="middle" x="205.5" y="-1398.8" font-family="Times New Roman,serif" font-size="14.00"> &#160;&#160;click(&quot;index=0&quot;) &#160;&#160;</text>
</g>
<!-- state_3&#45;&gt;state_final -->
<g id="edge18" class="edge"><title>state_3&#45;&gt;state_final</title>
<path fill="none" stroke="black" d="M82.8697,-1467.33C43.163,-1414.1 0,-1338.8 0,-1263 0,-1263 0,-1263 0,-418 0,-174.048 395.576,-141.233 564.736,-138.353"/>
<polygon fill="black" stroke="black" points="564.864,-141.851 574.814,-138.212 564.766,-134.852 564.864,-141.851"/>
<text text-anchor="middle" x="62.5" y="-836.8" font-family="Times New Roman,serif" font-size="14.00"> &#160;&#160;press(&quot;BackKey&quot;) &#160;&#160;</text>
</g>
<!-- state_5&#45;&gt;state_5 -->
<g id="edge20" class="edge"><title>state_5&#45;&gt;state_5</title>
<path fill="none" stroke="black" d="M213.072,-1268.07C223.697,-1267.2 231,-1265.18 231,-1262 231,-1259.96 228.003,-1258.4 223.055,-1257.31"/>
<polygon fill="black" stroke="black" points="223.458,-1253.84 213.072,-1255.93 222.496,-1260.77 223.458,-1253.84"/>
<text text-anchor="middle" x="284" y="-1258.3" font-family="Times New Roman,serif" font-size="14.00"> &#160;&#160;swipe(&quot;Right&quot;) &#160;&#160;</text>
</g>
<!-- state_5&#45;&gt;state_5 -->
<g id="edge21" class="edge"><title>state_5&#45;&gt;state_5</title>
<path fill="none" stroke="black" d="M213.113,-1273.75C268.904,-1277.5 337,-1273.59 337,-1262 337,-1251.11 276.9,-1247 223.364,-1249.66"/>
<polygon fill="black" stroke="black" points="222.892,-1246.18 213.113,-1250.25 223.3,-1253.17 222.892,-1246.18"/>
<text text-anchor="middle" x="386.5" y="-1258.3" font-family="Times New Roman,serif" font-size="14.00"> &#160;&#160;swipe(&quot;Left&quot;) &#160;&#160;</text>
</g>
<!-- state_5&#45;&gt;state_5 -->
<g id="edge22" class="edge"><title>state_5&#45;&gt;state_5</title>
<path fill="none" stroke="black" d="M213.143,-1277.14C299.927,-1286.48 436,-1281.43 436,-1262 436,-1243.31 310.094,-1237.93 223.263,-1245.85"/>
<polygon fill="black" stroke="black" points="222.748,-1242.39 213.143,-1246.86 223.44,-1249.35 222.748,-1242.39"/>
<text text-anchor="middle" x="498.5" y="-1258.3" font-family="Times New Roman,serif" font-size="14.00"> &#160;&#160;press(&quot;BackKey&quot;) &#160;&#160;</text>
</g>
<!-- state_5&#45;&gt;state_5 -->
<g id="edge23" class="edge"><title>state_5&#45;&gt;state_5</title>
<path fill="none" stroke="black" d="M213.369,-1279.48C332.291,-1295.44 561,-1289.62 561,-1262 561,-1235.14 344.628,-1228.89 223.364,-1243.26"/>
<polygon fill="black" stroke="black" points="222.852,-1239.8 213.369,-1244.52 223.729,-1246.74 222.852,-1239.8"/>
<text text-anchor="middle" x="625" y="-1258.3" font-family="Times New Roman,serif" font-size="14.00"> &#160;&#160;press(&quot;MenuKey&quot;) &#160;&#160;</text>
</g>
<!-- state_6 -->
<g id="node5" class="node"><title>state_6</title>
<g id="a_node5"><a xlink:href="6.png">
<polygon fill="none" stroke="black" points="347,-1096 217,-1096 217,-866 347,-866 347,-1096"/>
<image xlink:href="6.png" width="130px" height="230px" preserveAspectRatio="xMinYMin meet" x="217" y="-1096"/>
</a>
</g>
</g>
<!-- state_5&#45;&gt;state_6 -->
<g id="edge19" class="edge"><title>state_5&#45;&gt;state_6</title>
<path fill="none" stroke="black" d="M202.89,-1146.72C209.471,-1133.01 216.213,-1118.97 222.851,-1105.15"/>
<polygon fill="black" stroke="black" points="226.021,-1106.64 227.196,-1096.11 219.711,-1103.61 226.021,-1106.64"/>
<text text-anchor="middle" x="256.5" y="-1117.8" font-family="Times New Roman,serif" font-size="14.00"> &#160;&#160;click(&quot;行&quot;) &#160;&#160;</text>
</g>
<!-- state_30 -->
<g id="node9" class="node"><title>state_30</title>
<g id="a_node9"><a xlink:href="30.png">
<polygon fill="none" stroke="black" points="295,-534 165,-534 165,-304 295,-304 295,-534"/>
<image xlink:href="30.png" width="130px" height="230px" preserveAspectRatio="xMinYMin meet" x="165" y="-534"/>
</a>
</g>
</g>
<!-- state_5&#45;&gt;state_30 -->
<g id="edge24" class="edge"><title>state_5&#45;&gt;state_30</title>
<path fill="none" stroke="black" d="M140.491,-1146.69C136.44,-1060.3 134.216,-938.898 145,-833 154.996,-734.849 178.025,-625.578 197.594,-544.098"/>
<polygon fill="black" stroke="black" points="201.014,-544.845 199.962,-534.302 194.21,-543.2 201.014,-544.845"/>
<text text-anchor="middle" x="196.5" y="-836.8" font-family="Times New Roman,serif" font-size="14.00"> &#160;&#160;click(&quot;給5星&quot;) &#160;&#160;</text>
</g>
<!-- state_6&#45;&gt;state_2 -->
<g id="edge26" class="edge"><title>state_6&#45;&gt;state_2</title>
<path fill="none" stroke="black" d="M347.342,-982.828C453.024,-988.13 658.987,-1015.77 752,-1147 883.353,-1332.33 835.403,-1450.94 742,-1658 720.675,-1705.28 678.899,-1745.61 641.627,-1774.57"/>
<polygon fill="black" stroke="black" points="639.094,-1772.1 633.259,-1780.94 643.335,-1777.67 639.094,-1772.1"/>
<text text-anchor="middle" x="887.5" y="-1398.8" font-family="Times New Roman,serif" font-size="14.00"> &#160;&#160;click(&quot;index=1&quot;) &#160;&#160;</text>
</g>
<!-- state_6&#45;&gt;state_6 -->
<g id="edge25" class="edge"><title>state_6&#45;&gt;state_6</title>
<path fill="none" stroke="black" d="M347.072,-987.072C357.697,-986.203 365,-984.179 365,-981 365,-978.964 362.003,-977.401 357.055,-976.313"/>
<polygon fill="black" stroke="black" points="357.458,-972.835 347.072,-974.928 356.496,-979.769 357.458,-972.835"/>
<text text-anchor="middle" x="422.5" y="-977.3" font-family="Times New Roman,serif" font-size="14.00"> &#160;&#160;click(&quot;index=1&quot;) &#160;&#160;</text>
</g>
<!-- state_6&#45;&gt;state_6 -->
<g id="edge28" class="edge"><title>state_6&#45;&gt;state_6</title>
<path fill="none" stroke="black" d="M347.181,-992.592C406.033,-996.605 480,-992.741 480,-981 480,-969.924 414.175,-965.858 357.31,-968.802"/>
<polygon fill="black" stroke="black" points="356.954,-965.317 347.181,-969.408 357.372,-972.305 356.954,-965.317"/>
<text text-anchor="middle" x="533" y="-977.3" font-family="Times New Roman,serif" font-size="14.00"> &#160;&#160;swipe(&quot;Right&quot;) &#160;&#160;</text>
</g>
<!-- state_6&#45;&gt;state_6 -->
<g id="edge29" class="edge"><title>state_6&#45;&gt;state_6</title>
<path fill="none" stroke="black" d="M347.304,-995.88C438.472,-1005.57 586,-1000.61 586,-981 586,-962.098 448.94,-956.807 357.398,-965.127"/>
<polygon fill="black" stroke="black" points="356.914,-961.657 347.304,-966.12 357.599,-968.624 356.914,-961.657"/>
<text text-anchor="middle" x="635.5" y="-977.3" font-family="Times New Roman,serif" font-size="14.00"> &#160;&#160;swipe(&quot;Left&quot;) &#160;&#160;</text>
</g>
<!-- state_6&#45;&gt;state_6 -->
<g id="edge30" class="edge"><title>state_6&#45;&gt;state_6</title>
<path fill="none" stroke="black" d="M347.087,-998.595C463.617,-1014.41 685,-1008.55 685,-981 685,-954.231 475.979,-947.936 357.233,-962.114"/>
<polygon fill="black" stroke="black" points="356.565,-958.67 347.087,-963.405 357.45,-965.614 356.565,-958.67"/>
<text text-anchor="middle" x="749" y="-977.3" font-family="Times New Roman,serif" font-size="14.00"> &#160;&#160;press(&quot;MenuKey&quot;) &#160;&#160;</text>
</g>
<!-- state_6&#45;&gt;state_9 -->
<g id="edge27" class="edge"><title>state_6&#45;&gt;state_9</title>
<path fill="none" stroke="black" d="M345.901,-865.715C353.563,-852.012 361.412,-837.974 369.14,-824.153"/>
<polygon fill="black" stroke="black" points="372.373,-825.544 374.198,-815.107 366.263,-822.127 372.373,-825.544"/>
<text text-anchor="middle" x="417.5" y="-836.8" font-family="Times New Roman,serif" font-size="14.00"> &#160;&#160;click(&quot;index=3&quot;) &#160;&#160;</text>
</g>
<!-- state_6&#45;&gt;state_30 -->
<g id="edge31" class="edge"><title>state_6&#45;&gt;state_30</title>
<path fill="none" stroke="black" d="M263.713,-865.739C260.423,-854.47 256.552,-843.376 252,-833 248.036,-823.963 242.143,-824.354 239,-815 209.722,-727.858 208.632,-623.701 214.241,-544.227"/>
<polygon fill="black" stroke="black" points="217.737,-544.402 214.995,-534.168 210.757,-543.878 217.737,-544.402"/>
<text text-anchor="middle" x="301.5" y="-696.3" font-family="Times New Roman,serif" font-size="14.00"> &#160;&#160;press(&quot;BackKey&quot;) &#160;&#160;</text>
</g>
<!-- state_9&#45;&gt;state_9 -->
<g id="edge33" class="edge"><title>state_9&#45;&gt;state_9</title>
<path fill="none" stroke="black" d="M503.072,-706.072C513.697,-705.203 521,-703.179 521,-700 521,-697.964 518.003,-696.401 513.055,-695.313"/>
<polygon fill="black" stroke="black" points="513.458,-691.835 503.072,-693.928 512.496,-698.769 513.458,-691.835"/>
<text text-anchor="middle" x="574" y="-696.3" font-family="Times New Roman,serif" font-size="14.00"> &#160;&#160;swipe(&quot;Right&quot;) &#160;&#160;</text>
</g>
<!-- state_9&#45;&gt;state_9 -->
<g id="edge34" class="edge"><title>state_9&#45;&gt;state_9</title>
<path fill="none" stroke="black" d="M503.113,-711.745C558.904,-715.502 627,-711.587 627,-700 627,-689.115 566.9,-685 513.364,-687.657"/>
<polygon fill="black" stroke="black" points="512.892,-684.178 503.113,-688.255 513.3,-691.166 512.892,-684.178"/>
<text text-anchor="middle" x="676.5" y="-696.3" font-family="Times New Roman,serif" font-size="14.00"> &#160;&#160;swipe(&quot;Left&quot;) &#160;&#160;</text>
</g>
<!-- state_9&#45;&gt;state_9 -->
<g id="edge35" class="edge"><title>state_9&#45;&gt;state_9</title>
<path fill="none" stroke="black" d="M503.143,-715.143C589.927,-724.479 726,-719.431 726,-700 726,-681.309 600.094,-675.927 513.263,-683.853"/>
<polygon fill="black" stroke="black" points="512.748,-680.387 503.143,-684.857 513.44,-687.353 512.748,-680.387"/>
<text text-anchor="middle" x="788.5" y="-696.3" font-family="Times New Roman,serif" font-size="14.00"> &#160;&#160;press(&quot;BackKey&quot;) &#160;&#160;</text>
</g>
<!-- state_9&#45;&gt;state_9 -->
<g id="edge36" class="edge"><title>state_9&#45;&gt;state_9</title>
<path fill="none" stroke="black" d="M503.369,-717.477C622.291,-733.443 851,-727.617 851,-700 851,-673.138 634.628,-666.892 513.364,-681.263"/>
<polygon fill="black" stroke="black" points="512.852,-677.799 503.369,-682.523 513.729,-684.744 512.852,-677.799"/>
<text text-anchor="middle" x="915" y="-696.3" font-family="Times New Roman,serif" font-size="14.00"> &#160;&#160;press(&quot;MenuKey&quot;) &#160;&#160;</text>
</g>
<!-- state_10 -->
<g id="node7" class="node"><title>state_10</title>
<g id="a_node7"><a xlink:href="10.png">
<polygon fill="none" stroke="black" points="705,-534 575,-534 575,-304 705,-304 705,-534"/>
<image xlink:href="10.png" width="130px" height="230px" preserveAspectRatio="xMinYMin meet" x="575" y="-534"/>
</a>
</g>
</g>
<!-- state_9&#45;&gt;state_10 -->
<g id="edge32" class="edge"><title>state_9&#45;&gt;state_10</title>
<path fill="none" stroke="black" d="M503.026,-609.187C524.005,-580.211 547.366,-547.945 568.769,-518.384"/>
<polygon fill="black" stroke="black" points="571.72,-520.275 574.75,-510.123 566.05,-516.17 571.72,-520.275"/>
<text text-anchor="middle" x="584.5" y="-555.8" font-family="Times New Roman,serif" font-size="14.00"> &#160;&#160;click(&quot;OK&quot;) &#160;&#160;</text>
</g>
<!-- state_9&#45;&gt;state_30 -->
<g id="edge37" class="edge"><title>state_9&#45;&gt;state_30</title>
<path fill="none" stroke="black" d="M372.89,-604.149C368.231,-597.639 363.569,-591.204 359,-585 340.79,-560.273 320.556,-533.904 301.614,-509.667"/>
<polygon fill="black" stroke="black" points="304.167,-507.249 295.245,-501.535 298.656,-511.566 304.167,-507.249"/>
<text text-anchor="middle" x="397.5" y="-555.8" font-family="Times New Roman,serif" font-size="14.00"> &#160;&#160;click(&quot;給5星&quot;) &#160;&#160;</text>
</g>
<!-- state_10&#45;&gt;state_5 -->
<g id="edge39" class="edge"><title>state_10&#45;&gt;state_5</title>
<path fill="none" stroke="black" d="M705.258,-425.171C798.355,-436.459 966.375,-472.212 1042,-585 1098.93,-669.903 1068.95,-716.394 1042,-815 1003.76,-954.921 993.203,-1010.54 876,-1096 771.512,-1172.19 387.503,-1229.87 223.29,-1251.59"/>
<polygon fill="black" stroke="black" points="222.728,-1248.13 213.269,-1252.91 223.64,-1255.07 222.728,-1248.13"/>
<text text-anchor="middle" x="1093.5" y="-836.8" font-family="Times New Roman,serif" font-size="14.00"> &#160;&#160;click(&quot;index=0&quot;) &#160;&#160;</text>
</g>
<!-- state_10&#45;&gt;state_10 -->
<g id="edge38" class="edge"><title>state_10&#45;&gt;state_10</title>
<path fill="none" stroke="black" d="M705.072,-425.072C715.697,-424.203 723,-422.179 723,-419 723,-416.964 720.003,-415.401 715.055,-414.313"/>
<polygon fill="black" stroke="black" points="715.458,-410.835 705.072,-412.928 714.496,-417.769 715.458,-410.835"/>
<text text-anchor="middle" x="780.5" y="-415.3" font-family="Times New Roman,serif" font-size="14.00"> &#160;&#160;click(&quot;index=1&quot;) &#160;&#160;</text>
</g>
<!-- state_10&#45;&gt;state_10 -->
<g id="edge40" class="edge"><title>state_10&#45;&gt;state_10</title>
<path fill="none" stroke="black" d="M705.181,-430.592C764.033,-434.605 838,-430.741 838,-419 838,-407.924 772.175,-403.858 715.31,-406.802"/>
<polygon fill="black" stroke="black" points="714.954,-403.317 705.181,-407.408 715.372,-410.305 714.954,-403.317"/>
<text text-anchor="middle" x="891" y="-415.3" font-family="Times New Roman,serif" font-size="14.00"> &#160;&#160;swipe(&quot;Right&quot;) &#160;&#160;</text>
</g>
<!-- state_10&#45;&gt;state_10 -->
<g id="edge41" class="edge"><title>state_10&#45;&gt;state_10</title>
<path fill="none" stroke="black" d="M705.304,-433.88C796.472,-443.571 944,-438.611 944,-419 944,-400.098 806.94,-394.807 715.398,-403.127"/>
<polygon fill="black" stroke="black" points="714.914,-399.657 705.304,-404.12 715.599,-406.624 714.914,-399.657"/>
<text text-anchor="middle" x="993.5" y="-415.3" font-family="Times New Roman,serif" font-size="14.00"> &#160;&#160;swipe(&quot;Left&quot;) &#160;&#160;</text>
</g>
<!-- state_10&#45;&gt;state_10 -->
<g id="edge42" class="edge"><title>state_10&#45;&gt;state_10</title>
<path fill="none" stroke="black" d="M705.087,-436.595C821.617,-452.414 1043,-446.549 1043,-419 1043,-392.231 833.979,-385.936 715.233,-400.114"/>
<polygon fill="black" stroke="black" points="714.565,-396.67 705.087,-401.405 715.45,-403.614 714.565,-396.67"/>
<text text-anchor="middle" x="1107" y="-415.3" font-family="Times New Roman,serif" font-size="14.00"> &#160;&#160;press(&quot;MenuKey&quot;) &#160;&#160;</text>
</g>
<!-- state_10&#45;&gt;state_final -->
<g id="edge43" class="edge"><title>state_10&#45;&gt;state_final</title>
<path fill="none" stroke="black" d="M640,-303.715C640,-290.404 640,-276.776 640,-263.338"/>
<polygon fill="black" stroke="black" points="643.5,-263.107 640,-253.107 636.5,-263.107 643.5,-263.107"/>
<text text-anchor="middle" x="702.5" y="-274.8" font-family="Times New Roman,serif" font-size="14.00"> &#160;&#160;press(&quot;BackKey&quot;) &#160;&#160;</text>
</g>
</g>
</svg>
