<?xml version="1.0" encoding="UTF-8" standalone="no"?>
<!DOCTYPE svg PUBLIC "-//W3C//DTD SVG 1.1//EN"
 "http://www.w3.org/Graphics/SVG/1.1/DTD/svg11.dtd">
<!-- Generated by graphviz version 2.38.0 (20140413.2041)
 -->
<!-- Title: activity_3 Pages: 1 -->
<svg width="495pt" height="385pt"
 viewBox="0.00 0.00 495.09 385.00" xmlns="http://www.w3.org/2000/svg" xmlns:xlink="http://www.w3.org/1999/xlink">
<g id="graph0" class="graph" transform="scale(1 1) rotate(0) translate(4 381)">
<title>activity_3</title>
<polygon fill="white" stroke="none" points="-4,4 -4,-381 491.094,-381 491.094,4 -4,4"/>
<!-- state_13 -->
<g id="node1" class="node"><title>state_13</title>
<g id="a_node1"><a xlink:href="13.png" xlink:title="&lt;TABLE&gt;">
<polygon fill="none" stroke="black" points="285.094,-290 155.094,-290 155.094,-0 285.094,-0 285.094,-290"/>
<text text-anchor="start" x="196.594" y="-278.8" font-family="Times New Roman,serif" font-size="14.00">state_13</text>
<text text-anchor="start" x="189.594" y="-263.8" font-family="Times New Roman,serif" font-size="14.00">incoming:4</text>
<text text-anchor="start" x="190.594" y="-248.8" font-family="Times New Roman,serif" font-size="14.00">outgoing:0</text>
<text text-anchor="start" x="202.094" y="-233.8" font-family="Times New Roman,serif" font-size="14.00">loop:0</text>
<image xlink:href="13.png" width="130px" height="230px" preserveAspectRatio="xMinYMin meet" x="155.094" y="-230"/>
</a>
</g>
</g>
<!-- activity_1 -->
<g id="node2" class="node"><title>activity_1</title>
<ellipse fill="none" stroke="red" cx="220.094" cy="-359" rx="46.2923" ry="18"/>
<text text-anchor="middle" x="220.094" y="-355.3" font-family="Times New Roman,serif" font-size="14.00" fill="red">activity_1</text>
</g>
<!-- activity_1&#45;&gt;state_13 -->
<g id="edge1" class="edge"><title>activity_1&#45;&gt;state_13</title>
<path fill="none" stroke="red" d="M174.138,-356.846C119.794,-354.398 34.1631,-346.767 14.0937,-323 -36.9911,-262.504 67.5789,-205.214 145.58,-172.955"/>
<polygon fill="red" stroke="red" points="147.003,-176.155 154.948,-169.146 144.366,-169.67 147.003,-176.155"/>
<text text-anchor="middle" x="71.5937" y="-311.8" font-family="Times New Roman,serif" font-size="14.00" fill="red"> &#160;&#160;click(&quot;index=0&quot;) &#160;&#160;</text>
</g>
<!-- activity_1&#45;&gt;state_13 -->
<g id="edge2" class="edge"><title>activity_1&#45;&gt;state_13</title>
<path fill="none" stroke="red" d="M183.533,-347.793C171.374,-342.467 159.146,-334.562 152.094,-323 148.622,-317.309 150.778,-314.535 152.094,-308 152.607,-305.449 153.162,-302.888 153.755,-300.321"/>
<polygon fill="red" stroke="red" points="157.207,-300.943 156.223,-290.394 150.414,-299.254 157.207,-300.943"/>
<text text-anchor="middle" x="209.594" y="-311.8" font-family="Times New Roman,serif" font-size="14.00" fill="red"> &#160;&#160;click(&quot;index=0&quot;) &#160;&#160;</text>
</g>
<!-- activity_1&#45;&gt;state_13 -->
<g id="edge3" class="edge"><title>activity_1&#45;&gt;state_13</title>
<path fill="none" stroke="red" d="M247.087,-344.303C255.006,-338.832 262.711,-331.728 267.094,-323 270.755,-315.708 273.21,-308.099 274.664,-300.31"/>
<polygon fill="red" stroke="red" points="278.139,-300.732 275.985,-290.359 271.199,-299.811 278.139,-300.732"/>
<text text-anchor="middle" x="325.094" y="-311.8" font-family="Times New Roman,serif" font-size="14.00" fill="red"> &#160;&#160;swipe(&quot;Right&quot;) &#160;&#160;</text>
</g>
<!-- activity_1&#45;&gt;state_13 -->
<g id="edge4" class="edge"><title>activity_1&#45;&gt;state_13</title>
<path fill="none" stroke="red" d="M264.853,-354.524C307.597,-350.164 367.592,-340.969 382.094,-323 422.8,-272.56 354.177,-218.047 294.088,-183.046"/>
<polygon fill="red" stroke="red" points="295.717,-179.946 285.298,-178.026 292.246,-186.025 295.717,-179.946"/>
<text text-anchor="middle" x="437.594" y="-311.8" font-family="Times New Roman,serif" font-size="14.00" fill="red"> &#160;&#160;swipe(&quot;Left&quot;) &#160;&#160;</text>
</g>
</g>
</svg>
