<?xml version="1.0" encoding="UTF-8" standalone="no"?>
<!DOCTYPE svg PUBLIC "-//W3C//DTD SVG 1.1//EN"
 "http://www.w3.org/Graphics/SVG/1.1/DTD/svg11.dtd">
<!-- Generated by graphviz version 2.38.0 (20140413.2041)
 -->
<!-- Title: activity_0 Pages: 1 -->
<svg width="575pt" height="399pt"
 viewBox="0.00 0.00 574.99 399.00" xmlns="http://www.w3.org/2000/svg" xmlns:xlink="http://www.w3.org/1999/xlink">
<g id="graph0" class="graph" transform="scale(1 1) rotate(0) translate(4 395)">
<title>activity_0</title>
<polygon fill="white" stroke="none" points="-4,4 -4,-395 570.99,-395 570.99,4 -4,4"/>
<!-- state_0 -->
<g id="node1" class="node"><title>state_0</title>
<g id="a_node1"><a xlink:href="0.png" xlink:title="&lt;TABLE&gt;">
<polygon fill="none" stroke="black" points="179.99,-391 49.9905,-391 49.9905,-101 179.99,-101 179.99,-391"/>
<text text-anchor="start" x="94.9905" y="-379.8" font-family="Times New Roman,serif" font-size="14.00">state_0</text>
<text text-anchor="start" x="84.4905" y="-364.8" font-family="Times New Roman,serif" font-size="14.00">incoming:4</text>
<text text-anchor="start" x="85.4905" y="-349.8" font-family="Times New Roman,serif" font-size="14.00">outgoing:5</text>
<text text-anchor="start" x="96.9905" y="-334.8" font-family="Times New Roman,serif" font-size="14.00">loop:3</text>
<image xlink:href="0.png" width="130px" height="230px" preserveAspectRatio="xMinYMin meet" x="49.9905" y="-331"/>
</a>
</g>
</g>
<!-- state_0&#45;&gt;state_0 -->
<g id="edge1" class="edge"><title>state_0&#45;&gt;state_0</title>
<path fill="none" stroke="black" d="M180.062,-255.831C190.688,-254.423 197.99,-251.146 197.99,-246 197.99,-242.703 194.994,-240.173 190.046,-238.411"/>
<polygon fill="black" stroke="black" points="190.586,-234.945 180.062,-236.169 189.053,-241.775 190.586,-234.945"/>
<text text-anchor="middle" x="250.99" y="-242.3" font-family="Times New Roman,serif" font-size="14.00"> &#160;&#160;swipe(&quot;Right&quot;) &#160;&#160;</text>
</g>
<!-- state_0&#45;&gt;state_0 -->
<g id="edge2" class="edge"><title>state_0&#45;&gt;state_0</title>
<path fill="none" stroke="black" d="M180.104,-265.016C235.894,-271.099 303.99,-264.76 303.99,-246 303.99,-228.376 243.89,-221.715 190.355,-226.016"/>
<polygon fill="black" stroke="black" points="189.73,-222.559 180.104,-226.984 190.388,-229.528 189.73,-222.559"/>
<text text-anchor="middle" x="353.49" y="-242.3" font-family="Times New Roman,serif" font-size="14.00"> &#160;&#160;swipe(&quot;Left&quot;) &#160;&#160;</text>
</g>
<!-- state_0&#45;&gt;state_0 -->
<g id="edge3" class="edge"><title>state_0&#45;&gt;state_0</title>
<path fill="none" stroke="black" d="M180.133,-270.517C266.917,-285.632 402.99,-277.46 402.99,-246 402.99,-215.738 277.085,-207.024 190.253,-219.858"/>
<polygon fill="black" stroke="black" points="189.452,-216.441 180.133,-221.483 190.562,-223.353 189.452,-216.441"/>
<text text-anchor="middle" x="466.99" y="-242.3" font-family="Times New Roman,serif" font-size="14.00"> &#160;&#160;press(&quot;MenuKey&quot;) &#160;&#160;</text>
</g>
<!-- activity_1 -->
<g id="node2" class="node"><title>activity_1</title>
<ellipse fill="none" stroke="red" cx="57.9905" cy="-25" rx="46.2923" ry="18"/>
<text text-anchor="middle" x="57.9905" y="-21.3" font-family="Times New Roman,serif" font-size="14.00" fill="red">activity_1</text>
</g>
<!-- state_0&#45;&gt;activity_1 -->
<g id="edge4" class="edge"><title>state_0&#45;&gt;activity_1</title>
<path fill="none" stroke="red" d="M49.9086,-171.872C30.603,-145.675 11.9641,-114.732 1.99046,-83 -0.00852865,-76.6401 -0.990965,-73.9628 1.99046,-68 6.46787,-59.0452 13.8629,-51.5043 21.8341,-45.3947"/>
<polygon fill="red" stroke="red" points="24.0359,-48.1268 30.2513,-39.5466 20.0418,-42.3781 24.0359,-48.1268"/>
<text text-anchor="middle" x="47.4905" y="-71.8" font-family="Times New Roman,serif" font-size="14.00" fill="red"> &#160;&#160;click(&quot;OK&quot;) &#160;&#160;</text>
</g>
<!-- final -->
<g id="node3" class="node"><title>final</title>
<image xlink:href="-2.png" width="50px" height="50px" preserveAspectRatio="xMinYMin meet" x="237.99" y="-50"/>
</g>
<!-- state_0&#45;&gt;final -->
<g id="edge5" class="edge"><title>state_0&#45;&gt;final</title>
<path fill="none" stroke="red" d="M180.172,-153.54C196.079,-130.68 212.866,-106.092 227.99,-83 233.076,-75.2362 238.397,-66.7645 243.311,-58.7836"/>
<polygon fill="red" stroke="red" points="246.424,-60.403 248.653,-50.0454 240.451,-56.7522 246.424,-60.403"/>
<text text-anchor="middle" x="298.49" y="-71.8" font-family="Times New Roman,serif" font-size="14.00" fill="red"> &#160;&#160;press(&quot;BackKey&quot;) &#160;&#160;</text>
</g>
<!-- activity_1&#45;&gt;state_0 -->
<g id="edge6" class="edge"><title>activity_1&#45;&gt;state_0</title>
<path fill="none" stroke="red" d="M75.1041,-42.0538C81.7901,-49.3197 88.8363,-58.4212 92.9905,-68 96.1875,-75.3719 98.9625,-83.068 101.368,-90.9467"/>
<polygon fill="red" stroke="red" points="98.0219,-91.9761 104.123,-100.638 104.755,-90.0622 98.0219,-91.9761"/>
<text text-anchor="middle" x="161.49" y="-71.8" font-family="Times New Roman,serif" font-size="14.00" fill="red"> &#160;&#160;press(&quot;BackKey&quot;) &#160;&#160;</text>
</g>
</g>
</svg>
