<?xml version="1.0" encoding="UTF-8" standalone="no"?>
<!DOCTYPE svg PUBLIC "-//W3C//DTD SVG 1.1//EN"
 "http://www.w3.org/Graphics/SVG/1.1/DTD/svg11.dtd">
<!-- Generated by graphviz version 2.38.0 (20140413.2041)
 -->
<!-- Title: activity_1 Pages: 1 -->
<svg width="1096pt" height="726pt"
 viewBox="0.00 0.00 1095.66 726.00" xmlns="http://www.w3.org/2000/svg" xmlns:xlink="http://www.w3.org/1999/xlink">
<g id="graph0" class="graph" transform="scale(1 1) rotate(0) translate(4 722)">
<title>activity_1</title>
<polygon fill="white" stroke="none" points="-4,4 -4,-722 1091.66,-722 1091.66,4 -4,4"/>
<!-- state_1 -->
<g id="node1" class="node"><title>state_1</title>
<g id="a_node1"><a xlink:href="1.png" xlink:title="&lt;TABLE&gt;">
<polygon fill="none" stroke="black" points="432.655,-718 302.655,-718 302.655,-428 432.655,-428 432.655,-718"/>
<text text-anchor="start" x="347.655" y="-706.8" font-family="Times New Roman,serif" font-size="14.00">state_1</text>
<text text-anchor="start" x="337.155" y="-691.8" font-family="Times New Roman,serif" font-size="14.00">incoming:8</text>
<text text-anchor="start" x="338.155" y="-676.8" font-family="Times New Roman,serif" font-size="14.00">outgoing:7</text>
<text text-anchor="start" x="349.655" y="-661.8" font-family="Times New Roman,serif" font-size="14.00">loop:5</text>
<image xlink:href="1.png" width="130px" height="230px" preserveAspectRatio="xMinYMin meet" x="302.655" y="-658"/>
</a>
</g>
</g>
<!-- state_1&#45;&gt;state_1 -->
<g id="edge1" class="edge"><title>state_1&#45;&gt;state_1</title>
<path fill="none" stroke="black" d="M432.727,-578.898C443.353,-578.054 450.655,-576.088 450.655,-573 450.655,-571.022 447.658,-569.504 442.711,-568.447"/>
<polygon fill="black" stroke="black" points="443.105,-564.968 432.727,-567.102 442.17,-571.905 443.105,-564.968"/>
<text text-anchor="middle" x="508.155" y="-569.3" font-family="Times New Roman,serif" font-size="14.00"> &#160;&#160;click(&quot;index=0&quot;) &#160;&#160;</text>
</g>
<!-- state_1&#45;&gt;state_1 -->
<g id="edge2" class="edge"><title>state_1&#45;&gt;state_1</title>
<path fill="none" stroke="black" d="M432.836,-584.26C491.688,-588.159 565.655,-584.405 565.655,-573 565.655,-562.241 499.83,-558.291 442.966,-561.151"/>
<polygon fill="black" stroke="black" points="442.616,-557.665 432.836,-561.74 443.023,-564.653 442.616,-557.665"/>
<text text-anchor="middle" x="636.655" y="-569.3" font-family="Times New Roman,serif" font-size="14.00"> &#160;&#160;longClick(&quot;index=0&quot;) &#160;&#160;</text>
</g>
<!-- state_1&#45;&gt;state_1 -->
<g id="edge3" class="edge"><title>state_1&#45;&gt;state_1</title>
<path fill="none" stroke="black" d="M432.821,-586.885C533.397,-597.052 707.655,-592.424 707.655,-573 707.655,-554.221 544.777,-549.271 443.074,-558.151"/>
<polygon fill="black" stroke="black" points="442.45,-554.694 432.821,-559.115 443.105,-561.664 442.45,-554.694"/>
<text text-anchor="middle" x="759.155" y="-569.3" font-family="Times New Roman,serif" font-size="14.00"> &#160;&#160;click(&quot;Login&quot;) &#160;&#160;</text>
</g>
<!-- state_1&#45;&gt;state_1 -->
<g id="edge4" class="edge"><title>state_1&#45;&gt;state_1</title>
<path fill="none" stroke="black" d="M432.735,-589.51C558.345,-605.597 810.655,-600.094 810.655,-573 810.655,-546.621 571.475,-540.708 442.929,-555.262"/>
<polygon fill="black" stroke="black" points="442.245,-551.819 432.735,-556.49 443.082,-558.769 442.245,-551.819"/>
<text text-anchor="middle" x="863.655" y="-569.3" font-family="Times New Roman,serif" font-size="14.00"> &#160;&#160;swipe(&quot;Right&quot;) &#160;&#160;</text>
</g>
<!-- state_1&#45;&gt;state_1 -->
<g id="edge5" class="edge"><title>state_1&#45;&gt;state_1</title>
<path fill="none" stroke="black" d="M432.674,-591.714C581.196,-614.143 916.655,-607.905 916.655,-573 916.655,-538.879 596.096,-532.152 442.959,-552.818"/>
<polygon fill="black" stroke="black" points="442.079,-549.408 432.674,-554.286 443.068,-556.338 442.079,-549.408"/>
<text text-anchor="middle" x="966.155" y="-569.3" font-family="Times New Roman,serif" font-size="14.00"> &#160;&#160;swipe(&quot;Left&quot;) &#160;&#160;</text>
</g>
<!-- state_12 -->
<g id="node2" class="node"><title>state_12</title>
<g id="a_node2"><a xlink:href="12.png" xlink:title="&lt;TABLE&gt;">
<polygon fill="none" stroke="black" points="284.655,-377 154.655,-377 154.655,-87 284.655,-87 284.655,-377"/>
<text text-anchor="start" x="196.155" y="-365.8" font-family="Times New Roman,serif" font-size="14.00">state_12</text>
<text text-anchor="start" x="189.155" y="-350.8" font-family="Times New Roman,serif" font-size="14.00">incoming:1</text>
<text text-anchor="start" x="190.155" y="-335.8" font-family="Times New Roman,serif" font-size="14.00">outgoing:6</text>
<text text-anchor="start" x="201.655" y="-320.8" font-family="Times New Roman,serif" font-size="14.00">loop:0</text>
<image xlink:href="12.png" width="130px" height="230px" preserveAspectRatio="xMinYMin meet" x="154.655" y="-317"/>
</a>
</g>
</g>
<!-- state_1&#45;&gt;state_12 -->
<g id="edge7" class="edge"><title>state_1&#45;&gt;state_12</title>
<path fill="none" stroke="black" d="M302.548,-557.434C231.082,-537.583 119.839,-494.401 69.6554,-410 39.1864,-358.756 94.0908,-307.6 145.834,-273.56"/>
<polygon fill="black" stroke="black" points="147.909,-276.387 154.431,-268.038 144.126,-270.498 147.909,-276.387"/>
<text text-anchor="middle" x="133.655" y="-398.8" font-family="Times New Roman,serif" font-size="14.00"> &#160;&#160;press(&quot;MenuKey&quot;) &#160;&#160;</text>
</g>
<!-- activity_0 -->
<g id="node3" class="node"><title>activity_0</title>
<ellipse fill="none" stroke="red" cx="592.655" cy="-232" rx="46.2923" ry="18"/>
<text text-anchor="middle" x="592.655" y="-228.3" font-family="Times New Roman,serif" font-size="14.00" fill="red">activity_0</text>
</g>
<!-- state_1&#45;&gt;activity_0 -->
<g id="edge6" class="edge"><title>state_1&#45;&gt;activity_0</title>
<path fill="none" stroke="red" d="M432.902,-483.226C449.765,-459.651 467.665,-434.054 483.655,-410 518.719,-357.256 556.934,-293.643 577.501,-258.852"/>
<polygon fill="red" stroke="red" points="580.753,-260.229 582.817,-249.837 574.723,-256.673 580.753,-260.229"/>
<text text-anchor="middle" x="555.155" y="-398.8" font-family="Times New Roman,serif" font-size="14.00" fill="red"> &#160;&#160;press(&quot;BackKey&quot;) &#160;&#160;</text>
</g>
<!-- state_12&#45;&gt;state_1 -->
<g id="edge8" class="edge"><title>state_12&#45;&gt;state_1</title>
<path fill="none" stroke="black" d="M211.625,-377.179C213.657,-388.478 216.586,-399.548 220.655,-410 236.088,-449.64 266.157,-485.605 295.1,-513.522"/>
<polygon fill="black" stroke="black" points="292.753,-516.119 302.425,-520.443 297.56,-511.031 292.753,-516.119"/>
<text text-anchor="middle" x="283.155" y="-398.8" font-family="Times New Roman,serif" font-size="14.00"> &#160;&#160;press(&quot;BackKey&quot;) &#160;&#160;</text>
</g>
<!-- state_12&#45;&gt;state_1 -->
<g id="edge9" class="edge"><title>state_12&#45;&gt;state_1</title>
<path fill="none" stroke="black" d="M284.852,-299.908C307.809,-327.285 331.419,-360.595 345.655,-395 348.728,-402.425 351.403,-410.163 353.731,-418.075"/>
<polygon fill="black" stroke="black" points="350.379,-419.085 356.401,-427.802 357.129,-417.232 350.379,-419.085"/>
<text text-anchor="middle" x="415.655" y="-398.8" font-family="Times New Roman,serif" font-size="14.00"> &#160;&#160;press(&quot;MenuKey&quot;) &#160;&#160;</text>
</g>
<!-- activity_3 -->
<g id="node4" class="node"><title>activity_3</title>
<ellipse fill="none" stroke="red" cx="219.655" cy="-18" rx="46.2923" ry="18"/>
<text text-anchor="middle" x="219.655" y="-14.3" font-family="Times New Roman,serif" font-size="14.00" fill="red">activity_3</text>
</g>
<!-- state_12&#45;&gt;activity_3 -->
<g id="edge10" class="edge"><title>state_12&#45;&gt;activity_3</title>
<path fill="none" stroke="red" d="M154.51,-207.854C75.8994,-176.438 -39.506,-116.956 13.6554,-54 32.5097,-31.6721 109.227,-23.5855 163.506,-20.6583"/>
<polygon fill="red" stroke="red" points="163.885,-24.144 173.7,-20.1542 163.539,-17.1525 163.885,-24.144"/>
<text text-anchor="middle" x="71.1554" y="-57.8" font-family="Times New Roman,serif" font-size="14.00" fill="red"> &#160;&#160;click(&quot;index=0&quot;) &#160;&#160;</text>
</g>
<!-- state_12&#45;&gt;activity_3 -->
<g id="edge11" class="edge"><title>state_12&#45;&gt;activity_3</title>
<path fill="none" stroke="red" d="M155.785,-86.6059C154.219,-80.7134 152.83,-74.8309 151.655,-69 150.339,-62.4645 148.184,-59.6914 151.655,-54 156.945,-45.3286 165.145,-38.7142 174.045,-33.7019"/>
<polygon fill="red" stroke="red" points="175.696,-36.7898 183.095,-29.2067 172.582,-30.5205 175.696,-36.7898"/>
<text text-anchor="middle" x="209.155" y="-57.8" font-family="Times New Roman,serif" font-size="14.00" fill="red"> &#160;&#160;click(&quot;index=0&quot;) &#160;&#160;</text>
</g>
<!-- state_12&#45;&gt;activity_3 -->
<g id="edge12" class="edge"><title>state_12&#45;&gt;activity_3</title>
<path fill="none" stroke="red" d="M275.547,-86.6414C274.63,-75.3825 271.863,-64.3708 266.655,-54 263.779,-48.2721 259.472,-43.2438 254.613,-38.9176"/>
<polygon fill="red" stroke="red" points="256.684,-36.0941 246.648,-32.6975 252.375,-41.611 256.684,-36.0941"/>
<text text-anchor="middle" x="325.655" y="-57.8" font-family="Times New Roman,serif" font-size="14.00" fill="red"> &#160;&#160;swipe(&quot;Right&quot;) &#160;&#160;</text>
</g>
<!-- state_12&#45;&gt;activity_3 -->
<g id="edge13" class="edge"><title>state_12&#45;&gt;activity_3</title>
<path fill="none" stroke="red" d="M284.933,-199.181C347.19,-164.589 425.584,-107.124 382.655,-54 369.169,-37.31 316.623,-28.2122 274.789,-23.5108"/>
<polygon fill="red" stroke="red" points="275.002,-20.0137 264.688,-22.4357 274.261,-26.9744 275.002,-20.0137"/>
<text text-anchor="middle" x="439.155" y="-57.8" font-family="Times New Roman,serif" font-size="14.00" fill="red"> &#160;&#160;swipe(&quot;Left&quot;) &#160;&#160;</text>
</g>
<!-- activity_0&#45;&gt;state_1 -->
<g id="edge14" class="edge"><title>activity_0&#45;&gt;state_1</title>
<path fill="none" stroke="red" d="M602.045,-249.796C619.069,-282.695 650.698,-357.03 621.655,-410 583.824,-479 502.73,-522.85 442.291,-547.28"/>
<polygon fill="red" stroke="red" points="440.795,-544.108 432.778,-551.036 443.365,-550.619 440.795,-544.108"/>
<text text-anchor="middle" x="672.155" y="-398.8" font-family="Times New Roman,serif" font-size="14.00" fill="red"> &#160;&#160;click(&quot;OK&quot;) &#160;&#160;</text>
</g>
</g>
</svg>
