<?xml version="1.0" encoding="UTF-8" standalone="no"?>
<!DOCTYPE svg PUBLIC "-//W3C//DTD SVG 1.1//EN"
 "http://www.w3.org/Graphics/SVG/1.1/DTD/svg11.dtd">
<!-- Generated by graphviz version 2.38.0 (20140413.2041)
 -->
<!-- Title: result Pages: 1 -->
<svg width="976pt" height="352pt"
 viewBox="0.00 0.00 976.00 351.50" xmlns="http://www.w3.org/2000/svg" xmlns:xlink="http://www.w3.org/1999/xlink">
<g id="graph0" class="graph" transform="scale(1 1) rotate(0) translate(4 347.5)">
<title>result</title>
<polygon fill="white" stroke="none" points="-4,4 -4,-347.5 972,-347.5 972,4 -4,4"/>
<!-- initial -->
<g id="node1" class="node"><title>initial</title>
<image xlink:href="-1.png" width="50px" height="50px" preserveAspectRatio="xMinYMin meet" x="0" y="-193"/>
</g>
<!-- activity_0 -->
<g id="node2" class="node"><title>activity_0</title>
<g id="a_node2"><a xlink:href="activity_0.svg" xlink:title="&lt;TABLE&gt;">
<polygon fill="none" stroke="black" points="217,-305.5 87,-305.5 87,-30.5 217,-30.5 217,-305.5"/>
<text text-anchor="start" x="124.5" y="-293.8" font-family="Times New Roman,serif" font-size="14.00">activity_0</text>
<text text-anchor="start" x="121.5" y="-278.8" font-family="Times New Roman,serif" font-size="14.00">incoming:1</text>
<text text-anchor="start" x="122.5" y="-263.8" font-family="Times New Roman,serif" font-size="14.00">outgoing:2</text>
<image xlink:href="0.png" width="130px" height="230px" preserveAspectRatio="xMinYMin meet" x="87" y="-260"/>
</a>
</g>
</g>
<!-- initial&#45;&gt;activity_0 -->
<g id="edge1" class="edge"><title>initial&#45;&gt;activity_0</title>
<path fill="none" stroke="black" d="M50.1013,-168C57.9994,-168 67.2332,-168 76.8484,-168"/>
<polygon fill="black" stroke="black" points="76.9667,-171.5 86.9666,-168 76.9666,-164.5 76.9667,-171.5"/>
</g>
<!-- activity_1 -->
<g id="node3" class="node"><title>activity_1</title>
<g id="a_node3"><a xlink:href="activity_1.svg" xlink:title="&lt;TABLE&gt;">
<polygon fill="none" stroke="black" points="591,-343.5 461,-343.5 461,-68.5 591,-68.5 591,-343.5"/>
<text text-anchor="start" x="498.5" y="-331.8" font-family="Times New Roman,serif" font-size="14.00">activity_1</text>
<text text-anchor="start" x="495.5" y="-316.8" font-family="Times New Roman,serif" font-size="14.00">incoming:1</text>
<text text-anchor="start" x="496.5" y="-301.8" font-family="Times New Roman,serif" font-size="14.00">outgoing:5</text>
<image xlink:href="1.png" width="130px" height="230px" preserveAspectRatio="xMinYMin meet" x="461" y="-298"/>
</a>
</g>
</g>
<!-- activity_0&#45;&gt;activity_1 -->
<g id="edge2" class="edge"><title>activity_0&#45;&gt;activity_1</title>
<path fill="none" stroke="black" d="M217.34,-181.292C223.295,-182.299 229.25,-183.224 235,-184 307.93,-193.847 391.817,-199.613 450.546,-202.752"/>
<polygon fill="black" stroke="black" points="450.676,-206.264 460.845,-203.29 451.041,-199.273 450.676,-206.264"/>
<text text-anchor="middle" x="339" y="-206.8" font-family="Times New Roman,serif" font-size="14.00"> &#160;&#160;&lt;a0.s0,click(&quot;OK&quot;),a1.s1&gt; &#160;&#160;</text>
</g>
<!-- final -->
<g id="node4" class="node"><title>final</title>
<image xlink:href="-2.png" width="50px" height="50px" preserveAspectRatio="xMinYMin meet" x="501" y="-50"/>
</g>
<!-- activity_0&#45;&gt;final -->
<g id="edge3" class="edge"><title>activity_0&#45;&gt;final</title>
<path fill="none" stroke="black" d="M217.375,-141.069C223.323,-138.653 229.267,-136.265 235,-134 327.3,-97.5304 437.202,-57.0072 491.383,-37.2197"/>
<polygon fill="black" stroke="black" points="492.639,-40.4871 500.834,-33.7719 490.24,-33.9109 492.639,-40.4871"/>
<text text-anchor="middle" x="339" y="-137.8" font-family="Times New Roman,serif" font-size="14.00"> &#160;&#160;&lt;a0.s0,press(&quot;BackKey&quot;),final&gt; &#160;&#160;</text>
</g>
<!-- activity_1&#45;&gt;activity_0 -->
<g id="edge4" class="edge"><title>activity_1&#45;&gt;activity_0</title>
<path fill="none" stroke="black" d="M460.69,-170.465C454.832,-168.27 448.886,-166.39 443,-165 371.083,-148.023 286.315,-151.497 227.065,-157.553"/>
<polygon fill="black" stroke="black" points="226.616,-154.081 217.046,-158.627 227.362,-161.041 226.616,-154.081"/>
<text text-anchor="middle" x="339" y="-168.8" font-family="Times New Roman,serif" font-size="14.00"> &#160;&#160;&lt;a1.s1,press(&quot;BackKey&quot;),a0.s0&gt; &#160;&#160;</text>
</g>
<!-- activity_3 -->
<g id="node5" class="node"><title>activity_3</title>
<g id="a_node5"><a xlink:href="activity_3.svg" xlink:title="&lt;TABLE&gt;">
<polygon fill="none" stroke="black" points="968,-343.5 838,-343.5 838,-68.5 968,-68.5 968,-343.5"/>
<text text-anchor="start" x="875.5" y="-331.8" font-family="Times New Roman,serif" font-size="14.00">activity_3</text>
<text text-anchor="start" x="872.5" y="-316.8" font-family="Times New Roman,serif" font-size="14.00">incoming:4</text>
<text text-anchor="start" x="873.5" y="-301.8" font-family="Times New Roman,serif" font-size="14.00">outgoing:0</text>
<image xlink:href="13.png" width="130px" height="230px" preserveAspectRatio="xMinYMin meet" x="838" y="-298"/>
</a>
</g>
</g>
<!-- activity_1&#45;&gt;activity_3 -->
<g id="edge5" class="edge"><title>activity_1&#45;&gt;activity_3</title>
<path fill="none" stroke="black" d="M591.122,-236.204C597.07,-238.137 603.086,-239.791 609,-241 700.876,-259.788 728.124,-259.788 820,-241 822.68,-240.452 825.381,-239.813 828.086,-239.098"/>
<polygon fill="black" stroke="black" points="829.28,-242.395 837.878,-236.204 827.296,-235.682 829.28,-242.395"/>
<text text-anchor="middle" x="714.5" y="-258.8" font-family="Times New Roman,serif" font-size="14.00"> &#160;&#160;&lt;a1.s12,click(&quot;index=0&quot;),a3.s13&gt; &#160;&#160;</text>
</g>
<!-- activity_1&#45;&gt;activity_3 -->
<g id="edge6" class="edge"><title>activity_1&#45;&gt;activity_3</title>
<path fill="none" stroke="black" d="M591.039,-206C656.601,-206 758.416,-206 827.535,-206"/>
<polygon fill="black" stroke="black" points="827.912,-209.5 837.912,-206 827.912,-202.5 827.912,-209.5"/>
<text text-anchor="middle" x="714.5" y="-209.8" font-family="Times New Roman,serif" font-size="14.00"> &#160;&#160;&lt;a1.s12,click(&quot;index=0&quot;),a3.s13&gt; &#160;&#160;</text>
</g>
<!-- activity_1&#45;&gt;activity_3 -->
<g id="edge7" class="edge"><title>activity_1&#45;&gt;activity_3</title>
<path fill="none" stroke="black" d="M591.216,-189.665C597.198,-188.584 603.193,-187.664 609,-187 702.171,-176.347 726.829,-176.347 820,-187 822.541,-187.291 825.117,-187.63 827.713,-188.011"/>
<polygon fill="black" stroke="black" points="827.348,-191.498 837.784,-189.665 828.483,-184.59 827.348,-191.498"/>
<text text-anchor="middle" x="714.5" y="-190.8" font-family="Times New Roman,serif" font-size="14.00"> &#160;&#160;&lt;a1.s12,swipe(&quot;Right&quot;),a3.s13&gt; &#160;&#160;</text>
</g>
<!-- activity_1&#45;&gt;activity_3 -->
<g id="edge8" class="edge"><title>activity_1&#45;&gt;activity_3</title>
<path fill="none" stroke="black" d="M591.112,-167.014C597.013,-164.601 603.023,-162.532 609,-161 699.84,-137.712 729.16,-137.712 820,-161 822.802,-161.718 825.611,-162.555 828.413,-163.489"/>
<polygon fill="black" stroke="black" points="827.295,-166.807 837.888,-167.014 829.736,-160.247 827.295,-166.807"/>
<text text-anchor="middle" x="714.5" y="-164.8" font-family="Times New Roman,serif" font-size="14.00"> &#160;&#160;&lt;a1.s12,swipe(&quot;Left&quot;),a3.s13&gt; &#160;&#160;</text>
</g>
</g>
</svg>
