<?xml version="1.0" encoding="UTF-8" standalone="no"?>
<!DOCTYPE svg PUBLIC "-//W3C//DTD SVG 1.1//EN"
 "http://www.w3.org/Graphics/SVG/1.1/DTD/svg11.dtd">
<!-- Generated by graphviz version 2.38.0 (20140413.2041)
 -->
<!-- Title: g Pages: 1 -->
<svg width="990pt" height="1178pt"
 viewBox="0.00 0.00 989.71 1178.00" xmlns="http://www.w3.org/2000/svg" xmlns:xlink="http://www.w3.org/1999/xlink">
<g id="graph0" class="graph" transform="scale(1 1) rotate(0) translate(4 1174)">
<title>g</title>
<polygon fill="white" stroke="none" points="-4,4 -4,-1174 985.708,-1174 985.708,4 -4,4"/>
<g id="clust1" class="cluster"><title>cluster_0</title>
<polygon fill="none" stroke="red" points="132.708,-893 132.708,-1162 665.708,-1162 665.708,-893 132.708,-893"/>
<text text-anchor="middle" x="399.208" y="-1146.8" font-family="Times New Roman,serif" font-size="14.00" fill="red"> &#160;&#160;activity_0 &#160;&#160;</text>
</g>
<g id="clust3" class="cluster"><title>cluster_2</title>
<polygon fill="none" stroke="red" points="827.708,-591 827.708,-860 973.708,-860 973.708,-591 827.708,-591"/>
<text text-anchor="middle" x="900.708" y="-844.8" font-family="Times New Roman,serif" font-size="14.00" fill="red"> &#160;&#160;activity_2 &#160;&#160;</text>
</g>
<g id="clust4" class="cluster"><title>cluster_3</title>
<polygon fill="none" stroke="red" points="139.708,-8 139.708,-277 285.708,-277 285.708,-8 139.708,-8"/>
<text text-anchor="middle" x="212.708" y="-261.8" font-family="Times New Roman,serif" font-size="14.00" fill="red"> &#160;&#160;activity_3 &#160;&#160;</text>
</g>
<g id="clust2" class="cluster"><title>cluster_1</title>
<polygon fill="none" stroke="red" points="18.7075,-310 18.7075,-860 819.708,-860 819.708,-310 18.7075,-310"/>
<text text-anchor="middle" x="419.208" y="-844.8" font-family="Times New Roman,serif" font-size="14.00" fill="red"> &#160;&#160;activity_1 &#160;&#160;</text>
</g>
<!-- state_0 -->
<g id="node1" class="node"><title>state_0</title>
<g id="a_node1"><a xlink:href="0.png">
<polygon fill="none" stroke="black" points="270.708,-1131 140.708,-1131 140.708,-901 270.708,-901 270.708,-1131"/>
<image xlink:href="0.png" width="130px" height="230px" preserveAspectRatio="xMinYMin meet" x="140.708" y="-1131"/>
</a>
</g>
</g>
<!-- state_0&#45;&gt;state_0 -->
<g id="edge1" class="edge"><title>state_0&#45;&gt;state_0</title>
<path fill="none" stroke="black" d="M270.779,-1024.1C281.405,-1022.94 288.708,-1020.24 288.708,-1016 288.708,-1013.28 285.711,-1011.2 280.763,-1009.75"/>
<polygon fill="black" stroke="black" points="281.249,-1006.28 270.779,-1007.9 279.976,-1013.16 281.249,-1006.28"/>
<text text-anchor="middle" x="341.708" y="-1012.3" font-family="Times New Roman,serif" font-size="14.00"> &#160;&#160;swipe(&quot;Right&quot;) &#160;&#160;</text>
</g>
<!-- state_0&#45;&gt;state_0 -->
<g id="edge2" class="edge"><title>state_0&#45;&gt;state_0</title>
<path fill="none" stroke="black" d="M270.821,-1031.66C326.611,-1036.67 394.708,-1031.45 394.708,-1016 394.708,-1001.49 334.608,-996 281.072,-999.542"/>
<polygon fill="black" stroke="black" points="280.519,-996.075 270.821,-1000.34 281.062,-1003.05 280.519,-996.075"/>
<text text-anchor="middle" x="444.208" y="-1012.3" font-family="Times New Roman,serif" font-size="14.00"> &#160;&#160;swipe(&quot;Left&quot;) &#160;&#160;</text>
</g>
<!-- state_0&#45;&gt;state_0 -->
<g id="edge3" class="edge"><title>state_0&#45;&gt;state_0</title>
<path fill="none" stroke="black" d="M270.85,-1036.19C357.634,-1048.64 493.708,-1041.91 493.708,-1016 493.708,-991.079 367.802,-983.902 280.97,-994.471"/>
<polygon fill="black" stroke="black" points="280.305,-991.028 270.85,-995.81 281.223,-997.968 280.305,-991.028"/>
<text text-anchor="middle" x="557.708" y="-1012.3" font-family="Times New Roman,serif" font-size="14.00"> &#160;&#160;press(&quot;MenuKey&quot;) &#160;&#160;</text>
</g>
<!-- state_1 -->
<g id="node2" class="node"><title>state_1</title>
<g id="a_node2"><a xlink:href="1.png">
<polygon fill="none" stroke="black" points="156.708,-829 26.7075,-829 26.7075,-599 156.708,-599 156.708,-829"/>
<image xlink:href="1.png" width="130px" height="230px" preserveAspectRatio="xMinYMin meet" x="26.7075" y="-829"/>
</a>
</g>
</g>
<!-- state_0&#45;&gt;state_1 -->
<g id="edge4" class="edge"><title>state_0&#45;&gt;state_1</title>
<path fill="none" stroke="black" d="M140.619,-956.893C121.44,-935.745 102.88,-910.276 92.7075,-883 87.5732,-869.233 84.4207,-854.379 82.669,-839.399"/>
<polygon fill="black" stroke="black" points="86.1123,-838.64 81.673,-829.02 79.1443,-839.309 86.1123,-838.64"/>
<text text-anchor="middle" x="138.208" y="-871.8" font-family="Times New Roman,serif" font-size="14.00"> &#160;&#160;click(&quot;OK&quot;) &#160;&#160;</text>
</g>
<!-- state_final -->
<g id="node4" class="node"><title>state_final</title>
<g id="a_node4"><a xlink:href="-2.png">
<polygon fill="none" stroke="black" points="965.708,-829 835.708,-829 835.708,-599 965.708,-599 965.708,-829"/>
<image xlink:href="-2.png" width="76px" height="74px" preserveAspectRatio="xMinYMin meet" x="862.708" y="-751"/>
</a>
</g>
</g>
<!-- state_0&#45;&gt;state_final -->
<g id="edge5" class="edge"><title>state_0&#45;&gt;state_final</title>
<path fill="none" stroke="black" d="M270.914,-1015.33C392.466,-1012.65 656.475,-990.915 823.708,-860 832.127,-853.409 839.733,-845.635 846.583,-837.168"/>
<polygon fill="black" stroke="black" points="849.372,-839.281 852.662,-829.21 843.81,-835.032 849.372,-839.281"/>
<text text-anchor="middle" x="872.208" y="-871.8" font-family="Times New Roman,serif" font-size="14.00"> &#160;&#160;press(&quot;BackKey&quot;) &#160;&#160;</text>
</g>
<!-- state_1&#45;&gt;state_0 -->
<g id="edge11" class="edge"><title>state_1&#45;&gt;state_0</title>
<path fill="none" stroke="black" d="M156.851,-810.505C167.18,-828.959 176.737,-848.603 183.708,-868 186.346,-875.342 188.668,-883.001 190.712,-890.798"/>
<polygon fill="black" stroke="black" points="187.368,-891.86 193.154,-900.736 194.166,-890.19 187.368,-891.86"/>
<text text-anchor="middle" x="250.208" y="-871.8" font-family="Times New Roman,serif" font-size="14.00"> &#160;&#160;press(&quot;BackKey&quot;) &#160;&#160;</text>
</g>
<!-- state_1&#45;&gt;state_1 -->
<g id="edge6" class="edge"><title>state_1&#45;&gt;state_1</title>
<path fill="none" stroke="black" d="M156.779,-718.857C167.405,-718.162 174.708,-716.543 174.708,-714 174.708,-712.371 171.711,-711.121 166.763,-710.25"/>
<polygon fill="black" stroke="black" points="167.104,-706.767 156.779,-709.143 166.332,-713.724 167.104,-706.767"/>
<text text-anchor="middle" x="232.208" y="-710.3" font-family="Times New Roman,serif" font-size="14.00"> &#160;&#160;click(&quot;index=0&quot;) &#160;&#160;</text>
</g>
<!-- state_1&#45;&gt;state_1 -->
<g id="edge7" class="edge"><title>state_1&#45;&gt;state_1</title>
<path fill="none" stroke="black" d="M156.888,-723.273C215.74,-726.484 289.708,-723.393 289.708,-714 289.708,-705.139 223.882,-701.887 167.018,-704.242"/>
<polygon fill="black" stroke="black" points="166.71,-700.752 156.888,-704.727 167.044,-707.744 166.71,-700.752"/>
<text text-anchor="middle" x="360.708" y="-710.3" font-family="Times New Roman,serif" font-size="14.00"> &#160;&#160;longClick(&quot;index=0&quot;) &#160;&#160;</text>
</g>
<!-- state_1&#45;&gt;state_1 -->
<g id="edge8" class="edge"><title>state_1&#45;&gt;state_1</title>
<path fill="none" stroke="black" d="M156.874,-725.435C257.449,-733.808 431.708,-729.996 431.708,-714 431.708,-698.535 268.829,-694.459 167.126,-701.772"/>
<polygon fill="black" stroke="black" points="166.574,-698.304 156.874,-702.565 167.114,-705.283 166.574,-698.304"/>
<text text-anchor="middle" x="483.208" y="-710.3" font-family="Times New Roman,serif" font-size="14.00"> &#160;&#160;click(&quot;Login&quot;) &#160;&#160;</text>
</g>
<!-- state_1&#45;&gt;state_1 -->
<g id="edge9" class="edge"><title>state_1&#45;&gt;state_1</title>
<path fill="none" stroke="black" d="M156.787,-727.597C282.397,-740.845 534.708,-736.313 534.708,-714 534.708,-692.276 295.527,-687.407 166.981,-699.392"/>
<polygon fill="black" stroke="black" points="166.393,-695.933 156.787,-700.403 167.084,-702.899 166.393,-695.933"/>
<text text-anchor="middle" x="587.708" y="-710.3" font-family="Times New Roman,serif" font-size="14.00"> &#160;&#160;swipe(&quot;Right&quot;) &#160;&#160;</text>
</g>
<!-- state_1&#45;&gt;state_1 -->
<g id="edge10" class="edge"><title>state_1&#45;&gt;state_1</title>
<path fill="none" stroke="black" d="M156.726,-729.411C305.248,-747.882 640.708,-742.745 640.708,-714 640.708,-685.901 320.149,-680.36 167.011,-697.38"/>
<polygon fill="black" stroke="black" points="166.249,-693.945 156.726,-698.589 167.066,-700.897 166.249,-693.945"/>
<text text-anchor="middle" x="690.208" y="-710.3" font-family="Times New Roman,serif" font-size="14.00"> &#160;&#160;swipe(&quot;Left&quot;) &#160;&#160;</text>
</g>
<!-- state_12 -->
<g id="node3" class="node"><title>state_12</title>
<g id="a_node3"><a xlink:href="12.png">
<polygon fill="none" stroke="black" points="260.708,-548 130.708,-548 130.708,-318 260.708,-318 260.708,-548"/>
<image xlink:href="12.png" width="130px" height="230px" preserveAspectRatio="xMinYMin meet" x="130.708" y="-548"/>
</a>
</g>
</g>
<!-- state_1&#45;&gt;state_12 -->
<g id="edge12" class="edge"><title>state_1&#45;&gt;state_12</title>
<path fill="none" stroke="black" d="M39.3278,-598.809C39.1233,-587.583 40.9709,-576.478 45.7075,-566 61.7732,-530.462 92.6591,-500.679 122.249,-478.451"/>
<polygon fill="black" stroke="black" points="124.541,-481.111 130.547,-472.383 120.409,-475.46 124.541,-481.111"/>
<text text-anchor="middle" x="109.708" y="-569.8" font-family="Times New Roman,serif" font-size="14.00"> &#160;&#160;press(&quot;MenuKey&quot;) &#160;&#160;</text>
</g>
<!-- state_12&#45;&gt;state_1 -->
<g id="edge13" class="edge"><title>state_12&#45;&gt;state_1</title>
<path fill="none" stroke="black" d="M183.311,-548.321C180.698,-559.521 177.535,-570.585 173.708,-581 170.287,-590.306 166.159,-599.66 161.597,-608.857"/>
<polygon fill="black" stroke="black" points="158.359,-607.501 156.9,-617.995 164.585,-610.701 158.359,-607.501"/>
<text text-anchor="middle" x="240.208" y="-569.8" font-family="Times New Roman,serif" font-size="14.00"> &#160;&#160;press(&quot;BackKey&quot;) &#160;&#160;</text>
</g>
<!-- state_12&#45;&gt;state_1 -->
<g id="edge14" class="edge"><title>state_12&#45;&gt;state_1</title>
<path fill="none" stroke="black" d="M260.787,-476.226C295.766,-504.505 327.787,-543.324 306.708,-581 276.873,-634.326 215.705,-668.732 166.215,-689.003"/>
<polygon fill="black" stroke="black" points="164.801,-685.799 156.803,-692.748 167.389,-692.303 164.801,-685.799"/>
<text text-anchor="middle" x="376.708" y="-569.8" font-family="Times New Roman,serif" font-size="14.00"> &#160;&#160;press(&quot;MenuKey&quot;) &#160;&#160;</text>
</g>
<!-- state_13 -->
<g id="node5" class="node"><title>state_13</title>
<g id="a_node5"><a xlink:href="13.png">
<polygon fill="none" stroke="black" points="277.708,-246 147.708,-246 147.708,-16 277.708,-16 277.708,-246"/>
<image xlink:href="13.png" width="130px" height="230px" preserveAspectRatio="xMinYMin meet" x="147.708" y="-246"/>
</a>
</g>
</g>
<!-- state_12&#45;&gt;state_13 -->
<g id="edge15" class="edge"><title>state_12&#45;&gt;state_13</title>
<path fill="none" stroke="black" d="M130.557,-413.127C64.3769,-390.155 -24.2964,-346.647 6.70753,-285 34.1616,-230.411 91.3317,-190.397 138.494,-165.011"/>
<polygon fill="black" stroke="black" points="140.257,-168.038 147.478,-160.285 136.998,-161.843 140.257,-168.038"/>
<text text-anchor="middle" x="64.2075" y="-288.8" font-family="Times New Roman,serif" font-size="14.00"> &#160;&#160;click(&quot;index=0&quot;) &#160;&#160;</text>
</g>
<!-- state_12&#45;&gt;state_13 -->
<g id="edge16" class="edge"><title>state_12&#45;&gt;state_13</title>
<path fill="none" stroke="black" d="M143.305,-317.624C142.16,-306.697 142.436,-295.702 144.708,-285 146.744,-275.403 149.426,-265.678 152.546,-256.024"/>
<polygon fill="black" stroke="black" points="155.912,-256.996 155.806,-246.402 149.283,-254.75 155.912,-256.996"/>
<text text-anchor="middle" x="202.208" y="-288.8" font-family="Times New Roman,serif" font-size="14.00"> &#160;&#160;click(&quot;index=0&quot;) &#160;&#160;</text>
</g>
<!-- state_12&#45;&gt;state_13 -->
<g id="edge17" class="edge"><title>state_12&#45;&gt;state_13</title>
<path fill="none" stroke="black" d="M254.755,-317.941C256.665,-311.958 258.339,-305.957 259.708,-300 262.957,-285.85 263.341,-271.108 261.82,-256.492"/>
<polygon fill="black" stroke="black" points="265.266,-255.852 260.474,-246.403 258.327,-256.778 265.266,-255.852"/>
<text text-anchor="middle" x="315.708" y="-288.8" font-family="Times New Roman,serif" font-size="14.00"> &#160;&#160;swipe(&quot;Right&quot;) &#160;&#160;</text>
</g>
<!-- state_12&#45;&gt;state_13 -->
<g id="edge18" class="edge"><title>state_12&#45;&gt;state_13</title>
<path fill="none" stroke="black" d="M260.956,-402.653C301.193,-380.687 349.415,-346.427 372.708,-300 399.697,-246.203 340.663,-197.969 286.835,-167.133"/>
<polygon fill="black" stroke="black" points="288.346,-163.968 277.909,-162.147 284.933,-170.079 288.346,-163.968"/>
<text text-anchor="middle" x="426.208" y="-288.8" font-family="Times New Roman,serif" font-size="14.00"> &#160;&#160;swipe(&quot;Left&quot;) &#160;&#160;</text>
</g>
</g>
</svg>
