<?xml version="1.0" encoding="UTF-8" standalone="no"?>
<!DOCTYPE svg PUBLIC "-//W3C//DTD SVG 1.1//EN"
 "http://www.w3.org/Graphics/SVG/1.1/DTD/svg11.dtd">
<!-- Generated by graphviz version 2.38.0 (20140413.2041)
 -->
<!-- Title: activity_1 Pages: 1 -->
<svg width="515pt" height="385pt"
 viewBox="0.00 0.00 514.72 385.00" xmlns="http://www.w3.org/2000/svg" xmlns:xlink="http://www.w3.org/1999/xlink">
<g id="graph0" class="graph" transform="scale(1 1) rotate(0) translate(4 381)">
<title>activity_1</title>
<polygon fill="white" stroke="none" points="-4,4 -4,-381 510.72,-381 510.72,4 -4,4"/>
<!-- state_33 -->
<g id="node1" class="node"><title>state_33</title>
<g id="a_node1"><a xlink:href="33.png" xlink:title="&lt;TABLE&gt;">
<polygon fill="none" stroke="black" points="288.72,-290 158.72,-290 158.72,-0 288.72,-0 288.72,-290"/>
<text text-anchor="start" x="200.22" y="-278.8" font-family="Times New Roman,serif" font-size="14.00">state_33</text>
<text text-anchor="start" x="193.22" y="-263.8" font-family="Times New Roman,serif" font-size="14.00">incoming:4</text>
<text text-anchor="start" x="194.22" y="-248.8" font-family="Times New Roman,serif" font-size="14.00">outgoing:0</text>
<text text-anchor="start" x="205.72" y="-233.8" font-family="Times New Roman,serif" font-size="14.00">loop:0</text>
<image xlink:href="33.png" width="130px" height="230px" preserveAspectRatio="xMinYMin meet" x="158.72" y="-230"/>
</a>
</g>
</g>
<!-- activity_0 -->
<g id="node2" class="node"><title>activity_0</title>
<ellipse fill="none" stroke="red" cx="223.72" cy="-359" rx="46.2923" ry="18"/>
<text text-anchor="middle" x="223.72" y="-355.3" font-family="Times New Roman,serif" font-size="14.00" fill="red">activity_0</text>
</g>
<!-- activity_0&#45;&gt;state_33 -->
<g id="edge1" class="edge"><title>activity_0&#45;&gt;state_33</title>
<path fill="none" stroke="red" d="M177.846,-357.022C122.511,-354.759 34.3255,-347.324 13.7197,-323 -38.2564,-261.644 69.3826,-204.313 148.894,-172.331"/>
<polygon fill="red" stroke="red" points="150.426,-175.489 158.439,-168.558 147.852,-168.98 150.426,-175.489"/>
<text text-anchor="middle" x="76.2197" y="-311.8" font-family="Times New Roman,serif" font-size="14.00" fill="red"> &#160;&#160;press(&quot;BackKey&quot;) &#160;&#160;</text>
</g>
<!-- activity_0&#45;&gt;state_33 -->
<g id="edge2" class="edge"><title>activity_0&#45;&gt;state_33</title>
<path fill="none" stroke="red" d="M189.653,-346.741C178.775,-341.35 167.952,-333.675 161.72,-323 158.358,-317.243 160.508,-314.556 161.72,-308 162.216,-305.316 162.754,-302.62 163.332,-299.914"/>
<polygon fill="red" stroke="red" points="166.761,-300.618 165.587,-290.088 159.939,-299.052 166.761,-300.618"/>
<text text-anchor="middle" x="213.22" y="-311.8" font-family="Times New Roman,serif" font-size="14.00" fill="red"> &#160;&#160;click(&quot;給5星&quot;) &#160;&#160;</text>
</g>
<!-- activity_0&#45;&gt;state_33 -->
<g id="edge3" class="edge"><title>activity_0&#45;&gt;state_33</title>
<path fill="none" stroke="red" d="M247.77,-343.289C254.529,-337.83 261.036,-330.989 264.72,-323 268.11,-315.649 270.408,-307.993 271.799,-300.167"/>
<polygon fill="red" stroke="red" points="275.28,-300.539 273.09,-290.173 268.338,-299.642 275.28,-300.539"/>
<text text-anchor="middle" x="331.22" y="-311.8" font-family="Times New Roman,serif" font-size="14.00" fill="red"> &#160;&#160;press(&quot;BackKey&quot;) &#160;&#160;</text>
</g>
<!-- activity_0&#45;&gt;state_33 -->
<g id="edge4" class="edge"><title>activity_0&#45;&gt;state_33</title>
<path fill="none" stroke="red" d="M269.203,-355.227C315.212,-351.361 381.76,-342.489 397.72,-323 441.264,-269.825 363.006,-214.203 297.817,-179.824"/>
<polygon fill="red" stroke="red" points="299.21,-176.604 288.72,-175.116 295.993,-182.821 299.21,-176.604"/>
<text text-anchor="middle" x="455.22" y="-311.8" font-family="Times New Roman,serif" font-size="14.00" fill="red"> &#160;&#160;click(&quot;給5星&quot;) &#160;&#160;</text>
</g>
</g>
</svg>
