<?xml version="1.0" encoding="UTF-8" standalone="no"?>
<!DOCTYPE svg PUBLIC "-//W3C//DTD SVG 1.1//EN"
 "http://www.w3.org/Graphics/SVG/1.1/DTD/svg11.dtd">
<!-- Generated by graphviz version 2.38.0 (20140413.2041)
 -->
<!-- Title: result Pages: 1 -->
<svg width="605pt" height="283pt"
 viewBox="0.00 0.00 605.00 283.00" xmlns="http://www.w3.org/2000/svg" xmlns:xlink="http://www.w3.org/1999/xlink">
<g id="graph0" class="graph" transform="scale(1 1) rotate(0) translate(4 279)">
<title>result</title>
<polygon fill="white" stroke="none" points="-4,4 -4,-279 601,-279 601,4 -4,4"/>
<!-- initial -->
<g id="node1" class="node"><title>initial</title>
<image xlink:href="-1.png" width="50px" height="50px" preserveAspectRatio="xMinYMin meet" x="0" y="-162.5"/>
</g>
<!-- activity_0 -->
<g id="node2" class="node"><title>activity_0</title>
<g id="a_node2"><a xlink:href="activity_0.svg" xlink:title="&lt;TABLE&gt;">
<polygon fill="none" stroke="black" points="217,-275 87,-275 87,-0 217,-0 217,-275"/>
<text text-anchor="start" x="124.5" y="-263.3" font-family="Times New Roman,serif" font-size="14.00">activity_0</text>
<text text-anchor="start" x="121.5" y="-248.3" font-family="Times New Roman,serif" font-size="14.00">incoming:0</text>
<text text-anchor="start" x="122.5" y="-233.3" font-family="Times New Roman,serif" font-size="14.00">outgoing:4</text>
<image xlink:href="0.png" width="130px" height="230px" preserveAspectRatio="xMinYMin meet" x="87" y="-229.5"/>
</a>
</g>
</g>
<!-- initial&#45;&gt;activity_0 -->
<g id="edge1" class="edge"><title>initial&#45;&gt;activity_0</title>
<path fill="none" stroke="black" d="M50.1013,-137.5C57.9994,-137.5 67.2332,-137.5 76.8484,-137.5"/>
<polygon fill="black" stroke="black" points="76.9667,-141 86.9666,-137.5 76.9666,-134 76.9667,-141"/>
</g>
<!-- activity_1 -->
<g id="node3" class="node"><title>activity_1</title>
<g id="a_node3"><a xlink:href="activity_1.svg" xlink:title="&lt;TABLE&gt;">
<polygon fill="none" stroke="black" points="597,-275 467,-275 467,-0 597,-0 597,-275"/>
<text text-anchor="start" x="504.5" y="-263.3" font-family="Times New Roman,serif" font-size="14.00">activity_1</text>
<text text-anchor="start" x="501.5" y="-248.3" font-family="Times New Roman,serif" font-size="14.00">incoming:4</text>
<text text-anchor="start" x="502.5" y="-233.3" font-family="Times New Roman,serif" font-size="14.00">outgoing:0</text>
<image xlink:href="33.png" width="130px" height="230px" preserveAspectRatio="xMinYMin meet" x="467" y="-229.5"/>
</a>
</g>
</g>
<!-- activity_0&#45;&gt;activity_1 -->
<g id="edge2" class="edge"><title>activity_0&#45;&gt;activity_1</title>
<path fill="none" stroke="black" d="M217.122,-167.704C223.07,-169.637 229.086,-171.291 235,-172.5 328.183,-191.555 355.817,-191.555 449,-172.5 451.68,-171.952 454.381,-171.313 457.086,-170.598"/>
<polygon fill="black" stroke="black" points="458.28,-173.895 466.878,-167.704 456.296,-167.182 458.28,-173.895"/>
<text text-anchor="middle" x="342" y="-190.3" font-family="Times New Roman,serif" font-size="14.00"> &#160;&#160;&lt;a0.s0,press(&quot;BackKey&quot;),a1.s33&gt; &#160;&#160;</text>
</g>
<!-- activity_0&#45;&gt;activity_1 -->
<g id="edge3" class="edge"><title>activity_0&#45;&gt;activity_1</title>
<path fill="none" stroke="black" d="M217.123,-137.5C283.474,-137.5 386.993,-137.5 456.828,-137.5"/>
<polygon fill="black" stroke="black" points="456.879,-141 466.879,-137.5 456.879,-134 456.879,-141"/>
<text text-anchor="middle" x="342" y="-141.3" font-family="Times New Roman,serif" font-size="14.00"> &#160;&#160;&lt;a0.s5,click(&quot;給5星&quot;),a1.s33&gt; &#160;&#160;</text>
</g>
<!-- activity_0&#45;&gt;activity_1 -->
<g id="edge4" class="edge"><title>activity_0&#45;&gt;activity_1</title>
<path fill="none" stroke="black" d="M217.216,-121.165C223.198,-120.084 229.193,-119.164 235,-118.5 329.495,-107.695 354.505,-107.695 449,-118.5 451.541,-118.791 454.117,-119.13 456.713,-119.511"/>
<polygon fill="black" stroke="black" points="456.348,-122.998 466.784,-121.165 457.483,-116.09 456.348,-122.998"/>
<text text-anchor="middle" x="342" y="-122.3" font-family="Times New Roman,serif" font-size="14.00"> &#160;&#160;&lt;a0.s6,press(&quot;BackKey&quot;),a1.s33&gt; &#160;&#160;</text>
</g>
<!-- activity_0&#45;&gt;activity_1 -->
<g id="edge5" class="edge"><title>activity_0&#45;&gt;activity_1</title>
<path fill="none" stroke="black" d="M217.008,-96.7896C222.931,-94.268 228.975,-92.1044 235,-90.5 326.909,-66.0277 357.091,-66.0277 449,-90.5 451.824,-91.252 454.653,-92.127 457.471,-93.1041"/>
<polygon fill="black" stroke="black" points="456.403,-96.4437 466.992,-96.7896 458.93,-89.9157 456.403,-96.4437"/>
<text text-anchor="middle" x="342" y="-94.3" font-family="Times New Roman,serif" font-size="14.00"> &#160;&#160;&lt;a0.s9,click(&quot;給5星&quot;),a1.s33&gt; &#160;&#160;</text>
</g>
</g>
</svg>
