<?xml version="1.0" encoding="UTF-8" standalone="no"?>
<!DOCTYPE svg PUBLIC "-//W3C//DTD SVG 1.1//EN"
 "http://www.w3.org/Graphics/SVG/1.1/DTD/svg11.dtd">
<!-- Generated by graphviz version 2.38.0 (20140413.2041)
 -->
<!-- Title: activity_0 Pages: 1 -->
<svg width="1247pt" height="740pt"
 viewBox="0.00 0.00 1247.45 740.00" xmlns="http://www.w3.org/2000/svg" xmlns:xlink="http://www.w3.org/1999/xlink">
<g id="graph0" class="graph" transform="scale(1 1) rotate(0) translate(4 736)">
<title>activity_0</title>
<polygon fill="white" stroke="none" points="-4,4 -4,-736 1243.45,-736 1243.45,4 -4,4"/>
<!-- state_0 -->
<g id="node1" class="node"><title>state_0</title>
<g id="a_node1"><a xlink:href="0.png" xlink:title="&lt;TABLE&gt;">
<polygon fill="none" stroke="black" points="543.451,-732 413.451,-732 413.451,-442 543.451,-442 543.451,-732"/>
<text text-anchor="start" x="458.451" y="-720.8" font-family="Times New Roman,serif" font-size="14.00">state_0</text>
<text text-anchor="start" x="447.951" y="-705.8" font-family="Times New Roman,serif" font-size="14.00">incoming:7</text>
<text text-anchor="start" x="448.951" y="-690.8" font-family="Times New Roman,serif" font-size="14.00">outgoing:6</text>
<text text-anchor="start" x="460.451" y="-675.8" font-family="Times New Roman,serif" font-size="14.00">loop:2</text>
<image xlink:href="0.png" width="130px" height="230px" preserveAspectRatio="xMinYMin meet" x="413.451" y="-672"/>
</a>
</g>
</g>
<!-- state_0&#45;&gt;state_0 -->
<g id="edge1" class="edge"><title>state_0&#45;&gt;state_0</title>
<path fill="none" stroke="black" d="M543.523,-601.746C554.148,-599.635 561.451,-594.72 561.451,-587 561.451,-581.934 558.306,-578.076 553.141,-575.425"/>
<polygon fill="black" stroke="black" points="554.116,-572.061 543.523,-572.254 551.924,-578.709 554.116,-572.061"/>
<text text-anchor="middle" x="614.451" y="-583.3" font-family="Times New Roman,serif" font-size="14.00"> &#160;&#160;swipe(&quot;Right&quot;) &#160;&#160;</text>
</g>
<!-- state_0&#45;&gt;state_0 -->
<g id="edge2" class="edge"><title>state_0&#45;&gt;state_0</title>
<path fill="none" stroke="black" d="M543.564,-615.524C599.355,-624.648 667.451,-615.14 667.451,-587 667.451,-560.509 607.101,-550.53 553.482,-557.064"/>
<polygon fill="black" stroke="black" points="552.971,-553.601 543.564,-558.476 553.958,-560.531 552.971,-553.601"/>
<text text-anchor="middle" x="716.951" y="-583.3" font-family="Times New Roman,serif" font-size="14.00"> &#160;&#160;swipe(&quot;Left&quot;) &#160;&#160;</text>
</g>
<!-- state_6 -->
<g id="node2" class="node"><title>state_6</title>
<g id="a_node2"><a xlink:href="6.png" xlink:title="&lt;TABLE&gt;">
<polygon fill="none" stroke="black" points="405.451,-391 275.451,-391 275.451,-101 405.451,-101 405.451,-391"/>
<text text-anchor="start" x="320.451" y="-379.8" font-family="Times New Roman,serif" font-size="14.00">state_6</text>
<text text-anchor="start" x="309.951" y="-364.8" font-family="Times New Roman,serif" font-size="14.00">incoming:3</text>
<text text-anchor="start" x="310.951" y="-349.8" font-family="Times New Roman,serif" font-size="14.00">outgoing:6</text>
<text text-anchor="start" x="322.451" y="-334.8" font-family="Times New Roman,serif" font-size="14.00">loop:2</text>
<image xlink:href="6.png" width="130px" height="230px" preserveAspectRatio="xMinYMin meet" x="275.451" y="-331"/>
</a>
</g>
</g>
<!-- state_0&#45;&gt;state_6 -->
<g id="edge4" class="edge"><title>state_0&#45;&gt;state_6</title>
<path fill="none" stroke="black" d="M413.139,-582.97C315.525,-574.506 134.316,-542.716 52.451,-424 16.3914,-371.708 48.2275,-434.614 147.451,-391 190.5,-372.078 232.979,-341.983 267.078,-314.188"/>
<polygon fill="black" stroke="black" points="269.63,-316.619 275.114,-307.554 265.174,-311.221 269.63,-316.619"/>
<text text-anchor="middle" x="116.451" y="-412.8" font-family="Times New Roman,serif" font-size="14.00"> &#160;&#160;press(&quot;MenuKey&quot;) &#160;&#160;</text>
</g>
<!-- final -->
<g id="node3" class="node"><title>final</title>
<image xlink:href="-2.png" width="50px" height="50px" preserveAspectRatio="xMinYMin meet" x="741.451" y="-50"/>
</g>
<!-- state_0&#45;&gt;final -->
<g id="edge3" class="edge"><title>state_0&#45;&gt;final</title>
<path fill="none" stroke="red" d="M413.13,-583.859C312.921,-576.63 123.9,-546.518 38.451,-424 -47.7449,-300.412 24.6442,-196.184 141.451,-101 232.642,-26.6898 612.444,-24.3218 730.963,-25.4487"/>
<polygon fill="red" stroke="red" points="731.244,-28.9519 741.282,-25.5623 731.321,-21.9523 731.244,-28.9519"/>
<text text-anchor="middle" x="203.951" y="-242.3" font-family="Times New Roman,serif" font-size="14.00" fill="red"> &#160;&#160;press(&quot;BackKey&quot;) &#160;&#160;</text>
</g>
<!-- activity_1 -->
<g id="node4" class="node"><title>activity_1</title>
<ellipse fill="none" stroke="red" cx="885.451" cy="-246" rx="46.2923" ry="18"/>
<text text-anchor="middle" x="885.451" y="-242.3" font-family="Times New Roman,serif" font-size="14.00" fill="red">activity_1</text>
</g>
<!-- state_0&#45;&gt;activity_1 -->
<g id="edge5" class="edge"><title>state_0&#45;&gt;activity_1</title>
<path fill="none" stroke="red" d="M543.566,-549.82C595.557,-519.476 668.962,-473.291 726.451,-424 783.062,-375.462 838.899,-307.361 866.902,-271.425"/>
<polygon fill="red" stroke="red" points="869.736,-273.481 873.086,-263.429 864.199,-269.198 869.736,-273.481"/>
<text text-anchor="middle" x="836.951" y="-412.8" font-family="Times New Roman,serif" font-size="14.00" fill="red"> &#160;&#160;click(&quot;104年三四月中獎號碼&quot;) &#160;&#160;</text>
</g>
<!-- state_0&#45;&gt;activity_1 -->
<g id="edge6" class="edge"><title>state_0&#45;&gt;activity_1</title>
<path fill="none" stroke="red" d="M543.529,-585.001C647.122,-579.467 847.034,-551.794 937.451,-424 970.931,-376.679 931.079,-307.798 904.851,-271.495"/>
<polygon fill="red" stroke="red" points="907.624,-269.359 898.85,-263.42 902.006,-273.534 907.624,-269.359"/>
<text text-anchor="middle" x="1037.45" y="-412.8" font-family="Times New Roman,serif" font-size="14.00" fill="red"> &#160;&#160;click(&quot;104年1~2月中獎號碼&quot;) &#160;&#160;</text>
</g>
<!-- state_6&#45;&gt;state_0 -->
<g id="edge7" class="edge"><title>state_6&#45;&gt;state_0</title>
<path fill="none" stroke="black" d="M275.041,-286.536C226.882,-320.977 174.432,-373.225 203.451,-424 246.102,-498.626 338.035,-542.295 403.867,-565.123"/>
<polygon fill="black" stroke="black" points="402.787,-568.453 413.381,-568.341 405.03,-561.822 402.787,-568.453"/>
<text text-anchor="middle" x="260.951" y="-412.8" font-family="Times New Roman,serif" font-size="14.00"> &#160;&#160;click(&quot;index=0&quot;) &#160;&#160;</text>
</g>
<!-- state_6&#45;&gt;state_0 -->
<g id="edge8" class="edge"><title>state_6&#45;&gt;state_0</title>
<path fill="none" stroke="black" d="M332.825,-391.026C334.766,-402.359 337.565,-413.478 341.451,-424 354.924,-460.478 380.585,-494.421 406.089,-521.716"/>
<polygon fill="black" stroke="black" points="403.831,-524.419 413.269,-529.235 408.894,-519.585 403.831,-524.419"/>
<text text-anchor="middle" x="398.951" y="-412.8" font-family="Times New Roman,serif" font-size="14.00"> &#160;&#160;click(&quot;index=0&quot;) &#160;&#160;</text>
</g>
<!-- state_6&#45;&gt;state_0 -->
<g id="edge11" class="edge"><title>state_6&#45;&gt;state_0</title>
<path fill="none" stroke="black" d="M405.583,-321.496C425.03,-347.556 444.364,-378.07 456.451,-409 459.376,-416.484 461.933,-424.27 464.169,-432.219"/>
<polygon fill="black" stroke="black" points="460.809,-433.206 466.738,-441.986 467.579,-431.425 460.809,-433.206"/>
<text text-anchor="middle" x="522.951" y="-412.8" font-family="Times New Roman,serif" font-size="14.00"> &#160;&#160;press(&quot;BackKey&quot;) &#160;&#160;</text>
</g>
<!-- state_6&#45;&gt;state_0 -->
<g id="edge12" class="edge"><title>state_6&#45;&gt;state_0</title>
<path fill="none" stroke="black" d="M405.472,-268.783C465.398,-292.736 550.723,-337.6 589.451,-409 611.57,-449.78 583.88,-493.993 550.629,-528.03"/>
<polygon fill="black" stroke="black" points="548.102,-525.607 543.466,-535.134 553.031,-530.578 548.102,-525.607"/>
<text text-anchor="middle" x="658.451" y="-412.8" font-family="Times New Roman,serif" font-size="14.00"> &#160;&#160;press(&quot;MenuKey&quot;) &#160;&#160;</text>
</g>
<!-- state_6&#45;&gt;state_6 -->
<g id="edge9" class="edge"><title>state_6&#45;&gt;state_6</title>
<path fill="none" stroke="black" d="M405.523,-260.746C416.148,-258.635 423.451,-253.72 423.451,-246 423.451,-240.934 420.306,-237.076 415.141,-234.425"/>
<polygon fill="black" stroke="black" points="416.116,-231.061 405.523,-231.254 413.924,-237.709 416.116,-231.061"/>
<text text-anchor="middle" x="476.451" y="-242.3" font-family="Times New Roman,serif" font-size="14.00"> &#160;&#160;swipe(&quot;Right&quot;) &#160;&#160;</text>
</g>
<!-- state_6&#45;&gt;state_6 -->
<g id="edge10" class="edge"><title>state_6&#45;&gt;state_6</title>
<path fill="none" stroke="black" d="M405.564,-274.524C461.355,-283.648 529.451,-274.14 529.451,-246 529.451,-219.509 469.101,-209.53 415.482,-216.064"/>
<polygon fill="black" stroke="black" points="414.971,-212.601 405.564,-217.476 415.958,-219.531 414.971,-212.601"/>
<text text-anchor="middle" x="578.951" y="-242.3" font-family="Times New Roman,serif" font-size="14.00"> &#160;&#160;swipe(&quot;Left&quot;) &#160;&#160;</text>
</g>
<!-- activity_1&#45;&gt;state_0 -->
<g id="edge13" class="edge"><title>activity_1&#45;&gt;state_0</title>
<path fill="none" stroke="red" d="M923.603,-256.181C1008.7,-278.424 1201.53,-339.645 1135.45,-424 1063.76,-515.512 710.271,-562.351 553.524,-578.896"/>
<polygon fill="red" stroke="red" points="553.072,-575.424 543.489,-579.943 553.798,-582.387 553.072,-575.424"/>
<text text-anchor="middle" x="1191.45" y="-412.8" font-family="Times New Roman,serif" font-size="14.00" fill="red"> &#160;&#160;click(&quot;返回&quot;) &#160;&#160;</text>
</g>
<!-- activity_1&#45;&gt;final -->
<g id="edge14" class="edge"><title>activity_1&#45;&gt;final</title>
<path fill="none" stroke="red" d="M868.423,-229.05C840.995,-202.075 788.026,-144.361 767.451,-83 765.05,-75.8389 763.991,-67.8822 763.688,-60.2404"/>
<polygon fill="red" stroke="red" points="767.188,-60.1195 763.688,-50.1194 760.188,-60.1193 767.188,-60.1195"/>
<text text-anchor="middle" x="815.451" y="-71.8" font-family="Times New Roman,serif" font-size="14.00" fill="red"> &#160;&#160;click(&quot;離開&quot;) &#160;&#160;</text>
</g>
<!-- activity_1&#45;&gt;final -->
<g id="edge15" class="edge"><title>activity_1&#45;&gt;final</title>
<path fill="none" stroke="red" d="M888.465,-227.872C893.468,-193.729 899.653,-116.327 863.451,-68 848.796,-48.4361 823.13,-37.8603 801.879,-32.2159"/>
<polygon fill="red" stroke="red" points="802.409,-28.7441 791.87,-29.8234 800.782,-35.5523 802.409,-28.7441"/>
<text text-anchor="middle" x="932.951" y="-71.8" font-family="Times New Roman,serif" font-size="14.00" fill="red"> &#160;&#160;press(&quot;BackKey&quot;) &#160;&#160;</text>
</g>
</g>
</svg>
