<?xml version="1.0" encoding="UTF-8" standalone="no"?>
<!DOCTYPE svg PUBLIC "-//W3C//DTD SVG 1.1//EN"
 "http://www.w3.org/Graphics/SVG/1.1/DTD/svg11.dtd">
<!-- Generated by graphviz version 2.38.0 (20140413.2041)
 -->
<!-- Title: result Pages: 1 -->
<svg width="958pt" height="283pt"
 viewBox="0.00 0.00 958.00 283.00" xmlns="http://www.w3.org/2000/svg" xmlns:xlink="http://www.w3.org/1999/xlink">
<g id="graph0" class="graph" transform="scale(1 1) rotate(0) translate(4 279)">
<title>result</title>
<polygon fill="white" stroke="none" points="-4,4 -4,-279 954,-279 954,4 -4,4"/>
<!-- initial -->
<g id="node1" class="node"><title>initial</title>
<image xlink:href="-1.png" width="50px" height="50px" preserveAspectRatio="xMinYMin meet" x="0" y="-162.5"/>
</g>
<!-- activity_0 -->
<g id="node2" class="node"><title>activity_0</title>
<g id="a_node2"><a xlink:href="activity_0.svg" xlink:title="&lt;TABLE&gt;">
<polygon fill="none" stroke="black" points="217,-275 87,-275 87,-0 217,-0 217,-275"/>
<text text-anchor="start" x="124.5" y="-263.3" font-family="Times New Roman,serif" font-size="14.00">activity_0</text>
<text text-anchor="start" x="121.5" y="-248.3" font-family="Times New Roman,serif" font-size="14.00">incoming:3</text>
<text text-anchor="start" x="122.5" y="-233.3" font-family="Times New Roman,serif" font-size="14.00">outgoing:2</text>
<image xlink:href="0.png" width="130px" height="230px" preserveAspectRatio="xMinYMin meet" x="87" y="-229.5"/>
</a>
</g>
</g>
<!-- initial&#45;&gt;activity_0 -->
<g id="edge1" class="edge"><title>initial&#45;&gt;activity_0</title>
<path fill="none" stroke="black" d="M50.1013,-137.5C57.9994,-137.5 67.2332,-137.5 76.8484,-137.5"/>
<polygon fill="black" stroke="black" points="76.9667,-141 86.9666,-137.5 76.9666,-134 76.9667,-141"/>
</g>
<!-- activity_1 -->
<g id="node3" class="node"><title>activity_1</title>
<g id="a_node3"><a xlink:href="activity_1.svg" xlink:title="&lt;TABLE&gt;">
<polygon fill="none" stroke="black" points="658,-275 528,-275 528,-0 658,-0 658,-275"/>
<text text-anchor="start" x="565.5" y="-263.3" font-family="Times New Roman,serif" font-size="14.00">activity_1</text>
<text text-anchor="start" x="562.5" y="-248.3" font-family="Times New Roman,serif" font-size="14.00">incoming:2</text>
<text text-anchor="start" x="563.5" y="-233.3" font-family="Times New Roman,serif" font-size="14.00">outgoing:3</text>
<image xlink:href="1.png" width="130px" height="230px" preserveAspectRatio="xMinYMin meet" x="528" y="-229.5"/>
</a>
</g>
</g>
<!-- activity_0&#45;&gt;activity_1 -->
<g id="edge2" class="edge"><title>activity_0&#45;&gt;activity_1</title>
<path fill="none" stroke="black" d="M217.286,-151.258C223.253,-152.168 229.225,-152.942 235,-153.5 356.655,-165.258 388.345,-165.258 510,-153.5 512.527,-153.256 515.091,-152.97 517.676,-152.65"/>
<polygon fill="black" stroke="black" points="518.29,-156.099 527.714,-151.258 517.328,-149.165 518.29,-156.099"/>
<text text-anchor="middle" x="372.5" y="-165.3" font-family="Times New Roman,serif" font-size="14.00"> &#160;&#160;&lt;a0.s0,click(&quot;104年三四月中獎號碼&quot;),a1.s1&gt; &#160;&#160;</text>
</g>
<!-- activity_0&#45;&gt;activity_1 -->
<g id="edge3" class="edge"><title>activity_0&#45;&gt;activity_1</title>
<path fill="none" stroke="black" d="M217.007,-134.932C223.088,-134.756 229.16,-134.607 235,-134.5 357.202,-132.265 387.798,-132.265 510,-134.5 512.555,-134.547 515.154,-134.602 517.78,-134.663"/>
<polygon fill="black" stroke="black" points="517.904,-138.168 527.993,-134.932 518.089,-131.17 517.904,-138.168"/>
<text text-anchor="middle" x="372.5" y="-138.3" font-family="Times New Roman,serif" font-size="14.00"> &#160;&#160;&lt;a0.s0,click(&quot;104年1~2月中獎號碼&quot;),a1.s1&gt; &#160;&#160;</text>
</g>
<!-- activity_1&#45;&gt;activity_0 -->
<g id="edge4" class="edge"><title>activity_1&#45;&gt;activity_0</title>
<path fill="none" stroke="black" d="M527.924,-116.873C521.913,-115.507 515.873,-114.342 510,-113.5 389.014,-96.1585 355.986,-96.1585 235,-113.5 232.339,-113.881 229.643,-114.329 226.932,-114.832"/>
<polygon fill="black" stroke="black" points="226.158,-111.418 217.076,-116.873 227.578,-118.272 226.158,-111.418"/>
<text text-anchor="middle" x="372.5" y="-117.3" font-family="Times New Roman,serif" font-size="14.00"> &#160;&#160;&lt;a1.s1,click(&quot;返回&quot;),a0.s0&gt; &#160;&#160;</text>
</g>
<!-- final -->
<g id="node4" class="node"><title>final</title>
<ellipse fill="none" stroke="black" cx="923" cy="-137.5" rx="27" ry="18"/>
<text text-anchor="middle" x="923" y="-133.8" font-family="Times New Roman,serif" font-size="14.00">final</text>
</g>
<!-- activity_1&#45;&gt;final -->
<g id="edge5" class="edge"><title>activity_1&#45;&gt;final</title>
<path fill="none" stroke="black" d="M658.02,-137.5C725.836,-137.5 830.533,-137.5 885.478,-137.5"/>
<polygon fill="black" stroke="black" points="885.778,-141 895.777,-137.5 885.777,-134 885.778,-141"/>
<text text-anchor="middle" x="777" y="-141.3" font-family="Times New Roman,serif" font-size="14.00"> &#160;&#160;&lt;a1.s1,click(&quot;離開&quot;),final&gt; &#160;&#160;</text>
</g>
<!-- activity_1&#45;&gt;final -->
<g id="edge6" class="edge"><title>activity_1&#45;&gt;final</title>
<path fill="none" stroke="black" d="M658.216,-121.165C664.198,-120.084 670.193,-119.164 676,-118.5 765.197,-108.301 790.08,-100.328 878,-118.5 882.522,-119.435 887.152,-120.857 891.63,-122.512"/>
<polygon fill="black" stroke="black" points="890.509,-125.836 901.089,-126.406 893.174,-119.363 890.509,-125.836"/>
<text text-anchor="middle" x="777" y="-122.3" font-family="Times New Roman,serif" font-size="14.00"> &#160;&#160;&lt;a1.s1,press(&quot;BackKey&quot;),final&gt; &#160;&#160;</text>
</g>
</g>
</svg>
