<?xml version="1.0" encoding="UTF-8" standalone="no"?>
<!DOCTYPE svg PUBLIC "-//W3C//DTD SVG 1.1//EN"
 "http://www.w3.org/Graphics/SVG/1.1/DTD/svg11.dtd">
<!-- Generated by graphviz version 2.38.0 (20140413.2041)
 -->
<!-- Title: g Pages: 1 -->
<svg width="1313pt" height="823pt"
 viewBox="0.00 0.00 1312.55 823.00" xmlns="http://www.w3.org/2000/svg" xmlns:xlink="http://www.w3.org/1999/xlink">
<g id="graph0" class="graph" transform="scale(1 1) rotate(0) translate(4 819)">
<title>g</title>
<polygon fill="white" stroke="none" points="-4,4 -4,-819 1308.55,-819 1308.55,4 -4,4"/>
<text text-anchor="middle" x="652.277" y="-7.8" font-family="Times New Roman,serif" font-size="14.00"> &#160;&#160;activity_1 &#160;&#160;</text>
<!-- state_0 -->
<g id="node1" class="node"><title>state_0</title>
<g id="a_node1"><a xlink:href="0.png">
<polygon fill="none" stroke="black" points="510.553,-815 380.553,-815 380.553,-585 510.553,-585 510.553,-815"/>
<image xlink:href="0.png" width="130px" height="230px" preserveAspectRatio="xMinYMin meet" x="380.553" y="-815"/>
</a>
</g>
</g>
<!-- state_0&#45;&gt;state_0 -->
<g id="edge1" class="edge"><title>state_0&#45;&gt;state_0</title>
<path fill="none" stroke="black" d="M510.625,-712.144C521.251,-710.405 528.553,-706.357 528.553,-700 528.553,-695.927 525.556,-692.802 520.609,-690.625"/>
<polygon fill="black" stroke="black" points="521.197,-687.156 510.625,-687.856 519.326,-693.902 521.197,-687.156"/>
<text text-anchor="middle" x="581.553" y="-696.3" font-family="Times New Roman,serif" font-size="14.00"> &#160;&#160;swipe(&quot;Right&quot;) &#160;&#160;</text>
</g>
<!-- state_0&#45;&gt;state_0 -->
<g id="edge2" class="edge"><title>state_0&#45;&gt;state_0</title>
<path fill="none" stroke="black" d="M510.667,-723.491C566.457,-731.004 634.553,-723.174 634.553,-700 634.553,-678.229 574.453,-670 520.918,-675.313"/>
<polygon fill="black" stroke="black" points="520.194,-671.874 510.667,-676.509 521.005,-678.827 520.194,-671.874"/>
<text text-anchor="middle" x="684.053" y="-696.3" font-family="Times New Roman,serif" font-size="14.00"> &#160;&#160;swipe(&quot;Left&quot;) &#160;&#160;</text>
</g>
<!-- state_final -->
<g id="node2" class="node"><title>state_final</title>
<g id="a_node2"><a xlink:href="-2.png">
<polygon fill="none" stroke="black" points="798.553,-253 668.553,-253 668.553,-23 798.553,-23 798.553,-253"/>
<image xlink:href="-2.png" width="76px" height="74px" preserveAspectRatio="xMinYMin meet" x="695.553" y="-175"/>
</a>
</g>
</g>
<!-- state_0&#45;&gt;state_final -->
<g id="edge3" class="edge"><title>state_0&#45;&gt;state_final</title>
<path fill="none" stroke="black" d="M380.453,-689.129C269.111,-670.77 49.714,-627.658 4.55336,-567 0.572156,-561.653 3.23844,-558.536 4.55336,-552 28.1276,-434.826 18.375,-382.443 108.553,-304 267.663,-165.596 529.939,-141.475 658.199,-138.435"/>
<polygon fill="black" stroke="black" points="658.392,-141.932 668.32,-138.233 658.252,-134.934 658.392,-141.932"/>
<text text-anchor="middle" x="171.053" y="-415.3" font-family="Times New Roman,serif" font-size="14.00"> &#160;&#160;press(&quot;BackKey&quot;) &#160;&#160;</text>
</g>
<!-- state_6 -->
<g id="node3" class="node"><title>state_6</title>
<g id="a_node3"><a xlink:href="6.png">
<polygon fill="none" stroke="black" points="372.553,-534 242.553,-534 242.553,-304 372.553,-304 372.553,-534"/>
<image xlink:href="6.png" width="130px" height="230px" preserveAspectRatio="xMinYMin meet" x="242.553" y="-534"/>
</a>
</g>
</g>
<!-- state_0&#45;&gt;state_6 -->
<g id="edge4" class="edge"><title>state_0&#45;&gt;state_6</title>
<path fill="none" stroke="black" d="M380.49,-688.409C272.238,-669.313 62.7352,-625.588 19.5534,-567 -19.0053,-514.685 -0.77926,-577.463 114.553,-534 156.181,-518.313 199.115,-493.904 233.888,-471.692"/>
<polygon fill="black" stroke="black" points="236.047,-474.464 242.548,-466.098 232.249,-468.584 236.047,-474.464"/>
<text text-anchor="middle" x="83.5534" y="-555.8" font-family="Times New Roman,serif" font-size="14.00"> &#160;&#160;press(&quot;MenuKey&quot;) &#160;&#160;</text>
</g>
<!-- state_1 -->
<g id="node4" class="node"><title>state_1</title>
<g id="a_node4"><a xlink:href="1.png">
<polygon fill="none" stroke="black" points="917.553,-534 787.553,-534 787.553,-304 917.553,-304 917.553,-534"/>
<image xlink:href="1.png" width="130px" height="230px" preserveAspectRatio="xMinYMin meet" x="787.553" y="-534"/>
</a>
</g>
</g>
<!-- state_0&#45;&gt;state_1 -->
<g id="edge5" class="edge"><title>state_0&#45;&gt;state_1</title>
<path fill="none" stroke="black" d="M510.704,-670.483C562.836,-646.307 636.697,-608.943 695.553,-567 724.89,-546.094 754.413,-520.067 779.815,-495.749"/>
<polygon fill="black" stroke="black" points="782.452,-498.069 787.213,-488.604 777.589,-493.034 782.452,-498.069"/>
<text text-anchor="middle" x="810.053" y="-555.8" font-family="Times New Roman,serif" font-size="14.00"> &#160;&#160;click(&quot;104年三四月中獎號碼&quot;) &#160;&#160;</text>
</g>
<!-- state_0&#45;&gt;state_1 -->
<g id="edge6" class="edge"><title>state_0&#45;&gt;state_1</title>
<path fill="none" stroke="black" d="M510.919,-690.158C627.173,-672.948 862.237,-630.94 910.553,-567 920.458,-553.892 922.555,-538.873 919.956,-523.555"/>
<polygon fill="black" stroke="black" points="923.282,-522.407 917.604,-513.462 916.465,-523.995 923.282,-522.407"/>
<text text-anchor="middle" x="1011.55" y="-555.8" font-family="Times New Roman,serif" font-size="14.00"> &#160;&#160;click(&quot;104年1~2月中獎號碼&quot;) &#160;&#160;</text>
</g>
<!-- state_6&#45;&gt;state_0 -->
<g id="edge7" class="edge"><title>state_6&#45;&gt;state_0</title>
<path fill="none" stroke="black" d="M242.205,-451.957C194.51,-479.854 142.684,-522.71 170.553,-567 214.08,-636.174 305.068,-669.917 370.475,-685.809"/>
<polygon fill="black" stroke="black" points="369.801,-689.246 380.335,-688.118 371.397,-682.43 369.801,-689.246"/>
<text text-anchor="middle" x="228.053" y="-555.8" font-family="Times New Roman,serif" font-size="14.00"> &#160;&#160;click(&quot;index=0&quot;) &#160;&#160;</text>
</g>
<!-- state_6&#45;&gt;state_0 -->
<g id="edge8" class="edge"><title>state_6&#45;&gt;state_0</title>
<path fill="none" stroke="black" d="M299.363,-534.235C301.189,-545.566 304.125,-556.681 308.553,-567 322.129,-598.632 347.356,-626.386 372.499,-648.177"/>
<polygon fill="black" stroke="black" points="370.386,-650.973 380.286,-654.746 374.899,-645.622 370.386,-650.973"/>
<text text-anchor="middle" x="366.053" y="-555.8" font-family="Times New Roman,serif" font-size="14.00"> &#160;&#160;click(&quot;index=0&quot;) &#160;&#160;</text>
</g>
<!-- state_6&#45;&gt;state_0 -->
<g id="edge11" class="edge"><title>state_6&#45;&gt;state_0</title>
<path fill="none" stroke="black" d="M372.698,-479.436C392.023,-500.496 411.282,-525.575 423.553,-552 426.953,-559.321 429.851,-567.048 432.318,-574.972"/>
<polygon fill="black" stroke="black" points="428.994,-576.077 435.119,-584.722 435.722,-574.144 428.994,-576.077"/>
<text text-anchor="middle" x="492.053" y="-555.8" font-family="Times New Roman,serif" font-size="14.00"> &#160;&#160;press(&quot;BackKey&quot;) &#160;&#160;</text>
</g>
<!-- state_6&#45;&gt;state_0 -->
<g id="edge12" class="edge"><title>state_6&#45;&gt;state_0</title>
<path fill="none" stroke="black" d="M372.631,-434.107C432.696,-450.956 518.464,-485.622 558.553,-552 579.66,-586.948 552.116,-623.349 518.947,-651.185"/>
<polygon fill="black" stroke="black" points="516.456,-648.699 510.883,-657.71 520.859,-654.141 516.456,-648.699"/>
<text text-anchor="middle" x="627.553" y="-555.8" font-family="Times New Roman,serif" font-size="14.00"> &#160;&#160;press(&quot;MenuKey&quot;) &#160;&#160;</text>
</g>
<!-- state_6&#45;&gt;state_6 -->
<g id="edge9" class="edge"><title>state_6&#45;&gt;state_6</title>
<path fill="none" stroke="black" d="M372.625,-431.144C383.251,-429.405 390.553,-425.357 390.553,-419 390.553,-414.927 387.556,-411.802 382.609,-409.625"/>
<polygon fill="black" stroke="black" points="383.197,-406.156 372.625,-406.856 381.326,-412.902 383.197,-406.156"/>
<text text-anchor="middle" x="443.553" y="-415.3" font-family="Times New Roman,serif" font-size="14.00"> &#160;&#160;swipe(&quot;Right&quot;) &#160;&#160;</text>
</g>
<!-- state_6&#45;&gt;state_6 -->
<g id="edge10" class="edge"><title>state_6&#45;&gt;state_6</title>
<path fill="none" stroke="black" d="M372.667,-442.491C428.457,-450.004 496.553,-442.174 496.553,-419 496.553,-397.229 436.453,-389 382.918,-394.313"/>
<polygon fill="black" stroke="black" points="382.194,-390.874 372.667,-395.509 383.005,-397.827 382.194,-390.874"/>
<text text-anchor="middle" x="546.053" y="-415.3" font-family="Times New Roman,serif" font-size="14.00"> &#160;&#160;swipe(&quot;Left&quot;) &#160;&#160;</text>
</g>
<!-- state_1&#45;&gt;state_0 -->
<g id="edge13" class="edge"><title>state_1&#45;&gt;state_0</title>
<path fill="none" stroke="black" d="M917.886,-431.306C1012.26,-450.416 1169.23,-494.291 1109.55,-567 1035.72,-656.954 678.797,-686.726 520.927,-695.597"/>
<polygon fill="black" stroke="black" points="520.615,-692.109 510.821,-696.152 520.998,-699.099 520.615,-692.109"/>
<text text-anchor="middle" x="1165.55" y="-555.8" font-family="Times New Roman,serif" font-size="14.00"> &#160;&#160;click(&quot;返回&quot;) &#160;&#160;</text>
</g>
<!-- state_1&#45;&gt;state_final -->
<g id="edge14" class="edge"><title>state_1&#45;&gt;state_final</title>
<path fill="none" stroke="black" d="M787.45,-363.283C766.45,-341.622 745.726,-314.966 734.553,-286 731.744,-278.717 729.592,-271.076 727.98,-263.266"/>
<polygon fill="black" stroke="black" points="731.405,-262.536 726.218,-253.298 724.512,-263.755 731.405,-262.536"/>
<text text-anchor="middle" x="782.553" y="-274.8" font-family="Times New Roman,serif" font-size="14.00"> &#160;&#160;click(&quot;離開&quot;) &#160;&#160;</text>
</g>
<!-- state_1&#45;&gt;state_final -->
<g id="edge17" class="edge"><title>state_1&#45;&gt;state_final</title>
<path fill="none" stroke="black" d="M841.089,-303.742C838.293,-292.472 834.833,-281.377 830.553,-271 823.784,-254.585 814.546,-238.324 804.447,-223.12"/>
<polygon fill="black" stroke="black" points="807.288,-221.073 798.758,-214.788 801.506,-225.02 807.288,-221.073"/>
<text text-anchor="middle" x="897.053" y="-274.8" font-family="Times New Roman,serif" font-size="14.00"> &#160;&#160;press(&quot;BackKey&quot;) &#160;&#160;</text>
</g>
<!-- state_1&#45;&gt;state_1 -->
<g id="edge15" class="edge"><title>state_1&#45;&gt;state_1</title>
<path fill="none" stroke="black" d="M917.625,-427.096C928.251,-425.937 935.553,-423.238 935.553,-419 935.553,-416.285 932.556,-414.202 927.609,-412.75"/>
<polygon fill="black" stroke="black" points="928.095,-409.281 917.625,-410.904 926.822,-416.164 928.095,-409.281"/>
<text text-anchor="middle" x="988.553" y="-415.3" font-family="Times New Roman,serif" font-size="14.00"> &#160;&#160;swipe(&quot;Right&quot;) &#160;&#160;</text>
</g>
<!-- state_1&#45;&gt;state_1 -->
<g id="edge16" class="edge"><title>state_1&#45;&gt;state_1</title>
<path fill="none" stroke="black" d="M917.667,-434.66C973.457,-439.669 1041.55,-434.449 1041.55,-419 1041.55,-404.486 981.453,-399 927.918,-402.542"/>
<polygon fill="black" stroke="black" points="927.365,-399.075 917.667,-403.34 927.908,-406.053 927.365,-399.075"/>
<text text-anchor="middle" x="1091.05" y="-415.3" font-family="Times New Roman,serif" font-size="14.00"> &#160;&#160;swipe(&quot;Left&quot;) &#160;&#160;</text>
</g>
<!-- state_1&#45;&gt;state_1 -->
<g id="edge18" class="edge"><title>state_1&#45;&gt;state_1</title>
<path fill="none" stroke="black" d="M917.696,-439.19C1004.48,-451.638 1140.55,-444.908 1140.55,-419 1140.55,-394.079 1014.65,-386.902 927.816,-397.471"/>
<polygon fill="black" stroke="black" points="927.151,-394.028 917.696,-398.81 928.069,-400.968 927.151,-394.028"/>
<text text-anchor="middle" x="1204.55" y="-415.3" font-family="Times New Roman,serif" font-size="14.00"> &#160;&#160;press(&quot;MenuKey&quot;) &#160;&#160;</text>
</g>
</g>
</svg>
