<?xml version="1.0" encoding="UTF-8" standalone="no"?>
<!DOCTYPE svg PUBLIC "-//W3C//DTD SVG 1.1//EN"
 "http://www.w3.org/Graphics/SVG/1.1/DTD/svg11.dtd">
<!-- Generated by graphviz version 2.38.0 (20140413.2041)
 -->
<!-- Title: activity_1 Pages: 1 -->
<svg width="1763pt" height="1408pt"
 viewBox="0.00 0.00 1763.28 1408.00" xmlns="http://www.w3.org/2000/svg" xmlns:xlink="http://www.w3.org/1999/xlink">
<g id="graph0" class="graph" transform="scale(1 1) rotate(0) translate(4 1404)">
<title>activity_1</title>
<polygon fill="white" stroke="none" points="-4,4 -4,-1404 1759.28,-1404 1759.28,4 -4,4"/>
<!-- state_1 -->
<g id="node1" class="node"><title>state_1</title>
<g id="a_node1"><a xlink:href="1.png" xlink:title="&lt;TABLE&gt;">
<polygon fill="none" stroke="black" points="634.28,-1400 504.28,-1400 504.28,-1110 634.28,-1110 634.28,-1400"/>
<text text-anchor="start" x="549.28" y="-1388.8" font-family="Times New Roman,serif" font-size="14.00">state_1</text>
<text text-anchor="start" x="538.78" y="-1373.8" font-family="Times New Roman,serif" font-size="14.00">incoming:8</text>
<text text-anchor="start" x="539.78" y="-1358.8" font-family="Times New Roman,serif" font-size="14.00">outgoing:9</text>
<text text-anchor="start" x="551.28" y="-1343.8" font-family="Times New Roman,serif" font-size="14.00">loop:5</text>
<image xlink:href="1.png" width="130px" height="230px" preserveAspectRatio="xMinYMin meet" x="504.28" y="-1340"/>
</a>
</g>
</g>
<!-- state_1&#45;&gt;state_1 -->
<g id="edge1" class="edge"><title>state_1&#45;&gt;state_1</title>
<path fill="none" stroke="black" d="M634.352,-1260.9C644.978,-1260.05 652.28,-1258.09 652.28,-1255 652.28,-1253.02 649.283,-1251.5 644.335,-1250.45"/>
<polygon fill="black" stroke="black" points="644.73,-1246.97 634.352,-1249.1 643.795,-1253.91 644.73,-1246.97"/>
<text text-anchor="middle" x="709.78" y="-1251.3" font-family="Times New Roman,serif" font-size="14.00"> &#160;&#160;click(&quot;index=0&quot;) &#160;&#160;</text>
</g>
<!-- state_1&#45;&gt;state_1 -->
<g id="edge2" class="edge"><title>state_1&#45;&gt;state_1</title>
<path fill="none" stroke="black" d="M634.461,-1266.26C693.313,-1270.16 767.28,-1266.41 767.28,-1255 767.28,-1244.24 701.455,-1240.29 644.59,-1243.15"/>
<polygon fill="black" stroke="black" points="644.241,-1239.67 634.461,-1243.74 644.647,-1246.65 644.241,-1239.67"/>
<text text-anchor="middle" x="838.28" y="-1251.3" font-family="Times New Roman,serif" font-size="14.00"> &#160;&#160;longClick(&quot;index=0&quot;) &#160;&#160;</text>
</g>
<!-- state_1&#45;&gt;state_1 -->
<g id="edge5" class="edge"><title>state_1&#45;&gt;state_1</title>
<path fill="none" stroke="black" d="M634.446,-1268.89C735.022,-1279.05 909.28,-1274.42 909.28,-1255 909.28,-1236.22 746.402,-1231.27 644.699,-1240.15"/>
<polygon fill="black" stroke="black" points="644.075,-1236.69 634.446,-1241.11 644.73,-1243.66 644.075,-1236.69"/>
<text text-anchor="middle" x="960.78" y="-1251.3" font-family="Times New Roman,serif" font-size="14.00"> &#160;&#160;click(&quot;Login&quot;) &#160;&#160;</text>
</g>
<!-- state_1&#45;&gt;state_1 -->
<g id="edge6" class="edge"><title>state_1&#45;&gt;state_1</title>
<path fill="none" stroke="black" d="M634.36,-1271.51C759.97,-1287.6 1012.28,-1282.09 1012.28,-1255 1012.28,-1228.62 773.1,-1222.71 644.553,-1237.26"/>
<polygon fill="black" stroke="black" points="643.87,-1233.82 634.36,-1238.49 644.707,-1240.77 643.87,-1233.82"/>
<text text-anchor="middle" x="1065.28" y="-1251.3" font-family="Times New Roman,serif" font-size="14.00"> &#160;&#160;swipe(&quot;Right&quot;) &#160;&#160;</text>
</g>
<!-- state_1&#45;&gt;state_1 -->
<g id="edge7" class="edge"><title>state_1&#45;&gt;state_1</title>
<path fill="none" stroke="black" d="M634.299,-1273.71C782.821,-1296.14 1118.28,-1289.9 1118.28,-1255 1118.28,-1220.88 797.721,-1214.15 644.583,-1234.82"/>
<polygon fill="black" stroke="black" points="643.704,-1231.41 634.299,-1236.29 644.693,-1238.34 643.704,-1231.41"/>
<text text-anchor="middle" x="1167.78" y="-1251.3" font-family="Times New Roman,serif" font-size="14.00"> &#160;&#160;swipe(&quot;Left&quot;) &#160;&#160;</text>
</g>
<!-- state_8 -->
<g id="node2" class="node"><title>state_8</title>
<g id="a_node2"><a xlink:href="8.png" xlink:title="&lt;TABLE&gt;">
<polygon fill="none" stroke="black" points="634.28,-1059 504.28,-1059 504.28,-769 634.28,-769 634.28,-1059"/>
<text text-anchor="start" x="549.28" y="-1047.8" font-family="Times New Roman,serif" font-size="14.00">state_8</text>
<text text-anchor="start" x="538.78" y="-1032.8" font-family="Times New Roman,serif" font-size="14.00">incoming:8</text>
<text text-anchor="start" x="539.78" y="-1017.8" font-family="Times New Roman,serif" font-size="14.00">outgoing:9</text>
<text text-anchor="start" x="551.28" y="-1002.8" font-family="Times New Roman,serif" font-size="14.00">loop:5</text>
<image xlink:href="8.png" width="130px" height="230px" preserveAspectRatio="xMinYMin meet" x="504.28" y="-999"/>
</a>
</g>
</g>
<!-- state_1&#45;&gt;state_8 -->
<g id="edge3" class="edge"><title>state_1&#45;&gt;state_8</title>
<path fill="none" stroke="black" d="M569.28,-1109.74C569.28,-1096.39 569.28,-1082.82 569.28,-1069.38"/>
<polygon fill="black" stroke="black" points="572.78,-1069.13 569.28,-1059.13 565.78,-1069.13 572.78,-1069.13"/>
<text text-anchor="middle" x="652.28" y="-1080.8" font-family="Times New Roman,serif" font-size="14.00"> &#160;&#160;&quot;index=0&quot;.input(&quot;admin&quot;) &#160;&#160;</text>
</g>
<!-- state_12 -->
<g id="node3" class="node"><title>state_12</title>
<g id="a_node3"><a xlink:href="12.png" xlink:title="&lt;TABLE&gt;">
<polygon fill="none" stroke="black" points="472.28,-718 342.28,-718 342.28,-428 472.28,-428 472.28,-718"/>
<text text-anchor="start" x="383.78" y="-706.8" font-family="Times New Roman,serif" font-size="14.00">state_12</text>
<text text-anchor="start" x="373.28" y="-691.8" font-family="Times New Roman,serif" font-size="14.00">incoming:10</text>
<text text-anchor="start" x="377.78" y="-676.8" font-family="Times New Roman,serif" font-size="14.00">outgoing:9</text>
<text text-anchor="start" x="389.28" y="-661.8" font-family="Times New Roman,serif" font-size="14.00">loop:6</text>
<image xlink:href="12.png" width="130px" height="230px" preserveAspectRatio="xMinYMin meet" x="342.28" y="-658"/>
</a>
</g>
</g>
<!-- state_1&#45;&gt;state_12 -->
<g id="edge4" class="edge"><title>state_1&#45;&gt;state_12</title>
<path fill="none" stroke="black" d="M504.273,-1215.94C453.374,-1182.03 386.331,-1127.25 356.28,-1059 310.428,-954.857 326.777,-826.387 352.654,-727.837"/>
<polygon fill="black" stroke="black" points="356.058,-728.659 355.269,-718.093 349.297,-726.844 356.058,-728.659"/>
<text text-anchor="middle" x="425.78" y="-910.3" font-family="Times New Roman,serif" font-size="14.00"> &#160;&#160;&quot;index=0&quot;.input(&quot;a&quot;) &#160;&#160;</text>
</g>
<!-- state_33 -->
<g id="node5" class="node"><title>state_33</title>
<g id="a_node5"><a xlink:href="33.png" xlink:title="&lt;TABLE&gt;">
<polygon fill="none" stroke="black" points="1489.28,-1059 1359.28,-1059 1359.28,-769 1489.28,-769 1489.28,-1059"/>
<text text-anchor="start" x="1400.78" y="-1047.8" font-family="Times New Roman,serif" font-size="14.00">state_33</text>
<text text-anchor="start" x="1393.78" y="-1032.8" font-family="Times New Roman,serif" font-size="14.00">incoming:3</text>
<text text-anchor="start" x="1394.78" y="-1017.8" font-family="Times New Roman,serif" font-size="14.00">outgoing:6</text>
<text text-anchor="start" x="1406.28" y="-1002.8" font-family="Times New Roman,serif" font-size="14.00">loop:2</text>
<image xlink:href="33.png" width="130px" height="230px" preserveAspectRatio="xMinYMin meet" x="1359.28" y="-999"/>
</a>
</g>
</g>
<!-- state_1&#45;&gt;state_33 -->
<g id="edge9" class="edge"><title>state_1&#45;&gt;state_33</title>
<path fill="none" stroke="black" d="M634.431,-1250.88C768.553,-1242.15 1082.29,-1209.73 1313.28,-1092 1327.87,-1084.57 1340.76,-1074.25 1352.1,-1062.3"/>
<polygon fill="black" stroke="black" points="1354.89,-1064.44 1358.97,-1054.67 1349.68,-1059.76 1354.89,-1064.44"/>
<text text-anchor="middle" x="1395.28" y="-1080.8" font-family="Times New Roman,serif" font-size="14.00"> &#160;&#160;press(&quot;MenuKey&quot;) &#160;&#160;</text>
</g>
<!-- activity_0 -->
<g id="node6" class="node"><title>activity_0</title>
<ellipse fill="none" stroke="red" cx="176.28" cy="-232" rx="46.2923" ry="18"/>
<text text-anchor="middle" x="176.28" y="-228.3" font-family="Times New Roman,serif" font-size="14.00" fill="red">activity_0</text>
</g>
<!-- state_1&#45;&gt;activity_0 -->
<g id="edge8" class="edge"><title>state_1&#45;&gt;activity_0</title>
<path fill="none" stroke="red" d="M503.929,-1246.15C411.077,-1231.7 240.978,-1192.53 139.28,-1092 23.5872,-977.639 36.3541,-910.871 6.28011,-751 -30.4688,-555.645 107.493,-332.194 158.239,-258.225"/>
<polygon fill="red" stroke="red" points="161.422,-259.778 164.252,-249.568 155.673,-255.785 161.422,-259.778"/>
<text text-anchor="middle" x="68.7801" y="-739.8" font-family="Times New Roman,serif" font-size="14.00" fill="red"> &#160;&#160;press(&quot;BackKey&quot;) &#160;&#160;</text>
</g>
<!-- state_8&#45;&gt;state_8 -->
<g id="edge10" class="edge"><title>state_8&#45;&gt;state_8</title>
<path fill="none" stroke="black" d="M634.352,-919.898C644.978,-919.054 652.28,-917.088 652.28,-914 652.28,-912.022 649.283,-910.504 644.335,-909.447"/>
<polygon fill="black" stroke="black" points="644.73,-905.968 634.352,-908.102 643.795,-912.905 644.73,-905.968"/>
<text text-anchor="middle" x="704.28" y="-910.3" font-family="Times New Roman,serif" font-size="14.00"> &#160;&#160;click(&quot;admin&quot;) &#160;&#160;</text>
</g>
<!-- state_8&#45;&gt;state_8 -->
<g id="edge11" class="edge"><title>state_8&#45;&gt;state_8</title>
<path fill="none" stroke="black" d="M634.351,-925.442C689.456,-929.037 756.28,-925.223 756.28,-914 756.28,-903.457 697.303,-899.452 644.472,-901.987"/>
<polygon fill="black" stroke="black" points="644.138,-898.5 634.351,-902.558 644.533,-905.489 644.138,-898.5"/>
<text text-anchor="middle" x="827.28" y="-910.3" font-family="Times New Roman,serif" font-size="14.00"> &#160;&#160;longClick(&quot;index=0&quot;) &#160;&#160;</text>
</g>
<!-- state_8&#45;&gt;state_8 -->
<g id="edge12" class="edge"><title>state_8&#45;&gt;state_8</title>
<path fill="none" stroke="black" d="M634.376,-928.04C732.122,-938.004 898.28,-933.324 898.28,-914 898.28,-895.336 743.286,-890.333 644.629,-898.989"/>
<polygon fill="black" stroke="black" points="644.002,-895.533 634.376,-899.96 644.661,-902.502 644.002,-895.533"/>
<text text-anchor="middle" x="981.28" y="-910.3" font-family="Times New Roman,serif" font-size="14.00"> &#160;&#160;&quot;index=0&quot;.input(&quot;admin&quot;) &#160;&#160;</text>
</g>
<!-- state_8&#45;&gt;state_8 -->
<g id="edge14" class="edge"><title>state_8&#45;&gt;state_8</title>
<path fill="none" stroke="black" d="M634.383,-929.848C771.204,-946.742 1064.28,-941.459 1064.28,-914 1064.28,-887.211 785.34,-881.53 644.677,-896.954"/>
<polygon fill="black" stroke="black" points="643.912,-893.52 634.383,-898.152 644.721,-900.473 643.912,-893.52"/>
<text text-anchor="middle" x="1117.28" y="-910.3" font-family="Times New Roman,serif" font-size="14.00"> &#160;&#160;swipe(&quot;Right&quot;) &#160;&#160;</text>
</g>
<!-- state_8&#45;&gt;state_8 -->
<g id="edge15" class="edge"><title>state_8&#45;&gt;state_8</title>
<path fill="none" stroke="black" d="M634.429,-932.107C793.108,-955.252 1170.28,-949.216 1170.28,-914 1170.28,-879.506 808.419,-873.008 644.462,-894.506"/>
<polygon fill="black" stroke="black" points="643.855,-891.057 634.429,-895.893 644.814,-897.991 643.855,-891.057"/>
<text text-anchor="middle" x="1219.78" y="-910.3" font-family="Times New Roman,serif" font-size="14.00"> &#160;&#160;swipe(&quot;Left&quot;) &#160;&#160;</text>
</g>
<!-- state_8&#45;&gt;state_12 -->
<g id="edge13" class="edge"><title>state_8&#45;&gt;state_12</title>
<path fill="none" stroke="black" d="M504.221,-867.822C468.643,-838.999 427.915,-798.233 408.28,-751 405.253,-743.718 402.822,-736.117 400.9,-728.334"/>
<polygon fill="black" stroke="black" points="404.281,-727.413 398.729,-718.389 397.442,-728.905 404.281,-727.413"/>
<text text-anchor="middle" x="477.78" y="-739.8" font-family="Times New Roman,serif" font-size="14.00"> &#160;&#160;&quot;index=0&quot;.input(&quot;a&quot;) &#160;&#160;</text>
</g>
<!-- state_21 -->
<g id="node4" class="node"><title>state_21</title>
<g id="a_node4"><a xlink:href="21.png" xlink:title="&lt;TABLE&gt;">
<polygon fill="none" stroke="black" points="1122.28,-377 992.28,-377 992.28,-87 1122.28,-87 1122.28,-377"/>
<text text-anchor="start" x="1033.78" y="-365.8" font-family="Times New Roman,serif" font-size="14.00">state_21</text>
<text text-anchor="start" x="1026.78" y="-350.8" font-family="Times New Roman,serif" font-size="14.00">incoming:2</text>
<text text-anchor="start" x="1027.78" y="-335.8" font-family="Times New Roman,serif" font-size="14.00">outgoing:6</text>
<text text-anchor="start" x="1039.28" y="-320.8" font-family="Times New Roman,serif" font-size="14.00">loop:0</text>
<image xlink:href="21.png" width="130px" height="230px" preserveAspectRatio="xMinYMin meet" x="992.28" y="-317"/>
</a>
</g>
</g>
<!-- state_8&#45;&gt;state_21 -->
<g id="edge17" class="edge"><title>state_8&#45;&gt;state_21</title>
<path fill="none" stroke="black" d="M634.459,-907.809C802.744,-893.154 1246.13,-846.198 1353.28,-751 1373.49,-733.047 1417.22,-524.35 1364.28,-428 1315.24,-338.763 1206.17,-284.574 1132.15,-256.688"/>
<polygon fill="black" stroke="black" points="1132.99,-253.269 1122.4,-253.09 1130.57,-259.836 1132.99,-253.269"/>
<text text-anchor="middle" x="1453.28" y="-569.3" font-family="Times New Roman,serif" font-size="14.00"> &#160;&#160;press(&quot;MenuKey&quot;) &#160;&#160;</text>
</g>
<!-- state_8&#45;&gt;activity_0 -->
<g id="edge16" class="edge"><title>state_8&#45;&gt;activity_0</title>
<path fill="none" stroke="red" d="M504.163,-772.911C502.572,-771.56 500.945,-770.255 499.28,-769 486.173,-759.121 219.245,-730.213 208.28,-718 177.645,-683.877 175.963,-358.022 176.153,-260.464"/>
<polygon fill="red" stroke="red" points="179.654,-260.241 176.182,-250.231 172.654,-260.221 179.654,-260.241"/>
<text text-anchor="middle" x="270.78" y="-569.3" font-family="Times New Roman,serif" font-size="14.00" fill="red"> &#160;&#160;press(&quot;BackKey&quot;) &#160;&#160;</text>
</g>
<!-- activity_4 -->
<g id="node7" class="node"><title>activity_4</title>
<ellipse fill="none" stroke="red" cx="1309.28" cy="-573" rx="46.2923" ry="18"/>
<text text-anchor="middle" x="1309.28" y="-569.3" font-family="Times New Roman,serif" font-size="14.00" fill="red">activity_4</text>
</g>
<!-- state_8&#45;&gt;activity_4 -->
<g id="edge18" class="edge"><title>state_8&#45;&gt;activity_4</title>
<path fill="none" stroke="red" d="M634.442,-881.432C722.756,-840.24 886.426,-769.478 1034.28,-736 1082.12,-725.167 1215.05,-747.443 1254.28,-718 1291.17,-690.316 1303.32,-634.64 1307.32,-601.211"/>
<polygon fill="red" stroke="red" points="1310.8,-601.509 1308.35,-591.202 1303.84,-600.79 1310.8,-601.509"/>
<text text-anchor="middle" x="1085.78" y="-739.8" font-family="Times New Roman,serif" font-size="14.00" fill="red"> &#160;&#160;click(&quot;Login&quot;) &#160;&#160;</text>
</g>
<!-- state_12&#45;&gt;state_8 -->
<g id="edge21" class="edge"><title>state_12&#45;&gt;state_8</title>
<path fill="none" stroke="black" d="M472.472,-632.118C500.167,-660.595 529.996,-697.105 547.28,-736 550.543,-743.343 553.371,-751.016 555.818,-758.877"/>
<polygon fill="black" stroke="black" points="552.475,-759.916 558.617,-768.548 559.199,-757.969 552.475,-759.916"/>
<text text-anchor="middle" x="635.28" y="-739.8" font-family="Times New Roman,serif" font-size="14.00"> &#160;&#160;&quot;index=0&quot;.input(&quot;admin&quot;) &#160;&#160;</text>
</g>
<!-- state_12&#45;&gt;state_12 -->
<g id="edge19" class="edge"><title>state_12&#45;&gt;state_12</title>
<path fill="none" stroke="black" d="M472.352,-577.915C482.978,-577.212 490.28,-575.573 490.28,-573 490.28,-571.352 487.283,-570.087 482.335,-569.205"/>
<polygon fill="black" stroke="black" points="482.68,-565.722 472.352,-568.085 481.899,-572.679 482.68,-565.722"/>
<text text-anchor="middle" x="528.28" y="-569.3" font-family="Times New Roman,serif" font-size="14.00"> &#160;&#160;click(&quot;a&quot;) &#160;&#160;</text>
</g>
<!-- state_12&#45;&gt;state_12 -->
<g id="edge20" class="edge"><title>state_12&#45;&gt;state_12</title>
<path fill="none" stroke="black" d="M472.384,-582.961C517.322,-585.174 566.28,-581.854 566.28,-573 566.28,-564.803 524.319,-561.349 482.434,-562.638"/>
<polygon fill="black" stroke="black" points="482.236,-559.143 472.384,-563.039 482.515,-566.137 482.236,-559.143"/>
<text text-anchor="middle" x="637.28" y="-569.3" font-family="Times New Roman,serif" font-size="14.00"> &#160;&#160;longClick(&quot;index=0&quot;) &#160;&#160;</text>
</g>
<!-- state_12&#45;&gt;state_12 -->
<g id="edge22" class="edge"><title>state_12&#45;&gt;state_12</title>
<path fill="none" stroke="black" d="M472.46,-585.077C562.807,-592.88 708.28,-588.854 708.28,-573 708.28,-557.718 573.13,-553.426 482.46,-560.124"/>
<polygon fill="black" stroke="black" points="482.149,-556.637 472.46,-560.923 482.707,-563.615 482.149,-556.637"/>
<text text-anchor="middle" x="777.78" y="-569.3" font-family="Times New Roman,serif" font-size="14.00"> &#160;&#160;&quot;index=0&quot;.input(&quot;a&quot;) &#160;&#160;</text>
</g>
<!-- state_12&#45;&gt;state_12 -->
<g id="edge23" class="edge"><title>state_12&#45;&gt;state_12</title>
<path fill="none" stroke="black" d="M472.498,-586.808C597.488,-600.153 847.28,-595.55 847.28,-573 847.28,-551.044 610.487,-546.102 482.639,-558.174"/>
<polygon fill="black" stroke="black" points="482.099,-554.711 472.498,-559.192 482.798,-561.676 482.099,-554.711"/>
<text text-anchor="middle" x="898.78" y="-569.3" font-family="Times New Roman,serif" font-size="14.00"> &#160;&#160;click(&quot;Login&quot;) &#160;&#160;</text>
</g>
<!-- state_12&#45;&gt;state_12 -->
<g id="edge24" class="edge"><title>state_12&#45;&gt;state_12</title>
<path fill="none" stroke="black" d="M472.318,-588.661C619.656,-607.273 950.28,-602.053 950.28,-573 950.28,-544.6 634.341,-538.973 482.517,-556.121"/>
<polygon fill="black" stroke="black" points="481.832,-552.678 472.318,-557.339 482.662,-559.628 481.832,-552.678"/>
<text text-anchor="middle" x="1003.28" y="-569.3" font-family="Times New Roman,serif" font-size="14.00"> &#160;&#160;swipe(&quot;Right&quot;) &#160;&#160;</text>
</g>
<!-- state_12&#45;&gt;state_12 -->
<g id="edge25" class="edge"><title>state_12&#45;&gt;state_12</title>
<path fill="none" stroke="black" d="M472.311,-590.276C640.644,-614.39 1056.28,-608.631 1056.28,-573 1056.28,-538.065 656.721,-531.847 482.453,-554.345"/>
<polygon fill="black" stroke="black" points="481.749,-550.908 472.311,-555.724 482.692,-557.845 481.749,-550.908"/>
<text text-anchor="middle" x="1105.78" y="-569.3" font-family="Times New Roman,serif" font-size="14.00"> &#160;&#160;swipe(&quot;Left&quot;) &#160;&#160;</text>
</g>
<!-- state_12&#45;&gt;state_21 -->
<g id="edge27" class="edge"><title>state_12&#45;&gt;state_21</title>
<path fill="none" stroke="black" d="M472.405,-433.513C483.227,-419.155 495.495,-405.871 509.28,-395 651.068,-283.193 868.241,-248.482 981.938,-237.756"/>
<polygon fill="black" stroke="black" points="982.301,-241.238 991.944,-236.849 981.669,-234.266 982.301,-241.238"/>
<text text-anchor="middle" x="573.28" y="-398.8" font-family="Times New Roman,serif" font-size="14.00"> &#160;&#160;press(&quot;MenuKey&quot;) &#160;&#160;</text>
</g>
<!-- state_12&#45;&gt;activity_0 -->
<g id="edge26" class="edge"><title>state_12&#45;&gt;activity_0</title>
<path fill="none" stroke="red" d="M342.274,-450.178C337.667,-442.595 332.982,-435.146 328.28,-428 285.797,-363.431 227.877,-293.221 197.254,-257.25"/>
<polygon fill="red" stroke="red" points="199.597,-254.604 190.437,-249.279 194.277,-259.154 199.597,-254.604"/>
<text text-anchor="middle" x="375.78" y="-398.8" font-family="Times New Roman,serif" font-size="14.00" fill="red"> &#160;&#160;press(&quot;BackKey&quot;) &#160;&#160;</text>
</g>
<!-- state_21&#45;&gt;state_12 -->
<g id="edge28" class="edge"><title>state_21&#45;&gt;state_12</title>
<path fill="none" stroke="black" d="M991.95,-267.072C870.184,-330.578 609.313,-466.632 481.267,-533.413"/>
<polygon fill="black" stroke="black" points="479.529,-530.372 472.281,-538.1 482.766,-536.579 479.529,-530.372"/>
<text text-anchor="middle" x="794.78" y="-398.8" font-family="Times New Roman,serif" font-size="14.00"> &#160;&#160;press(&quot;BackKey&quot;) &#160;&#160;</text>
</g>
<!-- state_21&#45;&gt;state_12 -->
<g id="edge29" class="edge"><title>state_21&#45;&gt;state_12</title>
<path fill="none" stroke="black" d="M991.862,-304.134C956.061,-339.763 909.297,-381.307 861.28,-410 737.904,-483.725 575.737,-531.441 482.353,-554.864"/>
<polygon fill="black" stroke="black" points="481.287,-551.522 472.425,-557.328 482.973,-558.316 481.287,-551.522"/>
<text text-anchor="middle" x="943.28" y="-398.8" font-family="Times New Roman,serif" font-size="14.00"> &#160;&#160;press(&quot;MenuKey&quot;) &#160;&#160;</text>
</g>
<!-- activity_3 -->
<g id="node8" class="node"><title>activity_3</title>
<ellipse fill="none" stroke="red" cx="1328.28" cy="-18" rx="46.2923" ry="18"/>
<text text-anchor="middle" x="1328.28" y="-14.3" font-family="Times New Roman,serif" font-size="14.00" fill="red">activity_3</text>
</g>
<!-- state_21&#45;&gt;activity_3 -->
<g id="edge30" class="edge"><title>state_21&#45;&gt;activity_3</title>
<path fill="none" stroke="red" d="M992.24,-149.743C974.087,-117.017 965.136,-80.7653 989.28,-54 1007.84,-33.4302 1180.67,-24.2251 1272.13,-20.7654"/>
<polygon fill="red" stroke="red" points="1272.46,-24.2556 1282.32,-20.3906 1272.2,-17.2603 1272.46,-24.2556"/>
<text text-anchor="middle" x="1046.78" y="-57.8" font-family="Times New Roman,serif" font-size="14.00" fill="red"> &#160;&#160;click(&quot;index=0&quot;) &#160;&#160;</text>
</g>
<!-- state_21&#45;&gt;activity_3 -->
<g id="edge31" class="edge"><title>state_21&#45;&gt;activity_3</title>
<path fill="none" stroke="red" d="M1098.59,-86.7751C1106.54,-74.4327 1116,-63.1797 1127.28,-54 1149.1,-36.2318 1221.28,-27.0364 1272.89,-22.6172"/>
<polygon fill="red" stroke="red" points="1273.24,-26.1007 1282.92,-21.796 1272.66,-19.1241 1273.24,-26.1007"/>
<text text-anchor="middle" x="1184.78" y="-57.8" font-family="Times New Roman,serif" font-size="14.00" fill="red"> &#160;&#160;click(&quot;index=0&quot;) &#160;&#160;</text>
</g>
<!-- state_21&#45;&gt;activity_3 -->
<g id="edge32" class="edge"><title>state_21&#45;&gt;activity_3</title>
<path fill="none" stroke="red" d="M1122.48,-169.678C1162.18,-133.862 1214.81,-88.9785 1265.28,-54 1273.6,-48.234 1282.95,-42.6171 1291.85,-37.6308"/>
<polygon fill="red" stroke="red" points="1293.81,-40.5506 1300.91,-32.683 1290.45,-34.4083 1293.81,-40.5506"/>
<text text-anchor="middle" x="1318.28" y="-57.8" font-family="Times New Roman,serif" font-size="14.00" fill="red"> &#160;&#160;swipe(&quot;Right&quot;) &#160;&#160;</text>
</g>
<!-- state_21&#45;&gt;activity_3 -->
<g id="edge33" class="edge"><title>state_21&#45;&gt;activity_3</title>
<path fill="none" stroke="red" d="M1122.4,-218.342C1197.42,-199.897 1317.26,-157.659 1371.28,-69 1377.69,-58.482 1371.12,-47.9743 1361.34,-39.3257"/>
<polygon fill="red" stroke="red" points="1363.44,-36.5195 1353.41,-33.1051 1359.12,-42.0288 1363.44,-36.5195"/>
<text text-anchor="middle" x="1422.78" y="-57.8" font-family="Times New Roman,serif" font-size="14.00" fill="red"> &#160;&#160;swipe(&quot;Left&quot;) &#160;&#160;</text>
</g>
<!-- state_33&#45;&gt;state_1 -->
<g id="edge36" class="edge"><title>state_33&#45;&gt;state_1</title>
<path fill="none" stroke="black" d="M1359.11,-1052.54C1356.29,-1054.85 1353.34,-1057.01 1350.28,-1059 1320.8,-1078.17 1068.67,-1069.66 1034.28,-1077 891.091,-1107.57 733.663,-1175.25 643.625,-1217.5"/>
<polygon fill="black" stroke="black" points="641.874,-1214.46 634.323,-1221.89 644.86,-1220.79 641.874,-1214.46"/>
<text text-anchor="middle" x="1096.78" y="-1080.8" font-family="Times New Roman,serif" font-size="14.00"> &#160;&#160;press(&quot;BackKey&quot;) &#160;&#160;</text>
</g>
<!-- state_33&#45;&gt;state_1 -->
<g id="edge37" class="edge"><title>state_33&#45;&gt;state_1</title>
<path fill="none" stroke="black" d="M1358.98,-1052.34C1356.19,-1054.71 1353.29,-1056.93 1350.28,-1059 1287.98,-1101.72 1252.18,-1050.94 1181.28,-1077 1170.17,-1081.08 1170.02,-1087.03 1159.28,-1092 983.808,-1173.16 759.617,-1220.8 644.678,-1241.56"/>
<polygon fill="black" stroke="black" points="643.802,-1238.16 634.574,-1243.37 645.034,-1245.05 643.802,-1238.16"/>
<text text-anchor="middle" x="1245.28" y="-1080.8" font-family="Times New Roman,serif" font-size="14.00"> &#160;&#160;press(&quot;MenuKey&quot;) &#160;&#160;</text>
</g>
<!-- state_33&#45;&gt;state_33 -->
<g id="edge34" class="edge"><title>state_33&#45;&gt;state_33</title>
<path fill="none" stroke="black" d="M1489.35,-928.746C1499.98,-926.635 1507.28,-921.72 1507.28,-914 1507.28,-908.934 1504.14,-905.076 1498.97,-902.425"/>
<polygon fill="black" stroke="black" points="1499.94,-899.061 1489.35,-899.254 1497.75,-905.709 1499.94,-899.061"/>
<text text-anchor="middle" x="1560.28" y="-910.3" font-family="Times New Roman,serif" font-size="14.00"> &#160;&#160;swipe(&quot;Right&quot;) &#160;&#160;</text>
</g>
<!-- state_33&#45;&gt;state_33 -->
<g id="edge35" class="edge"><title>state_33&#45;&gt;state_33</title>
<path fill="none" stroke="black" d="M1489.39,-942.524C1545.18,-951.648 1613.28,-942.14 1613.28,-914 1613.28,-887.509 1552.93,-877.53 1499.31,-884.064"/>
<polygon fill="black" stroke="black" points="1498.8,-880.601 1489.39,-885.476 1499.79,-887.531 1498.8,-880.601"/>
<text text-anchor="middle" x="1662.78" y="-910.3" font-family="Times New Roman,serif" font-size="14.00"> &#160;&#160;swipe(&quot;Left&quot;) &#160;&#160;</text>
</g>
<!-- state_33&#45;&gt;activity_3 -->
<g id="edge38" class="edge"><title>state_33&#45;&gt;activity_3</title>
<path fill="none" stroke="red" d="M1489.35,-804.209C1502.52,-776.969 1514.43,-747.171 1521.28,-718 1550.76,-592.529 1528.99,-556.658 1521.28,-428 1511.26,-260.879 1587.82,-178.852 1476.28,-54 1463.74,-39.9618 1419.25,-30.7034 1382.3,-25.2554"/>
<polygon fill="red" stroke="red" points="1382.5,-21.7491 1372.11,-23.8191 1381.52,-28.6806 1382.5,-21.7491"/>
<text text-anchor="middle" x="1577.78" y="-398.8" font-family="Times New Roman,serif" font-size="14.00" fill="red"> &#160;&#160;click(&quot;index=0&quot;) &#160;&#160;</text>
</g>
<!-- state_33&#45;&gt;activity_3 -->
<g id="edge39" class="edge"><title>state_33&#45;&gt;activity_3</title>
<path fill="none" stroke="red" d="M1489.37,-833.047C1562.21,-734.146 1666.67,-558.74 1639.28,-395 1615.4,-252.215 1613.46,-207.538 1533.28,-87 1501.29,-38.9062 1433.57,-24.07 1384.71,-19.881"/>
<polygon fill="red" stroke="red" points="1384.81,-16.3795 1374.59,-19.1405 1384.3,-23.3609 1384.81,-16.3795"/>
<text text-anchor="middle" x="1697.78" y="-398.8" font-family="Times New Roman,serif" font-size="14.00" fill="red"> &#160;&#160;click(&quot;index=0&quot;) &#160;&#160;</text>
</g>
<!-- activity_0&#45;&gt;state_1 -->
<g id="edge40" class="edge"><title>activity_0&#45;&gt;state_1</title>
<path fill="none" stroke="red" d="M173.665,-250.012C164.52,-312.969 136.517,-538.366 174.28,-718 212.512,-899.867 218.545,-972.988 361.28,-1092 405.187,-1128.61 455.76,-1168.06 496.044,-1198.86"/>
<polygon fill="red" stroke="red" points="494.145,-1201.81 504.218,-1205.1 498.393,-1196.25 494.145,-1201.81"/>
<text text-anchor="middle" x="226.78" y="-739.8" font-family="Times New Roman,serif" font-size="14.00" fill="red"> &#160;&#160;click(&quot;OK&quot;) &#160;&#160;</text>
</g>
<!-- activity_4&#45;&gt;state_8 -->
<g id="edge41" class="edge"><title>activity_4&#45;&gt;state_8</title>
<path fill="none" stroke="red" d="M1307.61,-591.407C1303.78,-621.628 1291.58,-683.834 1254.28,-718 1079.61,-878.017 782.741,-907.742 644.395,-912.569"/>
<polygon fill="red" stroke="red" points="644.196,-909.073 634.311,-912.886 644.416,-916.07 644.196,-909.073"/>
<text text-anchor="middle" x="1286.78" y="-739.8" font-family="Times New Roman,serif" font-size="14.00" fill="red"> &#160;&#160;press(&quot;BackKey&quot;) &#160;&#160;</text>
</g>
</g>
</svg>
