<?xml version="1.0" encoding="UTF-8" standalone="no"?>
<!DOCTYPE svg PUBLIC "-//W3C//DTD SVG 1.1//EN"
 "http://www.w3.org/Graphics/SVG/1.1/DTD/svg11.dtd">
<!-- Generated by graphviz version 2.38.0 (20140413.2041)
 -->
<!-- Title: activity_3 Pages: 1 -->
<svg width="768pt" height="385pt"
 viewBox="0.00 0.00 767.67 385.00" xmlns="http://www.w3.org/2000/svg" xmlns:xlink="http://www.w3.org/1999/xlink">
<g id="graph0" class="graph" transform="scale(1 1) rotate(0) translate(4 381)">
<title>activity_3</title>
<polygon fill="white" stroke="none" points="-4,4 -4,-381 763.666,-381 763.666,4 -4,4"/>
<!-- state_22 -->
<g id="node1" class="node"><title>state_22</title>
<g id="a_node1"><a xlink:href="22.png" xlink:title="&lt;TABLE&gt;">
<polygon fill="none" stroke="black" points="422.666,-290 292.666,-290 292.666,-0 422.666,-0 422.666,-290"/>
<text text-anchor="start" x="334.166" y="-278.8" font-family="Times New Roman,serif" font-size="14.00">state_22</text>
<text text-anchor="start" x="327.166" y="-263.8" font-family="Times New Roman,serif" font-size="14.00">incoming:6</text>
<text text-anchor="start" x="328.166" y="-248.8" font-family="Times New Roman,serif" font-size="14.00">outgoing:0</text>
<text text-anchor="start" x="339.666" y="-233.8" font-family="Times New Roman,serif" font-size="14.00">loop:0</text>
<image xlink:href="22.png" width="130px" height="230px" preserveAspectRatio="xMinYMin meet" x="292.666" y="-230"/>
</a>
</g>
</g>
<!-- activity_1 -->
<g id="node2" class="node"><title>activity_1</title>
<ellipse fill="none" stroke="red" cx="357.666" cy="-359" rx="46.2923" ry="18"/>
<text text-anchor="middle" x="357.666" y="-355.3" font-family="Times New Roman,serif" font-size="14.00" fill="red">activity_1</text>
</g>
<!-- activity_1&#45;&gt;state_22 -->
<g id="edge1" class="edge"><title>activity_1&#45;&gt;state_22</title>
<path fill="none" stroke="red" d="M311.709,-356.609C223.611,-353.468 37.9367,-344.363 18.6662,-323 -65.249,-229.975 158.722,-177.921 282.29,-156.98"/>
<polygon fill="red" stroke="red" points="283.174,-160.381 292.464,-155.288 282.026,-153.476 283.174,-160.381"/>
<text text-anchor="middle" x="76.1662" y="-311.8" font-family="Times New Roman,serif" font-size="14.00" fill="red"> &#160;&#160;click(&quot;index=0&quot;) &#160;&#160;</text>
</g>
<!-- activity_1&#45;&gt;state_22 -->
<g id="edge2" class="edge"><title>activity_1&#45;&gt;state_22</title>
<path fill="none" stroke="red" d="M311.884,-356.629C258.807,-353.963 176.101,-346.111 156.666,-323 106.803,-263.703 207,-206.612 283.04,-173.976"/>
<polygon fill="red" stroke="red" points="284.796,-177.034 292.651,-169.924 282.077,-170.584 284.796,-177.034"/>
<text text-anchor="middle" x="214.166" y="-311.8" font-family="Times New Roman,serif" font-size="14.00" fill="red"> &#160;&#160;click(&quot;index=0&quot;) &#160;&#160;</text>
</g>
<!-- activity_1&#45;&gt;state_22 -->
<g id="edge3" class="edge"><title>activity_1&#45;&gt;state_22</title>
<path fill="none" stroke="red" d="M323.064,-346.863C312.012,-341.483 301.011,-333.784 294.666,-323 291.285,-317.254 293.437,-314.552 294.666,-308 295.17,-305.312 295.718,-302.612 296.305,-299.902"/>
<polygon fill="red" stroke="red" points="299.737,-300.598 298.597,-290.064 292.919,-299.01 299.737,-300.598"/>
<text text-anchor="middle" x="347.666" y="-311.8" font-family="Times New Roman,serif" font-size="14.00" fill="red"> &#160;&#160;swipe(&quot;Right&quot;) &#160;&#160;</text>
</g>
<!-- activity_1&#45;&gt;state_22 -->
<g id="edge4" class="edge"><title>activity_1&#45;&gt;state_22</title>
<path fill="none" stroke="red" d="M382.864,-343.508C389.952,-338.061 396.781,-331.172 400.666,-323 404.151,-315.67 406.505,-308.032 407.919,-300.219"/>
<polygon fill="red" stroke="red" points="411.398,-300.61 409.224,-290.241 404.457,-299.703 411.398,-300.61"/>
<text text-anchor="middle" x="455.166" y="-311.8" font-family="Times New Roman,serif" font-size="14.00" fill="red"> &#160;&#160;swipe(&quot;Left&quot;) &#160;&#160;</text>
</g>
<!-- activity_1&#45;&gt;state_22 -->
<g id="edge5" class="edge"><title>activity_1&#45;&gt;state_22</title>
<path fill="none" stroke="red" d="M402.05,-353.765C441.708,-348.955 495.523,-339.538 508.666,-323 546.852,-274.95 486.509,-221.583 431.149,-186.138"/>
<polygon fill="red" stroke="red" points="433.008,-183.173 422.676,-180.824 429.288,-189.103 433.008,-183.173"/>
<text text-anchor="middle" x="574.166" y="-311.8" font-family="Times New Roman,serif" font-size="14.00" fill="red"> &#160;&#160;click(&quot;index=0&quot;) &#160;&#160;</text>
</g>
<!-- activity_1&#45;&gt;state_22 -->
<g id="edge6" class="edge"><title>activity_1&#45;&gt;state_22</title>
<path fill="none" stroke="red" d="M403.188,-355.515C478.084,-350.956 620.563,-340.124 635.666,-323 704.228,-245.265 536.545,-188.913 432.638,-162.608"/>
<polygon fill="red" stroke="red" points="433.341,-159.176 422.791,-160.156 431.65,-165.968 433.341,-159.176"/>
<text text-anchor="middle" x="702.166" y="-311.8" font-family="Times New Roman,serif" font-size="14.00" fill="red"> &#160;&#160;click(&quot;index=0&quot;) &#160;&#160;</text>
</g>
</g>
</svg>
