<?xml version="1.0" encoding="UTF-8" standalone="no"?>
<!DOCTYPE svg PUBLIC "-//W3C//DTD SVG 1.1//EN"
 "http://www.w3.org/Graphics/SVG/1.1/DTD/svg11.dtd">
<!-- Generated by graphviz version 2.38.0 (20140413.2041)
 -->
<!-- Title: activity_0 Pages: 1 -->
<svg width="724pt" height="399pt"
 viewBox="0.00 0.00 723.89 399.00" xmlns="http://www.w3.org/2000/svg" xmlns:xlink="http://www.w3.org/1999/xlink">
<g id="graph0" class="graph" transform="scale(1 1) rotate(0) translate(4 395)">
<title>activity_0</title>
<polygon fill="white" stroke="none" points="-4,4 -4,-395 719.893,-395 719.893,4 -4,4"/>
<!-- state_0 -->
<g id="node1" class="node"><title>state_0</title>
<g id="a_node1"><a xlink:href="0.png" xlink:title="&lt;TABLE&gt;">
<polygon fill="none" stroke="black" points="328.893,-391 198.893,-391 198.893,-101 328.893,-101 328.893,-391"/>
<text text-anchor="start" x="243.893" y="-379.8" font-family="Times New Roman,serif" font-size="14.00">state_0</text>
<text text-anchor="start" x="233.393" y="-364.8" font-family="Times New Roman,serif" font-size="14.00">incoming:6</text>
<text text-anchor="start" x="234.393" y="-349.8" font-family="Times New Roman,serif" font-size="14.00">outgoing:5</text>
<text text-anchor="start" x="245.893" y="-334.8" font-family="Times New Roman,serif" font-size="14.00">loop:3</text>
<image xlink:href="0.png" width="130px" height="230px" preserveAspectRatio="xMinYMin meet" x="198.893" y="-331"/>
</a>
</g>
</g>
<!-- state_0&#45;&gt;state_0 -->
<g id="edge1" class="edge"><title>state_0&#45;&gt;state_0</title>
<path fill="none" stroke="black" d="M328.965,-255.831C339.591,-254.423 346.893,-251.146 346.893,-246 346.893,-242.703 343.896,-240.173 338.948,-238.411"/>
<polygon fill="black" stroke="black" points="339.489,-234.945 328.965,-236.169 337.955,-241.775 339.489,-234.945"/>
<text text-anchor="middle" x="399.893" y="-242.3" font-family="Times New Roman,serif" font-size="14.00"> &#160;&#160;swipe(&quot;Right&quot;) &#160;&#160;</text>
</g>
<!-- state_0&#45;&gt;state_0 -->
<g id="edge2" class="edge"><title>state_0&#45;&gt;state_0</title>
<path fill="none" stroke="black" d="M329.006,-265.016C384.797,-271.099 452.893,-264.76 452.893,-246 452.893,-228.376 392.793,-221.715 339.258,-226.016"/>
<polygon fill="black" stroke="black" points="338.633,-222.559 329.006,-226.984 339.291,-229.528 338.633,-222.559"/>
<text text-anchor="middle" x="502.393" y="-242.3" font-family="Times New Roman,serif" font-size="14.00"> &#160;&#160;swipe(&quot;Left&quot;) &#160;&#160;</text>
</g>
<!-- state_0&#45;&gt;state_0 -->
<g id="edge3" class="edge"><title>state_0&#45;&gt;state_0</title>
<path fill="none" stroke="black" d="M329.036,-270.517C415.82,-285.632 551.893,-277.46 551.893,-246 551.893,-215.738 425.987,-207.024 339.156,-219.858"/>
<polygon fill="black" stroke="black" points="338.354,-216.441 329.036,-221.483 339.465,-223.353 338.354,-216.441"/>
<text text-anchor="middle" x="615.893" y="-242.3" font-family="Times New Roman,serif" font-size="14.00"> &#160;&#160;press(&quot;MenuKey&quot;) &#160;&#160;</text>
</g>
<!-- activity_1 -->
<g id="node2" class="node"><title>activity_1</title>
<ellipse fill="none" stroke="red" cx="189.893" cy="-25" rx="46.2923" ry="18"/>
<text text-anchor="middle" x="189.893" y="-21.3" font-family="Times New Roman,serif" font-size="14.00" fill="red">activity_1</text>
</g>
<!-- state_0&#45;&gt;activity_1 -->
<g id="edge4" class="edge"><title>state_0&#45;&gt;activity_1</title>
<path fill="none" stroke="red" d="M198.811,-225.201C135.957,-202.208 44.3743,-157.569 2.89302,-83 -0.347817,-77.1741 -1.2726,-73.205 2.89302,-68 19.1978,-47.627 85.717,-36.4525 134.801,-30.8526"/>
<polygon fill="red" stroke="red" points="135.424,-34.3054 144.985,-29.7409 134.665,-27.3467 135.424,-34.3054"/>
<text text-anchor="middle" x="48.393" y="-71.8" font-family="Times New Roman,serif" font-size="14.00" fill="red"> &#160;&#160;click(&quot;OK&quot;) &#160;&#160;</text>
</g>
<!-- final -->
<g id="node3" class="node"><title>final</title>
<image xlink:href="-2.png" width="50px" height="50px" preserveAspectRatio="xMinYMin meet" x="534.893" y="-50"/>
</g>
<!-- state_0&#45;&gt;final -->
<g id="edge5" class="edge"><title>state_0&#45;&gt;final</title>
<path fill="none" stroke="red" d="M328.966,-211.36C382.535,-181.829 458.693,-135.478 515.893,-83 523.851,-75.6989 531.449,-66.8342 538.023,-58.2928"/>
<polygon fill="red" stroke="red" points="540.834,-60.3778 543.991,-50.2642 535.216,-56.2018 540.834,-60.3778"/>
<text text-anchor="middle" x="591.393" y="-71.8" font-family="Times New Roman,serif" font-size="14.00" fill="red"> &#160;&#160;press(&quot;BackKey&quot;) &#160;&#160;</text>
</g>
<!-- activity_1&#45;&gt;state_0 -->
<g id="edge6" class="edge"><title>activity_1&#45;&gt;state_0</title>
<path fill="none" stroke="red" d="M154.939,-36.975C132.36,-46.2777 108.612,-61.5496 116.893,-83 132.214,-122.683 162.269,-158.654 191.231,-186.563"/>
<polygon fill="red" stroke="red" points="188.887,-189.163 198.562,-193.482 193.692,-184.073 188.887,-189.163"/>
<text text-anchor="middle" x="179.393" y="-71.8" font-family="Times New Roman,serif" font-size="14.00" fill="red"> &#160;&#160;press(&quot;BackKey&quot;) &#160;&#160;</text>
</g>
<!-- activity_1&#45;&gt;state_0 -->
<g id="edge7" class="edge"><title>activity_1&#45;&gt;state_0</title>
<path fill="none" stroke="red" d="M215.017,-40.3242C225.025,-47.3511 235.633,-56.7424 241.893,-68 246.003,-75.3914 249.487,-83.2204 252.431,-91.3095"/>
<polygon fill="red" stroke="red" points="249.153,-92.5413 255.645,-100.914 255.791,-90.3203 249.153,-92.5413"/>
<text text-anchor="middle" x="311.393" y="-71.8" font-family="Times New Roman,serif" font-size="14.00" fill="red"> &#160;&#160;press(&quot;BackKey&quot;) &#160;&#160;</text>
</g>
<!-- activity_1&#45;&gt;state_0 -->
<g id="edge8" class="edge"><title>activity_1&#45;&gt;state_0</title>
<path fill="none" stroke="red" d="M234.594,-29.6594C284.402,-34.7731 360.275,-46.0115 377.893,-68 408.747,-106.508 375.358,-153.624 336.901,-189.561"/>
<polygon fill="red" stroke="red" points="334.208,-187.279 329.159,-196.593 338.915,-192.46 334.208,-187.279"/>
<text text-anchor="middle" x="449.393" y="-71.8" font-family="Times New Roman,serif" font-size="14.00" fill="red"> &#160;&#160;press(&quot;BackKey&quot;) &#160;&#160;</text>
</g>
</g>
</svg>
