<?xml version="1.0" encoding="UTF-8" standalone="no"?>
<!DOCTYPE svg PUBLIC "-//W3C//DTD SVG 1.1//EN"
 "http://www.w3.org/Graphics/SVG/1.1/DTD/svg11.dtd">
<!-- Generated by graphviz version 2.38.0 (20140413.2041)
 -->
<!-- Title: result Pages: 1 -->
<svg width="985pt" height="576pt"
 viewBox="0.00 0.00 985.00 576.00" xmlns="http://www.w3.org/2000/svg" xmlns:xlink="http://www.w3.org/1999/xlink">
<g id="graph0" class="graph" transform="scale(1 1) rotate(0) translate(4 572)">
<title>result</title>
<polygon fill="white" stroke="none" points="-4,4 -4,-572 981,-572 981,4 -4,4"/>
<!-- initial -->
<g id="node1" class="node"><title>initial</title>
<image xlink:href="-1.png" width="50px" height="50px" preserveAspectRatio="xMinYMin meet" x="0" y="-341.5"/>
</g>
<!-- activity_0 -->
<g id="node2" class="node"><title>activity_0</title>
<g id="a_node2"><a xlink:href="activity_0.svg" xlink:title="&lt;TABLE&gt;">
<polygon fill="none" stroke="black" points="217,-454 87,-454 87,-179 217,-179 217,-454"/>
<text text-anchor="start" x="124.5" y="-442.3" font-family="Times New Roman,serif" font-size="14.00">activity_0</text>
<text text-anchor="start" x="121.5" y="-427.3" font-family="Times New Roman,serif" font-size="14.00">incoming:3</text>
<text text-anchor="start" x="122.5" y="-412.3" font-family="Times New Roman,serif" font-size="14.00">outgoing:2</text>
<image xlink:href="0.png" width="130px" height="230px" preserveAspectRatio="xMinYMin meet" x="87" y="-408.5"/>
</a>
</g>
</g>
<!-- initial&#45;&gt;activity_0 -->
<g id="edge1" class="edge"><title>initial&#45;&gt;activity_0</title>
<path fill="none" stroke="black" d="M50.1013,-316.5C57.9994,-316.5 67.2332,-316.5 76.8484,-316.5"/>
<polygon fill="black" stroke="black" points="76.9667,-320 86.9666,-316.5 76.9666,-313 76.9667,-320"/>
</g>
<!-- activity_1 -->
<g id="node3" class="node"><title>activity_1</title>
<g id="a_node3"><a xlink:href="activity_1.svg" xlink:title="&lt;TABLE&gt;">
<polygon fill="none" stroke="black" points="597,-492 467,-492 467,-217 597,-217 597,-492"/>
<text text-anchor="start" x="504.5" y="-480.3" font-family="Times New Roman,serif" font-size="14.00">activity_1</text>
<text text-anchor="start" x="501.5" y="-465.3" font-family="Times New Roman,serif" font-size="14.00">incoming:2</text>
<text text-anchor="start" x="499" y="-450.3" font-family="Times New Roman,serif" font-size="14.00">outgoing:10</text>
<image xlink:href="1.png" width="130px" height="230px" preserveAspectRatio="xMinYMin meet" x="467" y="-446.5"/>
</a>
</g>
</g>
<!-- activity_0&#45;&gt;activity_1 -->
<g id="edge2" class="edge"><title>activity_0&#45;&gt;activity_1</title>
<path fill="none" stroke="black" d="M217.092,-363.467C222.951,-366.274 228.959,-368.689 235,-370.5 308.199,-392.437 396.065,-383.544 456.958,-372.204"/>
<polygon fill="black" stroke="black" points="457.713,-375.623 466.869,-370.293 456.387,-368.75 457.713,-375.623"/>
<text text-anchor="middle" x="342" y="-388.3" font-family="Times New Roman,serif" font-size="14.00"> &#160;&#160;&lt;a0.s0,click(&quot;OK&quot;),a1.s1&gt; &#160;&#160;</text>
</g>
<!-- final -->
<g id="node4" class="node"><title>final</title>
<image xlink:href="-2.png" width="50px" height="50px" preserveAspectRatio="xMinYMin meet" x="507" y="-198.5"/>
</g>
<!-- activity_0&#45;&gt;final -->
<g id="edge3" class="edge"><title>activity_0&#45;&gt;final</title>
<path fill="none" stroke="black" d="M217.174,-255.322C222.97,-251.316 228.944,-247.637 235,-244.5 322.465,-199.188 439.487,-182.22 496.653,-176.343"/>
<polygon fill="black" stroke="black" points="496.998,-179.826 506.61,-175.37 496.317,-172.859 496.998,-179.826"/>
<text text-anchor="middle" x="342" y="-248.3" font-family="Times New Roman,serif" font-size="14.00"> &#160;&#160;&lt;a0.s0,press(&quot;BackKey&quot;),final&gt; &#160;&#160;</text>
</g>
<!-- activity_1&#45;&gt;activity_0 -->
<g id="edge4" class="edge"><title>activity_1&#45;&gt;activity_0</title>
<path fill="none" stroke="black" d="M466.97,-351.934C406.864,-349.007 314.545,-343.178 235,-332.5 232.484,-332.162 229.929,-331.796 227.352,-331.407"/>
<polygon fill="black" stroke="black" points="227.767,-327.928 217.339,-329.802 226.659,-334.84 227.767,-327.928"/>
<text text-anchor="middle" x="342" y="-355.3" font-family="Times New Roman,serif" font-size="14.00"> &#160;&#160;&lt;a1.s1,press(&quot;BackKey&quot;),a0.s0&gt; &#160;&#160;</text>
</g>
<!-- activity_1&#45;&gt;activity_0 -->
<g id="edge5" class="edge"><title>activity_1&#45;&gt;activity_0</title>
<path fill="none" stroke="black" d="M466.69,-318.965C460.832,-316.77 454.886,-314.89 449,-313.5 375.123,-296.06 287.958,-299.743 227.433,-305.981"/>
<polygon fill="black" stroke="black" points="226.77,-302.532 217.203,-307.085 227.521,-309.492 226.77,-302.532"/>
<text text-anchor="middle" x="342" y="-317.3" font-family="Times New Roman,serif" font-size="14.00"> &#160;&#160;&lt;a1.s8,press(&quot;BackKey&quot;),a0.s0&gt; &#160;&#160;</text>
</g>
<!-- activity_1&#45;&gt;activity_0 -->
<g id="edge7" class="edge"><title>activity_1&#45;&gt;activity_0</title>
<path fill="none" stroke="black" d="M466.554,-291.096C460.901,-287.708 455.028,-284.771 449,-282.5 359.995,-248.97 328.28,-263.928 235,-282.5 232.329,-283.032 229.636,-283.652 226.937,-284.346"/>
<polygon fill="black" stroke="black" points="225.807,-281.029 217.164,-287.157 227.742,-287.757 225.807,-281.029"/>
<text text-anchor="middle" x="342" y="-286.3" font-family="Times New Roman,serif" font-size="14.00"> &#160;&#160;&lt;a1.s12,press(&quot;BackKey&quot;),a0.s0&gt; &#160;&#160;</text>
</g>
<!-- activity_3 -->
<g id="node5" class="node"><title>activity_3</title>
<g id="a_node5"><a xlink:href="activity_3.svg" xlink:title="&lt;TABLE&gt;">
<polygon fill="none" stroke="black" points="977,-568 847,-568 847,-293 977,-293 977,-568"/>
<text text-anchor="start" x="884.5" y="-556.3" font-family="Times New Roman,serif" font-size="14.00">activity_3</text>
<text text-anchor="start" x="881.5" y="-541.3" font-family="Times New Roman,serif" font-size="14.00">incoming:6</text>
<text text-anchor="start" x="882.5" y="-526.3" font-family="Times New Roman,serif" font-size="14.00">outgoing:0</text>
<image xlink:href="22.png" width="130px" height="230px" preserveAspectRatio="xMinYMin meet" x="847" y="-522.5"/>
</a>
</g>
</g>
<!-- activity_1&#45;&gt;activity_3 -->
<g id="edge8" class="edge"><title>activity_1&#45;&gt;activity_3</title>
<path fill="none" stroke="black" d="M597.165,-453.941C602.745,-458.392 608.69,-462.316 615,-465.5 699.915,-508.343 735.817,-484.555 829,-465.5 831.68,-464.952 834.381,-464.313 837.086,-463.598"/>
<polygon fill="black" stroke="black" points="838.28,-466.895 846.878,-460.704 836.296,-460.182 838.28,-466.895"/>
<text text-anchor="middle" x="722" y="-494.3" font-family="Times New Roman,serif" font-size="14.00"> &#160;&#160;&lt;a1.s21,click(&quot;index=0&quot;),a3.s22&gt; &#160;&#160;</text>
</g>
<!-- activity_1&#45;&gt;activity_3 -->
<g id="edge9" class="edge"><title>activity_1&#45;&gt;activity_3</title>
<path fill="none" stroke="black" d="M597.408,-418.709C603.07,-422.161 608.955,-425.164 615,-427.5 653.858,-442.517 762.215,-439.716 836.458,-435.643"/>
<polygon fill="black" stroke="black" points="836.912,-439.123 846.697,-435.062 836.515,-432.135 836.912,-439.123"/>
<text text-anchor="middle" x="722" y="-443.3" font-family="Times New Roman,serif" font-size="14.00"> &#160;&#160;&lt;a1.s21,click(&quot;index=0&quot;),a3.s22&gt; &#160;&#160;</text>
</g>
<!-- activity_1&#45;&gt;activity_3 -->
<g id="edge10" class="edge"><title>activity_1&#45;&gt;activity_3</title>
<path fill="none" stroke="black" d="M597.25,-384.142C603.171,-386.196 609.145,-388.03 615,-389.5 707.611,-412.752 734.979,-391.844 829,-408.5 831.631,-408.966 834.3,-409.476 836.989,-410.022"/>
<polygon fill="black" stroke="black" points="836.265,-413.447 846.779,-412.14 837.745,-406.605 836.265,-413.447"/>
<text text-anchor="middle" x="722" y="-412.3" font-family="Times New Roman,serif" font-size="14.00"> &#160;&#160;&lt;a1.s21,swipe(&quot;Right&quot;),a3.s22&gt; &#160;&#160;</text>
</g>
<!-- activity_1&#45;&gt;activity_3 -->
<g id="edge11" class="edge"><title>activity_1&#45;&gt;activity_3</title>
<path fill="none" stroke="black" d="M597.149,-353.724C671.134,-353.571 787.862,-355.816 829,-370.5 831.897,-371.534 834.78,-372.706 837.637,-373.991"/>
<polygon fill="black" stroke="black" points="836.145,-377.158 846.66,-378.456 839.249,-370.884 836.145,-377.158"/>
<text text-anchor="middle" x="722" y="-374.3" font-family="Times New Roman,serif" font-size="14.00"> &#160;&#160;&lt;a1.s21,swipe(&quot;Left&quot;),a3.s22&gt; &#160;&#160;</text>
</g>
<!-- activity_1&#45;&gt;activity_3 -->
<g id="edge12" class="edge"><title>activity_1&#45;&gt;activity_3</title>
<path fill="none" stroke="black" d="M597.104,-333.467C659.307,-316.854 754.906,-301.577 829,-335.5 832.218,-336.973 835.357,-338.642 838.415,-340.475"/>
<polygon fill="black" stroke="black" points="836.549,-343.437 846.816,-346.053 840.421,-337.605 836.549,-343.437"/>
<text text-anchor="middle" x="722" y="-339.3" font-family="Times New Roman,serif" font-size="14.00"> &#160;&#160;&lt;a1.s33,click(&quot;index=0&quot;),a3.s22&gt; &#160;&#160;</text>
</g>
<!-- activity_1&#45;&gt;activity_3 -->
<g id="edge13" class="edge"><title>activity_1&#45;&gt;activity_3</title>
<path fill="none" stroke="black" d="M597.337,-303.832C603.096,-300.916 609.018,-298.402 615,-296.5 705.641,-267.684 746.03,-250.001 829,-296.5 832.513,-298.469 835.894,-300.656 839.145,-303.031"/>
<polygon fill="black" stroke="black" points="836.974,-305.776 846.965,-309.3 841.352,-300.314 836.974,-305.776"/>
<text text-anchor="middle" x="722" y="-300.3" font-family="Times New Roman,serif" font-size="14.00"> &#160;&#160;&lt;a1.s33,click(&quot;index=0&quot;),a3.s22&gt; &#160;&#160;</text>
</g>
<!-- activity_4 -->
<g id="node6" class="node"><title>activity_4</title>
<g id="a_node6"><a xlink:href="activity_4.svg" xlink:title="&lt;TABLE&gt;">
<polygon fill="none" stroke="black" points="977,-275 847,-275 847,-0 977,-0 977,-275"/>
<text text-anchor="start" x="884.5" y="-263.3" font-family="Times New Roman,serif" font-size="14.00">activity_4</text>
<text text-anchor="start" x="881.5" y="-248.3" font-family="Times New Roman,serif" font-size="14.00">incoming:1</text>
<text text-anchor="start" x="882.5" y="-233.3" font-family="Times New Roman,serif" font-size="14.00">outgoing:1</text>
<image xlink:href="40.png" width="130px" height="230px" preserveAspectRatio="xMinYMin meet" x="847" y="-229.5"/>
</a>
</g>
</g>
<!-- activity_1&#45;&gt;activity_4 -->
<g id="edge6" class="edge"><title>activity_1&#45;&gt;activity_4</title>
<path fill="none" stroke="black" d="M597.239,-263.932C602.887,-258.664 608.82,-253.779 615,-249.5 696.94,-192.766 737.307,-221.555 829,-182.5 831.822,-181.298 834.675,-180.028 837.537,-178.707"/>
<polygon fill="black" stroke="black" points="839.174,-181.804 846.689,-174.335 836.157,-175.488 839.174,-181.804"/>
<text text-anchor="middle" x="722" y="-253.3" font-family="Times New Roman,serif" font-size="14.00"> &#160;&#160;&lt;a1.s8,click(&quot;Login&quot;),a4.s40&gt; &#160;&#160;</text>
</g>
<!-- activity_4&#45;&gt;activity_1 -->
<g id="edge14" class="edge"><title>activity_4&#45;&gt;activity_1</title>
<path fill="none" stroke="black" d="M846.891,-125.269C782.01,-116.657 681.967,-114.154 615,-163.5 597.99,-176.034 605.218,-188.035 597,-207.5 596.959,-207.596 596.919,-207.692 596.878,-207.789"/>
<polygon fill="black" stroke="black" points="593.728,-206.252 593.051,-216.825 600.174,-208.982 593.728,-206.252"/>
<text text-anchor="middle" x="722" y="-167.3" font-family="Times New Roman,serif" font-size="14.00"> &#160;&#160;&lt;a4.s40,press(&quot;BackKey&quot;),a1.s8&gt; &#160;&#160;</text>
</g>
</g>
</svg>
