<?xml version="1.0" encoding="UTF-8" standalone="no"?>
<!DOCTYPE svg PUBLIC "-//W3C//DTD SVG 1.1//EN"
 "http://www.w3.org/Graphics/SVG/1.1/DTD/svg11.dtd">
<!-- Generated by graphviz version 2.38.0 (20140413.2041)
 -->
<!-- Title: g Pages: 1 -->
<svg width="2642pt" height="1480pt"
 viewBox="0.00 0.00 2642.17 1480.00" xmlns="http://www.w3.org/2000/svg" xmlns:xlink="http://www.w3.org/1999/xlink">
<g id="graph0" class="graph" transform="scale(1 1) rotate(0) translate(4 1476)">
<title>g</title>
<polygon fill="white" stroke="none" points="-4,4 -4,-1476 2638.17,-1476 2638.17,4 -4,4"/>
<g id="clust1" class="cluster"><title>cluster_0</title>
<polygon fill="none" stroke="red" points="2093.17,-612 2093.17,-881 2626.17,-881 2626.17,-612 2093.17,-612"/>
<text text-anchor="middle" x="2359.67" y="-865.8" font-family="Times New Roman,serif" font-size="14.00" fill="red"> &#160;&#160;activity_0 &#160;&#160;</text>
</g>
<g id="clust3" class="cluster"><title>cluster_2</title>
<polygon fill="none" stroke="red" points="2093.17,-310 2093.17,-579 2239.17,-579 2239.17,-310 2093.17,-310"/>
<text text-anchor="middle" x="2166.17" y="-563.8" font-family="Times New Roman,serif" font-size="14.00" fill="red"> &#160;&#160;activity_2 &#160;&#160;</text>
</g>
<g id="clust4" class="cluster"><title>cluster_3</title>
<polygon fill="none" stroke="red" points="688.174,-8 688.174,-277 834.174,-277 834.174,-8 688.174,-8"/>
<text text-anchor="middle" x="761.174" y="-261.8" font-family="Times New Roman,serif" font-size="14.00" fill="red"> &#160;&#160;activity_3 &#160;&#160;</text>
</g>
<g id="clust2" class="cluster"><title>cluster_1</title>
<polygon fill="none" stroke="red" points="594.174,-310 594.174,-1464 2011.17,-1464 2011.17,-310 594.174,-310"/>
<text text-anchor="middle" x="1302.67" y="-1448.8" font-family="Times New Roman,serif" font-size="14.00" fill="red"> &#160;&#160;activity_1 &#160;&#160;</text>
</g>
<g id="clust5" class="cluster"><title>cluster_4</title>
<polygon fill="none" stroke="red" points="53.174,-612 53.174,-881 586.174,-881 586.174,-612 53.174,-612"/>
<text text-anchor="middle" x="319.674" y="-865.8" font-family="Times New Roman,serif" font-size="14.00" fill="red"> &#160;&#160;activity_4 &#160;&#160;</text>
</g>
<!-- state_0 -->
<g id="node1" class="node"><title>state_0</title>
<g id="a_node1"><a xlink:href="0.png">
<polygon fill="none" stroke="black" points="2231.17,-850 2101.17,-850 2101.17,-620 2231.17,-620 2231.17,-850"/>
<image xlink:href="0.png" width="130px" height="230px" preserveAspectRatio="xMinYMin meet" x="2101.17" y="-850"/>
</a>
</g>
</g>
<!-- state_0&#45;&gt;state_0 -->
<g id="edge1" class="edge"><title>state_0&#45;&gt;state_0</title>
<path fill="none" stroke="black" d="M2231.25,-743.096C2241.87,-741.937 2249.17,-739.238 2249.17,-735 2249.17,-732.285 2246.18,-730.202 2241.23,-728.75"/>
<polygon fill="black" stroke="black" points="2241.72,-725.281 2231.25,-726.904 2240.44,-732.164 2241.72,-725.281"/>
<text text-anchor="middle" x="2302.17" y="-731.3" font-family="Times New Roman,serif" font-size="14.00"> &#160;&#160;swipe(&quot;Right&quot;) &#160;&#160;</text>
</g>
<!-- state_0&#45;&gt;state_0 -->
<g id="edge2" class="edge"><title>state_0&#45;&gt;state_0</title>
<path fill="none" stroke="black" d="M2231.29,-750.66C2287.08,-755.669 2355.17,-750.449 2355.17,-735 2355.17,-720.486 2295.07,-715 2241.54,-718.542"/>
<polygon fill="black" stroke="black" points="2240.99,-715.075 2231.29,-719.34 2241.53,-722.053 2240.99,-715.075"/>
<text text-anchor="middle" x="2404.67" y="-731.3" font-family="Times New Roman,serif" font-size="14.00"> &#160;&#160;swipe(&quot;Left&quot;) &#160;&#160;</text>
</g>
<!-- state_0&#45;&gt;state_0 -->
<g id="edge3" class="edge"><title>state_0&#45;&gt;state_0</title>
<path fill="none" stroke="black" d="M2231.32,-755.19C2318.1,-767.638 2454.17,-760.908 2454.17,-735 2454.17,-710.079 2328.27,-702.902 2241.44,-713.471"/>
<polygon fill="black" stroke="black" points="2240.77,-710.028 2231.32,-714.81 2241.69,-716.968 2240.77,-710.028"/>
<text text-anchor="middle" x="2518.17" y="-731.3" font-family="Times New Roman,serif" font-size="14.00"> &#160;&#160;press(&quot;MenuKey&quot;) &#160;&#160;</text>
</g>
<!-- state_1 -->
<g id="node2" class="node"><title>state_1</title>
<g id="a_node2"><a xlink:href="1.png">
<polygon fill="none" stroke="black" points="1182.17,-1433 1052.17,-1433 1052.17,-1203 1182.17,-1203 1182.17,-1433"/>
<image xlink:href="1.png" width="130px" height="230px" preserveAspectRatio="xMinYMin meet" x="1052.17" y="-1433"/>
</a>
</g>
</g>
<!-- state_0&#45;&gt;state_1 -->
<g id="edge4" class="edge"><title>state_0&#45;&gt;state_1</title>
<path fill="none" stroke="black" d="M2101.08,-829.329C2083.41,-858.022 2065.72,-890.394 2053.17,-922 2014.61,-1019.14 2079.03,-1079.06 2004.17,-1152 1888.65,-1264.56 1384.98,-1302.8 1192.41,-1313.45"/>
<polygon fill="black" stroke="black" points="1192.17,-1309.96 1182.38,-1314 1192.55,-1316.95 1192.17,-1309.96"/>
<text text-anchor="middle" x="2098.67" y="-1033.3" font-family="Times New Roman,serif" font-size="14.00"> &#160;&#160;click(&quot;OK&quot;) &#160;&#160;</text>
</g>
<!-- state_final -->
<g id="node7" class="node"><title>state_final</title>
<g id="a_node7"><a xlink:href="-2.png">
<polygon fill="none" stroke="black" points="2231.17,-548 2101.17,-548 2101.17,-318 2231.17,-318 2231.17,-548"/>
<image xlink:href="-2.png" width="76px" height="74px" preserveAspectRatio="xMinYMin meet" x="2128.17" y="-470"/>
</a>
</g>
</g>
<!-- state_0&#45;&gt;state_final -->
<g id="edge5" class="edge"><title>state_0&#45;&gt;state_final</title>
<path fill="none" stroke="black" d="M2166.17,-619.727C2166.17,-599.754 2166.17,-578.883 2166.17,-558.647"/>
<polygon fill="black" stroke="black" points="2169.67,-558.452 2166.17,-548.452 2162.67,-558.452 2169.67,-558.452"/>
<text text-anchor="middle" x="2228.67" y="-590.8" font-family="Times New Roman,serif" font-size="14.00"> &#160;&#160;press(&quot;BackKey&quot;) &#160;&#160;</text>
</g>
<!-- state_1&#45;&gt;state_0 -->
<g id="edge13" class="edge"><title>state_1&#45;&gt;state_0</title>
<path fill="none" stroke="black" d="M1182.29,-1316.94C1388.08,-1315.25 2018.32,-1298.02 2144.17,-1152 2212.17,-1073.11 2210.63,-951.342 2196.27,-859.898"/>
<polygon fill="black" stroke="black" points="2199.72,-859.329 2194.65,-850.026 2192.81,-860.461 2199.72,-859.329"/>
<text text-anchor="middle" x="2266.67" y="-1033.3" font-family="Times New Roman,serif" font-size="14.00"> &#160;&#160;press(&quot;BackKey&quot;) &#160;&#160;</text>
</g>
<!-- state_1&#45;&gt;state_1 -->
<g id="edge6" class="edge"><title>state_1&#45;&gt;state_1</title>
<path fill="none" stroke="black" d="M1182.25,-1322.86C1192.87,-1322.16 1200.17,-1320.54 1200.17,-1318 1200.17,-1316.37 1197.18,-1315.12 1192.23,-1314.25"/>
<polygon fill="black" stroke="black" points="1192.57,-1310.77 1182.25,-1313.14 1191.8,-1317.72 1192.57,-1310.77"/>
<text text-anchor="middle" x="1257.67" y="-1314.3" font-family="Times New Roman,serif" font-size="14.00"> &#160;&#160;click(&quot;index=0&quot;) &#160;&#160;</text>
</g>
<!-- state_1&#45;&gt;state_1 -->
<g id="edge7" class="edge"><title>state_1&#45;&gt;state_1</title>
<path fill="none" stroke="black" d="M1182.35,-1327.27C1241.21,-1330.48 1315.17,-1327.39 1315.17,-1318 1315.17,-1309.14 1249.35,-1305.89 1192.48,-1308.24"/>
<polygon fill="black" stroke="black" points="1192.18,-1304.75 1182.35,-1308.73 1192.51,-1311.74 1192.18,-1304.75"/>
<text text-anchor="middle" x="1386.17" y="-1314.3" font-family="Times New Roman,serif" font-size="14.00"> &#160;&#160;longClick(&quot;index=0&quot;) &#160;&#160;</text>
</g>
<!-- state_1&#45;&gt;state_1 -->
<g id="edge10" class="edge"><title>state_1&#45;&gt;state_1</title>
<path fill="none" stroke="black" d="M1182.34,-1329.43C1282.92,-1337.81 1457.17,-1334 1457.17,-1318 1457.17,-1302.54 1294.3,-1298.46 1192.59,-1305.77"/>
<polygon fill="black" stroke="black" points="1192.04,-1302.3 1182.34,-1306.57 1192.58,-1309.28 1192.04,-1302.3"/>
<text text-anchor="middle" x="1508.67" y="-1314.3" font-family="Times New Roman,serif" font-size="14.00"> &#160;&#160;click(&quot;Login&quot;) &#160;&#160;</text>
</g>
<!-- state_1&#45;&gt;state_1 -->
<g id="edge11" class="edge"><title>state_1&#45;&gt;state_1</title>
<path fill="none" stroke="black" d="M1182.25,-1331.6C1307.86,-1344.84 1560.17,-1340.31 1560.17,-1318 1560.17,-1296.28 1320.99,-1291.41 1192.45,-1303.39"/>
<polygon fill="black" stroke="black" points="1191.86,-1299.93 1182.25,-1304.4 1192.55,-1306.9 1191.86,-1299.93"/>
<text text-anchor="middle" x="1613.17" y="-1314.3" font-family="Times New Roman,serif" font-size="14.00"> &#160;&#160;swipe(&quot;Right&quot;) &#160;&#160;</text>
</g>
<!-- state_1&#45;&gt;state_1 -->
<g id="edge12" class="edge"><title>state_1&#45;&gt;state_1</title>
<path fill="none" stroke="black" d="M1182.19,-1333.41C1330.71,-1351.88 1666.17,-1346.75 1666.17,-1318 1666.17,-1289.9 1345.62,-1284.36 1192.48,-1301.38"/>
<polygon fill="black" stroke="black" points="1191.72,-1297.95 1182.19,-1302.59 1192.53,-1304.9 1191.72,-1297.95"/>
<text text-anchor="middle" x="1715.67" y="-1314.3" font-family="Times New Roman,serif" font-size="14.00"> &#160;&#160;swipe(&quot;Left&quot;) &#160;&#160;</text>
</g>
<!-- state_8 -->
<g id="node3" class="node"><title>state_8</title>
<g id="a_node3"><a xlink:href="8.png">
<polygon fill="none" stroke="black" points="1121.17,-1152 991.174,-1152 991.174,-922 1121.17,-922 1121.17,-1152"/>
<image xlink:href="8.png" width="130px" height="230px" preserveAspectRatio="xMinYMin meet" x="991.174" y="-1152"/>
</a>
</g>
</g>
<!-- state_1&#45;&gt;state_8 -->
<g id="edge8" class="edge"><title>state_1&#45;&gt;state_8</title>
<path fill="none" stroke="black" d="M1101.67,-1202.76C1099.68,-1191.65 1097.52,-1180.58 1095.17,-1170 1094.59,-1167.36 1093.98,-1164.69 1093.35,-1162"/>
<polygon fill="black" stroke="black" points="1096.73,-1161.12 1090.98,-1152.22 1089.93,-1162.77 1096.73,-1161.12"/>
<text text-anchor="middle" x="1181.17" y="-1173.8" font-family="Times New Roman,serif" font-size="14.00"> &#160;&#160;&quot;index=0&quot;.input(&quot;admin&quot;) &#160;&#160;</text>
</g>
<!-- state_12 -->
<g id="node4" class="node"><title>state_12</title>
<g id="a_node4"><a xlink:href="12.png">
<polygon fill="none" stroke="black" points="1185.17,-850 1055.17,-850 1055.17,-620 1185.17,-620 1185.17,-850"/>
<image xlink:href="12.png" width="130px" height="230px" preserveAspectRatio="xMinYMin meet" x="1055.17" y="-850"/>
</a>
</g>
</g>
<!-- state_1&#45;&gt;state_12 -->
<g id="edge9" class="edge"><title>state_1&#45;&gt;state_12</title>
<path fill="none" stroke="black" d="M1182.35,-1312.15C1343.84,-1298.66 1755.36,-1254.68 1837.17,-1152 1869.02,-1112.03 1868.45,-962.425 1837.17,-922 1758.23,-819.957 1362.56,-763.61 1195.16,-744.014"/>
<polygon fill="black" stroke="black" points="1195.53,-740.533 1185.19,-742.859 1194.72,-747.487 1195.53,-740.533"/>
<text text-anchor="middle" x="1930.67" y="-1033.3" font-family="Times New Roman,serif" font-size="14.00"> &#160;&#160;&quot;index=0&quot;.input(&quot;a&quot;) &#160;&#160;</text>
</g>
<!-- state_33 -->
<g id="node6" class="node"><title>state_33</title>
<g id="a_node6"><a xlink:href="33.png">
<polygon fill="none" stroke="black" points="732.174,-1152 602.174,-1152 602.174,-922 732.174,-922 732.174,-1152"/>
<image xlink:href="33.png" width="130px" height="230px" preserveAspectRatio="xMinYMin meet" x="602.174" y="-1152"/>
</a>
</g>
</g>
<!-- state_1&#45;&gt;state_33 -->
<g id="edge14" class="edge"><title>state_1&#45;&gt;state_33</title>
<path fill="none" stroke="black" d="M1052.14,-1261.07C1005.63,-1221.17 950.212,-1173.91 944.174,-1170 879.362,-1128.04 799.153,-1091.29 741.754,-1067.29"/>
<polygon fill="black" stroke="black" points="742.964,-1064 732.386,-1063.4 740.28,-1070.47 742.964,-1064"/>
<text text-anchor="middle" x="1024.17" y="-1173.8" font-family="Times New Roman,serif" font-size="14.00"> &#160;&#160;press(&quot;MenuKey&quot;) &#160;&#160;</text>
</g>
<!-- state_8&#45;&gt;state_0 -->
<g id="edge21" class="edge"><title>state_8&#45;&gt;state_0</title>
<path fill="none" stroke="black" d="M1121.23,-1022.31C1262.39,-993.123 1607.65,-924.554 1900.17,-889 1925.6,-885.909 1991.75,-891.382 2015.17,-881 2044.26,-868.107 2071.1,-847.08 2093.84,-824.989"/>
<polygon fill="black" stroke="black" points="2096.46,-827.322 2101.08,-817.788 2091.52,-822.36 2096.46,-827.322"/>
<text text-anchor="middle" x="1962.67" y="-892.8" font-family="Times New Roman,serif" font-size="14.00"> &#160;&#160;press(&quot;BackKey&quot;) &#160;&#160;</text>
</g>
<!-- state_8&#45;&gt;state_8 -->
<g id="edge15" class="edge"><title>state_8&#45;&gt;state_8</title>
<path fill="none" stroke="black" d="M1121.25,-1041.86C1131.87,-1041.16 1139.17,-1039.54 1139.17,-1037 1139.17,-1035.37 1136.18,-1034.12 1131.23,-1033.25"/>
<polygon fill="black" stroke="black" points="1131.57,-1029.77 1121.25,-1032.14 1130.8,-1036.72 1131.57,-1029.77"/>
<text text-anchor="middle" x="1191.17" y="-1033.3" font-family="Times New Roman,serif" font-size="14.00"> &#160;&#160;click(&quot;admin&quot;) &#160;&#160;</text>
</g>
<!-- state_8&#45;&gt;state_8 -->
<g id="edge16" class="edge"><title>state_8&#45;&gt;state_8</title>
<path fill="none" stroke="black" d="M1121.25,-1046.42C1176.35,-1049.38 1243.17,-1046.24 1243.17,-1037 1243.17,-1028.32 1184.2,-1025.02 1131.37,-1027.11"/>
<polygon fill="black" stroke="black" points="1131.07,-1023.62 1121.25,-1027.58 1131.4,-1030.61 1131.07,-1023.62"/>
<text text-anchor="middle" x="1314.17" y="-1033.3" font-family="Times New Roman,serif" font-size="14.00"> &#160;&#160;longClick(&quot;index=0&quot;) &#160;&#160;</text>
</g>
<!-- state_8&#45;&gt;state_8 -->
<g id="edge17" class="edge"><title>state_8&#45;&gt;state_8</title>
<path fill="none" stroke="black" d="M1121.27,-1048.56C1219.02,-1056.77 1385.17,-1052.91 1385.17,-1037 1385.17,-1021.63 1230.18,-1017.51 1131.52,-1024.64"/>
<polygon fill="black" stroke="black" points="1130.97,-1021.17 1121.27,-1025.44 1131.51,-1028.15 1130.97,-1021.17"/>
<text text-anchor="middle" x="1468.17" y="-1033.3" font-family="Times New Roman,serif" font-size="14.00"> &#160;&#160;&quot;index=0&quot;.input(&quot;admin&quot;) &#160;&#160;</text>
</g>
<!-- state_8&#45;&gt;state_8 -->
<g id="edge19" class="edge"><title>state_8&#45;&gt;state_8</title>
<path fill="none" stroke="black" d="M1121.28,-1050.05C1258.1,-1063.96 1551.17,-1059.61 1551.17,-1037 1551.17,-1014.94 1272.23,-1010.26 1131.57,-1022.96"/>
<polygon fill="black" stroke="black" points="1130.9,-1019.51 1121.28,-1023.95 1131.57,-1026.48 1130.9,-1019.51"/>
<text text-anchor="middle" x="1604.17" y="-1033.3" font-family="Times New Roman,serif" font-size="14.00"> &#160;&#160;swipe(&quot;Right&quot;) &#160;&#160;</text>
</g>
<!-- state_8&#45;&gt;state_8 -->
<g id="edge20" class="edge"><title>state_8&#45;&gt;state_8</title>
<path fill="none" stroke="black" d="M1121.32,-1051.91C1280,-1070.97 1657.17,-1066 1657.17,-1037 1657.17,-1008.59 1295.31,-1003.24 1131.36,-1020.95"/>
<polygon fill="black" stroke="black" points="1130.86,-1017.48 1121.32,-1022.09 1131.65,-1024.43 1130.86,-1017.48"/>
<text text-anchor="middle" x="1706.67" y="-1033.3" font-family="Times New Roman,serif" font-size="14.00"> &#160;&#160;swipe(&quot;Left&quot;) &#160;&#160;</text>
</g>
<!-- state_8&#45;&gt;state_12 -->
<g id="edge18" class="edge"><title>state_8&#45;&gt;state_12</title>
<path fill="none" stroke="black" d="M996.836,-921.877C997.055,-910.149 1000.37,-898.918 1008.17,-889 1017.5,-877.138 1029.2,-890.192 1041.17,-881 1049.7,-874.45 1057.43,-866.705 1064.41,-858.257"/>
<polygon fill="black" stroke="black" points="1067.21,-860.353 1070.6,-850.315 1061.69,-856.047 1067.21,-860.353"/>
<text text-anchor="middle" x="1077.67" y="-892.8" font-family="Times New Roman,serif" font-size="14.00"> &#160;&#160;&quot;index=0&quot;.input(&quot;a&quot;) &#160;&#160;</text>
</g>
<!-- state_21 -->
<g id="node5" class="node"><title>state_21</title>
<g id="a_node5"><a xlink:href="21.png">
<polygon fill="none" stroke="black" points="1011.17,-548 881.174,-548 881.174,-318 1011.17,-318 1011.17,-548"/>
<image xlink:href="21.png" width="130px" height="230px" preserveAspectRatio="xMinYMin meet" x="881.174" y="-548"/>
</a>
</g>
</g>
<!-- state_8&#45;&gt;state_21 -->
<g id="edge22" class="edge"><title>state_8&#45;&gt;state_21</title>
<path fill="none" stroke="black" d="M991.031,-931.375C988.141,-928.131 985.186,-924.994 982.174,-922 958.216,-898.185 934.385,-910.637 918.174,-881 864.206,-782.335 880.156,-652.478 904.247,-558.167"/>
<polygon fill="black" stroke="black" points="907.685,-558.851 906.832,-548.29 900.914,-557.078 907.685,-558.851"/>
<text text-anchor="middle" x="982.174" y="-731.3" font-family="Times New Roman,serif" font-size="14.00"> &#160;&#160;press(&quot;MenuKey&quot;) &#160;&#160;</text>
</g>
<!-- state_40 -->
<g id="node9" class="node"><title>state_40</title>
<g id="a_node9"><a xlink:href="40.png">
<polygon fill="none" stroke="black" points="191.174,-850 61.174,-850 61.174,-620 191.174,-620 191.174,-850"/>
<image xlink:href="40.png" width="130px" height="230px" preserveAspectRatio="xMinYMin meet" x="61.174" y="-850"/>
</a>
</g>
</g>
<!-- state_8&#45;&gt;state_40 -->
<g id="edge23" class="edge"><title>state_8&#45;&gt;state_40</title>
<path fill="none" stroke="black" d="M991.064,-927.819C988.205,-925.713 985.242,-923.764 982.174,-922 946.492,-901.483 652.587,-911.802 612.174,-904 461.752,-874.959 294.612,-809.361 200.759,-769.267"/>
<polygon fill="black" stroke="black" points="201.923,-765.958 191.353,-765.229 199.161,-772.39 201.923,-765.958"/>
<text text-anchor="middle" x="663.674" y="-892.8" font-family="Times New Roman,serif" font-size="14.00"> &#160;&#160;click(&quot;Login&quot;) &#160;&#160;</text>
</g>
<!-- state_12&#45;&gt;state_0 -->
<g id="edge31" class="edge"><title>state_12&#45;&gt;state_0</title>
<path fill="none" stroke="black" d="M1185.21,-735C1369.49,-735 1894.43,-735 2090.81,-735"/>
<polygon fill="black" stroke="black" points="2091.03,-738.5 2101.03,-735 2091.03,-731.5 2091.03,-738.5"/>
<text text-anchor="middle" x="1643.17" y="-741.8" font-family="Times New Roman,serif" font-size="14.00"> &#160;&#160;press(&quot;BackKey&quot;) &#160;&#160;</text>
</g>
<!-- state_12&#45;&gt;state_8 -->
<g id="edge26" class="edge"><title>state_12&#45;&gt;state_8</title>
<path fill="none" stroke="black" d="M1152.66,-850.43C1153.78,-868.554 1152.49,-886.935 1147.17,-904 1142.38,-919.406 1135.09,-934.604 1126.68,-948.897"/>
<polygon fill="black" stroke="black" points="1123.54,-947.316 1121.31,-957.673 1129.52,-950.968 1123.54,-947.316"/>
<text text-anchor="middle" x="1234.17" y="-892.8" font-family="Times New Roman,serif" font-size="14.00"> &#160;&#160;&quot;index=0&quot;.input(&quot;admin&quot;) &#160;&#160;</text>
</g>
<!-- state_12&#45;&gt;state_12 -->
<g id="edge24" class="edge"><title>state_12&#45;&gt;state_12</title>
<path fill="none" stroke="black" d="M1185.25,-739.048C1195.87,-738.468 1203.17,-737.119 1203.17,-735 1203.17,-733.642 1200.18,-732.601 1195.23,-731.875"/>
<polygon fill="black" stroke="black" points="1195.53,-728.388 1185.25,-730.952 1194.88,-735.358 1195.53,-728.388"/>
<text text-anchor="middle" x="1241.17" y="-731.3" font-family="Times New Roman,serif" font-size="14.00"> &#160;&#160;click(&quot;a&quot;) &#160;&#160;</text>
</g>
<!-- state_12&#45;&gt;state_12 -->
<g id="edge25" class="edge"><title>state_12&#45;&gt;state_12</title>
<path fill="none" stroke="black" d="M1185.28,-743.203C1230.22,-745.026 1279.17,-742.292 1279.17,-735 1279.17,-728.25 1237.21,-725.405 1195.33,-726.466"/>
<polygon fill="black" stroke="black" points="1195.16,-722.97 1185.28,-726.797 1195.39,-729.966 1195.16,-722.97"/>
<text text-anchor="middle" x="1350.17" y="-731.3" font-family="Times New Roman,serif" font-size="14.00"> &#160;&#160;longClick(&quot;index=0&quot;) &#160;&#160;</text>
</g>
<!-- state_12&#45;&gt;state_12 -->
<g id="edge27" class="edge"><title>state_12&#45;&gt;state_12</title>
<path fill="none" stroke="black" d="M1185.35,-744.945C1275.7,-751.372 1421.17,-748.057 1421.17,-735 1421.17,-722.415 1286.02,-718.88 1195.35,-724.396"/>
<polygon fill="black" stroke="black" points="1195.1,-720.905 1185.35,-725.055 1195.56,-727.89 1195.1,-720.905"/>
<text text-anchor="middle" x="1490.67" y="-731.3" font-family="Times New Roman,serif" font-size="14.00"> &#160;&#160;&quot;index=0&quot;.input(&quot;a&quot;) &#160;&#160;</text>
</g>
<!-- state_12&#45;&gt;state_12 -->
<g id="edge28" class="edge"><title>state_12&#45;&gt;state_12</title>
<path fill="none" stroke="black" d="M1185.39,-746.371C1310.38,-757.361 1560.17,-753.571 1560.17,-735 1560.17,-716.919 1323.38,-712.849 1195.53,-722.79"/>
<polygon fill="black" stroke="black" points="1195.07,-719.317 1185.39,-723.629 1195.65,-726.293 1195.07,-719.317"/>
<text text-anchor="middle" x="1611.67" y="-731.3" font-family="Times New Roman,serif" font-size="14.00"> &#160;&#160;click(&quot;Login&quot;) &#160;&#160;</text>
</g>
<!-- state_12&#45;&gt;state_12 -->
<g id="edge29" class="edge"><title>state_12&#45;&gt;state_12</title>
<path fill="none" stroke="black" d="M1185.21,-747.897C1332.55,-763.225 1663.17,-758.926 1663.17,-735 1663.17,-711.612 1347.24,-706.978 1195.41,-721.099"/>
<polygon fill="black" stroke="black" points="1194.82,-717.64 1185.21,-722.103 1195.51,-724.607 1194.82,-717.64"/>
<text text-anchor="middle" x="1716.17" y="-731.3" font-family="Times New Roman,serif" font-size="14.00"> &#160;&#160;swipe(&quot;Right&quot;) &#160;&#160;</text>
</g>
<!-- state_12&#45;&gt;state_12 -->
<g id="edge30" class="edge"><title>state_12&#45;&gt;state_12</title>
<path fill="none" stroke="black" d="M1185.21,-749.227C1353.54,-769.086 1769.17,-764.343 1769.17,-735 1769.17,-706.23 1369.62,-701.109 1195.35,-719.637"/>
<polygon fill="black" stroke="black" points="1194.75,-716.182 1185.21,-720.773 1195.53,-723.138 1194.75,-716.182"/>
<text text-anchor="middle" x="1818.67" y="-731.3" font-family="Times New Roman,serif" font-size="14.00"> &#160;&#160;swipe(&quot;Left&quot;) &#160;&#160;</text>
</g>
<!-- state_12&#45;&gt;state_21 -->
<g id="edge32" class="edge"><title>state_12&#45;&gt;state_21</title>
<path fill="none" stroke="black" d="M1082.23,-619.644C1077.29,-608.394 1071.93,-597.33 1066.17,-587 1052.49,-562.446 1035.01,-537.678 1017.65,-515.432"/>
<polygon fill="black" stroke="black" points="1020.21,-513.031 1011.27,-507.355 1014.72,-517.371 1020.21,-513.031"/>
<text text-anchor="middle" x="1136.17" y="-590.8" font-family="Times New Roman,serif" font-size="14.00"> &#160;&#160;press(&quot;MenuKey&quot;) &#160;&#160;</text>
</g>
<!-- state_21&#45;&gt;state_12 -->
<g id="edge33" class="edge"><title>state_21&#45;&gt;state_12</title>
<path fill="none" stroke="black" d="M1011.28,-452.164C1073.31,-473.326 1163.13,-514.939 1204.17,-587 1218.88,-612.815 1208.88,-641.161 1191.39,-666.014"/>
<polygon fill="black" stroke="black" points="1188.38,-664.195 1185.19,-674.3 1193.98,-668.386 1188.38,-664.195"/>
<text text-anchor="middle" x="1272.67" y="-590.8" font-family="Times New Roman,serif" font-size="14.00"> &#160;&#160;press(&quot;BackKey&quot;) &#160;&#160;</text>
</g>
<!-- state_21&#45;&gt;state_12 -->
<g id="edge34" class="edge"><title>state_21&#45;&gt;state_12</title>
<path fill="none" stroke="black" d="M914.57,-548.088C915.196,-568.004 920.587,-587.084 934.174,-602 950.256,-619.655 1020.75,-599.626 1041.17,-612 1043.15,-613.195 1045.08,-614.46 1046.97,-615.789"/>
<polygon fill="black" stroke="black" points="1044.96,-618.66 1055.02,-622.004 1049.24,-613.121 1044.96,-618.66"/>
<text text-anchor="middle" x="998.174" y="-590.8" font-family="Times New Roman,serif" font-size="14.00"> &#160;&#160;press(&quot;MenuKey&quot;) &#160;&#160;</text>
</g>
<!-- state_22 -->
<g id="node8" class="node"><title>state_22</title>
<g id="a_node8"><a xlink:href="22.png">
<polygon fill="none" stroke="black" points="826.174,-246 696.174,-246 696.174,-16 826.174,-16 826.174,-246"/>
<image xlink:href="22.png" width="130px" height="230px" preserveAspectRatio="xMinYMin meet" x="696.174" y="-246"/>
</a>
</g>
</g>
<!-- state_21&#45;&gt;state_22 -->
<g id="edge35" class="edge"><title>state_21&#45;&gt;state_22</title>
<path fill="none" stroke="black" d="M938.701,-317.99C935.601,-306.496 931.518,-295.285 926.174,-285 904.831,-243.92 867.893,-208.089 834.37,-181.448"/>
<polygon fill="black" stroke="black" points="836.421,-178.61 826.383,-175.22 832.117,-184.13 836.421,-178.61"/>
<text text-anchor="middle" x="990.674" y="-288.8" font-family="Times New Roman,serif" font-size="14.00"> &#160;&#160;click(&quot;index=0&quot;) &#160;&#160;</text>
</g>
<!-- state_21&#45;&gt;state_22 -->
<g id="edge36" class="edge"><title>state_21&#45;&gt;state_22</title>
<path fill="none" stroke="black" d="M1011.43,-387.289C1044.57,-358.81 1073.73,-320.685 1052.17,-285 1005.62,-207.932 905.953,-167.748 836.301,-148.256"/>
<polygon fill="black" stroke="black" points="836.819,-144.77 826.252,-145.528 834.986,-151.526 836.819,-144.77"/>
<text text-anchor="middle" x="1115.67" y="-288.8" font-family="Times New Roman,serif" font-size="14.00"> &#160;&#160;click(&quot;index=0&quot;) &#160;&#160;</text>
</g>
<!-- state_21&#45;&gt;state_22 -->
<g id="edge37" class="edge"><title>state_21&#45;&gt;state_22</title>
<path fill="none" stroke="black" d="M880.998,-417.417C821.675,-400.31 737.537,-365.542 698.174,-300 686.299,-280.227 686.564,-257.839 692.939,-236.001"/>
<polygon fill="black" stroke="black" points="696.313,-236.946 696.151,-226.353 689.671,-234.735 696.313,-236.946"/>
<text text-anchor="middle" x="751.174" y="-288.8" font-family="Times New Roman,serif" font-size="14.00"> &#160;&#160;swipe(&quot;Right&quot;) &#160;&#160;</text>
</g>
<!-- state_21&#45;&gt;state_22 -->
<g id="edge38" class="edge"><title>state_21&#45;&gt;state_22</title>
<path fill="none" stroke="black" d="M880.885,-372.105C860.398,-350.832 839.021,-325.741 823.174,-300 814.671,-286.188 807.058,-271.028 800.327,-255.643"/>
<polygon fill="black" stroke="black" points="803.381,-253.88 796.249,-246.044 796.938,-256.617 803.381,-253.88"/>
<text text-anchor="middle" x="872.674" y="-288.8" font-family="Times New Roman,serif" font-size="14.00"> &#160;&#160;swipe(&quot;Left&quot;) &#160;&#160;</text>
</g>
<!-- state_33&#45;&gt;state_1 -->
<g id="edge41" class="edge"><title>state_33&#45;&gt;state_1</title>
<path fill="none" stroke="black" d="M653.48,-1152.06C656.158,-1163.93 660.801,-1175.22 668.174,-1185 713.21,-1244.76 925.875,-1286.86 1041.64,-1305.77"/>
<polygon fill="black" stroke="black" points="1041.42,-1309.28 1051.85,-1307.42 1042.53,-1302.37 1041.42,-1309.28"/>
<text text-anchor="middle" x="730.674" y="-1173.8" font-family="Times New Roman,serif" font-size="14.00"> &#160;&#160;press(&quot;BackKey&quot;) &#160;&#160;</text>
</g>
<!-- state_33&#45;&gt;state_1 -->
<g id="edge42" class="edge"><title>state_33&#45;&gt;state_1</title>
<path fill="none" stroke="black" d="M732.187,-1108.89C762.006,-1140.34 794.575,-1172.95 812.174,-1185 884.289,-1234.37 977.845,-1271.53 1042.22,-1293.65"/>
<polygon fill="black" stroke="black" points="1041.3,-1297.03 1051.9,-1296.93 1043.56,-1290.4 1041.3,-1297.03"/>
<text text-anchor="middle" x="876.174" y="-1173.8" font-family="Times New Roman,serif" font-size="14.00"> &#160;&#160;press(&quot;MenuKey&quot;) &#160;&#160;</text>
</g>
<!-- state_33&#45;&gt;state_33 -->
<g id="edge39" class="edge"><title>state_33&#45;&gt;state_33</title>
<path fill="none" stroke="black" d="M732.246,-1049.14C742.871,-1047.41 750.174,-1043.36 750.174,-1037 750.174,-1032.93 747.177,-1029.8 742.229,-1027.63"/>
<polygon fill="black" stroke="black" points="742.817,-1024.16 732.246,-1024.86 740.947,-1030.9 742.817,-1024.16"/>
<text text-anchor="middle" x="803.174" y="-1033.3" font-family="Times New Roman,serif" font-size="14.00"> &#160;&#160;swipe(&quot;Right&quot;) &#160;&#160;</text>
</g>
<!-- state_33&#45;&gt;state_33 -->
<g id="edge40" class="edge"><title>state_33&#45;&gt;state_33</title>
<path fill="none" stroke="black" d="M732.287,-1060.49C788.078,-1068 856.174,-1060.17 856.174,-1037 856.174,-1015.23 796.074,-1007 742.539,-1012.31"/>
<polygon fill="black" stroke="black" points="741.814,-1008.87 732.287,-1013.51 742.625,-1015.83 741.814,-1008.87"/>
<text text-anchor="middle" x="905.674" y="-1033.3" font-family="Times New Roman,serif" font-size="14.00"> &#160;&#160;swipe(&quot;Left&quot;) &#160;&#160;</text>
</g>
<!-- state_33&#45;&gt;state_22 -->
<g id="edge43" class="edge"><title>state_33&#45;&gt;state_22</title>
<path fill="none" stroke="black" d="M601.976,-1029.6C457.411,-1013.93 117.342,-968.377 49.174,-881 -24.3661,-786.738 -6.96666,-717.555 49.174,-612 186.773,-353.29 532.819,-208.885 686.098,-155.774"/>
<polygon fill="black" stroke="black" points="687.588,-158.963 695.911,-152.407 685.316,-152.341 687.588,-158.963"/>
<text text-anchor="middle" x="119.674" y="-590.8" font-family="Times New Roman,serif" font-size="14.00"> &#160;&#160;click(&quot;index=0&quot;) &#160;&#160;</text>
</g>
<!-- state_33&#45;&gt;state_22 -->
<g id="edge44" class="edge"><title>state_33&#45;&gt;state_22</title>
<path fill="none" stroke="black" d="M656.239,-921.829C645.205,-772.975 636.462,-505.588 689.174,-285 691.477,-275.363 694.424,-265.609 697.805,-255.934"/>
<polygon fill="black" stroke="black" points="701.183,-256.887 701.324,-246.293 694.607,-254.487 701.183,-256.887"/>
<text text-anchor="middle" x="708.674" y="-590.8" font-family="Times New Roman,serif" font-size="14.00"> &#160;&#160;click(&quot;index=0&quot;) &#160;&#160;</text>
</g>
<!-- state_40&#45;&gt;state_8 -->
<g id="edge47" class="edge"><title>state_40&#45;&gt;state_8</title>
<path fill="none" stroke="black" d="M191.382,-761.838C280.049,-795.7 444.333,-853.949 590.174,-881 644.91,-891.153 660.106,-880.842 715.174,-889 744.074,-893.281 750.329,-899.365 779.174,-904 823.888,-911.185 943.371,-898.648 982.174,-922 982.269,-922.057 982.363,-922.114 982.458,-922.172"/>
<polygon fill="black" stroke="black" points="980.737,-925.234 990.969,-927.98 984.683,-919.452 980.737,-925.234"/>
<text text-anchor="middle" x="841.674" y="-892.8" font-family="Times New Roman,serif" font-size="14.00"> &#160;&#160;press(&quot;BackKey&quot;) &#160;&#160;</text>
</g>
<!-- state_40&#45;&gt;state_40 -->
<g id="edge45" class="edge"><title>state_40&#45;&gt;state_40</title>
<path fill="none" stroke="black" d="M191.246,-743.096C201.871,-741.937 209.174,-739.238 209.174,-735 209.174,-732.285 206.177,-730.202 201.229,-728.75"/>
<polygon fill="black" stroke="black" points="201.715,-725.281 191.246,-726.904 200.443,-732.164 201.715,-725.281"/>
<text text-anchor="middle" x="262.174" y="-731.3" font-family="Times New Roman,serif" font-size="14.00"> &#160;&#160;swipe(&quot;Right&quot;) &#160;&#160;</text>
</g>
<!-- state_40&#45;&gt;state_40 -->
<g id="edge46" class="edge"><title>state_40&#45;&gt;state_40</title>
<path fill="none" stroke="black" d="M191.287,-750.66C247.078,-755.669 315.174,-750.449 315.174,-735 315.174,-720.486 255.074,-715 201.539,-718.542"/>
<polygon fill="black" stroke="black" points="200.986,-715.075 191.287,-719.34 201.529,-722.053 200.986,-715.075"/>
<text text-anchor="middle" x="364.674" y="-731.3" font-family="Times New Roman,serif" font-size="14.00"> &#160;&#160;swipe(&quot;Left&quot;) &#160;&#160;</text>
</g>
<!-- state_40&#45;&gt;state_40 -->
<g id="edge48" class="edge"><title>state_40&#45;&gt;state_40</title>
<path fill="none" stroke="black" d="M191.317,-755.19C278.101,-767.638 414.174,-760.908 414.174,-735 414.174,-710.079 288.268,-702.902 201.437,-713.471"/>
<polygon fill="black" stroke="black" points="200.771,-710.028 191.317,-714.81 201.69,-716.968 200.771,-710.028"/>
<text text-anchor="middle" x="478.174" y="-731.3" font-family="Times New Roman,serif" font-size="14.00"> &#160;&#160;press(&quot;MenuKey&quot;) &#160;&#160;</text>
</g>
</g>
</svg>
