<?xml version="1.0" encoding="UTF-8" standalone="no"?>
<!DOCTYPE svg PUBLIC "-//W3C//DTD SVG 1.1//EN"
 "http://www.w3.org/Graphics/SVG/1.1/DTD/svg11.dtd">
<!-- Generated by graphviz version 2.38.0 (20140413.2041)
 -->
<!-- Title: activity_0 Pages: 1 -->
<svg width="1366pt" height="639pt"
 viewBox="0.00 0.00 1366.10 639.00" xmlns="http://www.w3.org/2000/svg" xmlns:xlink="http://www.w3.org/1999/xlink">
<g id="graph0" class="graph" transform="scale(1 1) rotate(0) translate(4 635)">
<title>activity_0</title>
<polygon fill="white" stroke="none" points="-4,4 -4,-635 1362.1,-635 1362.1,4 -4,4"/>
<!-- state_0 -->
<g id="node1" class="node"><title>state_0</title>
<g id="a_node1"><a xlink:href="0.png" xlink:title="&lt;TABLE&gt;">
<polygon fill="none" stroke="black" points="774.098,-631 644.098,-631 644.098,-341 774.098,-341 774.098,-631"/>
<text text-anchor="start" x="689.098" y="-619.8" font-family="Times New Roman,serif" font-size="14.00">state_0</text>
<text text-anchor="start" x="678.598" y="-604.8" font-family="Times New Roman,serif" font-size="14.00">incoming:7</text>
<text text-anchor="start" x="679.598" y="-589.8" font-family="Times New Roman,serif" font-size="14.00">outgoing:6</text>
<text text-anchor="start" x="691.098" y="-574.8" font-family="Times New Roman,serif" font-size="14.00">loop:2</text>
<image xlink:href="0.png" width="130px" height="230px" preserveAspectRatio="xMinYMin meet" x="644.098" y="-571"/>
</a>
</g>
</g>
<!-- state_0&#45;&gt;state_0 -->
<g id="edge1" class="edge"><title>state_0&#45;&gt;state_0</title>
<path fill="none" stroke="black" d="M774.17,-500.746C784.796,-498.635 792.098,-493.72 792.098,-486 792.098,-480.934 788.953,-477.076 783.788,-474.425"/>
<polygon fill="black" stroke="black" points="784.763,-471.061 774.17,-471.254 782.571,-477.709 784.763,-471.061"/>
<text text-anchor="middle" x="845.098" y="-482.3" font-family="Times New Roman,serif" font-size="14.00"> &#160;&#160;swipe(&quot;Right&quot;) &#160;&#160;</text>
</g>
<!-- state_0&#45;&gt;state_0 -->
<g id="edge2" class="edge"><title>state_0&#45;&gt;state_0</title>
<path fill="none" stroke="black" d="M774.211,-514.524C830.002,-523.648 898.098,-514.14 898.098,-486 898.098,-459.509 837.748,-449.53 784.129,-456.064"/>
<polygon fill="black" stroke="black" points="783.618,-452.601 774.211,-457.476 784.605,-459.531 783.618,-452.601"/>
<text text-anchor="middle" x="947.598" y="-482.3" font-family="Times New Roman,serif" font-size="14.00"> &#160;&#160;swipe(&quot;Left&quot;) &#160;&#160;</text>
</g>
<!-- state_6 -->
<g id="node2" class="node"><title>state_6</title>
<g id="a_node2"><a xlink:href="6.png" xlink:title="&lt;TABLE&gt;">
<polygon fill="none" stroke="black" points="912.098,-290 782.098,-290 782.098,-0 912.098,-0 912.098,-290"/>
<text text-anchor="start" x="827.098" y="-278.8" font-family="Times New Roman,serif" font-size="14.00">state_6</text>
<text text-anchor="start" x="816.598" y="-263.8" font-family="Times New Roman,serif" font-size="14.00">incoming:3</text>
<text text-anchor="start" x="817.598" y="-248.8" font-family="Times New Roman,serif" font-size="14.00">outgoing:6</text>
<text text-anchor="start" x="829.098" y="-233.8" font-family="Times New Roman,serif" font-size="14.00">loop:2</text>
<image xlink:href="6.png" width="130px" height="230px" preserveAspectRatio="xMinYMin meet" x="782.098" y="-230"/>
</a>
</g>
</g>
<!-- state_0&#45;&gt;state_6 -->
<g id="edge3" class="edge"><title>state_0&#45;&gt;state_6</title>
<path fill="none" stroke="black" d="M644.052,-450.068C590.217,-416.275 527.325,-362.328 559.098,-308 604.645,-230.122 702.919,-186.791 771.949,-164.952"/>
<polygon fill="black" stroke="black" points="773.384,-168.172 781.911,-161.884 771.324,-161.482 773.384,-168.172"/>
<text text-anchor="middle" x="623.098" y="-311.8" font-family="Times New Roman,serif" font-size="14.00"> &#160;&#160;press(&quot;MenuKey&quot;) &#160;&#160;</text>
</g>
<!-- activity_1 -->
<g id="node3" class="node"><title>activity_1</title>
<ellipse fill="none" stroke="red" cx="228.098" cy="-145" rx="46.2923" ry="18"/>
<text text-anchor="middle" x="228.098" y="-141.3" font-family="Times New Roman,serif" font-size="14.00" fill="red">activity_1</text>
</g>
<!-- state_0&#45;&gt;activity_1 -->
<g id="edge4" class="edge"><title>state_0&#45;&gt;activity_1</title>
<path fill="none" stroke="red" d="M644.064,-479.905C486.547,-466.079 91.737,-422.045 13.0982,-323 -44.5625,-250.377 104.858,-187.221 183.432,-160.111"/>
<polygon fill="red" stroke="red" points="184.757,-163.358 193.104,-156.832 182.509,-156.728 184.757,-163.358"/>
<text text-anchor="middle" x="109.598" y="-311.8" font-family="Times New Roman,serif" font-size="14.00" fill="red"> &#160;&#160;click(&quot;104年三四月中獎號碼&quot;) &#160;&#160;</text>
</g>
<!-- state_0&#45;&gt;activity_1 -->
<g id="edge5" class="edge"><title>state_0&#45;&gt;activity_1</title>
<path fill="none" stroke="red" d="M643.84,-485.081C536.561,-481.248 325.263,-456.155 229.098,-323 197.029,-278.596 209.132,-210.22 219.443,-172.779"/>
<polygon fill="red" stroke="red" points="222.831,-173.665 222.266,-163.085 216.11,-171.708 222.831,-173.665"/>
<text text-anchor="middle" x="323.098" y="-311.8" font-family="Times New Roman,serif" font-size="14.00" fill="red"> &#160;&#160;click(&quot;104年1~2月中獎號碼&quot;) &#160;&#160;</text>
</g>
<!-- final -->
<g id="node4" class="node"><title>final</title>
<image xlink:href="-2.png" width="50px" height="50px" preserveAspectRatio="xMinYMin meet" x="1259.1" y="-170"/>
</g>
<!-- state_0&#45;&gt;final -->
<g id="edge6" class="edge"><title>state_0&#45;&gt;final</title>
<path fill="none" stroke="red" d="M774.393,-482.221C881.509,-474.191 1095.11,-443.095 1220.1,-323 1259.9,-284.761 1275.04,-219.929 1280.74,-180.242"/>
<polygon fill="red" stroke="red" points="1284.22,-180.612 1282.05,-170.242 1277.28,-179.702 1284.22,-180.612"/>
<text text-anchor="middle" x="1295.6" y="-311.8" font-family="Times New Roman,serif" font-size="14.00" fill="red"> &#160;&#160;press(&quot;BackKey&quot;) &#160;&#160;</text>
</g>
<!-- state_6&#45;&gt;state_0 -->
<g id="edge7" class="edge"><title>state_6&#45;&gt;state_0</title>
<path fill="none" stroke="black" d="M781.916,-202.765C754.165,-231.219 724.839,-268.092 710.098,-308 707.366,-315.398 705.171,-323.092 703.434,-330.947"/>
<polygon fill="black" stroke="black" points="699.957,-330.488 701.472,-340.974 706.827,-331.832 699.957,-330.488"/>
<text text-anchor="middle" x="767.598" y="-311.8" font-family="Times New Roman,serif" font-size="14.00"> &#160;&#160;click(&quot;index=0&quot;) &#160;&#160;</text>
</g>
<!-- state_6&#45;&gt;state_0 -->
<g id="edge8" class="edge"><title>state_6&#45;&gt;state_0</title>
<path fill="none" stroke="black" d="M835.386,-290.014C832.6,-301.349 829.212,-312.473 825.098,-323 814.239,-350.789 797.529,-378.242 780.145,-402.43"/>
<polygon fill="black" stroke="black" points="777.316,-400.369 774.231,-410.504 782.963,-404.505 777.316,-400.369"/>
<text text-anchor="middle" x="886.598" y="-311.8" font-family="Times New Roman,serif" font-size="14.00"> &#160;&#160;click(&quot;index=0&quot;) &#160;&#160;</text>
</g>
<!-- state_6&#45;&gt;state_0 -->
<g id="edge11" class="edge"><title>state_6&#45;&gt;state_0</title>
<path fill="none" stroke="black" d="M912.433,-203.293C943.465,-237.703 969.562,-282.521 948.098,-323 913.619,-388.023 840.072,-431.749 783.613,-457.218"/>
<polygon fill="black" stroke="black" points="782.089,-454.065 774.352,-461.303 784.914,-460.47 782.089,-454.065"/>
<text text-anchor="middle" x="1015.6" y="-311.8" font-family="Times New Roman,serif" font-size="14.00"> &#160;&#160;press(&quot;BackKey&quot;) &#160;&#160;</text>
</g>
<!-- state_6&#45;&gt;state_0 -->
<g id="edge12" class="edge"><title>state_6&#45;&gt;state_0</title>
<path fill="none" stroke="black" d="M912.418,-163.883C998.122,-190.788 1132.1,-246.765 1082.1,-323 1016.1,-423.613 872.659,-462.062 784.139,-476.524"/>
<polygon fill="black" stroke="black" points="783.493,-473.083 774.157,-478.092 784.579,-479.998 783.493,-473.083"/>
<text text-anchor="middle" x="1152.1" y="-311.8" font-family="Times New Roman,serif" font-size="14.00"> &#160;&#160;press(&quot;MenuKey&quot;) &#160;&#160;</text>
</g>
<!-- state_6&#45;&gt;state_6 -->
<g id="edge9" class="edge"><title>state_6&#45;&gt;state_6</title>
<path fill="none" stroke="black" d="M912.17,-159.746C922.796,-157.635 930.098,-152.72 930.098,-145 930.098,-139.934 926.953,-136.076 921.788,-133.425"/>
<polygon fill="black" stroke="black" points="922.763,-130.061 912.17,-130.254 920.571,-136.709 922.763,-130.061"/>
<text text-anchor="middle" x="983.098" y="-141.3" font-family="Times New Roman,serif" font-size="14.00"> &#160;&#160;swipe(&quot;Right&quot;) &#160;&#160;</text>
</g>
<!-- state_6&#45;&gt;state_6 -->
<g id="edge10" class="edge"><title>state_6&#45;&gt;state_6</title>
<path fill="none" stroke="black" d="M912.211,-173.524C968.002,-182.648 1036.1,-173.14 1036.1,-145 1036.1,-118.509 975.748,-108.53 922.129,-115.064"/>
<polygon fill="black" stroke="black" points="921.618,-111.601 912.211,-116.476 922.605,-118.531 921.618,-111.601"/>
<text text-anchor="middle" x="1085.6" y="-141.3" font-family="Times New Roman,serif" font-size="14.00"> &#160;&#160;swipe(&quot;Left&quot;) &#160;&#160;</text>
</g>
<!-- activity_1&#45;&gt;state_0 -->
<g id="edge13" class="edge"><title>activity_1&#45;&gt;state_0</title>
<path fill="none" stroke="red" d="M246.667,-161.563C284.687,-193.198 374.529,-266.771 454.098,-323 513.62,-365.062 583.659,-409.193 635.259,-440.754"/>
<polygon fill="red" stroke="red" points="633.664,-443.881 644.023,-446.102 637.31,-437.906 633.664,-443.881"/>
<text text-anchor="middle" x="502.098" y="-311.8" font-family="Times New Roman,serif" font-size="14.00" fill="red"> &#160;&#160;click(&quot;返回&quot;) &#160;&#160;</text>
</g>
</g>
</svg>
