<?xml version="1.0" encoding="UTF-8" standalone="no"?>
<!DOCTYPE svg PUBLIC "-//W3C//DTD SVG 1.1//EN"
 "http://www.w3.org/Graphics/SVG/1.1/DTD/svg11.dtd">
<!-- Generated by graphviz version 2.38.0 (20140413.2041)
 -->
<!-- Title: activity_1 Pages: 1 -->
<svg width="798pt" height="399pt"
 viewBox="0.00 0.00 798.49 399.00" xmlns="http://www.w3.org/2000/svg" xmlns:xlink="http://www.w3.org/1999/xlink">
<g id="graph0" class="graph" transform="scale(1 1) rotate(0) translate(4 395)">
<title>activity_1</title>
<polygon fill="white" stroke="none" points="-4,4 -4,-395 794.491,-395 794.491,4 -4,4"/>
<!-- state_1 -->
<g id="node1" class="node"><title>state_1</title>
<g id="a_node1"><a xlink:href="1.png" xlink:title="&lt;TABLE&gt;">
<polygon fill="none" stroke="black" points="403.491,-391 273.491,-391 273.491,-101 403.491,-101 403.491,-391"/>
<text text-anchor="start" x="318.491" y="-379.8" font-family="Times New Roman,serif" font-size="14.00">state_1</text>
<text text-anchor="start" x="307.991" y="-364.8" font-family="Times New Roman,serif" font-size="14.00">incoming:5</text>
<text text-anchor="start" x="308.991" y="-349.8" font-family="Times New Roman,serif" font-size="14.00">outgoing:6</text>
<text text-anchor="start" x="320.491" y="-334.8" font-family="Times New Roman,serif" font-size="14.00">loop:3</text>
<image xlink:href="1.png" width="130px" height="230px" preserveAspectRatio="xMinYMin meet" x="273.491" y="-331"/>
</a>
</g>
</g>
<!-- state_1&#45;&gt;state_1 -->
<g id="edge2" class="edge"><title>state_1&#45;&gt;state_1</title>
<path fill="none" stroke="black" d="M403.563,-255.831C414.188,-254.423 421.491,-251.146 421.491,-246 421.491,-242.703 418.494,-240.173 413.546,-238.411"/>
<polygon fill="black" stroke="black" points="414.086,-234.945 403.563,-236.169 412.553,-241.775 414.086,-234.945"/>
<text text-anchor="middle" x="474.491" y="-242.3" font-family="Times New Roman,serif" font-size="14.00"> &#160;&#160;swipe(&quot;Right&quot;) &#160;&#160;</text>
</g>
<!-- state_1&#45;&gt;state_1 -->
<g id="edge3" class="edge"><title>state_1&#45;&gt;state_1</title>
<path fill="none" stroke="black" d="M403.604,-265.016C459.394,-271.099 527.491,-264.76 527.491,-246 527.491,-228.376 467.391,-221.715 413.855,-226.016"/>
<polygon fill="black" stroke="black" points="413.231,-222.559 403.604,-226.984 413.889,-229.528 413.231,-222.559"/>
<text text-anchor="middle" x="576.991" y="-242.3" font-family="Times New Roman,serif" font-size="14.00"> &#160;&#160;swipe(&quot;Left&quot;) &#160;&#160;</text>
</g>
<!-- state_1&#45;&gt;state_1 -->
<g id="edge4" class="edge"><title>state_1&#45;&gt;state_1</title>
<path fill="none" stroke="black" d="M403.634,-270.517C490.417,-285.632 626.491,-277.46 626.491,-246 626.491,-215.738 500.585,-207.024 413.754,-219.858"/>
<polygon fill="black" stroke="black" points="412.952,-216.441 403.634,-221.483 414.062,-223.353 412.952,-216.441"/>
<text text-anchor="middle" x="690.491" y="-242.3" font-family="Times New Roman,serif" font-size="14.00"> &#160;&#160;press(&quot;MenuKey&quot;) &#160;&#160;</text>
</g>
<!-- activity_0 -->
<g id="node2" class="node"><title>activity_0</title>
<ellipse fill="none" stroke="red" cx="122.491" cy="-25" rx="46.2923" ry="18"/>
<text text-anchor="middle" x="122.491" y="-21.3" font-family="Times New Roman,serif" font-size="14.00" fill="red">activity_0</text>
</g>
<!-- state_1&#45;&gt;activity_0 -->
<g id="edge1" class="edge"><title>state_1&#45;&gt;activity_0</title>
<path fill="none" stroke="red" d="M273.215,-234.463C193.88,-217.778 63.3344,-176.941 4.49083,-83 -13.4694,-54.3274 29.2554,-39.7323 68.2218,-32.5348"/>
<polygon fill="red" stroke="red" points="69.2622,-35.908 78.532,-30.7777 68.0861,-29.0075 69.2622,-35.908"/>
<text text-anchor="middle" x="52.4908" y="-71.8" font-family="Times New Roman,serif" font-size="14.00" fill="red"> &#160;&#160;click(&quot;返回&quot;) &#160;&#160;</text>
</g>
<!-- final -->
<g id="node3" class="node"><title>final</title>
<image xlink:href="-2.png" width="50px" height="50px" preserveAspectRatio="xMinYMin meet" x="583.491" y="-50"/>
</g>
<!-- state_1&#45;&gt;final -->
<g id="edge5" class="edge"><title>state_1&#45;&gt;final</title>
<path fill="none" stroke="red" d="M403.895,-188.403C445.32,-153.056 500.35,-107.012 550.491,-68 558.356,-61.8807 566.982,-55.4758 575.121,-49.5641"/>
<polygon fill="red" stroke="red" points="577.309,-52.3014 583.375,-43.6147 573.216,-46.6229 577.309,-52.3014"/>
<text text-anchor="middle" x="598.491" y="-71.8" font-family="Times New Roman,serif" font-size="14.00" fill="red"> &#160;&#160;click(&quot;離開&quot;) &#160;&#160;</text>
</g>
<!-- state_1&#45;&gt;final -->
<g id="edge6" class="edge"><title>state_1&#45;&gt;final</title>
<path fill="none" stroke="red" d="M403.723,-231.618C477.426,-212.629 593.941,-170.016 646.491,-83 652.591,-72.8987 648.255,-62.0653 640.655,-52.5845"/>
<polygon fill="red" stroke="red" points="643.009,-49.9732 633.662,-44.9846 637.858,-54.7132 643.009,-49.9732"/>
<text text-anchor="middle" x="710.991" y="-71.8" font-family="Times New Roman,serif" font-size="14.00" fill="red"> &#160;&#160;press(&quot;BackKey&quot;) &#160;&#160;</text>
</g>
<!-- activity_0&#45;&gt;state_1 -->
<g id="edge7" class="edge"><title>activity_0&#45;&gt;state_1</title>
<path fill="none" stroke="red" d="M119.012,-43.1543C117.486,-54.9915 117.244,-70.7425 123.491,-83 153.157,-141.213 214.538,-184.158 264.149,-211.15"/>
<polygon fill="red" stroke="red" points="262.794,-214.393 273.265,-216.004 266.084,-208.215 262.794,-214.393"/>
<text text-anchor="middle" x="219.991" y="-71.8" font-family="Times New Roman,serif" font-size="14.00" fill="red"> &#160;&#160;click(&quot;104年三四月中獎號碼&quot;) &#160;&#160;</text>
</g>
<!-- activity_0&#45;&gt;state_1 -->
<g id="edge8" class="edge"><title>activity_0&#45;&gt;state_1</title>
<path fill="none" stroke="red" d="M167.22,-29.7621C218.126,-35.0212 296.784,-46.4449 316.491,-68 322.935,-75.0491 328.146,-82.9689 332.327,-91.4474"/>
<polygon fill="red" stroke="red" points="329.236,-93.1112 336.47,-100.852 335.642,-90.2895 329.236,-93.1112"/>
<text text-anchor="middle" x="419.491" y="-71.8" font-family="Times New Roman,serif" font-size="14.00" fill="red"> &#160;&#160;click(&quot;104年1~2月中獎號碼&quot;) &#160;&#160;</text>
</g>
</g>
</svg>
