<?xml version="1.0" encoding="UTF-8" standalone="no"?>
<!DOCTYPE svg PUBLIC "-//W3C//DTD SVG 1.1//EN"
 "http://www.w3.org/Graphics/SVG/1.1/DTD/svg11.dtd">
<!-- Generated by graphviz version 2.38.0 (20140413.2041)
 -->
<!-- Title: result Pages: 1 -->
<svg width="1026pt" height="321pt"
 viewBox="0.00 0.00 1026.00 321.00" xmlns="http://www.w3.org/2000/svg" xmlns:xlink="http://www.w3.org/1999/xlink">
<g id="graph0" class="graph" transform="scale(1 1) rotate(0) translate(4 317)">
<title>result</title>
<polygon fill="white" stroke="none" points="-4,4 -4,-317 1022,-317 1022,4 -4,4"/>
<!-- initial -->
<g id="node1" class="node"><title>initial</title>
<image xlink:href="-1.png" width="50px" height="50px" preserveAspectRatio="xMinYMin meet" x="0" y="-162.5"/>
</g>
<!-- activity_0 -->
<g id="node2" class="node"><title>activity_0</title>
<g id="a_node2"><a xlink:href="activity_0.svg" xlink:title="&lt;TABLE&gt;">
<polygon fill="none" stroke="black" points="217,-275 87,-275 87,-0 217,-0 217,-275"/>
<text text-anchor="start" x="124.5" y="-263.3" font-family="Times New Roman,serif" font-size="14.00">activity_0</text>
<text text-anchor="start" x="121.5" y="-248.3" font-family="Times New Roman,serif" font-size="14.00">incoming:1</text>
<text text-anchor="start" x="122.5" y="-233.3" font-family="Times New Roman,serif" font-size="14.00">outgoing:3</text>
<image xlink:href="0.png" width="130px" height="230px" preserveAspectRatio="xMinYMin meet" x="87" y="-229.5"/>
</a>
</g>
</g>
<!-- initial&#45;&gt;activity_0 -->
<g id="edge1" class="edge"><title>initial&#45;&gt;activity_0</title>
<path fill="none" stroke="black" d="M50.1013,-137.5C57.9994,-137.5 67.2332,-137.5 76.8484,-137.5"/>
<polygon fill="black" stroke="black" points="76.9667,-141 86.9666,-137.5 76.9666,-134 76.9667,-141"/>
</g>
<!-- activity_1 -->
<g id="node3" class="node"><title>activity_1</title>
<g id="a_node3"><a xlink:href="activity_1.svg" xlink:title="&lt;TABLE&gt;">
<polygon fill="none" stroke="black" points="694,-313 564,-313 564,-38 694,-38 694,-313"/>
<text text-anchor="start" x="601.5" y="-301.3" font-family="Times New Roman,serif" font-size="14.00">activity_1</text>
<text text-anchor="start" x="598.5" y="-286.3" font-family="Times New Roman,serif" font-size="14.00">incoming:2</text>
<text text-anchor="start" x="599.5" y="-271.3" font-family="Times New Roman,serif" font-size="14.00">outgoing:3</text>
<image xlink:href="1.png" width="130px" height="230px" preserveAspectRatio="xMinYMin meet" x="564" y="-267.5"/>
</a>
</g>
</g>
<!-- activity_0&#45;&gt;activity_1 -->
<g id="edge2" class="edge"><title>activity_0&#45;&gt;activity_1</title>
<path fill="none" stroke="black" d="M217.132,-167.655C223.078,-169.599 229.09,-171.268 235,-172.5 343.992,-195.222 473.708,-190.197 553.448,-183.565"/>
<polygon fill="black" stroke="black" points="554.218,-187.012 563.88,-182.664 553.616,-180.038 554.218,-187.012"/>
<text text-anchor="middle" x="372.5" y="-193.3" font-family="Times New Roman,serif" font-size="14.00"> &#160;&#160;&lt;a0.s0,click(&quot;104年三四月中獎號碼&quot;),a1.s1&gt; &#160;&#160;</text>
</g>
<!-- activity_0&#45;&gt;activity_1 -->
<g id="edge3" class="edge"><title>activity_0&#45;&gt;activity_1</title>
<path fill="none" stroke="black" d="M217.058,-137.685C288.674,-138.515 407.995,-141.763 510,-153.5 524.298,-155.145 539.469,-157.504 554.002,-160.071"/>
<polygon fill="black" stroke="black" points="553.478,-163.533 563.943,-161.876 554.729,-156.646 553.478,-163.533"/>
<text text-anchor="middle" x="372.5" y="-157.3" font-family="Times New Roman,serif" font-size="14.00"> &#160;&#160;&lt;a0.s0,click(&quot;104年1~2月中獎號碼&quot;),a1.s1&gt; &#160;&#160;</text>
</g>
<!-- final -->
<g id="node4" class="node"><title>final</title>
<image xlink:href="-2.png" width="50px" height="50px" preserveAspectRatio="xMinYMin meet" x="968" y="-162.5"/>
</g>
<!-- activity_0&#45;&gt;final -->
<g id="edge4" class="edge"><title>activity_0&#45;&gt;final</title>
<path fill="none" stroke="black" d="M217.123,-105.385C323.719,-56.1104 544.059,28.2798 730,-13.5 817.871,-33.244 910.928,-85.9838 958.976,-115.936"/>
<polygon fill="black" stroke="black" points="957.365,-119.058 967.691,-121.429 961.097,-113.136 957.365,-119.058"/>
<text text-anchor="middle" x="629" y="-17.3" font-family="Times New Roman,serif" font-size="14.00"> &#160;&#160;&lt;a0.s0,press(&quot;BackKey&quot;),final&gt; &#160;&#160;</text>
</g>
<!-- activity_1&#45;&gt;activity_0 -->
<g id="edge5" class="edge"><title>activity_1&#45;&gt;activity_0</title>
<path fill="none" stroke="black" d="M563.705,-138.719C546.766,-130.8 528.14,-123.586 510,-119.5 390.765,-92.6425 356.51,-106.32 235,-119.5 232.464,-119.775 229.892,-120.097 227.3,-120.457"/>
<polygon fill="black" stroke="black" points="226.583,-117.026 217.241,-122.024 227.66,-123.943 226.583,-117.026"/>
<text text-anchor="middle" x="372.5" y="-123.3" font-family="Times New Roman,serif" font-size="14.00"> &#160;&#160;&lt;a1.s1,click(&quot;返回&quot;),a0.s0&gt; &#160;&#160;</text>
</g>
<!-- activity_1&#45;&gt;final -->
<g id="edge6" class="edge"><title>activity_1&#45;&gt;final</title>
<path fill="none" stroke="black" d="M694.232,-176.607C759.411,-176.448 862.842,-172.653 950,-153.5 952.786,-152.888 955.634,-152.124 958.467,-151.264"/>
<polygon fill="black" stroke="black" points="959.595,-154.578 967.943,-148.054 957.348,-147.948 959.595,-154.578"/>
<text text-anchor="middle" x="849" y="-179.3" font-family="Times New Roman,serif" font-size="14.00"> &#160;&#160;&lt;a1.s1,click(&quot;離開&quot;),final&gt; &#160;&#160;</text>
</g>
<!-- activity_1&#45;&gt;final -->
<g id="edge7" class="edge"><title>activity_1&#45;&gt;final</title>
<path fill="none" stroke="black" d="M694.205,-148.845C711.382,-142.924 730.143,-137.514 748,-134.5 821.983,-122.013 910.382,-128.239 957.841,-133.263"/>
<polygon fill="black" stroke="black" points="957.559,-136.753 967.883,-134.374 958.328,-129.795 957.559,-136.753"/>
<text text-anchor="middle" x="849" y="-138.3" font-family="Times New Roman,serif" font-size="14.00"> &#160;&#160;&lt;a1.s1,press(&quot;BackKey&quot;),final&gt; &#160;&#160;</text>
</g>
</g>
</svg>
