<?xml version="1.0" encoding="UTF-8" standalone="no"?>
<!DOCTYPE svg PUBLIC "-//W3C//DTD SVG 1.1//EN"
 "http://www.w3.org/Graphics/SVG/1.1/DTD/svg11.dtd">
<!-- Generated by graphviz version 2.38.0 (20140413.2041)
 -->
<!-- Title: g Pages: 1 -->
<svg width="1407pt" height="823pt"
 viewBox="0.00 0.00 1407.47 823.00" xmlns="http://www.w3.org/2000/svg" xmlns:xlink="http://www.w3.org/1999/xlink">
<g id="graph0" class="graph" transform="scale(1 1) rotate(0) translate(4 819)">
<title>g</title>
<polygon fill="white" stroke="none" points="-4,4 -4,-819 1403.47,-819 1403.47,4 -4,4"/>
<text text-anchor="middle" x="699.733" y="-7.8" font-family="Times New Roman,serif" font-size="14.00"> &#160;&#160;activity_2 &#160;&#160;</text>
<!-- state_0 -->
<g id="node1" class="node"><title>state_0</title>
<g id="a_node1"><a xlink:href="0.png">
<polygon fill="none" stroke="black" points="774.467,-815 644.467,-815 644.467,-585 774.467,-585 774.467,-815"/>
<image xlink:href="0.png" width="130px" height="230px" preserveAspectRatio="xMinYMin meet" x="644.467" y="-815"/>
</a>
</g>
</g>
<!-- state_0&#45;&gt;state_0 -->
<g id="edge1" class="edge"><title>state_0&#45;&gt;state_0</title>
<path fill="none" stroke="black" d="M774.539,-712.144C785.164,-710.405 792.467,-706.357 792.467,-700 792.467,-695.927 789.47,-692.802 784.522,-690.625"/>
<polygon fill="black" stroke="black" points="785.11,-687.156 774.539,-687.856 783.239,-693.902 785.11,-687.156"/>
<text text-anchor="middle" x="845.467" y="-696.3" font-family="Times New Roman,serif" font-size="14.00"> &#160;&#160;swipe(&quot;Right&quot;) &#160;&#160;</text>
</g>
<!-- state_0&#45;&gt;state_0 -->
<g id="edge2" class="edge"><title>state_0&#45;&gt;state_0</title>
<path fill="none" stroke="black" d="M774.58,-723.491C830.37,-731.004 898.467,-723.174 898.467,-700 898.467,-678.229 838.367,-670 784.831,-675.313"/>
<polygon fill="black" stroke="black" points="784.107,-671.874 774.58,-676.509 784.918,-678.827 784.107,-671.874"/>
<text text-anchor="middle" x="947.967" y="-696.3" font-family="Times New Roman,serif" font-size="14.00"> &#160;&#160;swipe(&quot;Left&quot;) &#160;&#160;</text>
</g>
<!-- state_6 -->
<g id="node2" class="node"><title>state_6</title>
<g id="a_node2"><a xlink:href="6.png">
<polygon fill="none" stroke="black" points="912.467,-534 782.467,-534 782.467,-304 912.467,-304 912.467,-534"/>
<image xlink:href="6.png" width="130px" height="230px" preserveAspectRatio="xMinYMin meet" x="782.467" y="-534"/>
</a>
</g>
</g>
<!-- state_0&#45;&gt;state_6 -->
<g id="edge3" class="edge"><title>state_0&#45;&gt;state_6</title>
<path fill="none" stroke="black" d="M644.201,-670.096C587.714,-641.204 520.726,-595.007 559.467,-552 585.189,-523.446 696.704,-550.386 731.467,-534 746.839,-526.754 761.395,-516.613 774.669,-505.34"/>
<polygon fill="black" stroke="black" points="777.145,-507.823 782.333,-498.585 772.517,-502.572 777.145,-507.823"/>
<text text-anchor="middle" x="623.467" y="-555.8" font-family="Times New Roman,serif" font-size="14.00"> &#160;&#160;press(&quot;MenuKey&quot;) &#160;&#160;</text>
</g>
<!-- state_1 -->
<g id="node3" class="node"><title>state_1</title>
<g id="a_node3"><a xlink:href="1.png">
<polygon fill="none" stroke="black" points="335.467,-534 205.467,-534 205.467,-304 335.467,-304 335.467,-534"/>
<image xlink:href="1.png" width="130px" height="230px" preserveAspectRatio="xMinYMin meet" x="205.467" y="-534"/>
</a>
</g>
</g>
<!-- state_0&#45;&gt;state_1 -->
<g id="edge4" class="edge"><title>state_0&#45;&gt;state_1</title>
<path fill="none" stroke="black" d="M644.309,-696.808C486.973,-690.007 93.3832,-663.498 13.4668,-567 -44.5591,-496.935 100.486,-453.488 195.549,-433.343"/>
<polygon fill="black" stroke="black" points="196.362,-436.749 205.443,-431.291 194.94,-429.895 196.362,-436.749"/>
<text text-anchor="middle" x="109.967" y="-555.8" font-family="Times New Roman,serif" font-size="14.00"> &#160;&#160;click(&quot;104年三四月中獎號碼&quot;) &#160;&#160;</text>
</g>
<!-- state_0&#45;&gt;state_1 -->
<g id="edge5" class="edge"><title>state_0&#45;&gt;state_1</title>
<path fill="none" stroke="black" d="M644.362,-690.812C525.251,-674.352 279.825,-633.076 229.467,-567 224.101,-559.959 220.834,-552.251 219.209,-544.171"/>
<polygon fill="black" stroke="black" points="222.674,-543.665 218.012,-534.151 215.723,-544.495 222.674,-543.665"/>
<text text-anchor="middle" x="323.467" y="-555.8" font-family="Times New Roman,serif" font-size="14.00"> &#160;&#160;click(&quot;104年1~2月中獎號碼&quot;) &#160;&#160;</text>
</g>
<!-- state_final -->
<g id="node4" class="node"><title>state_final</title>
<g id="a_node4"><a xlink:href="-2.png">
<polygon fill="none" stroke="black" points="454.467,-253 324.467,-253 324.467,-23 454.467,-23 454.467,-253"/>
<image xlink:href="-2.png" width="76px" height="74px" preserveAspectRatio="xMinYMin meet" x="351.467" y="-175"/>
</a>
</g>
</g>
<!-- state_0&#45;&gt;state_final -->
<g id="edge6" class="edge"><title>state_0&#45;&gt;state_final</title>
<path fill="none" stroke="black" d="M774.574,-692.044C900.013,-677.156 1167.67,-637.681 1222.47,-567 1235.53,-550.151 1364.27,-500.411 1162.47,-304 1063.1,-207.285 638.865,-160.44 464.626,-145.001"/>
<polygon fill="black" stroke="black" points="464.782,-141.502 454.515,-144.116 464.171,-148.475 464.782,-141.502"/>
<text text-anchor="middle" x="1336.97" y="-415.3" font-family="Times New Roman,serif" font-size="14.00"> &#160;&#160;press(&quot;BackKey&quot;) &#160;&#160;</text>
</g>
<!-- state_6&#45;&gt;state_0 -->
<g id="edge7" class="edge"><title>state_6&#45;&gt;state_0</title>
<path fill="none" stroke="black" d="M782.272,-485.6C765.895,-501.652 748.211,-518.629 731.467,-534 722.411,-542.313 715.641,-540.849 710.467,-552 707.068,-559.324 704.494,-567.083 702.593,-575.057"/>
<polygon fill="black" stroke="black" points="699.159,-574.379 700.597,-584.876 706.019,-575.773 699.159,-574.379"/>
<text text-anchor="middle" x="767.967" y="-555.8" font-family="Times New Roman,serif" font-size="14.00"> &#160;&#160;click(&quot;index=0&quot;) &#160;&#160;</text>
</g>
<!-- state_6&#45;&gt;state_0 -->
<g id="edge8" class="edge"><title>state_6&#45;&gt;state_0</title>
<path fill="none" stroke="black" d="M837.032,-534.278C834.038,-545.602 830.249,-556.702 825.467,-567 814.633,-590.328 798.354,-612.608 781.391,-631.999"/>
<polygon fill="black" stroke="black" points="778.679,-629.781 774.611,-639.564 783.892,-634.453 778.679,-629.781"/>
<text text-anchor="middle" x="888.967" y="-555.8" font-family="Times New Roman,serif" font-size="14.00"> &#160;&#160;click(&quot;index=0&quot;) &#160;&#160;</text>
</g>
<!-- state_6&#45;&gt;state_0 -->
<g id="edge11" class="edge"><title>state_6&#45;&gt;state_0</title>
<path fill="none" stroke="black" d="M912.766,-466.448C944.232,-494.784 971.116,-532.147 950.467,-567 914.781,-627.234 840.806,-661.788 784.171,-680.31"/>
<polygon fill="black" stroke="black" points="783.003,-677.008 774.527,-683.365 785.117,-683.682 783.003,-677.008"/>
<text text-anchor="middle" x="1017.97" y="-555.8" font-family="Times New Roman,serif" font-size="14.00"> &#160;&#160;press(&quot;BackKey&quot;) &#160;&#160;</text>
</g>
<!-- state_6&#45;&gt;state_0 -->
<g id="edge12" class="edge"><title>state_6&#45;&gt;state_0</title>
<path fill="none" stroke="black" d="M912.486,-432.7C998.726,-452.582 1134.55,-496.27 1084.47,-567 1016.58,-662.863 873.219,-689.605 784.738,-696.762"/>
<polygon fill="black" stroke="black" points="784.473,-693.272 774.76,-697.505 784.993,-700.253 784.473,-693.272"/>
<text text-anchor="middle" x="1154.47" y="-555.8" font-family="Times New Roman,serif" font-size="14.00"> &#160;&#160;press(&quot;MenuKey&quot;) &#160;&#160;</text>
</g>
<!-- state_6&#45;&gt;state_6 -->
<g id="edge9" class="edge"><title>state_6&#45;&gt;state_6</title>
<path fill="none" stroke="black" d="M912.539,-431.144C923.164,-429.405 930.467,-425.357 930.467,-419 930.467,-414.927 927.47,-411.802 922.522,-409.625"/>
<polygon fill="black" stroke="black" points="923.11,-406.156 912.539,-406.856 921.239,-412.902 923.11,-406.156"/>
<text text-anchor="middle" x="983.467" y="-415.3" font-family="Times New Roman,serif" font-size="14.00"> &#160;&#160;swipe(&quot;Right&quot;) &#160;&#160;</text>
</g>
<!-- state_6&#45;&gt;state_6 -->
<g id="edge10" class="edge"><title>state_6&#45;&gt;state_6</title>
<path fill="none" stroke="black" d="M912.58,-442.491C968.37,-450.004 1036.47,-442.174 1036.47,-419 1036.47,-397.229 976.367,-389 922.831,-394.313"/>
<polygon fill="black" stroke="black" points="922.107,-390.874 912.58,-395.509 922.918,-397.827 922.107,-390.874"/>
<text text-anchor="middle" x="1085.97" y="-415.3" font-family="Times New Roman,serif" font-size="14.00"> &#160;&#160;swipe(&quot;Left&quot;) &#160;&#160;</text>
</g>
<!-- state_1&#45;&gt;state_0 -->
<g id="edge13" class="edge"><title>state_1&#45;&gt;state_0</title>
<path fill="none" stroke="black" d="M335.813,-479.058C368.884,-507.439 410.424,-540.875 450.467,-567 509.779,-605.697 581.888,-641.632 634.943,-666.206"/>
<polygon fill="black" stroke="black" points="633.739,-669.505 644.286,-670.507 636.667,-663.146 633.739,-669.505"/>
<text text-anchor="middle" x="498.467" y="-555.8" font-family="Times New Roman,serif" font-size="14.00"> &#160;&#160;click(&quot;返回&quot;) &#160;&#160;</text>
</g>
<!-- state_1&#45;&gt;state_1 -->
<g id="edge14" class="edge"><title>state_1&#45;&gt;state_1</title>
<path fill="none" stroke="black" d="M335.539,-427.096C346.164,-425.937 353.467,-423.238 353.467,-419 353.467,-416.285 350.47,-414.202 345.522,-412.75"/>
<polygon fill="black" stroke="black" points="346.008,-409.281 335.539,-410.904 344.735,-416.164 346.008,-409.281"/>
<text text-anchor="middle" x="406.467" y="-415.3" font-family="Times New Roman,serif" font-size="14.00"> &#160;&#160;swipe(&quot;Right&quot;) &#160;&#160;</text>
</g>
<!-- state_1&#45;&gt;state_1 -->
<g id="edge15" class="edge"><title>state_1&#45;&gt;state_1</title>
<path fill="none" stroke="black" d="M335.58,-434.66C391.37,-439.669 459.467,-434.449 459.467,-419 459.467,-404.486 399.367,-399 345.831,-402.542"/>
<polygon fill="black" stroke="black" points="345.278,-399.075 335.58,-403.34 345.821,-406.053 345.278,-399.075"/>
<text text-anchor="middle" x="508.967" y="-415.3" font-family="Times New Roman,serif" font-size="14.00"> &#160;&#160;swipe(&quot;Left&quot;) &#160;&#160;</text>
</g>
<!-- state_1&#45;&gt;state_1 -->
<g id="edge16" class="edge"><title>state_1&#45;&gt;state_1</title>
<path fill="none" stroke="black" d="M335.61,-439.19C422.393,-451.638 558.467,-444.908 558.467,-419 558.467,-394.079 432.561,-386.902 345.73,-397.471"/>
<polygon fill="black" stroke="black" points="345.064,-394.028 335.61,-398.81 345.982,-400.968 345.064,-394.028"/>
<text text-anchor="middle" x="622.467" y="-415.3" font-family="Times New Roman,serif" font-size="14.00"> &#160;&#160;press(&quot;MenuKey&quot;) &#160;&#160;</text>
</g>
<!-- state_1&#45;&gt;state_final -->
<g id="edge17" class="edge"><title>state_1&#45;&gt;state_final</title>
<path fill="none" stroke="black" d="M263.132,-303.702C264.805,-292.44 267.472,-281.358 271.467,-271 281.417,-245.202 298.944,-221.236 317.494,-201"/>
<polygon fill="black" stroke="black" points="320.048,-203.394 324.363,-193.717 314.956,-198.591 320.048,-203.394"/>
<text text-anchor="middle" x="319.467" y="-274.8" font-family="Times New Roman,serif" font-size="14.00"> &#160;&#160;click(&quot;離開&quot;) &#160;&#160;</text>
</g>
<!-- state_1&#45;&gt;state_final -->
<g id="edge18" class="edge"><title>state_1&#45;&gt;state_final</title>
<path fill="none" stroke="black" d="M335.672,-342.212C347.954,-324.693 359.444,-305.455 367.467,-286 370.509,-278.622 373.138,-270.882 375.408,-262.974"/>
<polygon fill="black" stroke="black" points="378.804,-263.823 378.003,-253.258 372.041,-262.016 378.804,-263.823"/>
<text text-anchor="middle" x="433.967" y="-274.8" font-family="Times New Roman,serif" font-size="14.00"> &#160;&#160;press(&quot;BackKey&quot;) &#160;&#160;</text>
</g>
</g>
</svg>
