<?xml version="1.0" encoding="UTF-8" standalone="no"?>
<!DOCTYPE svg PUBLIC "-//W3C//DTD SVG 1.1//EN"
 "http://www.w3.org/Graphics/SVG/1.1/DTD/svg11.dtd">
<!-- Generated by graphviz version 2.38.0 (20140413.2041)
 -->
<!-- Title: result Pages: 1 -->
<svg width="561pt" height="283pt"
 viewBox="0.00 0.00 561.29 283.00" xmlns="http://www.w3.org/2000/svg" xmlns:xlink="http://www.w3.org/1999/xlink">
<g id="graph0" class="graph" transform="scale(1 1) rotate(0) translate(4 279)">
<title>result</title>
<polygon fill="white" stroke="none" points="-4,4 -4,-279 557.292,-279 557.292,4 -4,4"/>
<!-- initial -->
<g id="node1" class="node"><title>initial</title>
<image xlink:href="-1.png" width="50px" height="50px" preserveAspectRatio="xMinYMin meet" x="0" y="-162.5"/>
</g>
<!-- activity_0 -->
<g id="node2" class="node"><title>activity_0</title>
<g id="a_node2"><a xlink:href="activity_0.svg" xlink:title="&lt;TABLE&gt;">
<polygon fill="none" stroke="black" points="217,-275 87,-275 87,-0 217,-0 217,-275"/>
<text text-anchor="start" x="124.5" y="-263.3" font-family="Times New Roman,serif" font-size="14.00">activity_0</text>
<text text-anchor="start" x="121.5" y="-248.3" font-family="Times New Roman,serif" font-size="14.00">incoming:0</text>
<text text-anchor="start" x="122.5" y="-233.3" font-family="Times New Roman,serif" font-size="14.00">outgoing:6</text>
<image xlink:href="0.png" width="130px" height="230px" preserveAspectRatio="xMinYMin meet" x="87" y="-229.5"/>
</a>
</g>
</g>
<!-- initial&#45;&gt;activity_0 -->
<g id="edge1" class="edge"><title>initial&#45;&gt;activity_0</title>
<path fill="none" stroke="black" d="M50.1013,-137.5C57.9994,-137.5 67.2332,-137.5 76.8484,-137.5"/>
<polygon fill="black" stroke="black" points="76.9667,-141 86.9666,-137.5 76.9666,-134 76.9667,-141"/>
</g>
<!-- final -->
<g id="node3" class="node"><title>final</title>
<image xlink:href="-2.png" width="50px" height="50px" preserveAspectRatio="xMinYMin meet" x="482.146" y="-200.5"/>
</g>
<!-- activity_0&#45;&gt;final -->
<g id="edge2" class="edge"><title>activity_0&#45;&gt;final</title>
<path fill="none" stroke="black" d="M217.381,-201.778C223.049,-205.214 228.943,-208.195 235,-210.5 321.397,-243.386 353.5,-233.645 443,-210.5 453.284,-207.84 463.68,-203.106 472.986,-197.962"/>
<polygon fill="black" stroke="black" points="475.029,-200.821 481.884,-192.743 471.488,-194.783 475.029,-200.821"/>
<text text-anchor="middle" x="339" y="-235.3" font-family="Times New Roman,serif" font-size="14.00"> &#160;&#160;&lt;a0.s0,press(&quot;BackKey&quot;),final&gt; &#160;&#160;</text>
</g>
<!-- activity_0&#45;&gt;final -->
<g id="edge3" class="edge"><title>activity_0&#45;&gt;final</title>
<path fill="none" stroke="black" d="M217.137,-167.633C223.082,-169.582 229.092,-171.258 235,-172.5 318.614,-190.081 419.957,-184.241 471.862,-179.353"/>
<polygon fill="black" stroke="black" points="472.257,-182.831 481.864,-178.364 471.568,-175.865 472.257,-182.831"/>
<text text-anchor="middle" x="339" y="-187.3" font-family="Times New Roman,serif" font-size="14.00"> &#160;&#160;&lt;a0.s3,press(&quot;BackKey&quot;),final&gt; &#160;&#160;</text>
</g>
<!-- activity_0&#45;&gt;final -->
<g id="edge5" class="edge"><title>activity_0&#45;&gt;final</title>
<path fill="none" stroke="black" d="M217.285,-135.927C276.479,-135.682 366.451,-138.366 443,-153.5 452.805,-155.438 463.157,-158.561 472.579,-161.853"/>
<polygon fill="black" stroke="black" points="471.405,-165.15 481.999,-165.301 473.812,-158.577 471.405,-165.15"/>
<text text-anchor="middle" x="339" y="-157.3" font-family="Times New Roman,serif" font-size="14.00"> &#160;&#160;&lt;a0.s6,press(&quot;BackKey&quot;),final&gt; &#160;&#160;</text>
</g>
<!-- activity_0&#45;&gt;final -->
<g id="edge7" class="edge"><title>activity_0&#45;&gt;final</title>
<path fill="none" stroke="black" d="M217.068,-117.311C277.495,-101.813 369.511,-87.5106 443,-116.5 457.039,-122.038 469.794,-132.332 480.107,-142.791"/>
<polygon fill="black" stroke="black" points="477.79,-145.439 487.168,-150.369 482.912,-140.667 477.79,-145.439"/>
<text text-anchor="middle" x="339" y="-120.3" font-family="Times New Roman,serif" font-size="14.00"> &#160;&#160;&lt;a0.s10,press(&quot;BackKey&quot;),final&gt; &#160;&#160;</text>
</g>
<!-- activity_1 -->
<g id="node4" class="node"><title>activity_1</title>
<ellipse fill="none" stroke="black" cx="507.146" cy="-61.5" rx="46.2923" ry="18"/>
<text text-anchor="middle" x="507.146" y="-57.8" font-family="Times New Roman,serif" font-size="14.00">activity_1</text>
</g>
<!-- activity_0&#45;&gt;activity_1 -->
<g id="edge4" class="edge"><title>activity_0&#45;&gt;activity_1</title>
<path fill="none" stroke="black" d="M217.073,-88.4074C222.935,-85.3375 228.95,-82.6314 235,-80.5 273.419,-66.9658 383.33,-63.045 450.838,-61.9266"/>
<polygon fill="black" stroke="black" points="450.937,-65.4256 460.883,-61.7756 450.832,-58.4264 450.937,-65.4256"/>
<text text-anchor="middle" x="339" y="-84.3" font-family="Times New Roman,serif" font-size="14.00"> &#160;&#160;&lt;a0.s5,click(&quot;給5星&quot;),a1.s30&gt; &#160;&#160;</text>
</g>
<!-- activity_0&#45;&gt;activity_1 -->
<g id="edge6" class="edge"><title>activity_0&#45;&gt;activity_1</title>
<path fill="none" stroke="black" d="M217.184,-53.0525C222.814,-48.9492 228.76,-45.357 235,-42.5 309.322,-8.47245 407.206,-29.1923 462.74,-46.1505"/>
<polygon fill="black" stroke="black" points="462.011,-49.5906 472.601,-49.2591 464.116,-42.9145 462.011,-49.5906"/>
<text text-anchor="middle" x="339" y="-46.3" font-family="Times New Roman,serif" font-size="14.00"> &#160;&#160;&lt;a0.s9,click(&quot;給5星&quot;),a1.s39&gt; &#160;&#160;</text>
</g>
</g>
</svg>
