<?xml version="1.0" encoding="UTF-8" standalone="no"?>
<!DOCTYPE svg PUBLIC "-//W3C//DTD SVG 1.1//EN"
 "http://www.w3.org/Graphics/SVG/1.1/DTD/svg11.dtd">
<!-- Generated by graphviz version 2.38.0 (20140413.2041)
 -->
<!-- Title: g Pages: 1 -->
<svg width="1932pt" height="2228pt"
 viewBox="0.00 0.00 1932.21 2228.00" xmlns="http://www.w3.org/2000/svg" xmlns:xlink="http://www.w3.org/1999/xlink">
<g id="graph0" class="graph" transform="scale(1 1) rotate(0) translate(4 2224)">
<title>g</title>
<polygon fill="white" stroke="none" points="-4,4 -4,-2224 1928.21,-2224 1928.21,4 -4,4"/>
<text text-anchor="middle" x="962.104" y="-7.8" font-family="Times New Roman,serif" font-size="14.00"> &#160;&#160;activity_1 &#160;&#160;</text>
<!-- state_0 -->
<g id="node1" class="node"><title>state_0</title>
<g id="a_node1"><a xlink:href="0.png">
<polygon fill="none" stroke="black" points="1404.21,-2220 1274.21,-2220 1274.21,-1990 1404.21,-1990 1404.21,-2220"/>
<image xlink:href="0.png" width="130px" height="230px" preserveAspectRatio="xMinYMin meet" x="1274.21" y="-2220"/>
</a>
</g>
</g>
<!-- state_0&#45;&gt;state_0 -->
<g id="edge1" class="edge"><title>state_0&#45;&gt;state_0</title>
<path fill="none" stroke="black" d="M1404.28,-2111.07C1414.91,-2110.2 1422.21,-2108.18 1422.21,-2105 1422.21,-2102.96 1419.21,-2101.4 1414.26,-2100.31"/>
<polygon fill="black" stroke="black" points="1414.67,-2096.84 1404.28,-2098.93 1413.71,-2103.77 1414.67,-2096.84"/>
<text text-anchor="middle" x="1479.71" y="-2101.3" font-family="Times New Roman,serif" font-size="14.00"> &#160;&#160;click(&quot;index=1&quot;) &#160;&#160;</text>
</g>
<!-- state_0&#45;&gt;state_0 -->
<g id="edge4" class="edge"><title>state_0&#45;&gt;state_0</title>
<path fill="none" stroke="black" d="M1404.39,-2116.59C1463.24,-2120.6 1537.21,-2116.74 1537.21,-2105 1537.21,-2093.92 1471.38,-2089.86 1414.52,-2092.8"/>
<polygon fill="black" stroke="black" points="1414.16,-2089.32 1404.39,-2093.41 1414.58,-2096.3 1414.16,-2089.32"/>
<text text-anchor="middle" x="1590.21" y="-2101.3" font-family="Times New Roman,serif" font-size="14.00"> &#160;&#160;swipe(&quot;Right&quot;) &#160;&#160;</text>
</g>
<!-- state_0&#45;&gt;state_0 -->
<g id="edge5" class="edge"><title>state_0&#45;&gt;state_0</title>
<path fill="none" stroke="black" d="M1404.51,-2119.88C1495.68,-2129.57 1643.21,-2124.61 1643.21,-2105 1643.21,-2086.1 1506.15,-2080.81 1414.61,-2089.13"/>
<polygon fill="black" stroke="black" points="1414.12,-2085.66 1404.51,-2090.12 1414.81,-2092.62 1414.12,-2085.66"/>
<text text-anchor="middle" x="1692.71" y="-2101.3" font-family="Times New Roman,serif" font-size="14.00"> &#160;&#160;swipe(&quot;Left&quot;) &#160;&#160;</text>
</g>
<!-- state_0&#45;&gt;state_0 -->
<g id="edge6" class="edge"><title>state_0&#45;&gt;state_0</title>
<path fill="none" stroke="black" d="M1404.3,-2122.59C1520.83,-2138.41 1742.21,-2132.55 1742.21,-2105 1742.21,-2078.23 1533.19,-2071.94 1414.44,-2086.11"/>
<polygon fill="black" stroke="black" points="1413.77,-2082.67 1404.3,-2087.41 1414.66,-2089.61 1413.77,-2082.67"/>
<text text-anchor="middle" x="1806.21" y="-2101.3" font-family="Times New Roman,serif" font-size="14.00"> &#160;&#160;press(&quot;MenuKey&quot;) &#160;&#160;</text>
</g>
<!-- state_2 -->
<g id="node2" class="node"><title>state_2</title>
<g id="a_node2"><a xlink:href="2.png">
<polygon fill="none" stroke="black" points="781.209,-1939 651.209,-1939 651.209,-1709 781.209,-1709 781.209,-1939"/>
<image xlink:href="2.png" width="130px" height="230px" preserveAspectRatio="xMinYMin meet" x="651.209" y="-1939"/>
</a>
</g>
</g>
<!-- state_0&#45;&gt;state_2 -->
<g id="edge2" class="edge"><title>state_0&#45;&gt;state_2</title>
<path fill="none" stroke="black" d="M1274.01,-2074.8C1157.38,-2022.57 913.776,-1913.48 790.733,-1858.37"/>
<polygon fill="black" stroke="black" points="791.923,-1855.07 781.366,-1854.18 789.062,-1861.46 791.923,-1855.07"/>
<text text-anchor="middle" x="1084.71" y="-1960.8" font-family="Times New Roman,serif" font-size="14.00"> &#160;&#160;click(&quot;index=1&quot;) &#160;&#160;</text>
</g>
<!-- state_9 -->
<g id="node6" class="node"><title>state_9</title>
<g id="a_node6"><a xlink:href="9.png">
<polygon fill="none" stroke="black" points="917.209,-815 787.209,-815 787.209,-585 917.209,-585 917.209,-815"/>
<image xlink:href="9.png" width="130px" height="230px" preserveAspectRatio="xMinYMin meet" x="787.209" y="-815"/>
</a>
</g>
</g>
<!-- state_0&#45;&gt;state_9 -->
<g id="edge3" class="edge"><title>state_0&#45;&gt;state_9</title>
<path fill="none" stroke="black" d="M1339.21,-1989.98C1339.21,-1939.43 1339.21,-1879.25 1339.21,-1825 1339.21,-1825 1339.21,-1825 1339.21,-980 1339.21,-927.72 1345.35,-904.711 1310.21,-866 1209.71,-755.281 1029.37,-718.79 927.543,-706.811"/>
<polygon fill="black" stroke="black" points="927.666,-703.303 917.337,-705.662 926.882,-710.259 927.666,-703.303"/>
<text text-anchor="middle" x="1396.71" y="-1398.8" font-family="Times New Roman,serif" font-size="14.00"> &#160;&#160;click(&quot;index=3&quot;) &#160;&#160;</text>
</g>
<!-- state_final -->
<g id="node8" class="node"><title>state_final</title>
<g id="a_node8"><a xlink:href="-2.png">
<polygon fill="none" stroke="black" points="587.209,-253 457.209,-253 457.209,-23 587.209,-23 587.209,-253"/>
<image xlink:href="-2.png" width="76px" height="74px" preserveAspectRatio="xMinYMin meet" x="484.209" y="-175"/>
</a>
</g>
</g>
<!-- state_0&#45;&gt;state_final -->
<g id="edge7" class="edge"><title>state_0&#45;&gt;state_final</title>
<path fill="none" stroke="black" d="M1404.22,-2020.8C1439.19,-1967.81 1475.21,-1895.99 1475.21,-1825 1475.21,-1825 1475.21,-1825 1475.21,-418 1475.21,-235.373 822.459,-163.936 597.407,-144.733"/>
<polygon fill="black" stroke="black" points="597.596,-141.237 587.337,-143.885 597.008,-148.212 597.596,-141.237"/>
<text text-anchor="middle" x="1537.71" y="-1117.8" font-family="Times New Roman,serif" font-size="14.00"> &#160;&#160;press(&quot;BackKey&quot;) &#160;&#160;</text>
</g>
<!-- state_2&#45;&gt;state_2 -->
<g id="edge9" class="edge"><title>state_2&#45;&gt;state_2</title>
<path fill="none" stroke="black" d="M781.281,-1830.07C791.906,-1829.2 799.209,-1827.18 799.209,-1824 799.209,-1821.96 796.212,-1820.4 791.264,-1819.31"/>
<polygon fill="black" stroke="black" points="791.667,-1815.84 781.281,-1817.93 790.705,-1822.77 791.667,-1815.84"/>
<text text-anchor="middle" x="852.209" y="-1820.3" font-family="Times New Roman,serif" font-size="14.00"> &#160;&#160;swipe(&quot;Right&quot;) &#160;&#160;</text>
</g>
<!-- state_2&#45;&gt;state_2 -->
<g id="edge10" class="edge"><title>state_2&#45;&gt;state_2</title>
<path fill="none" stroke="black" d="M781.322,-1835.75C837.113,-1839.5 905.209,-1835.59 905.209,-1824 905.209,-1813.11 845.109,-1809 791.573,-1811.66"/>
<polygon fill="black" stroke="black" points="791.101,-1808.18 781.322,-1812.25 791.509,-1815.17 791.101,-1808.18"/>
<text text-anchor="middle" x="954.709" y="-1820.3" font-family="Times New Roman,serif" font-size="14.00"> &#160;&#160;swipe(&quot;Left&quot;) &#160;&#160;</text>
</g>
<!-- state_2&#45;&gt;state_2 -->
<g id="edge11" class="edge"><title>state_2&#45;&gt;state_2</title>
<path fill="none" stroke="black" d="M781.352,-1839.14C868.135,-1848.48 1004.21,-1843.43 1004.21,-1824 1004.21,-1805.31 878.303,-1799.93 791.472,-1807.85"/>
<polygon fill="black" stroke="black" points="790.957,-1804.39 781.352,-1808.86 791.649,-1811.35 790.957,-1804.39"/>
<text text-anchor="middle" x="1066.71" y="-1820.3" font-family="Times New Roman,serif" font-size="14.00"> &#160;&#160;press(&quot;BackKey&quot;) &#160;&#160;</text>
</g>
<!-- state_2&#45;&gt;state_2 -->
<g id="edge12" class="edge"><title>state_2&#45;&gt;state_2</title>
<path fill="none" stroke="black" d="M781.578,-1841.48C900.5,-1857.44 1129.21,-1851.62 1129.21,-1824 1129.21,-1797.14 912.836,-1790.89 791.573,-1805.26"/>
<polygon fill="black" stroke="black" points="791.061,-1801.8 781.578,-1806.52 791.937,-1808.74 791.061,-1801.8"/>
<text text-anchor="middle" x="1193.21" y="-1820.3" font-family="Times New Roman,serif" font-size="14.00"> &#160;&#160;press(&quot;MenuKey&quot;) &#160;&#160;</text>
</g>
<!-- state_3 -->
<g id="node3" class="node"><title>state_3</title>
<g id="a_node3"><a xlink:href="3.png">
<polygon fill="none" stroke="black" points="161.209,-1658 31.2089,-1658 31.2089,-1428 161.209,-1428 161.209,-1658"/>
<image xlink:href="3.png" width="130px" height="230px" preserveAspectRatio="xMinYMin meet" x="31.2089" y="-1658"/>
</a>
</g>
</g>
<!-- state_2&#45;&gt;state_3 -->
<g id="edge8" class="edge"><title>state_2&#45;&gt;state_3</title>
<path fill="none" stroke="black" d="M651.03,-1793.67C534.977,-1741.45 293.244,-1632.67 170.77,-1577.55"/>
<polygon fill="black" stroke="black" points="172,-1574.27 161.445,-1573.36 169.128,-1580.65 172,-1574.27"/>
<text text-anchor="middle" x="451.709" y="-1679.8" font-family="Times New Roman,serif" font-size="14.00"> &#160;&#160;click(&quot;OK&quot;) &#160;&#160;</text>
</g>
<!-- state_3&#45;&gt;state_3 -->
<g id="edge13" class="edge"><title>state_3&#45;&gt;state_3</title>
<path fill="none" stroke="black" d="M161.281,-1549.07C171.906,-1548.2 179.209,-1546.18 179.209,-1543 179.209,-1540.96 176.212,-1539.4 171.264,-1538.31"/>
<polygon fill="black" stroke="black" points="171.667,-1534.84 161.281,-1536.93 170.705,-1541.77 171.667,-1534.84"/>
<text text-anchor="middle" x="236.709" y="-1539.3" font-family="Times New Roman,serif" font-size="14.00"> &#160;&#160;click(&quot;index=1&quot;) &#160;&#160;</text>
</g>
<!-- state_3&#45;&gt;state_3 -->
<g id="edge15" class="edge"><title>state_3&#45;&gt;state_3</title>
<path fill="none" stroke="black" d="M161.39,-1554.59C220.242,-1558.6 294.209,-1554.74 294.209,-1543 294.209,-1531.92 228.383,-1527.86 171.519,-1530.8"/>
<polygon fill="black" stroke="black" points="171.163,-1527.32 161.39,-1531.41 171.581,-1534.3 171.163,-1527.32"/>
<text text-anchor="middle" x="347.209" y="-1539.3" font-family="Times New Roman,serif" font-size="14.00"> &#160;&#160;swipe(&quot;Right&quot;) &#160;&#160;</text>
</g>
<!-- state_3&#45;&gt;state_3 -->
<g id="edge16" class="edge"><title>state_3&#45;&gt;state_3</title>
<path fill="none" stroke="black" d="M161.513,-1557.88C252.681,-1567.57 400.209,-1562.61 400.209,-1543 400.209,-1524.1 263.149,-1518.81 171.607,-1527.13"/>
<polygon fill="black" stroke="black" points="171.122,-1523.66 161.513,-1528.12 171.808,-1530.62 171.122,-1523.66"/>
<text text-anchor="middle" x="449.709" y="-1539.3" font-family="Times New Roman,serif" font-size="14.00"> &#160;&#160;swipe(&quot;Left&quot;) &#160;&#160;</text>
</g>
<!-- state_3&#45;&gt;state_3 -->
<g id="edge17" class="edge"><title>state_3&#45;&gt;state_3</title>
<path fill="none" stroke="black" d="M161.296,-1560.59C277.826,-1576.41 499.209,-1570.55 499.209,-1543 499.209,-1516.23 290.188,-1509.94 171.442,-1524.11"/>
<polygon fill="black" stroke="black" points="170.774,-1520.67 161.296,-1525.41 171.658,-1527.61 170.774,-1520.67"/>
<text text-anchor="middle" x="563.209" y="-1539.3" font-family="Times New Roman,serif" font-size="14.00"> &#160;&#160;press(&quot;MenuKey&quot;) &#160;&#160;</text>
</g>
<!-- state_5 -->
<g id="node4" class="node"><title>state_5</title>
<g id="a_node4"><a xlink:href="5.png">
<polygon fill="none" stroke="black" points="161.209,-1377 31.2089,-1377 31.2089,-1147 161.209,-1147 161.209,-1377"/>
<image xlink:href="5.png" width="130px" height="230px" preserveAspectRatio="xMinYMin meet" x="31.2089" y="-1377"/>
</a>
</g>
</g>
<!-- state_3&#45;&gt;state_5 -->
<g id="edge14" class="edge"><title>state_3&#45;&gt;state_5</title>
<path fill="none" stroke="black" d="M96.2089,-1427.72C96.2089,-1414.4 96.2089,-1400.78 96.2089,-1387.34"/>
<polygon fill="black" stroke="black" points="99.709,-1387.11 96.2089,-1377.11 92.709,-1387.11 99.709,-1387.11"/>
<text text-anchor="middle" x="153.709" y="-1398.8" font-family="Times New Roman,serif" font-size="14.00"> &#160;&#160;click(&quot;index=0&quot;) &#160;&#160;</text>
</g>
<!-- state_3&#45;&gt;state_final -->
<g id="edge18" class="edge"><title>state_3&#45;&gt;state_final</title>
<path fill="none" stroke="black" d="M39.8315,-1427.73C20.3017,-1378.3 3.2089,-1319.04 3.2089,-1263 3.2089,-1263 3.2089,-1263 3.2089,-418 3.2089,-366.481 -9.6267,-342.851 24.2089,-304 132.537,-179.616 336.813,-148.642 447.078,-141.165"/>
<polygon fill="black" stroke="black" points="447.364,-144.654 457.124,-140.532 446.924,-137.668 447.364,-144.654"/>
<text text-anchor="middle" x="65.7089" y="-836.8" font-family="Times New Roman,serif" font-size="14.00"> &#160;&#160;press(&quot;BackKey&quot;) &#160;&#160;</text>
</g>
<!-- state_5&#45;&gt;state_5 -->
<g id="edge20" class="edge"><title>state_5&#45;&gt;state_5</title>
<path fill="none" stroke="black" d="M161.281,-1268.07C171.906,-1267.2 179.209,-1265.18 179.209,-1262 179.209,-1259.96 176.212,-1258.4 171.264,-1257.31"/>
<polygon fill="black" stroke="black" points="171.667,-1253.84 161.281,-1255.93 170.705,-1260.77 171.667,-1253.84"/>
<text text-anchor="middle" x="232.209" y="-1258.3" font-family="Times New Roman,serif" font-size="14.00"> &#160;&#160;swipe(&quot;Right&quot;) &#160;&#160;</text>
</g>
<!-- state_5&#45;&gt;state_5 -->
<g id="edge21" class="edge"><title>state_5&#45;&gt;state_5</title>
<path fill="none" stroke="black" d="M161.322,-1273.75C217.113,-1277.5 285.209,-1273.59 285.209,-1262 285.209,-1251.11 225.109,-1247 171.573,-1249.66"/>
<polygon fill="black" stroke="black" points="171.101,-1246.18 161.322,-1250.25 171.509,-1253.17 171.101,-1246.18"/>
<text text-anchor="middle" x="334.709" y="-1258.3" font-family="Times New Roman,serif" font-size="14.00"> &#160;&#160;swipe(&quot;Left&quot;) &#160;&#160;</text>
</g>
<!-- state_5&#45;&gt;state_5 -->
<g id="edge22" class="edge"><title>state_5&#45;&gt;state_5</title>
<path fill="none" stroke="black" d="M161.352,-1277.14C248.135,-1286.48 384.209,-1281.43 384.209,-1262 384.209,-1243.31 258.303,-1237.93 171.472,-1245.85"/>
<polygon fill="black" stroke="black" points="170.957,-1242.39 161.352,-1246.86 171.649,-1249.35 170.957,-1242.39"/>
<text text-anchor="middle" x="446.709" y="-1258.3" font-family="Times New Roman,serif" font-size="14.00"> &#160;&#160;press(&quot;BackKey&quot;) &#160;&#160;</text>
</g>
<!-- state_5&#45;&gt;state_5 -->
<g id="edge23" class="edge"><title>state_5&#45;&gt;state_5</title>
<path fill="none" stroke="black" d="M161.578,-1279.48C280.5,-1295.44 509.209,-1289.62 509.209,-1262 509.209,-1235.14 292.836,-1228.89 171.573,-1243.26"/>
<polygon fill="black" stroke="black" points="171.061,-1239.8 161.578,-1244.52 171.937,-1246.74 171.061,-1239.8"/>
<text text-anchor="middle" x="573.209" y="-1258.3" font-family="Times New Roman,serif" font-size="14.00"> &#160;&#160;press(&quot;MenuKey&quot;) &#160;&#160;</text>
</g>
<!-- state_6 -->
<g id="node5" class="node"><title>state_6</title>
<g id="a_node5"><a xlink:href="6.png">
<polygon fill="none" stroke="black" points="781.209,-1096 651.209,-1096 651.209,-866 781.209,-866 781.209,-1096"/>
<image xlink:href="6.png" width="130px" height="230px" preserveAspectRatio="xMinYMin meet" x="651.209" y="-1096"/>
</a>
</g>
</g>
<!-- state_5&#45;&gt;state_6 -->
<g id="edge19" class="edge"><title>state_5&#45;&gt;state_6</title>
<path fill="none" stroke="black" d="M161.388,-1231.67C277.441,-1179.45 519.174,-1070.67 641.648,-1015.55"/>
<polygon fill="black" stroke="black" points="643.29,-1018.65 650.973,-1011.36 640.417,-1012.27 643.29,-1018.65"/>
<text text-anchor="middle" x="447.709" y="-1117.8" font-family="Times New Roman,serif" font-size="14.00"> &#160;&#160;click(&quot;行&quot;) &#160;&#160;</text>
</g>
<!-- state_30 -->
<g id="node9" class="node"><title>state_30</title>
<g id="a_node9"><a xlink:href="30.png">
<polygon fill="none" stroke="black" points="161.209,-1096 31.2089,-1096 31.2089,-866 161.209,-866 161.209,-1096"/>
<image xlink:href="30.png" width="130px" height="230px" preserveAspectRatio="xMinYMin meet" x="31.2089" y="-1096"/>
</a>
</g>
</g>
<!-- state_5&#45;&gt;state_30 -->
<g id="edge24" class="edge"><title>state_5&#45;&gt;state_30</title>
<path fill="none" stroke="black" d="M96.2089,-1146.72C96.2089,-1133.4 96.2089,-1119.78 96.2089,-1106.34"/>
<polygon fill="black" stroke="black" points="99.709,-1106.11 96.2089,-1096.11 92.709,-1106.11 99.709,-1106.11"/>
<text text-anchor="middle" x="147.709" y="-1117.8" font-family="Times New Roman,serif" font-size="14.00"> &#160;&#160;click(&quot;給5星&quot;) &#160;&#160;</text>
</g>
<!-- state_6&#45;&gt;state_2 -->
<g id="edge26" class="edge"><title>state_6&#45;&gt;state_2</title>
<path fill="none" stroke="black" d="M716.209,-1096.05C716.209,-1253.4 716.209,-1536.03 716.209,-1698.65"/>
<polygon fill="black" stroke="black" points="712.709,-1698.7 716.209,-1708.7 719.709,-1698.7 712.709,-1698.7"/>
<text text-anchor="middle" x="773.709" y="-1398.8" font-family="Times New Roman,serif" font-size="14.00"> &#160;&#160;click(&quot;index=1&quot;) &#160;&#160;</text>
</g>
<!-- state_6&#45;&gt;state_6 -->
<g id="edge25" class="edge"><title>state_6&#45;&gt;state_6</title>
<path fill="none" stroke="black" d="M781.281,-987.072C791.906,-986.203 799.209,-984.179 799.209,-981 799.209,-978.964 796.212,-977.401 791.264,-976.313"/>
<polygon fill="black" stroke="black" points="791.667,-972.835 781.281,-974.928 790.705,-979.769 791.667,-972.835"/>
<text text-anchor="middle" x="856.709" y="-977.3" font-family="Times New Roman,serif" font-size="14.00"> &#160;&#160;click(&quot;index=1&quot;) &#160;&#160;</text>
</g>
<!-- state_6&#45;&gt;state_6 -->
<g id="edge28" class="edge"><title>state_6&#45;&gt;state_6</title>
<path fill="none" stroke="black" d="M781.39,-992.592C840.242,-996.605 914.209,-992.741 914.209,-981 914.209,-969.924 848.383,-965.858 791.519,-968.802"/>
<polygon fill="black" stroke="black" points="791.163,-965.317 781.39,-969.408 791.581,-972.305 791.163,-965.317"/>
<text text-anchor="middle" x="967.209" y="-977.3" font-family="Times New Roman,serif" font-size="14.00"> &#160;&#160;swipe(&quot;Right&quot;) &#160;&#160;</text>
</g>
<!-- state_6&#45;&gt;state_6 -->
<g id="edge29" class="edge"><title>state_6&#45;&gt;state_6</title>
<path fill="none" stroke="black" d="M781.513,-995.88C872.681,-1005.57 1020.21,-1000.61 1020.21,-981 1020.21,-962.098 883.149,-956.807 791.607,-965.127"/>
<polygon fill="black" stroke="black" points="791.122,-961.657 781.513,-966.12 791.808,-968.624 791.122,-961.657"/>
<text text-anchor="middle" x="1069.71" y="-977.3" font-family="Times New Roman,serif" font-size="14.00"> &#160;&#160;swipe(&quot;Left&quot;) &#160;&#160;</text>
</g>
<!-- state_6&#45;&gt;state_6 -->
<g id="edge30" class="edge"><title>state_6&#45;&gt;state_6</title>
<path fill="none" stroke="black" d="M781.296,-998.595C897.826,-1014.41 1119.21,-1008.55 1119.21,-981 1119.21,-954.231 910.188,-947.936 791.442,-962.114"/>
<polygon fill="black" stroke="black" points="790.774,-958.67 781.296,-963.405 791.658,-965.614 790.774,-958.67"/>
<text text-anchor="middle" x="1183.21" y="-977.3" font-family="Times New Roman,serif" font-size="14.00"> &#160;&#160;press(&quot;MenuKey&quot;) &#160;&#160;</text>
</g>
<!-- state_6&#45;&gt;state_9 -->
<g id="edge27" class="edge"><title>state_6&#45;&gt;state_9</title>
<path fill="none" stroke="black" d="M771.918,-865.715C778.597,-852.012 785.44,-837.974 792.177,-824.153"/>
<polygon fill="black" stroke="black" points="795.351,-825.63 796.587,-815.107 789.059,-822.563 795.351,-825.63"/>
<text text-anchor="middle" x="841.709" y="-836.8" font-family="Times New Roman,serif" font-size="14.00"> &#160;&#160;click(&quot;index=3&quot;) &#160;&#160;</text>
</g>
<!-- state_6&#45;&gt;state_final -->
<g id="edge31" class="edge"><title>state_6&#45;&gt;state_final</title>
<path fill="none" stroke="black" d="M714.366,-865.732C711.051,-679.629 703.372,-329.138 692.209,-304 671.647,-257.695 631.511,-217.749 595.4,-188.763"/>
<polygon fill="black" stroke="black" points="597.309,-185.811 587.286,-182.376 592.979,-191.312 597.309,-185.811"/>
<text text-anchor="middle" x="769.709" y="-555.8" font-family="Times New Roman,serif" font-size="14.00"> &#160;&#160;press(&quot;BackKey&quot;) &#160;&#160;</text>
</g>
<!-- state_9&#45;&gt;state_9 -->
<g id="edge33" class="edge"><title>state_9&#45;&gt;state_9</title>
<path fill="none" stroke="black" d="M917.281,-706.072C927.906,-705.203 935.209,-703.179 935.209,-700 935.209,-697.964 932.212,-696.401 927.264,-695.313"/>
<polygon fill="black" stroke="black" points="927.667,-691.835 917.281,-693.928 926.705,-698.769 927.667,-691.835"/>
<text text-anchor="middle" x="988.209" y="-696.3" font-family="Times New Roman,serif" font-size="14.00"> &#160;&#160;swipe(&quot;Right&quot;) &#160;&#160;</text>
</g>
<!-- state_9&#45;&gt;state_9 -->
<g id="edge34" class="edge"><title>state_9&#45;&gt;state_9</title>
<path fill="none" stroke="black" d="M917.322,-711.745C973.113,-715.502 1041.21,-711.587 1041.21,-700 1041.21,-689.115 981.109,-685 927.573,-687.657"/>
<polygon fill="black" stroke="black" points="927.101,-684.178 917.322,-688.255 927.509,-691.166 927.101,-684.178"/>
<text text-anchor="middle" x="1090.71" y="-696.3" font-family="Times New Roman,serif" font-size="14.00"> &#160;&#160;swipe(&quot;Left&quot;) &#160;&#160;</text>
</g>
<!-- state_9&#45;&gt;state_9 -->
<g id="edge35" class="edge"><title>state_9&#45;&gt;state_9</title>
<path fill="none" stroke="black" d="M917.352,-715.143C1004.14,-724.479 1140.21,-719.431 1140.21,-700 1140.21,-681.309 1014.3,-675.927 927.472,-683.853"/>
<polygon fill="black" stroke="black" points="926.957,-680.387 917.352,-684.857 927.649,-687.353 926.957,-680.387"/>
<text text-anchor="middle" x="1202.71" y="-696.3" font-family="Times New Roman,serif" font-size="14.00"> &#160;&#160;press(&quot;BackKey&quot;) &#160;&#160;</text>
</g>
<!-- state_9&#45;&gt;state_9 -->
<g id="edge36" class="edge"><title>state_9&#45;&gt;state_9</title>
<path fill="none" stroke="black" d="M917.578,-717.477C1036.5,-733.443 1265.21,-727.617 1265.21,-700 1265.21,-673.138 1048.84,-666.892 927.573,-681.263"/>
<polygon fill="black" stroke="black" points="927.061,-677.799 917.578,-682.523 927.937,-684.744 927.061,-677.799"/>
<text text-anchor="middle" x="1329.21" y="-696.3" font-family="Times New Roman,serif" font-size="14.00"> &#160;&#160;press(&quot;MenuKey&quot;) &#160;&#160;</text>
</g>
<!-- state_10 -->
<g id="node7" class="node"><title>state_10</title>
<g id="a_node7"><a xlink:href="10.png">
<polygon fill="none" stroke="black" points="163.209,-534 33.2089,-534 33.2089,-304 163.209,-304 163.209,-534"/>
<image xlink:href="10.png" width="130px" height="230px" preserveAspectRatio="xMinYMin meet" x="33.2089" y="-534"/>
</a>
</g>
</g>
<!-- state_9&#45;&gt;state_10 -->
<g id="edge32" class="edge"><title>state_9&#45;&gt;state_10</title>
<path fill="none" stroke="black" d="M855.647,-584.9C851.82,-572.742 845.932,-561.404 837.209,-552 748.124,-455.963 343.288,-429.359 173.502,-422.361"/>
<polygon fill="black" stroke="black" points="173.528,-418.86 163.396,-421.957 173.248,-425.854 173.528,-418.86"/>
<text text-anchor="middle" x="891.709" y="-555.8" font-family="Times New Roman,serif" font-size="14.00"> &#160;&#160;click(&quot;OK&quot;) &#160;&#160;</text>
</g>
<!-- state_39 -->
<g id="node10" class="node"><title>state_39</title>
<g id="a_node10"><a xlink:href="39.png">
<polygon fill="none" stroke="black" points="1038.21,-534 908.209,-534 908.209,-304 1038.21,-304 1038.21,-534"/>
<image xlink:href="39.png" width="130px" height="230px" preserveAspectRatio="xMinYMin meet" x="908.209" y="-534"/>
</a>
</g>
</g>
<!-- state_9&#45;&gt;state_39 -->
<g id="edge37" class="edge"><title>state_9&#45;&gt;state_39</title>
<path fill="none" stroke="black" d="M917.247,-625.49C930.353,-607.4 942.7,-587.35 951.209,-567 954.287,-559.637 956.943,-551.908 959.233,-544.009"/>
<polygon fill="black" stroke="black" points="962.627,-544.868 961.85,-534.302 955.868,-543.046 962.627,-544.868"/>
<text text-anchor="middle" x="1006.71" y="-555.8" font-family="Times New Roman,serif" font-size="14.00"> &#160;&#160;click(&quot;給5星&quot;) &#160;&#160;</text>
</g>
<!-- state_10&#45;&gt;state_5 -->
<g id="edge39" class="edge"><title>state_10&#45;&gt;state_5</title>
<path fill="none" stroke="black" d="M121.138,-534.192C147.222,-671.218 187.81,-908.26 200.209,-1114 200.61,-1120.65 202.392,-1122.7 200.209,-1129 193,-1149.8 181.008,-1169.8 167.677,-1187.67"/>
<polygon fill="black" stroke="black" points="164.801,-1185.67 161.471,-1195.73 170.346,-1189.94 164.801,-1185.67"/>
<text text-anchor="middle" x="228.709" y="-836.8" font-family="Times New Roman,serif" font-size="14.00"> &#160;&#160;click(&quot;index=0&quot;) &#160;&#160;</text>
</g>
<!-- state_10&#45;&gt;state_10 -->
<g id="edge38" class="edge"><title>state_10&#45;&gt;state_10</title>
<path fill="none" stroke="black" d="M163.281,-425.072C173.906,-424.203 181.209,-422.179 181.209,-419 181.209,-416.964 178.212,-415.401 173.264,-414.313"/>
<polygon fill="black" stroke="black" points="173.667,-410.835 163.281,-412.928 172.705,-417.769 173.667,-410.835"/>
<text text-anchor="middle" x="238.709" y="-415.3" font-family="Times New Roman,serif" font-size="14.00"> &#160;&#160;click(&quot;index=1&quot;) &#160;&#160;</text>
</g>
<!-- state_10&#45;&gt;state_10 -->
<g id="edge40" class="edge"><title>state_10&#45;&gt;state_10</title>
<path fill="none" stroke="black" d="M163.39,-430.592C222.242,-434.605 296.209,-430.741 296.209,-419 296.209,-407.924 230.383,-403.858 173.519,-406.802"/>
<polygon fill="black" stroke="black" points="173.163,-403.317 163.39,-407.408 173.581,-410.305 173.163,-403.317"/>
<text text-anchor="middle" x="349.209" y="-415.3" font-family="Times New Roman,serif" font-size="14.00"> &#160;&#160;swipe(&quot;Right&quot;) &#160;&#160;</text>
</g>
<!-- state_10&#45;&gt;state_10 -->
<g id="edge41" class="edge"><title>state_10&#45;&gt;state_10</title>
<path fill="none" stroke="black" d="M163.513,-433.88C254.681,-443.571 402.209,-438.611 402.209,-419 402.209,-400.098 265.149,-394.807 173.607,-403.127"/>
<polygon fill="black" stroke="black" points="173.122,-399.657 163.513,-404.12 173.808,-406.624 173.122,-399.657"/>
<text text-anchor="middle" x="451.709" y="-415.3" font-family="Times New Roman,serif" font-size="14.00"> &#160;&#160;swipe(&quot;Left&quot;) &#160;&#160;</text>
</g>
<!-- state_10&#45;&gt;state_10 -->
<g id="edge42" class="edge"><title>state_10&#45;&gt;state_10</title>
<path fill="none" stroke="black" d="M163.296,-436.595C279.826,-452.414 501.209,-446.549 501.209,-419 501.209,-392.231 292.188,-385.936 173.442,-400.114"/>
<polygon fill="black" stroke="black" points="172.774,-396.67 163.296,-401.405 173.658,-403.614 172.774,-396.67"/>
<text text-anchor="middle" x="565.209" y="-415.3" font-family="Times New Roman,serif" font-size="14.00"> &#160;&#160;press(&quot;MenuKey&quot;) &#160;&#160;</text>
</g>
<!-- state_10&#45;&gt;state_final -->
<g id="edge43" class="edge"><title>state_10&#45;&gt;state_final</title>
<path fill="none" stroke="black" d="M163.53,-375.018C240.518,-324.358 368.127,-240.389 448.562,-187.461"/>
<polygon fill="black" stroke="black" points="450.732,-190.223 457.162,-181.802 446.884,-184.375 450.732,-190.223"/>
<text text-anchor="middle" x="372.709" y="-274.8" font-family="Times New Roman,serif" font-size="14.00"> &#160;&#160;press(&quot;BackKey&quot;) &#160;&#160;</text>
</g>
</g>
</svg>
