<?xml version="1.0" encoding="UTF-8" standalone="no"?>
<!DOCTYPE svg PUBLIC "-//W3C//DTD SVG 1.1//EN"
 "http://www.w3.org/Graphics/SVG/1.1/DTD/svg11.dtd">
<!-- Generated by graphviz version 2.38.0 (20140413.2041)
 -->
<!-- Title: activity_4 Pages: 1 -->
<svg width="788pt" height="385pt"
 viewBox="0.00 0.00 787.88 385.00" xmlns="http://www.w3.org/2000/svg" xmlns:xlink="http://www.w3.org/1999/xlink">
<g id="graph0" class="graph" transform="scale(1 1) rotate(0) translate(4 381)">
<title>activity_4</title>
<polygon fill="white" stroke="none" points="-4,4 -4,-381 783.88,-381 783.88,4 -4,4"/>
<!-- state_17 -->
<g id="node1" class="node"><title>state_17</title>
<g id="a_node1"><a xlink:href="17.png" xlink:title="&lt;TABLE&gt;">
<polygon fill="none" stroke="black" points="427.88,-290 297.88,-290 297.88,-0 427.88,-0 427.88,-290"/>
<text text-anchor="start" x="339.38" y="-278.8" font-family="Times New Roman,serif" font-size="14.00">state_17</text>
<text text-anchor="start" x="332.38" y="-263.8" font-family="Times New Roman,serif" font-size="14.00">incoming:6</text>
<text text-anchor="start" x="333.38" y="-248.8" font-family="Times New Roman,serif" font-size="14.00">outgoing:0</text>
<text text-anchor="start" x="344.88" y="-233.8" font-family="Times New Roman,serif" font-size="14.00">loop:0</text>
<image xlink:href="17.png" width="130px" height="230px" preserveAspectRatio="xMinYMin meet" x="297.88" y="-230"/>
</a>
</g>
</g>
<!-- activity_1 -->
<g id="node2" class="node"><title>activity_1</title>
<ellipse fill="none" stroke="red" cx="362.88" cy="-359" rx="46.2923" ry="18"/>
<text text-anchor="middle" x="362.88" y="-355.3" font-family="Times New Roman,serif" font-size="14.00" fill="red">activity_1</text>
</g>
<!-- activity_1&#45;&gt;state_17 -->
<g id="edge1" class="edge"><title>activity_1&#45;&gt;state_17</title>
<path fill="none" stroke="red" d="M316.935,-356.684C227.823,-353.656 38.498,-344.715 18.8799,-323 -66.3838,-228.621 162.736,-177.017 287.776,-156.549"/>
<polygon fill="red" stroke="red" points="288.379,-159.997 297.697,-154.954 287.268,-153.086 288.379,-159.997"/>
<text text-anchor="middle" x="76.3799" y="-311.8" font-family="Times New Roman,serif" font-size="14.00" fill="red"> &#160;&#160;click(&quot;index=0&quot;) &#160;&#160;</text>
</g>
<!-- activity_1&#45;&gt;state_17 -->
<g id="edge2" class="edge"><title>activity_1&#45;&gt;state_17</title>
<path fill="none" stroke="red" d="M316.924,-356.846C262.581,-354.398 176.949,-346.767 156.88,-323 105.795,-262.504 210.365,-205.214 288.366,-172.955"/>
<polygon fill="red" stroke="red" points="289.789,-176.155 297.734,-169.146 287.152,-169.67 289.789,-176.155"/>
<text text-anchor="middle" x="214.38" y="-311.8" font-family="Times New Roman,serif" font-size="14.00" fill="red"> &#160;&#160;click(&quot;index=0&quot;) &#160;&#160;</text>
</g>
<!-- activity_1&#45;&gt;state_17 -->
<g id="edge3" class="edge"><title>activity_1&#45;&gt;state_17</title>
<path fill="none" stroke="red" d="M326.319,-347.793C314.16,-342.467 301.932,-334.562 294.88,-323 291.408,-317.309 293.564,-314.535 294.88,-308 295.394,-305.449 295.949,-302.888 296.541,-300.321"/>
<polygon fill="red" stroke="red" points="299.993,-300.943 299.01,-290.394 293.2,-299.254 299.993,-300.943"/>
<text text-anchor="middle" x="352.38" y="-311.8" font-family="Times New Roman,serif" font-size="14.00" fill="red"> &#160;&#160;click(&quot;index=0&quot;) &#160;&#160;</text>
</g>
<!-- activity_1&#45;&gt;state_17 -->
<g id="edge4" class="edge"><title>activity_1&#45;&gt;state_17</title>
<path fill="none" stroke="red" d="M389.873,-344.303C397.792,-338.832 405.497,-331.728 409.88,-323 413.541,-315.708 415.996,-308.099 417.45,-300.31"/>
<polygon fill="red" stroke="red" points="420.925,-300.732 418.771,-290.359 413.986,-299.811 420.925,-300.732"/>
<text text-anchor="middle" x="472.38" y="-311.8" font-family="Times New Roman,serif" font-size="14.00" fill="red"> &#160;&#160;click(&quot;index=0&quot;) &#160;&#160;</text>
</g>
<!-- activity_1&#45;&gt;state_17 -->
<g id="edge5" class="edge"><title>activity_1&#45;&gt;state_17</title>
<path fill="none" stroke="red" d="M408.003,-355.074C453.21,-351.092 518.265,-342.134 533.88,-323 576.709,-270.516 500.904,-215.153 436.979,-180.606"/>
<polygon fill="red" stroke="red" points="438.526,-177.465 428.052,-175.872 435.247,-183.649 438.526,-177.465"/>
<text text-anchor="middle" x="589.38" y="-311.8" font-family="Times New Roman,serif" font-size="14.00" fill="red"> &#160;&#160;swipe(&quot;Left&quot;) &#160;&#160;</text>
</g>
<!-- activity_1&#45;&gt;state_17 -->
<g id="edge6" class="edge"><title>activity_1&#45;&gt;state_17</title>
<path fill="none" stroke="red" d="M408.427,-355.557C483.779,-351.046 627.642,-340.261 642.88,-323 711.92,-244.793 542.531,-188.548 437.944,-162.408"/>
<polygon fill="red" stroke="red" points="438.582,-158.961 428.035,-159.973 436.911,-165.759 438.582,-158.961"/>
<text text-anchor="middle" x="715.88" y="-311.8" font-family="Times New Roman,serif" font-size="14.00" fill="red"> &#160;&#160;press(&quot;MenuKey&quot;) &#160;&#160;</text>
</g>
</g>
</svg>
