<?xml version="1.0" encoding="UTF-8" standalone="no"?>
<!DOCTYPE svg PUBLIC "-//W3C//DTD SVG 1.1//EN"
 "http://www.w3.org/Graphics/SVG/1.1/DTD/svg11.dtd">
<!-- Generated by graphviz version 2.38.0 (20140413.2041)
 -->
<!-- Title: activity_0 Pages: 1 -->
<svg width="650pt" height="399pt"
 viewBox="0.00 0.00 649.83 399.00" xmlns="http://www.w3.org/2000/svg" xmlns:xlink="http://www.w3.org/1999/xlink">
<g id="graph0" class="graph" transform="scale(1 1) rotate(0) translate(4 395)">
<title>activity_0</title>
<polygon fill="white" stroke="none" points="-4,4 -4,-395 645.83,-395 645.83,4 -4,4"/>
<!-- state_0 -->
<g id="node1" class="node"><title>state_0</title>
<g id="a_node1"><a xlink:href="0.png" xlink:title="&lt;TABLE&gt;">
<polygon fill="none" stroke="black" points="254.83,-391 124.83,-391 124.83,-101 254.83,-101 254.83,-391"/>
<text text-anchor="start" x="169.83" y="-379.8" font-family="Times New Roman,serif" font-size="14.00">state_0</text>
<text text-anchor="start" x="159.33" y="-364.8" font-family="Times New Roman,serif" font-size="14.00">incoming:5</text>
<text text-anchor="start" x="160.33" y="-349.8" font-family="Times New Roman,serif" font-size="14.00">outgoing:5</text>
<text text-anchor="start" x="171.83" y="-334.8" font-family="Times New Roman,serif" font-size="14.00">loop:3</text>
<image xlink:href="0.png" width="130px" height="230px" preserveAspectRatio="xMinYMin meet" x="124.83" y="-331"/>
</a>
</g>
</g>
<!-- state_0&#45;&gt;state_0 -->
<g id="edge1" class="edge"><title>state_0&#45;&gt;state_0</title>
<path fill="none" stroke="black" d="M254.902,-255.831C265.528,-254.423 272.83,-251.146 272.83,-246 272.83,-242.703 269.833,-240.173 264.886,-238.411"/>
<polygon fill="black" stroke="black" points="265.426,-234.945 254.902,-236.169 263.892,-241.775 265.426,-234.945"/>
<text text-anchor="middle" x="325.83" y="-242.3" font-family="Times New Roman,serif" font-size="14.00"> &#160;&#160;swipe(&quot;Right&quot;) &#160;&#160;</text>
</g>
<!-- state_0&#45;&gt;state_0 -->
<g id="edge2" class="edge"><title>state_0&#45;&gt;state_0</title>
<path fill="none" stroke="black" d="M254.943,-265.016C310.734,-271.099 378.83,-264.76 378.83,-246 378.83,-228.376 318.73,-221.715 265.195,-226.016"/>
<polygon fill="black" stroke="black" points="264.57,-222.559 254.943,-226.984 265.228,-229.528 264.57,-222.559"/>
<text text-anchor="middle" x="428.33" y="-242.3" font-family="Times New Roman,serif" font-size="14.00"> &#160;&#160;swipe(&quot;Left&quot;) &#160;&#160;</text>
</g>
<!-- state_0&#45;&gt;state_0 -->
<g id="edge3" class="edge"><title>state_0&#45;&gt;state_0</title>
<path fill="none" stroke="black" d="M254.973,-270.517C341.757,-285.632 477.83,-277.46 477.83,-246 477.83,-215.738 351.924,-207.024 265.093,-219.858"/>
<polygon fill="black" stroke="black" points="264.291,-216.441 254.973,-221.483 265.402,-223.353 264.291,-216.441"/>
<text text-anchor="middle" x="541.83" y="-242.3" font-family="Times New Roman,serif" font-size="14.00"> &#160;&#160;press(&quot;MenuKey&quot;) &#160;&#160;</text>
</g>
<!-- activity_1 -->
<g id="node2" class="node"><title>activity_1</title>
<ellipse fill="none" stroke="red" cx="115.83" cy="-25" rx="46.2923" ry="18"/>
<text text-anchor="middle" x="115.83" y="-21.3" font-family="Times New Roman,serif" font-size="14.00" fill="red">activity_1</text>
</g>
<!-- state_0&#45;&gt;activity_1 -->
<g id="edge4" class="edge"><title>state_0&#45;&gt;activity_1</title>
<path fill="none" stroke="red" d="M124.829,-209.05C81.3985,-181.021 27.8142,-137.699 2.83017,-83 -10.3122,-54.2265 27.0635,-39.7889 62.2945,-32.663"/>
<polygon fill="red" stroke="red" points="62.9355,-36.1039 72.1308,-30.8411 61.6606,-29.2209 62.9355,-36.1039"/>
<text text-anchor="middle" x="48.3302" y="-71.8" font-family="Times New Roman,serif" font-size="14.00" fill="red"> &#160;&#160;click(&quot;OK&quot;) &#160;&#160;</text>
</g>
<!-- final -->
<g id="node3" class="node"><title>final</title>
<image xlink:href="-2.png" width="50px" height="50px" preserveAspectRatio="xMinYMin meet" x="386.83" y="-50"/>
</g>
<!-- state_0&#45;&gt;final -->
<g id="edge5" class="edge"><title>state_0&#45;&gt;final</title>
<path fill="none" stroke="red" d="M255.124,-197.987C293.999,-167.938 342.642,-126.537 378.83,-83 384.896,-75.7028 390.496,-67.147 395.296,-58.9154"/>
<polygon fill="red" stroke="red" points="398.352,-60.6222 400.175,-50.1853 392.241,-57.2076 398.352,-60.6222"/>
<text text-anchor="middle" x="451.33" y="-71.8" font-family="Times New Roman,serif" font-size="14.00" fill="red"> &#160;&#160;press(&quot;BackKey&quot;) &#160;&#160;</text>
</g>
<!-- activity_1&#45;&gt;state_0 -->
<g id="edge6" class="edge"><title>activity_1&#45;&gt;state_0</title>
<path fill="none" stroke="red" d="M114.343,-43.1735C113.788,-54.5994 113.887,-69.8654 116.83,-83 118.225,-89.2226 119.87,-95.4967 121.716,-101.773"/>
<polygon fill="red" stroke="red" points="118.469,-103.118 124.776,-111.631 125.154,-101.043 118.469,-103.118"/>
<text text-anchor="middle" x="179.33" y="-71.8" font-family="Times New Roman,serif" font-size="14.00" fill="red"> &#160;&#160;press(&quot;BackKey&quot;) &#160;&#160;</text>
</g>
<!-- activity_1&#45;&gt;state_0 -->
<g id="edge7" class="edge"><title>activity_1&#45;&gt;state_0</title>
<path fill="none" stroke="red" d="M161.469,-28.3543C189.585,-32.4483 223.629,-42.7471 241.83,-68 249.292,-78.3523 253.171,-89.7698 254.402,-101.67"/>
<polygon fill="red" stroke="red" points="250.91,-101.926 254.834,-111.767 257.904,-101.627 250.91,-101.926"/>
<text text-anchor="middle" x="312.33" y="-71.8" font-family="Times New Roman,serif" font-size="14.00" fill="red"> &#160;&#160;press(&quot;BackKey&quot;) &#160;&#160;</text>
</g>
</g>
</svg>
