<?xml version="1.0" encoding="UTF-8" standalone="no"?>
<!DOCTYPE svg PUBLIC "-//W3C//DTD SVG 1.1//EN"
 "http://www.w3.org/Graphics/SVG/1.1/DTD/svg11.dtd">
<!-- Generated by graphviz version 2.38.0 (20140413.2041)
 -->
<!-- Title: activity_3 Pages: 1 -->
<svg width="535pt" height="385pt"
 viewBox="0.00 0.00 535.13 385.00" xmlns="http://www.w3.org/2000/svg" xmlns:xlink="http://www.w3.org/1999/xlink">
<g id="graph0" class="graph" transform="scale(1 1) rotate(0) translate(4 381)">
<title>activity_3</title>
<polygon fill="white" stroke="none" points="-4,4 -4,-381 531.126,-381 531.126,4 -4,4"/>
<!-- state_12 -->
<g id="node1" class="node"><title>state_12</title>
<g id="a_node1"><a xlink:href="12.png" xlink:title="&lt;TABLE&gt;">
<polygon fill="none" stroke="black" points="140.126,-377 10.1261,-377 10.1261,-87 140.126,-87 140.126,-377"/>
<text text-anchor="start" x="51.6261" y="-365.8" font-family="Times New Roman,serif" font-size="14.00">state_12</text>
<text text-anchor="start" x="44.6261" y="-350.8" font-family="Times New Roman,serif" font-size="14.00">incoming:4</text>
<text text-anchor="start" x="45.6261" y="-335.8" font-family="Times New Roman,serif" font-size="14.00">outgoing:4</text>
<text text-anchor="start" x="57.1261" y="-320.8" font-family="Times New Roman,serif" font-size="14.00">loop:3</text>
<image xlink:href="12.png" width="130px" height="230px" preserveAspectRatio="xMinYMin meet" x="10.1261" y="-317"/>
</a>
</g>
</g>
<!-- state_12&#45;&gt;state_12 -->
<g id="edge1" class="edge"><title>state_12&#45;&gt;state_12</title>
<path fill="none" stroke="black" d="M140.198,-241.831C150.824,-240.423 158.126,-237.146 158.126,-232 158.126,-228.703 155.129,-226.173 150.181,-224.411"/>
<polygon fill="black" stroke="black" points="150.722,-220.945 140.198,-222.169 149.188,-227.775 150.722,-220.945"/>
<text text-anchor="middle" x="211.126" y="-228.3" font-family="Times New Roman,serif" font-size="14.00"> &#160;&#160;swipe(&quot;Right&quot;) &#160;&#160;</text>
</g>
<!-- state_12&#45;&gt;state_12 -->
<g id="edge2" class="edge"><title>state_12&#45;&gt;state_12</title>
<path fill="none" stroke="black" d="M140.239,-251.016C196.03,-257.099 264.126,-250.76 264.126,-232 264.126,-214.376 204.026,-207.715 150.491,-212.016"/>
<polygon fill="black" stroke="black" points="149.866,-208.559 140.239,-212.984 150.524,-215.528 149.866,-208.559"/>
<text text-anchor="middle" x="313.626" y="-228.3" font-family="Times New Roman,serif" font-size="14.00"> &#160;&#160;swipe(&quot;Left&quot;) &#160;&#160;</text>
</g>
<!-- state_12&#45;&gt;state_12 -->
<g id="edge4" class="edge"><title>state_12&#45;&gt;state_12</title>
<path fill="none" stroke="black" d="M140.269,-256.517C227.053,-271.632 363.126,-263.46 363.126,-232 363.126,-201.738 237.22,-193.024 150.389,-205.858"/>
<polygon fill="black" stroke="black" points="149.587,-202.441 140.269,-207.483 150.698,-209.353 149.587,-202.441"/>
<text text-anchor="middle" x="427.126" y="-228.3" font-family="Times New Roman,serif" font-size="14.00"> &#160;&#160;press(&quot;MenuKey&quot;) &#160;&#160;</text>
</g>
<!-- activity_1 -->
<g id="node2" class="node"><title>activity_1</title>
<ellipse fill="none" stroke="red" cx="75.1261" cy="-18" rx="46.2923" ry="18"/>
<text text-anchor="middle" x="75.1261" y="-14.3" font-family="Times New Roman,serif" font-size="14.00" fill="red">activity_1</text>
</g>
<!-- state_12&#45;&gt;activity_1 -->
<g id="edge3" class="edge"><title>state_12&#45;&gt;activity_1</title>
<path fill="none" stroke="red" d="M10.0267,-98.1285C6.8963,-88.4209 4.20012,-78.6512 2.12605,-69 0.725342,-62.4821 -1.4257,-59.6418 2.12605,-54 8.08834,-44.5292 17.4039,-37.5639 27.4099,-32.4617"/>
<polygon fill="red" stroke="red" points="29.0289,-35.5715 36.7169,-28.2814 26.1607,-29.186 29.0289,-35.5715"/>
<text text-anchor="middle" x="64.6261" y="-57.8" font-family="Times New Roman,serif" font-size="14.00" fill="red"> &#160;&#160;press(&quot;BackKey&quot;) &#160;&#160;</text>
</g>
<!-- activity_1&#45;&gt;state_12 -->
<g id="edge5" class="edge"><title>activity_1&#45;&gt;state_12</title>
<path fill="none" stroke="red" d="M104.646,-31.9499C113.499,-37.4006 122.166,-44.6822 127.126,-54 131.041,-61.355 133.624,-69.0431 135.104,-76.9205"/>
<polygon fill="red" stroke="red" points="131.653,-77.5209 136.407,-86.9891 138.595,-76.6227 131.653,-77.5209"/>
<text text-anchor="middle" x="183.626" y="-57.8" font-family="Times New Roman,serif" font-size="14.00" fill="red"> &#160;&#160;click(&quot;Login&quot;) &#160;&#160;</text>
</g>
</g>
</svg>
