<?xml version="1.0" encoding="UTF-8" standalone="no"?>
<!DOCTYPE svg PUBLIC "-//W3C//DTD SVG 1.1//EN"
 "http://www.w3.org/Graphics/SVG/1.1/DTD/svg11.dtd">
<!-- Generated by graphviz version 2.38.0 (20140413.2041)
 -->
<!-- Title: activity_1 Pages: 1 -->
<svg width="1728pt" height="1408pt"
 viewBox="0.00 0.00 1727.96 1408.00" xmlns="http://www.w3.org/2000/svg" xmlns:xlink="http://www.w3.org/1999/xlink">
<g id="graph0" class="graph" transform="scale(1 1) rotate(0) translate(4 1404)">
<title>activity_1</title>
<polygon fill="white" stroke="none" points="-4,4 -4,-1404 1723.96,-1404 1723.96,4 -4,4"/>
<!-- state_1 -->
<g id="node1" class="node"><title>state_1</title>
<g id="a_node1"><a xlink:href="1.png" xlink:title="&lt;TABLE&gt;">
<polygon fill="none" stroke="black" points="1064.96,-1400 934.959,-1400 934.959,-1110 1064.96,-1110 1064.96,-1400"/>
<text text-anchor="start" x="979.959" y="-1388.8" font-family="Times New Roman,serif" font-size="14.00">state_1</text>
<text text-anchor="start" x="969.459" y="-1373.8" font-family="Times New Roman,serif" font-size="14.00">incoming:6</text>
<text text-anchor="start" x="970.459" y="-1358.8" font-family="Times New Roman,serif" font-size="14.00">outgoing:8</text>
<text text-anchor="start" x="981.959" y="-1343.8" font-family="Times New Roman,serif" font-size="14.00">loop:5</text>
<image xlink:href="1.png" width="130px" height="230px" preserveAspectRatio="xMinYMin meet" x="934.959" y="-1340"/>
</a>
</g>
</g>
<!-- state_1&#45;&gt;state_1 -->
<g id="edge1" class="edge"><title>state_1&#45;&gt;state_1</title>
<path fill="none" stroke="black" d="M1065.03,-1260.9C1075.66,-1260.05 1082.96,-1258.09 1082.96,-1255 1082.96,-1253.02 1079.96,-1251.5 1075.01,-1250.45"/>
<polygon fill="black" stroke="black" points="1075.41,-1246.97 1065.03,-1249.1 1074.47,-1253.91 1075.41,-1246.97"/>
<text text-anchor="middle" x="1140.46" y="-1251.3" font-family="Times New Roman,serif" font-size="14.00"> &#160;&#160;click(&quot;index=0&quot;) &#160;&#160;</text>
</g>
<!-- state_1&#45;&gt;state_1 -->
<g id="edge2" class="edge"><title>state_1&#45;&gt;state_1</title>
<path fill="none" stroke="black" d="M1065.14,-1266.26C1123.99,-1270.16 1197.96,-1266.41 1197.96,-1255 1197.96,-1244.24 1132.13,-1240.29 1075.27,-1243.15"/>
<polygon fill="black" stroke="black" points="1074.92,-1239.67 1065.14,-1243.74 1075.33,-1246.65 1074.92,-1239.67"/>
<text text-anchor="middle" x="1268.96" y="-1251.3" font-family="Times New Roman,serif" font-size="14.00"> &#160;&#160;longClick(&quot;index=0&quot;) &#160;&#160;</text>
</g>
<!-- state_1&#45;&gt;state_1 -->
<g id="edge4" class="edge"><title>state_1&#45;&gt;state_1</title>
<path fill="none" stroke="black" d="M1065.12,-1268.89C1165.7,-1279.05 1339.96,-1274.42 1339.96,-1255 1339.96,-1236.22 1177.08,-1231.27 1075.38,-1240.15"/>
<polygon fill="black" stroke="black" points="1074.75,-1236.69 1065.12,-1241.11 1075.41,-1243.66 1074.75,-1236.69"/>
<text text-anchor="middle" x="1391.46" y="-1251.3" font-family="Times New Roman,serif" font-size="14.00"> &#160;&#160;click(&quot;Login&quot;) &#160;&#160;</text>
</g>
<!-- state_1&#45;&gt;state_1 -->
<g id="edge5" class="edge"><title>state_1&#45;&gt;state_1</title>
<path fill="none" stroke="black" d="M1065.04,-1271.51C1190.65,-1287.6 1442.96,-1282.09 1442.96,-1255 1442.96,-1228.62 1203.78,-1222.71 1075.23,-1237.26"/>
<polygon fill="black" stroke="black" points="1074.55,-1233.82 1065.04,-1238.49 1075.39,-1240.77 1074.55,-1233.82"/>
<text text-anchor="middle" x="1495.96" y="-1251.3" font-family="Times New Roman,serif" font-size="14.00"> &#160;&#160;swipe(&quot;Right&quot;) &#160;&#160;</text>
</g>
<!-- state_1&#45;&gt;state_1 -->
<g id="edge6" class="edge"><title>state_1&#45;&gt;state_1</title>
<path fill="none" stroke="black" d="M1064.98,-1273.71C1213.5,-1296.14 1548.96,-1289.9 1548.96,-1255 1548.96,-1220.88 1228.4,-1214.15 1075.26,-1234.82"/>
<polygon fill="black" stroke="black" points="1074.38,-1231.41 1064.98,-1236.29 1075.37,-1238.34 1074.38,-1231.41"/>
<text text-anchor="middle" x="1598.46" y="-1251.3" font-family="Times New Roman,serif" font-size="14.00"> &#160;&#160;swipe(&quot;Left&quot;) &#160;&#160;</text>
</g>
<!-- state_8 -->
<g id="node2" class="node"><title>state_8</title>
<g id="a_node2"><a xlink:href="8.png" xlink:title="&lt;TABLE&gt;">
<polygon fill="none" stroke="black" points="504.959,-1059 374.959,-1059 374.959,-769 504.959,-769 504.959,-1059"/>
<text text-anchor="start" x="419.959" y="-1047.8" font-family="Times New Roman,serif" font-size="14.00">state_8</text>
<text text-anchor="start" x="405.959" y="-1032.8" font-family="Times New Roman,serif" font-size="14.00">incoming:10</text>
<text text-anchor="start" x="410.459" y="-1017.8" font-family="Times New Roman,serif" font-size="14.00">outgoing:8</text>
<text text-anchor="start" x="421.959" y="-1002.8" font-family="Times New Roman,serif" font-size="14.00">loop:5</text>
<image xlink:href="8.png" width="130px" height="230px" preserveAspectRatio="xMinYMin meet" x="374.959" y="-999"/>
</a>
</g>
</g>
<!-- state_1&#45;&gt;state_8 -->
<g id="edge3" class="edge"><title>state_1&#45;&gt;state_8</title>
<path fill="none" stroke="black" d="M934.898,-1214.62C830.088,-1151.17 624.482,-1026.7 514.136,-959.904"/>
<polygon fill="black" stroke="black" points="515.751,-956.79 505.384,-954.606 512.126,-962.779 515.751,-956.79"/>
<text text-anchor="middle" x="802.959" y="-1080.8" font-family="Times New Roman,serif" font-size="14.00"> &#160;&#160;&quot;index=0&quot;.input(&quot;admin&quot;) &#160;&#160;</text>
</g>
<!-- state_19 -->
<g id="node4" class="node"><title>state_19</title>
<g id="a_node4"><a xlink:href="19.png" xlink:title="&lt;TABLE&gt;">
<polygon fill="none" stroke="black" points="339.959,-377 209.959,-377 209.959,-87 339.959,-87 339.959,-377"/>
<text text-anchor="start" x="251.459" y="-365.8" font-family="Times New Roman,serif" font-size="14.00">state_19</text>
<text text-anchor="start" x="244.459" y="-350.8" font-family="Times New Roman,serif" font-size="14.00">incoming:4</text>
<text text-anchor="start" x="245.459" y="-335.8" font-family="Times New Roman,serif" font-size="14.00">outgoing:6</text>
<text text-anchor="start" x="256.959" y="-320.8" font-family="Times New Roman,serif" font-size="14.00">loop:1</text>
<image xlink:href="19.png" width="130px" height="230px" preserveAspectRatio="xMinYMin meet" x="209.959" y="-317"/>
</a>
</g>
</g>
<!-- state_1&#45;&gt;state_19 -->
<g id="edge8" class="edge"><title>state_1&#45;&gt;state_19</title>
<path fill="none" stroke="black" d="M934.555,-1247.73C812.341,-1233.23 545.473,-1188.08 365.959,-1059 229.168,-960.641 196.548,-911.389 144.959,-751 102.13,-617.848 154.918,-461.751 205.506,-355.986"/>
<polygon fill="black" stroke="black" points="208.713,-357.394 209.922,-346.868 202.413,-354.343 208.713,-357.394"/>
<text text-anchor="middle" x="208.959" y="-739.8" font-family="Times New Roman,serif" font-size="14.00"> &#160;&#160;press(&quot;MenuKey&quot;) &#160;&#160;</text>
</g>
<!-- activity_0 -->
<g id="node5" class="node"><title>activity_0</title>
<ellipse fill="none" stroke="red" cx="1247.96" cy="-573" rx="46.2923" ry="18"/>
<text text-anchor="middle" x="1247.96" y="-569.3" font-family="Times New Roman,serif" font-size="14.00" fill="red">activity_0</text>
</g>
<!-- state_1&#45;&gt;activity_0 -->
<g id="edge7" class="edge"><title>state_1&#45;&gt;activity_0</title>
<path fill="none" stroke="red" d="M1065.02,-1216.91C1117.34,-1183.13 1187.46,-1128.05 1220.96,-1059 1260.49,-977.515 1252.69,-691.342 1249.16,-601.322"/>
<polygon fill="red" stroke="red" points="1252.65,-600.959 1248.74,-591.11 1245.65,-601.245 1252.65,-600.959"/>
<text text-anchor="middle" x="1314.46" y="-910.3" font-family="Times New Roman,serif" font-size="14.00" fill="red"> &#160;&#160;press(&quot;BackKey&quot;) &#160;&#160;</text>
</g>
<!-- state_8&#45;&gt;state_8 -->
<g id="edge9" class="edge"><title>state_8&#45;&gt;state_8</title>
<path fill="none" stroke="black" d="M505.03,-919.898C515.656,-919.054 522.959,-917.088 522.959,-914 522.959,-912.022 519.962,-910.504 515.014,-909.447"/>
<polygon fill="black" stroke="black" points="515.408,-905.968 505.03,-908.102 514.474,-912.905 515.408,-905.968"/>
<text text-anchor="middle" x="574.959" y="-910.3" font-family="Times New Roman,serif" font-size="14.00"> &#160;&#160;click(&quot;admin&quot;) &#160;&#160;</text>
</g>
<!-- state_8&#45;&gt;state_8 -->
<g id="edge10" class="edge"><title>state_8&#45;&gt;state_8</title>
<path fill="none" stroke="black" d="M505.03,-925.442C560.135,-929.037 626.959,-925.223 626.959,-914 626.959,-903.457 567.982,-899.452 515.151,-901.987"/>
<polygon fill="black" stroke="black" points="514.817,-898.5 505.03,-902.558 515.211,-905.489 514.817,-898.5"/>
<text text-anchor="middle" x="697.959" y="-910.3" font-family="Times New Roman,serif" font-size="14.00"> &#160;&#160;longClick(&quot;index=0&quot;) &#160;&#160;</text>
</g>
<!-- state_8&#45;&gt;state_8 -->
<g id="edge11" class="edge"><title>state_8&#45;&gt;state_8</title>
<path fill="none" stroke="black" d="M505.055,-928.04C602.8,-938.004 768.959,-933.324 768.959,-914 768.959,-895.336 613.965,-890.333 515.308,-898.989"/>
<polygon fill="black" stroke="black" points="514.68,-895.533 505.055,-899.96 515.34,-902.502 514.68,-895.533"/>
<text text-anchor="middle" x="851.959" y="-910.3" font-family="Times New Roman,serif" font-size="14.00"> &#160;&#160;&quot;index=0&quot;.input(&quot;admin&quot;) &#160;&#160;</text>
</g>
<!-- state_8&#45;&gt;state_8 -->
<g id="edge12" class="edge"><title>state_8&#45;&gt;state_8</title>
<path fill="none" stroke="black" d="M505.062,-929.848C641.883,-946.742 934.959,-941.459 934.959,-914 934.959,-887.211 656.019,-881.53 515.356,-896.954"/>
<polygon fill="black" stroke="black" points="514.59,-893.52 505.062,-898.152 515.399,-900.473 514.59,-893.52"/>
<text text-anchor="middle" x="987.959" y="-910.3" font-family="Times New Roman,serif" font-size="14.00"> &#160;&#160;swipe(&quot;Right&quot;) &#160;&#160;</text>
</g>
<!-- state_8&#45;&gt;state_8 -->
<g id="edge13" class="edge"><title>state_8&#45;&gt;state_8</title>
<path fill="none" stroke="black" d="M505.107,-932.107C663.786,-955.252 1040.96,-949.216 1040.96,-914 1040.96,-879.506 679.098,-873.008 515.14,-894.506"/>
<polygon fill="black" stroke="black" points="514.534,-891.057 505.107,-895.893 515.492,-897.991 514.534,-891.057"/>
<text text-anchor="middle" x="1090.46" y="-910.3" font-family="Times New Roman,serif" font-size="14.00"> &#160;&#160;swipe(&quot;Left&quot;) &#160;&#160;</text>
</g>
<!-- state_16 -->
<g id="node3" class="node"><title>state_16</title>
<g id="a_node3"><a xlink:href="16.png" xlink:title="&lt;TABLE&gt;">
<polygon fill="none" stroke="black" points="641.959,-718 511.959,-718 511.959,-428 641.959,-428 641.959,-718"/>
<text text-anchor="start" x="553.459" y="-706.8" font-family="Times New Roman,serif" font-size="14.00">state_16</text>
<text text-anchor="start" x="546.459" y="-691.8" font-family="Times New Roman,serif" font-size="14.00">incoming:1</text>
<text text-anchor="start" x="547.459" y="-676.8" font-family="Times New Roman,serif" font-size="14.00">outgoing:6</text>
<text text-anchor="start" x="558.959" y="-661.8" font-family="Times New Roman,serif" font-size="14.00">loop:0</text>
<image xlink:href="16.png" width="130px" height="230px" preserveAspectRatio="xMinYMin meet" x="511.959" y="-658"/>
</a>
</g>
</g>
<!-- state_8&#45;&gt;state_16 -->
<g id="edge15" class="edge"><title>state_8&#45;&gt;state_16</title>
<path fill="none" stroke="black" d="M505.33,-908.379C598.597,-897.864 766.96,-863.46 842.959,-751 898.134,-669.353 748.639,-615.788 651.962,-590.647"/>
<polygon fill="black" stroke="black" points="652.754,-587.237 642.199,-588.157 651.024,-594.02 652.754,-587.237"/>
<text text-anchor="middle" x="913.959" y="-739.8" font-family="Times New Roman,serif" font-size="14.00"> &#160;&#160;press(&quot;MenuKey&quot;) &#160;&#160;</text>
</g>
<!-- state_8&#45;&gt;activity_0 -->
<g id="edge14" class="edge"><title>state_8&#45;&gt;activity_0</title>
<path fill="none" stroke="red" d="M505.217,-900.073C609.376,-878.01 818.148,-827.876 981.959,-751 1076.03,-706.851 1174.87,-632.53 1221.12,-595.84"/>
<polygon fill="red" stroke="red" points="1223.5,-598.417 1229.13,-589.442 1219.13,-592.948 1223.5,-598.417"/>
<text text-anchor="middle" x="1067.46" y="-739.8" font-family="Times New Roman,serif" font-size="14.00" fill="red"> &#160;&#160;press(&quot;BackKey&quot;) &#160;&#160;</text>
</g>
<!-- activity_3 -->
<g id="node6" class="node"><title>activity_3</title>
<ellipse fill="none" stroke="red" cx="447.959" cy="-573" rx="46.2923" ry="18"/>
<text text-anchor="middle" x="447.959" y="-569.3" font-family="Times New Roman,serif" font-size="14.00" fill="red">activity_3</text>
</g>
<!-- state_8&#45;&gt;activity_3 -->
<g id="edge16" class="edge"><title>state_8&#45;&gt;activity_3</title>
<path fill="none" stroke="red" d="M440.328,-768.581C440.493,-757.555 440.7,-746.599 440.959,-736 442.114,-688.672 444.773,-633.615 446.46,-601.408"/>
<polygon fill="red" stroke="red" points="449.977,-601.191 447.013,-591.019 442.987,-600.819 449.977,-601.191"/>
<text text-anchor="middle" x="492.459" y="-739.8" font-family="Times New Roman,serif" font-size="14.00" fill="red"> &#160;&#160;click(&quot;Login&quot;) &#160;&#160;</text>
</g>
<!-- state_16&#45;&gt;state_8 -->
<g id="edge19" class="edge"><title>state_16&#45;&gt;state_8</title>
<path fill="none" stroke="black" d="M554.923,-718.307C551.741,-729.52 548.107,-740.539 543.959,-751 535.134,-773.255 523.105,-795.738 510.356,-816.581"/>
<polygon fill="black" stroke="black" points="507.368,-814.759 505.052,-825.098 513.31,-818.459 507.368,-814.759"/>
<text text-anchor="middle" x="611.459" y="-739.8" font-family="Times New Roman,serif" font-size="14.00"> &#160;&#160;press(&quot;BackKey&quot;) &#160;&#160;</text>
</g>
<!-- state_16&#45;&gt;state_8 -->
<g id="edge20" class="edge"><title>state_16&#45;&gt;state_8</title>
<path fill="none" stroke="black" d="M642.265,-631.278C673.287,-665.682 699.383,-710.5 677.959,-751 643.697,-815.766 570.636,-859.478 514.443,-885.011"/>
<polygon fill="black" stroke="black" points="512.942,-881.848 505.225,-889.107 515.784,-888.245 512.942,-881.848"/>
<text text-anchor="middle" x="746.959" y="-739.8" font-family="Times New Roman,serif" font-size="14.00"> &#160;&#160;press(&quot;MenuKey&quot;) &#160;&#160;</text>
</g>
<!-- state_16&#45;&gt;state_19 -->
<g id="edge17" class="edge"><title>state_16&#45;&gt;state_19</title>
<path fill="none" stroke="black" d="M511.806,-435.872C508.968,-433.105 506.02,-430.472 502.959,-428 478.969,-408.629 462.284,-426.053 435.959,-410 402.588,-389.651 371.998,-360.35 346.653,-331.425"/>
<polygon fill="black" stroke="black" points="349.165,-328.978 339.986,-323.687 343.862,-333.547 349.165,-328.978"/>
<text text-anchor="middle" x="488.959" y="-398.8" font-family="Times New Roman,serif" font-size="14.00"> &#160;&#160;swipe(&quot;Right&quot;) &#160;&#160;</text>
</g>
<!-- state_16&#45;&gt;state_19 -->
<g id="edge18" class="edge"><title>state_16&#45;&gt;state_19</title>
<path fill="none" stroke="black" d="M511.693,-434.611C508.895,-432.258 505.985,-430.047 502.959,-428 467.464,-403.988 342.84,-438.636 310.959,-410 303.26,-403.085 296.948,-395.012 291.793,-386.194"/>
<polygon fill="black" stroke="black" points="294.778,-384.352 287.015,-377.142 288.588,-387.62 294.778,-384.352"/>
<text text-anchor="middle" x="360.459" y="-398.8" font-family="Times New Roman,serif" font-size="14.00"> &#160;&#160;swipe(&quot;Left&quot;) &#160;&#160;</text>
</g>
<!-- activity_4 -->
<g id="node7" class="node"><title>activity_4</title>
<ellipse fill="none" stroke="red" cx="351.959" cy="-18" rx="46.2923" ry="18"/>
<text text-anchor="middle" x="351.959" y="-14.3" font-family="Times New Roman,serif" font-size="14.00" fill="red">activity_4</text>
</g>
<!-- state_16&#45;&gt;activity_4 -->
<g id="edge21" class="edge"><title>state_16&#45;&gt;activity_4</title>
<path fill="none" stroke="red" d="M570.865,-427.723C563.436,-284.151 548.708,-81.3237 523.959,-54 508.491,-36.9232 451.28,-27.8084 407.04,-23.208"/>
<polygon fill="red" stroke="red" points="407.259,-19.7127 396.963,-22.2134 406.571,-26.6788 407.259,-19.7127"/>
<text text-anchor="middle" x="624.459" y="-228.3" font-family="Times New Roman,serif" font-size="14.00" fill="red"> &#160;&#160;click(&quot;index=0&quot;) &#160;&#160;</text>
</g>
<!-- state_16&#45;&gt;activity_4 -->
<g id="edge22" class="edge"><title>state_16&#45;&gt;activity_4</title>
<path fill="none" stroke="red" d="M642.098,-473.433C703.364,-367.108 773.52,-198.152 684.959,-87 651.039,-44.428 493.047,-27.8994 407.439,-21.9876"/>
<polygon fill="red" stroke="red" points="407.582,-18.4894 397.371,-21.3183 407.117,-25.474 407.582,-18.4894"/>
<text text-anchor="middle" x="783.459" y="-228.3" font-family="Times New Roman,serif" font-size="14.00" fill="red"> &#160;&#160;click(&quot;index=0&quot;) &#160;&#160;</text>
</g>
<!-- state_19&#45;&gt;state_8 -->
<g id="edge24" class="edge"><title>state_19&#45;&gt;state_8</title>
<path fill="none" stroke="black" d="M245.788,-377.047C232.141,-476.134 226.756,-609.002 267.959,-718 288.01,-771.046 329.802,-818.988 367.168,-854.061"/>
<polygon fill="black" stroke="black" points="364.853,-856.688 374.574,-860.902 369.603,-851.546 364.853,-856.688"/>
<text text-anchor="middle" x="330.459" y="-569.3" font-family="Times New Roman,serif" font-size="14.00"> &#160;&#160;press(&quot;BackKey&quot;) &#160;&#160;</text>
</g>
<!-- state_19&#45;&gt;state_19 -->
<g id="edge23" class="edge"><title>state_19&#45;&gt;state_19</title>
<path fill="none" stroke="black" d="M340.03,-261.492C350.656,-257.27 357.959,-247.439 357.959,-232 357.959,-221.385 354.507,-213.422 348.897,-208.109"/>
<polygon fill="black" stroke="black" points="350.354,-204.89 340.03,-202.508 346.616,-210.808 350.354,-204.89"/>
<text text-anchor="middle" x="410.959" y="-228.3" font-family="Times New Roman,serif" font-size="14.00"> &#160;&#160;swipe(&quot;Right&quot;) &#160;&#160;</text>
</g>
<!-- state_19&#45;&gt;activity_4 -->
<g id="edge25" class="edge"><title>state_19&#45;&gt;activity_4</title>
<path fill="none" stroke="red" d="M209.89,-214.759C112.909,-187.631 -51.3124,-128.642 15.9587,-54 34.3187,-33.6282 205.214,-24.3412 295.95,-20.8161"/>
<polygon fill="red" stroke="red" points="296.209,-24.3089 306.07,-20.4339 295.945,-17.3138 296.209,-24.3089"/>
<text text-anchor="middle" x="73.4587" y="-57.8" font-family="Times New Roman,serif" font-size="14.00" fill="red"> &#160;&#160;click(&quot;index=0&quot;) &#160;&#160;</text>
</g>
<!-- state_19&#45;&gt;activity_4 -->
<g id="edge26" class="edge"><title>state_19&#45;&gt;activity_4</title>
<path fill="none" stroke="red" d="M209.62,-185.61C164.529,-148.773 118.556,-96.2093 153.959,-54 171.782,-32.7496 243.768,-24.395 295.81,-21.1145"/>
<polygon fill="red" stroke="red" points="296.151,-24.6007 305.93,-20.5238 295.743,-17.6126 296.151,-24.6007"/>
<text text-anchor="middle" x="211.459" y="-57.8" font-family="Times New Roman,serif" font-size="14.00" fill="red"> &#160;&#160;click(&quot;index=0&quot;) &#160;&#160;</text>
</g>
<!-- state_19&#45;&gt;activity_4 -->
<g id="edge27" class="edge"><title>state_19&#45;&gt;activity_4</title>
<path fill="none" stroke="red" d="M276.907,-86.9318C280.563,-75.3002 285.469,-64.141 291.959,-54 296.63,-46.6991 303.409,-40.7389 310.742,-35.942"/>
<polygon fill="red" stroke="red" points="312.632,-38.8914 319.513,-30.8347 309.11,-32.8422 312.632,-38.8914"/>
<text text-anchor="middle" x="341.459" y="-57.8" font-family="Times New Roman,serif" font-size="14.00" fill="red"> &#160;&#160;swipe(&quot;Left&quot;) &#160;&#160;</text>
</g>
<!-- state_19&#45;&gt;activity_4 -->
<g id="edge28" class="edge"><title>state_19&#45;&gt;activity_4</title>
<path fill="none" stroke="red" d="M340.212,-160.136C360.569,-133.54 380.436,-101.771 390.959,-69 392.997,-62.6526 393.675,-60.0881 390.959,-54 388.835,-49.241 385.709,-44.8595 382.136,-40.9246"/>
<polygon fill="red" stroke="red" points="384.493,-38.3354 374.859,-33.9266 379.641,-43.3809 384.493,-38.3354"/>
<text text-anchor="middle" x="455.959" y="-57.8" font-family="Times New Roman,serif" font-size="14.00" fill="red"> &#160;&#160;press(&quot;MenuKey&quot;) &#160;&#160;</text>
</g>
<!-- activity_0&#45;&gt;state_1 -->
<g id="edge29" class="edge"><title>activity_0&#45;&gt;state_1</title>
<path fill="none" stroke="red" d="M1264.39,-590.372C1294.55,-621.722 1357.76,-693.818 1380.96,-769 1418.96,-892.159 1448.2,-949.043 1380.96,-1059 1314.45,-1167.76 1165.96,-1218.33 1075.25,-1239.85"/>
<polygon fill="red" stroke="red" points="1074.25,-1236.49 1065.3,-1242.15 1075.83,-1243.31 1074.25,-1236.49"/>
<text text-anchor="middle" x="1466.46" y="-910.3" font-family="Times New Roman,serif" font-size="14.00" fill="red"> &#160;&#160;click(&quot;OK&quot;) &#160;&#160;</text>
</g>
<!-- activity_3&#45;&gt;state_8 -->
<g id="edge30" class="edge"><title>activity_3&#45;&gt;state_8</title>
<path fill="none" stroke="red" d="M445.88,-591.146C441.255,-621.528 427.222,-684.739 387.959,-718 361.142,-740.717 332.799,-708.465 310.959,-736 277.299,-778.436 321.039,-828.449 366.465,-864.468"/>
<polygon fill="red" stroke="red" points="364.598,-867.449 374.649,-870.8 368.881,-861.912 364.598,-867.449"/>
<text text-anchor="middle" x="373.459" y="-739.8" font-family="Times New Roman,serif" font-size="14.00" fill="red"> &#160;&#160;press(&quot;BackKey&quot;) &#160;&#160;</text>
</g>
</g>
</svg>
