<?xml version="1.0" encoding="UTF-8" standalone="no"?>
<!DOCTYPE svg PUBLIC "-//W3C//DTD SVG 1.1//EN"
 "http://www.w3.org/Graphics/SVG/1.1/DTD/svg11.dtd">
<!-- Generated by graphviz version 2.38.0 (20140413.2041)
 -->
<!-- Title: result Pages: 1 -->
<svg width="989pt" height="576pt"
 viewBox="0.00 0.00 989.00 576.00" xmlns="http://www.w3.org/2000/svg" xmlns:xlink="http://www.w3.org/1999/xlink">
<g id="graph0" class="graph" transform="scale(1 1) rotate(0) translate(4 572)">
<title>result</title>
<polygon fill="white" stroke="none" points="-4,4 -4,-572 985,-572 985,4 -4,4"/>
<!-- initial -->
<g id="node1" class="node"><title>initial</title>
<image xlink:href="-1.png" width="50px" height="50px" preserveAspectRatio="xMinYMin meet" x="0" y="-200.5"/>
</g>
<!-- activity_0 -->
<g id="node2" class="node"><title>activity_0</title>
<g id="a_node2"><a xlink:href="activity_0.svg" xlink:title="&lt;TABLE&gt;">
<polygon fill="none" stroke="black" points="217,-313 87,-313 87,-38 217,-38 217,-313"/>
<text text-anchor="start" x="124.5" y="-301.3" font-family="Times New Roman,serif" font-size="14.00">activity_0</text>
<text text-anchor="start" x="121.5" y="-286.3" font-family="Times New Roman,serif" font-size="14.00">incoming:2</text>
<text text-anchor="start" x="122.5" y="-271.3" font-family="Times New Roman,serif" font-size="14.00">outgoing:2</text>
<image xlink:href="0.png" width="130px" height="230px" preserveAspectRatio="xMinYMin meet" x="87" y="-267.5"/>
</a>
</g>
</g>
<!-- initial&#45;&gt;activity_0 -->
<g id="edge1" class="edge"><title>initial&#45;&gt;activity_0</title>
<path fill="none" stroke="black" d="M50.1013,-175.5C57.9994,-175.5 67.2332,-175.5 76.8484,-175.5"/>
<polygon fill="black" stroke="black" points="76.9667,-179 86.9666,-175.5 76.9666,-172 76.9667,-179"/>
</g>
<!-- activity_1 -->
<g id="node3" class="node"><title>activity_1</title>
<g id="a_node3"><a xlink:href="activity_1.svg" xlink:title="&lt;TABLE&gt;">
<polygon fill="none" stroke="black" points="591,-351 461,-351 461,-76 591,-76 591,-351"/>
<text text-anchor="start" x="498.5" y="-339.3" font-family="Times New Roman,serif" font-size="14.00">activity_1</text>
<text text-anchor="start" x="495.5" y="-324.3" font-family="Times New Roman,serif" font-size="14.00">incoming:2</text>
<text text-anchor="start" x="496.5" y="-309.3" font-family="Times New Roman,serif" font-size="14.00">outgoing:9</text>
<image xlink:href="1.png" width="130px" height="230px" preserveAspectRatio="xMinYMin meet" x="461" y="-305.5"/>
</a>
</g>
</g>
<!-- activity_0&#45;&gt;activity_1 -->
<g id="edge2" class="edge"><title>activity_0&#45;&gt;activity_1</title>
<path fill="none" stroke="black" d="M217.136,-205.638C223.081,-207.586 229.092,-209.26 235,-210.5 307.201,-225.654 391.755,-224.444 450.868,-220.637"/>
<polygon fill="black" stroke="black" points="451.127,-224.128 460.864,-219.953 450.649,-217.144 451.127,-224.128"/>
<text text-anchor="middle" x="339" y="-227.3" font-family="Times New Roman,serif" font-size="14.00"> &#160;&#160;&lt;a0.s0,click(&quot;OK&quot;),a1.s1&gt; &#160;&#160;</text>
</g>
<!-- final -->
<g id="node4" class="node"><title>final</title>
<image xlink:href="-2.png" width="50px" height="50px" preserveAspectRatio="xMinYMin meet" x="501" y="-57.5"/>
</g>
<!-- activity_0&#45;&gt;final -->
<g id="edge3" class="edge"><title>activity_0&#45;&gt;final</title>
<path fill="none" stroke="black" d="M217.123,-134.458C223.071,-131.246 229.086,-128.205 235,-125.5 323.988,-84.8018 435.876,-54.3427 491.045,-40.5887"/>
<polygon fill="black" stroke="black" points="492.111,-43.9306 500.983,-38.1393 490.436,-37.134 492.111,-43.9306"/>
<text text-anchor="middle" x="339" y="-129.3" font-family="Times New Roman,serif" font-size="14.00"> &#160;&#160;&lt;a0.s0,press(&quot;BackKey&quot;),final&gt; &#160;&#160;</text>
</g>
<!-- activity_1&#45;&gt;activity_0 -->
<g id="edge4" class="edge"><title>activity_1&#45;&gt;activity_0</title>
<path fill="none" stroke="black" d="M460.814,-194.932C454.826,-193.609 448.822,-192.431 443,-191.5 370.313,-179.873 286.221,-176.304 227.369,-175.383"/>
<polygon fill="black" stroke="black" points="227.095,-171.879 217.049,-175.245 227.001,-178.879 227.095,-171.879"/>
<text text-anchor="middle" x="339" y="-195.3" font-family="Times New Roman,serif" font-size="14.00"> &#160;&#160;&lt;a1.s1,press(&quot;BackKey&quot;),a0.s0&gt; &#160;&#160;</text>
</g>
<!-- activity_1&#45;&gt;activity_0 -->
<g id="edge5" class="edge"><title>activity_1&#45;&gt;activity_0</title>
<path fill="none" stroke="black" d="M460.546,-164.569C454.813,-161.755 448.93,-159.332 443,-157.5 372.038,-135.581 286.777,-144.828 227.136,-156.643"/>
<polygon fill="black" stroke="black" points="226.142,-153.274 217.05,-158.714 227.55,-160.131 226.142,-153.274"/>
<text text-anchor="middle" x="339" y="-161.3" font-family="Times New Roman,serif" font-size="14.00"> &#160;&#160;&lt;a1.s8,press(&quot;BackKey&quot;),a0.s0&gt; &#160;&#160;</text>
</g>
<!-- activity_3 -->
<g id="node5" class="node"><title>activity_3</title>
<g id="a_node5"><a xlink:href="activity_3.svg" xlink:title="&lt;TABLE&gt;">
<polygon fill="none" stroke="black" points="981,-568 851,-568 851,-293 981,-293 981,-568"/>
<text text-anchor="start" x="888.5" y="-556.3" font-family="Times New Roman,serif" font-size="14.00">activity_3</text>
<text text-anchor="start" x="885.5" y="-541.3" font-family="Times New Roman,serif" font-size="14.00">incoming:1</text>
<text text-anchor="start" x="886.5" y="-526.3" font-family="Times New Roman,serif" font-size="14.00">outgoing:1</text>
<image xlink:href="12.png" width="130px" height="230px" preserveAspectRatio="xMinYMin meet" x="851" y="-522.5"/>
</a>
</g>
</g>
<!-- activity_1&#45;&gt;activity_3 -->
<g id="edge6" class="edge"><title>activity_1&#45;&gt;activity_3</title>
<path fill="none" stroke="black" d="M591.079,-343.343C596.637,-349.252 602.604,-354.703 609,-359.5 676.434,-410.078 773.988,-425.463 840.708,-429.715"/>
<polygon fill="black" stroke="black" points="840.549,-433.211 850.731,-430.285 840.946,-426.223 840.549,-433.211"/>
<text text-anchor="middle" x="721" y="-433.3" font-family="Times New Roman,serif" font-size="14.00"> &#160;&#160;&lt;a1.s8,click(&quot;Login&quot;),a3.s12&gt; &#160;&#160;</text>
</g>
<!-- activity_4 -->
<g id="node6" class="node"><title>activity_4</title>
<g id="a_node6"><a xlink:href="activity_4.svg" xlink:title="&lt;TABLE&gt;">
<polygon fill="none" stroke="black" points="981,-275 851,-275 851,-0 981,-0 981,-275"/>
<text text-anchor="start" x="888.5" y="-263.3" font-family="Times New Roman,serif" font-size="14.00">activity_4</text>
<text text-anchor="start" x="885.5" y="-248.3" font-family="Times New Roman,serif" font-size="14.00">incoming:6</text>
<text text-anchor="start" x="886.5" y="-233.3" font-family="Times New Roman,serif" font-size="14.00">outgoing:0</text>
<image xlink:href="17.png" width="130px" height="230px" preserveAspectRatio="xMinYMin meet" x="851" y="-229.5"/>
</a>
</g>
</g>
<!-- activity_1&#45;&gt;activity_4 -->
<g id="edge7" class="edge"><title>activity_1&#45;&gt;activity_4</title>
<path fill="none" stroke="black" d="M591.122,-243.704C597.07,-245.637 603.086,-247.291 609,-248.5 706.537,-268.445 744.117,-293.345 833,-248.5 836.352,-246.809 839.601,-244.908 842.748,-242.831"/>
<polygon fill="black" stroke="black" points="844.812,-245.657 850.835,-236.941 840.691,-239.999 844.812,-245.657"/>
<text text-anchor="middle" x="721" y="-278.3" font-family="Times New Roman,serif" font-size="14.00"> &#160;&#160;&lt;a1.s16,click(&quot;index=0&quot;),a4.s17&gt; &#160;&#160;</text>
</g>
<!-- activity_1&#45;&gt;activity_4 -->
<g id="edge8" class="edge"><title>activity_1&#45;&gt;activity_4</title>
<path fill="none" stroke="black" d="M591.118,-218.1C667.614,-222.683 790.503,-226.915 833,-210.5 835.928,-209.369 838.819,-208.081 841.665,-206.662"/>
<polygon fill="black" stroke="black" points="843.545,-209.622 850.593,-201.711 840.15,-203.5 843.545,-209.622"/>
<text text-anchor="middle" x="721" y="-226.3" font-family="Times New Roman,serif" font-size="14.00"> &#160;&#160;&lt;a1.s16,click(&quot;index=0&quot;),a4.s17&gt; &#160;&#160;</text>
</g>
<!-- activity_1&#45;&gt;activity_4 -->
<g id="edge9" class="edge"><title>activity_1&#45;&gt;activity_4</title>
<path fill="none" stroke="black" d="M591.217,-195.116C597.198,-193.753 603.193,-192.517 609,-191.5 707.415,-174.265 736.047,-196.639 833,-172.5 835.654,-171.839 838.333,-171.103 841.02,-170.304"/>
<polygon fill="black" stroke="black" points="842.312,-173.565 850.756,-167.167 840.165,-166.903 842.312,-173.565"/>
<text text-anchor="middle" x="721" y="-195.3" font-family="Times New Roman,serif" font-size="14.00"> &#160;&#160;&lt;a1.s19,click(&quot;index=0&quot;),a4.s17&gt; &#160;&#160;</text>
</g>
<!-- activity_1&#45;&gt;activity_4 -->
<g id="edge10" class="edge"><title>activity_1&#45;&gt;activity_4</title>
<path fill="none" stroke="black" d="M591.336,-161.444C597.096,-158.347 603.017,-155.63 609,-153.5 650.069,-138.881 763.97,-136.423 840.616,-136.546"/>
<polygon fill="black" stroke="black" points="840.693,-140.046 850.704,-136.577 840.715,-133.046 840.693,-140.046"/>
<text text-anchor="middle" x="721" y="-157.3" font-family="Times New Roman,serif" font-size="14.00"> &#160;&#160;&lt;a1.s19,click(&quot;index=0&quot;),a4.s17&gt; &#160;&#160;</text>
</g>
<!-- activity_1&#45;&gt;activity_4 -->
<g id="edge11" class="edge"><title>activity_1&#45;&gt;activity_4</title>
<path fill="none" stroke="black" d="M591.184,-129.053C596.814,-124.949 602.76,-121.357 609,-118.5 682.502,-84.8479 776.491,-97.812 840.79,-113.925"/>
<polygon fill="black" stroke="black" points="840.289,-117.411 850.847,-116.532 842.045,-110.635 840.289,-117.411"/>
<text text-anchor="middle" x="721" y="-122.3" font-family="Times New Roman,serif" font-size="14.00"> &#160;&#160;&lt;a1.s19,swipe(&quot;Left&quot;),a4.s17&gt; &#160;&#160;</text>
</g>
<!-- activity_1&#45;&gt;activity_4 -->
<g id="edge12" class="edge"><title>activity_1&#45;&gt;activity_4</title>
<path fill="none" stroke="black" d="M591.276,-91.1314C596.766,-86.3353 602.667,-82.0632 609,-78.5 695.766,-29.6844 738.246,-47.9543 833,-78.5 835.817,-79.4081 838.619,-80.4528 841.395,-81.6122"/>
<polygon fill="black" stroke="black" points="840.18,-84.9077 850.723,-85.9641 843.14,-78.5641 840.18,-84.9077"/>
<text text-anchor="middle" x="721" y="-82.3" font-family="Times New Roman,serif" font-size="14.00"> &#160;&#160;&lt;a1.s19,press(&quot;MenuKey&quot;),a4.s17&gt; &#160;&#160;</text>
</g>
<!-- activity_3&#45;&gt;activity_1 -->
<g id="edge13" class="edge"><title>activity_3&#45;&gt;activity_1</title>
<path fill="none" stroke="black" d="M850.777,-352.685C845.09,-348.15 839.147,-344.014 833,-340.5 744.69,-290.013 698.757,-341.368 609,-293.5 605.737,-291.76 602.515,-289.85 599.346,-287.805"/>
<polygon fill="black" stroke="black" points="601.305,-284.905 591.088,-282.099 597.326,-290.663 601.305,-284.905"/>
<text text-anchor="middle" x="721" y="-344.3" font-family="Times New Roman,serif" font-size="14.00"> &#160;&#160;&lt;a3.s12,press(&quot;BackKey&quot;),a1.s8&gt; &#160;&#160;</text>
</g>
</g>
</svg>
