<?xml version="1.0" encoding="UTF-8" standalone="no"?>
<!DOCTYPE svg PUBLIC "-//W3C//DTD SVG 1.1//EN"
 "http://www.w3.org/Graphics/SVG/1.1/DTD/svg11.dtd">
<!-- Generated by graphviz version 2.38.0 (20140413.2041)
 -->
<!-- Title: g Pages: 1 -->
<svg width="1708pt" height="1480pt"
 viewBox="0.00 0.00 1707.71 1480.00" xmlns="http://www.w3.org/2000/svg" xmlns:xlink="http://www.w3.org/1999/xlink">
<g id="graph0" class="graph" transform="scale(1 1) rotate(0) translate(4 1476)">
<title>g</title>
<polygon fill="white" stroke="none" points="-4,4 -4,-1476 1703.71,-1476 1703.71,4 -4,4"/>
<g id="clust1" class="cluster"><title>cluster_0</title>
<polygon fill="none" stroke="red" points="1123.71,-893 1123.71,-1162 1656.71,-1162 1656.71,-893 1123.71,-893"/>
<text text-anchor="middle" x="1390.21" y="-1146.8" font-family="Times New Roman,serif" font-size="14.00" fill="red"> &#160;&#160;activity_0 &#160;&#160;</text>
</g>
<g id="clust2" class="cluster"><title>cluster_1</title>
<polygon fill="none" stroke="red" points="123.713,-310 123.713,-1464 996.713,-1464 996.713,-310 123.713,-310"/>
<text text-anchor="middle" x="560.213" y="-1448.8" font-family="Times New Roman,serif" font-size="14.00" fill="red"> &#160;&#160;activity_1 &#160;&#160;</text>
</g>
<g id="clust4" class="cluster"><title>cluster_3</title>
<polygon fill="none" stroke="red" points="1004.71,-591 1004.71,-860 1537.71,-860 1537.71,-591 1004.71,-591"/>
<text text-anchor="middle" x="1271.21" y="-844.8" font-family="Times New Roman,serif" font-size="14.00" fill="red"> &#160;&#160;activity_3 &#160;&#160;</text>
</g>
<g id="clust3" class="cluster"><title>cluster_2</title>
<polygon fill="none" stroke="red" points="1545.71,-591 1545.71,-860 1691.71,-860 1691.71,-591 1545.71,-591"/>
<text text-anchor="middle" x="1618.71" y="-844.8" font-family="Times New Roman,serif" font-size="14.00" fill="red"> &#160;&#160;activity_2 &#160;&#160;</text>
</g>
<g id="clust5" class="cluster"><title>cluster_4</title>
<polygon fill="none" stroke="red" points="278.713,-8 278.713,-277 424.713,-277 424.713,-8 278.713,-8"/>
<text text-anchor="middle" x="351.713" y="-261.8" font-family="Times New Roman,serif" font-size="14.00" fill="red"> &#160;&#160;activity_4 &#160;&#160;</text>
</g>
<!-- state_0 -->
<g id="node1" class="node"><title>state_0</title>
<g id="a_node1"><a xlink:href="0.png">
<polygon fill="none" stroke="black" points="1261.71,-1131 1131.71,-1131 1131.71,-901 1261.71,-901 1261.71,-1131"/>
<image xlink:href="0.png" width="130px" height="230px" preserveAspectRatio="xMinYMin meet" x="1131.71" y="-1131"/>
</a>
</g>
</g>
<!-- state_0&#45;&gt;state_0 -->
<g id="edge1" class="edge"><title>state_0&#45;&gt;state_0</title>
<path fill="none" stroke="black" d="M1261.78,-1024.1C1272.41,-1022.94 1279.71,-1020.24 1279.71,-1016 1279.71,-1013.28 1276.72,-1011.2 1271.77,-1009.75"/>
<polygon fill="black" stroke="black" points="1272.25,-1006.28 1261.78,-1007.9 1270.98,-1013.16 1272.25,-1006.28"/>
<text text-anchor="middle" x="1332.71" y="-1012.3" font-family="Times New Roman,serif" font-size="14.00"> &#160;&#160;swipe(&quot;Right&quot;) &#160;&#160;</text>
</g>
<!-- state_0&#45;&gt;state_0 -->
<g id="edge2" class="edge"><title>state_0&#45;&gt;state_0</title>
<path fill="none" stroke="black" d="M1261.83,-1031.66C1317.62,-1036.67 1385.71,-1031.45 1385.71,-1016 1385.71,-1001.49 1325.61,-996 1272.08,-999.542"/>
<polygon fill="black" stroke="black" points="1271.52,-996.075 1261.83,-1000.34 1272.07,-1003.05 1271.52,-996.075"/>
<text text-anchor="middle" x="1435.21" y="-1012.3" font-family="Times New Roman,serif" font-size="14.00"> &#160;&#160;swipe(&quot;Left&quot;) &#160;&#160;</text>
</g>
<!-- state_0&#45;&gt;state_0 -->
<g id="edge3" class="edge"><title>state_0&#45;&gt;state_0</title>
<path fill="none" stroke="black" d="M1261.86,-1036.19C1348.64,-1048.64 1484.71,-1041.91 1484.71,-1016 1484.71,-991.079 1358.81,-983.902 1271.98,-994.471"/>
<polygon fill="black" stroke="black" points="1271.31,-991.028 1261.86,-995.81 1272.23,-997.968 1271.31,-991.028"/>
<text text-anchor="middle" x="1548.71" y="-1012.3" font-family="Times New Roman,serif" font-size="14.00"> &#160;&#160;press(&quot;MenuKey&quot;) &#160;&#160;</text>
</g>
<!-- state_1 -->
<g id="node2" class="node"><title>state_1</title>
<g id="a_node2"><a xlink:href="1.png">
<polygon fill="none" stroke="black" points="320.713,-1433 190.713,-1433 190.713,-1203 320.713,-1203 320.713,-1433"/>
<image xlink:href="1.png" width="130px" height="230px" preserveAspectRatio="xMinYMin meet" x="190.713" y="-1433"/>
</a>
</g>
</g>
<!-- state_0&#45;&gt;state_1 -->
<g id="edge4" class="edge"><title>state_0&#45;&gt;state_1</title>
<path fill="none" stroke="black" d="M1131.36,-1079.15C1095.58,-1109.4 1048.81,-1143.22 1000.71,-1162 969.899,-1174.03 959.362,-1164.67 926.713,-1170 708.405,-1205.61 454.207,-1266.78 330.721,-1297.79"/>
<polygon fill="black" stroke="black" points="329.823,-1294.4 320.979,-1300.24 331.531,-1301.19 329.823,-1294.4"/>
<text text-anchor="middle" x="972.213" y="-1173.8" font-family="Times New Roman,serif" font-size="14.00"> &#160;&#160;click(&quot;OK&quot;) &#160;&#160;</text>
</g>
<!-- state_final -->
<g id="node6" class="node"><title>state_final</title>
<g id="a_node6"><a xlink:href="-2.png">
<polygon fill="none" stroke="black" points="1683.71,-829 1553.71,-829 1553.71,-599 1683.71,-599 1683.71,-829"/>
<image xlink:href="-2.png" width="76px" height="74px" preserveAspectRatio="xMinYMin meet" x="1580.71" y="-751"/>
</a>
</g>
</g>
<!-- state_0&#45;&gt;state_final -->
<g id="edge5" class="edge"><title>state_0&#45;&gt;state_final</title>
<path fill="none" stroke="black" d="M1261.77,-999.556C1337.03,-978.841 1460.94,-935.615 1541.71,-860 1548.97,-853.207 1555.68,-845.573 1561.85,-837.454"/>
<polygon fill="black" stroke="black" points="1564.81,-839.337 1567.85,-829.187 1559.15,-835.226 1564.81,-839.337"/>
<text text-anchor="middle" x="1588.21" y="-871.8" font-family="Times New Roman,serif" font-size="14.00"> &#160;&#160;press(&quot;BackKey&quot;) &#160;&#160;</text>
</g>
<!-- state_1&#45;&gt;state_0 -->
<g id="edge12" class="edge"><title>state_1&#45;&gt;state_0</title>
<path fill="none" stroke="black" d="M320.904,-1310.56C482.032,-1293.88 894.86,-1246.27 1017.71,-1185 1057.44,-1165.19 1094.46,-1133.69 1124.42,-1103.3"/>
<polygon fill="black" stroke="black" points="1127.03,-1105.63 1131.48,-1096.01 1122.01,-1100.75 1127.03,-1105.63"/>
<text text-anchor="middle" x="1103.21" y="-1173.8" font-family="Times New Roman,serif" font-size="14.00"> &#160;&#160;press(&quot;BackKey&quot;) &#160;&#160;</text>
</g>
<!-- state_1&#45;&gt;state_1 -->
<g id="edge6" class="edge"><title>state_1&#45;&gt;state_1</title>
<path fill="none" stroke="black" d="M320.785,-1322.86C331.41,-1322.16 338.713,-1320.54 338.713,-1318 338.713,-1316.37 335.716,-1315.12 330.768,-1314.25"/>
<polygon fill="black" stroke="black" points="331.11,-1310.77 320.785,-1313.14 330.338,-1317.72 331.11,-1310.77"/>
<text text-anchor="middle" x="396.213" y="-1314.3" font-family="Times New Roman,serif" font-size="14.00"> &#160;&#160;click(&quot;index=0&quot;) &#160;&#160;</text>
</g>
<!-- state_1&#45;&gt;state_1 -->
<g id="edge7" class="edge"><title>state_1&#45;&gt;state_1</title>
<path fill="none" stroke="black" d="M320.894,-1327.27C379.746,-1330.48 453.713,-1327.39 453.713,-1318 453.713,-1309.14 387.887,-1305.89 331.023,-1308.24"/>
<polygon fill="black" stroke="black" points="330.715,-1304.75 320.894,-1308.73 331.05,-1311.74 330.715,-1304.75"/>
<text text-anchor="middle" x="524.713" y="-1314.3" font-family="Times New Roman,serif" font-size="14.00"> &#160;&#160;longClick(&quot;index=0&quot;) &#160;&#160;</text>
</g>
<!-- state_1&#45;&gt;state_1 -->
<g id="edge9" class="edge"><title>state_1&#45;&gt;state_1</title>
<path fill="none" stroke="black" d="M320.879,-1329.43C421.455,-1337.81 595.713,-1334 595.713,-1318 595.713,-1302.54 432.835,-1298.46 331.132,-1305.77"/>
<polygon fill="black" stroke="black" points="330.579,-1302.3 320.879,-1306.57 331.119,-1309.28 330.579,-1302.3"/>
<text text-anchor="middle" x="647.213" y="-1314.3" font-family="Times New Roman,serif" font-size="14.00"> &#160;&#160;click(&quot;Login&quot;) &#160;&#160;</text>
</g>
<!-- state_1&#45;&gt;state_1 -->
<g id="edge10" class="edge"><title>state_1&#45;&gt;state_1</title>
<path fill="none" stroke="black" d="M320.793,-1331.6C446.402,-1344.84 698.713,-1340.31 698.713,-1318 698.713,-1296.28 459.532,-1291.41 330.986,-1303.39"/>
<polygon fill="black" stroke="black" points="330.399,-1299.93 320.793,-1304.4 331.089,-1306.9 330.399,-1299.93"/>
<text text-anchor="middle" x="751.713" y="-1314.3" font-family="Times New Roman,serif" font-size="14.00"> &#160;&#160;swipe(&quot;Right&quot;) &#160;&#160;</text>
</g>
<!-- state_1&#45;&gt;state_1 -->
<g id="edge11" class="edge"><title>state_1&#45;&gt;state_1</title>
<path fill="none" stroke="black" d="M320.731,-1333.41C469.254,-1351.88 804.713,-1346.75 804.713,-1318 804.713,-1289.9 484.154,-1284.36 331.016,-1301.38"/>
<polygon fill="black" stroke="black" points="330.254,-1297.95 320.731,-1302.59 331.072,-1304.9 330.254,-1297.95"/>
<text text-anchor="middle" x="854.213" y="-1314.3" font-family="Times New Roman,serif" font-size="14.00"> &#160;&#160;swipe(&quot;Left&quot;) &#160;&#160;</text>
</g>
<!-- state_8 -->
<g id="node3" class="node"><title>state_8</title>
<g id="a_node3"><a xlink:href="8.png">
<polygon fill="none" stroke="black" points="281.713,-1131 151.713,-1131 151.713,-901 281.713,-901 281.713,-1131"/>
<image xlink:href="8.png" width="130px" height="230px" preserveAspectRatio="xMinYMin meet" x="151.713" y="-1131"/>
</a>
</g>
</g>
<!-- state_1&#45;&gt;state_8 -->
<g id="edge8" class="edge"><title>state_1&#45;&gt;state_8</title>
<path fill="none" stroke="black" d="M240.857,-1202.73C238.249,-1182.66 235.523,-1161.69 232.881,-1141.37"/>
<polygon fill="black" stroke="black" points="236.352,-1140.92 231.592,-1131.45 229.41,-1141.82 236.352,-1140.92"/>
<text text-anchor="middle" x="321.713" y="-1173.8" font-family="Times New Roman,serif" font-size="14.00"> &#160;&#160;&quot;index=0&quot;.input(&quot;admin&quot;) &#160;&#160;</text>
</g>
<!-- state_19 -->
<g id="node5" class="node"><title>state_19</title>
<g id="a_node5"><a xlink:href="19.png">
<polygon fill="none" stroke="black" points="347.713,-548 217.713,-548 217.713,-318 347.713,-318 347.713,-548"/>
<image xlink:href="19.png" width="130px" height="230px" preserveAspectRatio="xMinYMin meet" x="217.713" y="-548"/>
</a>
</g>
</g>
<!-- state_1&#45;&gt;state_19 -->
<g id="edge13" class="edge"><title>state_1&#45;&gt;state_19</title>
<path fill="none" stroke="black" d="M190.67,-1247.44C171.367,-1222.41 152.72,-1192.71 142.713,-1162 75.3634,-955.292 157.845,-704.415 221.754,-557.653"/>
<polygon fill="black" stroke="black" points="225.116,-558.701 225.934,-548.138 218.707,-555.885 225.116,-558.701"/>
<text text-anchor="middle" x="191.713" y="-871.8" font-family="Times New Roman,serif" font-size="14.00"> &#160;&#160;press(&quot;MenuKey&quot;) &#160;&#160;</text>
</g>
<!-- state_8&#45;&gt;state_0 -->
<g id="edge19" class="edge"><title>state_8&#45;&gt;state_0</title>
<path fill="none" stroke="black" d="M281.772,-1016C456.521,-1016 935.434,-1016 1121.44,-1016"/>
<polygon fill="black" stroke="black" points="1121.68,-1019.5 1131.68,-1016 1121.68,-1012.5 1121.68,-1019.5"/>
<text text-anchor="middle" x="706.713" y="-1022.8" font-family="Times New Roman,serif" font-size="14.00"> &#160;&#160;press(&quot;BackKey&quot;) &#160;&#160;</text>
</g>
<!-- state_8&#45;&gt;state_8 -->
<g id="edge14" class="edge"><title>state_8&#45;&gt;state_8</title>
<path fill="none" stroke="black" d="M281.785,-1020.86C292.41,-1020.16 299.713,-1018.54 299.713,-1016 299.713,-1014.37 296.716,-1013.12 291.768,-1012.25"/>
<polygon fill="black" stroke="black" points="292.11,-1008.77 281.785,-1011.14 291.338,-1015.72 292.11,-1008.77"/>
<text text-anchor="middle" x="351.713" y="-1012.3" font-family="Times New Roman,serif" font-size="14.00"> &#160;&#160;click(&quot;admin&quot;) &#160;&#160;</text>
</g>
<!-- state_8&#45;&gt;state_8 -->
<g id="edge15" class="edge"><title>state_8&#45;&gt;state_8</title>
<path fill="none" stroke="black" d="M281.784,-1025.42C336.889,-1028.38 403.713,-1025.24 403.713,-1016 403.713,-1007.32 344.736,-1004.02 291.905,-1006.11"/>
<polygon fill="black" stroke="black" points="291.611,-1002.62 281.784,-1006.58 291.936,-1009.61 291.611,-1002.62"/>
<text text-anchor="middle" x="474.713" y="-1012.3" font-family="Times New Roman,serif" font-size="14.00"> &#160;&#160;longClick(&quot;index=0&quot;) &#160;&#160;</text>
</g>
<!-- state_8&#45;&gt;state_8 -->
<g id="edge16" class="edge"><title>state_8&#45;&gt;state_8</title>
<path fill="none" stroke="black" d="M281.809,-1027.56C379.555,-1035.77 545.713,-1031.91 545.713,-1016 545.713,-1000.63 390.719,-996.509 292.062,-1003.64"/>
<polygon fill="black" stroke="black" points="291.507,-1000.17 281.809,-1004.44 292.051,-1007.15 291.507,-1000.17"/>
<text text-anchor="middle" x="628.713" y="-1012.3" font-family="Times New Roman,serif" font-size="14.00"> &#160;&#160;&quot;index=0&quot;.input(&quot;admin&quot;) &#160;&#160;</text>
</g>
<!-- state_8&#45;&gt;state_8 -->
<g id="edge17" class="edge"><title>state_8&#45;&gt;state_8</title>
<path fill="none" stroke="black" d="M281.816,-1029.05C418.637,-1042.96 711.713,-1038.61 711.713,-1016 711.713,-993.939 432.773,-989.26 292.11,-1001.96"/>
<polygon fill="black" stroke="black" points="291.437,-998.511 281.816,-1002.95 292.104,-1005.48 291.437,-998.511"/>
<text text-anchor="middle" x="764.713" y="-1012.3" font-family="Times New Roman,serif" font-size="14.00"> &#160;&#160;swipe(&quot;Right&quot;) &#160;&#160;</text>
</g>
<!-- state_8&#45;&gt;state_8 -->
<g id="edge18" class="edge"><title>state_8&#45;&gt;state_8</title>
<path fill="none" stroke="black" d="M281.862,-1030.91C440.541,-1049.97 817.713,-1045 817.713,-1016 817.713,-987.593 455.852,-982.242 291.895,-999.946"/>
<polygon fill="black" stroke="black" points="291.401,-996.48 281.862,-1001.09 292.193,-1003.43 291.401,-996.48"/>
<text text-anchor="middle" x="867.213" y="-1012.3" font-family="Times New Roman,serif" font-size="14.00"> &#160;&#160;swipe(&quot;Left&quot;) &#160;&#160;</text>
</g>
<!-- state_16 -->
<g id="node4" class="node"><title>state_16</title>
<g id="a_node4"><a xlink:href="16.png">
<polygon fill="none" stroke="black" points="556.713,-829 426.713,-829 426.713,-599 556.713,-599 556.713,-829"/>
<image xlink:href="16.png" width="130px" height="230px" preserveAspectRatio="xMinYMin meet" x="426.713" y="-829"/>
</a>
</g>
</g>
<!-- state_8&#45;&gt;state_16 -->
<g id="edge20" class="edge"><title>state_8&#45;&gt;state_16</title>
<path fill="none" stroke="black" d="M271.888,-900.939C282.444,-888.035 294.675,-876.495 308.713,-868 328.544,-856 393.253,-872.593 412.713,-860 422.393,-853.736 430.981,-845.861 438.581,-837.037"/>
<polygon fill="black" stroke="black" points="441.464,-839.038 445.009,-829.054 436.011,-834.648 441.464,-839.038"/>
<text text-anchor="middle" x="372.713" y="-871.8" font-family="Times New Roman,serif" font-size="14.00"> &#160;&#160;press(&quot;MenuKey&quot;) &#160;&#160;</text>
</g>
<!-- state_12 -->
<g id="node7" class="node"><title>state_12</title>
<g id="a_node7"><a xlink:href="12.png">
<polygon fill="none" stroke="black" points="1142.71,-829 1012.71,-829 1012.71,-599 1142.71,-599 1142.71,-829"/>
<image xlink:href="12.png" width="130px" height="230px" preserveAspectRatio="xMinYMin meet" x="1012.71" y="-829"/>
</a>
</g>
</g>
<!-- state_8&#45;&gt;state_12 -->
<g id="edge21" class="edge"><title>state_8&#45;&gt;state_12</title>
<path fill="none" stroke="black" d="M281.991,-998.783C405.391,-968.691 681.695,-904.008 917.713,-868 936.031,-865.205 985.309,-870.299 1000.71,-860 1010.15,-853.69 1018.52,-845.832 1025.91,-837.063"/>
<polygon fill="black" stroke="black" points="1028.72,-839.155 1032.17,-829.137 1023.23,-834.819 1028.72,-839.155"/>
<text text-anchor="middle" x="969.213" y="-871.8" font-family="Times New Roman,serif" font-size="14.00"> &#160;&#160;click(&quot;Login&quot;) &#160;&#160;</text>
</g>
<!-- state_16&#45;&gt;state_8 -->
<g id="edge24" class="edge"><title>state_16&#45;&gt;state_8</title>
<path fill="none" stroke="black" d="M466.67,-829.092C459.119,-848.33 449.345,-867.166 436.713,-883 398.887,-930.414 339.055,-964.735 291.331,-986.477"/>
<polygon fill="black" stroke="black" points="289.664,-983.388 281.957,-990.658 292.516,-989.781 289.664,-983.388"/>
<text text-anchor="middle" x="508.213" y="-871.8" font-family="Times New Roman,serif" font-size="14.00"> &#160;&#160;press(&quot;BackKey&quot;) &#160;&#160;</text>
</g>
<!-- state_16&#45;&gt;state_8 -->
<g id="edge25" class="edge"><title>state_16&#45;&gt;state_8</title>
<path fill="none" stroke="black" d="M556.904,-780.964C580.61,-813.031 596.758,-851.375 574.713,-883 511.1,-974.254 376.903,-1002.59 292.093,-1011.28"/>
<polygon fill="black" stroke="black" points="291.624,-1007.81 282.003,-1012.25 292.291,-1014.78 291.624,-1007.81"/>
<text text-anchor="middle" x="645.713" y="-871.8" font-family="Times New Roman,serif" font-size="14.00"> &#160;&#160;press(&quot;MenuKey&quot;) &#160;&#160;</text>
</g>
<!-- state_16&#45;&gt;state_19 -->
<g id="edge22" class="edge"><title>state_16&#45;&gt;state_19</title>
<path fill="none" stroke="black" d="M430.166,-598.899C422.964,-587.541 415.423,-576.384 407.713,-566 391.947,-544.766 373.11,-523.29 354.901,-504.006"/>
<polygon fill="black" stroke="black" points="357.395,-501.549 347.961,-496.727 352.329,-506.38 357.395,-501.549"/>
<text text-anchor="middle" x="471.713" y="-569.8" font-family="Times New Roman,serif" font-size="14.00"> &#160;&#160;swipe(&quot;Right&quot;) &#160;&#160;</text>
</g>
<!-- state_16&#45;&gt;state_19 -->
<g id="edge23" class="edge"><title>state_16&#45;&gt;state_19</title>
<path fill="none" stroke="black" d="M426.559,-600.998C422.184,-597.305 417.57,-593.94 412.713,-591 392.093,-578.52 322.228,-597.557 304.713,-581 297.545,-574.224 292.027,-566.195 287.827,-557.437"/>
<polygon fill="black" stroke="black" points="290.997,-555.947 283.912,-548.069 284.538,-558.646 290.997,-555.947"/>
<text text-anchor="middle" x="354.213" y="-569.8" font-family="Times New Roman,serif" font-size="14.00"> &#160;&#160;swipe(&quot;Left&quot;) &#160;&#160;</text>
</g>
<!-- state_17 -->
<g id="node8" class="node"><title>state_17</title>
<g id="a_node8"><a xlink:href="17.png">
<polygon fill="none" stroke="black" points="416.713,-246 286.713,-246 286.713,-16 416.713,-16 416.713,-246"/>
<image xlink:href="17.png" width="130px" height="230px" preserveAspectRatio="xMinYMin meet" x="286.713" y="-246"/>
</a>
</g>
</g>
<!-- state_16&#45;&gt;state_17 -->
<g id="edge26" class="edge"><title>state_16&#45;&gt;state_17</title>
<path fill="none" stroke="black" d="M528.76,-598.56C551.038,-509.104 567.191,-383.787 521.713,-285 501.259,-240.57 461.127,-203.472 424.991,-176.938"/>
<polygon fill="black" stroke="black" points="427.034,-174.096 416.871,-171.101 422.948,-179.78 427.034,-174.096"/>
<text text-anchor="middle" x="609.213" y="-429.3" font-family="Times New Roman,serif" font-size="14.00"> &#160;&#160;click(&quot;index=0&quot;) &#160;&#160;</text>
</g>
<!-- state_16&#45;&gt;state_17 -->
<g id="edge27" class="edge"><title>state_16&#45;&gt;state_17</title>
<path fill="none" stroke="black" d="M556.723,-673.565C597.841,-644.559 647.471,-601.034 670.713,-548 713.171,-451.117 724.271,-401.217 670.713,-310 618.363,-220.84 503.319,-173.052 426.662,-150.1"/>
<polygon fill="black" stroke="black" points="427.625,-146.735 417.045,-147.29 425.662,-153.454 427.625,-146.735"/>
<text text-anchor="middle" x="765.213" y="-429.3" font-family="Times New Roman,serif" font-size="14.00"> &#160;&#160;click(&quot;index=0&quot;) &#160;&#160;</text>
</g>
<!-- state_19&#45;&gt;state_8 -->
<g id="edge29" class="edge"><title>state_19&#45;&gt;state_8</title>
<path fill="none" stroke="black" d="M287.22,-548.068C290.638,-659.748 292.664,-821.767 278.713,-883 278.101,-885.685 277.43,-888.379 276.704,-891.078"/>
<polygon fill="black" stroke="black" points="273.291,-890.281 273.854,-900.861 280.012,-892.239 273.291,-890.281"/>
<text text-anchor="middle" x="353.213" y="-710.3" font-family="Times New Roman,serif" font-size="14.00"> &#160;&#160;press(&quot;BackKey&quot;) &#160;&#160;</text>
</g>
<!-- state_19&#45;&gt;state_19 -->
<g id="edge28" class="edge"><title>state_19&#45;&gt;state_19</title>
<path fill="none" stroke="black" d="M347.785,-457.287C358.41,-453.811 365.713,-445.715 365.713,-433 365.713,-424.457 362.416,-418 357.03,-413.627"/>
<polygon fill="black" stroke="black" points="358.258,-410.316 347.785,-408.713 354.972,-416.497 358.258,-410.316"/>
<text text-anchor="middle" x="418.713" y="-429.3" font-family="Times New Roman,serif" font-size="14.00"> &#160;&#160;swipe(&quot;Right&quot;) &#160;&#160;</text>
</g>
<!-- state_19&#45;&gt;state_17 -->
<g id="edge30" class="edge"><title>state_19&#45;&gt;state_17</title>
<path fill="none" stroke="black" d="M278.866,-317.933C279.869,-306.736 281.425,-295.603 283.713,-285 285.782,-275.41 288.488,-265.69 291.626,-256.04"/>
<polygon fill="black" stroke="black" points="294.991,-257.015 294.9,-246.421 288.364,-254.759 294.991,-257.015"/>
<text text-anchor="middle" x="341.213" y="-288.8" font-family="Times New Roman,serif" font-size="14.00"> &#160;&#160;click(&quot;index=0&quot;) &#160;&#160;</text>
</g>
<!-- state_19&#45;&gt;state_17 -->
<g id="edge31" class="edge"><title>state_19&#45;&gt;state_17</title>
<path fill="none" stroke="black" d="M347.759,-376.168C368.098,-354.67 388.006,-328.405 398.713,-300 403.964,-286.069 405.466,-271.294 404.464,-256.512"/>
<polygon fill="black" stroke="black" points="407.916,-255.866 403.387,-246.288 400.954,-256.6 407.916,-255.866"/>
<text text-anchor="middle" x="460.213" y="-288.8" font-family="Times New Roman,serif" font-size="14.00"> &#160;&#160;click(&quot;index=0&quot;) &#160;&#160;</text>
</g>
<!-- state_19&#45;&gt;state_17 -->
<g id="edge32" class="edge"><title>state_19&#45;&gt;state_17</title>
<path fill="none" stroke="black" d="M217.532,-423.332C121.038,-407.577 -42.9598,-367.91 10.7129,-285 69.2139,-194.632 195.106,-157.135 276.471,-141.934"/>
<polygon fill="black" stroke="black" points="277.435,-145.317 286.658,-140.104 276.197,-138.427 277.435,-145.317"/>
<text text-anchor="middle" x="60.2129" y="-288.8" font-family="Times New Roman,serif" font-size="14.00"> &#160;&#160;swipe(&quot;Left&quot;) &#160;&#160;</text>
</g>
<!-- state_19&#45;&gt;state_17 -->
<g id="edge33" class="edge"><title>state_19&#45;&gt;state_17</title>
<path fill="none" stroke="black" d="M217.308,-398.543C173.435,-371.197 127.425,-329.842 149.713,-285 176.239,-231.631 231.257,-191.901 277.184,-166.32"/>
<polygon fill="black" stroke="black" points="279.127,-169.248 286.237,-161.393 275.78,-163.099 279.127,-169.248"/>
<text text-anchor="middle" x="213.713" y="-288.8" font-family="Times New Roman,serif" font-size="14.00"> &#160;&#160;press(&quot;MenuKey&quot;) &#160;&#160;</text>
</g>
<!-- state_12&#45;&gt;state_8 -->
<g id="edge36" class="edge"><title>state_12&#45;&gt;state_8</title>
<path fill="none" stroke="black" d="M1057.57,-829.245C1049.21,-849.639 1037.39,-868.859 1020.71,-883 911.234,-975.816 470.093,-1004.43 291.915,-1012.3"/>
<polygon fill="black" stroke="black" points="291.679,-1008.81 281.84,-1012.74 291.982,-1015.8 291.679,-1008.81"/>
<text text-anchor="middle" x="1096.21" y="-871.8" font-family="Times New Roman,serif" font-size="14.00"> &#160;&#160;press(&quot;BackKey&quot;) &#160;&#160;</text>
</g>
<!-- state_12&#45;&gt;state_12 -->
<g id="edge34" class="edge"><title>state_12&#45;&gt;state_12</title>
<path fill="none" stroke="black" d="M1142.78,-722.096C1153.41,-720.937 1160.71,-718.238 1160.71,-714 1160.71,-711.285 1157.72,-709.202 1152.77,-707.75"/>
<polygon fill="black" stroke="black" points="1153.25,-704.281 1142.78,-705.904 1151.98,-711.164 1153.25,-704.281"/>
<text text-anchor="middle" x="1213.71" y="-710.3" font-family="Times New Roman,serif" font-size="14.00"> &#160;&#160;swipe(&quot;Right&quot;) &#160;&#160;</text>
</g>
<!-- state_12&#45;&gt;state_12 -->
<g id="edge35" class="edge"><title>state_12&#45;&gt;state_12</title>
<path fill="none" stroke="black" d="M1142.83,-729.66C1198.62,-734.669 1266.71,-729.449 1266.71,-714 1266.71,-699.486 1206.61,-694 1153.08,-697.542"/>
<polygon fill="black" stroke="black" points="1152.52,-694.075 1142.83,-698.34 1153.07,-701.053 1152.52,-694.075"/>
<text text-anchor="middle" x="1316.21" y="-710.3" font-family="Times New Roman,serif" font-size="14.00"> &#160;&#160;swipe(&quot;Left&quot;) &#160;&#160;</text>
</g>
<!-- state_12&#45;&gt;state_12 -->
<g id="edge37" class="edge"><title>state_12&#45;&gt;state_12</title>
<path fill="none" stroke="black" d="M1142.86,-734.19C1229.64,-746.638 1365.71,-739.908 1365.71,-714 1365.71,-689.079 1239.81,-681.902 1152.98,-692.471"/>
<polygon fill="black" stroke="black" points="1152.31,-689.028 1142.86,-693.81 1153.23,-695.968 1152.31,-689.028"/>
<text text-anchor="middle" x="1429.71" y="-710.3" font-family="Times New Roman,serif" font-size="14.00"> &#160;&#160;press(&quot;MenuKey&quot;) &#160;&#160;</text>
</g>
</g>
</svg>
