<?xml version="1.0" encoding="UTF-8" standalone="no"?>
<!DOCTYPE svg PUBLIC "-//W3C//DTD SVG 1.1//EN"
 "http://www.w3.org/Graphics/SVG/1.1/DTD/svg11.dtd">
<!-- Generated by graphviz version 2.38.0 (20140413.2041)
 -->
<!-- Title: activity_0 Pages: 1 -->
<svg width="774pt" height="385pt"
 viewBox="0.00 0.00 774.21 385.00" xmlns="http://www.w3.org/2000/svg" xmlns:xlink="http://www.w3.org/1999/xlink">
<g id="graph0" class="graph" transform="scale(1 1) rotate(0) translate(4 381)">
<title>activity_0</title>
<polygon fill="white" stroke="none" points="-4,4 -4,-381 770.205,-381 770.205,4 -4,4"/>
<!-- state_0 -->
<g id="node1" class="node"><title>state_0</title>
<g id="a_node1"><a xlink:href="0.png" xlink:title="&lt;TABLE&gt;">
<polygon fill="none" stroke="black" points="410.205,-377 280.205,-377 280.205,-87 410.205,-87 410.205,-377"/>
<text text-anchor="start" x="325.205" y="-365.8" font-family="Times New Roman,serif" font-size="14.00">state_0</text>
<text text-anchor="start" x="314.705" y="-350.8" font-family="Times New Roman,serif" font-size="14.00">incoming:3</text>
<text text-anchor="start" x="315.705" y="-335.8" font-family="Times New Roman,serif" font-size="14.00">outgoing:5</text>
<text text-anchor="start" x="327.205" y="-320.8" font-family="Times New Roman,serif" font-size="14.00">loop:1</text>
<image xlink:href="0.png" width="130px" height="230px" preserveAspectRatio="xMinYMin meet" x="280.205" y="-317"/>
</a>
</g>
</g>
<!-- state_0&#45;&gt;state_0 -->
<g id="edge1" class="edge"><title>state_0&#45;&gt;state_0</title>
<path fill="none" stroke="black" d="M410.277,-261.492C420.903,-257.27 428.205,-247.439 428.205,-232 428.205,-221.385 424.754,-213.422 419.144,-208.109"/>
<polygon fill="black" stroke="black" points="420.601,-204.89 410.277,-202.508 416.862,-210.808 420.601,-204.89"/>
<text text-anchor="middle" x="492.205" y="-228.3" font-family="Times New Roman,serif" font-size="14.00"> &#160;&#160;press(&quot;MenuKey&quot;) &#160;&#160;</text>
</g>
<!-- activity_1 -->
<g id="node2" class="node"><title>activity_1</title>
<ellipse fill="none" stroke="red" cx="345.205" cy="-18" rx="46.2923" ry="18"/>
<text text-anchor="middle" x="345.205" y="-14.3" font-family="Times New Roman,serif" font-size="14.00" fill="red">activity_1</text>
</g>
<!-- state_0&#45;&gt;activity_1 -->
<g id="edge2" class="edge"><title>state_0&#45;&gt;activity_1</title>
<path fill="none" stroke="red" d="M279.954,-220.873C162.485,-200.073 -64.9647,-146.547 18.2054,-54 35.941,-34.2648 200.337,-24.736 289.052,-20.9969"/>
<polygon fill="red" stroke="red" points="289.371,-24.4868 299.22,-20.5797 289.084,-17.4927 289.371,-24.4868"/>
<text text-anchor="middle" x="75.7054" y="-57.8" font-family="Times New Roman,serif" font-size="14.00" fill="red"> &#160;&#160;click(&quot;index=0&quot;) &#160;&#160;</text>
</g>
<!-- state_0&#45;&gt;activity_1 -->
<g id="edge3" class="edge"><title>state_0&#45;&gt;activity_1</title>
<path fill="none" stroke="red" d="M279.957,-204.821C207.594,-172.047 107.117,-113.013 156.205,-54 172.891,-33.9408 239.714,-25.3281 289.196,-21.6626"/>
<polygon fill="red" stroke="red" points="289.733,-25.1339 299.468,-20.9531 289.25,-18.1506 289.733,-25.1339"/>
<text text-anchor="middle" x="209.205" y="-57.8" font-family="Times New Roman,serif" font-size="14.00" fill="red"> &#160;&#160;swipe(&quot;Right&quot;) &#160;&#160;</text>
</g>
<!-- state_0&#45;&gt;activity_1 -->
<g id="edge4" class="edge"><title>state_0&#45;&gt;activity_1</title>
<path fill="none" stroke="red" d="M288.945,-86.8652C287.523,-80.8749 286.264,-74.9043 285.205,-69 284.029,-62.4379 281.885,-59.7809 285.205,-54 289.479,-46.559 296.013,-40.5505 303.22,-35.753"/>
<polygon fill="red" stroke="red" points="305.04,-38.7431 311.894,-30.6642 301.498,-32.7054 305.04,-38.7431"/>
<text text-anchor="middle" x="334.705" y="-57.8" font-family="Times New Roman,serif" font-size="14.00" fill="red"> &#160;&#160;swipe(&quot;Left&quot;) &#160;&#160;</text>
</g>
<!-- state_0&#45;&gt;activity_1 -->
<g id="edge5" class="edge"><title>state_0&#45;&gt;activity_1</title>
<path fill="none" stroke="red" d="M392.375,-86.9008C391.438,-75.5841 388.885,-64.4884 384.205,-54 382.082,-49.241 378.956,-44.8595 375.383,-40.9246"/>
<polygon fill="red" stroke="red" points="377.74,-38.3354 368.106,-33.9266 372.888,-43.3809 377.74,-38.3354"/>
<text text-anchor="middle" x="450.705" y="-57.8" font-family="Times New Roman,serif" font-size="14.00" fill="red"> &#160;&#160;press(&quot;BackKey&quot;) &#160;&#160;</text>
</g>
<!-- activity_1&#45;&gt;state_0 -->
<g id="edge6" class="edge"><title>activity_1&#45;&gt;state_0</title>
<path fill="none" stroke="red" d="M390.59,-21.8865C436.058,-25.8368 501.492,-34.7673 517.205,-54 560.251,-106.687 483.731,-162.108 419.405,-196.604"/>
<polygon fill="red" stroke="red" points="417.643,-193.576 410.423,-201.33 420.902,-199.77 417.643,-193.576"/>
<text text-anchor="middle" x="580.705" y="-57.8" font-family="Times New Roman,serif" font-size="14.00" fill="red"> &#160;&#160;click(&quot;index=0&quot;) &#160;&#160;</text>
</g>
<!-- activity_1&#45;&gt;state_0 -->
<g id="edge7" class="edge"><title>activity_1&#45;&gt;state_0</title>
<path fill="none" stroke="red" d="M390.669,-21.0882C469.746,-25.19 625.798,-35.5451 642.205,-54 715.496,-136.434 530.531,-191.725 420.31,-216.365"/>
<polygon fill="red" stroke="red" points="419.232,-213.018 410.216,-218.583 420.734,-219.855 419.232,-213.018"/>
<text text-anchor="middle" x="708.705" y="-57.8" font-family="Times New Roman,serif" font-size="14.00" fill="red"> &#160;&#160;click(&quot;index=4&quot;) &#160;&#160;</text>
</g>
</g>
</svg>
