<?xml version="1.0" encoding="UTF-8" standalone="no"?>
<!DOCTYPE svg PUBLIC "-//W3C//DTD SVG 1.1//EN"
 "http://www.w3.org/Graphics/SVG/1.1/DTD/svg11.dtd">
<!-- Generated by graphviz version 2.38.0 (20140413.2041)
 -->
<!-- Title: activity_4 Pages: 1 -->
<svg width="805pt" height="385pt"
 viewBox="0.00 0.00 805.10 385.00" xmlns="http://www.w3.org/2000/svg" xmlns:xlink="http://www.w3.org/1999/xlink">
<g id="graph0" class="graph" transform="scale(1 1) rotate(0) translate(4 381)">
<title>activity_4</title>
<polygon fill="white" stroke="none" points="-4,4 -4,-381 801.096,-381 801.096,4 -4,4"/>
<!-- state_15 -->
<g id="node1" class="node"><title>state_15</title>
<g id="a_node1"><a xlink:href="15.png" xlink:title="&lt;TABLE&gt;">
<polygon fill="none" stroke="black" points="147.096,-290 17.0959,-290 17.0959,-0 147.096,-0 147.096,-290"/>
<text text-anchor="start" x="58.5959" y="-278.8" font-family="Times New Roman,serif" font-size="14.00">state_15</text>
<text text-anchor="start" x="51.5959" y="-263.8" font-family="Times New Roman,serif" font-size="14.00">incoming:2</text>
<text text-anchor="start" x="52.5959" y="-248.8" font-family="Times New Roman,serif" font-size="14.00">outgoing:0</text>
<text text-anchor="start" x="64.0959" y="-233.8" font-family="Times New Roman,serif" font-size="14.00">loop:0</text>
<image xlink:href="15.png" width="130px" height="230px" preserveAspectRatio="xMinYMin meet" x="17.0959" y="-230"/>
</a>
</g>
</g>
<!-- state_17 -->
<g id="node2" class="node"><title>state_17</title>
<g id="a_node2"><a xlink:href="17.png" xlink:title="&lt;TABLE&gt;">
<polygon fill="none" stroke="black" points="561.096,-290 431.096,-290 431.096,-0 561.096,-0 561.096,-290"/>
<text text-anchor="start" x="472.596" y="-278.8" font-family="Times New Roman,serif" font-size="14.00">state_17</text>
<text text-anchor="start" x="465.596" y="-263.8" font-family="Times New Roman,serif" font-size="14.00">incoming:4</text>
<text text-anchor="start" x="466.596" y="-248.8" font-family="Times New Roman,serif" font-size="14.00">outgoing:0</text>
<text text-anchor="start" x="478.096" y="-233.8" font-family="Times New Roman,serif" font-size="14.00">loop:0</text>
<image xlink:href="17.png" width="130px" height="230px" preserveAspectRatio="xMinYMin meet" x="431.096" y="-230"/>
</a>
</g>
</g>
<!-- activity_1 -->
<g id="node3" class="node"><title>activity_1</title>
<ellipse fill="none" stroke="red" cx="220.096" cy="-359" rx="46.2923" ry="18"/>
<text text-anchor="middle" x="220.096" y="-355.3" font-family="Times New Roman,serif" font-size="14.00" fill="red">activity_1</text>
</g>
<!-- activity_1&#45;&gt;state_15 -->
<g id="edge1" class="edge"><title>activity_1&#45;&gt;state_15</title>
<path fill="none" stroke="red" d="M174.14,-356.846C119.797,-354.398 34.1654,-346.767 14.0959,-323 -6.59491,-298.497 -1.68992,-267.01 12.3262,-237.403"/>
<polygon fill="red" stroke="red" points="15.5488,-238.787 16.9503,-228.285 9.30574,-235.621 15.5488,-238.787"/>
<text text-anchor="middle" x="71.5959" y="-311.8" font-family="Times New Roman,serif" font-size="14.00" fill="red"> &#160;&#160;click(&quot;index=0&quot;) &#160;&#160;</text>
</g>
<!-- activity_1&#45;&gt;state_15 -->
<g id="edge3" class="edge"><title>activity_1&#45;&gt;state_15</title>
<path fill="none" stroke="red" d="M186.45,-346.46C174.327,-340.929 161.366,-333.234 152.096,-323 145.357,-315.561 139.232,-307.395 133.67,-298.78"/>
<polygon fill="red" stroke="red" points="136.509,-296.715 128.294,-290.026 130.545,-300.379 136.509,-296.715"/>
<text text-anchor="middle" x="209.596" y="-311.8" font-family="Times New Roman,serif" font-size="14.00" fill="red"> &#160;&#160;click(&quot;index=1&quot;) &#160;&#160;</text>
</g>
<!-- activity_1&#45;&gt;state_17 -->
<g id="edge2" class="edge"><title>activity_1&#45;&gt;state_17</title>
<path fill="none" stroke="red" d="M240.746,-342.746C248.97,-336.639 258.505,-329.518 267.096,-323 319.398,-283.318 377.963,-238.036 422.774,-203.207"/>
<polygon fill="red" stroke="red" points="424.947,-205.951 430.693,-197.05 420.65,-200.425 424.947,-205.951"/>
<text text-anchor="middle" x="343.596" y="-311.8" font-family="Times New Roman,serif" font-size="14.00" fill="red"> &#160;&#160;click(&quot;index=0&quot;) &#160;&#160;</text>
</g>
<!-- activity_1&#45;&gt;state_17 -->
<g id="edge4" class="edge"><title>activity_1&#45;&gt;state_17</title>
<path fill="none" stroke="red" d="M264.554,-354.083C312.024,-349.131 383.358,-339.234 405.096,-323 414.612,-315.893 423.214,-307.503 430.975,-298.304"/>
<polygon fill="red" stroke="red" points="433.787,-300.392 437.298,-290.395 428.319,-296.02 433.787,-300.392"/>
<text text-anchor="middle" x="478.596" y="-311.8" font-family="Times New Roman,serif" font-size="14.00" fill="red"> &#160;&#160;click(&quot;index=3&quot;) &#160;&#160;</text>
</g>
<!-- activity_2 -->
<g id="node4" class="node"><title>activity_2</title>
<ellipse fill="none" stroke="red" cx="634.096" cy="-359" rx="46.2923" ry="18"/>
<text text-anchor="middle" x="634.096" y="-355.3" font-family="Times New Roman,serif" font-size="14.00" fill="red">activity_2</text>
</g>
<!-- activity_2&#45;&gt;state_17 -->
<g id="edge5" class="edge"><title>activity_2&#45;&gt;state_17</title>
<path fill="none" stroke="red" d="M600.45,-346.46C588.327,-340.929 575.366,-333.234 566.096,-323 559.357,-315.561 553.232,-307.395 547.67,-298.78"/>
<polygon fill="red" stroke="red" points="550.509,-296.715 542.294,-290.026 544.545,-300.379 550.509,-296.715"/>
<text text-anchor="middle" x="623.596" y="-311.8" font-family="Times New Roman,serif" font-size="14.00" fill="red"> &#160;&#160;click(&quot;index=0&quot;) &#160;&#160;</text>
</g>
<!-- activity_2&#45;&gt;state_17 -->
<g id="edge6" class="edge"><title>activity_2&#45;&gt;state_17</title>
<path fill="none" stroke="red" d="M661.067,-344.252C674.893,-335.168 687.591,-322.322 681.096,-308 658.165,-257.44 610.794,-216.445 569.73,-188.343"/>
<polygon fill="red" stroke="red" points="571.597,-185.381 561.342,-182.719 567.699,-191.195 571.597,-185.381"/>
<text text-anchor="middle" x="739.596" y="-311.8" font-family="Times New Roman,serif" font-size="14.00" fill="red"> &#160;&#160;click(&quot;index=1&quot;) &#160;&#160;</text>
</g>
</g>
</svg>
