<?xml version="1.0" encoding="UTF-8" standalone="no"?>
<!DOCTYPE svg PUBLIC "-//W3C//DTD SVG 1.1//EN"
 "http://www.w3.org/Graphics/SVG/1.1/DTD/svg11.dtd">
<!-- Generated by graphviz version 2.38.0 (20140413.2041)
 -->
<!-- Title: activity_1 Pages: 1 -->
<svg width="2086pt" height="1067pt"
 viewBox="0.00 0.00 2085.76 1067.00" xmlns="http://www.w3.org/2000/svg" xmlns:xlink="http://www.w3.org/1999/xlink">
<g id="graph0" class="graph" transform="scale(1 1) rotate(0) translate(4 1063)">
<title>activity_1</title>
<polygon fill="white" stroke="none" points="-4,4 -4,-1063 2081.76,-1063 2081.76,4 -4,4"/>
<!-- state_1 -->
<g id="node1" class="node"><title>state_1</title>
<g id="a_node1"><a xlink:href="1.png" xlink:title="&lt;TABLE&gt;">
<polygon fill="none" stroke="black" points="849.759,-1059 719.759,-1059 719.759,-769 849.759,-769 849.759,-1059"/>
<text text-anchor="start" x="764.759" y="-1047.8" font-family="Times New Roman,serif" font-size="14.00">state_1</text>
<text text-anchor="start" x="750.759" y="-1032.8" font-family="Times New Roman,serif" font-size="14.00">incoming:13</text>
<text text-anchor="start" x="755.259" y="-1017.8" font-family="Times New Roman,serif" font-size="14.00">outgoing:8</text>
<text text-anchor="start" x="766.759" y="-1002.8" font-family="Times New Roman,serif" font-size="14.00">loop:5</text>
<image xlink:href="1.png" width="130px" height="230px" preserveAspectRatio="xMinYMin meet" x="719.759" y="-999"/>
</a>
</g>
</g>
<!-- state_1&#45;&gt;state_1 -->
<g id="edge1" class="edge"><title>state_1&#45;&gt;state_1</title>
<path fill="none" stroke="black" d="M849.831,-919.898C860.457,-919.054 867.759,-917.088 867.759,-914 867.759,-912.022 864.762,-910.504 859.815,-909.447"/>
<polygon fill="black" stroke="black" points="860.209,-905.968 849.831,-908.102 859.274,-912.905 860.209,-905.968"/>
<text text-anchor="middle" x="925.259" y="-910.3" font-family="Times New Roman,serif" font-size="14.00"> &#160;&#160;click(&quot;index=0&quot;) &#160;&#160;</text>
</g>
<!-- state_1&#45;&gt;state_1 -->
<g id="edge2" class="edge"><title>state_1&#45;&gt;state_1</title>
<path fill="none" stroke="black" d="M849.94,-925.26C908.792,-929.159 982.759,-925.405 982.759,-914 982.759,-903.241 916.934,-899.291 860.07,-902.151"/>
<polygon fill="black" stroke="black" points="859.72,-898.665 849.94,-902.74 860.126,-905.653 859.72,-898.665"/>
<text text-anchor="middle" x="1053.76" y="-910.3" font-family="Times New Roman,serif" font-size="14.00"> &#160;&#160;longClick(&quot;index=0&quot;) &#160;&#160;</text>
</g>
<!-- state_1&#45;&gt;state_1 -->
<g id="edge3" class="edge"><title>state_1&#45;&gt;state_1</title>
<path fill="none" stroke="black" d="M849.925,-927.885C950.501,-938.052 1124.76,-933.424 1124.76,-914 1124.76,-895.221 961.881,-890.271 860.178,-899.151"/>
<polygon fill="black" stroke="black" points="859.554,-895.694 849.925,-900.115 860.209,-902.664 859.554,-895.694"/>
<text text-anchor="middle" x="1195.76" y="-910.3" font-family="Times New Roman,serif" font-size="14.00"> &#160;&#160;longClick(&quot;index=1&quot;) &#160;&#160;</text>
</g>
<!-- state_1&#45;&gt;state_1 -->
<g id="edge4" class="edge"><title>state_1&#45;&gt;state_1</title>
<path fill="none" stroke="black" d="M850.064,-930.031C984.224,-946.703 1266.76,-941.359 1266.76,-914 1266.76,-887.309 997.851,-881.571 860.149,-896.787"/>
<polygon fill="black" stroke="black" points="859.588,-893.329 850.064,-897.969 860.403,-900.281 859.588,-893.329"/>
<text text-anchor="middle" x="1319.76" y="-910.3" font-family="Times New Roman,serif" font-size="14.00"> &#160;&#160;swipe(&quot;Right&quot;) &#160;&#160;</text>
</g>
<!-- state_1&#45;&gt;state_1 -->
<g id="edge5" class="edge"><title>state_1&#45;&gt;state_1</title>
<path fill="none" stroke="black" d="M849.997,-932.27C1006.25,-955.223 1372.76,-949.133 1372.76,-914 1372.76,-879.622 1021.83,-873.052 860.353,-894.291"/>
<polygon fill="black" stroke="black" points="859.42,-890.887 849.997,-895.73 860.384,-897.82 859.42,-890.887"/>
<text text-anchor="middle" x="1422.26" y="-910.3" font-family="Times New Roman,serif" font-size="14.00"> &#160;&#160;swipe(&quot;Left&quot;) &#160;&#160;</text>
</g>
<!-- state_13 -->
<g id="node2" class="node"><title>state_13</title>
<g id="a_node2"><a xlink:href="13.png" xlink:title="&lt;TABLE&gt;">
<polygon fill="none" stroke="black" points="849.759,-718 719.759,-718 719.759,-428 849.759,-428 849.759,-718"/>
<text text-anchor="start" x="761.259" y="-706.8" font-family="Times New Roman,serif" font-size="14.00">state_13</text>
<text text-anchor="start" x="754.259" y="-691.8" font-family="Times New Roman,serif" font-size="14.00">incoming:3</text>
<text text-anchor="start" x="751.759" y="-676.8" font-family="Times New Roman,serif" font-size="14.00">outgoing:14</text>
<text text-anchor="start" x="766.759" y="-661.8" font-family="Times New Roman,serif" font-size="14.00">loop:2</text>
<image xlink:href="13.png" width="130px" height="230px" preserveAspectRatio="xMinYMin meet" x="719.759" y="-658"/>
</a>
</g>
</g>
<!-- state_1&#45;&gt;state_13 -->
<g id="edge6" class="edge"><title>state_1&#45;&gt;state_13</title>
<path fill="none" stroke="black" d="M719.546,-877.323C669.49,-844.716 612.421,-793.004 634.759,-736 650.681,-695.369 682.109,-658.836 712.102,-630.793"/>
<polygon fill="black" stroke="black" points="714.674,-633.183 719.686,-623.849 709.947,-628.021 714.674,-633.183"/>
<text text-anchor="middle" x="698.759" y="-739.8" font-family="Times New Roman,serif" font-size="14.00"> &#160;&#160;press(&quot;MenuKey&quot;) &#160;&#160;</text>
</g>
<!-- activity_2 -->
<g id="node4" class="node"><title>activity_2</title>
<ellipse fill="none" stroke="red" cx="1601.76" cy="-573" rx="46.2923" ry="18"/>
<text text-anchor="middle" x="1601.76" y="-569.3" font-family="Times New Roman,serif" font-size="14.00" fill="red">activity_2</text>
</g>
<!-- state_1&#45;&gt;activity_2 -->
<g id="edge7" class="edge"><title>state_1&#45;&gt;activity_2</title>
<path fill="none" stroke="red" d="M849.837,-904.576C1014.51,-882 1441.77,-815.193 1541.76,-718 1574.74,-685.946 1590.36,-633.06 1597.15,-601.08"/>
<polygon fill="red" stroke="red" points="1600.62,-601.585 1599.12,-591.096 1593.75,-600.227 1600.62,-601.585"/>
<text text-anchor="middle" x="1571.26" y="-739.8" font-family="Times New Roman,serif" font-size="14.00" fill="red"> &#160;&#160;click(&quot;index=1&quot;) &#160;&#160;</text>
</g>
<!-- final -->
<g id="node5" class="node"><title>final</title>
<image xlink:href="-2.png" width="50px" height="50px" preserveAspectRatio="xMinYMin meet" x="1665.76" y="-598"/>
</g>
<!-- state_1&#45;&gt;final -->
<g id="edge8" class="edge"><title>state_1&#45;&gt;final</title>
<path fill="none" stroke="red" d="M849.765,-906.794C1024.74,-889.13 1501.29,-834.41 1632.76,-751 1679.96,-721.055 1689.86,-650.854 1691.31,-608.411"/>
<polygon fill="red" stroke="red" points="1694.82,-608.328 1691.52,-598.26 1687.82,-608.187 1694.82,-608.328"/>
<text text-anchor="middle" x="1710.26" y="-739.8" font-family="Times New Roman,serif" font-size="14.00" fill="red"> &#160;&#160;press(&quot;BackKey&quot;) &#160;&#160;</text>
</g>
<!-- state_13&#45;&gt;state_1 -->
<g id="edge13" class="edge"><title>state_13&#45;&gt;state_1</title>
<path fill="none" stroke="black" d="M784.759,-718.128C784.759,-731.482 784.759,-745.051 784.759,-758.493"/>
<polygon fill="black" stroke="black" points="781.259,-758.742 784.759,-768.742 788.259,-758.742 781.259,-758.742"/>
<text text-anchor="middle" x="847.259" y="-739.8" font-family="Times New Roman,serif" font-size="14.00"> &#160;&#160;press(&quot;BackKey&quot;) &#160;&#160;</text>
</g>
<!-- state_13&#45;&gt;state_1 -->
<g id="edge14" class="edge"><title>state_13&#45;&gt;state_1</title>
<path fill="none" stroke="black" d="M849.902,-619.683C888.887,-653.142 927.836,-701.229 910.759,-751 899.393,-784.128 878.178,-815.7 856.355,-842.027"/>
<polygon fill="black" stroke="black" points="853.676,-839.773 849.883,-849.666 859.017,-844.298 853.676,-839.773"/>
<text text-anchor="middle" x="977.759" y="-739.8" font-family="Times New Roman,serif" font-size="14.00"> &#160;&#160;press(&quot;MenuKey&quot;) &#160;&#160;</text>
</g>
<!-- state_13&#45;&gt;state_13 -->
<g id="edge11" class="edge"><title>state_13&#45;&gt;state_13</title>
<path fill="none" stroke="black" d="M849.831,-587.746C860.457,-585.635 867.759,-580.72 867.759,-573 867.759,-567.934 864.614,-564.076 859.449,-561.425"/>
<polygon fill="black" stroke="black" points="860.424,-558.061 849.831,-558.254 858.232,-564.709 860.424,-558.061"/>
<text text-anchor="middle" x="920.759" y="-569.3" font-family="Times New Roman,serif" font-size="14.00"> &#160;&#160;swipe(&quot;Right&quot;) &#160;&#160;</text>
</g>
<!-- state_13&#45;&gt;state_13 -->
<g id="edge12" class="edge"><title>state_13&#45;&gt;state_13</title>
<path fill="none" stroke="black" d="M849.872,-601.524C905.663,-610.648 973.759,-601.14 973.759,-573 973.759,-546.509 913.409,-536.53 859.79,-543.064"/>
<polygon fill="black" stroke="black" points="859.279,-539.601 849.872,-544.476 860.266,-546.531 859.279,-539.601"/>
<text text-anchor="middle" x="1023.26" y="-569.3" font-family="Times New Roman,serif" font-size="14.00"> &#160;&#160;swipe(&quot;Left&quot;) &#160;&#160;</text>
</g>
<!-- activity_0 -->
<g id="node6" class="node"><title>activity_0</title>
<ellipse fill="none" stroke="red" cx="344.759" cy="-232" rx="46.2923" ry="18"/>
<text text-anchor="middle" x="344.759" y="-228.3" font-family="Times New Roman,serif" font-size="14.00" fill="red">activity_0</text>
</g>
<!-- state_13&#45;&gt;activity_0 -->
<g id="edge9" class="edge"><title>state_13&#45;&gt;activity_0</title>
<path fill="none" stroke="red" d="M719.641,-507.644C685.596,-478.082 641.538,-445.721 595.759,-428 553.112,-411.492 425.675,-439.532 390.759,-410 346.903,-372.906 342.059,-299.844 342.991,-260.176"/>
<polygon fill="red" stroke="red" points="346.489,-260.285 343.367,-250.16 339.494,-260.022 346.489,-260.285"/>
<text text-anchor="middle" x="448.259" y="-398.8" font-family="Times New Roman,serif" font-size="14.00" fill="red"> &#160;&#160;click(&quot;index=0&quot;) &#160;&#160;</text>
</g>
<!-- state_13&#45;&gt;activity_0 -->
<g id="edge10" class="edge"><title>state_13&#45;&gt;activity_0</title>
<path fill="none" stroke="red" d="M719.458,-512.105C684.86,-483.113 640.371,-449.924 595.759,-428 568.087,-414.401 555.605,-425.166 528.759,-410 491.701,-389.065 406.693,-299.929 366.533,-256.7"/>
<polygon fill="red" stroke="red" points="368.941,-254.149 359.578,-249.189 363.804,-258.905 368.941,-254.149"/>
<text text-anchor="middle" x="586.259" y="-398.8" font-family="Times New Roman,serif" font-size="14.00" fill="red"> &#160;&#160;click(&quot;index=4&quot;) &#160;&#160;</text>
</g>
<!-- activity_3 -->
<g id="node7" class="node"><title>activity_3</title>
<ellipse fill="none" stroke="red" cx="1133.76" cy="-18" rx="46.2923" ry="18"/>
<text text-anchor="middle" x="1133.76" y="-14.3" font-family="Times New Roman,serif" font-size="14.00" fill="red">activity_3</text>
</g>
<!-- state_13&#45;&gt;activity_3 -->
<g id="edge15" class="edge"><title>state_13&#45;&gt;activity_3</title>
<path fill="none" stroke="red" d="M719.677,-498.872C700.372,-472.675 681.733,-441.732 671.759,-410 628.714,-273.05 584.386,-200.904 671.759,-87 720.087,-23.9966 964.954,-17.5969 1077.29,-18.0655"/>
<polygon fill="red" stroke="red" points="1077.39,-21.5661 1087.41,-18.128 1077.44,-14.5663 1077.39,-21.5661"/>
<text text-anchor="middle" x="729.259" y="-228.3" font-family="Times New Roman,serif" font-size="14.00" fill="red"> &#160;&#160;click(&quot;index=0&quot;) &#160;&#160;</text>
</g>
<!-- state_13&#45;&gt;activity_3 -->
<g id="edge17" class="edge"><title>state_13&#45;&gt;activity_3</title>
<path fill="none" stroke="red" d="M719.649,-455.794C713.549,-440.76 708.325,-425.273 704.759,-410 703.244,-403.508 700.581,-400.195 704.759,-395 728.144,-365.925 761.766,-404.704 786.759,-377 873.653,-280.683 732.73,-183.194 819.759,-87 853.851,-49.3179 998.48,-30.8283 1079.03,-23.3"/>
<polygon fill="red" stroke="red" points="1079.36,-26.7847 1089,-22.3936 1078.72,-19.8135 1079.36,-26.7847"/>
<text text-anchor="middle" x="877.259" y="-228.3" font-family="Times New Roman,serif" font-size="14.00" fill="red"> &#160;&#160;click(&quot;index=0&quot;) &#160;&#160;</text>
</g>
<!-- state_13&#45;&gt;activity_3 -->
<g id="edge19" class="edge"><title>state_13&#45;&gt;activity_3</title>
<path fill="none" stroke="red" d="M849.914,-569.623C949.344,-562.063 1136.29,-531.497 1220.76,-410 1224.56,-404.526 1224.87,-400.248 1220.76,-395 1200.15,-368.694 1168.88,-402.898 1147.76,-377 1067.89,-279.051 1105.99,-111.059 1125.1,-45.9154"/>
<polygon fill="red" stroke="red" points="1128.55,-46.6069 1128.1,-36.0219 1121.85,-44.5802 1128.55,-46.6069"/>
<text text-anchor="middle" x="1205.26" y="-228.3" font-family="Times New Roman,serif" font-size="14.00" fill="red"> &#160;&#160;click(&quot;index=0&quot;) &#160;&#160;</text>
</g>
<!-- state_13&#45;&gt;activity_3 -->
<g id="edge21" class="edge"><title>state_13&#45;&gt;activity_3</title>
<path fill="none" stroke="red" d="M849.969,-571.868C966.83,-567.494 1205.13,-538.433 1262.76,-377 1284.42,-316.307 1296.05,-142.18 1262.76,-87 1245.31,-58.0784 1211.01,-40.833 1182.16,-30.9488"/>
<polygon fill="red" stroke="red" points="1183.21,-27.6099 1172.62,-27.8727 1181.07,-34.2723 1183.21,-27.6099"/>
<text text-anchor="middle" x="1340.26" y="-228.3" font-family="Times New Roman,serif" font-size="14.00" fill="red"> &#160;&#160;click(&quot;index=2&quot;) &#160;&#160;</text>
</g>
<!-- activity_4 -->
<g id="node8" class="node"><title>activity_4</title>
<ellipse fill="none" stroke="red" cx="989.759" cy="-232" rx="46.2923" ry="18"/>
<text text-anchor="middle" x="989.759" y="-228.3" font-family="Times New Roman,serif" font-size="14.00" fill="red">activity_4</text>
</g>
<!-- state_13&#45;&gt;activity_4 -->
<g id="edge16" class="edge"><title>state_13&#45;&gt;activity_4</title>
<path fill="none" stroke="red" d="M719.736,-490.98C701.377,-458.101 692.267,-421.671 716.759,-395 748.59,-360.339 889.587,-404.521 927.759,-377 965.811,-349.565 980.729,-293.804 986.415,-260.291"/>
<polygon fill="red" stroke="red" points="989.897,-260.671 987.954,-250.256 982.978,-259.61 989.897,-260.671"/>
<text text-anchor="middle" x="774.259" y="-398.8" font-family="Times New Roman,serif" font-size="14.00" fill="red"> &#160;&#160;click(&quot;index=0&quot;) &#160;&#160;</text>
</g>
<!-- state_13&#45;&gt;activity_4 -->
<g id="edge18" class="edge"><title>state_13&#45;&gt;activity_4</title>
<path fill="none" stroke="red" d="M827.272,-427.717C834.976,-415.549 844.058,-404.348 854.759,-395 879.926,-373.017 902.266,-398.604 927.759,-377 963.207,-346.961 978.948,-292.955 985.503,-260.302"/>
<polygon fill="red" stroke="red" points="989.01,-260.582 987.389,-250.112 982.127,-259.308 989.01,-260.582"/>
<text text-anchor="middle" x="912.259" y="-398.8" font-family="Times New Roman,serif" font-size="14.00" fill="red"> &#160;&#160;click(&quot;index=0&quot;) &#160;&#160;</text>
</g>
<!-- state_13&#45;&gt;activity_4 -->
<g id="edge20" class="edge"><title>state_13&#45;&gt;activity_4</title>
<path fill="none" stroke="red" d="M849.943,-533.122C891.568,-504.575 942.645,-461.823 969.759,-410 994.9,-361.95 994.982,-296.676 992.54,-260.321"/>
<polygon fill="red" stroke="red" points="996.003,-259.711 991.726,-250.018 989.024,-260.263 996.003,-259.711"/>
<text text-anchor="middle" x="1034.26" y="-398.8" font-family="Times New Roman,serif" font-size="14.00" fill="red"> &#160;&#160;click(&quot;index=1&quot;) &#160;&#160;</text>
</g>
<!-- state_13&#45;&gt;activity_4 -->
<g id="edge22" class="edge"><title>state_13&#45;&gt;activity_4</title>
<path fill="none" stroke="red" d="M849.943,-558.982C924.304,-540.264 1042.48,-497.835 1095.76,-410 1129.72,-354.016 1061.12,-287.727 1019.12,-254.401"/>
<polygon fill="red" stroke="red" points="1021.16,-251.553 1011.12,-248.188 1016.87,-257.084 1021.16,-251.553"/>
<text text-anchor="middle" x="1159.26" y="-398.8" font-family="Times New Roman,serif" font-size="14.00" fill="red"> &#160;&#160;click(&quot;index=3&quot;) &#160;&#160;</text>
</g>
<!-- state_29 -->
<g id="node3" class="node"><title>state_29</title>
<g id="a_node3"><a xlink:href="29.png" xlink:title="&lt;TABLE&gt;">
<polygon fill="none" stroke="black" points="1547.76,-377 1417.76,-377 1417.76,-87 1547.76,-87 1547.76,-377"/>
<text text-anchor="start" x="1459.26" y="-365.8" font-family="Times New Roman,serif" font-size="14.00">state_29</text>
<text text-anchor="start" x="1452.26" y="-350.8" font-family="Times New Roman,serif" font-size="14.00">incoming:6</text>
<text text-anchor="start" x="1453.26" y="-335.8" font-family="Times New Roman,serif" font-size="14.00">outgoing:7</text>
<text text-anchor="start" x="1464.76" y="-320.8" font-family="Times New Roman,serif" font-size="14.00">loop:4</text>
<image xlink:href="29.png" width="130px" height="230px" preserveAspectRatio="xMinYMin meet" x="1417.76" y="-317"/>
</a>
</g>
</g>
<!-- state_29&#45;&gt;state_1 -->
<g id="edge23" class="edge"><title>state_29&#45;&gt;state_1</title>
<path fill="none" stroke="black" d="M1417.51,-358.252C1412.5,-364.83 1407.25,-371.135 1401.76,-377 1373.46,-407.248 1354.18,-399.886 1323.76,-428 1204.16,-538.545 1220.72,-608.944 1099.76,-718 1025.96,-784.535 926.524,-841.779 859.262,-876.716"/>
<polygon fill="black" stroke="black" points="857.275,-873.803 849.991,-881.496 860.483,-880.024 857.275,-873.803"/>
<text text-anchor="middle" x="1371.76" y="-569.3" font-family="Times New Roman,serif" font-size="14.00"> &#160;&#160;click(&quot;稍後&quot;) &#160;&#160;</text>
</g>
<!-- state_29&#45;&gt;state_1 -->
<g id="edge25" class="edge"><title>state_29&#45;&gt;state_1</title>
<path fill="none" stroke="black" d="M1458.17,-377.157C1455.53,-394.272 1452.99,-411.512 1450.76,-428 1442.06,-492.226 1461,-668.001 1419.76,-718 1347.67,-805.404 1012.17,-873.511 860.072,-900.455"/>
<polygon fill="black" stroke="black" points="859.126,-897.067 849.884,-902.246 860.339,-903.961 859.126,-897.067"/>
<text text-anchor="middle" x="1498.76" y="-569.3" font-family="Times New Roman,serif" font-size="14.00"> &#160;&#160;click(&quot;不要&quot;) &#160;&#160;</text>
</g>
<!-- state_29&#45;&gt;state_29 -->
<g id="edge26" class="edge"><title>state_29&#45;&gt;state_29</title>
<path fill="none" stroke="black" d="M1547.83,-239.373C1558.46,-238.318 1565.76,-235.86 1565.76,-232 1565.76,-229.527 1562.76,-227.63 1557.81,-226.308"/>
<polygon fill="black" stroke="black" points="1558.27,-222.836 1547.83,-224.627 1557.11,-229.739 1558.27,-222.836"/>
<text text-anchor="middle" x="1618.76" y="-228.3" font-family="Times New Roman,serif" font-size="14.00"> &#160;&#160;swipe(&quot;Right&quot;) &#160;&#160;</text>
</g>
<!-- state_29&#45;&gt;state_29 -->
<g id="edge27" class="edge"><title>state_29&#45;&gt;state_29</title>
<path fill="none" stroke="black" d="M1547.87,-246.262C1603.66,-250.824 1671.76,-246.07 1671.76,-232 1671.76,-218.782 1611.66,-213.786 1558.12,-217.012"/>
<polygon fill="black" stroke="black" points="1557.6,-213.54 1547.87,-217.738 1558.09,-220.522 1557.6,-213.54"/>
<text text-anchor="middle" x="1721.26" y="-228.3" font-family="Times New Roman,serif" font-size="14.00"> &#160;&#160;swipe(&quot;Left&quot;) &#160;&#160;</text>
</g>
<!-- state_29&#45;&gt;state_29 -->
<g id="edge28" class="edge"><title>state_29&#45;&gt;state_29</title>
<path fill="none" stroke="black" d="M1547.9,-250.387C1634.69,-261.724 1770.76,-255.595 1770.76,-232 1770.76,-209.304 1644.85,-202.768 1558.02,-212.393"/>
<polygon fill="black" stroke="black" points="1557.41,-208.941 1547.9,-213.613 1558.25,-215.891 1557.41,-208.941"/>
<text text-anchor="middle" x="1833.26" y="-228.3" font-family="Times New Roman,serif" font-size="14.00"> &#160;&#160;press(&quot;BackKey&quot;) &#160;&#160;</text>
</g>
<!-- state_29&#45;&gt;state_29 -->
<g id="edge29" class="edge"><title>state_29&#45;&gt;state_29</title>
<path fill="none" stroke="black" d="M1548.13,-253.221C1667.05,-272.609 1895.76,-265.535 1895.76,-232 1895.76,-199.382 1679.39,-191.798 1558.12,-209.248"/>
<polygon fill="black" stroke="black" points="1557.48,-205.805 1548.13,-210.779 1558.54,-212.724 1557.48,-205.805"/>
<text text-anchor="middle" x="1959.76" y="-228.3" font-family="Times New Roman,serif" font-size="14.00"> &#160;&#160;press(&quot;MenuKey&quot;) &#160;&#160;</text>
</g>
<!-- state_29&#45;&gt;activity_3 -->
<g id="edge24" class="edge"><title>state_29&#45;&gt;activity_3</title>
<path fill="none" stroke="red" d="M1417.57,-99.9774C1413.21,-95.3349 1408.61,-90.9775 1403.76,-87 1342.67,-36.9087 1249.53,-23.0606 1190.17,-19.5951"/>
<polygon fill="red" stroke="red" points="1190.02,-16.0833 1179.85,-19.0776 1189.67,-23.0745 1190.02,-16.0833"/>
<text text-anchor="middle" x="1414.26" y="-57.8" font-family="Times New Roman,serif" font-size="14.00" fill="red"> &#160;&#160;click(&quot;好&quot;) &#160;&#160;</text>
</g>
<!-- activity_2&#45;&gt;state_29 -->
<g id="edge34" class="edge"><title>activity_2&#45;&gt;state_29</title>
<path fill="none" stroke="red" d="M1599.42,-554.581C1594.44,-524.342 1579.93,-462.108 1541.76,-428 1520.36,-408.881 1496.99,-432.944 1479.76,-410 1474.45,-402.935 1470.38,-395.224 1467.32,-387.102"/>
<polygon fill="red" stroke="red" points="1470.59,-385.835 1464.19,-377.392 1463.93,-387.983 1470.59,-385.835"/>
<text text-anchor="middle" x="1537.26" y="-398.8" font-family="Times New Roman,serif" font-size="14.00" fill="red"> &#160;&#160;click(&quot;index=0&quot;) &#160;&#160;</text>
</g>
<!-- activity_2&#45;&gt;state_29 -->
<g id="edge35" class="edge"><title>activity_2&#45;&gt;state_29</title>
<path fill="none" stroke="red" d="M1604.17,-554.845C1608.05,-522.566 1613.46,-451.007 1594.76,-395 1585.61,-367.584 1570.29,-340.61 1553.87,-316.775"/>
<polygon fill="red" stroke="red" points="1556.65,-314.639 1548.03,-308.48 1550.92,-318.67 1556.65,-314.639"/>
<text text-anchor="middle" x="1661.26" y="-398.8" font-family="Times New Roman,serif" font-size="14.00" fill="red"> &#160;&#160;press(&quot;BackKey&quot;) &#160;&#160;</text>
</g>
<!-- activity_0&#45;&gt;state_1 -->
<g id="edge30" class="edge"><title>activity_0&#45;&gt;state_1</title>
<path fill="none" stroke="red" d="M309.987,-243.94C245.315,-266.403 108.089,-324.517 52.7593,-428 -8.01309,-541.662 -25.6869,-615.733 52.7593,-718 133.261,-822.946 539.151,-883.359 709.413,-904.432"/>
<polygon fill="red" stroke="red" points="709.196,-907.931 719.547,-905.674 710.048,-900.983 709.196,-907.931"/>
<text text-anchor="middle" x="110.259" y="-569.3" font-family="Times New Roman,serif" font-size="14.00" fill="red"> &#160;&#160;click(&quot;index=0&quot;) &#160;&#160;</text>
</g>
<!-- activity_0&#45;&gt;state_1 -->
<g id="edge31" class="edge"><title>activity_0&#45;&gt;state_1</title>
<path fill="none" stroke="red" d="M327.359,-249.16C295.422,-280.155 228.46,-351.686 203.759,-428 183.914,-489.313 166.132,-665.681 203.759,-718 320.948,-880.945 580.907,-909.632 709.595,-913.447"/>
<polygon fill="red" stroke="red" points="709.67,-916.95 719.756,-913.704 709.848,-909.952 709.67,-916.95"/>
<text text-anchor="middle" x="256.759" y="-569.3" font-family="Times New Roman,serif" font-size="14.00" fill="red"> &#160;&#160;swipe(&quot;Right&quot;) &#160;&#160;</text>
</g>
<!-- activity_0&#45;&gt;state_1 -->
<g id="edge32" class="edge"><title>activity_0&#45;&gt;state_1</title>
<path fill="none" stroke="red" d="M342.389,-250.136C332.124,-326.918 294.281,-638.984 345.759,-718 426.712,-842.258 607.028,-887.979 709.602,-904.316"/>
<polygon fill="red" stroke="red" points="709.167,-907.79 719.583,-905.852 710.232,-900.871 709.167,-907.79"/>
<text text-anchor="middle" x="395.259" y="-569.3" font-family="Times New Roman,serif" font-size="14.00" fill="red"> &#160;&#160;swipe(&quot;Left&quot;) &#160;&#160;</text>
</g>
<!-- activity_0&#45;&gt;state_1 -->
<g id="edge33" class="edge"><title>activity_0&#45;&gt;state_1</title>
<path fill="none" stroke="red" d="M341.992,-250.2C337.418,-285.166 332.496,-365.031 373.759,-410 395.769,-433.986 419.513,-407.448 444.759,-428 555.903,-518.48 502.016,-601.697 585.759,-718 621.739,-767.968 671.141,-816.458 711.72,-852.585"/>
<polygon fill="red" stroke="red" points="709.639,-855.416 719.45,-859.413 714.273,-850.17 709.639,-855.416"/>
<text text-anchor="middle" x="648.259" y="-569.3" font-family="Times New Roman,serif" font-size="14.00" fill="red"> &#160;&#160;press(&quot;BackKey&quot;) &#160;&#160;</text>
</g>
</g>
</svg>
