<?xml version="1.0" encoding="UTF-8" standalone="no"?>
<!DOCTYPE svg PUBLIC "-//W3C//DTD SVG 1.1//EN"
 "http://www.w3.org/Graphics/SVG/1.1/DTD/svg11.dtd">
<!-- Generated by graphviz version 2.38.0 (20140413.2041)
 -->
<!-- Title: result Pages: 1 -->
<svg width="1437pt" height="833pt"
 viewBox="0.00 0.00 1437.00 833.00" xmlns="http://www.w3.org/2000/svg" xmlns:xlink="http://www.w3.org/1999/xlink">
<g id="graph0" class="graph" transform="scale(1 1) rotate(0) translate(4 829)">
<title>result</title>
<polygon fill="white" stroke="none" points="-4,4 -4,-829 1433,-829 1433,4 -4,4"/>
<!-- initial -->
<g id="node1" class="node"><title>initial</title>
<image xlink:href="-1.png" width="50px" height="50px" preserveAspectRatio="xMinYMin meet" x="0" y="-410"/>
</g>
<!-- activity_0 -->
<g id="node2" class="node"><title>activity_0</title>
<g id="a_node2"><a xlink:href="activity_0.svg" xlink:title="&lt;TABLE&gt;">
<polygon fill="none" stroke="black" points="217,-522.5 87,-522.5 87,-247.5 217,-247.5 217,-522.5"/>
<text text-anchor="start" x="124.5" y="-510.8" font-family="Times New Roman,serif" font-size="14.00">activity_0</text>
<text text-anchor="start" x="121.5" y="-495.8" font-family="Times New Roman,serif" font-size="14.00">incoming:2</text>
<text text-anchor="start" x="122.5" y="-480.8" font-family="Times New Roman,serif" font-size="14.00">outgoing:4</text>
<image xlink:href="0.png" width="130px" height="230px" preserveAspectRatio="xMinYMin meet" x="87" y="-477"/>
</a>
</g>
</g>
<!-- initial&#45;&gt;activity_0 -->
<g id="edge1" class="edge"><title>initial&#45;&gt;activity_0</title>
<path fill="none" stroke="black" d="M50.1013,-385C57.9994,-385 67.2332,-385 76.8484,-385"/>
<polygon fill="black" stroke="black" points="76.9667,-388.5 86.9666,-385 76.9666,-381.5 76.9667,-388.5"/>
</g>
<!-- activity_1 -->
<g id="node3" class="node"><title>activity_1</title>
<g id="a_node3"><a xlink:href="activity_1.svg" xlink:title="&lt;TABLE&gt;">
<polygon fill="none" stroke="black" points="591,-522.5 461,-522.5 461,-247.5 591,-247.5 591,-522.5"/>
<text text-anchor="start" x="498.5" y="-510.8" font-family="Times New Roman,serif" font-size="14.00">activity_1</text>
<text text-anchor="start" x="495.5" y="-495.8" font-family="Times New Roman,serif" font-size="14.00">incoming:6</text>
<text text-anchor="start" x="493" y="-480.8" font-family="Times New Roman,serif" font-size="14.00">outgoing:13</text>
<image xlink:href="1.png" width="130px" height="230px" preserveAspectRatio="xMinYMin meet" x="461" y="-477"/>
</a>
</g>
</g>
<!-- activity_0&#45;&gt;activity_1 -->
<g id="edge2" class="edge"><title>activity_0&#45;&gt;activity_1</title>
<path fill="none" stroke="black" d="M217.381,-449.278C223.049,-452.714 228.943,-455.695 235,-458 321.397,-490.886 356.603,-490.886 443,-458 445.934,-456.883 448.829,-455.608 451.679,-454.2"/>
<polygon fill="black" stroke="black" points="453.547,-457.167 460.619,-449.278 450.171,-451.035 453.547,-457.167"/>
<text text-anchor="middle" x="339" y="-486.8" font-family="Times New Roman,serif" font-size="14.00"> &#160;&#160;&lt;a0.s0,click(&quot;index=0&quot;),a1.s1&gt; &#160;&#160;</text>
</g>
<!-- activity_0&#45;&gt;activity_1 -->
<g id="edge3" class="edge"><title>activity_0&#45;&gt;activity_1</title>
<path fill="none" stroke="black" d="M217.122,-415.204C223.07,-417.137 229.086,-418.791 235,-420 325.57,-438.521 352.43,-438.521 443,-420 445.68,-419.452 448.381,-418.813 451.086,-418.098"/>
<polygon fill="black" stroke="black" points="452.28,-421.395 460.878,-415.204 450.296,-414.682 452.28,-421.395"/>
<text text-anchor="middle" x="339" y="-437.8" font-family="Times New Roman,serif" font-size="14.00"> &#160;&#160;&lt;a0.s0,swipe(&quot;Right&quot;),a1.s1&gt; &#160;&#160;</text>
</g>
<!-- activity_0&#45;&gt;activity_1 -->
<g id="edge4" class="edge"><title>activity_0&#45;&gt;activity_1</title>
<path fill="none" stroke="black" d="M217.373,-385C282.25,-385 382.285,-385 450.541,-385"/>
<polygon fill="black" stroke="black" points="450.793,-388.5 460.793,-385 450.793,-381.5 450.793,-388.5"/>
<text text-anchor="middle" x="339" y="-388.8" font-family="Times New Roman,serif" font-size="14.00"> &#160;&#160;&lt;a0.s0,swipe(&quot;Left&quot;),a1.s1&gt; &#160;&#160;</text>
</g>
<!-- activity_0&#45;&gt;activity_1 -->
<g id="edge5" class="edge"><title>activity_0&#45;&gt;activity_1</title>
<path fill="none" stroke="black" d="M217.216,-368.665C223.198,-367.584 229.193,-366.664 235,-366 326.846,-355.498 351.154,-355.498 443,-366 445.541,-366.291 448.117,-366.63 450.713,-367.011"/>
<polygon fill="black" stroke="black" points="450.348,-370.498 460.784,-368.665 451.483,-363.59 450.348,-370.498"/>
<text text-anchor="middle" x="339" y="-369.8" font-family="Times New Roman,serif" font-size="14.00"> &#160;&#160;&lt;a0.s0,press(&quot;BackKey&quot;),a1.s1&gt; &#160;&#160;</text>
</g>
<!-- activity_1&#45;&gt;activity_0 -->
<g id="edge8" class="edge"><title>activity_1&#45;&gt;activity_0</title>
<path fill="none" stroke="black" d="M460.888,-346.014C454.987,-343.601 448.977,-341.532 443,-340 353.451,-317.044 324.549,-317.044 235,-340 232.198,-340.718 229.389,-341.555 226.587,-342.489"/>
<polygon fill="black" stroke="black" points="225.264,-339.247 217.112,-346.014 227.705,-345.807 225.264,-339.247"/>
<text text-anchor="middle" x="339" y="-343.8" font-family="Times New Roman,serif" font-size="14.00"> &#160;&#160;&lt;a1.s13,click(&quot;index=0&quot;),a0.s0&gt; &#160;&#160;</text>
</g>
<!-- activity_1&#45;&gt;activity_0 -->
<g id="edge9" class="edge"><title>activity_1&#45;&gt;activity_0</title>
<path fill="none" stroke="black" d="M460.898,-313.569C455.183,-309.813 449.201,-306.546 443,-304 357.484,-268.885 320.516,-268.885 235,-304 231.899,-305.273 228.854,-306.726 225.869,-308.331"/>
<polygon fill="black" stroke="black" points="223.891,-305.435 217.102,-313.569 227.482,-311.444 223.891,-305.435"/>
<text text-anchor="middle" x="339" y="-307.8" font-family="Times New Roman,serif" font-size="14.00"> &#160;&#160;&lt;a1.s13,click(&quot;index=4&quot;),a0.s0&gt; &#160;&#160;</text>
</g>
<!-- activity_2 -->
<g id="node4" class="node"><title>activity_2</title>
<g id="a_node4"><a xlink:href="activity_2.svg" xlink:title="&lt;TABLE&gt;">
<polygon fill="none" stroke="black" points="1011.5,-598.5 881.5,-598.5 881.5,-323.5 1011.5,-323.5 1011.5,-598.5"/>
<text text-anchor="start" x="919" y="-586.8" font-family="Times New Roman,serif" font-size="14.00">activity_2</text>
<text text-anchor="start" x="916" y="-571.8" font-family="Times New Roman,serif" font-size="14.00">incoming:1</text>
<text text-anchor="start" x="917" y="-556.8" font-family="Times New Roman,serif" font-size="14.00">outgoing:6</text>
<image xlink:href="8.png" width="130px" height="230px" preserveAspectRatio="xMinYMin meet" x="881.5" y="-553"/>
</a>
</g>
</g>
<!-- activity_1&#45;&gt;activity_2 -->
<g id="edge6" class="edge"><title>activity_1&#45;&gt;activity_2</title>
<path fill="none" stroke="black" d="M591.229,-431.536C597.057,-434.438 603.021,-436.993 609,-439 695.624,-468.074 801.699,-469.874 871.31,-466.85"/>
<polygon fill="black" stroke="black" points="871.489,-470.346 881.31,-466.372 871.154,-463.354 871.489,-470.346"/>
<text text-anchor="middle" x="716" y="-471.8" font-family="Times New Roman,serif" font-size="14.00"> &#160;&#160;&lt;a1.s1,click(&quot;index=1&quot;),a2.s8&gt; &#160;&#160;</text>
</g>
<!-- final -->
<g id="node5" class="node"><title>final</title>
<image xlink:href="-2.png" width="50px" height="50px" preserveAspectRatio="xMinYMin meet" x="921.5" y="-50"/>
</g>
<!-- activity_1&#45;&gt;final -->
<g id="edge7" class="edge"><title>activity_1&#45;&gt;final</title>
<path fill="none" stroke="black" d="M545.254,-247.349C558.587,-169.332 579.518,-82.357 609,-57 695.365,17.2802 844.23,-2.68863 911.156,-16.6837"/>
<polygon fill="black" stroke="black" points="910.656,-20.1568 921.171,-18.8632 912.144,-13.3168 910.656,-20.1568"/>
<text text-anchor="middle" x="716" y="-60.8" font-family="Times New Roman,serif" font-size="14.00"> &#160;&#160;&lt;a1.s1,press(&quot;BackKey&quot;),final&gt; &#160;&#160;</text>
</g>
<!-- activity_4 -->
<g id="node6" class="node"><title>activity_4</title>
<g id="a_node6"><a xlink:href="activity_4.svg" xlink:title="&lt;TABLE&gt;">
<polygon fill="none" stroke="black" points="1429,-797.5 1299,-797.5 1299,-522.5 1429,-522.5 1429,-797.5"/>
<text text-anchor="start" x="1336.5" y="-785.8" font-family="Times New Roman,serif" font-size="14.00">activity_4</text>
<text text-anchor="start" x="1333.5" y="-770.8" font-family="Times New Roman,serif" font-size="14.00">incoming:6</text>
<text text-anchor="start" x="1334.5" y="-755.8" font-family="Times New Roman,serif" font-size="14.00">outgoing:0</text>
<image xlink:href="15.png" width="130px" height="230px" preserveAspectRatio="xMinYMin meet" x="1299" y="-752"/>
</a>
</g>
</g>
<!-- activity_1&#45;&gt;activity_4 -->
<g id="edge11" class="edge"><title>activity_1&#45;&gt;activity_4</title>
<path fill="none" stroke="black" d="M540.27,-522.613C552.209,-613.845 573.477,-721.921 609,-751 724.555,-845.591 1145.24,-813.199 1281,-751 1284.24,-749.516 1287.41,-747.836 1290.5,-745.992"/>
<polygon fill="black" stroke="black" points="1292.57,-748.815 1299,-740.39 1288.72,-742.97 1292.57,-748.815"/>
<text text-anchor="middle" x="946.5" y="-813.8" font-family="Times New Roman,serif" font-size="14.00"> &#160;&#160;&lt;a1.s13,click(&quot;index=0&quot;),a4.s15&gt; &#160;&#160;</text>
</g>
<!-- activity_1&#45;&gt;activity_4 -->
<g id="edge13" class="edge"><title>activity_1&#45;&gt;activity_4</title>
<path fill="none" stroke="black" d="M546.174,-522.684C559.567,-596.66 580.238,-677.267 609,-700 726.158,-792.598 1135.87,-735.183 1281,-700 1283.65,-699.357 1286.32,-698.62 1288.98,-697.804"/>
<polygon fill="black" stroke="black" points="1290.27,-701.064 1298.61,-694.533 1288.02,-694.436 1290.27,-701.064"/>
<text text-anchor="middle" x="946.5" y="-753.8" font-family="Times New Roman,serif" font-size="14.00"> &#160;&#160;&lt;a1.s13,click(&quot;index=0&quot;),a4.s17&gt; &#160;&#160;</text>
</g>
<!-- activity_1&#45;&gt;activity_4 -->
<g id="edge15" class="edge"><title>activity_1&#45;&gt;activity_4</title>
<path fill="none" stroke="black" d="M537.389,-522.618C548.326,-570.24 569.324,-619.113 609,-649 714.229,-728.267 1120.04,-689.696 1288.76,-669.578"/>
<polygon fill="black" stroke="black" points="1289.29,-673.039 1298.8,-668.369 1288.45,-666.09 1289.29,-673.039"/>
<text text-anchor="middle" x="946.5" y="-700.8" font-family="Times New Roman,serif" font-size="14.00"> &#160;&#160;&lt;a1.s13,click(&quot;index=1&quot;),a4.s15&gt; &#160;&#160;</text>
</g>
<!-- activity_1&#45;&gt;activity_4 -->
<g id="edge17" class="edge"><title>activity_1&#45;&gt;activity_4</title>
<path fill="none" stroke="black" d="M591.058,-470.546C596.839,-476.401 602.844,-481.966 609,-487 698.863,-560.491 729.735,-573.886 841,-607 995.466,-652.971 1185.75,-660.715 1288.57,-661.112"/>
<polygon fill="black" stroke="black" points="1288.84,-664.612 1298.84,-661.128 1288.85,-657.612 1288.84,-664.612"/>
<text text-anchor="middle" x="946.5" y="-650.8" font-family="Times New Roman,serif" font-size="14.00"> &#160;&#160;&lt;a1.s13,click(&quot;index=3&quot;),a4.s17&gt; &#160;&#160;</text>
</g>
<!-- activity_3 -->
<g id="node7" class="node"><title>activity_3</title>
<ellipse fill="none" stroke="black" cx="1364" cy="-239" rx="46.2923" ry="18"/>
<text text-anchor="middle" x="1364" y="-235.3" font-family="Times New Roman,serif" font-size="14.00">activity_3</text>
</g>
<!-- activity_1&#45;&gt;activity_3 -->
<g id="edge10" class="edge"><title>activity_1&#45;&gt;activity_3</title>
<path fill="none" stroke="black" d="M591.229,-364.091C654.194,-344.386 753.232,-315.493 841,-299 1034.24,-262.688 1086.21,-279.782 1281,-253 1290.98,-251.628 1301.61,-249.964 1311.79,-248.27"/>
<polygon fill="black" stroke="black" points="1312.51,-251.698 1321.79,-246.575 1311.34,-244.796 1312.51,-251.698"/>
<text text-anchor="middle" x="946.5" y="-302.8" font-family="Times New Roman,serif" font-size="14.00"> &#160;&#160;&lt;a1.s13,click(&quot;index=0&quot;),a3.s14&gt; &#160;&#160;</text>
</g>
<!-- activity_1&#45;&gt;activity_3 -->
<g id="edge12" class="edge"><title>activity_1&#45;&gt;activity_3</title>
<path fill="none" stroke="black" d="M591.145,-310.711C596.868,-306.331 602.839,-302.352 609,-299 844.842,-170.674 1184.93,-209.058 1312.3,-229.713"/>
<polygon fill="black" stroke="black" points="1311.74,-233.168 1322.18,-231.349 1312.88,-226.262 1311.74,-233.168"/>
<text text-anchor="middle" x="946.5" y="-226.8" font-family="Times New Roman,serif" font-size="14.00"> &#160;&#160;&lt;a1.s13,click(&quot;index=0&quot;),a3.s16&gt; &#160;&#160;</text>
</g>
<!-- activity_1&#45;&gt;activity_3 -->
<g id="edge14" class="edge"><title>activity_1&#45;&gt;activity_3</title>
<path fill="none" stroke="black" d="M585.021,-247.457C592.177,-239.036 600.144,-231.397 609,-225 730.107,-137.518 1135.58,-170.736 1281,-205 1296.23,-208.59 1312.29,-214.683 1326.11,-220.727"/>
<polygon fill="black" stroke="black" points="1324.73,-223.946 1335.29,-224.873 1327.62,-217.567 1324.73,-223.946"/>
<text text-anchor="middle" x="946.5" y="-178.8" font-family="Times New Roman,serif" font-size="14.00"> &#160;&#160;&lt;a1.s13,click(&quot;index=0&quot;),a3.s14&gt; &#160;&#160;</text>
</g>
<!-- activity_1&#45;&gt;activity_3 -->
<g id="edge16" class="edge"><title>activity_1&#45;&gt;activity_3</title>
<path fill="none" stroke="black" d="M553.107,-247.489C565.233,-217.248 582.992,-188.473 609,-169 728.54,-79.4939 1142.69,-116.674 1281,-173 1303.63,-182.215 1324.99,-199.806 1340.23,-214.511"/>
<polygon fill="black" stroke="black" points="1338.06,-217.295 1347.62,-221.878 1343.01,-212.339 1338.06,-217.295"/>
<text text-anchor="middle" x="946.5" y="-128.8" font-family="Times New Roman,serif" font-size="14.00"> &#160;&#160;&lt;a1.s13,click(&quot;index=2&quot;),a3.s21&gt; &#160;&#160;</text>
</g>
<!-- activity_1&#45;&gt;activity_3 -->
<g id="edge24" class="edge"><title>activity_1&#45;&gt;activity_3</title>
<path fill="none" stroke="black" d="M553.324,-247.427C567.38,-189.356 586.446,-130.995 609,-113 667.374,-66.4267 1216.73,-85.9675 1281,-124 1315.02,-144.132 1338.71,-184.51 1351.59,-211.653"/>
<polygon fill="black" stroke="black" points="1348.51,-213.344 1355.84,-220.992 1354.88,-210.441 1348.51,-213.344"/>
<text text-anchor="middle" x="946.5" y="-94.8" font-family="Times New Roman,serif" font-size="14.00"> &#160;&#160;&lt;a1.s29,click(&quot;好&quot;),a3.s14&gt; &#160;&#160;</text>
</g>
<!-- activity_2&#45;&gt;activity_1 -->
<g id="edge18" class="edge"><title>activity_2&#45;&gt;activity_1</title>
<path fill="none" stroke="black" d="M881.434,-436.413C862.832,-430.137 842.319,-424.032 823,-420 729.529,-400.491 703.543,-414.384 609,-401 606.487,-400.644 603.934,-400.262 601.359,-399.86"/>
<polygon fill="black" stroke="black" points="601.786,-396.383 591.351,-398.213 600.65,-403.29 601.786,-396.383"/>
<text text-anchor="middle" x="716" y="-423.8" font-family="Times New Roman,serif" font-size="14.00"> &#160;&#160;&lt;a2.s8,click(&quot;index=0&quot;),a1.s29&gt; &#160;&#160;</text>
</g>
<!-- activity_2&#45;&gt;activity_1 -->
<g id="edge19" class="edge"><title>activity_2&#45;&gt;activity_1</title>
<path fill="none" stroke="black" d="M881.207,-409.862C863.35,-398.449 843.27,-387.969 823,-382 749.951,-360.488 662.297,-364.884 601.419,-372.404"/>
<polygon fill="black" stroke="black" points="600.598,-368.981 591.13,-373.735 601.497,-375.923 600.598,-368.981"/>
<text text-anchor="middle" x="716" y="-385.8" font-family="Times New Roman,serif" font-size="14.00"> &#160;&#160;&lt;a2.s8,press(&quot;BackKey&quot;),a1.s29&gt; &#160;&#160;</text>
</g>
<!-- activity_2&#45;&gt;activity_4 -->
<g id="edge21" class="edge"><title>activity_2&#45;&gt;activity_4</title>
<path fill="none" stroke="black" d="M1011.52,-497.61C1030.12,-507.666 1050.64,-518.211 1070,-527 1161.18,-568.399 1191.74,-560.623 1281,-606 1284.06,-607.553 1287.14,-609.196 1290.22,-610.904"/>
<polygon fill="black" stroke="black" points="1288.49,-613.943 1298.9,-615.872 1291.96,-607.867 1288.49,-613.943"/>
<text text-anchor="middle" x="1175.5" y="-609.8" font-family="Times New Roman,serif" font-size="14.00"> &#160;&#160;&lt;a2.s36,click(&quot;index=0&quot;),a4.s17&gt; &#160;&#160;</text>
</g>
<!-- activity_2&#45;&gt;activity_4 -->
<g id="edge23" class="edge"><title>activity_2&#45;&gt;activity_4</title>
<path fill="none" stroke="black" d="M1011.76,-463.254C1096.17,-467.35 1238.65,-478.522 1281,-508 1284.6,-510.505 1288.05,-513.22 1291.37,-516.113"/>
<polygon fill="black" stroke="black" points="1289.18,-518.859 1298.86,-523.169 1293.98,-513.764 1289.18,-518.859"/>
<text text-anchor="middle" x="1175.5" y="-511.8" font-family="Times New Roman,serif" font-size="14.00"> &#160;&#160;&lt;a2.s36,click(&quot;index=1&quot;),a4.s17&gt; &#160;&#160;</text>
</g>
<!-- activity_2&#45;&gt;activity_3 -->
<g id="edge20" class="edge"><title>activity_2&#45;&gt;activity_3</title>
<path fill="none" stroke="black" d="M1011.78,-456.436C1083.67,-448.467 1200.54,-426.644 1281,-367 1315.9,-341.133 1339.82,-295.615 1352.45,-266.409"/>
<polygon fill="black" stroke="black" points="1355.83,-267.394 1356.45,-256.817 1349.37,-264.702 1355.83,-267.394"/>
<text text-anchor="middle" x="1175.5" y="-450.8" font-family="Times New Roman,serif" font-size="14.00"> &#160;&#160;&lt;a2.s36,click(&quot;index=0&quot;),a3.s21&gt; &#160;&#160;</text>
</g>
<!-- activity_2&#45;&gt;activity_3 -->
<g id="edge22" class="edge"><title>activity_2&#45;&gt;activity_3</title>
<path fill="none" stroke="black" d="M1011.76,-389.815C1029.25,-373.976 1049.16,-358.725 1070,-348 1155.18,-304.161 1194.24,-344.623 1281,-304 1302.72,-293.832 1323.84,-276.87 1339.2,-262.822"/>
<polygon fill="black" stroke="black" points="1341.79,-265.191 1346.69,-255.794 1337,-260.088 1341.79,-265.191"/>
<text text-anchor="middle" x="1175.5" y="-351.8" font-family="Times New Roman,serif" font-size="14.00"> &#160;&#160;&lt;a2.s36,click(&quot;index=0&quot;),a3.s21&gt; &#160;&#160;</text>
</g>
</g>
</svg>
