<?xml version="1.0" encoding="UTF-8" standalone="no"?>
<!DOCTYPE svg PUBLIC "-//W3C//DTD SVG 1.1//EN"
 "http://www.w3.org/Graphics/SVG/1.1/DTD/svg11.dtd">
<!-- Generated by graphviz version 2.38.0 (20140413.2041)
 -->
<!-- Title: g Pages: 1 -->
<svg width="2350pt" height="1385pt"
 viewBox="0.00 0.00 2350.09 1385.00" xmlns="http://www.w3.org/2000/svg" xmlns:xlink="http://www.w3.org/1999/xlink">
<g id="graph0" class="graph" transform="scale(1 1) rotate(0) translate(4 1381)">
<title>g</title>
<polygon fill="white" stroke="none" points="-4,4 -4,-1381 2346.09,-1381 2346.09,4 -4,4"/>
<text text-anchor="middle" x="1171.05" y="-7.8" font-family="Times New Roman,serif" font-size="14.00"> &#160;&#160;activity_4 &#160;&#160;</text>
<!-- state_0 -->
<g id="node1" class="node"><title>state_0</title>
<g id="a_node1"><a xlink:href="0.png">
<polygon fill="none" stroke="black" points="699.092,-1377 569.092,-1377 569.092,-1147 699.092,-1147 699.092,-1377"/>
<image xlink:href="0.png" width="130px" height="230px" preserveAspectRatio="xMinYMin meet" x="569.092" y="-1377"/>
</a>
</g>
</g>
<!-- state_0&#45;&gt;state_0 -->
<g id="edge1" class="edge"><title>state_0&#45;&gt;state_0</title>
<path fill="none" stroke="black" d="M699.164,-1286.29C709.79,-1282.81 717.092,-1274.71 717.092,-1262 717.092,-1253.46 713.796,-1247 708.41,-1242.63"/>
<polygon fill="black" stroke="black" points="709.637,-1239.32 699.164,-1237.71 706.352,-1245.5 709.637,-1239.32"/>
<text text-anchor="middle" x="781.092" y="-1258.3" font-family="Times New Roman,serif" font-size="14.00"> &#160;&#160;press(&quot;MenuKey&quot;) &#160;&#160;</text>
</g>
<!-- state_1 -->
<g id="node2" class="node"><title>state_1</title>
<g id="a_node2"><a xlink:href="1.png">
<polygon fill="none" stroke="black" points="913.092,-1096 783.092,-1096 783.092,-866 913.092,-866 913.092,-1096"/>
<image xlink:href="1.png" width="130px" height="230px" preserveAspectRatio="xMinYMin meet" x="783.092" y="-1096"/>
</a>
</g>
</g>
<!-- state_0&#45;&gt;state_1 -->
<g id="edge2" class="edge"><title>state_0&#45;&gt;state_1</title>
<path fill="none" stroke="black" d="M568.894,-1186.68C555.2,-1162.19 549.331,-1135.7 566.092,-1114 585.469,-1088.92 605.582,-1107.56 635.092,-1096 683.019,-1077.23 733.943,-1050.26 773.977,-1027.26"/>
<polygon fill="black" stroke="black" points="775.965,-1030.16 782.868,-1022.12 772.459,-1024.1 775.965,-1030.16"/>
<text text-anchor="middle" x="623.592" y="-1117.8" font-family="Times New Roman,serif" font-size="14.00"> &#160;&#160;click(&quot;index=0&quot;) &#160;&#160;</text>
</g>
<!-- state_0&#45;&gt;state_1 -->
<g id="edge3" class="edge"><title>state_0&#45;&gt;state_1</title>
<path fill="none" stroke="black" d="M682.953,-1146.87C689.464,-1135.4 696.53,-1124.23 704.092,-1114 724.282,-1086.69 750.711,-1060.55 775.409,-1038.84"/>
<polygon fill="black" stroke="black" points="777.748,-1041.44 783.009,-1032.25 773.161,-1036.16 777.748,-1041.44"/>
<text text-anchor="middle" x="757.092" y="-1117.8" font-family="Times New Roman,serif" font-size="14.00"> &#160;&#160;swipe(&quot;Right&quot;) &#160;&#160;</text>
</g>
<!-- state_0&#45;&gt;state_1 -->
<g id="edge4" class="edge"><title>state_0&#45;&gt;state_1</title>
<path fill="none" stroke="black" d="M699.517,-1226.79C737.162,-1203.91 782.356,-1170.41 810.092,-1129 814.995,-1121.68 819.265,-1113.77 822.984,-1105.54"/>
<polygon fill="black" stroke="black" points="826.291,-1106.7 826.954,-1096.13 819.842,-1103.98 826.291,-1106.7"/>
<text text-anchor="middle" x="867.592" y="-1117.8" font-family="Times New Roman,serif" font-size="14.00"> &#160;&#160;swipe(&quot;Left&quot;) &#160;&#160;</text>
</g>
<!-- state_0&#45;&gt;state_1 -->
<g id="edge5" class="edge"><title>state_0&#45;&gt;state_1</title>
<path fill="none" stroke="black" d="M699.222,-1251.58C767.794,-1237.8 872.419,-1204.96 921.092,-1129 934.732,-1107.71 930.149,-1083.53 918.336,-1061"/>
<polygon fill="black" stroke="black" points="921.271,-1059.08 913.275,-1052.13 915.191,-1062.55 921.271,-1059.08"/>
<text text-anchor="middle" x="988.592" y="-1117.8" font-family="Times New Roman,serif" font-size="14.00"> &#160;&#160;press(&quot;BackKey&quot;) &#160;&#160;</text>
</g>
<!-- state_1&#45;&gt;state_1 -->
<g id="edge6" class="edge"><title>state_1&#45;&gt;state_1</title>
<path fill="none" stroke="black" d="M913.164,-985.857C923.79,-985.162 931.092,-983.543 931.092,-981 931.092,-979.371 928.095,-978.121 923.148,-977.25"/>
<polygon fill="black" stroke="black" points="923.489,-973.767 913.164,-976.143 922.717,-980.724 923.489,-973.767"/>
<text text-anchor="middle" x="988.592" y="-977.3" font-family="Times New Roman,serif" font-size="14.00"> &#160;&#160;click(&quot;index=0&quot;) &#160;&#160;</text>
</g>
<!-- state_1&#45;&gt;state_1 -->
<g id="edge7" class="edge"><title>state_1&#45;&gt;state_1</title>
<path fill="none" stroke="black" d="M913.273,-990.273C972.125,-993.484 1046.09,-990.393 1046.09,-981 1046.09,-972.139 980.267,-968.887 923.403,-971.242"/>
<polygon fill="black" stroke="black" points="923.094,-967.752 913.273,-971.727 923.429,-974.744 923.094,-967.752"/>
<text text-anchor="middle" x="1117.09" y="-977.3" font-family="Times New Roman,serif" font-size="14.00"> &#160;&#160;longClick(&quot;index=0&quot;) &#160;&#160;</text>
</g>
<!-- state_1&#45;&gt;state_1 -->
<g id="edge8" class="edge"><title>state_1&#45;&gt;state_1</title>
<path fill="none" stroke="black" d="M913.258,-992.435C1013.83,-1000.81 1188.09,-996.996 1188.09,-981 1188.09,-965.535 1025.21,-961.459 923.511,-968.772"/>
<polygon fill="black" stroke="black" points="922.958,-965.304 913.258,-969.565 923.499,-972.283 922.958,-965.304"/>
<text text-anchor="middle" x="1259.09" y="-977.3" font-family="Times New Roman,serif" font-size="14.00"> &#160;&#160;longClick(&quot;index=1&quot;) &#160;&#160;</text>
</g>
<!-- state_1&#45;&gt;state_1 -->
<g id="edge9" class="edge"><title>state_1&#45;&gt;state_1</title>
<path fill="none" stroke="black" d="M913.397,-994.202C1047.56,-1007.93 1330.09,-1003.53 1330.09,-981 1330.09,-959.019 1061.18,-954.294 923.482,-966.825"/>
<polygon fill="black" stroke="black" points="923.014,-963.354 913.397,-967.798 923.687,-970.321 923.014,-963.354"/>
<text text-anchor="middle" x="1383.09" y="-977.3" font-family="Times New Roman,serif" font-size="14.00"> &#160;&#160;swipe(&quot;Right&quot;) &#160;&#160;</text>
</g>
<!-- state_1&#45;&gt;state_1 -->
<g id="edge10" class="edge"><title>state_1&#45;&gt;state_1</title>
<path fill="none" stroke="black" d="M913.33,-996.046C1069.58,-1014.95 1436.09,-1009.93 1436.09,-981 1436.09,-952.689 1085.16,-947.278 923.687,-964.769"/>
<polygon fill="black" stroke="black" points="922.867,-961.34 913.33,-965.954 923.663,-968.294 922.867,-961.34"/>
<text text-anchor="middle" x="1485.59" y="-977.3" font-family="Times New Roman,serif" font-size="14.00"> &#160;&#160;swipe(&quot;Left&quot;) &#160;&#160;</text>
</g>
<!-- state_13 -->
<g id="node3" class="node"><title>state_13</title>
<g id="a_node3"><a xlink:href="13.png">
<polygon fill="none" stroke="black" points="581.092,-815 451.092,-815 451.092,-585 581.092,-585 581.092,-815"/>
<image xlink:href="13.png" width="130px" height="230px" preserveAspectRatio="xMinYMin meet" x="451.092" y="-815"/>
</a>
</g>
</g>
<!-- state_1&#45;&gt;state_13 -->
<g id="edge11" class="edge"><title>state_1&#45;&gt;state_13</title>
<path fill="none" stroke="black" d="M843.132,-865.969C839.181,-854.089 833.671,-842.797 826.092,-833 769.093,-759.314 663.038,-726.223 591.022,-711.736"/>
<polygon fill="black" stroke="black" points="591.578,-708.278 581.095,-709.813 590.247,-715.151 591.578,-708.278"/>
<text text-anchor="middle" x="898.092" y="-836.8" font-family="Times New Roman,serif" font-size="14.00"> &#160;&#160;press(&quot;MenuKey&quot;) &#160;&#160;</text>
</g>
<!-- state_8 -->
<g id="node5" class="node"><title>state_8</title>
<g id="a_node5"><a xlink:href="8.png">
<polygon fill="none" stroke="black" points="1367.09,-815 1237.09,-815 1237.09,-585 1367.09,-585 1367.09,-815"/>
<image xlink:href="8.png" width="130px" height="230px" preserveAspectRatio="xMinYMin meet" x="1237.09" y="-815"/>
</a>
</g>
</g>
<!-- state_1&#45;&gt;state_8 -->
<g id="edge12" class="edge"><title>state_1&#45;&gt;state_8</title>
<path fill="none" stroke="black" d="M913.281,-963.204C993.066,-940.15 1129.12,-892.501 1223.09,-815 1225.36,-813.133 1227.58,-811.185 1229.77,-809.168"/>
<polygon fill="black" stroke="black" points="1232.35,-811.549 1237.07,-802.065 1227.46,-806.534 1232.35,-811.549"/>
<text text-anchor="middle" x="1253.59" y="-836.8" font-family="Times New Roman,serif" font-size="14.00"> &#160;&#160;click(&quot;index=1&quot;) &#160;&#160;</text>
</g>
<!-- state_final -->
<g id="node7" class="node"><title>state_final</title>
<g id="a_node7"><a xlink:href="-2.png">
<polygon fill="none" stroke="black" points="2342.09,-815 2212.09,-815 2212.09,-585 2342.09,-585 2342.09,-815"/>
<image xlink:href="-2.png" width="76px" height="74px" preserveAspectRatio="xMinYMin meet" x="2239.09" y="-737"/>
</a>
</g>
</g>
<!-- state_1&#45;&gt;state_final -->
<g id="edge13" class="edge"><title>state_1&#45;&gt;state_final</title>
<path fill="none" stroke="black" d="M913.485,-979.228C1153.55,-975.316 1983.73,-951.952 2203.09,-815 2203.29,-814.879 2203.48,-814.757 2203.67,-814.635"/>
<polygon fill="black" stroke="black" points="2205.95,-817.308 2212.09,-808.669 2201.91,-811.597 2205.95,-817.308"/>
<text text-anchor="middle" x="2230.59" y="-836.8" font-family="Times New Roman,serif" font-size="14.00"> &#160;&#160;press(&quot;BackKey&quot;) &#160;&#160;</text>
</g>
<!-- state_13&#45;&gt;state_0 -->
<g id="edge14" class="edge"><title>state_13&#45;&gt;state_0</title>
<path fill="none" stroke="black" d="M450.786,-758.996C423.009,-788.015 393.696,-825.551 379.092,-866 344.379,-962.148 330.242,-1006.21 379.092,-1096 417.064,-1165.8 498.687,-1210.6 559.415,-1235.64"/>
<polygon fill="black" stroke="black" points="558.389,-1239 568.972,-1239.49 561.005,-1232.51 558.389,-1239"/>
<text text-anchor="middle" x="436.592" y="-977.3" font-family="Times New Roman,serif" font-size="14.00"> &#160;&#160;click(&quot;index=0&quot;) &#160;&#160;</text>
</g>
<!-- state_13&#45;&gt;state_0 -->
<g id="edge15" class="edge"><title>state_13&#45;&gt;state_0</title>
<path fill="none" stroke="black" d="M512.331,-815.1C512.715,-902.981 520.463,-1026.39 554.092,-1129 557.004,-1137.88 560.607,-1146.8 564.659,-1155.57"/>
<polygon fill="black" stroke="black" points="561.541,-1157.16 569.035,-1164.65 567.847,-1154.12 561.541,-1157.16"/>
<text text-anchor="middle" x="600.592" y="-977.3" font-family="Times New Roman,serif" font-size="14.00"> &#160;&#160;click(&quot;index=4&quot;) &#160;&#160;</text>
</g>
<!-- state_13&#45;&gt;state_1 -->
<g id="edge18" class="edge"><title>state_13&#45;&gt;state_1</title>
<path fill="none" stroke="black" d="M528.395,-815.183C533.613,-827.403 540.652,-838.734 550.092,-848 577.651,-875.05 598.819,-852.757 635.092,-866 683.259,-883.585 733.998,-910.373 773.867,-933.564"/>
<polygon fill="black" stroke="black" points="772.324,-936.717 782.721,-938.758 775.867,-930.679 772.324,-936.717"/>
<text text-anchor="middle" x="612.592" y="-836.8" font-family="Times New Roman,serif" font-size="14.00"> &#160;&#160;press(&quot;BackKey&quot;) &#160;&#160;</text>
</g>
<!-- state_13&#45;&gt;state_1 -->
<g id="edge19" class="edge"><title>state_13&#45;&gt;state_1</title>
<path fill="none" stroke="black" d="M581.214,-754.78C610.043,-778.661 644.323,-807.157 675.092,-833 708.062,-860.691 744.396,-891.517 775.22,-917.761"/>
<polygon fill="black" stroke="black" points="773.05,-920.51 782.932,-924.329 777.589,-915.181 773.05,-920.51"/>
<text text-anchor="middle" x="753.092" y="-836.8" font-family="Times New Roman,serif" font-size="14.00"> &#160;&#160;press(&quot;MenuKey&quot;) &#160;&#160;</text>
</g>
<!-- state_13&#45;&gt;state_13 -->
<g id="edge16" class="edge"><title>state_13&#45;&gt;state_13</title>
<path fill="none" stroke="black" d="M581.164,-712.144C591.79,-710.405 599.092,-706.357 599.092,-700 599.092,-695.927 596.095,-692.802 591.148,-690.625"/>
<polygon fill="black" stroke="black" points="591.736,-687.156 581.164,-687.856 589.865,-693.902 591.736,-687.156"/>
<text text-anchor="middle" x="652.092" y="-696.3" font-family="Times New Roman,serif" font-size="14.00"> &#160;&#160;swipe(&quot;Right&quot;) &#160;&#160;</text>
</g>
<!-- state_13&#45;&gt;state_13 -->
<g id="edge17" class="edge"><title>state_13&#45;&gt;state_13</title>
<path fill="none" stroke="black" d="M581.206,-723.491C636.996,-731.004 705.092,-723.174 705.092,-700 705.092,-678.229 644.992,-670 591.457,-675.313"/>
<polygon fill="black" stroke="black" points="590.733,-671.874 581.206,-676.509 591.544,-678.827 590.733,-671.874"/>
<text text-anchor="middle" x="754.592" y="-696.3" font-family="Times New Roman,serif" font-size="14.00"> &#160;&#160;swipe(&quot;Left&quot;) &#160;&#160;</text>
</g>
<!-- state_14 -->
<g id="node8" class="node"><title>state_14</title>
<g id="a_node8"><a xlink:href="14.png">
<polygon fill="none" stroke="black" points="238.092,-253 108.092,-253 108.092,-23 238.092,-23 238.092,-253"/>
<image xlink:href="14.png" width="130px" height="230px" preserveAspectRatio="xMinYMin meet" x="108.092" y="-253"/>
</a>
</g>
</g>
<!-- state_13&#45;&gt;state_14 -->
<g id="edge20" class="edge"><title>state_13&#45;&gt;state_14</title>
<path fill="none" stroke="black" d="M450.709,-698.716C343.248,-694.274 131.689,-667.949 36.0924,-534 -23.2898,-450.795 1.37946,-400.148 36.0924,-304 49.4979,-266.869 75.2989,-232.193 100.929,-204.306"/>
<polygon fill="black" stroke="black" points="103.497,-206.683 107.786,-196.996 98.3919,-201.894 103.497,-206.683"/>
<text text-anchor="middle" x="93.5924" y="-415.3" font-family="Times New Roman,serif" font-size="14.00"> &#160;&#160;click(&quot;index=0&quot;) &#160;&#160;</text>
</g>
<!-- state_13&#45;&gt;state_14 -->
<g id="edge24" class="edge"><title>state_13&#45;&gt;state_14</title>
<path fill="none" stroke="black" d="M450.889,-686.92C373.084,-668.682 246.119,-625.952 187.092,-534 159.229,-490.594 159.263,-361.946 164.038,-263.143"/>
<polygon fill="black" stroke="black" points="167.538,-263.237 164.546,-253.073 160.547,-262.884 167.538,-263.237"/>
<text text-anchor="middle" x="244.592" y="-415.3" font-family="Times New Roman,serif" font-size="14.00"> &#160;&#160;click(&quot;index=0&quot;) &#160;&#160;</text>
</g>
<!-- state_16 -->
<g id="node9" class="node"><title>state_16</title>
<g id="a_node9"><a xlink:href="16.png">
<polygon fill="none" stroke="black" points="1037.09,-534 907.092,-534 907.092,-304 1037.09,-304 1037.09,-534"/>
<image xlink:href="16.png" width="130px" height="230px" preserveAspectRatio="xMinYMin meet" x="907.092" y="-534"/>
</a>
</g>
</g>
<!-- state_13&#45;&gt;state_16 -->
<g id="edge22" class="edge"><title>state_13&#45;&gt;state_16</title>
<path fill="none" stroke="black" d="M581.116,-672.811C682.059,-631.817 867.58,-555 893.092,-534 895.358,-532.135 897.587,-530.189 899.778,-528.174"/>
<polygon fill="black" stroke="black" points="902.348,-530.557 907.077,-521.076 897.468,-525.539 902.348,-530.557"/>
<text text-anchor="middle" x="912.592" y="-555.8" font-family="Times New Roman,serif" font-size="14.00"> &#160;&#160;click(&quot;index=0&quot;) &#160;&#160;</text>
</g>
<!-- state_21 -->
<g id="node10" class="node"><title>state_21</title>
<g id="a_node10"><a xlink:href="21.png">
<polygon fill="none" stroke="black" points="1449.09,-253 1319.09,-253 1319.09,-23 1449.09,-23 1449.09,-253"/>
<image xlink:href="21.png" width="130px" height="230px" preserveAspectRatio="xMinYMin meet" x="1319.09" y="-253"/>
</a>
</g>
</g>
<!-- state_13&#45;&gt;state_21 -->
<g id="edge26" class="edge"><title>state_13&#45;&gt;state_21</title>
<path fill="none" stroke="black" d="M451.079,-661.842C408.217,-633.175 355.929,-589.133 333.092,-534 313.533,-486.779 299.872,-342.843 333.092,-304 459.537,-156.155 1089.54,-139.901 1308.76,-138.781"/>
<polygon fill="black" stroke="black" points="1308.89,-142.28 1318.88,-138.739 1308.86,-135.28 1308.89,-142.28"/>
<text text-anchor="middle" x="390.592" y="-415.3" font-family="Times New Roman,serif" font-size="14.00"> &#160;&#160;click(&quot;index=2&quot;) &#160;&#160;</text>
</g>
<!-- state_15 -->
<g id="node11" class="node"><title>state_15</title>
<g id="a_node11"><a xlink:href="15.png">
<polygon fill="none" stroke="black" points="587.092,-534 457.092,-534 457.092,-304 587.092,-304 587.092,-534"/>
<image xlink:href="15.png" width="130px" height="230px" preserveAspectRatio="xMinYMin meet" x="457.092" y="-534"/>
</a>
</g>
</g>
<!-- state_13&#45;&gt;state_15 -->
<g id="edge21" class="edge"><title>state_13&#45;&gt;state_15</title>
<path fill="none" stroke="black" d="M495.313,-584.743C494.879,-573.69 495.055,-562.638 496.092,-552 496.34,-549.457 496.615,-546.891 496.913,-544.308"/>
<polygon fill="black" stroke="black" points="500.399,-544.632 498.173,-534.273 493.454,-543.759 500.399,-544.632"/>
<text text-anchor="middle" x="553.592" y="-555.8" font-family="Times New Roman,serif" font-size="14.00"> &#160;&#160;click(&quot;index=0&quot;) &#160;&#160;</text>
</g>
<!-- state_13&#45;&gt;state_15 -->
<g id="edge25" class="edge"><title>state_13&#45;&gt;state_15</title>
<path fill="none" stroke="black" d="M450.854,-667.5C400.494,-638.873 344.473,-594.707 377.092,-552 395.548,-527.837 418.268,-551.555 443.092,-534 445.2,-532.51 447.269,-530.944 449.3,-529.313"/>
<polygon fill="black" stroke="black" points="451.663,-531.897 456.941,-522.711 447.086,-526.6 451.663,-531.897"/>
<text text-anchor="middle" x="434.592" y="-555.8" font-family="Times New Roman,serif" font-size="14.00"> &#160;&#160;click(&quot;index=1&quot;) &#160;&#160;</text>
</g>
<!-- state_17 -->
<g id="node12" class="node"><title>state_17</title>
<g id="a_node12"><a xlink:href="17.png">
<polygon fill="none" stroke="black" points="1661.09,-253 1531.09,-253 1531.09,-23 1661.09,-23 1661.09,-253"/>
<image xlink:href="17.png" width="130px" height="230px" preserveAspectRatio="xMinYMin meet" x="1531.09" y="-253"/>
</a>
</g>
</g>
<!-- state_13&#45;&gt;state_17 -->
<g id="edge23" class="edge"><title>state_13&#45;&gt;state_17</title>
<path fill="none" stroke="black" d="M581.158,-622.637C592.954,-605.3 603.809,-586.281 611.092,-567 652.6,-457.12 561.1,-393.564 637.092,-304 673.711,-260.842 704.078,-279.12 760.092,-271 836.871,-259.871 1385.43,-280.193 1458.09,-253 1481.37,-244.288 1503.57,-229.893 1523.1,-214.215"/>
<polygon fill="black" stroke="black" points="1525.54,-216.742 1531.01,-207.673 1521.08,-211.346 1525.54,-216.742"/>
<text text-anchor="middle" x="694.592" y="-415.3" font-family="Times New Roman,serif" font-size="14.00"> &#160;&#160;click(&quot;index=0&quot;) &#160;&#160;</text>
</g>
<!-- state_13&#45;&gt;state_17 -->
<g id="edge27" class="edge"><title>state_13&#45;&gt;state_17</title>
<path fill="none" stroke="black" d="M581.172,-671.822C636.265,-645.194 712.418,-599.103 752.092,-534 805.769,-445.92 711.426,-378.183 783.092,-304 843.86,-241.098 890.095,-279.988 977.092,-271 1030.29,-265.504 1408.11,-272.037 1458.09,-253 1481.32,-244.153 1503.5,-229.707 1523.03,-214.023"/>
<polygon fill="black" stroke="black" points="1525.46,-216.55 1530.94,-207.482 1521,-211.155 1525.46,-216.55"/>
<text text-anchor="middle" x="840.592" y="-415.3" font-family="Times New Roman,serif" font-size="14.00"> &#160;&#160;click(&quot;index=3&quot;) &#160;&#160;</text>
</g>
<!-- state_29 -->
<g id="node4" class="node"><title>state_29</title>
<g id="a_node4"><a xlink:href="29.png">
<polygon fill="none" stroke="black" points="1185.09,-534 1055.09,-534 1055.09,-304 1185.09,-304 1185.09,-534"/>
<image xlink:href="29.png" width="130px" height="230px" preserveAspectRatio="xMinYMin meet" x="1055.09" y="-534"/>
</a>
</g>
</g>
<!-- state_29&#45;&gt;state_1 -->
<g id="edge45" class="edge"><title>state_29&#45;&gt;state_1</title>
<path fill="none" stroke="black" d="M1055.06,-521.377C1052.06,-525.667 1049.07,-529.89 1046.09,-534 1029.04,-557.561 1016.74,-558.353 1005.09,-585 957.755,-693.271 1016.25,-741.005 966.092,-848 954.813,-872.063 937.694,-894.927 919.966,-914.659"/>
<polygon fill="black" stroke="black" points="917.348,-912.335 913.153,-922.064 922.499,-917.075 917.348,-912.335"/>
<text text-anchor="middle" x="1053.09" y="-696.3" font-family="Times New Roman,serif" font-size="14.00"> &#160;&#160;click(&quot;稍後&quot;) &#160;&#160;</text>
</g>
<!-- state_29&#45;&gt;state_1 -->
<g id="edge47" class="edge"><title>state_29&#45;&gt;state_1</title>
<path fill="none" stroke="black" d="M1125.91,-534.38C1128.94,-633.771 1127.55,-768.838 1101.09,-815 1062.04,-883.124 982.117,-928.006 922.492,-953.527"/>
<polygon fill="black" stroke="black" points="920.978,-950.367 913.106,-957.458 923.682,-956.823 920.978,-950.367"/>
<text text-anchor="middle" x="1174.09" y="-696.3" font-family="Times New Roman,serif" font-size="14.00"> &#160;&#160;click(&quot;不要&quot;) &#160;&#160;</text>
</g>
<!-- state_29&#45;&gt;state_29 -->
<g id="edge48" class="edge"><title>state_29&#45;&gt;state_29</title>
<path fill="none" stroke="black" d="M1185.16,-425.072C1195.79,-424.203 1203.09,-422.179 1203.09,-419 1203.09,-416.964 1200.1,-415.401 1195.15,-414.313"/>
<polygon fill="black" stroke="black" points="1195.55,-410.835 1185.16,-412.928 1194.59,-417.769 1195.55,-410.835"/>
<text text-anchor="middle" x="1256.09" y="-415.3" font-family="Times New Roman,serif" font-size="14.00"> &#160;&#160;swipe(&quot;Right&quot;) &#160;&#160;</text>
</g>
<!-- state_29&#45;&gt;state_29 -->
<g id="edge49" class="edge"><title>state_29&#45;&gt;state_29</title>
<path fill="none" stroke="black" d="M1185.21,-430.745C1241,-434.502 1309.09,-430.587 1309.09,-419 1309.09,-408.115 1248.99,-404 1195.46,-406.657"/>
<polygon fill="black" stroke="black" points="1194.98,-403.178 1185.21,-407.255 1195.39,-410.166 1194.98,-403.178"/>
<text text-anchor="middle" x="1358.59" y="-415.3" font-family="Times New Roman,serif" font-size="14.00"> &#160;&#160;swipe(&quot;Left&quot;) &#160;&#160;</text>
</g>
<!-- state_29&#45;&gt;state_29 -->
<g id="edge50" class="edge"><title>state_29&#45;&gt;state_29</title>
<path fill="none" stroke="black" d="M1185.24,-434.143C1272.02,-443.479 1408.09,-438.431 1408.09,-419 1408.09,-400.309 1282.19,-394.927 1195.36,-402.853"/>
<polygon fill="black" stroke="black" points="1194.84,-399.387 1185.24,-403.857 1195.53,-406.353 1194.84,-399.387"/>
<text text-anchor="middle" x="1470.59" y="-415.3" font-family="Times New Roman,serif" font-size="14.00"> &#160;&#160;press(&quot;BackKey&quot;) &#160;&#160;</text>
</g>
<!-- state_29&#45;&gt;state_29 -->
<g id="edge51" class="edge"><title>state_29&#45;&gt;state_29</title>
<path fill="none" stroke="black" d="M1185.46,-436.477C1304.38,-452.443 1533.09,-446.617 1533.09,-419 1533.09,-392.138 1316.72,-385.892 1195.46,-400.263"/>
<polygon fill="black" stroke="black" points="1194.94,-396.799 1185.46,-401.523 1195.82,-403.744 1194.94,-396.799"/>
<text text-anchor="middle" x="1597.09" y="-415.3" font-family="Times New Roman,serif" font-size="14.00"> &#160;&#160;press(&quot;MenuKey&quot;) &#160;&#160;</text>
</g>
<!-- state_29&#45;&gt;state_14 -->
<g id="edge46" class="edge"><title>state_29&#45;&gt;state_14</title>
<path fill="none" stroke="black" d="M1054.91,-310.598C1052.07,-308.246 1049.13,-306.038 1046.09,-304 914.971,-216.032 435.22,-163.236 248.328,-145.618"/>
<polygon fill="black" stroke="black" points="248.596,-142.128 238.313,-144.681 247.944,-149.097 248.596,-142.128"/>
<text text-anchor="middle" x="1051.59" y="-274.8" font-family="Times New Roman,serif" font-size="14.00"> &#160;&#160;click(&quot;好&quot;) &#160;&#160;</text>
</g>
<!-- state_8&#45;&gt;state_29 -->
<g id="edge35" class="edge"><title>state_8&#45;&gt;state_29</title>
<path fill="none" stroke="black" d="M1236.84,-596.437C1232.45,-592.314 1227.87,-588.467 1223.09,-585 1200.57,-568.64 1182.71,-586.754 1163.09,-567 1156.07,-559.925 1150.18,-551.768 1145.24,-542.999"/>
<polygon fill="black" stroke="black" points="1148.31,-541.322 1140.61,-534.043 1142.09,-544.534 1148.31,-541.322"/>
<text text-anchor="middle" x="1220.59" y="-555.8" font-family="Times New Roman,serif" font-size="14.00"> &#160;&#160;click(&quot;index=0&quot;) &#160;&#160;</text>
</g>
<!-- state_8&#45;&gt;state_29 -->
<g id="edge36" class="edge"><title>state_8&#45;&gt;state_29</title>
<path fill="none" stroke="black" d="M1291.81,-584.63C1288.34,-573.205 1283.86,-562.108 1278.09,-552 1257.94,-516.658 1224.47,-486.648 1193.51,-464.215"/>
<polygon fill="black" stroke="black" points="1195.46,-461.311 1185.28,-458.385 1191.42,-467.022 1195.46,-461.311"/>
<text text-anchor="middle" x="1347.59" y="-555.8" font-family="Times New Roman,serif" font-size="14.00"> &#160;&#160;press(&quot;BackKey&quot;) &#160;&#160;</text>
</g>
<!-- state_8&#45;&gt;state_8 -->
<g id="edge28" class="edge"><title>state_8&#45;&gt;state_8</title>
<path fill="none" stroke="black" d="M1367.16,-704.048C1377.79,-703.468 1385.09,-702.119 1385.09,-700 1385.09,-698.642 1382.1,-697.601 1377.15,-696.875"/>
<polygon fill="black" stroke="black" points="1377.44,-693.388 1367.16,-695.952 1376.8,-700.358 1377.44,-693.388"/>
<text text-anchor="middle" x="1442.59" y="-696.3" font-family="Times New Roman,serif" font-size="14.00"> &#160;&#160;click(&quot;index=0&quot;) &#160;&#160;</text>
</g>
<!-- state_8&#45;&gt;state_8 -->
<g id="edge29" class="edge"><title>state_8&#45;&gt;state_8</title>
<path fill="none" stroke="black" d="M1367.27,-707.728C1426.13,-710.403 1500.09,-707.827 1500.09,-700 1500.09,-692.616 1434.27,-689.906 1377.4,-691.868"/>
<polygon fill="black" stroke="black" points="1377.13,-688.376 1367.27,-692.272 1377.4,-695.371 1377.13,-688.376"/>
<text text-anchor="middle" x="1571.09" y="-696.3" font-family="Times New Roman,serif" font-size="14.00"> &#160;&#160;longClick(&quot;index=0&quot;) &#160;&#160;</text>
</g>
<!-- state_8&#45;&gt;state_8 -->
<g id="edge30" class="edge"><title>state_8&#45;&gt;state_8</title>
<path fill="none" stroke="black" d="M1367.26,-709.529C1467.83,-716.506 1642.09,-713.33 1642.09,-700 1642.09,-687.113 1479.21,-683.716 1377.51,-689.81"/>
<polygon fill="black" stroke="black" points="1377.01,-686.334 1367.26,-690.471 1377.46,-693.32 1377.01,-686.334"/>
<text text-anchor="middle" x="1699.59" y="-696.3" font-family="Times New Roman,serif" font-size="14.00"> &#160;&#160;click(&quot;index=1&quot;) &#160;&#160;</text>
</g>
<!-- state_8&#45;&gt;state_8 -->
<g id="edge31" class="edge"><title>state_8&#45;&gt;state_8</title>
<path fill="none" stroke="black" d="M1367.51,-711.249C1495.89,-722.389 1757.09,-718.639 1757.09,-700 1757.09,-681.834 1508.98,-677.811 1377.54,-687.931"/>
<polygon fill="black" stroke="black" points="1377.19,-684.448 1367.51,-688.751 1377.76,-691.424 1377.19,-684.448"/>
<text text-anchor="middle" x="1828.09" y="-696.3" font-family="Times New Roman,serif" font-size="14.00"> &#160;&#160;longClick(&quot;index=1&quot;) &#160;&#160;</text>
</g>
<!-- state_8&#45;&gt;state_8 -->
<g id="edge32" class="edge"><title>state_8&#45;&gt;state_8</title>
<path fill="none" stroke="black" d="M1367.21,-712.454C1525.11,-728.305 1899.09,-724.154 1899.09,-700 1899.09,-676.342 1540.29,-671.874 1377.19,-686.596"/>
<polygon fill="black" stroke="black" points="1376.83,-683.114 1367.21,-687.546 1377.49,-690.083 1376.83,-683.114"/>
<text text-anchor="middle" x="1952.09" y="-696.3" font-family="Times New Roman,serif" font-size="14.00"> &#160;&#160;swipe(&quot;Right&quot;) &#160;&#160;</text>
</g>
<!-- state_8&#45;&gt;state_8 -->
<g id="edge33" class="edge"><title>state_8&#45;&gt;state_8</title>
<path fill="none" stroke="black" d="M1367.15,-713.808C1545.14,-734.151 2005.09,-729.548 2005.09,-700 2005.09,-671 1562.05,-666.029 1377.35,-685.086"/>
<polygon fill="black" stroke="black" points="1376.72,-681.634 1367.15,-686.192 1377.47,-688.593 1376.72,-681.634"/>
<text text-anchor="middle" x="2054.59" y="-696.3" font-family="Times New Roman,serif" font-size="14.00"> &#160;&#160;swipe(&quot;Left&quot;) &#160;&#160;</text>
</g>
<!-- state_36 -->
<g id="node6" class="node"><title>state_36</title>
<g id="a_node6"><a xlink:href="36.png">
<polygon fill="none" stroke="black" points="1863.09,-534 1733.09,-534 1733.09,-304 1863.09,-304 1863.09,-534"/>
<image xlink:href="36.png" width="130px" height="230px" preserveAspectRatio="xMinYMin meet" x="1733.09" y="-534"/>
</a>
</g>
</g>
<!-- state_8&#45;&gt;state_36 -->
<g id="edge34" class="edge"><title>state_8&#45;&gt;state_36</title>
<path fill="none" stroke="black" d="M1367.37,-631.936C1400.77,-602.019 1443.88,-569.606 1489.09,-552 1537.9,-532.996 1679.06,-560.736 1724.09,-534 1724.19,-533.944 1724.28,-533.887 1724.38,-533.83"/>
<polygon fill="black" stroke="black" points="1726.59,-536.563 1732.92,-528.068 1722.67,-530.76 1726.59,-536.563"/>
<text text-anchor="middle" x="1553.09" y="-555.8" font-family="Times New Roman,serif" font-size="14.00"> &#160;&#160;press(&quot;MenuKey&quot;) &#160;&#160;</text>
</g>
<!-- state_36&#45;&gt;state_8 -->
<g id="edge39" class="edge"><title>state_36&#45;&gt;state_8</title>
<path fill="none" stroke="black" d="M1733.07,-526.998C1730.17,-529.486 1727.18,-531.83 1724.09,-534 1695.33,-554.201 1680.15,-540.06 1647.09,-552 1633.07,-557.065 1630.64,-560.783 1617.09,-567 1535.85,-604.284 1441.05,-643.434 1376.83,-669.321"/>
<polygon fill="black" stroke="black" points="1375.16,-666.221 1367.19,-673.201 1377.78,-672.715 1375.16,-666.221"/>
<text text-anchor="middle" x="1709.59" y="-555.8" font-family="Times New Roman,serif" font-size="14.00"> &#160;&#160;press(&quot;BackKey&quot;) &#160;&#160;</text>
</g>
<!-- state_36&#45;&gt;state_8 -->
<g id="edge40" class="edge"><title>state_36&#45;&gt;state_8</title>
<path fill="none" stroke="black" d="M1791.44,-534.078C1786.96,-546.165 1780.71,-557.492 1772.09,-567 1719.29,-625.289 1496.03,-668.439 1377.21,-687.765"/>
<polygon fill="black" stroke="black" points="1376.41,-684.349 1367.1,-689.394 1377.53,-691.26 1376.41,-684.349"/>
<text text-anchor="middle" x="1845.09" y="-555.8" font-family="Times New Roman,serif" font-size="14.00"> &#160;&#160;press(&quot;MenuKey&quot;) &#160;&#160;</text>
</g>
<!-- state_36&#45;&gt;state_36 -->
<g id="edge37" class="edge"><title>state_36&#45;&gt;state_36</title>
<path fill="none" stroke="black" d="M1863.16,-431.144C1873.79,-429.405 1881.09,-425.357 1881.09,-419 1881.09,-414.927 1878.1,-411.802 1873.15,-409.625"/>
<polygon fill="black" stroke="black" points="1873.74,-406.156 1863.16,-406.856 1871.86,-412.902 1873.74,-406.156"/>
<text text-anchor="middle" x="1934.09" y="-415.3" font-family="Times New Roman,serif" font-size="14.00"> &#160;&#160;swipe(&quot;Right&quot;) &#160;&#160;</text>
</g>
<!-- state_36&#45;&gt;state_36 -->
<g id="edge38" class="edge"><title>state_36&#45;&gt;state_36</title>
<path fill="none" stroke="black" d="M1863.21,-442.491C1919,-450.004 1987.09,-442.174 1987.09,-419 1987.09,-397.229 1926.99,-389 1873.46,-394.313"/>
<polygon fill="black" stroke="black" points="1872.73,-390.874 1863.21,-395.509 1873.54,-397.827 1872.73,-390.874"/>
<text text-anchor="middle" x="2036.59" y="-415.3" font-family="Times New Roman,serif" font-size="14.00"> &#160;&#160;swipe(&quot;Left&quot;) &#160;&#160;</text>
</g>
<!-- state_36&#45;&gt;state_21 -->
<g id="edge41" class="edge"><title>state_36&#45;&gt;state_21</title>
<path fill="none" stroke="black" d="M1732.97,-309.837C1730.12,-307.726 1727.16,-305.771 1724.09,-304 1691.43,-285.126 1411.14,-313.281 1385.09,-286 1378.63,-279.227 1373.99,-271.376 1370.8,-262.895"/>
<polygon fill="black" stroke="black" points="1374.07,-261.609 1367.79,-253.076 1367.37,-263.663 1374.07,-261.609"/>
<text text-anchor="middle" x="1442.59" y="-274.8" font-family="Times New Roman,serif" font-size="14.00"> &#160;&#160;click(&quot;index=0&quot;) &#160;&#160;</text>
</g>
<!-- state_36&#45;&gt;state_21 -->
<g id="edge43" class="edge"><title>state_36&#45;&gt;state_21</title>
<path fill="none" stroke="black" d="M1732.88,-309.995C1730.05,-307.838 1727.12,-305.83 1724.09,-304 1649.6,-258.988 1607.76,-323.241 1529.09,-286 1502.17,-273.253 1477.44,-253.291 1456.33,-232.141"/>
<polygon fill="black" stroke="black" points="1458.79,-229.654 1449.31,-224.931 1453.77,-234.537 1458.79,-229.654"/>
<text text-anchor="middle" x="1586.59" y="-274.8" font-family="Times New Roman,serif" font-size="14.00"> &#160;&#160;click(&quot;index=0&quot;) &#160;&#160;</text>
</g>
<!-- state_36&#45;&gt;state_17 -->
<g id="edge42" class="edge"><title>state_36&#45;&gt;state_17</title>
<path fill="none" stroke="black" d="M1732.93,-311.198C1730.07,-308.654 1727.13,-306.245 1724.09,-304 1700.68,-286.687 1683.05,-305.122 1661.09,-286 1652.96,-278.915 1645.79,-270.617 1639.5,-261.635"/>
<polygon fill="black" stroke="black" points="1642.38,-259.64 1633.96,-253.208 1636.53,-263.486 1642.38,-259.64"/>
<text text-anchor="middle" x="1718.59" y="-274.8" font-family="Times New Roman,serif" font-size="14.00"> &#160;&#160;click(&quot;index=0&quot;) &#160;&#160;</text>
</g>
<!-- state_36&#45;&gt;state_17 -->
<g id="edge44" class="edge"><title>state_36&#45;&gt;state_17</title>
<path fill="none" stroke="black" d="M1790.24,-303.667C1786.77,-292.172 1782.16,-281.051 1776.09,-271 1751.24,-229.848 1708.21,-197.583 1670.45,-175.255"/>
<polygon fill="black" stroke="black" points="1671.89,-172.046 1661.48,-170.077 1668.39,-178.108 1671.89,-172.046"/>
<text text-anchor="middle" x="1840.59" y="-274.8" font-family="Times New Roman,serif" font-size="14.00"> &#160;&#160;click(&quot;index=1&quot;) &#160;&#160;</text>
</g>
</g>
</svg>
