<?xml version="1.0" encoding="UTF-8" standalone="no"?>
<!DOCTYPE svg PUBLIC "-//W3C//DTD SVG 1.1//EN"
 "http://www.w3.org/Graphics/SVG/1.1/DTD/svg11.dtd">
<!-- Generated by graphviz version 2.38.0 (20140413.2041)
 -->
<!-- Title: activity_1 Pages: 1 -->
<svg width="2676pt" height="1749pt"
 viewBox="0.00 0.00 2675.54 1749.00" xmlns="http://www.w3.org/2000/svg" xmlns:xlink="http://www.w3.org/1999/xlink">
<g id="graph0" class="graph" transform="scale(1 1) rotate(0) translate(4 1745)">
<title>activity_1</title>
<polygon fill="white" stroke="none" points="-4,4 -4,-1745 2671.54,-1745 2671.54,4 -4,4"/>
<!-- state_2 -->
<g id="node1" class="node"><title>state_2</title>
<g id="a_node1"><a xlink:href="2.png" xlink:title="&lt;TABLE&gt;">
<polygon fill="none" stroke="black" points="1846.54,-1741 1716.54,-1741 1716.54,-1451 1846.54,-1451 1846.54,-1741"/>
<text text-anchor="start" x="1761.54" y="-1729.8" font-family="Times New Roman,serif" font-size="14.00">state_2</text>
<text text-anchor="start" x="1747.54" y="-1714.8" font-family="Times New Roman,serif" font-size="14.00">incoming:11</text>
<text text-anchor="start" x="1748.54" y="-1699.8" font-family="Times New Roman,serif" font-size="14.00">outgoing:10</text>
<text text-anchor="start" x="1763.54" y="-1684.8" font-family="Times New Roman,serif" font-size="14.00">loop:6</text>
<image xlink:href="2.png" width="130px" height="230px" preserveAspectRatio="xMinYMin meet" x="1716.54" y="-1681"/>
</a>
</g>
</g>
<!-- state_2&#45;&gt;state_2 -->
<g id="edge1" class="edge"><title>state_2&#45;&gt;state_2</title>
<path fill="none" stroke="black" d="M1846.61,-1600.92C1857.24,-1600.21 1864.54,-1598.57 1864.54,-1596 1864.54,-1594.35 1861.55,-1593.09 1856.6,-1592.21"/>
<polygon fill="black" stroke="black" points="1856.94,-1588.72 1846.61,-1591.08 1856.16,-1595.68 1856.94,-1588.72"/>
<text text-anchor="middle" x="1919.04" y="-1592.3" font-family="Times New Roman,serif" font-size="14.00"> &#160;&#160;click(&quot;无标题&quot;) &#160;&#160;</text>
</g>
<!-- state_2&#45;&gt;state_2 -->
<g id="edge2" class="edge"><title>state_2&#45;&gt;state_2</title>
<path fill="none" stroke="black" d="M1846.95,-1605.48C1903.72,-1608.57 1973.54,-1605.41 1973.54,-1596 1973.54,-1587.14 1911.66,-1583.82 1857.05,-1586.04"/>
<polygon fill="black" stroke="black" points="1856.77,-1582.55 1846.95,-1586.52 1857.11,-1589.54 1856.77,-1582.55"/>
<text text-anchor="middle" x="2044.54" y="-1592.3" font-family="Times New Roman,serif" font-size="14.00"> &#160;&#160;longClick(&quot;index=1&quot;) &#160;&#160;</text>
</g>
<!-- state_2&#45;&gt;state_2 -->
<g id="edge4" class="edge"><title>state_2&#45;&gt;state_2</title>
<path fill="none" stroke="black" d="M1846.61,-1607.64C1945.64,-1616.02 2115.54,-1612.15 2115.54,-1596 2115.54,-1580.39 1956.74,-1576.25 1856.7,-1583.57"/>
<polygon fill="black" stroke="black" points="1856.31,-1580.09 1846.61,-1584.36 1856.86,-1587.07 1856.31,-1580.09"/>
<text text-anchor="middle" x="2173.04" y="-1592.3" font-family="Times New Roman,serif" font-size="14.00"> &#160;&#160;click(&quot;index=1&quot;) &#160;&#160;</text>
</g>
<!-- state_2&#45;&gt;state_2 -->
<g id="edge5" class="edge"><title>state_2&#45;&gt;state_2</title>
<path fill="none" stroke="black" d="M1846.8,-1609.71C1973.79,-1623.18 2230.54,-1618.61 2230.54,-1596 2230.54,-1573.99 1987.16,-1569.08 1857.11,-1581.26"/>
<polygon fill="black" stroke="black" points="1856.4,-1577.82 1846.8,-1582.29 1857.1,-1584.78 1856.4,-1577.82"/>
<text text-anchor="middle" x="2301.54" y="-1592.3" font-family="Times New Roman,serif" font-size="14.00"> &#160;&#160;longClick(&quot;index=1&quot;) &#160;&#160;</text>
</g>
<!-- state_2&#45;&gt;state_2 -->
<g id="edge7" class="edge"><title>state_2&#45;&gt;state_2</title>
<path fill="none" stroke="black" d="M1846.74,-1611.19C2003.54,-1630.36 2372.54,-1625.29 2372.54,-1596 2372.54,-1567.33 2019.23,-1561.87 1857.14,-1579.61"/>
<polygon fill="black" stroke="black" points="1856.27,-1576.18 1846.74,-1580.81 1857.08,-1583.14 1856.27,-1576.18"/>
<text text-anchor="middle" x="2425.54" y="-1592.3" font-family="Times New Roman,serif" font-size="14.00"> &#160;&#160;swipe(&quot;Right&quot;) &#160;&#160;</text>
</g>
<!-- state_2&#45;&gt;state_2 -->
<g id="edge8" class="edge"><title>state_2&#45;&gt;state_2</title>
<path fill="none" stroke="black" d="M1846.83,-1612.85C2023.92,-1637.46 2478.54,-1631.84 2478.54,-1596 2478.54,-1560.83 2040.63,-1554.76 1856.97,-1577.81"/>
<polygon fill="black" stroke="black" points="1856.28,-1574.37 1846.83,-1579.15 1857.2,-1581.31 1856.28,-1574.37"/>
<text text-anchor="middle" x="2528.04" y="-1592.3" font-family="Times New Roman,serif" font-size="14.00"> &#160;&#160;swipe(&quot;Left&quot;) &#160;&#160;</text>
</g>
<!-- state_19 -->
<g id="node2" class="node"><title>state_19</title>
<g id="a_node2"><a xlink:href="19.png" xlink:title="&lt;TABLE&gt;">
<polygon fill="none" stroke="black" points="486.543,-1400 356.543,-1400 356.543,-1110 486.543,-1110 486.543,-1400"/>
<text text-anchor="start" x="398.043" y="-1388.8" font-family="Times New Roman,serif" font-size="14.00">state_19</text>
<text text-anchor="start" x="391.043" y="-1373.8" font-family="Times New Roman,serif" font-size="14.00">incoming:8</text>
<text text-anchor="start" x="392.043" y="-1358.8" font-family="Times New Roman,serif" font-size="14.00">outgoing:9</text>
<text text-anchor="start" x="403.543" y="-1343.8" font-family="Times New Roman,serif" font-size="14.00">loop:6</text>
<image xlink:href="19.png" width="130px" height="230px" preserveAspectRatio="xMinYMin meet" x="356.543" y="-1340"/>
</a>
</g>
</g>
<!-- state_2&#45;&gt;state_19 -->
<g id="edge3" class="edge"><title>state_2&#45;&gt;state_19</title>
<path fill="none" stroke="black" d="M1716.41,-1578.76C1489.86,-1522.29 737.008,-1334.63 496.263,-1274.63"/>
<polygon fill="black" stroke="black" points="497.1,-1271.23 486.55,-1272.2 495.406,-1278.02 497.1,-1271.23"/>
<text text-anchor="middle" x="1171.04" y="-1421.8" font-family="Times New Roman,serif" font-size="14.00"> &#160;&#160;&quot;index=1&quot;.input(&quot;a&quot;) &#160;&#160;</text>
</g>
<!-- state_33 -->
<g id="node4" class="node"><title>state_33</title>
<g id="a_node4"><a xlink:href="33.png" xlink:title="&lt;TABLE&gt;">
<polygon fill="none" stroke="black" points="437.543,-718 307.543,-718 307.543,-428 437.543,-428 437.543,-718"/>
<text text-anchor="start" x="349.043" y="-706.8" font-family="Times New Roman,serif" font-size="14.00">state_33</text>
<text text-anchor="start" x="342.043" y="-691.8" font-family="Times New Roman,serif" font-size="14.00">incoming:6</text>
<text text-anchor="start" x="343.043" y="-676.8" font-family="Times New Roman,serif" font-size="14.00">outgoing:7</text>
<text text-anchor="start" x="354.543" y="-661.8" font-family="Times New Roman,serif" font-size="14.00">loop:2</text>
<image xlink:href="33.png" width="130px" height="230px" preserveAspectRatio="xMinYMin meet" x="307.543" y="-658"/>
</a>
</g>
</g>
<!-- state_2&#45;&gt;state_33 -->
<g id="edge9" class="edge"><title>state_2&#45;&gt;state_33</title>
<path fill="none" stroke="black" d="M1716.38,-1591.27C1470.05,-1576.38 597.026,-1516.34 347.543,-1400 158.934,-1312.05 -43.3809,-1278.53 8.54288,-1077 47.5545,-925.589 73.5275,-884.84 178.543,-769 195.931,-749.82 203.037,-746.848 226.543,-736 254.539,-723.08 269.293,-737.044 293.543,-718 295.652,-716.343 297.713,-714.614 299.727,-712.82"/>
<polygon fill="black" stroke="black" points="302.467,-715.041 307.258,-705.592 297.62,-709.991 302.467,-715.041"/>
<text text-anchor="middle" x="72.5429" y="-1080.8" font-family="Times New Roman,serif" font-size="14.00"> &#160;&#160;press(&quot;MenuKey&quot;) &#160;&#160;</text>
</g>
<!-- state_43 -->
<g id="node5" class="node"><title>state_43</title>
<g id="a_node5"><a xlink:href="43.png" xlink:title="&lt;TABLE&gt;">
<polygon fill="none" stroke="black" points="1175.54,-290 1045.54,-290 1045.54,-0 1175.54,-0 1175.54,-290"/>
<text text-anchor="start" x="1087.04" y="-278.8" font-family="Times New Roman,serif" font-size="14.00">state_43</text>
<text text-anchor="start" x="1076.54" y="-263.8" font-family="Times New Roman,serif" font-size="14.00">incoming:12</text>
<text text-anchor="start" x="1077.54" y="-248.8" font-family="Times New Roman,serif" font-size="14.00">outgoing:10</text>
<text text-anchor="start" x="1092.54" y="-233.8" font-family="Times New Roman,serif" font-size="14.00">loop:7</text>
<image xlink:href="43.png" width="130px" height="230px" preserveAspectRatio="xMinYMin meet" x="1045.54" y="-230"/>
</a>
</g>
</g>
<!-- state_2&#45;&gt;state_43 -->
<g id="edge6" class="edge"><title>state_2&#45;&gt;state_43</title>
<path fill="none" stroke="black" d="M1846.74,-1588.6C2001.39,-1569.48 2377.54,-1498.1 2377.54,-1256 2377.54,-1256 2377.54,-1256 2377.54,-358 2377.54,-236.413 1458.17,-168.137 1185.74,-150.575"/>
<polygon fill="black" stroke="black" points="1185.76,-147.069 1175.55,-149.923 1185.31,-154.055 1185.76,-147.069"/>
<text text-anchor="middle" x="2447.54" y="-739.8" font-family="Times New Roman,serif" font-size="14.00"> &#160;&#160;&quot;index=1&quot;.input(&quot;b&quot;) &#160;&#160;</text>
</g>
<!-- activity_0 -->
<g id="node6" class="node"><title>activity_0</title>
<ellipse fill="none" stroke="red" cx="1253.54" cy="-359" rx="46.2923" ry="18"/>
<text text-anchor="middle" x="1253.54" y="-355.3" font-family="Times New Roman,serif" font-size="14.00" fill="red">activity_0</text>
</g>
<!-- state_2&#45;&gt;activity_0 -->
<g id="edge10" class="edge"><title>state_2&#45;&gt;activity_0</title>
<path fill="none" stroke="red" d="M1716.54,-1543.67C1682.88,-1514.28 1643.33,-1474.96 1616.54,-1433 1521.62,-1284.29 1513.54,-1232.85 1483.54,-1059 1461.63,-931.987 1405.31,-871.429 1483.54,-769 1502,-744.837 1531.09,-775.163 1549.54,-751 1553.59,-745.702 1550.21,-742.633 1549.54,-736 1535.47,-596.987 1565.34,-543.387 1486.54,-428 1471.32,-405.704 1460.59,-405.068 1435.54,-395 1394.61,-378.548 1345.32,-369.679 1308.36,-364.99"/>
<polygon fill="red" stroke="red" points="1308.63,-361.497 1298.28,-363.775 1307.79,-368.447 1308.63,-361.497"/>
<text text-anchor="middle" x="1546.04" y="-910.3" font-family="Times New Roman,serif" font-size="14.00" fill="red"> &#160;&#160;press(&quot;BackKey&quot;) &#160;&#160;</text>
</g>
<!-- state_19&#45;&gt;state_19 -->
<g id="edge11" class="edge"><title>state_19&#45;&gt;state_19</title>
<path fill="none" stroke="black" d="M486.615,-1259.92C497.24,-1259.21 504.543,-1257.57 504.543,-1255 504.543,-1253.35 501.546,-1252.09 496.598,-1251.21"/>
<polygon fill="black" stroke="black" points="496.943,-1247.72 486.615,-1250.08 496.162,-1254.68 496.943,-1247.72"/>
<text text-anchor="middle" x="542.543" y="-1251.3" font-family="Times New Roman,serif" font-size="14.00"> &#160;&#160;click(&quot;a&quot;) &#160;&#160;</text>
</g>
<!-- state_19&#45;&gt;state_19 -->
<g id="edge12" class="edge"><title>state_19&#45;&gt;state_19</title>
<path fill="none" stroke="black" d="M486.646,-1264.96C531.585,-1267.17 580.543,-1263.85 580.543,-1255 580.543,-1246.8 538.582,-1243.35 496.697,-1244.64"/>
<polygon fill="black" stroke="black" points="496.499,-1241.14 486.646,-1245.04 496.778,-1248.14 496.499,-1241.14"/>
<text text-anchor="middle" x="651.543" y="-1251.3" font-family="Times New Roman,serif" font-size="14.00"> &#160;&#160;longClick(&quot;index=1&quot;) &#160;&#160;</text>
</g>
<!-- state_19&#45;&gt;state_19 -->
<g id="edge13" class="edge"><title>state_19&#45;&gt;state_19</title>
<path fill="none" stroke="black" d="M486.723,-1267.08C577.07,-1274.88 722.543,-1270.85 722.543,-1255 722.543,-1239.72 587.393,-1235.43 496.723,-1242.12"/>
<polygon fill="black" stroke="black" points="496.412,-1238.64 486.723,-1242.92 496.97,-1245.62 496.412,-1238.64"/>
<text text-anchor="middle" x="780.043" y="-1251.3" font-family="Times New Roman,serif" font-size="14.00"> &#160;&#160;click(&quot;index=1&quot;) &#160;&#160;</text>
</g>
<!-- state_19&#45;&gt;state_19 -->
<g id="edge14" class="edge"><title>state_19&#45;&gt;state_19</title>
<path fill="none" stroke="black" d="M486.812,-1269.1C606.395,-1282.08 837.543,-1277.38 837.543,-1255 837.543,-1233.23 618.863,-1228.19 496.865,-1239.87"/>
<polygon fill="black" stroke="black" points="496.405,-1236.4 486.812,-1240.9 497.116,-1243.37 496.405,-1236.4"/>
<text text-anchor="middle" x="908.543" y="-1251.3" font-family="Times New Roman,serif" font-size="14.00"> &#160;&#160;longClick(&quot;index=1&quot;) &#160;&#160;</text>
</g>
<!-- state_19&#45;&gt;state_19 -->
<g id="edge16" class="edge"><title>state_19&#45;&gt;state_19</title>
<path fill="none" stroke="black" d="M486.784,-1270.53C637.2,-1289.3 979.543,-1284.12 979.543,-1255 979.543,-1226.5 651.752,-1220.94 496.739,-1238.3"/>
<polygon fill="black" stroke="black" points="496.304,-1234.82 486.784,-1239.47 497.126,-1241.77 496.304,-1234.82"/>
<text text-anchor="middle" x="1032.54" y="-1251.3" font-family="Times New Roman,serif" font-size="14.00"> &#160;&#160;swipe(&quot;Right&quot;) &#160;&#160;</text>
</g>
<!-- state_19&#45;&gt;state_19 -->
<g id="edge17" class="edge"><title>state_19&#45;&gt;state_19</title>
<path fill="none" stroke="black" d="M486.725,-1272.15C657.873,-1296.41 1085.54,-1290.69 1085.54,-1255 1085.54,-1219.99 674.006,-1213.82 496.777,-1236.5"/>
<polygon fill="black" stroke="black" points="496.169,-1233.05 486.725,-1237.85 497.103,-1239.98 496.169,-1233.05"/>
<text text-anchor="middle" x="1135.04" y="-1251.3" font-family="Times New Roman,serif" font-size="14.00"> &#160;&#160;swipe(&quot;Left&quot;) &#160;&#160;</text>
</g>
<!-- state_24 -->
<g id="node3" class="node"><title>state_24</title>
<g id="a_node3"><a xlink:href="24.png" xlink:title="&lt;TABLE&gt;">
<polygon fill="none" stroke="black" points="486.543,-1059 356.543,-1059 356.543,-769 486.543,-769 486.543,-1059"/>
<text text-anchor="start" x="398.043" y="-1047.8" font-family="Times New Roman,serif" font-size="14.00">state_24</text>
<text text-anchor="start" x="387.543" y="-1032.8" font-family="Times New Roman,serif" font-size="14.00">incoming:14</text>
<text text-anchor="start" x="392.043" y="-1017.8" font-family="Times New Roman,serif" font-size="14.00">outgoing:9</text>
<text text-anchor="start" x="403.543" y="-1002.8" font-family="Times New Roman,serif" font-size="14.00">loop:7</text>
<image xlink:href="24.png" width="130px" height="230px" preserveAspectRatio="xMinYMin meet" x="356.543" y="-999"/>
</a>
</g>
</g>
<!-- state_19&#45;&gt;state_24 -->
<g id="edge15" class="edge"><title>state_19&#45;&gt;state_24</title>
<path fill="none" stroke="black" d="M421.543,-1109.74C421.543,-1096.39 421.543,-1082.82 421.543,-1069.38"/>
<polygon fill="black" stroke="black" points="425.043,-1069.13 421.543,-1059.13 418.043,-1069.13 425.043,-1069.13"/>
<text text-anchor="middle" x="491.543" y="-1080.8" font-family="Times New Roman,serif" font-size="14.00"> &#160;&#160;&quot;index=1&quot;.input(&quot;b&quot;) &#160;&#160;</text>
</g>
<!-- state_19&#45;&gt;state_33 -->
<g id="edge18" class="edge"><title>state_19&#45;&gt;state_33</title>
<path fill="none" stroke="black" d="M356.125,-1212.5C308.301,-1177.98 247.165,-1124.06 219.543,-1059 169.171,-940.362 172.085,-888.834 219.543,-769 226.952,-750.291 234.009,-747.471 250.543,-736 267.565,-724.19 278.142,-731.858 293.543,-718 295.828,-715.944 298.061,-713.805 300.242,-711.595"/>
<polygon fill="black" stroke="black" points="303.221,-713.53 307.457,-703.82 298.089,-708.769 303.221,-713.53"/>
<text text-anchor="middle" x="283.543" y="-910.3" font-family="Times New Roman,serif" font-size="14.00"> &#160;&#160;press(&quot;MenuKey&quot;) &#160;&#160;</text>
</g>
<!-- state_19&#45;&gt;activity_0 -->
<g id="edge19" class="edge"><title>state_19&#45;&gt;activity_0</title>
<path fill="none" stroke="red" d="M486.858,-1251.06C686.58,-1240.61 1282.94,-1198.09 1404.54,-1059 1499.21,-950.716 1356.27,-862.596 1424.54,-736 1430.87,-724.264 1442.58,-729.926 1448.54,-718 1506.18,-602.718 1523.18,-533.077 1448.54,-428 1417.27,-383.977 1355.3,-368.217 1309.58,-362.702"/>
<polygon fill="red" stroke="red" points="1309.82,-359.208 1299.5,-361.619 1309.07,-366.168 1309.82,-359.208"/>
<text text-anchor="middle" x="1487.04" y="-739.8" font-family="Times New Roman,serif" font-size="14.00" fill="red"> &#160;&#160;press(&quot;BackKey&quot;) &#160;&#160;</text>
</g>
<!-- state_24&#45;&gt;state_24 -->
<g id="edge20" class="edge"><title>state_24&#45;&gt;state_24</title>
<path fill="none" stroke="black" d="M486.615,-918.213C497.24,-917.61 504.543,-916.206 504.543,-914 504.543,-912.587 501.546,-911.503 496.598,-910.748"/>
<polygon fill="black" stroke="black" points="496.904,-907.261 486.615,-909.787 496.233,-914.229 496.904,-907.261"/>
<text text-anchor="middle" x="542.543" y="-910.3" font-family="Times New Roman,serif" font-size="14.00"> &#160;&#160;click(&quot;a&quot;) &#160;&#160;</text>
</g>
<!-- state_24&#45;&gt;state_24 -->
<g id="edge21" class="edge"><title>state_24&#45;&gt;state_24</title>
<path fill="none" stroke="black" d="M486.646,-922.538C531.585,-924.435 580.543,-921.589 580.543,-914 580.543,-906.974 538.582,-904.013 496.697,-905.118"/>
<polygon fill="black" stroke="black" points="496.521,-901.622 486.646,-905.462 496.76,-908.618 496.521,-901.622"/>
<text text-anchor="middle" x="651.543" y="-910.3" font-family="Times New Roman,serif" font-size="14.00"> &#160;&#160;longClick(&quot;index=1&quot;) &#160;&#160;</text>
</g>
<!-- state_24&#45;&gt;state_24 -->
<g id="edge22" class="edge"><title>state_24&#45;&gt;state_24</title>
<path fill="none" stroke="black" d="M486.723,-924.351C577.07,-931.04 722.543,-927.59 722.543,-914 722.543,-900.901 587.393,-897.223 496.723,-902.963"/>
<polygon fill="black" stroke="black" points="496.46,-899.473 486.723,-903.649 496.939,-906.457 496.46,-899.473"/>
<text text-anchor="middle" x="761.543" y="-910.3" font-family="Times New Roman,serif" font-size="14.00"> &#160;&#160;click(&quot;b&quot;) &#160;&#160;</text>
</g>
<!-- state_24&#45;&gt;state_24 -->
<g id="edge23" class="edge"><title>state_24&#45;&gt;state_24</title>
<path fill="none" stroke="black" d="M486.723,-926.491C597.601,-937.113 800.543,-932.949 800.543,-914 800.543,-895.606 609.318,-891.143 496.698,-900.613"/>
<polygon fill="black" stroke="black" points="496.37,-897.129 486.723,-901.509 496.996,-904.101 496.37,-897.129"/>
<text text-anchor="middle" x="871.543" y="-910.3" font-family="Times New Roman,serif" font-size="14.00"> &#160;&#160;longClick(&quot;index=1&quot;) &#160;&#160;</text>
</g>
<!-- state_24&#45;&gt;state_24 -->
<g id="edge24" class="edge"><title>state_24&#45;&gt;state_24</title>
<path fill="none" stroke="black" d="M486.745,-927.65C629.723,-943.334 942.543,-938.784 942.543,-914 942.543,-889.797 644.215,-884.89 497.072,-899.28"/>
<polygon fill="black" stroke="black" points="496.332,-895.838 486.745,-900.35 497.053,-902.801 496.332,-895.838"/>
<text text-anchor="middle" x="1012.54" y="-910.3" font-family="Times New Roman,serif" font-size="14.00"> &#160;&#160;&quot;index=1&quot;.input(&quot;b&quot;) &#160;&#160;</text>
</g>
<!-- state_24&#45;&gt;state_24 -->
<g id="edge25" class="edge"><title>state_24&#45;&gt;state_24</title>
<path fill="none" stroke="black" d="M486.816,-928.736C657.484,-949.488 1082.54,-944.577 1082.54,-914 1082.54,-884.006 673.519,-878.708 496.839,-898.106"/>
<polygon fill="black" stroke="black" points="496.349,-894.64 486.816,-899.264 497.152,-901.593 496.349,-894.64"/>
<text text-anchor="middle" x="1135.54" y="-910.3" font-family="Times New Roman,serif" font-size="14.00"> &#160;&#160;swipe(&quot;Right&quot;) &#160;&#160;</text>
</g>
<!-- state_24&#45;&gt;state_24 -->
<g id="edge26" class="edge"><title>state_24&#45;&gt;state_24</title>
<path fill="none" stroke="black" d="M486.803,-929.985C676.758,-955.582 1188.54,-950.254 1188.54,-914 1188.54,-878.366 694.102,-872.609 496.82,-896.73"/>
<polygon fill="black" stroke="black" points="496.276,-893.271 486.803,-898.015 497.167,-900.214 496.276,-893.271"/>
<text text-anchor="middle" x="1238.04" y="-910.3" font-family="Times New Roman,serif" font-size="14.00"> &#160;&#160;swipe(&quot;Left&quot;) &#160;&#160;</text>
</g>
<!-- state_24&#45;&gt;state_33 -->
<g id="edge27" class="edge"><title>state_24&#45;&gt;state_33</title>
<path fill="none" stroke="black" d="M486.574,-862.287C521.757,-828.29 554.496,-781.559 535.543,-736 517.099,-691.666 479.971,-653.212 445.804,-624.908"/>
<polygon fill="black" stroke="black" points="447.626,-621.88 437.654,-618.299 443.216,-627.317 447.626,-621.88"/>
<text text-anchor="middle" x="602.543" y="-739.8" font-family="Times New Roman,serif" font-size="14.00"> &#160;&#160;press(&quot;MenuKey&quot;) &#160;&#160;</text>
</g>
<!-- state_24&#45;&gt;activity_0 -->
<g id="edge28" class="edge"><title>state_24&#45;&gt;activity_0</title>
<path fill="none" stroke="red" d="M486.767,-882.618C541.336,-854.606 618.416,-808.683 670.543,-751 768.332,-642.788 630.843,-536.293 728.543,-428 759.675,-393.492 1069.37,-371.063 1197.99,-363.168"/>
<polygon fill="red" stroke="red" points="1198.26,-366.658 1208.03,-362.559 1197.84,-359.671 1198.26,-366.658"/>
<text text-anchor="middle" x="791.043" y="-569.3" font-family="Times New Roman,serif" font-size="14.00" fill="red"> &#160;&#160;press(&quot;BackKey&quot;) &#160;&#160;</text>
</g>
<!-- state_33&#45;&gt;state_24 -->
<g id="edge32" class="edge"><title>state_33&#45;&gt;state_24</title>
<path fill="none" stroke="black" d="M307.507,-702.606C303.073,-708.029 298.418,-713.197 293.543,-718 291.52,-719.993 238.781,-725.253 259.543,-751 283.237,-780.383 312.296,-746.419 342.543,-769 344.692,-770.605 346.79,-772.286 348.838,-774.035"/>
<polygon fill="black" stroke="black" points="346.769,-776.889 356.487,-781.109 351.521,-771.75 346.769,-776.889"/>
<text text-anchor="middle" x="322.043" y="-739.8" font-family="Times New Roman,serif" font-size="14.00"> &#160;&#160;press(&quot;BackKey&quot;) &#160;&#160;</text>
</g>
<!-- state_33&#45;&gt;state_24 -->
<g id="edge33" class="edge"><title>state_33&#45;&gt;state_24</title>
<path fill="none" stroke="black" d="M393.376,-718.128C395.306,-731.482 397.267,-745.051 399.21,-758.493"/>
<polygon fill="black" stroke="black" points="395.797,-759.346 400.691,-768.742 402.725,-758.344 395.797,-759.346"/>
<text text-anchor="middle" x="460.543" y="-739.8" font-family="Times New Roman,serif" font-size="14.00"> &#160;&#160;press(&quot;MenuKey&quot;) &#160;&#160;</text>
</g>
<!-- state_33&#45;&gt;state_33 -->
<g id="edge30" class="edge"><title>state_33&#45;&gt;state_33</title>
<path fill="none" stroke="black" d="M437.615,-587.746C448.24,-585.635 455.543,-580.72 455.543,-573 455.543,-567.934 452.398,-564.076 447.233,-561.425"/>
<polygon fill="black" stroke="black" points="448.208,-558.061 437.615,-558.254 446.016,-564.709 448.208,-558.061"/>
<text text-anchor="middle" x="508.543" y="-569.3" font-family="Times New Roman,serif" font-size="14.00"> &#160;&#160;swipe(&quot;Right&quot;) &#160;&#160;</text>
</g>
<!-- state_33&#45;&gt;state_33 -->
<g id="edge31" class="edge"><title>state_33&#45;&gt;state_33</title>
<path fill="none" stroke="black" d="M437.656,-601.524C493.446,-610.648 561.543,-601.14 561.543,-573 561.543,-546.509 501.193,-536.53 447.574,-543.064"/>
<polygon fill="black" stroke="black" points="447.063,-539.601 437.656,-544.476 448.05,-546.531 447.063,-539.601"/>
<text text-anchor="middle" x="611.043" y="-569.3" font-family="Times New Roman,serif" font-size="14.00"> &#160;&#160;swipe(&quot;Left&quot;) &#160;&#160;</text>
</g>
<!-- state_33&#45;&gt;activity_0 -->
<g id="edge29" class="edge"><title>state_33&#45;&gt;activity_0</title>
<path fill="none" stroke="red" d="M354.531,-427.61C358.377,-415.542 364.467,-404.391 373.543,-395 402.203,-365.346 1007.76,-360.816 1197.33,-360.124"/>
<polygon fill="red" stroke="red" points="1197.37,-363.624 1207.36,-360.09 1197.35,-356.624 1197.37,-363.624"/>
<text text-anchor="middle" x="421.543" y="-398.8" font-family="Times New Roman,serif" font-size="14.00" fill="red"> &#160;&#160;click(&quot;大约&quot;) &#160;&#160;</text>
</g>
<!-- state_33&#45;&gt;activity_0 -->
<g id="edge34" class="edge"><title>state_33&#45;&gt;activity_0</title>
<path fill="none" stroke="red" d="M437.749,-443.57C453.11,-424.27 471.326,-406.881 492.543,-395 553.412,-360.914 1030.88,-359.239 1196.89,-359.704"/>
<polygon fill="red" stroke="red" points="1197.36,-363.206 1207.37,-359.738 1197.38,-356.206 1197.36,-363.206"/>
<text text-anchor="middle" x="540.543" y="-398.8" font-family="Times New Roman,serif" font-size="14.00" fill="red"> &#160;&#160;click(&quot;保存&quot;) &#160;&#160;</text>
</g>
<!-- state_33&#45;&gt;activity_0 -->
<g id="edge35" class="edge"><title>state_33&#45;&gt;activity_0</title>
<path fill="none" stroke="red" d="M437.568,-522.405C504.843,-471.317 601.509,-398.617 611.543,-395 665.83,-375.432 1051.31,-364.64 1197.51,-361.214"/>
<polygon fill="red" stroke="red" points="1197.7,-364.71 1207.61,-360.98 1197.53,-357.712 1197.7,-364.71"/>
<text text-anchor="middle" x="659.543" y="-398.8" font-family="Times New Roman,serif" font-size="14.00" fill="red"> &#160;&#160;click(&quot;删除&quot;) &#160;&#160;</text>
</g>
<!-- state_43&#45;&gt;state_19 -->
<g id="edge38" class="edge"><title>state_43&#45;&gt;state_19</title>
<path fill="none" stroke="black" d="M1045.31,-146.441C829.243,-149.639 150.543,-174.303 150.543,-358 150.543,-915 150.543,-915 150.543,-915 150.543,-980.199 144.838,-1003.19 178.543,-1059 219.287,-1126.47 292.369,-1180.3 347.78,-1214.17"/>
<polygon fill="black" stroke="black" points="346.142,-1217.27 356.514,-1219.43 349.755,-1211.27 346.142,-1217.27"/>
<text text-anchor="middle" x="220.043" y="-569.3" font-family="Times New Roman,serif" font-size="14.00"> &#160;&#160;&quot;index=1&quot;.input(&quot;a&quot;) &#160;&#160;</text>
</g>
<!-- state_43&#45;&gt;state_33 -->
<g id="edge44" class="edge"><title>state_43&#45;&gt;state_33</title>
<path fill="none" stroke="black" d="M1045.4,-157.573C878.104,-188.753 440.656,-279.978 357.543,-395 352.35,-402.187 348.513,-409.991 345.792,-418.185"/>
<polygon fill="black" stroke="black" points="342.379,-417.397 343.097,-427.968 349.127,-419.257 342.379,-417.397"/>
<text text-anchor="middle" x="481.543" y="-355.3" font-family="Times New Roman,serif" font-size="14.00"> &#160;&#160;press(&quot;MenuKey&quot;) &#160;&#160;</text>
</g>
<!-- state_43&#45;&gt;state_43 -->
<g id="edge36" class="edge"><title>state_43&#45;&gt;state_43</title>
<path fill="none" stroke="black" d="M1175.61,-149.213C1186.24,-148.61 1193.54,-147.206 1193.54,-145 1193.54,-143.587 1190.55,-142.503 1185.6,-141.748"/>
<polygon fill="black" stroke="black" points="1185.9,-138.261 1175.61,-140.787 1185.23,-145.229 1185.9,-138.261"/>
<text text-anchor="middle" x="1248.04" y="-141.3" font-family="Times New Roman,serif" font-size="14.00"> &#160;&#160;click(&quot;无标题&quot;) &#160;&#160;</text>
</g>
<!-- state_43&#45;&gt;state_43 -->
<g id="edge37" class="edge"><title>state_43&#45;&gt;state_43</title>
<path fill="none" stroke="black" d="M1175.95,-153.127C1232.72,-155.772 1302.54,-153.064 1302.54,-145 1302.54,-137.409 1240.66,-134.563 1186.05,-136.463"/>
<polygon fill="black" stroke="black" points="1185.8,-132.97 1175.95,-136.873 1186.08,-139.965 1185.8,-132.97"/>
<text text-anchor="middle" x="1373.54" y="-141.3" font-family="Times New Roman,serif" font-size="14.00"> &#160;&#160;longClick(&quot;index=1&quot;) &#160;&#160;</text>
</g>
<!-- state_43&#45;&gt;state_43 -->
<g id="edge39" class="edge"><title>state_43&#45;&gt;state_43</title>
<path fill="none" stroke="black" d="M1175.61,-154.974C1274.64,-162.163 1444.54,-158.839 1444.54,-145 1444.54,-131.621 1285.74,-128.069 1185.7,-134.345"/>
<polygon fill="black" stroke="black" points="1185.35,-130.861 1175.61,-135.026 1185.82,-137.845 1185.35,-130.861"/>
<text text-anchor="middle" x="1483.54" y="-141.3" font-family="Times New Roman,serif" font-size="14.00"> &#160;&#160;click(&quot;b&quot;) &#160;&#160;</text>
</g>
<!-- state_43&#45;&gt;state_43 -->
<g id="edge40" class="edge"><title>state_43&#45;&gt;state_43</title>
<path fill="none" stroke="black" d="M1175.8,-157.127C1294.46,-168.205 1522.54,-164.163 1522.54,-145 1522.54,-126.361 1306.76,-122.027 1185.77,-131.999"/>
<polygon fill="black" stroke="black" points="1185.45,-128.513 1175.8,-132.873 1186.06,-135.486 1185.45,-128.513"/>
<text text-anchor="middle" x="1593.54" y="-141.3" font-family="Times New Roman,serif" font-size="14.00"> &#160;&#160;longClick(&quot;index=1&quot;) &#160;&#160;</text>
</g>
<!-- state_43&#45;&gt;state_43 -->
<g id="edge41" class="edge"><title>state_43&#45;&gt;state_43</title>
<path fill="none" stroke="black" d="M1175.72,-158.338C1325.31,-174.393 1664.54,-169.947 1664.54,-145 1664.54,-120.614 1340.38,-115.817 1186.08,-130.611"/>
<polygon fill="black" stroke="black" points="1185.31,-127.171 1175.72,-131.662 1186.02,-134.135 1185.31,-127.171"/>
<text text-anchor="middle" x="1734.54" y="-141.3" font-family="Times New Roman,serif" font-size="14.00"> &#160;&#160;&quot;index=1&quot;.input(&quot;b&quot;) &#160;&#160;</text>
</g>
<!-- state_43&#45;&gt;state_43 -->
<g id="edge42" class="edge"><title>state_43&#45;&gt;state_43</title>
<path fill="none" stroke="black" d="M1175.63,-159.444C1352.05,-180.534 1804.54,-175.719 1804.54,-145 1804.54,-114.851 1368.69,-109.654 1185.73,-129.408"/>
<polygon fill="black" stroke="black" points="1185.17,-125.949 1175.63,-130.556 1185.96,-132.905 1185.17,-125.949"/>
<text text-anchor="middle" x="1857.54" y="-141.3" font-family="Times New Roman,serif" font-size="14.00"> &#160;&#160;swipe(&quot;Right&quot;) &#160;&#160;</text>
</g>
<!-- state_43&#45;&gt;state_43 -->
<g id="edge43" class="edge"><title>state_43&#45;&gt;state_43</title>
<path fill="none" stroke="black" d="M1175.71,-160.72C1371.06,-186.618 1910.54,-181.378 1910.54,-145 1910.54,-109.226 1388.82,-103.564 1185.72,-128.016"/>
<polygon fill="black" stroke="black" points="1185.2,-124.554 1175.71,-129.28 1186.07,-131.499 1185.2,-124.554"/>
<text text-anchor="middle" x="1960.04" y="-141.3" font-family="Times New Roman,serif" font-size="14.00"> &#160;&#160;swipe(&quot;Left&quot;) &#160;&#160;</text>
</g>
<!-- state_43&#45;&gt;activity_0 -->
<g id="edge45" class="edge"><title>state_43&#45;&gt;activity_0</title>
<path fill="none" stroke="red" d="M1156.44,-290.298C1163.43,-302.086 1171.42,-313.209 1180.54,-323 1188.32,-331.345 1198.5,-337.916 1208.78,-343"/>
<polygon fill="red" stroke="red" points="1207.63,-346.321 1218.19,-347.259 1210.52,-339.945 1207.63,-346.321"/>
<text text-anchor="middle" x="1243.04" y="-311.8" font-family="Times New Roman,serif" font-size="14.00" fill="red"> &#160;&#160;press(&quot;BackKey&quot;) &#160;&#160;</text>
</g>
<!-- activity_0&#45;&gt;state_2 -->
<g id="edge46" class="edge"><title>activity_0&#45;&gt;state_2</title>
<path fill="none" stroke="red" d="M1298.34,-363.39C1341.91,-367.614 1409.53,-376.644 1465.54,-395 1567.74,-428.493 1630.54,-464.454 1630.54,-572 1630.54,-1256 1630.54,-1256 1630.54,-1256 1630.54,-1342.17 1671.76,-1430.83 1711.12,-1495.86"/>
<polygon fill="red" stroke="red" points="1708.2,-1497.78 1716.41,-1504.47 1714.16,-1494.12 1708.2,-1497.78"/>
<text text-anchor="middle" x="1688.04" y="-910.3" font-family="Times New Roman,serif" font-size="14.00" fill="red"> &#160;&#160;click(&quot;index=1&quot;) &#160;&#160;</text>
</g>
<!-- activity_0&#45;&gt;state_2 -->
<g id="edge49" class="edge"><title>activity_0&#45;&gt;state_2</title>
<path fill="none" stroke="red" d="M1298.24,-363.955C1387.83,-372.494 1585.85,-394.623 1644.54,-428 1721.33,-471.666 1781.54,-483.663 1781.54,-572 1781.54,-1256 1781.54,-1256 1781.54,-1256 1781.54,-1316.24 1781.54,-1382.5 1781.54,-1440.34"/>
<polygon fill="red" stroke="red" points="1778.04,-1440.66 1781.54,-1450.66 1785.04,-1440.66 1778.04,-1440.66"/>
<text text-anchor="middle" x="1839.04" y="-910.3" font-family="Times New Roman,serif" font-size="14.00" fill="red"> &#160;&#160;click(&quot;index=1&quot;) &#160;&#160;</text>
</g>
<!-- activity_0&#45;&gt;state_2 -->
<g id="edge52" class="edge"><title>activity_0&#45;&gt;state_2</title>
<path fill="none" stroke="red" d="M1299.24,-361.674C1413.64,-366.501 1709.33,-383.089 1795.54,-428 1873.89,-468.813 1932.54,-483.663 1932.54,-572 1932.54,-1256 1932.54,-1256 1932.54,-1256 1932.54,-1342.17 1891.33,-1430.83 1851.96,-1495.86"/>
<polygon fill="red" stroke="red" points="1848.92,-1494.12 1846.68,-1504.47 1854.89,-1497.78 1848.92,-1494.12"/>
<text text-anchor="middle" x="1990.04" y="-910.3" font-family="Times New Roman,serif" font-size="14.00" fill="red"> &#160;&#160;click(&quot;index=1&quot;) &#160;&#160;</text>
</g>
<!-- activity_0&#45;&gt;state_2 -->
<g id="edge55" class="edge"><title>activity_0&#45;&gt;state_2</title>
<path fill="none" stroke="red" d="M1299.77,-360.102C1436,-361.089 1833.43,-369.074 1946.54,-428 2024.89,-468.813 2083.54,-483.663 2083.54,-572 2083.54,-1256 2083.54,-1256 2083.54,-1256 2083.54,-1392.73 1944.87,-1499.82 1855.46,-1554.65"/>
<polygon fill="red" stroke="red" points="1853.44,-1551.78 1846.7,-1559.96 1857.07,-1557.77 1853.44,-1551.78"/>
<text text-anchor="middle" x="2141.04" y="-910.3" font-family="Times New Roman,serif" font-size="14.00" fill="red"> &#160;&#160;click(&quot;index=1&quot;) &#160;&#160;</text>
</g>
<!-- activity_0&#45;&gt;state_2 -->
<g id="edge58" class="edge"><title>activity_0&#45;&gt;state_2</title>
<path fill="none" stroke="red" d="M1299.4,-361.614C1465.06,-367.727 2026.53,-391.006 2097.54,-428 2175.89,-468.813 2234.54,-483.663 2234.54,-572 2234.54,-1256 2234.54,-1256 2234.54,-1256 2234.54,-1442.44 1985.52,-1538.77 1856.74,-1576.12"/>
<polygon fill="red" stroke="red" points="1855.59,-1572.81 1846.93,-1578.92 1857.51,-1579.54 1855.59,-1572.81"/>
<text text-anchor="middle" x="2292.04" y="-910.3" font-family="Times New Roman,serif" font-size="14.00" fill="red"> &#160;&#160;click(&quot;index=1&quot;) &#160;&#160;</text>
</g>
<!-- activity_0&#45;&gt;state_24 -->
<g id="edge47" class="edge"><title>activity_0&#45;&gt;state_24</title>
<path fill="none" stroke="red" d="M1207.72,-361.722C1119.38,-366.087 930.583,-380.836 889.543,-428 804.285,-525.977 930.599,-613.45 853.543,-718 767.64,-834.553 595.737,-883.008 496.638,-901.914"/>
<polygon fill="red" stroke="red" points="495.886,-898.494 486.692,-903.759 497.162,-905.376 495.886,-898.494"/>
<text text-anchor="middle" x="947.043" y="-569.3" font-family="Times New Roman,serif" font-size="14.00" fill="red"> &#160;&#160;click(&quot;index=1&quot;) &#160;&#160;</text>
</g>
<!-- activity_0&#45;&gt;state_24 -->
<g id="edge48" class="edge"><title>activity_0&#45;&gt;state_24</title>
<path fill="none" stroke="red" d="M1207.44,-360.984C1158.1,-364.709 1081.44,-378.71 1040.54,-428 957.606,-527.949 1086.79,-617.482 1004.54,-718 877.705,-873.013 623.526,-905.547 496.87,-911.87"/>
<polygon fill="red" stroke="red" points="496.695,-908.374 486.866,-912.328 497.015,-915.367 496.695,-908.374"/>
<text text-anchor="middle" x="1098.04" y="-569.3" font-family="Times New Roman,serif" font-size="14.00" fill="red"> &#160;&#160;click(&quot;index=0&quot;) &#160;&#160;</text>
</g>
<!-- activity_0&#45;&gt;state_24 -->
<g id="edge50" class="edge"><title>activity_0&#45;&gt;state_24</title>
<path fill="none" stroke="red" d="M1234.15,-375.398C1219.83,-387.936 1201.23,-406.957 1191.54,-428 1137.24,-545.979 1240.92,-620.127 1155.54,-718 1068.48,-817.804 666.041,-881.053 496.825,-903.658"/>
<polygon fill="red" stroke="red" points="496.205,-900.209 486.751,-904.992 497.124,-907.148 496.205,-900.209"/>
<text text-anchor="middle" x="1249.04" y="-569.3" font-family="Times New Roman,serif" font-size="14.00" fill="red"> &#160;&#160;click(&quot;index=1&quot;) &#160;&#160;</text>
</g>
<!-- activity_0&#45;&gt;state_24 -->
<g id="edge51" class="edge"><title>activity_0&#45;&gt;state_24</title>
<path fill="none" stroke="red" d="M1271.08,-375.954C1283.64,-388.649 1299.54,-407.616 1306.54,-428 1327.49,-488.946 1346.91,-667.767 1306.54,-718 1204.82,-844.58 691.689,-893.815 496.792,-908.136"/>
<polygon fill="red" stroke="red" points="496.361,-904.658 486.64,-908.871 496.867,-911.639 496.361,-904.658"/>
<text text-anchor="middle" x="1387.04" y="-569.3" font-family="Times New Roman,serif" font-size="14.00" fill="red"> &#160;&#160;click(&quot;index=0&quot;) &#160;&#160;</text>
</g>
<!-- activity_0&#45;&gt;state_43 -->
<g id="edge53" class="edge"><title>activity_0&#45;&gt;state_43</title>
<path fill="none" stroke="red" d="M1282.92,-344.907C1298.31,-335.986 1312.62,-323.079 1305.54,-308 1280.56,-254.772 1228.55,-212.981 1184.52,-185.186"/>
<polygon fill="red" stroke="red" points="1186.18,-182.095 1175.83,-179.814 1182.5,-188.049 1186.18,-182.095"/>
<text text-anchor="middle" x="1364.04" y="-311.8" font-family="Times New Roman,serif" font-size="14.00" fill="red"> &#160;&#160;click(&quot;index=1&quot;) &#160;&#160;</text>
</g>
<!-- activity_0&#45;&gt;state_43 -->
<g id="edge54" class="edge"><title>activity_0&#45;&gt;state_43</title>
<path fill="none" stroke="red" d="M1298.93,-355.113C1344.4,-351.163 1409.83,-342.233 1425.54,-323 1429.76,-317.837 1429.02,-313.691 1425.54,-308 1373.66,-222.971 1261.32,-180.687 1185.81,-161.096"/>
<polygon fill="red" stroke="red" points="1186.42,-157.641 1175.87,-158.593 1184.71,-164.429 1186.42,-157.641"/>
<text text-anchor="middle" x="1485.04" y="-311.8" font-family="Times New Roman,serif" font-size="14.00" fill="red"> &#160;&#160;click(&quot;index=0&quot;) &#160;&#160;</text>
</g>
<!-- activity_0&#45;&gt;state_43 -->
<g id="edge56" class="edge"><title>activity_0&#45;&gt;state_43</title>
<path fill="none" stroke="red" d="M1207.63,-356.757C1117.52,-353.843 924.51,-345.07 904.543,-323 851.269,-264.116 957.23,-206.109 1035.98,-173.306"/>
<polygon fill="red" stroke="red" points="1037.51,-176.461 1045.44,-169.432 1034.86,-169.984 1037.51,-176.461"/>
<text text-anchor="middle" x="962.043" y="-311.8" font-family="Times New Roman,serif" font-size="14.00" fill="red"> &#160;&#160;click(&quot;index=1&quot;) &#160;&#160;</text>
</g>
<!-- activity_0&#45;&gt;state_43 -->
<g id="edge57" class="edge"><title>activity_0&#45;&gt;state_43</title>
<path fill="none" stroke="red" d="M1207.54,-356.664C1154.2,-354.032 1071.08,-346.214 1051.54,-323 1034.44,-302.673 1034.35,-277.202 1042.13,-251.969"/>
<polygon fill="red" stroke="red" points="1045.5,-252.916 1045.48,-242.322 1038.89,-250.621 1045.5,-252.916"/>
<text text-anchor="middle" x="1109.04" y="-311.8" font-family="Times New Roman,serif" font-size="14.00" fill="red"> &#160;&#160;click(&quot;index=0&quot;) &#160;&#160;</text>
</g>
</g>
</svg>
