<?xml version="1.0" encoding="UTF-8" standalone="no"?>
<!DOCTYPE svg PUBLIC "-//W3C//DTD SVG 1.1//EN"
 "http://www.w3.org/Graphics/SVG/1.1/DTD/svg11.dtd">
<!-- Generated by graphviz version 2.38.0 (20140413.2041)
 -->
<!-- Title: activity_2 Pages: 1 -->
<svg width="1331pt" height="726pt"
 viewBox="0.00 0.00 1331.42 726.00" xmlns="http://www.w3.org/2000/svg" xmlns:xlink="http://www.w3.org/1999/xlink">
<g id="graph0" class="graph" transform="scale(1 1) rotate(0) translate(4 722)">
<title>activity_2</title>
<polygon fill="white" stroke="none" points="-4,4 -4,-722 1327.42,-722 1327.42,4 -4,4"/>
<!-- state_8 -->
<g id="node1" class="node"><title>state_8</title>
<g id="a_node1"><a xlink:href="8.png" xlink:title="&lt;TABLE&gt;">
<polygon fill="none" stroke="black" points="496.425,-718 366.425,-718 366.425,-428 496.425,-428 496.425,-718"/>
<text text-anchor="start" x="411.425" y="-706.8" font-family="Times New Roman,serif" font-size="14.00">state_8</text>
<text text-anchor="start" x="400.925" y="-691.8" font-family="Times New Roman,serif" font-size="14.00">incoming:9</text>
<text text-anchor="start" x="401.925" y="-676.8" font-family="Times New Roman,serif" font-size="14.00">outgoing:9</text>
<text text-anchor="start" x="413.425" y="-661.8" font-family="Times New Roman,serif" font-size="14.00">loop:6</text>
<image xlink:href="8.png" width="130px" height="230px" preserveAspectRatio="xMinYMin meet" x="366.425" y="-658"/>
</a>
</g>
</g>
<!-- state_8&#45;&gt;state_8 -->
<g id="edge1" class="edge"><title>state_8&#45;&gt;state_8</title>
<path fill="none" stroke="black" d="M496.496,-577.915C507.122,-577.212 514.425,-575.573 514.425,-573 514.425,-571.352 511.428,-570.087 506.48,-569.205"/>
<polygon fill="black" stroke="black" points="506.824,-565.722 496.496,-568.085 506.043,-572.679 506.824,-565.722"/>
<text text-anchor="middle" x="571.925" y="-569.3" font-family="Times New Roman,serif" font-size="14.00"> &#160;&#160;click(&quot;index=0&quot;) &#160;&#160;</text>
</g>
<!-- state_8&#45;&gt;state_8 -->
<g id="edge2" class="edge"><title>state_8&#45;&gt;state_8</title>
<path fill="none" stroke="black" d="M496.605,-582.384C555.457,-585.632 629.425,-582.504 629.425,-573 629.425,-564.034 563.599,-560.742 506.735,-563.126"/>
<polygon fill="black" stroke="black" points="506.424,-559.636 496.605,-563.616 506.763,-566.628 506.424,-559.636"/>
<text text-anchor="middle" x="700.425" y="-569.3" font-family="Times New Roman,serif" font-size="14.00"> &#160;&#160;longClick(&quot;index=0&quot;) &#160;&#160;</text>
</g>
<!-- state_8&#45;&gt;state_8 -->
<g id="edge3" class="edge"><title>state_8&#45;&gt;state_8</title>
<path fill="none" stroke="black" d="M496.591,-584.571C597.166,-593.043 771.425,-589.187 771.425,-573 771.425,-557.351 608.546,-553.226 506.843,-560.626"/>
<polygon fill="black" stroke="black" points="506.287,-557.159 496.591,-561.429 506.833,-564.137 506.287,-557.159"/>
<text text-anchor="middle" x="828.925" y="-569.3" font-family="Times New Roman,serif" font-size="14.00"> &#160;&#160;click(&quot;index=1&quot;) &#160;&#160;</text>
</g>
<!-- state_8&#45;&gt;state_8 -->
<g id="edge4" class="edge"><title>state_8&#45;&gt;state_8</title>
<path fill="none" stroke="black" d="M496.845,-586.66C625.218,-600.187 886.425,-595.633 886.425,-573 886.425,-550.941 638.314,-546.056 506.874,-558.345"/>
<polygon fill="black" stroke="black" points="506.45,-554.87 496.845,-559.34 507.141,-561.835 506.45,-554.87"/>
<text text-anchor="middle" x="957.425" y="-569.3" font-family="Times New Roman,serif" font-size="14.00"> &#160;&#160;longClick(&quot;index=1&quot;) &#160;&#160;</text>
</g>
<!-- state_8&#45;&gt;state_8 -->
<g id="edge5" class="edge"><title>state_8&#45;&gt;state_8</title>
<path fill="none" stroke="black" d="M496.54,-588.123C654.44,-607.37 1028.42,-602.329 1028.42,-573 1028.42,-544.272 669.622,-538.847 506.522,-556.723"/>
<polygon fill="black" stroke="black" points="506.072,-553.252 496.54,-557.877 506.876,-560.206 506.072,-553.252"/>
<text text-anchor="middle" x="1081.42" y="-569.3" font-family="Times New Roman,serif" font-size="14.00"> &#160;&#160;swipe(&quot;Right&quot;) &#160;&#160;</text>
</g>
<!-- state_8&#45;&gt;state_8 -->
<g id="edge6" class="edge"><title>state_8&#45;&gt;state_8</title>
<path fill="none" stroke="black" d="M496.485,-589.766C674.471,-614.469 1134.42,-608.88 1134.42,-573 1134.42,-537.768 690.94,-531.743 506.404,-554.925"/>
<polygon fill="black" stroke="black" points="505.941,-551.455 496.485,-556.234 506.857,-558.395 505.941,-551.455"/>
<text text-anchor="middle" x="1183.92" y="-569.3" font-family="Times New Roman,serif" font-size="14.00"> &#160;&#160;swipe(&quot;Left&quot;) &#160;&#160;</text>
</g>
<!-- state_36 -->
<g id="node2" class="node"><title>state_36</title>
<g id="a_node2"><a xlink:href="36.png" xlink:title="&lt;TABLE&gt;">
<polygon fill="none" stroke="black" points="273.425,-377 143.425,-377 143.425,-87 273.425,-87 273.425,-377"/>
<text text-anchor="start" x="184.925" y="-365.8" font-family="Times New Roman,serif" font-size="14.00">state_36</text>
<text text-anchor="start" x="177.925" y="-350.8" font-family="Times New Roman,serif" font-size="14.00">incoming:3</text>
<text text-anchor="start" x="178.925" y="-335.8" font-family="Times New Roman,serif" font-size="14.00">outgoing:8</text>
<text text-anchor="start" x="190.425" y="-320.8" font-family="Times New Roman,serif" font-size="14.00">loop:2</text>
<image xlink:href="36.png" width="130px" height="230px" preserveAspectRatio="xMinYMin meet" x="143.425" y="-317"/>
</a>
</g>
</g>
<!-- state_8&#45;&gt;state_36 -->
<g id="edge7" class="edge"><title>state_8&#45;&gt;state_36</title>
<path fill="none" stroke="black" d="M366.366,-565.092C279.035,-551.933 126.963,-514.491 58.4245,-410 25.4488,-359.727 81.9218,-307.905 134.745,-273.431"/>
<polygon fill="black" stroke="black" points="136.63,-276.38 143.178,-268.05 132.865,-270.479 136.63,-276.38"/>
<text text-anchor="middle" x="122.425" y="-398.8" font-family="Times New Roman,serif" font-size="14.00"> &#160;&#160;press(&quot;MenuKey&quot;) &#160;&#160;</text>
</g>
<!-- activity_1 -->
<g id="node3" class="node"><title>activity_1</title>
<ellipse fill="none" stroke="red" cx="645.425" cy="-232" rx="46.2923" ry="18"/>
<text text-anchor="middle" x="645.425" y="-228.3" font-family="Times New Roman,serif" font-size="14.00" fill="red">activity_1</text>
</g>
<!-- state_8&#45;&gt;activity_1 -->
<g id="edge8" class="edge"><title>state_8&#45;&gt;activity_1</title>
<path fill="none" stroke="red" d="M489.933,-427.68C495.786,-416.412 501.967,-405.388 508.425,-395 509.6,-393.109 587.237,-301.561 625.1,-256.943"/>
<polygon fill="red" stroke="red" points="627.878,-259.08 631.68,-249.19 622.541,-254.55 627.878,-259.08"/>
<text text-anchor="middle" x="565.925" y="-398.8" font-family="Times New Roman,serif" font-size="14.00" fill="red"> &#160;&#160;click(&quot;index=0&quot;) &#160;&#160;</text>
</g>
<!-- state_8&#45;&gt;activity_1 -->
<g id="edge9" class="edge"><title>state_8&#45;&gt;activity_1</title>
<path fill="none" stroke="red" d="M496.506,-535.117C540.02,-506.785 594.427,-463.486 623.425,-410 649.305,-362.263 650.052,-296.873 647.955,-260.414"/>
<polygon fill="red" stroke="red" points="651.422,-259.813 647.237,-250.08 644.439,-260.298 651.422,-259.813"/>
<text text-anchor="middle" x="691.925" y="-398.8" font-family="Times New Roman,serif" font-size="14.00" fill="red"> &#160;&#160;press(&quot;BackKey&quot;) &#160;&#160;</text>
</g>
<!-- state_36&#45;&gt;state_8 -->
<g id="edge12" class="edge"><title>state_36&#45;&gt;state_8</title>
<path fill="none" stroke="black" d="M197.893,-377.3C200.441,-388.691 204.175,-399.742 209.425,-410 240.337,-470.402 305.413,-513.688 357.156,-540.235"/>
<polygon fill="black" stroke="black" points="355.815,-543.478 366.322,-544.836 358.955,-537.221 355.815,-543.478"/>
<text text-anchor="middle" x="271.925" y="-398.8" font-family="Times New Roman,serif" font-size="14.00"> &#160;&#160;press(&quot;BackKey&quot;) &#160;&#160;</text>
</g>
<!-- state_36&#45;&gt;state_8 -->
<g id="edge13" class="edge"><title>state_36&#45;&gt;state_8</title>
<path fill="none" stroke="black" d="M273.521,-311.472C293.931,-337.417 315.939,-366.857 334.425,-395 343.511,-408.833 352.546,-423.586 361.24,-438.45"/>
<polygon fill="black" stroke="black" points="358.273,-440.312 366.317,-447.208 364.329,-436.801 358.273,-440.312"/>
<text text-anchor="middle" x="406.425" y="-398.8" font-family="Times New Roman,serif" font-size="14.00"> &#160;&#160;press(&quot;MenuKey&quot;) &#160;&#160;</text>
</g>
<!-- state_36&#45;&gt;state_36 -->
<g id="edge10" class="edge"><title>state_36&#45;&gt;state_36</title>
<path fill="none" stroke="black" d="M273.496,-246.746C284.122,-244.635 291.425,-239.72 291.425,-232 291.425,-226.934 288.28,-223.076 283.114,-220.425"/>
<polygon fill="black" stroke="black" points="284.089,-217.061 273.496,-217.254 281.898,-223.709 284.089,-217.061"/>
<text text-anchor="middle" x="344.425" y="-228.3" font-family="Times New Roman,serif" font-size="14.00"> &#160;&#160;swipe(&quot;Right&quot;) &#160;&#160;</text>
</g>
<!-- state_36&#45;&gt;state_36 -->
<g id="edge11" class="edge"><title>state_36&#45;&gt;state_36</title>
<path fill="none" stroke="black" d="M273.538,-260.524C329.328,-269.648 397.425,-260.14 397.425,-232 397.425,-205.509 337.074,-195.53 283.455,-202.064"/>
<polygon fill="black" stroke="black" points="282.945,-198.601 273.538,-203.476 283.931,-205.531 282.945,-198.601"/>
<text text-anchor="middle" x="446.925" y="-228.3" font-family="Times New Roman,serif" font-size="14.00"> &#160;&#160;swipe(&quot;Left&quot;) &#160;&#160;</text>
</g>
<!-- activity_3 -->
<g id="node4" class="node"><title>activity_3</title>
<ellipse fill="none" stroke="red" cx="70.4245" cy="-18" rx="46.2923" ry="18"/>
<text text-anchor="middle" x="70.4245" y="-14.3" font-family="Times New Roman,serif" font-size="14.00" fill="red">activity_3</text>
</g>
<!-- state_36&#45;&gt;activity_3 -->
<g id="edge14" class="edge"><title>state_36&#45;&gt;activity_3</title>
<path fill="none" stroke="red" d="M143.085,-200.069C94.3707,-173.04 31.4495,-128.75 2.42452,-69 -5.03067,-53.6528 8.36332,-41.9228 25.1829,-33.6944"/>
<polygon fill="red" stroke="red" points="27.0216,-36.7096 34.7689,-29.4826 24.2058,-30.3009 27.0216,-36.7096"/>
<text text-anchor="middle" x="59.9245" y="-57.8" font-family="Times New Roman,serif" font-size="14.00" fill="red"> &#160;&#160;click(&quot;index=0&quot;) &#160;&#160;</text>
</g>
<!-- state_36&#45;&gt;activity_3 -->
<g id="edge16" class="edge"><title>state_36&#45;&gt;activity_3</title>
<path fill="none" stroke="red" d="M143.344,-89.491C135.348,-76.9869 126.693,-64.9414 117.425,-54 113.006,-48.7843 107.67,-43.8955 102.202,-39.5213"/>
<polygon fill="red" stroke="red" points="104.285,-36.7089 94.187,-33.5026 100.082,-42.3063 104.285,-36.7089"/>
<text text-anchor="middle" x="185.925" y="-57.8" font-family="Times New Roman,serif" font-size="14.00" fill="red"> &#160;&#160;click(&quot;index=0&quot;) &#160;&#160;</text>
</g>
<!-- activity_4 -->
<g id="node5" class="node"><title>activity_4</title>
<ellipse fill="none" stroke="red" cx="346.425" cy="-18" rx="46.2923" ry="18"/>
<text text-anchor="middle" x="346.425" y="-14.3" font-family="Times New Roman,serif" font-size="14.00" fill="red">activity_4</text>
</g>
<!-- state_36&#45;&gt;activity_4 -->
<g id="edge15" class="edge"><title>state_36&#45;&gt;activity_4</title>
<path fill="none" stroke="red" d="M254.622,-86.9745C261.546,-75.1293 269.44,-63.9188 278.425,-54 285.377,-46.3244 294.406,-40.0769 303.6,-35.0998"/>
<polygon fill="red" stroke="red" points="305.38,-38.1238 312.779,-30.5404 302.266,-31.8547 305.38,-38.1238"/>
<text text-anchor="middle" x="335.925" y="-57.8" font-family="Times New Roman,serif" font-size="14.00" fill="red"> &#160;&#160;click(&quot;index=0&quot;) &#160;&#160;</text>
</g>
<!-- state_36&#45;&gt;activity_4 -->
<g id="edge17" class="edge"><title>state_36&#45;&gt;activity_4</title>
<path fill="none" stroke="red" d="M273.671,-194.281C316.48,-166.159 368.914,-123.043 393.425,-69 398.601,-57.5873 391.588,-47.1119 381.529,-38.7302"/>
<polygon fill="red" stroke="red" points="383.525,-35.8531 373.395,-32.748 379.378,-41.4923 383.525,-35.8531"/>
<text text-anchor="middle" x="451.925" y="-57.8" font-family="Times New Roman,serif" font-size="14.00" fill="red"> &#160;&#160;click(&quot;index=1&quot;) &#160;&#160;</text>
</g>
<!-- activity_1&#45;&gt;state_8 -->
<g id="edge18" class="edge"><title>activity_1&#45;&gt;state_8</title>
<path fill="none" stroke="red" d="M667.672,-247.837C710.287,-278.15 796.007,-349.439 758.425,-410 703.641,-498.278 584.865,-539.933 506.559,-558.472"/>
<polygon fill="red" stroke="red" points="505.705,-555.077 496.742,-560.726 507.271,-561.9 505.705,-555.077"/>
<text text-anchor="middle" x="821.925" y="-398.8" font-family="Times New Roman,serif" font-size="14.00" fill="red"> &#160;&#160;click(&quot;index=1&quot;) &#160;&#160;</text>
</g>
</g>
</svg>
