<?xml version="1.0" encoding="UTF-8" standalone="no"?>
<!DOCTYPE svg PUBLIC "-//W3C//DTD SVG 1.1//EN"
 "http://www.w3.org/Graphics/SVG/1.1/DTD/svg11.dtd">
<!-- Generated by graphviz version 2.38.0 (20140413.2041)
 -->
<!-- Title: g Pages: 1 -->
<svg width="2283pt" height="1385pt"
 viewBox="0.00 0.00 2282.57 1385.00" xmlns="http://www.w3.org/2000/svg" xmlns:xlink="http://www.w3.org/1999/xlink">
<g id="graph0" class="graph" transform="scale(1 1) rotate(0) translate(4 1381)">
<title>g</title>
<polygon fill="white" stroke="none" points="-4,4 -4,-1381 2278.57,-1381 2278.57,4 -4,4"/>
<text text-anchor="middle" x="1137.28" y="-7.8" font-family="Times New Roman,serif" font-size="14.00"> &#160;&#160;activity_4 &#160;&#160;</text>
<!-- state_0 -->
<g id="node1" class="node"><title>state_0</title>
<g id="a_node1"><a xlink:href="0.png">
<polygon fill="none" stroke="black" points="631.569,-1377 501.569,-1377 501.569,-1147 631.569,-1147 631.569,-1377"/>
<image xlink:href="0.png" width="130px" height="230px" preserveAspectRatio="xMinYMin meet" x="501.569" y="-1377"/>
</a>
</g>
</g>
<!-- state_0&#45;&gt;state_0 -->
<g id="edge1" class="edge"><title>state_0&#45;&gt;state_0</title>
<path fill="none" stroke="black" d="M631.641,-1286.29C642.267,-1282.81 649.569,-1274.71 649.569,-1262 649.569,-1253.46 646.273,-1247 640.887,-1242.63"/>
<polygon fill="black" stroke="black" points="642.114,-1239.32 631.641,-1237.71 638.829,-1245.5 642.114,-1239.32"/>
<text text-anchor="middle" x="713.569" y="-1258.3" font-family="Times New Roman,serif" font-size="14.00"> &#160;&#160;press(&quot;MenuKey&quot;) &#160;&#160;</text>
</g>
<!-- state_1 -->
<g id="node2" class="node"><title>state_1</title>
<g id="a_node2"><a xlink:href="1.png">
<polygon fill="none" stroke="black" points="845.569,-1096 715.569,-1096 715.569,-866 845.569,-866 845.569,-1096"/>
<image xlink:href="1.png" width="130px" height="230px" preserveAspectRatio="xMinYMin meet" x="715.569" y="-1096"/>
</a>
</g>
</g>
<!-- state_0&#45;&gt;state_1 -->
<g id="edge2" class="edge"><title>state_0&#45;&gt;state_1</title>
<path fill="none" stroke="black" d="M501.371,-1186.68C487.677,-1162.19 481.808,-1135.7 498.569,-1114 517.946,-1088.92 538.059,-1107.56 567.569,-1096 615.496,-1077.23 666.42,-1050.26 706.454,-1027.26"/>
<polygon fill="black" stroke="black" points="708.442,-1030.16 715.345,-1022.12 704.936,-1024.1 708.442,-1030.16"/>
<text text-anchor="middle" x="556.069" y="-1117.8" font-family="Times New Roman,serif" font-size="14.00"> &#160;&#160;click(&quot;index=0&quot;) &#160;&#160;</text>
</g>
<!-- state_0&#45;&gt;state_1 -->
<g id="edge3" class="edge"><title>state_0&#45;&gt;state_1</title>
<path fill="none" stroke="black" d="M615.43,-1146.87C621.941,-1135.4 629.007,-1124.23 636.569,-1114 656.759,-1086.69 683.188,-1060.55 707.886,-1038.84"/>
<polygon fill="black" stroke="black" points="710.225,-1041.44 715.486,-1032.25 705.638,-1036.16 710.225,-1041.44"/>
<text text-anchor="middle" x="689.569" y="-1117.8" font-family="Times New Roman,serif" font-size="14.00"> &#160;&#160;swipe(&quot;Right&quot;) &#160;&#160;</text>
</g>
<!-- state_0&#45;&gt;state_1 -->
<g id="edge4" class="edge"><title>state_0&#45;&gt;state_1</title>
<path fill="none" stroke="black" d="M631.994,-1226.79C669.639,-1203.91 714.833,-1170.41 742.569,-1129 747.472,-1121.68 751.742,-1113.77 755.461,-1105.54"/>
<polygon fill="black" stroke="black" points="758.768,-1106.7 759.431,-1096.13 752.319,-1103.98 758.768,-1106.7"/>
<text text-anchor="middle" x="800.069" y="-1117.8" font-family="Times New Roman,serif" font-size="14.00"> &#160;&#160;swipe(&quot;Left&quot;) &#160;&#160;</text>
</g>
<!-- state_0&#45;&gt;state_1 -->
<g id="edge5" class="edge"><title>state_0&#45;&gt;state_1</title>
<path fill="none" stroke="black" d="M631.699,-1251.58C700.271,-1237.8 804.896,-1204.96 853.569,-1129 867.209,-1107.71 862.626,-1083.53 850.813,-1061"/>
<polygon fill="black" stroke="black" points="853.748,-1059.08 845.752,-1052.13 847.668,-1062.55 853.748,-1059.08"/>
<text text-anchor="middle" x="921.069" y="-1117.8" font-family="Times New Roman,serif" font-size="14.00"> &#160;&#160;press(&quot;BackKey&quot;) &#160;&#160;</text>
</g>
<!-- state_1&#45;&gt;state_1 -->
<g id="edge6" class="edge"><title>state_1&#45;&gt;state_1</title>
<path fill="none" stroke="black" d="M845.641,-985.857C856.267,-985.162 863.569,-983.543 863.569,-981 863.569,-979.371 860.572,-978.121 855.625,-977.25"/>
<polygon fill="black" stroke="black" points="855.966,-973.767 845.641,-976.143 855.194,-980.724 855.966,-973.767"/>
<text text-anchor="middle" x="921.069" y="-977.3" font-family="Times New Roman,serif" font-size="14.00"> &#160;&#160;click(&quot;index=0&quot;) &#160;&#160;</text>
</g>
<!-- state_1&#45;&gt;state_1 -->
<g id="edge7" class="edge"><title>state_1&#45;&gt;state_1</title>
<path fill="none" stroke="black" d="M845.75,-990.273C904.602,-993.484 978.569,-990.393 978.569,-981 978.569,-972.139 912.744,-968.887 855.88,-971.242"/>
<polygon fill="black" stroke="black" points="855.571,-967.752 845.75,-971.727 855.906,-974.744 855.571,-967.752"/>
<text text-anchor="middle" x="1049.57" y="-977.3" font-family="Times New Roman,serif" font-size="14.00"> &#160;&#160;longClick(&quot;index=0&quot;) &#160;&#160;</text>
</g>
<!-- state_1&#45;&gt;state_1 -->
<g id="edge8" class="edge"><title>state_1&#45;&gt;state_1</title>
<path fill="none" stroke="black" d="M845.735,-992.435C946.311,-1000.81 1120.57,-996.996 1120.57,-981 1120.57,-965.535 957.691,-961.459 855.988,-968.772"/>
<polygon fill="black" stroke="black" points="855.435,-965.304 845.735,-969.565 855.976,-972.283 855.435,-965.304"/>
<text text-anchor="middle" x="1191.57" y="-977.3" font-family="Times New Roman,serif" font-size="14.00"> &#160;&#160;longClick(&quot;index=1&quot;) &#160;&#160;</text>
</g>
<!-- state_1&#45;&gt;state_1 -->
<g id="edge9" class="edge"><title>state_1&#45;&gt;state_1</title>
<path fill="none" stroke="black" d="M845.874,-994.202C980.034,-1007.93 1262.57,-1003.53 1262.57,-981 1262.57,-959.019 993.661,-954.294 855.959,-966.825"/>
<polygon fill="black" stroke="black" points="855.491,-963.354 845.874,-967.798 856.164,-970.321 855.491,-963.354"/>
<text text-anchor="middle" x="1315.57" y="-977.3" font-family="Times New Roman,serif" font-size="14.00"> &#160;&#160;swipe(&quot;Right&quot;) &#160;&#160;</text>
</g>
<!-- state_1&#45;&gt;state_1 -->
<g id="edge10" class="edge"><title>state_1&#45;&gt;state_1</title>
<path fill="none" stroke="black" d="M845.807,-996.046C1002.06,-1014.95 1368.57,-1009.93 1368.57,-981 1368.57,-952.689 1017.64,-947.278 856.164,-964.769"/>
<polygon fill="black" stroke="black" points="855.344,-961.34 845.807,-965.954 856.14,-968.294 855.344,-961.34"/>
<text text-anchor="middle" x="1418.07" y="-977.3" font-family="Times New Roman,serif" font-size="14.00"> &#160;&#160;swipe(&quot;Left&quot;) &#160;&#160;</text>
</g>
<!-- state_13 -->
<g id="node3" class="node"><title>state_13</title>
<g id="a_node3"><a xlink:href="13.png">
<polygon fill="none" stroke="black" points="546.569,-815 416.569,-815 416.569,-585 546.569,-585 546.569,-815"/>
<image xlink:href="13.png" width="130px" height="230px" preserveAspectRatio="xMinYMin meet" x="416.569" y="-815"/>
</a>
</g>
</g>
<!-- state_1&#45;&gt;state_13 -->
<g id="edge11" class="edge"><title>state_1&#45;&gt;state_13</title>
<path fill="none" stroke="black" d="M775.075,-865.908C771.208,-854.107 765.863,-842.851 758.569,-833 710.125,-767.57 620.805,-733.218 556.677,-716.157"/>
<polygon fill="black" stroke="black" points="557.168,-712.669 546.611,-713.565 555.422,-719.448 557.168,-712.669"/>
<text text-anchor="middle" x="830.569" y="-836.8" font-family="Times New Roman,serif" font-size="14.00"> &#160;&#160;press(&quot;MenuKey&quot;) &#160;&#160;</text>
</g>
<!-- state_8 -->
<g id="node5" class="node"><title>state_8</title>
<g id="a_node5"><a xlink:href="8.png">
<polygon fill="none" stroke="black" points="1299.57,-815 1169.57,-815 1169.57,-585 1299.57,-585 1299.57,-815"/>
<image xlink:href="8.png" width="130px" height="230px" preserveAspectRatio="xMinYMin meet" x="1169.57" y="-815"/>
</a>
</g>
</g>
<!-- state_1&#45;&gt;state_8 -->
<g id="edge12" class="edge"><title>state_1&#45;&gt;state_8</title>
<path fill="none" stroke="black" d="M845.758,-963.204C925.543,-940.15 1061.6,-892.501 1155.57,-815 1157.83,-813.133 1160.06,-811.185 1162.25,-809.168"/>
<polygon fill="black" stroke="black" points="1164.82,-811.549 1169.54,-802.065 1159.94,-806.534 1164.82,-811.549"/>
<text text-anchor="middle" x="1186.07" y="-836.8" font-family="Times New Roman,serif" font-size="14.00"> &#160;&#160;click(&quot;index=1&quot;) &#160;&#160;</text>
</g>
<!-- state_final -->
<g id="node7" class="node"><title>state_final</title>
<g id="a_node7"><a xlink:href="-2.png">
<polygon fill="none" stroke="black" points="2274.57,-815 2144.57,-815 2144.57,-585 2274.57,-585 2274.57,-815"/>
<image xlink:href="-2.png" width="76px" height="74px" preserveAspectRatio="xMinYMin meet" x="2171.57" y="-737"/>
</a>
</g>
</g>
<!-- state_1&#45;&gt;state_final -->
<g id="edge13" class="edge"><title>state_1&#45;&gt;state_final</title>
<path fill="none" stroke="black" d="M845.962,-979.228C1086.03,-975.316 1916.21,-951.952 2135.57,-815 2135.76,-814.879 2135.96,-814.757 2136.15,-814.635"/>
<polygon fill="black" stroke="black" points="2138.43,-817.308 2144.56,-808.669 2134.38,-811.597 2138.43,-817.308"/>
<text text-anchor="middle" x="2163.07" y="-836.8" font-family="Times New Roman,serif" font-size="14.00"> &#160;&#160;press(&quot;BackKey&quot;) &#160;&#160;</text>
</g>
<!-- state_13&#45;&gt;state_0 -->
<g id="edge14" class="edge"><title>state_13&#45;&gt;state_0</title>
<path fill="none" stroke="black" d="M416.306,-743.777C377.932,-773.051 332.88,-815.619 311.569,-866 271.747,-960.146 262.719,-1006.21 311.569,-1096 349.541,-1165.8 431.164,-1210.6 491.892,-1235.64"/>
<polygon fill="black" stroke="black" points="490.866,-1239 501.449,-1239.49 493.482,-1232.51 490.866,-1239"/>
<text text-anchor="middle" x="369.069" y="-977.3" font-family="Times New Roman,serif" font-size="14.00"> &#160;&#160;click(&quot;index=0&quot;) &#160;&#160;</text>
</g>
<!-- state_13&#45;&gt;state_0 -->
<g id="edge15" class="edge"><title>state_13&#45;&gt;state_0</title>
<path fill="none" stroke="black" d="M465.418,-815.062C457.107,-902.924 454.51,-1026.32 486.569,-1129 489.415,-1138.11 493.017,-1147.25 497.111,-1156.22"/>
<polygon fill="black" stroke="black" points="494.076,-1157.98 501.545,-1165.5 500.393,-1154.97 494.076,-1157.98"/>
<text text-anchor="middle" x="534.069" y="-977.3" font-family="Times New Roman,serif" font-size="14.00"> &#160;&#160;click(&quot;index=4&quot;) &#160;&#160;</text>
</g>
<!-- state_13&#45;&gt;state_1 -->
<g id="edge18" class="edge"><title>state_13&#45;&gt;state_1</title>
<path fill="none" stroke="black" d="M467.051,-815.269C469.847,-827.178 474.743,-838.41 482.569,-848 506.984,-877.918 531.296,-852.757 567.569,-866 615.736,-883.585 666.475,-910.373 706.344,-933.564"/>
<polygon fill="black" stroke="black" points="704.801,-936.717 715.198,-938.758 708.344,-930.679 704.801,-936.717"/>
<text text-anchor="middle" x="545.069" y="-836.8" font-family="Times New Roman,serif" font-size="14.00"> &#160;&#160;press(&quot;BackKey&quot;) &#160;&#160;</text>
</g>
<!-- state_13&#45;&gt;state_1 -->
<g id="edge19" class="edge"><title>state_13&#45;&gt;state_1</title>
<path fill="none" stroke="black" d="M546.823,-769.516C571.375,-794.663 599.827,-823.065 626.569,-848 652.36,-872.048 681.539,-897.48 707.507,-919.534"/>
<polygon fill="black" stroke="black" points="705.563,-922.474 715.456,-926.265 710.086,-917.132 705.563,-922.474"/>
<text text-anchor="middle" x="690.569" y="-836.8" font-family="Times New Roman,serif" font-size="14.00"> &#160;&#160;press(&quot;MenuKey&quot;) &#160;&#160;</text>
</g>
<!-- state_13&#45;&gt;state_13 -->
<g id="edge16" class="edge"><title>state_13&#45;&gt;state_13</title>
<path fill="none" stroke="black" d="M546.641,-712.144C557.267,-710.405 564.569,-706.357 564.569,-700 564.569,-695.927 561.572,-692.802 556.625,-690.625"/>
<polygon fill="black" stroke="black" points="557.213,-687.156 546.641,-687.856 555.342,-693.902 557.213,-687.156"/>
<text text-anchor="middle" x="617.569" y="-696.3" font-family="Times New Roman,serif" font-size="14.00"> &#160;&#160;swipe(&quot;Right&quot;) &#160;&#160;</text>
</g>
<!-- state_13&#45;&gt;state_13 -->
<g id="edge17" class="edge"><title>state_13&#45;&gt;state_13</title>
<path fill="none" stroke="black" d="M546.683,-723.491C602.473,-731.004 670.569,-723.174 670.569,-700 670.569,-678.229 610.469,-670 556.934,-675.313"/>
<polygon fill="black" stroke="black" points="556.21,-671.874 546.683,-676.509 557.021,-678.827 556.21,-671.874"/>
<text text-anchor="middle" x="720.069" y="-696.3" font-family="Times New Roman,serif" font-size="14.00"> &#160;&#160;swipe(&quot;Left&quot;) &#160;&#160;</text>
</g>
<!-- state_14 -->
<g id="node8" class="node"><title>state_14</title>
<g id="a_node8"><a xlink:href="14.png">
<polygon fill="none" stroke="black" points="235.569,-253 105.569,-253 105.569,-23 235.569,-23 235.569,-253"/>
<image xlink:href="14.png" width="130px" height="230px" preserveAspectRatio="xMinYMin meet" x="105.569" y="-253"/>
</a>
</g>
</g>
<!-- state_13&#45;&gt;state_14 -->
<g id="edge20" class="edge"><title>state_13&#45;&gt;state_14</title>
<path fill="none" stroke="black" d="M416.245,-684.571C343.117,-664.56 228.011,-620.607 175.569,-534 148.91,-489.973 151.794,-361.788 158.741,-263.265"/>
<polygon fill="black" stroke="black" points="162.237,-263.451 159.47,-253.224 155.255,-262.944 162.237,-263.451"/>
<text text-anchor="middle" x="233.069" y="-415.3" font-family="Times New Roman,serif" font-size="14.00"> &#160;&#160;click(&quot;index=0&quot;) &#160;&#160;</text>
</g>
<!-- state_13&#45;&gt;state_14 -->
<g id="edge24" class="edge"><title>state_13&#45;&gt;state_14</title>
<path fill="none" stroke="black" d="M416.175,-696.77C314.8,-689.364 122.373,-658.666 35.5694,-534 -22.8418,-450.11 1.20365,-400.272 35.5694,-304 48.5922,-267.518 73.5309,-233.287 98.4656,-205.565"/>
<polygon fill="black" stroke="black" points="101.3,-207.654 105.488,-197.922 96.1452,-202.917 101.3,-207.654"/>
<text text-anchor="middle" x="93.0694" y="-415.3" font-family="Times New Roman,serif" font-size="14.00"> &#160;&#160;click(&quot;index=0&quot;) &#160;&#160;</text>
</g>
<!-- state_16 -->
<g id="node9" class="node"><title>state_16</title>
<g id="a_node9"><a xlink:href="16.png">
<polygon fill="none" stroke="black" points="885.569,-534 755.569,-534 755.569,-304 885.569,-304 885.569,-534"/>
<image xlink:href="16.png" width="130px" height="230px" preserveAspectRatio="xMinYMin meet" x="755.569" y="-534"/>
</a>
</g>
</g>
<!-- state_13&#45;&gt;state_16 -->
<g id="edge22" class="edge"><title>state_13&#45;&gt;state_16</title>
<path fill="none" stroke="black" d="M546.772,-641.589C591.08,-603.041 643.864,-558.195 656.569,-552 691.279,-535.076 709.412,-555.379 741.569,-534 743.524,-532.7 745.445,-531.334 747.331,-529.908"/>
<polygon fill="black" stroke="black" points="749.873,-532.35 755.38,-523.299 745.43,-526.941 749.873,-532.35"/>
<text text-anchor="middle" x="714.069" y="-555.8" font-family="Times New Roman,serif" font-size="14.00"> &#160;&#160;click(&quot;index=0&quot;) &#160;&#160;</text>
</g>
<!-- state_13&#45;&gt;state_16 -->
<g id="edge26" class="edge"><title>state_13&#45;&gt;state_16</title>
<path fill="none" stroke="black" d="M546.822,-685.388C612.346,-668.455 711.906,-633.308 771.569,-567 778.046,-559.802 783.671,-551.721 788.554,-543.149"/>
<polygon fill="black" stroke="black" points="791.784,-544.529 793.38,-534.055 785.601,-541.248 791.784,-544.529"/>
<text text-anchor="middle" x="839.069" y="-555.8" font-family="Times New Roman,serif" font-size="14.00"> &#160;&#160;click(&quot;index=2&quot;) &#160;&#160;</text>
</g>
<!-- state_15 -->
<g id="node12" class="node"><title>state_15</title>
<g id="a_node12"><a xlink:href="15.png">
<polygon fill="none" stroke="black" points="584.569,-534 454.569,-534 454.569,-304 584.569,-304 584.569,-534"/>
<image xlink:href="15.png" width="130px" height="230px" preserveAspectRatio="xMinYMin meet" x="454.569" y="-534"/>
</a>
</g>
</g>
<!-- state_13&#45;&gt;state_15 -->
<g id="edge21" class="edge"><title>state_13&#45;&gt;state_15</title>
<path fill="none" stroke="black" d="M489.606,-584.903C490.774,-573.766 492.09,-562.652 493.569,-552 493.921,-549.47 494.289,-546.914 494.674,-544.341"/>
<polygon fill="black" stroke="black" points="498.15,-544.76 496.226,-534.341 491.233,-543.686 498.15,-544.76"/>
<text text-anchor="middle" x="551.069" y="-555.8" font-family="Times New Roman,serif" font-size="14.00"> &#160;&#160;click(&quot;index=0&quot;) &#160;&#160;</text>
</g>
<!-- state_13&#45;&gt;state_15 -->
<g id="edge25" class="edge"><title>state_13&#45;&gt;state_15</title>
<path fill="none" stroke="black" d="M416.397,-656.241C379.589,-626.746 345.826,-586.744 372.569,-552 391.639,-527.226 414.977,-551.955 440.569,-534 442.682,-532.518 444.757,-530.96 446.792,-529.335"/>
<polygon fill="black" stroke="black" points="449.146,-531.927 454.449,-522.755 444.584,-526.618 449.146,-531.927"/>
<text text-anchor="middle" x="430.069" y="-555.8" font-family="Times New Roman,serif" font-size="14.00"> &#160;&#160;click(&quot;index=1&quot;) &#160;&#160;</text>
</g>
<!-- state_17 -->
<g id="node13" class="node"><title>state_17</title>
<g id="a_node13"><a xlink:href="17.png">
<polygon fill="none" stroke="black" points="836.569,-253 706.569,-253 706.569,-23 836.569,-23 836.569,-253"/>
<image xlink:href="17.png" width="130px" height="230px" preserveAspectRatio="xMinYMin meet" x="706.569" y="-253"/>
</a>
</g>
</g>
<!-- state_13&#45;&gt;state_17 -->
<g id="edge23" class="edge"><title>state_13&#45;&gt;state_17</title>
<path fill="none" stroke="black" d="M416.439,-648.432C383.979,-618.997 348.006,-578.882 330.569,-534 293.551,-438.716 272.313,-387.997 330.569,-304 413.414,-184.55 593.959,-151.433 696.495,-142.346"/>
<polygon fill="black" stroke="black" points="696.797,-145.833 706.473,-141.515 696.217,-138.857 696.797,-145.833"/>
<text text-anchor="middle" x="388.069" y="-415.3" font-family="Times New Roman,serif" font-size="14.00"> &#160;&#160;click(&quot;index=0&quot;) &#160;&#160;</text>
</g>
<!-- state_13&#45;&gt;state_17 -->
<g id="edge27" class="edge"><title>state_13&#45;&gt;state_17</title>
<path fill="none" stroke="black" d="M546.578,-648.072C570.22,-625.856 594.553,-597.832 608.569,-567 657.127,-460.184 586.372,-412.281 631.569,-304 646.912,-267.242 673.561,-232.629 699.518,-204.69"/>
<polygon fill="black" stroke="black" points="702.12,-207.032 706.452,-197.363 697.036,-202.22 702.12,-207.032"/>
<text text-anchor="middle" x="689.069" y="-415.3" font-family="Times New Roman,serif" font-size="14.00"> &#160;&#160;click(&quot;index=3&quot;) &#160;&#160;</text>
</g>
<!-- state_29 -->
<g id="node4" class="node"><title>state_29</title>
<g id="a_node4"><a xlink:href="29.png">
<polygon fill="none" stroke="black" points="1033.57,-534 903.569,-534 903.569,-304 1033.57,-304 1033.57,-534"/>
<image xlink:href="29.png" width="130px" height="230px" preserveAspectRatio="xMinYMin meet" x="903.569" y="-534"/>
</a>
</g>
</g>
<!-- state_29&#45;&gt;state_1 -->
<g id="edge45" class="edge"><title>state_29&#45;&gt;state_1</title>
<path fill="none" stroke="black" d="M946.486,-534.402C943.386,-551.348 940.322,-568.616 937.569,-585 917.989,-701.534 948.723,-741.005 898.569,-848 887.29,-872.063 870.171,-894.927 852.443,-914.659"/>
<polygon fill="black" stroke="black" points="849.825,-912.335 845.63,-922.064 854.976,-917.075 849.825,-912.335"/>
<text text-anchor="middle" x="985.569" y="-696.3" font-family="Times New Roman,serif" font-size="14.00"> &#160;&#160;click(&quot;稍後&quot;) &#160;&#160;</text>
</g>
<!-- state_29&#45;&gt;state_1 -->
<g id="edge47" class="edge"><title>state_29&#45;&gt;state_1</title>
<path fill="none" stroke="black" d="M1023.89,-534.04C1055.52,-616.578 1080.49,-728.378 1033.57,-815 996.05,-884.262 915.453,-929.052 855.25,-954.241"/>
<polygon fill="black" stroke="black" points="853.704,-951.092 845.772,-958.117 856.353,-957.571 853.704,-951.092"/>
<text text-anchor="middle" x="1106.57" y="-696.3" font-family="Times New Roman,serif" font-size="14.00"> &#160;&#160;click(&quot;不要&quot;) &#160;&#160;</text>
</g>
<!-- state_29&#45;&gt;state_29 -->
<g id="edge48" class="edge"><title>state_29&#45;&gt;state_29</title>
<path fill="none" stroke="black" d="M1033.64,-425.072C1044.27,-424.203 1051.57,-422.179 1051.57,-419 1051.57,-416.964 1048.57,-415.401 1043.62,-414.313"/>
<polygon fill="black" stroke="black" points="1044.03,-410.835 1033.64,-412.928 1043.07,-417.769 1044.03,-410.835"/>
<text text-anchor="middle" x="1104.57" y="-415.3" font-family="Times New Roman,serif" font-size="14.00"> &#160;&#160;swipe(&quot;Right&quot;) &#160;&#160;</text>
</g>
<!-- state_29&#45;&gt;state_29 -->
<g id="edge49" class="edge"><title>state_29&#45;&gt;state_29</title>
<path fill="none" stroke="black" d="M1033.68,-430.745C1089.47,-434.502 1157.57,-430.587 1157.57,-419 1157.57,-408.115 1097.47,-404 1043.93,-406.657"/>
<polygon fill="black" stroke="black" points="1043.46,-403.178 1033.68,-407.255 1043.87,-410.166 1043.46,-403.178"/>
<text text-anchor="middle" x="1207.07" y="-415.3" font-family="Times New Roman,serif" font-size="14.00"> &#160;&#160;swipe(&quot;Left&quot;) &#160;&#160;</text>
</g>
<!-- state_29&#45;&gt;state_29 -->
<g id="edge50" class="edge"><title>state_29&#45;&gt;state_29</title>
<path fill="none" stroke="black" d="M1033.71,-434.143C1120.5,-443.479 1256.57,-438.431 1256.57,-419 1256.57,-400.309 1130.66,-394.927 1043.83,-402.853"/>
<polygon fill="black" stroke="black" points="1043.32,-399.387 1033.71,-403.857 1044.01,-406.353 1043.32,-399.387"/>
<text text-anchor="middle" x="1319.07" y="-415.3" font-family="Times New Roman,serif" font-size="14.00"> &#160;&#160;press(&quot;BackKey&quot;) &#160;&#160;</text>
</g>
<!-- state_29&#45;&gt;state_29 -->
<g id="edge51" class="edge"><title>state_29&#45;&gt;state_29</title>
<path fill="none" stroke="black" d="M1033.94,-436.477C1152.86,-452.443 1381.57,-446.617 1381.57,-419 1381.57,-392.138 1165.2,-385.892 1043.93,-400.263"/>
<polygon fill="black" stroke="black" points="1043.42,-396.799 1033.94,-401.523 1044.3,-403.744 1043.42,-396.799"/>
<text text-anchor="middle" x="1445.57" y="-415.3" font-family="Times New Roman,serif" font-size="14.00"> &#160;&#160;press(&quot;MenuKey&quot;) &#160;&#160;</text>
</g>
<!-- state_29&#45;&gt;state_14 -->
<g id="edge46" class="edge"><title>state_29&#45;&gt;state_14</title>
<path fill="none" stroke="black" d="M903.562,-310.979C900.662,-308.498 897.665,-306.161 894.569,-304 881.069,-294.573 427.73,-195.045 245.403,-155.28"/>
<polygon fill="black" stroke="black" points="246.135,-151.857 235.618,-153.146 244.643,-158.696 246.135,-151.857"/>
<text text-anchor="middle" x="867.069" y="-274.8" font-family="Times New Roman,serif" font-size="14.00"> &#160;&#160;click(&quot;好&quot;) &#160;&#160;</text>
</g>
<!-- state_8&#45;&gt;state_29 -->
<g id="edge35" class="edge"><title>state_8&#45;&gt;state_29</title>
<path fill="none" stroke="black" d="M1169.42,-596.289C1165,-592.205 1160.39,-588.406 1155.57,-585 1130.74,-567.445 1115.1,-583.514 1089.57,-567 1071.64,-555.401 1055.05,-540.294 1040.27,-524.189"/>
<polygon fill="black" stroke="black" points="1042.88,-521.856 1033.61,-516.728 1037.66,-526.518 1042.88,-521.856"/>
<text text-anchor="middle" x="1147.07" y="-555.8" font-family="Times New Roman,serif" font-size="14.00"> &#160;&#160;click(&quot;index=0&quot;) &#160;&#160;</text>
</g>
<!-- state_8&#45;&gt;state_29 -->
<g id="edge36" class="edge"><title>state_8&#45;&gt;state_29</title>
<path fill="none" stroke="black" d="M1221.67,-584.809C1217.37,-573.094 1211.79,-561.884 1204.57,-552 1165.05,-497.918 1096.27,-463.116 1043.12,-442.904"/>
<polygon fill="black" stroke="black" points="1044.32,-439.615 1033.73,-439.42 1041.89,-446.179 1044.32,-439.615"/>
<text text-anchor="middle" x="1275.07" y="-555.8" font-family="Times New Roman,serif" font-size="14.00"> &#160;&#160;press(&quot;BackKey&quot;) &#160;&#160;</text>
</g>
<!-- state_8&#45;&gt;state_8 -->
<g id="edge28" class="edge"><title>state_8&#45;&gt;state_8</title>
<path fill="none" stroke="black" d="M1299.64,-704.048C1310.27,-703.468 1317.57,-702.119 1317.57,-700 1317.57,-698.642 1314.57,-697.601 1309.62,-696.875"/>
<polygon fill="black" stroke="black" points="1309.92,-693.388 1299.64,-695.952 1309.28,-700.358 1309.92,-693.388"/>
<text text-anchor="middle" x="1375.07" y="-696.3" font-family="Times New Roman,serif" font-size="14.00"> &#160;&#160;click(&quot;index=0&quot;) &#160;&#160;</text>
</g>
<!-- state_8&#45;&gt;state_8 -->
<g id="edge29" class="edge"><title>state_8&#45;&gt;state_8</title>
<path fill="none" stroke="black" d="M1299.75,-707.728C1358.6,-710.403 1432.57,-707.827 1432.57,-700 1432.57,-692.616 1366.74,-689.906 1309.88,-691.868"/>
<polygon fill="black" stroke="black" points="1309.6,-688.376 1299.75,-692.272 1309.88,-695.371 1309.6,-688.376"/>
<text text-anchor="middle" x="1503.57" y="-696.3" font-family="Times New Roman,serif" font-size="14.00"> &#160;&#160;longClick(&quot;index=0&quot;) &#160;&#160;</text>
</g>
<!-- state_8&#45;&gt;state_8 -->
<g id="edge30" class="edge"><title>state_8&#45;&gt;state_8</title>
<path fill="none" stroke="black" d="M1299.74,-709.529C1400.31,-716.506 1574.57,-713.33 1574.57,-700 1574.57,-687.113 1411.69,-683.716 1309.99,-689.81"/>
<polygon fill="black" stroke="black" points="1309.49,-686.334 1299.74,-690.471 1309.94,-693.32 1309.49,-686.334"/>
<text text-anchor="middle" x="1632.07" y="-696.3" font-family="Times New Roman,serif" font-size="14.00"> &#160;&#160;click(&quot;index=1&quot;) &#160;&#160;</text>
</g>
<!-- state_8&#45;&gt;state_8 -->
<g id="edge31" class="edge"><title>state_8&#45;&gt;state_8</title>
<path fill="none" stroke="black" d="M1299.99,-711.249C1428.36,-722.389 1689.57,-718.639 1689.57,-700 1689.57,-681.834 1441.46,-677.811 1310.02,-687.931"/>
<polygon fill="black" stroke="black" points="1309.67,-684.448 1299.99,-688.751 1310.24,-691.424 1309.67,-684.448"/>
<text text-anchor="middle" x="1760.57" y="-696.3" font-family="Times New Roman,serif" font-size="14.00"> &#160;&#160;longClick(&quot;index=1&quot;) &#160;&#160;</text>
</g>
<!-- state_8&#45;&gt;state_8 -->
<g id="edge32" class="edge"><title>state_8&#45;&gt;state_8</title>
<path fill="none" stroke="black" d="M1299.68,-712.454C1457.58,-728.305 1831.57,-724.154 1831.57,-700 1831.57,-676.342 1472.77,-671.874 1309.67,-686.596"/>
<polygon fill="black" stroke="black" points="1309.31,-683.114 1299.68,-687.546 1309.97,-690.083 1309.31,-683.114"/>
<text text-anchor="middle" x="1884.57" y="-696.3" font-family="Times New Roman,serif" font-size="14.00"> &#160;&#160;swipe(&quot;Right&quot;) &#160;&#160;</text>
</g>
<!-- state_8&#45;&gt;state_8 -->
<g id="edge33" class="edge"><title>state_8&#45;&gt;state_8</title>
<path fill="none" stroke="black" d="M1299.63,-713.808C1477.62,-734.151 1937.57,-729.548 1937.57,-700 1937.57,-671 1494.53,-666.029 1309.82,-685.086"/>
<polygon fill="black" stroke="black" points="1309.19,-681.634 1299.63,-686.192 1309.95,-688.593 1309.19,-681.634"/>
<text text-anchor="middle" x="1987.07" y="-696.3" font-family="Times New Roman,serif" font-size="14.00"> &#160;&#160;swipe(&quot;Left&quot;) &#160;&#160;</text>
</g>
<!-- state_36 -->
<g id="node6" class="node"><title>state_36</title>
<g id="a_node6"><a xlink:href="36.png">
<polygon fill="none" stroke="black" points="1711.57,-534 1581.57,-534 1581.57,-304 1711.57,-304 1711.57,-534"/>
<image xlink:href="36.png" width="130px" height="230px" preserveAspectRatio="xMinYMin meet" x="1581.57" y="-534"/>
</a>
</g>
</g>
<!-- state_8&#45;&gt;state_36 -->
<g id="edge34" class="edge"><title>state_8&#45;&gt;state_36</title>
<path fill="none" stroke="black" d="M1299.73,-610.761C1321.24,-587.825 1347.05,-565.729 1375.57,-552 1454.79,-513.863 1497.3,-579.435 1572.57,-534 1572.66,-533.943 1572.76,-533.886 1572.85,-533.828"/>
<polygon fill="black" stroke="black" points="1575.08,-536.544 1581.36,-528.009 1571.13,-530.767 1575.08,-536.544"/>
<text text-anchor="middle" x="1439.57" y="-555.8" font-family="Times New Roman,serif" font-size="14.00"> &#160;&#160;press(&quot;MenuKey&quot;) &#160;&#160;</text>
</g>
<!-- state_36&#45;&gt;state_8 -->
<g id="edge39" class="edge"><title>state_36&#45;&gt;state_8</title>
<path fill="none" stroke="black" d="M1581.38,-526.18C1578.52,-528.923 1575.59,-531.54 1572.57,-534 1555.55,-547.873 1546.09,-541.951 1526.57,-552 1515.72,-557.586 1514.18,-560.967 1503.57,-567 1439.34,-603.523 1363.58,-640.152 1308.85,-665.526"/>
<polygon fill="black" stroke="black" points="1307.18,-662.442 1299.57,-669.814 1310.12,-668.797 1307.18,-662.442"/>
<text text-anchor="middle" x="1589.07" y="-555.8" font-family="Times New Roman,serif" font-size="14.00"> &#160;&#160;press(&quot;BackKey&quot;) &#160;&#160;</text>
</g>
<!-- state_36&#45;&gt;state_8 -->
<g id="edge40" class="edge"><title>state_36&#45;&gt;state_8</title>
<path fill="none" stroke="black" d="M1665.38,-534.222C1663.07,-545.999 1658.74,-557.214 1651.57,-567 1610.89,-622.548 1418.6,-665.634 1309.91,-686.041"/>
<polygon fill="black" stroke="black" points="1309.17,-682.617 1299.98,-687.885 1310.45,-689.5 1309.17,-682.617"/>
<text text-anchor="middle" x="1722.57" y="-555.8" font-family="Times New Roman,serif" font-size="14.00"> &#160;&#160;press(&quot;MenuKey&quot;) &#160;&#160;</text>
</g>
<!-- state_36&#45;&gt;state_36 -->
<g id="edge37" class="edge"><title>state_36&#45;&gt;state_36</title>
<path fill="none" stroke="black" d="M1711.64,-431.144C1722.27,-429.405 1729.57,-425.357 1729.57,-419 1729.57,-414.927 1726.57,-411.802 1721.62,-409.625"/>
<polygon fill="black" stroke="black" points="1722.21,-406.156 1711.64,-406.856 1720.34,-412.902 1722.21,-406.156"/>
<text text-anchor="middle" x="1782.57" y="-415.3" font-family="Times New Roman,serif" font-size="14.00"> &#160;&#160;swipe(&quot;Right&quot;) &#160;&#160;</text>
</g>
<!-- state_36&#45;&gt;state_36 -->
<g id="edge38" class="edge"><title>state_36&#45;&gt;state_36</title>
<path fill="none" stroke="black" d="M1711.68,-442.491C1767.47,-450.004 1835.57,-442.174 1835.57,-419 1835.57,-397.229 1775.47,-389 1721.93,-394.313"/>
<polygon fill="black" stroke="black" points="1721.21,-390.874 1711.68,-395.509 1722.02,-397.827 1721.21,-390.874"/>
<text text-anchor="middle" x="1885.07" y="-415.3" font-family="Times New Roman,serif" font-size="14.00"> &#160;&#160;swipe(&quot;Left&quot;) &#160;&#160;</text>
</g>
<!-- state_37 -->
<g id="node10" class="node"><title>state_37</title>
<g id="a_node10"><a xlink:href="37.png">
<polygon fill="none" stroke="black" points="1785.57,-253 1655.57,-253 1655.57,-23 1785.57,-23 1785.57,-253"/>
<image xlink:href="37.png" width="130px" height="230px" preserveAspectRatio="xMinYMin meet" x="1655.57" y="-253"/>
</a>
</g>
</g>
<!-- state_36&#45;&gt;state_37 -->
<g id="edge41" class="edge"><title>state_36&#45;&gt;state_37</title>
<path fill="none" stroke="black" d="M1686.54,-303.813C1688.31,-297.811 1690,-291.847 1691.57,-286 1693.56,-278.58 1695.47,-270.915 1697.3,-263.161"/>
<polygon fill="black" stroke="black" points="1700.74,-263.835 1699.58,-253.304 1693.92,-262.26 1700.74,-263.835"/>
<text text-anchor="middle" x="1752.07" y="-274.8" font-family="Times New Roman,serif" font-size="14.00"> &#160;&#160;click(&quot;index=0&quot;) &#160;&#160;</text>
</g>
<!-- state_39 -->
<g id="node11" class="node"><title>state_39</title>
<g id="a_node11"><a xlink:href="39.png">
<polygon fill="none" stroke="black" points="1637.57,-253 1507.57,-253 1507.57,-23 1637.57,-23 1637.57,-253"/>
<image xlink:href="39.png" width="130px" height="230px" preserveAspectRatio="xMinYMin meet" x="1507.57" y="-253"/>
</a>
</g>
</g>
<!-- state_36&#45;&gt;state_39 -->
<g id="edge43" class="edge"><title>state_36&#45;&gt;state_39</title>
<path fill="none" stroke="black" d="M1581.54,-312.619C1577.96,-303.828 1574.89,-294.897 1572.57,-286 1570.66,-278.703 1569.2,-271.132 1568.1,-263.448"/>
<polygon fill="black" stroke="black" points="1571.54,-262.793 1566.85,-253.293 1564.59,-263.645 1571.54,-262.793"/>
<text text-anchor="middle" x="1630.07" y="-274.8" font-family="Times New Roman,serif" font-size="14.00"> &#160;&#160;click(&quot;index=0&quot;) &#160;&#160;</text>
</g>
<!-- state_36&#45;&gt;state_17 -->
<g id="edge42" class="edge"><title>state_36&#45;&gt;state_17</title>
<path fill="none" stroke="black" d="M1581.5,-310.435C1578.62,-308.131 1575.65,-305.976 1572.57,-304 1526.45,-274.388 1504.49,-295.804 1450.57,-286 1229.89,-245.879 971.523,-186.477 846.672,-156.978"/>
<polygon fill="black" stroke="black" points="847.363,-153.545 836.826,-154.648 845.752,-160.357 847.363,-153.545"/>
<text text-anchor="middle" x="1508.07" y="-274.8" font-family="Times New Roman,serif" font-size="14.00"> &#160;&#160;click(&quot;index=0&quot;) &#160;&#160;</text>
</g>
<!-- state_36&#45;&gt;state_17 -->
<g id="edge44" class="edge"><title>state_36&#45;&gt;state_17</title>
<path fill="none" stroke="black" d="M1581.44,-309.853C1578.59,-307.737 1575.63,-305.777 1572.57,-304 1542.15,-286.344 1291.2,-292.144 1256.57,-286 1107.7,-259.586 940.144,-202.394 846.076,-167.647"/>
<polygon fill="black" stroke="black" points="847.241,-164.346 836.648,-164.149 844.806,-170.909 847.241,-164.346"/>
<text text-anchor="middle" x="1314.07" y="-274.8" font-family="Times New Roman,serif" font-size="14.00"> &#160;&#160;click(&quot;index=1&quot;) &#160;&#160;</text>
</g>
</g>
</svg>
