<?xml version="1.0" encoding="UTF-8" standalone="no"?>
<!DOCTYPE svg PUBLIC "-//W3C//DTD SVG 1.1//EN"
 "http://www.w3.org/Graphics/SVG/1.1/DTD/svg11.dtd">
<!-- Generated by graphviz version 2.38.0 (20140413.2041)
 -->
<!-- Title: activity_0 Pages: 1 -->
<svg width="1489pt" height="1081pt"
 viewBox="0.00 0.00 1488.73 1081.00" xmlns="http://www.w3.org/2000/svg" xmlns:xlink="http://www.w3.org/1999/xlink">
<g id="graph0" class="graph" transform="scale(1 1) rotate(0) translate(4 1077)">
<title>activity_0</title>
<polygon fill="white" stroke="none" points="-4,4 -4,-1077 1484.73,-1077 1484.73,4 -4,4"/>
<!-- state_0 -->
<g id="node1" class="node"><title>state_0</title>
<g id="a_node1"><a xlink:href="0.png" xlink:title="&lt;TABLE&gt;">
<polygon fill="none" stroke="black" points="220.726,-1073 90.7262,-1073 90.7262,-783 220.726,-783 220.726,-1073"/>
<text text-anchor="start" x="135.726" y="-1061.8" font-family="Times New Roman,serif" font-size="14.00">state_0</text>
<text text-anchor="start" x="125.226" y="-1046.8" font-family="Times New Roman,serif" font-size="14.00">incoming:7</text>
<text text-anchor="start" x="122.726" y="-1031.8" font-family="Times New Roman,serif" font-size="14.00">outgoing:10</text>
<text text-anchor="start" x="137.726" y="-1016.8" font-family="Times New Roman,serif" font-size="14.00">loop:6</text>
<image xlink:href="0.png" width="130px" height="230px" preserveAspectRatio="xMinYMin meet" x="90.7262" y="-1013"/>
</a>
</g>
</g>
<!-- state_0&#45;&gt;state_0 -->
<g id="edge1" class="edge"><title>state_0&#45;&gt;state_0</title>
<path fill="none" stroke="black" d="M220.798,-932.915C231.424,-932.212 238.726,-930.573 238.726,-928 238.726,-926.352 235.729,-925.087 230.782,-924.205"/>
<polygon fill="black" stroke="black" points="231.126,-920.722 220.798,-923.085 230.345,-927.679 231.126,-920.722"/>
<text text-anchor="middle" x="291.726" y="-924.3" font-family="Times New Roman,serif" font-size="14.00"> &#160;&#160;swipe(&quot;Right&quot;) &#160;&#160;</text>
</g>
<!-- state_0&#45;&gt;state_0 -->
<g id="edge2" class="edge"><title>state_0&#45;&gt;state_0</title>
<path fill="none" stroke="black" d="M220.839,-937.508C276.63,-940.549 344.726,-937.38 344.726,-928 344.726,-919.188 284.626,-915.857 231.091,-918.008"/>
<polygon fill="black" stroke="black" points="230.663,-914.524 220.839,-918.492 230.993,-921.516 230.663,-914.524"/>
<text text-anchor="middle" x="394.226" y="-924.3" font-family="Times New Roman,serif" font-size="14.00"> &#160;&#160;swipe(&quot;Left&quot;) &#160;&#160;</text>
</g>
<!-- state_0&#45;&gt;state_0 -->
<g id="edge3" class="edge"><title>state_0&#45;&gt;state_0</title>
<path fill="none" stroke="black" d="M220.869,-940.258C307.653,-947.816 443.726,-943.73 443.726,-928 443.726,-912.869 317.82,-908.512 230.989,-914.929"/>
<polygon fill="black" stroke="black" points="230.557,-911.452 220.869,-915.742 231.117,-918.43 230.557,-911.452"/>
<text text-anchor="middle" x="498.726" y="-924.3" font-family="Times New Roman,serif" font-size="14.00"> &#160;&#160;swipe(&quot;Down&quot;) &#160;&#160;</text>
</g>
<!-- state_0&#45;&gt;state_0 -->
<g id="edge6" class="edge"><title>state_0&#45;&gt;state_0</title>
<path fill="none" stroke="black" d="M221.09,-942.338C336.523,-955.026 553.726,-950.246 553.726,-928 553.726,-906.384 348.651,-901.259 231.135,-912.626"/>
<polygon fill="black" stroke="black" points="230.678,-909.154 221.09,-913.662 231.396,-916.117 230.678,-909.154"/>
<text text-anchor="middle" x="606.726" y="-924.3" font-family="Times New Roman,serif" font-size="14.00"> &#160;&#160;swipe(&quot;Right&quot;) &#160;&#160;</text>
</g>
<!-- state_0&#45;&gt;state_0 -->
<g id="edge7" class="edge"><title>state_0&#45;&gt;state_0</title>
<path fill="none" stroke="black" d="M220.921,-944.122C360.397,-962.184 659.726,-956.811 659.726,-928 659.726,-899.865 374.264,-894.08 230.985,-910.647"/>
<polygon fill="black" stroke="black" points="230.422,-907.19 220.921,-911.878 231.272,-914.138 230.422,-907.19"/>
<text text-anchor="middle" x="709.226" y="-924.3" font-family="Times New Roman,serif" font-size="14.00"> &#160;&#160;swipe(&quot;Left&quot;) &#160;&#160;</text>
</g>
<!-- state_0&#45;&gt;state_0 -->
<g id="edge8" class="edge"><title>state_0&#45;&gt;state_0</title>
<path fill="none" stroke="black" d="M220.884,-945.777C380.762,-969.308 758.726,-963.382 758.726,-928 758.726,-893.344 396.105,-886.948 230.99,-908.812"/>
<polygon fill="black" stroke="black" points="230.304,-905.374 220.884,-910.223 231.272,-912.307 230.304,-905.374"/>
<text text-anchor="middle" x="822.726" y="-924.3" font-family="Times New Roman,serif" font-size="14.00"> &#160;&#160;press(&quot;MenuKey&quot;) &#160;&#160;</text>
</g>
<!-- state_4 -->
<g id="node2" class="node"><title>state_4</title>
<g id="a_node2"><a xlink:href="4.png" xlink:title="&lt;TABLE&gt;">
<polygon fill="none" stroke="black" points="327.726,-732 197.726,-732 197.726,-442 327.726,-442 327.726,-732"/>
<text text-anchor="start" x="242.726" y="-720.8" font-family="Times New Roman,serif" font-size="14.00">state_4</text>
<text text-anchor="start" x="232.226" y="-705.8" font-family="Times New Roman,serif" font-size="14.00">incoming:7</text>
<text text-anchor="start" x="229.726" y="-690.8" font-family="Times New Roman,serif" font-size="14.00">outgoing:10</text>
<text text-anchor="start" x="244.726" y="-675.8" font-family="Times New Roman,serif" font-size="14.00">loop:6</text>
<image xlink:href="4.png" width="130px" height="230px" preserveAspectRatio="xMinYMin meet" x="197.726" y="-672"/>
</a>
</g>
</g>
<!-- state_0&#45;&gt;state_4 -->
<g id="edge4" class="edge"><title>state_0&#45;&gt;state_4</title>
<path fill="none" stroke="black" d="M149.604,-782.985C151.223,-771.706 153.536,-760.593 156.726,-750 164.418,-724.459 177.528,-699.185 191.957,-676.467"/>
<polygon fill="black" stroke="black" points="195.019,-678.18 197.544,-667.89 189.153,-674.36 195.019,-678.18"/>
<text text-anchor="middle" x="203.726" y="-753.8" font-family="Times New Roman,serif" font-size="14.00"> &#160;&#160;swipe(&quot;Up&quot;) &#160;&#160;</text>
</g>
<!-- state_9 -->
<g id="node3" class="node"><title>state_9</title>
<g id="a_node3"><a xlink:href="9.png" xlink:title="&lt;TABLE&gt;">
<polygon fill="none" stroke="black" points="667.726,-391 537.726,-391 537.726,-101 667.726,-101 667.726,-391"/>
<text text-anchor="start" x="582.726" y="-379.8" font-family="Times New Roman,serif" font-size="14.00">state_9</text>
<text text-anchor="start" x="572.226" y="-364.8" font-family="Times New Roman,serif" font-size="14.00">incoming:8</text>
<text text-anchor="start" x="573.226" y="-349.8" font-family="Times New Roman,serif" font-size="14.00">outgoing:7</text>
<text text-anchor="start" x="584.726" y="-334.8" font-family="Times New Roman,serif" font-size="14.00">loop:6</text>
<image xlink:href="9.png" width="130px" height="230px" preserveAspectRatio="xMinYMin meet" x="537.726" y="-331"/>
</a>
</g>
</g>
<!-- state_0&#45;&gt;state_9 -->
<g id="edge5" class="edge"><title>state_0&#45;&gt;state_9</title>
<path fill="none" stroke="black" d="M221.032,-923.46C412.889,-911.566 968.159,-865.96 1076.73,-732 1157.88,-631.867 1148.46,-549.081 1076.73,-442 987.157,-308.3 787.575,-266.185 678.122,-252.981"/>
<polygon fill="black" stroke="black" points="678.477,-249.499 668.141,-251.827 677.673,-256.453 678.477,-249.499"/>
<text text-anchor="middle" x="1181.73" y="-583.3" font-family="Times New Roman,serif" font-size="14.00"> &#160;&#160;click(&quot;接受&quot;) &#160;&#160;</text>
</g>
<!-- final -->
<g id="node4" class="node"><title>final</title>
<image xlink:href="-2.png" width="50px" height="50px" preserveAspectRatio="xMinYMin meet" x="237.726" y="-50"/>
</g>
<!-- state_0&#45;&gt;final -->
<g id="edge9" class="edge"><title>state_0&#45;&gt;final</title>
<path fill="none" stroke="red" d="M90.6923,-809.46C40.805,-705.78 -16.2542,-549.711 4.72622,-409 28.0928,-252.285 -4.96837,-178.359 108.726,-68 140.533,-37.126 192.714,-28.4366 227.392,-26.2622"/>
<polygon fill="red" stroke="red" points="227.727,-29.7503 237.55,-25.7792 227.395,-22.7582 227.727,-29.7503"/>
<text text-anchor="middle" x="52.7262" y="-412.8" font-family="Times New Roman,serif" font-size="14.00" fill="red"> &#160;&#160;click(&quot;拒绝&quot;) &#160;&#160;</text>
</g>
<!-- state_0&#45;&gt;final -->
<g id="edge10" class="edge"><title>state_0&#45;&gt;final</title>
<path fill="none" stroke="red" d="M133.938,-782.866C121.943,-678.41 113.219,-534.135 133.726,-409 155.636,-275.306 217.882,-125.404 247.153,-59.8006"/>
<polygon fill="red" stroke="red" points="250.481,-60.9333 251.39,-50.3775 244.097,-58.0625 250.481,-60.9333"/>
<text text-anchor="middle" x="196.226" y="-412.8" font-family="Times New Roman,serif" font-size="14.00" fill="red"> &#160;&#160;press(&quot;BackKey&quot;) &#160;&#160;</text>
</g>
<!-- state_4&#45;&gt;state_0 -->
<g id="edge13" class="edge"><title>state_4&#45;&gt;state_0</title>
<path fill="none" stroke="black" d="M258.608,-732.008C256.578,-743.288 253.993,-754.404 250.726,-765 244.632,-784.77 235.722,-804.691 225.767,-823.475"/>
<polygon fill="black" stroke="black" points="222.667,-821.851 220.966,-832.309 228.817,-825.194 222.667,-821.851"/>
<text text-anchor="middle" x="308.726" y="-753.8" font-family="Times New Roman,serif" font-size="14.00"> &#160;&#160;swipe(&quot;Down&quot;) &#160;&#160;</text>
</g>
<!-- state_4&#45;&gt;state_4 -->
<g id="edge11" class="edge"><title>state_4&#45;&gt;state_4</title>
<path fill="none" stroke="black" d="M327.798,-591.915C338.424,-591.212 345.726,-589.573 345.726,-587 345.726,-585.352 342.729,-584.087 337.782,-583.205"/>
<polygon fill="black" stroke="black" points="338.126,-579.722 327.798,-582.085 337.345,-586.679 338.126,-579.722"/>
<text text-anchor="middle" x="398.726" y="-583.3" font-family="Times New Roman,serif" font-size="14.00"> &#160;&#160;swipe(&quot;Right&quot;) &#160;&#160;</text>
</g>
<!-- state_4&#45;&gt;state_4 -->
<g id="edge12" class="edge"><title>state_4&#45;&gt;state_4</title>
<path fill="none" stroke="black" d="M327.839,-596.508C383.63,-599.549 451.726,-596.38 451.726,-587 451.726,-578.188 391.626,-574.857 338.091,-577.008"/>
<polygon fill="black" stroke="black" points="337.663,-573.524 327.839,-577.492 337.993,-580.516 337.663,-573.524"/>
<text text-anchor="middle" x="501.226" y="-583.3" font-family="Times New Roman,serif" font-size="14.00"> &#160;&#160;swipe(&quot;Left&quot;) &#160;&#160;</text>
</g>
<!-- state_4&#45;&gt;state_4 -->
<g id="edge14" class="edge"><title>state_4&#45;&gt;state_4</title>
<path fill="none" stroke="black" d="M327.869,-599.258C414.653,-606.816 550.726,-602.73 550.726,-587 550.726,-571.869 424.82,-567.512 337.989,-573.929"/>
<polygon fill="black" stroke="black" points="337.557,-570.452 327.869,-574.742 338.117,-577.43 337.557,-570.452"/>
<text text-anchor="middle" x="597.726" y="-583.3" font-family="Times New Roman,serif" font-size="14.00"> &#160;&#160;swipe(&quot;Up&quot;) &#160;&#160;</text>
</g>
<!-- state_4&#45;&gt;state_4 -->
<g id="edge16" class="edge"><title>state_4&#45;&gt;state_4</title>
<path fill="none" stroke="black" d="M327.858,-601.526C439.445,-613.978 644.726,-609.135 644.726,-587 644.726,-565.513 451.297,-560.321 337.9,-571.424"/>
<polygon fill="black" stroke="black" points="337.44,-567.953 327.858,-572.474 338.168,-574.915 337.44,-567.953"/>
<text text-anchor="middle" x="697.726" y="-583.3" font-family="Times New Roman,serif" font-size="14.00"> &#160;&#160;swipe(&quot;Right&quot;) &#160;&#160;</text>
</g>
<!-- state_4&#45;&gt;state_4 -->
<g id="edge17" class="edge"><title>state_4&#45;&gt;state_4</title>
<path fill="none" stroke="black" d="M327.929,-603.316C464.061,-621.145 750.726,-615.707 750.726,-587 750.726,-558.994 477.888,-553.134 338.162,-569.42"/>
<polygon fill="black" stroke="black" points="337.424,-565.984 327.929,-570.684 338.282,-572.932 337.424,-565.984"/>
<text text-anchor="middle" x="800.226" y="-583.3" font-family="Times New Roman,serif" font-size="14.00"> &#160;&#160;swipe(&quot;Left&quot;) &#160;&#160;</text>
</g>
<!-- state_4&#45;&gt;state_4 -->
<g id="edge18" class="edge"><title>state_4&#45;&gt;state_4</title>
<path fill="none" stroke="black" d="M327.791,-604.943C484.571,-628.28 849.726,-622.299 849.726,-587 849.726,-552.425 499.394,-545.978 337.694,-567.659"/>
<polygon fill="black" stroke="black" points="337.203,-564.193 327.791,-569.057 338.182,-571.124 337.203,-564.193"/>
<text text-anchor="middle" x="913.726" y="-583.3" font-family="Times New Roman,serif" font-size="14.00"> &#160;&#160;press(&quot;MenuKey&quot;) &#160;&#160;</text>
</g>
<!-- state_4&#45;&gt;state_9 -->
<g id="edge15" class="edge"><title>state_4&#45;&gt;state_9</title>
<path fill="none" stroke="black" d="M327.911,-548.424C384.819,-513.215 466.959,-456.32 523.726,-391 526.335,-387.999 528.893,-384.897 531.4,-381.715"/>
<polygon fill="black" stroke="black" points="534.263,-383.731 537.522,-373.65 528.688,-379.499 534.263,-383.731"/>
<text text-anchor="middle" x="553.726" y="-412.8" font-family="Times New Roman,serif" font-size="14.00"> &#160;&#160;click(&quot;接受&quot;) &#160;&#160;</text>
</g>
<!-- state_4&#45;&gt;final -->
<g id="edge19" class="edge"><title>state_4&#45;&gt;final</title>
<path fill="none" stroke="red" d="M262.726,-441.786C262.726,-313.292 262.726,-134.459 262.726,-60.3137"/>
<polygon fill="red" stroke="red" points="266.226,-60.1523 262.726,-50.1523 259.226,-60.1523 266.226,-60.1523"/>
<text text-anchor="middle" x="310.726" y="-242.3" font-family="Times New Roman,serif" font-size="14.00" fill="red"> &#160;&#160;click(&quot;拒绝&quot;) &#160;&#160;</text>
</g>
<!-- state_4&#45;&gt;final -->
<g id="edge20" class="edge"><title>state_4&#45;&gt;final</title>
<path fill="none" stroke="red" d="M327.852,-481.257C342.197,-452.986 355.314,-421.696 362.726,-391 392.978,-265.712 420.367,-216.282 362.726,-101 349.018,-73.5829 319.993,-53.5883 296.727,-41.172"/>
<polygon fill="red" stroke="red" points="298.315,-38.0527 287.816,-36.6285 295.135,-44.2889 298.315,-38.0527"/>
<text text-anchor="middle" x="458.226" y="-242.3" font-family="Times New Roman,serif" font-size="14.00" fill="red"> &#160;&#160;press(&quot;BackKey&quot;) &#160;&#160;</text>
</g>
<!-- state_9&#45;&gt;state_9 -->
<g id="edge21" class="edge"><title>state_9&#45;&gt;state_9</title>
<path fill="none" stroke="black" d="M667.798,-250.915C678.424,-250.212 685.726,-248.573 685.726,-246 685.726,-244.352 682.729,-243.087 677.782,-242.205"/>
<polygon fill="black" stroke="black" points="678.126,-238.722 667.798,-241.085 677.345,-245.679 678.126,-238.722"/>
<text text-anchor="middle" x="743.226" y="-242.3" font-family="Times New Roman,serif" font-size="14.00"> &#160;&#160;click(&quot;index=3&quot;) &#160;&#160;</text>
</g>
<!-- state_9&#45;&gt;state_9 -->
<g id="edge22" class="edge"><title>state_9&#45;&gt;state_9</title>
<path fill="none" stroke="black" d="M667.907,-255.384C726.759,-258.632 800.726,-255.504 800.726,-246 800.726,-237.034 734.901,-233.742 678.037,-236.126"/>
<polygon fill="black" stroke="black" points="677.726,-232.636 667.907,-236.616 678.065,-239.628 677.726,-232.636"/>
<text text-anchor="middle" x="858.226" y="-242.3" font-family="Times New Roman,serif" font-size="14.00"> &#160;&#160;click(&quot;index=0&quot;) &#160;&#160;</text>
</g>
<!-- state_9&#45;&gt;state_9 -->
<g id="edge23" class="edge"><title>state_9&#45;&gt;state_9</title>
<path fill="none" stroke="black" d="M668.001,-257.922C761.576,-265.932 915.726,-261.958 915.726,-246 915.726,-230.603 772.224,-226.362 678.086,-233.278"/>
<polygon fill="black" stroke="black" points="677.693,-229.798 668.001,-234.078 678.247,-236.776 677.693,-229.798"/>
<text text-anchor="middle" x="986.726" y="-242.3" font-family="Times New Roman,serif" font-size="14.00"> &#160;&#160;longClick(&quot;index=0&quot;) &#160;&#160;</text>
</g>
<!-- state_9&#45;&gt;state_9 -->
<g id="edge24" class="edge"><title>state_9&#45;&gt;state_9</title>
<path fill="none" stroke="black" d="M668.146,-259.66C796.52,-273.187 1057.73,-268.633 1057.73,-246 1057.73,-223.941 809.616,-219.056 678.175,-231.345"/>
<polygon fill="black" stroke="black" points="677.752,-227.87 668.146,-232.34 678.443,-234.835 677.752,-227.87"/>
<text text-anchor="middle" x="1110.73" y="-242.3" font-family="Times New Roman,serif" font-size="14.00"> &#160;&#160;swipe(&quot;Right&quot;) &#160;&#160;</text>
</g>
<!-- state_9&#45;&gt;state_9 -->
<g id="edge25" class="edge"><title>state_9&#45;&gt;state_9</title>
<path fill="none" stroke="black" d="M667.949,-261.494C818.946,-280.304 1163.73,-275.139 1163.73,-246 1163.73,-217.487 833.602,-211.929 677.944,-229.326"/>
<polygon fill="black" stroke="black" points="677.47,-225.858 667.949,-230.506 678.29,-232.81 677.47,-225.858"/>
<text text-anchor="middle" x="1213.23" y="-242.3" font-family="Times New Roman,serif" font-size="14.00"> &#160;&#160;swipe(&quot;Left&quot;) &#160;&#160;</text>
</g>
<!-- state_9&#45;&gt;state_9 -->
<g id="edge26" class="edge"><title>state_9&#45;&gt;state_9</title>
<path fill="none" stroke="black" d="M667.931,-263.192C838.372,-287.403 1262.73,-281.673 1262.73,-246 1262.73,-211.007 854.38,-204.826 677.939,-227.458"/>
<polygon fill="black" stroke="black" points="677.373,-224.002 667.931,-228.808 678.309,-230.939 677.373,-224.002"/>
<text text-anchor="middle" x="1326.73" y="-242.3" font-family="Times New Roman,serif" font-size="14.00"> &#160;&#160;press(&quot;MenuKey&quot;) &#160;&#160;</text>
</g>
<!-- state_9&#45;&gt;final -->
<g id="edge27" class="edge"><title>state_9&#45;&gt;final</title>
<path fill="none" stroke="red" d="M537.658,-113.827C533.267,-109.225 528.626,-104.917 523.726,-101 456.406,-47.1798 352.136,-31.9802 298.019,-27.6883"/>
<polygon fill="red" stroke="red" points="298.113,-24.1862 287.89,-26.9671 297.616,-31.1685 298.113,-24.1862"/>
<text text-anchor="middle" x="555.226" y="-71.8" font-family="Times New Roman,serif" font-size="14.00" fill="red"> &#160;&#160;press(&quot;BackKey&quot;) &#160;&#160;</text>
</g>
</g>
</svg>
