<?xml version="1.0" encoding="UTF-8" standalone="no"?>
<!DOCTYPE svg PUBLIC "-//W3C//DTD SVG 1.1//EN"
 "http://www.w3.org/Graphics/SVG/1.1/DTD/svg11.dtd">
<!-- Generated by graphviz version 2.38.0 (20140413.2041)
 -->
<!-- Title: result Pages: 1 -->
<svg width="513pt" height="283pt"
 viewBox="0.00 0.00 513.00 283.00" xmlns="http://www.w3.org/2000/svg" xmlns:xlink="http://www.w3.org/1999/xlink">
<g id="graph0" class="graph" transform="scale(1 1) rotate(0) translate(4 279)">
<title>result</title>
<polygon fill="white" stroke="none" points="-4,4 -4,-279 509,-279 509,4 -4,4"/>
<!-- initial -->
<g id="node1" class="node"><title>initial</title>
<image xlink:href="-1.png" width="50px" height="50px" preserveAspectRatio="xMinYMin meet" x="0" y="-162.5"/>
</g>
<!-- activity_0 -->
<g id="node2" class="node"><title>activity_0</title>
<g id="a_node2"><a xlink:href="activity_0.svg" xlink:title="&lt;TABLE&gt;">
<polygon fill="none" stroke="black" points="217,-275 87,-275 87,-0 217,-0 217,-275"/>
<text text-anchor="start" x="124.5" y="-263.3" font-family="Times New Roman,serif" font-size="14.00">activity_0</text>
<text text-anchor="start" x="121.5" y="-248.3" font-family="Times New Roman,serif" font-size="14.00">incoming:0</text>
<text text-anchor="start" x="122.5" y="-233.3" font-family="Times New Roman,serif" font-size="14.00">outgoing:5</text>
<image xlink:href="0.png" width="130px" height="230px" preserveAspectRatio="xMinYMin meet" x="87" y="-229.5"/>
</a>
</g>
</g>
<!-- initial&#45;&gt;activity_0 -->
<g id="edge1" class="edge"><title>initial&#45;&gt;activity_0</title>
<path fill="none" stroke="black" d="M50.1013,-137.5C57.9994,-137.5 67.2332,-137.5 76.8484,-137.5"/>
<polygon fill="black" stroke="black" points="76.9667,-141 86.9666,-137.5 76.9666,-134 76.9667,-141"/>
</g>
<!-- final -->
<g id="node3" class="node"><title>final</title>
<image xlink:href="-2.png" width="50px" height="50px" preserveAspectRatio="xMinYMin meet" x="455" y="-162.5"/>
</g>
<!-- activity_0&#45;&gt;final -->
<g id="edge2" class="edge"><title>activity_0&#45;&gt;final</title>
<path fill="none" stroke="black" d="M217.092,-184.467C222.951,-187.274 228.959,-189.689 235,-191.5 320.999,-217.273 356.351,-230.944 437,-191.5 446.362,-186.921 454.241,-179.137 460.553,-170.882"/>
<polygon fill="black" stroke="black" points="463.497,-172.779 466.34,-162.572 457.753,-168.778 463.497,-172.779"/>
<text text-anchor="middle" x="336" y="-219.3" font-family="Times New Roman,serif" font-size="14.00"> &#160;&#160;&lt;a0.s0,click(&quot;拒绝&quot;),final&gt; &#160;&#160;</text>
</g>
<!-- activity_0&#45;&gt;final -->
<g id="edge3" class="edge"><title>activity_0&#45;&gt;final</title>
<path fill="none" stroke="black" d="M217.286,-151.258C223.253,-152.168 229.225,-152.942 235,-153.5 324.361,-162.137 348.705,-169.749 437,-153.5 439.643,-153.014 442.334,-152.369 445.014,-151.616"/>
<polygon fill="black" stroke="black" points="446.129,-154.935 454.557,-148.515 443.965,-148.277 446.129,-154.935"/>
<text text-anchor="middle" x="336" y="-166.3" font-family="Times New Roman,serif" font-size="14.00"> &#160;&#160;&lt;a0.s0,press(&quot;BackKey&quot;),final&gt; &#160;&#160;</text>
</g>
<!-- activity_0&#45;&gt;final -->
<g id="edge4" class="edge"><title>activity_0&#45;&gt;final</title>
<path fill="none" stroke="black" d="M217.007,-134.932C223.088,-134.756 229.16,-134.607 235,-134.5 324.763,-132.859 347.279,-131.3 437,-134.5 439.404,-134.586 441.884,-134.699 444.381,-134.831"/>
<polygon fill="black" stroke="black" points="444.389,-138.338 454.586,-135.461 444.82,-131.352 444.389,-138.338"/>
<text text-anchor="middle" x="336" y="-138.3" font-family="Times New Roman,serif" font-size="14.00"> &#160;&#160;&lt;a0.s4,click(&quot;拒绝&quot;),final&gt; &#160;&#160;</text>
</g>
<!-- activity_0&#45;&gt;final -->
<g id="edge5" class="edge"><title>activity_0&#45;&gt;final</title>
<path fill="none" stroke="black" d="M217.076,-116.873C223.087,-115.507 229.127,-114.342 235,-113.5 323.87,-100.762 350.23,-90.4569 437,-113.5 439.816,-114.248 442.639,-115.233 445.417,-116.379"/>
<polygon fill="black" stroke="black" points="444.076,-119.617 454.607,-120.775 447.097,-113.302 444.076,-119.617"/>
<text text-anchor="middle" x="336" y="-117.3" font-family="Times New Roman,serif" font-size="14.00"> &#160;&#160;&lt;a0.s4,press(&quot;BackKey&quot;),final&gt; &#160;&#160;</text>
</g>
<!-- activity_0&#45;&gt;final -->
<g id="edge6" class="edge"><title>activity_0&#45;&gt;final</title>
<path fill="none" stroke="black" d="M217.396,-87.7004C223.142,-84.8356 229.044,-82.3667 235,-80.5 320.669,-53.6498 356.871,-40.0103 437,-80.5 447.164,-85.6357 455.471,-94.5189 461.936,-103.765"/>
<polygon fill="black" stroke="black" points="459.026,-105.711 467.354,-112.261 464.928,-101.947 459.026,-105.711"/>
<text text-anchor="middle" x="336" y="-84.3" font-family="Times New Roman,serif" font-size="14.00"> &#160;&#160;&lt;a0.s9,press(&quot;BackKey&quot;),final&gt; &#160;&#160;</text>
</g>
</g>
</svg>
