<?xml version="1.0" encoding="UTF-8" standalone="no"?>
<!DOCTYPE svg PUBLIC "-//W3C//DTD SVG 1.1//EN"
 "http://www.w3.org/Graphics/SVG/1.1/DTD/svg11.dtd">
<!-- Generated by graphviz version 2.38.0 (20140413.2041)
 -->
<!-- Title: g Pages: 1 -->
<svg width="1489pt" height="1104pt"
 viewBox="0.00 0.00 1488.78 1104.00" xmlns="http://www.w3.org/2000/svg" xmlns:xlink="http://www.w3.org/1999/xlink">
<g id="graph0" class="graph" transform="scale(1 1) rotate(0) translate(4 1100)">
<title>g</title>
<polygon fill="white" stroke="none" points="-4,4 -4,-1100 1484.78,-1100 1484.78,4 -4,4"/>
<text text-anchor="middle" x="740.388" y="-7.8" font-family="Times New Roman,serif" font-size="14.00"> &#160;&#160;activity_1 &#160;&#160;</text>
<!-- state_0 -->
<g id="node1" class="node"><title>state_0</title>
<g id="a_node1"><a xlink:href="0.png">
<polygon fill="none" stroke="black" points="220.776,-1096 90.7755,-1096 90.7755,-866 220.776,-866 220.776,-1096"/>
<image xlink:href="0.png" width="130px" height="230px" preserveAspectRatio="xMinYMin meet" x="90.7755" y="-1096"/>
</a>
</g>
</g>
<!-- state_0&#45;&gt;state_0 -->
<g id="edge1" class="edge"><title>state_0&#45;&gt;state_0</title>
<path fill="none" stroke="black" d="M220.847,-985.048C231.473,-984.468 238.776,-983.119 238.776,-981 238.776,-979.642 235.779,-978.601 230.831,-977.875"/>
<polygon fill="black" stroke="black" points="231.127,-974.388 220.847,-976.952 230.483,-981.358 231.127,-974.388"/>
<text text-anchor="middle" x="291.776" y="-977.3" font-family="Times New Roman,serif" font-size="14.00"> &#160;&#160;swipe(&quot;Right&quot;) &#160;&#160;</text>
</g>
<!-- state_0&#45;&gt;state_0 -->
<g id="edge2" class="edge"><title>state_0&#45;&gt;state_0</title>
<path fill="none" stroke="black" d="M220.889,-988.83C276.679,-991.335 344.776,-988.725 344.776,-981 344.776,-973.743 284.676,-971 231.14,-972.771"/>
<polygon fill="black" stroke="black" points="230.745,-969.284 220.889,-973.17 231.017,-976.278 230.745,-969.284"/>
<text text-anchor="middle" x="394.276" y="-977.3" font-family="Times New Roman,serif" font-size="14.00"> &#160;&#160;swipe(&quot;Left&quot;) &#160;&#160;</text>
</g>
<!-- state_0&#45;&gt;state_0 -->
<g id="edge3" class="edge"><title>state_0&#45;&gt;state_0</title>
<path fill="none" stroke="black" d="M220.918,-991.095C307.702,-997.319 443.776,-993.954 443.776,-981 443.776,-968.539 317.87,-964.951 231.038,-970.235"/>
<polygon fill="black" stroke="black" points="230.666,-966.752 220.918,-970.905 231.128,-973.737 230.666,-966.752"/>
<text text-anchor="middle" x="498.776" y="-977.3" font-family="Times New Roman,serif" font-size="14.00"> &#160;&#160;swipe(&quot;Down&quot;) &#160;&#160;</text>
</g>
<!-- state_0&#45;&gt;state_0 -->
<g id="edge6" class="edge"><title>state_0&#45;&gt;state_0</title>
<path fill="none" stroke="black" d="M221.139,-992.808C336.572,-1003.26 553.776,-999.32 553.776,-981 553.776,-963.199 348.701,-958.978 231.184,-968.339"/>
<polygon fill="black" stroke="black" points="230.807,-964.858 221.139,-969.192 231.4,-971.833 230.807,-964.858"/>
<text text-anchor="middle" x="606.776" y="-977.3" font-family="Times New Roman,serif" font-size="14.00"> &#160;&#160;swipe(&quot;Right&quot;) &#160;&#160;</text>
</g>
<!-- state_0&#45;&gt;state_0 -->
<g id="edge7" class="edge"><title>state_0&#45;&gt;state_0</title>
<path fill="none" stroke="black" d="M220.97,-994.277C360.447,-1009.15 659.776,-1004.73 659.776,-981 659.776,-957.83 374.313,-953.066 231.034,-966.709"/>
<polygon fill="black" stroke="black" points="230.569,-963.238 220.97,-967.723 231.271,-970.203 230.569,-963.238"/>
<text text-anchor="middle" x="709.276" y="-977.3" font-family="Times New Roman,serif" font-size="14.00"> &#160;&#160;swipe(&quot;Left&quot;) &#160;&#160;</text>
</g>
<!-- state_0&#45;&gt;state_0 -->
<g id="edge8" class="edge"><title>state_0&#45;&gt;state_0</title>
<path fill="none" stroke="black" d="M220.934,-995.64C380.811,-1015.02 758.776,-1010.14 758.776,-981 758.776,-952.459 396.155,-947.192 231.04,-965.198"/>
<polygon fill="black" stroke="black" points="230.468,-961.741 220.934,-966.36 231.268,-968.695 230.468,-961.741"/>
<text text-anchor="middle" x="822.776" y="-977.3" font-family="Times New Roman,serif" font-size="14.00"> &#160;&#160;press(&quot;MenuKey&quot;) &#160;&#160;</text>
</g>
<!-- state_4 -->
<g id="node2" class="node"><title>state_4</title>
<g id="a_node2"><a xlink:href="4.png">
<polygon fill="none" stroke="black" points="327.776,-815 197.776,-815 197.776,-585 327.776,-585 327.776,-815"/>
<image xlink:href="4.png" width="130px" height="230px" preserveAspectRatio="xMinYMin meet" x="197.776" y="-815"/>
</a>
</g>
</g>
<!-- state_0&#45;&gt;state_4 -->
<g id="edge4" class="edge"><title>state_0&#45;&gt;state_4</title>
<path fill="none" stroke="black" d="M149.009,-865.913C150.571,-854.61 153.055,-843.46 156.776,-833 164.419,-811.507 177.171,-790.914 191.232,-772.65"/>
<polygon fill="black" stroke="black" points="194.286,-774.433 197.77,-764.428 188.807,-770.076 194.286,-774.433"/>
<text text-anchor="middle" x="203.776" y="-836.8" font-family="Times New Roman,serif" font-size="14.00"> &#160;&#160;swipe(&quot;Up&quot;) &#160;&#160;</text>
</g>
<!-- state_9 -->
<g id="node3" class="node"><title>state_9</title>
<g id="a_node3"><a xlink:href="9.png">
<polygon fill="none" stroke="black" points="667.776,-534 537.776,-534 537.776,-304 667.776,-304 667.776,-534"/>
<image xlink:href="9.png" width="130px" height="230px" preserveAspectRatio="xMinYMin meet" x="537.776" y="-534"/>
</a>
</g>
</g>
<!-- state_0&#45;&gt;state_9 -->
<g id="edge5" class="edge"><title>state_0&#45;&gt;state_9</title>
<path fill="none" stroke="black" d="M220.95,-978.681C412.442,-973.297 966.797,-946.432 1076.78,-815 1142.38,-736.603 1136,-668.321 1076.78,-585 985.572,-456.681 787.011,-427.301 678.055,-421.12"/>
<polygon fill="black" stroke="black" points="677.964,-417.611 667.797,-420.592 677.604,-424.602 677.964,-417.611"/>
<text text-anchor="middle" x="1170.78" y="-696.3" font-family="Times New Roman,serif" font-size="14.00"> &#160;&#160;click(&quot;接受&quot;) &#160;&#160;</text>
</g>
<!-- state_final -->
<g id="node4" class="node"><title>state_final</title>
<g id="a_node4"><a xlink:href="-2.png">
<polygon fill="none" stroke="black" points="327.776,-253 197.776,-253 197.776,-23 327.776,-23 327.776,-253"/>
<image xlink:href="-2.png" width="76px" height="74px" preserveAspectRatio="xMinYMin meet" x="224.776" y="-175"/>
</a>
</g>
</g>
<!-- state_0&#45;&gt;state_final -->
<g id="edge9" class="edge"><title>state_0&#45;&gt;state_final</title>
<path fill="none" stroke="black" d="M90.5595,-883.432C40.664,-798.25 -16.306,-669.697 4.77551,-552 28.2544,-420.918 32.6711,-380.279 108.776,-271 130.481,-239.832 161.234,-211.496 189.557,-189.138"/>
<polygon fill="black" stroke="black" points="191.72,-191.891 197.472,-182.993 187.427,-186.361 191.72,-191.891"/>
<text text-anchor="middle" x="52.7755" y="-555.8" font-family="Times New Roman,serif" font-size="14.00"> &#160;&#160;click(&quot;拒绝&quot;) &#160;&#160;</text>
</g>
<!-- state_0&#45;&gt;state_final -->
<g id="edge10" class="edge"><title>state_0&#45;&gt;state_final</title>
<path fill="none" stroke="black" d="M137.436,-865.831C126.537,-779.25 117.675,-657.548 133.776,-552 148.96,-452.456 183.613,-343.919 213.183,-263.102"/>
<polygon fill="black" stroke="black" points="216.589,-263.979 216.762,-253.386 210.021,-261.56 216.589,-263.979"/>
<text text-anchor="middle" x="196.276" y="-555.8" font-family="Times New Roman,serif" font-size="14.00"> &#160;&#160;press(&quot;BackKey&quot;) &#160;&#160;</text>
</g>
<!-- state_4&#45;&gt;state_0 -->
<g id="edge13" class="edge"><title>state_4&#45;&gt;state_0</title>
<path fill="none" stroke="black" d="M259.649,-815.102C257.509,-826.402 254.622,-837.547 250.776,-848 244.784,-864.28 236.196,-880.349 226.604,-895.371"/>
<polygon fill="black" stroke="black" points="223.438,-893.814 220.852,-904.088 229.281,-897.669 223.438,-893.814"/>
<text text-anchor="middle" x="308.776" y="-836.8" font-family="Times New Roman,serif" font-size="14.00"> &#160;&#160;swipe(&quot;Down&quot;) &#160;&#160;</text>
</g>
<!-- state_4&#45;&gt;state_4 -->
<g id="edge11" class="edge"><title>state_4&#45;&gt;state_4</title>
<path fill="none" stroke="black" d="M327.847,-704.048C338.473,-703.468 345.776,-702.119 345.776,-700 345.776,-698.642 342.779,-697.601 337.831,-696.875"/>
<polygon fill="black" stroke="black" points="338.127,-693.388 327.847,-695.952 337.483,-700.358 338.127,-693.388"/>
<text text-anchor="middle" x="398.776" y="-696.3" font-family="Times New Roman,serif" font-size="14.00"> &#160;&#160;swipe(&quot;Right&quot;) &#160;&#160;</text>
</g>
<!-- state_4&#45;&gt;state_4 -->
<g id="edge12" class="edge"><title>state_4&#45;&gt;state_4</title>
<path fill="none" stroke="black" d="M327.889,-707.83C383.679,-710.335 451.776,-707.725 451.776,-700 451.776,-692.743 391.676,-690 338.14,-691.771"/>
<polygon fill="black" stroke="black" points="337.745,-688.284 327.889,-692.17 338.017,-695.278 337.745,-688.284"/>
<text text-anchor="middle" x="501.276" y="-696.3" font-family="Times New Roman,serif" font-size="14.00"> &#160;&#160;swipe(&quot;Left&quot;) &#160;&#160;</text>
</g>
<!-- state_4&#45;&gt;state_4 -->
<g id="edge14" class="edge"><title>state_4&#45;&gt;state_4</title>
<path fill="none" stroke="black" d="M327.918,-710.095C414.702,-716.319 550.776,-712.954 550.776,-700 550.776,-687.539 424.87,-683.951 338.038,-689.235"/>
<polygon fill="black" stroke="black" points="337.666,-685.752 327.918,-689.905 338.128,-692.737 337.666,-685.752"/>
<text text-anchor="middle" x="597.776" y="-696.3" font-family="Times New Roman,serif" font-size="14.00"> &#160;&#160;swipe(&quot;Up&quot;) &#160;&#160;</text>
</g>
<!-- state_4&#45;&gt;state_4 -->
<g id="edge16" class="edge"><title>state_4&#45;&gt;state_4</title>
<path fill="none" stroke="black" d="M327.908,-711.963C439.494,-722.217 644.776,-718.229 644.776,-700 644.776,-682.305 451.346,-678.029 337.949,-687.173"/>
<polygon fill="black" stroke="black" points="337.571,-683.692 327.908,-688.037 338.171,-690.666 337.571,-683.692"/>
<text text-anchor="middle" x="697.776" y="-696.3" font-family="Times New Roman,serif" font-size="14.00"> &#160;&#160;swipe(&quot;Right&quot;) &#160;&#160;</text>
</g>
<!-- state_4&#45;&gt;state_4 -->
<g id="edge17" class="edge"><title>state_4&#45;&gt;state_4</title>
<path fill="none" stroke="black" d="M327.978,-713.437C464.111,-728.12 750.776,-723.641 750.776,-700 750.776,-676.936 477.937,-672.11 338.211,-685.522"/>
<polygon fill="black" stroke="black" points="337.572,-682.069 327.978,-686.563 338.281,-689.033 337.572,-682.069"/>
<text text-anchor="middle" x="800.276" y="-696.3" font-family="Times New Roman,serif" font-size="14.00"> &#160;&#160;swipe(&quot;Left&quot;) &#160;&#160;</text>
</g>
<!-- state_4&#45;&gt;state_4 -->
<g id="edge18" class="edge"><title>state_4&#45;&gt;state_4</title>
<path fill="none" stroke="black" d="M327.84,-714.776C484.62,-733.995 849.776,-729.07 849.776,-700 849.776,-671.555 500.142,-666.228 338.228,-684.018"/>
<polygon fill="black" stroke="black" points="337.37,-680.594 327.84,-685.224 338.177,-687.548 337.37,-680.594"/>
<text text-anchor="middle" x="913.776" y="-696.3" font-family="Times New Roman,serif" font-size="14.00"> &#160;&#160;press(&quot;MenuKey&quot;) &#160;&#160;</text>
</g>
<!-- state_4&#45;&gt;state_9 -->
<g id="edge15" class="edge"><title>state_4&#45;&gt;state_9</title>
<path fill="none" stroke="black" d="M327.879,-667.35C383.97,-637.984 464.953,-590.388 523.776,-534 526.166,-531.709 528.527,-529.335 530.856,-526.894"/>
<polygon fill="black" stroke="black" points="533.562,-529.12 537.74,-519.384 528.402,-524.39 533.562,-529.12"/>
<text text-anchor="middle" x="546.776" y="-555.8" font-family="Times New Roman,serif" font-size="14.00"> &#160;&#160;click(&quot;接受&quot;) &#160;&#160;</text>
</g>
<!-- state_4&#45;&gt;state_final -->
<g id="edge19" class="edge"><title>state_4&#45;&gt;state_final</title>
<path fill="none" stroke="black" d="M262.776,-584.663C262.776,-491.202 262.776,-359.29 262.776,-263.24"/>
<polygon fill="black" stroke="black" points="266.276,-263.181 262.776,-253.181 259.276,-263.181 266.276,-263.181"/>
<text text-anchor="middle" x="310.776" y="-415.3" font-family="Times New Roman,serif" font-size="14.00"> &#160;&#160;click(&quot;拒绝&quot;) &#160;&#160;</text>
</g>
<!-- state_4&#45;&gt;state_final -->
<g id="edge20" class="edge"><title>state_4&#45;&gt;state_final</title>
<path fill="none" stroke="black" d="M327.807,-611.471C342.153,-587.534 355.295,-560.776 362.776,-534 390.281,-435.548 390.281,-402.452 362.776,-304 356.201,-280.466 345.253,-256.946 332.958,-235.344"/>
<polygon fill="black" stroke="black" points="335.874,-233.397 327.807,-226.529 329.831,-236.929 335.874,-233.397"/>
<text text-anchor="middle" x="445.276" y="-415.3" font-family="Times New Roman,serif" font-size="14.00"> &#160;&#160;press(&quot;BackKey&quot;) &#160;&#160;</text>
</g>
<!-- state_9&#45;&gt;state_9 -->
<g id="edge21" class="edge"><title>state_9&#45;&gt;state_9</title>
<path fill="none" stroke="black" d="M667.847,-423.048C678.473,-422.468 685.776,-421.119 685.776,-419 685.776,-417.642 682.779,-416.601 677.831,-415.875"/>
<polygon fill="black" stroke="black" points="678.127,-412.388 667.847,-414.952 677.483,-419.358 678.127,-412.388"/>
<text text-anchor="middle" x="743.276" y="-415.3" font-family="Times New Roman,serif" font-size="14.00"> &#160;&#160;click(&quot;index=3&quot;) &#160;&#160;</text>
</g>
<!-- state_9&#45;&gt;state_9 -->
<g id="edge22" class="edge"><title>state_9&#45;&gt;state_9</title>
<path fill="none" stroke="black" d="M667.956,-426.728C726.808,-429.403 800.776,-426.827 800.776,-419 800.776,-411.616 734.95,-408.906 678.086,-410.868"/>
<polygon fill="black" stroke="black" points="677.809,-407.376 667.956,-411.272 678.088,-414.371 677.809,-407.376"/>
<text text-anchor="middle" x="858.276" y="-415.3" font-family="Times New Roman,serif" font-size="14.00"> &#160;&#160;click(&quot;index=0&quot;) &#160;&#160;</text>
</g>
<!-- state_9&#45;&gt;state_9 -->
<g id="edge23" class="edge"><title>state_9&#45;&gt;state_9</title>
<path fill="none" stroke="black" d="M668.051,-428.818C761.625,-435.415 915.776,-432.142 915.776,-419 915.776,-406.32 772.273,-402.828 678.135,-408.523"/>
<polygon fill="black" stroke="black" points="677.801,-405.037 668.051,-409.182 678.258,-412.022 677.801,-405.037"/>
<text text-anchor="middle" x="986.776" y="-415.3" font-family="Times New Roman,serif" font-size="14.00"> &#160;&#160;longClick(&quot;index=0&quot;) &#160;&#160;</text>
</g>
<!-- state_9&#45;&gt;state_9 -->
<g id="edge24" class="edge"><title>state_9&#45;&gt;state_9</title>
<path fill="none" stroke="black" d="M668.196,-430.249C796.569,-441.389 1057.78,-437.639 1057.78,-419 1057.78,-400.834 809.665,-396.811 678.225,-406.931"/>
<polygon fill="black" stroke="black" points="677.877,-403.448 668.196,-407.751 678.448,-410.424 677.877,-403.448"/>
<text text-anchor="middle" x="1110.78" y="-415.3" font-family="Times New Roman,serif" font-size="14.00"> &#160;&#160;swipe(&quot;Right&quot;) &#160;&#160;</text>
</g>
<!-- state_9&#45;&gt;state_9 -->
<g id="edge25" class="edge"><title>state_9&#45;&gt;state_9</title>
<path fill="none" stroke="black" d="M667.998,-431.76C818.996,-447.25 1163.78,-442.997 1163.78,-419 1163.78,-395.519 833.651,-390.942 677.994,-405.269"/>
<polygon fill="black" stroke="black" points="677.613,-401.789 667.998,-406.24 678.29,-408.756 677.613,-401.789"/>
<text text-anchor="middle" x="1213.28" y="-415.3" font-family="Times New Roman,serif" font-size="14.00"> &#160;&#160;swipe(&quot;Left&quot;) &#160;&#160;</text>
</g>
<!-- state_9&#45;&gt;state_9 -->
<g id="edge26" class="edge"><title>state_9&#45;&gt;state_9</title>
<path fill="none" stroke="black" d="M667.98,-433.158C838.421,-453.097 1262.78,-448.377 1262.78,-419 1262.78,-390.182 854.429,-385.092 677.989,-403.73"/>
<polygon fill="black" stroke="black" points="677.532,-400.259 667.98,-404.842 678.305,-407.216 677.532,-400.259"/>
<text text-anchor="middle" x="1326.78" y="-415.3" font-family="Times New Roman,serif" font-size="14.00"> &#160;&#160;press(&quot;MenuKey&quot;) &#160;&#160;</text>
</g>
<!-- state_9&#45;&gt;state_final -->
<g id="edge27" class="edge"><title>state_9&#45;&gt;state_final</title>
<path fill="none" stroke="black" d="M537.74,-318.616C533.221,-313.496 528.556,-308.582 523.776,-304 468.055,-250.586 392.449,-205.06 336.953,-175.447"/>
<polygon fill="black" stroke="black" points="338.355,-172.229 327.879,-170.65 335.084,-178.418 338.355,-172.229"/>
<text text-anchor="middle" x="561.276" y="-274.8" font-family="Times New Roman,serif" font-size="14.00"> &#160;&#160;press(&quot;BackKey&quot;) &#160;&#160;</text>
</g>
</g>
</svg>
