<?xml version="1.0" encoding="UTF-8" standalone="no"?>
<!DOCTYPE svg PUBLIC "-//W3C//DTD SVG 1.1//EN"
 "http://www.w3.org/Graphics/SVG/1.1/DTD/svg11.dtd">
<!-- Generated by graphviz version 2.38.0 (20140413.2041)
 -->
<!-- Title: activity_0 Pages: 1 -->
<svg width="2704pt" height="1749pt"
 viewBox="0.00 0.00 2704.00 1749.00" xmlns="http://www.w3.org/2000/svg" xmlns:xlink="http://www.w3.org/1999/xlink">
<g id="graph0" class="graph" transform="scale(1 1) rotate(0) translate(4 1745)">
<title>activity_0</title>
<polygon fill="white" stroke="none" points="-4,4 -4,-1745 2700,-1745 2700,4 -4,4"/>
<!-- state_0 -->
<g id="node1" class="node"><title>state_0</title>
<g id="a_node1"><a xlink:href="0.png" xlink:title="&lt;TABLE&gt;">
<polygon fill="none" stroke="black" points="1348,-1741 1218,-1741 1218,-1451 1348,-1451 1348,-1741"/>
<text text-anchor="start" x="1263" y="-1729.8" font-family="Times New Roman,serif" font-size="14.00">state_0</text>
<text text-anchor="start" x="1252.5" y="-1714.8" font-family="Times New Roman,serif" font-size="14.00">incoming:9</text>
<text text-anchor="start" x="1253.5" y="-1699.8" font-family="Times New Roman,serif" font-size="14.00">outgoing:6</text>
<text text-anchor="start" x="1265" y="-1684.8" font-family="Times New Roman,serif" font-size="14.00">loop:3</text>
<image xlink:href="0.png" width="130px" height="230px" preserveAspectRatio="xMinYMin meet" x="1218" y="-1681"/>
</a>
</g>
</g>
<!-- state_0&#45;&gt;state_0 -->
<g id="edge1" class="edge"><title>state_0&#45;&gt;state_0</title>
<path fill="none" stroke="black" d="M1348.07,-1605.83C1358.7,-1604.42 1366,-1601.15 1366,-1596 1366,-1592.7 1363,-1590.17 1358.06,-1588.41"/>
<polygon fill="black" stroke="black" points="1358.6,-1584.95 1348.07,-1586.17 1357.06,-1591.78 1358.6,-1584.95"/>
<text text-anchor="middle" x="1437" y="-1592.3" font-family="Times New Roman,serif" font-size="14.00"> &#160;&#160;longClick(&quot;index=1&quot;) &#160;&#160;</text>
</g>
<!-- state_0&#45;&gt;state_0 -->
<g id="edge2" class="edge"><title>state_0&#45;&gt;state_0</title>
<path fill="none" stroke="black" d="M1348.1,-1614.04C1415.76,-1621.69 1508,-1615.67 1508,-1596 1508,-1577.29 1424.55,-1570.93 1358.17,-1576.94"/>
<polygon fill="black" stroke="black" points="1357.69,-1573.47 1348.1,-1577.96 1358.4,-1580.43 1357.69,-1573.47"/>
<text text-anchor="middle" x="1561" y="-1592.3" font-family="Times New Roman,serif" font-size="14.00"> &#160;&#160;swipe(&quot;Right&quot;) &#160;&#160;</text>
</g>
<!-- state_0&#45;&gt;state_0 -->
<g id="edge3" class="edge"><title>state_0&#45;&gt;state_0</title>
<path fill="none" stroke="black" d="M1348.01,-1619.34C1446.26,-1636.03 1614,-1628.25 1614,-1596 1614,-1564.82 1457.22,-1556.52 1358.02,-1571.08"/>
<polygon fill="black" stroke="black" points="1357.34,-1567.65 1348.01,-1572.66 1358.44,-1574.56 1357.34,-1567.65"/>
<text text-anchor="middle" x="1663.5" y="-1592.3" font-family="Times New Roman,serif" font-size="14.00"> &#160;&#160;swipe(&quot;Left&quot;) &#160;&#160;</text>
</g>
<!-- state_6 -->
<g id="node2" class="node"><title>state_6</title>
<g id="a_node2"><a xlink:href="6.png" xlink:title="&lt;TABLE&gt;">
<polygon fill="none" stroke="black" points="369,-631 239,-631 239,-341 369,-341 369,-631"/>
<text text-anchor="start" x="284" y="-619.8" font-family="Times New Roman,serif" font-size="14.00">state_6</text>
<text text-anchor="start" x="273.5" y="-604.8" font-family="Times New Roman,serif" font-size="14.00">incoming:6</text>
<text text-anchor="start" x="274.5" y="-589.8" font-family="Times New Roman,serif" font-size="14.00">outgoing:5</text>
<text text-anchor="start" x="286" y="-574.8" font-family="Times New Roman,serif" font-size="14.00">loop:2</text>
<image xlink:href="6.png" width="130px" height="230px" preserveAspectRatio="xMinYMin meet" x="239" y="-571"/>
</a>
</g>
</g>
<!-- state_0&#45;&gt;state_6 -->
<g id="edge4" class="edge"><title>state_0&#45;&gt;state_6</title>
<path fill="none" stroke="black" d="M1217.59,-1589.6C978.247,-1568.99 164,-1490.95 164,-1383 164,-1383 164,-1383 164,-826 164,-744.508 198.989,-659.771 233.984,-595.401"/>
<polygon fill="black" stroke="black" points="237.153,-596.902 238.918,-586.456 231.024,-593.521 237.153,-596.902"/>
<text text-anchor="middle" x="228" y="-1164.3" font-family="Times New Roman,serif" font-size="14.00"> &#160;&#160;press(&quot;MenuKey&quot;) &#160;&#160;</text>
</g>
<!-- activity_1 -->
<g id="node8" class="node"><title>activity_1</title>
<ellipse fill="none" stroke="red" cx="1283" cy="-1382" rx="46.2923" ry="18"/>
<text text-anchor="middle" x="1283" y="-1378.3" font-family="Times New Roman,serif" font-size="14.00" fill="red">activity_1</text>
</g>
<!-- state_0&#45;&gt;activity_1 -->
<g id="edge5" class="edge"><title>state_0&#45;&gt;activity_1</title>
<path fill="none" stroke="red" d="M1283,-1450.95C1283,-1435.72 1283,-1421.7 1283,-1410.4"/>
<polygon fill="red" stroke="red" points="1286.5,-1410.06 1283,-1400.06 1279.5,-1410.06 1286.5,-1410.06"/>
<text text-anchor="middle" x="1340.5" y="-1421.8" font-family="Times New Roman,serif" font-size="14.00" fill="red"> &#160;&#160;click(&quot;index=1&quot;) &#160;&#160;</text>
</g>
<!-- final -->
<g id="node9" class="node"><title>final</title>
<image xlink:href="-2.png" width="50px" height="50px" preserveAspectRatio="xMinYMin meet" x="1776" y="-511"/>
</g>
<!-- state_0&#45;&gt;final -->
<g id="edge6" class="edge"><title>state_0&#45;&gt;final</title>
<path fill="none" stroke="red" d="M1348.03,-1595.41C1572.92,-1595.12 2304,-1579.09 2304,-1383 2304,-1383 2304,-1383 2304,-826 2304,-600.06 1950.69,-514.724 1836.29,-493.014"/>
<polygon fill="red" stroke="red" points="1836.76,-489.542 1826.29,-491.164 1835.49,-496.425 1836.76,-489.542"/>
<text text-anchor="middle" x="2366.5" y="-1164.3" font-family="Times New Roman,serif" font-size="14.00" fill="red"> &#160;&#160;press(&quot;BackKey&quot;) &#160;&#160;</text>
</g>
<!-- state_6&#45;&gt;state_0 -->
<g id="edge10" class="edge"><title>state_6&#45;&gt;state_0</title>
<path fill="none" stroke="black" d="M288.301,-631.365C287.828,-637.319 287.391,-643.216 287,-649 286.011,-663.64 286.222,-667.328 286,-682 284.048,-810.874 273.517,-843.717 286,-972 286,-972 353,-1313 353,-1313 458.21,-1453.28 1005.72,-1551.68 1207.89,-1583.72"/>
<polygon fill="black" stroke="black" points="1207.4,-1587.19 1217.83,-1585.28 1208.49,-1580.27 1207.4,-1587.19"/>
<text text-anchor="middle" x="415.5" y="-1164.3" font-family="Times New Roman,serif" font-size="14.00"> &#160;&#160;press(&quot;BackKey&quot;) &#160;&#160;</text>
</g>
<!-- state_6&#45;&gt;state_0 -->
<g id="edge11" class="edge"><title>state_6&#45;&gt;state_0</title>
<path fill="none" stroke="black" d="M238.784,-521.71C149.459,-574.526 0,-684.101 0,-826 0,-1383 0,-1383 0,-1383 0,-1506.15 932.038,-1573.38 1207.32,-1590.55"/>
<polygon fill="black" stroke="black" points="1207.41,-1594.06 1217.61,-1591.19 1207.85,-1587.08 1207.41,-1594.06"/>
<text text-anchor="middle" x="64" y="-1164.3" font-family="Times New Roman,serif" font-size="14.00"> &#160;&#160;press(&quot;MenuKey&quot;) &#160;&#160;</text>
</g>
<!-- state_6&#45;&gt;state_6 -->
<g id="edge8" class="edge"><title>state_6&#45;&gt;state_6</title>
<path fill="none" stroke="black" d="M369.072,-500.746C379.697,-498.635 387,-493.72 387,-486 387,-480.934 383.855,-477.076 378.69,-474.425"/>
<polygon fill="black" stroke="black" points="379.665,-471.061 369.072,-471.254 377.473,-477.709 379.665,-471.061"/>
<text text-anchor="middle" x="440" y="-482.3" font-family="Times New Roman,serif" font-size="14.00"> &#160;&#160;swipe(&quot;Right&quot;) &#160;&#160;</text>
</g>
<!-- state_6&#45;&gt;state_6 -->
<g id="edge9" class="edge"><title>state_6&#45;&gt;state_6</title>
<path fill="none" stroke="black" d="M369.113,-514.524C424.904,-523.648 493,-514.14 493,-486 493,-459.509 432.65,-449.53 379.031,-456.064"/>
<polygon fill="black" stroke="black" points="378.52,-452.601 369.113,-457.476 379.507,-459.531 378.52,-452.601"/>
<text text-anchor="middle" x="542.5" y="-482.3" font-family="Times New Roman,serif" font-size="14.00"> &#160;&#160;swipe(&quot;Left&quot;) &#160;&#160;</text>
</g>
<!-- state_7 -->
<g id="node3" class="node"><title>state_7</title>
<g id="a_node3"><a xlink:href="7.png" xlink:title="&lt;TABLE&gt;">
<polygon fill="none" stroke="black" points="1612,-290 1482,-290 1482,-0 1612,-0 1612,-290"/>
<text text-anchor="start" x="1527" y="-278.8" font-family="Times New Roman,serif" font-size="14.00">state_7</text>
<text text-anchor="start" x="1516.5" y="-263.8" font-family="Times New Roman,serif" font-size="14.00">incoming:5</text>
<text text-anchor="start" x="1517.5" y="-248.8" font-family="Times New Roman,serif" font-size="14.00">outgoing:5</text>
<text text-anchor="start" x="1529" y="-233.8" font-family="Times New Roman,serif" font-size="14.00">loop:3</text>
<image xlink:href="7.png" width="130px" height="230px" preserveAspectRatio="xMinYMin meet" x="1482" y="-230"/>
</a>
</g>
</g>
<!-- state_6&#45;&gt;state_7 -->
<g id="edge7" class="edge"><title>state_6&#45;&gt;state_7</title>
<path fill="none" stroke="black" d="M369.053,-418.698C410.836,-380.158 468.308,-334.171 528,-308 857.747,-163.429 1297.86,-146.011 1471.76,-145.2"/>
<polygon fill="black" stroke="black" points="1471.84,-148.7 1481.83,-145.17 1471.82,-141.7 1471.84,-148.7"/>
<text text-anchor="middle" x="576" y="-311.8" font-family="Times New Roman,serif" font-size="14.00"> &#160;&#160;click(&quot;大约&quot;) &#160;&#160;</text>
</g>
<!-- state_7&#45;&gt;state_0 -->
<g id="edge12" class="edge"><title>state_7&#45;&gt;state_0</title>
<path fill="none" stroke="black" d="M1612.08,-155.755C1820.36,-188.783 2457,-304.501 2457,-485 2457,-1383 2457,-1383 2457,-1383 2457,-1495.09 1617.47,-1569.21 1358.29,-1589.42"/>
<polygon fill="black" stroke="black" points="1357.91,-1585.94 1348.21,-1590.2 1358.45,-1592.92 1357.91,-1585.94"/>
<text text-anchor="middle" x="2502.5" y="-993.8" font-family="Times New Roman,serif" font-size="14.00"> &#160;&#160;click(&quot;OK&quot;) &#160;&#160;</text>
</g>
<!-- state_7&#45;&gt;state_0 -->
<g id="edge15" class="edge"><title>state_7&#45;&gt;state_0</title>
<path fill="none" stroke="black" d="M1612.22,-153.445C1798.31,-175.657 2327.65,-245.868 2471,-341 2535.92,-384.085 2571,-407.081 2571,-485 2571,-1383 2571,-1383 2571,-1383 2571,-1506.69 1634.27,-1573.59 1358.5,-1590.61"/>
<polygon fill="black" stroke="black" points="1357.97,-1587.14 1348.2,-1591.24 1358.39,-1594.13 1357.97,-1587.14"/>
<text text-anchor="middle" x="2633.5" y="-993.8" font-family="Times New Roman,serif" font-size="14.00"> &#160;&#160;press(&quot;BackKey&quot;) &#160;&#160;</text>
</g>
<!-- state_7&#45;&gt;state_7 -->
<g id="edge13" class="edge"><title>state_7&#45;&gt;state_7</title>
<path fill="none" stroke="black" d="M1612.07,-154.831C1622.7,-153.423 1630,-150.146 1630,-145 1630,-141.703 1627,-139.173 1622.06,-137.411"/>
<polygon fill="black" stroke="black" points="1622.6,-133.945 1612.07,-135.169 1621.06,-140.775 1622.6,-133.945"/>
<text text-anchor="middle" x="1683" y="-141.3" font-family="Times New Roman,serif" font-size="14.00"> &#160;&#160;swipe(&quot;Right&quot;) &#160;&#160;</text>
</g>
<!-- state_7&#45;&gt;state_7 -->
<g id="edge14" class="edge"><title>state_7&#45;&gt;state_7</title>
<path fill="none" stroke="black" d="M1612.11,-164.016C1667.9,-170.099 1736,-163.76 1736,-145 1736,-127.376 1675.9,-120.715 1622.36,-125.016"/>
<polygon fill="black" stroke="black" points="1621.74,-121.559 1612.11,-125.984 1622.4,-128.528 1621.74,-121.559"/>
<text text-anchor="middle" x="1785.5" y="-141.3" font-family="Times New Roman,serif" font-size="14.00"> &#160;&#160;swipe(&quot;Left&quot;) &#160;&#160;</text>
</g>
<!-- state_7&#45;&gt;state_7 -->
<g id="edge16" class="edge"><title>state_7&#45;&gt;state_7</title>
<path fill="none" stroke="black" d="M1612.14,-169.517C1698.93,-184.632 1835,-176.46 1835,-145 1835,-114.738 1709.09,-106.024 1622.26,-118.858"/>
<polygon fill="black" stroke="black" points="1621.46,-115.441 1612.14,-120.483 1622.57,-122.353 1621.46,-115.441"/>
<text text-anchor="middle" x="1899" y="-141.3" font-family="Times New Roman,serif" font-size="14.00"> &#160;&#160;press(&quot;MenuKey&quot;) &#160;&#160;</text>
</g>
<!-- state_26 -->
<g id="node4" class="node"><title>state_26</title>
<g id="a_node4"><a xlink:href="26.png" xlink:title="&lt;TABLE&gt;">
<polygon fill="none" stroke="black" points="1339,-1313 1209,-1313 1209,-1023 1339,-1023 1339,-1313"/>
<text text-anchor="start" x="1250.5" y="-1301.8" font-family="Times New Roman,serif" font-size="14.00">state_26</text>
<text text-anchor="start" x="1243.5" y="-1286.8" font-family="Times New Roman,serif" font-size="14.00">incoming:1</text>
<text text-anchor="start" x="1244.5" y="-1271.8" font-family="Times New Roman,serif" font-size="14.00">outgoing:9</text>
<text text-anchor="start" x="1256" y="-1256.8" font-family="Times New Roman,serif" font-size="14.00">loop:0</text>
<image xlink:href="26.png" width="130px" height="230px" preserveAspectRatio="xMinYMin meet" x="1209" y="-1253"/>
</a>
</g>
</g>
<!-- state_26&#45;&gt;state_6 -->
<g id="edge25" class="edge"><title>state_26&#45;&gt;state_6</title>
<path fill="none" stroke="black" d="M1208.74,-1029.61C1205.94,-1027.26 1203.03,-1025.05 1200,-1023 1098.49,-954.388 743.655,-1052.17 651,-972 550.733,-885.243 655.552,-791.646 581,-682 530.493,-607.717 441.65,-552.659 378.195,-520.328"/>
<polygon fill="black" stroke="black" points="379.532,-517.083 369.025,-515.723 376.391,-523.338 379.532,-517.083"/>
<text text-anchor="middle" x="715" y="-823.3" font-family="Times New Roman,serif" font-size="14.00"> &#160;&#160;press(&quot;MenuKey&quot;) &#160;&#160;</text>
</g>
<!-- state_42 -->
<g id="node5" class="node"><title>state_42</title>
<g id="a_node5"><a xlink:href="42.png" xlink:title="&lt;TABLE&gt;">
<polygon fill="none" stroke="black" points="1605,-972 1475,-972 1475,-682 1605,-682 1605,-972"/>
<text text-anchor="start" x="1516.5" y="-960.8" font-family="Times New Roman,serif" font-size="14.00">state_42</text>
<text text-anchor="start" x="1506" y="-945.8" font-family="Times New Roman,serif" font-size="14.00">incoming:10</text>
<text text-anchor="start" x="1510.5" y="-930.8" font-family="Times New Roman,serif" font-size="14.00">outgoing:9</text>
<text text-anchor="start" x="1522" y="-915.8" font-family="Times New Roman,serif" font-size="14.00">loop:3</text>
<image xlink:href="42.png" width="130px" height="230px" preserveAspectRatio="xMinYMin meet" x="1475" y="-912"/>
</a>
</g>
</g>
<!-- state_26&#45;&gt;state_42 -->
<g id="edge18" class="edge"><title>state_26&#45;&gt;state_42</title>
<path fill="none" stroke="black" d="M1339.19,-1094.01C1361.87,-1070.27 1388.13,-1044.51 1414,-1023 1425.09,-1013.78 1431.02,-1015.42 1441,-1005 1452.86,-992.614 1452.43,-986.855 1461,-972 1463.92,-966.937 1466.88,-961.761 1469.86,-956.523"/>
<polygon fill="black" stroke="black" points="1472.99,-958.086 1474.87,-947.659 1466.9,-954.64 1472.99,-958.086"/>
<text text-anchor="middle" x="1522" y="-993.8" font-family="Times New Roman,serif" font-size="14.00"> &#160;&#160;longClick(&quot;index=1&quot;) &#160;&#160;</text>
</g>
<!-- state_26&#45;&gt;state_42 -->
<g id="edge22" class="edge"><title>state_26&#45;&gt;state_42</title>
<path fill="none" stroke="black" d="M1208.98,-1023.1C1206.26,-1008.45 1206.91,-996.545 1213,-990 1250.63,-949.539 1414.5,-1001.85 1461,-972 1463,-970.717 1464.95,-969.365 1466.86,-967.95"/>
<polygon fill="black" stroke="black" points="1469.4,-970.396 1474.93,-961.36 1464.97,-964.974 1469.4,-970.396"/>
<text text-anchor="middle" x="1266" y="-993.8" font-family="Times New Roman,serif" font-size="14.00"> &#160;&#160;swipe(&quot;Right&quot;) &#160;&#160;</text>
</g>
<!-- state_26&#45;&gt;state_42 -->
<g id="edge23" class="edge"><title>state_26&#45;&gt;state_42</title>
<path fill="none" stroke="black" d="M1310.06,-1022.59C1317.66,-1010.29 1326.86,-999.092 1338,-990 1380.8,-955.064 1415.63,-1003.52 1461,-972 1463.15,-970.505 1465.25,-968.932 1467.3,-967.289"/>
<polygon fill="black" stroke="black" points="1469.71,-969.829 1474.94,-960.615 1465.11,-964.556 1469.71,-969.829"/>
<text text-anchor="middle" x="1387.5" y="-993.8" font-family="Times New Roman,serif" font-size="14.00"> &#160;&#160;swipe(&quot;Left&quot;) &#160;&#160;</text>
</g>
<!-- state_46 -->
<g id="node6" class="node"><title>state_46</title>
<g id="a_node6"><a xlink:href="46.png" xlink:title="&lt;TABLE&gt;">
<polygon fill="none" stroke="black" points="1153,-631 1023,-631 1023,-341 1153,-341 1153,-631"/>
<text text-anchor="start" x="1064.5" y="-619.8" font-family="Times New Roman,serif" font-size="14.00">state_46</text>
<text text-anchor="start" x="1057.5" y="-604.8" font-family="Times New Roman,serif" font-size="14.00">incoming:5</text>
<text text-anchor="start" x="1058.5" y="-589.8" font-family="Times New Roman,serif" font-size="14.00">outgoing:6</text>
<text text-anchor="start" x="1070" y="-574.8" font-family="Times New Roman,serif" font-size="14.00">loop:2</text>
<image xlink:href="46.png" width="130px" height="230px" preserveAspectRatio="xMinYMin meet" x="1023" y="-571"/>
</a>
</g>
</g>
<!-- state_26&#45;&gt;state_46 -->
<g id="edge20" class="edge"><title>state_26&#45;&gt;state_46</title>
<path fill="none" stroke="black" d="M1208.78,-1032.83C1205.95,-1029.42 1203.02,-1026.14 1200,-1023 1188.68,-1011.25 1177.21,-1018.47 1168,-1005 1086.13,-885.318 1144.68,-825.22 1122,-682 1119.9,-668.753 1117.65,-655.014 1115.35,-641.239"/>
<polygon fill="black" stroke="black" points="1118.77,-640.49 1113.66,-631.209 1111.87,-641.651 1118.77,-640.49"/>
<text text-anchor="middle" x="1218" y="-823.3" font-family="Times New Roman,serif" font-size="14.00"> &#160;&#160;longClick(&quot;index=0&quot;) &#160;&#160;</text>
</g>
<!-- state_26&#45;&gt;activity_1 -->
<g id="edge17" class="edge"><title>state_26&#45;&gt;activity_1</title>
<path fill="none" stroke="red" d="M1208.91,-1305.9C1206.05,-1308.42 1203.09,-1310.79 1200,-1313 1155.06,-1345.13 1113.13,-1289.2 1077,-1331 1072.64,-1336.04 1072.7,-1340.91 1077,-1346 1095.85,-1368.33 1172.57,-1376.41 1226.85,-1379.34"/>
<polygon fill="red" stroke="red" points="1226.88,-1382.85 1237.04,-1379.85 1227.23,-1375.86 1226.88,-1382.85"/>
<text text-anchor="middle" x="1134.5" y="-1334.8" font-family="Times New Roman,serif" font-size="14.00" fill="red"> &#160;&#160;click(&quot;index=1&quot;) &#160;&#160;</text>
</g>
<!-- state_26&#45;&gt;activity_1 -->
<g id="edge19" class="edge"><title>state_26&#45;&gt;activity_1</title>
<path fill="none" stroke="red" d="M1208.88,-1275.9C1202.18,-1299.89 1201.93,-1324.57 1215,-1346 1220.29,-1354.67 1228.49,-1361.29 1237.39,-1366.3"/>
<polygon fill="red" stroke="red" points="1235.93,-1369.48 1246.44,-1370.79 1239.04,-1363.21 1235.93,-1369.48"/>
<text text-anchor="middle" x="1272.5" y="-1334.8" font-family="Times New Roman,serif" font-size="14.00" fill="red"> &#160;&#160;click(&quot;index=0&quot;) &#160;&#160;</text>
</g>
<!-- state_26&#45;&gt;activity_1 -->
<g id="edge21" class="edge"><title>state_26&#45;&gt;activity_1</title>
<path fill="none" stroke="red" d="M1326.51,-1313.22C1327.84,-1319.19 1329.01,-1325.13 1330,-1331 1331.1,-1337.57 1332.99,-1340.04 1330,-1346 1327.12,-1351.73 1322.82,-1356.76 1317.96,-1361.08"/>
<polygon fill="red" stroke="red" points="1315.72,-1358.39 1309.99,-1367.3 1320.03,-1363.91 1315.72,-1358.39"/>
<text text-anchor="middle" x="1388.5" y="-1334.8" font-family="Times New Roman,serif" font-size="14.00" fill="red"> &#160;&#160;click(&quot;index=1&quot;) &#160;&#160;</text>
</g>
<!-- state_26&#45;&gt;final -->
<g id="edge24" class="edge"><title>state_26&#45;&gt;final</title>
<path fill="none" stroke="red" d="M1208.98,-1049.23C1198.8,-1023.51 1194.18,-1000.75 1203,-990 1228.86,-958.454 1264.64,-1001.32 1293,-972 1383.82,-878.094 1253.46,-778.977 1341,-682 1361.37,-659.43 1378.38,-674.261 1407,-664 1543.86,-614.935 1699.41,-538.666 1766.84,-504.541"/>
<polygon fill="red" stroke="red" points="1768.42,-507.661 1775.76,-500.013 1765.25,-501.419 1768.42,-507.661"/>
<text text-anchor="middle" x="1403.5" y="-823.3" font-family="Times New Roman,serif" font-size="14.00" fill="red"> &#160;&#160;press(&quot;BackKey&quot;) &#160;&#160;</text>
</g>
<!-- state_42&#45;&gt;state_6 -->
<g id="edge34" class="edge"><title>state_42&#45;&gt;state_6</title>
<path fill="none" stroke="black" d="M1474.73,-692.161C1470.42,-688.42 1465.85,-685.005 1461,-682 1419.51,-656.275 1070.33,-670.877 1022,-664 783.537,-630.07 508.967,-550.808 379.288,-510.881"/>
<polygon fill="black" stroke="black" points="380.039,-507.45 369.451,-507.842 377.973,-514.138 380.039,-507.45"/>
<text text-anchor="middle" x="1086" y="-652.8" font-family="Times New Roman,serif" font-size="14.00"> &#160;&#160;press(&quot;MenuKey&quot;) &#160;&#160;</text>
</g>
<!-- state_42&#45;&gt;state_42 -->
<g id="edge27" class="edge"><title>state_42&#45;&gt;state_42</title>
<path fill="none" stroke="black" d="M1605.07,-836.831C1615.7,-835.423 1623,-832.146 1623,-827 1623,-823.703 1620,-821.173 1615.06,-819.411"/>
<polygon fill="black" stroke="black" points="1615.6,-815.945 1605.07,-817.169 1614.06,-822.775 1615.6,-815.945"/>
<text text-anchor="middle" x="1694" y="-823.3" font-family="Times New Roman,serif" font-size="14.00"> &#160;&#160;longClick(&quot;index=1&quot;) &#160;&#160;</text>
</g>
<!-- state_42&#45;&gt;state_42 -->
<g id="edge31" class="edge"><title>state_42&#45;&gt;state_42</title>
<path fill="none" stroke="black" d="M1605.1,-845.04C1672.76,-852.686 1765,-846.673 1765,-827 1765,-808.288 1681.55,-801.934 1615.17,-807.938"/>
<polygon fill="black" stroke="black" points="1614.69,-804.468 1605.1,-808.96 1615.4,-811.432 1614.69,-804.468"/>
<text text-anchor="middle" x="1818" y="-823.3" font-family="Times New Roman,serif" font-size="14.00"> &#160;&#160;swipe(&quot;Right&quot;) &#160;&#160;</text>
</g>
<!-- state_42&#45;&gt;state_42 -->
<g id="edge32" class="edge"><title>state_42&#45;&gt;state_42</title>
<path fill="none" stroke="black" d="M1605.01,-850.336C1703.26,-867.027 1871,-859.249 1871,-827 1871,-795.822 1714.22,-787.516 1615.02,-802.082"/>
<polygon fill="black" stroke="black" points="1614.34,-798.646 1605.01,-803.664 1615.44,-805.56 1614.34,-798.646"/>
<text text-anchor="middle" x="1920.5" y="-823.3" font-family="Times New Roman,serif" font-size="14.00"> &#160;&#160;swipe(&quot;Left&quot;) &#160;&#160;</text>
</g>
<!-- state_42&#45;&gt;state_46 -->
<g id="edge29" class="edge"><title>state_42&#45;&gt;state_46</title>
<path fill="none" stroke="black" d="M1474.96,-693.35C1470.58,-689.216 1465.93,-685.403 1461,-682 1413.73,-649.355 1386.29,-685.451 1333,-664 1269.38,-638.393 1206.87,-592.802 1160.91,-554.305"/>
<polygon fill="black" stroke="black" points="1163,-551.487 1153.1,-547.7 1158.48,-556.831 1163,-551.487"/>
<text text-anchor="middle" x="1404" y="-652.8" font-family="Times New Roman,serif" font-size="14.00"> &#160;&#160;longClick(&quot;index=0&quot;) &#160;&#160;</text>
</g>
<!-- state_42&#45;&gt;activity_1 -->
<g id="edge26" class="edge"><title>state_42&#45;&gt;activity_1</title>
<path fill="none" stroke="red" d="M1605.2,-849.385C1677.04,-876.865 1788.89,-932.174 1838,-1023 1868.65,-1079.69 1874.51,-1259.89 1838,-1313 1814.81,-1346.74 1791.95,-1337.05 1752,-1346 1674.8,-1363.3 1445.71,-1374.46 1338.94,-1378.87"/>
<polygon fill="red" stroke="red" points="1338.54,-1375.38 1328.69,-1379.29 1338.82,-1382.38 1338.54,-1375.38"/>
<text text-anchor="middle" x="1920.5" y="-1164.3" font-family="Times New Roman,serif" font-size="14.00" fill="red"> &#160;&#160;click(&quot;index=1&quot;) &#160;&#160;</text>
</g>
<!-- state_42&#45;&gt;activity_1 -->
<g id="edge28" class="edge"><title>state_42&#45;&gt;activity_1</title>
<path fill="none" stroke="red" d="M1605.03,-925.252C1615.76,-945.829 1625.24,-967.998 1631,-990 1632.69,-996.45 1634.28,-999.199 1631,-1005 1623.34,-1018.53 1608.66,-1009.47 1601,-1023 1569.25,-1079.08 1566.01,-1258.88 1601,-1313 1609.78,-1326.57 1664.32,-1320.29 1641,-1346 1621.14,-1367.9 1434.8,-1376.55 1339.12,-1379.57"/>
<polygon fill="red" stroke="red" points="1338.93,-1376.08 1329.04,-1379.88 1339.14,-1383.07 1338.93,-1376.08"/>
<text text-anchor="middle" x="1658.5" y="-1164.3" font-family="Times New Roman,serif" font-size="14.00" fill="red"> &#160;&#160;click(&quot;index=0&quot;) &#160;&#160;</text>
</g>
<!-- state_42&#45;&gt;activity_1 -->
<g id="edge30" class="edge"><title>state_42&#45;&gt;activity_1</title>
<path fill="none" stroke="red" d="M1605.04,-927.245C1614.86,-954.843 1616.2,-983.193 1597,-1005 1555.25,-1052.42 1497.75,-975.584 1456,-1023 1370.83,-1119.74 1371.45,-1215.72 1456,-1313 1493.69,-1356.36 1546.31,-1287.64 1584,-1331 1588.37,-1336.03 1588.43,-1341.02 1584,-1346 1568.02,-1363.94 1421.56,-1374.1 1338.99,-1378.45"/>
<polygon fill="red" stroke="red" points="1338.57,-1374.96 1328.76,-1378.97 1338.93,-1381.96 1338.57,-1374.96"/>
<text text-anchor="middle" x="1513.5" y="-1164.3" font-family="Times New Roman,serif" font-size="14.00" fill="red"> &#160;&#160;click(&quot;index=1&quot;) &#160;&#160;</text>
</g>
<!-- state_42&#45;&gt;final -->
<g id="edge33" class="edge"><title>state_42&#45;&gt;final</title>
<path fill="none" stroke="red" d="M1605.19,-741.33C1660.68,-669.252 1737.41,-569.598 1776.28,-519.101"/>
<polygon fill="red" stroke="red" points="1779.09,-521.197 1782.42,-511.138 1773.54,-516.926 1779.09,-521.197"/>
<text text-anchor="middle" x="1732.5" y="-652.8" font-family="Times New Roman,serif" font-size="14.00" fill="red"> &#160;&#160;press(&quot;BackKey&quot;) &#160;&#160;</text>
</g>
<!-- state_46&#45;&gt;state_0 -->
<g id="edge35" class="edge"><title>state_46&#45;&gt;state_0</title>
<path fill="none" stroke="black" d="M1022.9,-508.856C950.882,-536.767 837.779,-592.472 783,-682 749.209,-737.226 797.649,-923.288 755,-972 689.168,-1047.19 601.742,-947.731 536,-1023 488.592,-1077.28 464.534,-1287.77 507,-1346 591.598,-1461.99 1029.71,-1550.56 1207.7,-1582.29"/>
<polygon fill="black" stroke="black" points="1207.31,-1585.78 1217.77,-1584.07 1208.53,-1578.88 1207.31,-1585.78"/>
<text text-anchor="middle" x="593.5" y="-1164.3" font-family="Times New Roman,serif" font-size="14.00"> &#160;&#160;click(&quot;index=0&quot;) &#160;&#160;</text>
</g>
<!-- state_46&#45;&gt;state_0 -->
<g id="edge36" class="edge"><title>state_46&#45;&gt;state_0</title>
<path fill="none" stroke="black" d="M1153.04,-500.934C1273.92,-526.797 1541.4,-583.882 1767,-631 1877.15,-654.006 1932.74,-605.217 2015,-682 2130.01,-789.35 2088.69,-867.122 2110,-1023 2127.46,-1150.7 2185,-1208.18 2110,-1313 2019.58,-1439.36 1544.3,-1544.07 1358.01,-1580.86"/>
<polygon fill="black" stroke="black" points="1357.16,-1577.46 1348.02,-1582.82 1358.51,-1584.33 1357.16,-1577.46"/>
<text text-anchor="middle" x="2204.5" y="-1164.3" font-family="Times New Roman,serif" font-size="14.00"> &#160;&#160;click(&quot;index=0&quot;) &#160;&#160;</text>
</g>
<!-- state_46&#45;&gt;state_42 -->
<g id="edge39" class="edge"><title>state_46&#45;&gt;state_42</title>
<path fill="none" stroke="black" d="M1153.25,-497.726C1238.4,-515.007 1386.9,-556.886 1475,-649 1481.96,-656.274 1488.18,-664.355 1493.75,-672.943"/>
<polygon fill="black" stroke="black" points="1490.89,-674.985 1499.1,-681.69 1496.87,-671.333 1490.89,-674.985"/>
<text text-anchor="middle" x="1546.5" y="-652.8" font-family="Times New Roman,serif" font-size="14.00"> &#160;&#160;press(&quot;BackKey&quot;) &#160;&#160;</text>
</g>
<!-- state_46&#45;&gt;state_42 -->
<g id="edge40" class="edge"><title>state_46&#45;&gt;state_42</title>
<path fill="none" stroke="black" d="M1137.86,-631.187C1147.14,-643.883 1158.09,-655.221 1171,-664 1224.39,-700.306 1406.48,-647.402 1461,-682 1463.01,-683.273 1464.96,-684.615 1466.88,-686.02"/>
<polygon fill="black" stroke="black" points="1464.99,-689.001 1474.97,-692.575 1469.4,-683.561 1464.99,-689.001"/>
<text text-anchor="middle" x="1235" y="-652.8" font-family="Times New Roman,serif" font-size="14.00"> &#160;&#160;press(&quot;MenuKey&quot;) &#160;&#160;</text>
</g>
<!-- state_46&#45;&gt;state_46 -->
<g id="edge37" class="edge"><title>state_46&#45;&gt;state_46</title>
<path fill="none" stroke="black" d="M1153.07,-500.746C1163.7,-498.635 1171,-493.72 1171,-486 1171,-480.934 1167.86,-477.076 1162.69,-474.425"/>
<polygon fill="black" stroke="black" points="1163.66,-471.061 1153.07,-471.254 1161.47,-477.709 1163.66,-471.061"/>
<text text-anchor="middle" x="1224" y="-482.3" font-family="Times New Roman,serif" font-size="14.00"> &#160;&#160;swipe(&quot;Right&quot;) &#160;&#160;</text>
</g>
<!-- state_46&#45;&gt;state_46 -->
<g id="edge38" class="edge"><title>state_46&#45;&gt;state_46</title>
<path fill="none" stroke="black" d="M1153.11,-514.524C1208.9,-523.648 1277,-514.14 1277,-486 1277,-459.509 1216.65,-449.53 1163.03,-456.064"/>
<polygon fill="black" stroke="black" points="1162.52,-452.601 1153.11,-457.476 1163.51,-459.531 1162.52,-452.601"/>
<text text-anchor="middle" x="1326.5" y="-482.3" font-family="Times New Roman,serif" font-size="14.00"> &#160;&#160;swipe(&quot;Left&quot;) &#160;&#160;</text>
</g>
<!-- state_39 -->
<g id="node7" class="node"><title>state_39</title>
<g id="a_node7"><a xlink:href="39.png" xlink:title="&lt;TABLE&gt;">
<polygon fill="none" stroke="black" points="790,-1313 660,-1313 660,-1023 790,-1023 790,-1313"/>
<text text-anchor="start" x="701.5" y="-1301.8" font-family="Times New Roman,serif" font-size="14.00">state_39</text>
<text text-anchor="start" x="694.5" y="-1286.8" font-family="Times New Roman,serif" font-size="14.00">incoming:4</text>
<text text-anchor="start" x="695.5" y="-1271.8" font-family="Times New Roman,serif" font-size="14.00">outgoing:9</text>
<text text-anchor="start" x="707" y="-1256.8" font-family="Times New Roman,serif" font-size="14.00">loop:3</text>
<image xlink:href="39.png" width="130px" height="230px" preserveAspectRatio="xMinYMin meet" x="660" y="-1253"/>
</a>
</g>
</g>
<!-- state_39&#45;&gt;state_6 -->
<g id="edge49" class="edge"><title>state_39&#45;&gt;state_6</title>
<path fill="none" stroke="black" d="M659.874,-1034.48C655.513,-1030.31 650.892,-1026.45 646,-1023 588.072,-982.101 378.444,-1024.7 331,-972 288.468,-924.754 286.667,-764.949 292.374,-641.545"/>
<polygon fill="black" stroke="black" points="295.886,-641.385 292.872,-631.227 288.894,-641.047 295.886,-641.385"/>
<text text-anchor="middle" x="395" y="-823.3" font-family="Times New Roman,serif" font-size="14.00"> &#160;&#160;press(&quot;MenuKey&quot;) &#160;&#160;</text>
</g>
<!-- state_39&#45;&gt;state_46 -->
<g id="edge44" class="edge"><title>state_39&#45;&gt;state_46</title>
<path fill="none" stroke="black" d="M770.215,-1022.74C774.863,-1005.72 779.247,-988.533 783,-972 797.444,-908.369 783.263,-728.538 829,-682 861.267,-649.168 890.823,-686.47 931,-664 963.278,-645.948 992.271,-618.7 1016.3,-590.958"/>
<polygon fill="black" stroke="black" points="1019.14,-593.017 1022.94,-583.127 1013.8,-588.488 1019.14,-593.017"/>
<text text-anchor="middle" x="900" y="-823.3" font-family="Times New Roman,serif" font-size="14.00"> &#160;&#160;longClick(&quot;index=0&quot;) &#160;&#160;</text>
</g>
<!-- state_39&#45;&gt;state_39 -->
<g id="edge42" class="edge"><title>state_39&#45;&gt;state_39</title>
<path fill="none" stroke="black" d="M790.072,-1177.83C800.697,-1176.42 808,-1173.15 808,-1168 808,-1164.7 805.003,-1162.17 800.055,-1160.41"/>
<polygon fill="black" stroke="black" points="800.596,-1156.95 790.072,-1158.17 799.062,-1163.78 800.596,-1156.95"/>
<text text-anchor="middle" x="879" y="-1164.3" font-family="Times New Roman,serif" font-size="14.00"> &#160;&#160;longClick(&quot;index=1&quot;) &#160;&#160;</text>
</g>
<!-- state_39&#45;&gt;state_39 -->
<g id="edge46" class="edge"><title>state_39&#45;&gt;state_39</title>
<path fill="none" stroke="black" d="M790.098,-1186.04C857.758,-1193.69 950,-1187.67 950,-1168 950,-1149.29 866.546,-1142.93 800.171,-1148.94"/>
<polygon fill="black" stroke="black" points="799.693,-1145.47 790.098,-1149.96 800.4,-1152.43 799.693,-1145.47"/>
<text text-anchor="middle" x="1003" y="-1164.3" font-family="Times New Roman,serif" font-size="14.00"> &#160;&#160;swipe(&quot;Right&quot;) &#160;&#160;</text>
</g>
<!-- state_39&#45;&gt;state_39 -->
<g id="edge47" class="edge"><title>state_39&#45;&gt;state_39</title>
<path fill="none" stroke="black" d="M790.011,-1191.34C888.262,-1208.03 1056,-1200.25 1056,-1168 1056,-1136.82 899.216,-1128.52 800.019,-1143.08"/>
<polygon fill="black" stroke="black" points="799.342,-1139.65 790.011,-1144.66 800.435,-1146.56 799.342,-1139.65"/>
<text text-anchor="middle" x="1105.5" y="-1164.3" font-family="Times New Roman,serif" font-size="14.00"> &#160;&#160;swipe(&quot;Left&quot;) &#160;&#160;</text>
</g>
<!-- state_39&#45;&gt;activity_1 -->
<g id="edge41" class="edge"><title>state_39&#45;&gt;activity_1</title>
<path fill="none" stroke="red" d="M659.978,-1301.67C655.588,-1305.8 650.933,-1309.61 646,-1313 597.588,-1346.32 553.624,-1286.71 515,-1331 510.619,-1336.02 510.395,-1341.18 515,-1346 539.524,-1371.67 1053.84,-1378.85 1226.81,-1380.54"/>
<polygon fill="red" stroke="red" points="1226.95,-1384.04 1236.98,-1380.64 1227.01,-1377.04 1226.95,-1384.04"/>
<text text-anchor="middle" x="572.5" y="-1334.8" font-family="Times New Roman,serif" font-size="14.00" fill="red"> &#160;&#160;click(&quot;index=1&quot;) &#160;&#160;</text>
</g>
<!-- state_39&#45;&gt;activity_1 -->
<g id="edge43" class="edge"><title>state_39&#45;&gt;activity_1</title>
<path fill="none" stroke="red" d="M659.909,-1283.47C648.404,-1310.89 642.912,-1335.34 653,-1346 672.562,-1366.68 1075.79,-1376.85 1226.68,-1379.95"/>
<polygon fill="red" stroke="red" points="1227.03,-1383.45 1237.09,-1380.16 1227.17,-1376.46 1227.03,-1383.45"/>
<text text-anchor="middle" x="710.5" y="-1334.8" font-family="Times New Roman,serif" font-size="14.00" fill="red"> &#160;&#160;click(&quot;index=0&quot;) &#160;&#160;</text>
</g>
<!-- state_39&#45;&gt;activity_1 -->
<g id="edge45" class="edge"><title>state_39&#45;&gt;activity_1</title>
<path fill="none" stroke="red" d="M761.253,-1313.08C769.268,-1325.71 779.053,-1337.06 791,-1346 825.184,-1371.58 1104.71,-1378.55 1226.56,-1380.38"/>
<polygon fill="red" stroke="red" points="1226.76,-1383.88 1236.81,-1380.52 1226.86,-1376.88 1226.76,-1383.88"/>
<text text-anchor="middle" x="848.5" y="-1334.8" font-family="Times New Roman,serif" font-size="14.00" fill="red"> &#160;&#160;click(&quot;index=1&quot;) &#160;&#160;</text>
</g>
<!-- state_39&#45;&gt;final -->
<g id="edge48" class="edge"><title>state_39&#45;&gt;final</title>
<path fill="none" stroke="red" d="M790.033,-1135.35C848.502,-1103.07 931.129,-1047.09 971,-972 1001.31,-914.918 947.402,-727.802 993,-682 1010.62,-664.305 1192.24,-667.251 1217,-664 1253.73,-659.177 1262.52,-655.493 1299,-649 1345.18,-640.779 1357.66,-643.026 1403,-631 1540.76,-594.461 1698.24,-530.627 1766.48,-501.834"/>
<polygon fill="red" stroke="red" points="1768.04,-504.972 1775.89,-497.848 1765.31,-498.527 1768.04,-504.972"/>
<text text-anchor="middle" x="1055.5" y="-823.3" font-family="Times New Roman,serif" font-size="14.00" fill="red"> &#160;&#160;press(&quot;BackKey&quot;) &#160;&#160;</text>
</g>
<!-- activity_1&#45;&gt;state_7 -->
<g id="edge52" class="edge"><title>activity_1&#45;&gt;state_7</title>
<path fill="none" stroke="red" d="M1236.79,-1380.32C1074.17,-1377.76 536.498,-1367.67 507,-1346 475.01,-1322.5 490.091,-1415.06 481,-972 479.678,-907.569 444.166,-734.881 481,-682 518.373,-628.345 561.419,-661.983 619,-631 810.787,-527.803 822.044,-443.884 1014,-341 1168.75,-258.059 1366.3,-196.106 1472.1,-166.107"/>
<polygon fill="red" stroke="red" points="1473.06,-169.473 1481.73,-163.391 1471.16,-162.735 1473.06,-169.473"/>
<text text-anchor="middle" x="529" y="-823.3" font-family="Times New Roman,serif" font-size="14.00" fill="red"> &#160;&#160;click(&quot;大约&quot;) &#160;&#160;</text>
</g>
<!-- activity_1&#45;&gt;state_26 -->
<g id="edge51" class="edge"><title>activity_1&#45;&gt;state_26</title>
<path fill="none" stroke="red" d="M1328.3,-1377.8C1372.4,-1373.64 1434.92,-1364.57 1450,-1346 1471.68,-1319.31 1418.2,-1316.07 1414,-1313 1390.21,-1295.6 1366.87,-1273.99 1346.27,-1252.84"/>
<polygon fill="red" stroke="red" points="1348.56,-1250.17 1339.1,-1245.39 1343.51,-1255.03 1348.56,-1250.17"/>
<text text-anchor="middle" x="1517.5" y="-1334.8" font-family="Times New Roman,serif" font-size="14.00" fill="red"> &#160;&#160;press(&quot;BackKey&quot;) &#160;&#160;</text>
</g>
<!-- activity_1&#45;&gt;state_42 -->
<g id="edge53" class="edge"><title>activity_1&#45;&gt;state_42</title>
<path fill="none" stroke="red" d="M1328.55,-1379.1C1414.38,-1375.12 1596.83,-1364.72 1657,-1346 1685.69,-1337.07 1700.8,-1338.92 1716,-1313 1748.6,-1257.41 1739.13,-1083.15 1716,-1023 1695.13,-968.729 1651.39,-920.147 1612.74,-885.049"/>
<polygon fill="red" stroke="red" points="1614.88,-882.264 1605.09,-878.212 1610.21,-887.484 1614.88,-882.264"/>
<text text-anchor="middle" x="1785" y="-1164.3" font-family="Times New Roman,serif" font-size="14.00" fill="red"> &#160;&#160;click(&quot;保存&quot;) &#160;&#160;</text>
</g>
<!-- activity_1&#45;&gt;state_42 -->
<g id="edge54" class="edge"><title>activity_1&#45;&gt;state_42</title>
<path fill="none" stroke="red" d="M1329.11,-1380.17C1478.2,-1376.99 1940.09,-1363.14 1982,-1313 2023.33,-1263.55 2017.19,-1076.99 1982,-1023 1900.45,-897.881 1718.49,-852.475 1615.27,-836.426"/>
<polygon fill="red" stroke="red" points="1615.63,-832.941 1605.22,-834.918 1614.59,-839.864 1615.63,-832.941"/>
<text text-anchor="middle" x="2058" y="-1164.3" font-family="Times New Roman,serif" font-size="14.00" fill="red"> &#160;&#160;click(&quot;删除&quot;) &#160;&#160;</text>
</g>
<!-- activity_1&#45;&gt;state_39 -->
<g id="edge50" class="edge"><title>activity_1&#45;&gt;state_39</title>
<path fill="none" stroke="red" d="M1237.07,-1379.48C1157.1,-1376.31 995.892,-1367.41 944,-1346 889.347,-1323.45 837.457,-1282.71 797.916,-1245.99"/>
<polygon fill="red" stroke="red" points="799.856,-1243.01 790.175,-1238.7 795.06,-1248.11 799.856,-1243.01"/>
<text text-anchor="middle" x="1006.5" y="-1334.8" font-family="Times New Roman,serif" font-size="14.00" fill="red"> &#160;&#160;press(&quot;BackKey&quot;) &#160;&#160;</text>
</g>
</g>
</svg>
