<?xml version="1.0" encoding="UTF-8" standalone="no"?>
<!DOCTYPE svg PUBLIC "-//W3C//DTD SVG 1.1//EN"
 "http://www.w3.org/Graphics/SVG/1.1/DTD/svg11.dtd">
<!-- Generated by graphviz version 2.38.0 (20140413.2041)
 -->
<!-- Title: activity_1 Pages: 1 -->
<svg width="2286pt" height="1067pt"
 viewBox="0.00 0.00 2286.39 1067.00" xmlns="http://www.w3.org/2000/svg" xmlns:xlink="http://www.w3.org/1999/xlink">
<g id="graph0" class="graph" transform="scale(1 1) rotate(0) translate(4 1063)">
<title>activity_1</title>
<polygon fill="white" stroke="none" points="-4,4 -4,-1063 2282.39,-1063 2282.39,4 -4,4"/>
<!-- state_2 -->
<g id="node1" class="node"><title>state_2</title>
<g id="a_node1"><a xlink:href="2.png" xlink:title="&lt;TABLE&gt;">
<polygon fill="none" stroke="black" points="1457.39,-1059 1327.39,-1059 1327.39,-769 1457.39,-769 1457.39,-1059"/>
<text text-anchor="start" x="1372.39" y="-1047.8" font-family="Times New Roman,serif" font-size="14.00">state_2</text>
<text text-anchor="start" x="1358.39" y="-1032.8" font-family="Times New Roman,serif" font-size="14.00">incoming:12</text>
<text text-anchor="start" x="1362.89" y="-1017.8" font-family="Times New Roman,serif" font-size="14.00">outgoing:9</text>
<text text-anchor="start" x="1374.39" y="-1002.8" font-family="Times New Roman,serif" font-size="14.00">loop:6</text>
<image xlink:href="2.png" width="130px" height="230px" preserveAspectRatio="xMinYMin meet" x="1327.39" y="-999"/>
</a>
</g>
</g>
<!-- state_2&#45;&gt;state_2 -->
<g id="edge1" class="edge"><title>state_2&#45;&gt;state_2</title>
<path fill="none" stroke="black" d="M1457.46,-918.915C1468.08,-918.212 1475.39,-916.573 1475.39,-914 1475.39,-912.352 1472.39,-911.087 1467.44,-910.205"/>
<polygon fill="black" stroke="black" points="1467.79,-906.722 1457.46,-909.085 1467.01,-913.679 1467.79,-906.722"/>
<text text-anchor="middle" x="1529.89" y="-910.3" font-family="Times New Roman,serif" font-size="14.00"> &#160;&#160;click(&quot;无标题&quot;) &#160;&#160;</text>
</g>
<!-- state_2&#45;&gt;state_2 -->
<g id="edge2" class="edge"><title>state_2&#45;&gt;state_2</title>
<path fill="none" stroke="black" d="M1457.8,-923.481C1514.57,-926.568 1584.39,-923.408 1584.39,-914 1584.39,-905.144 1522.51,-901.824 1467.89,-904.041"/>
<polygon fill="black" stroke="black" points="1467.62,-900.55 1457.8,-904.519 1467.95,-907.542 1467.62,-900.55"/>
<text text-anchor="middle" x="1655.39" y="-910.3" font-family="Times New Roman,serif" font-size="14.00"> &#160;&#160;longClick(&quot;index=1&quot;) &#160;&#160;</text>
</g>
<!-- state_2&#45;&gt;state_2 -->
<g id="edge4" class="edge"><title>state_2&#45;&gt;state_2</title>
<path fill="none" stroke="black" d="M1457.46,-925.636C1556.49,-934.024 1726.39,-930.145 1726.39,-914 1726.39,-898.391 1567.58,-894.247 1467.55,-901.569"/>
<polygon fill="black" stroke="black" points="1467.15,-898.09 1457.46,-902.364 1467.7,-905.068 1467.15,-898.09"/>
<text text-anchor="middle" x="1783.89" y="-910.3" font-family="Times New Roman,serif" font-size="14.00"> &#160;&#160;click(&quot;index=1&quot;) &#160;&#160;</text>
</g>
<!-- state_2&#45;&gt;state_2 -->
<g id="edge5" class="edge"><title>state_2&#45;&gt;state_2</title>
<path fill="none" stroke="black" d="M1457.64,-927.709C1584.64,-941.176 1841.39,-936.606 1841.39,-914 1841.39,-891.99 1598,-887.078 1467.95,-899.263"/>
<polygon fill="black" stroke="black" points="1467.25,-895.816 1457.64,-900.291 1467.94,-902.782 1467.25,-895.816"/>
<text text-anchor="middle" x="1912.39" y="-910.3" font-family="Times New Roman,serif" font-size="14.00"> &#160;&#160;longClick(&quot;index=1&quot;) &#160;&#160;</text>
</g>
<!-- state_2&#45;&gt;state_2 -->
<g id="edge6" class="edge"><title>state_2&#45;&gt;state_2</title>
<path fill="none" stroke="black" d="M1457.59,-929.191C1614.39,-948.358 1983.39,-943.295 1983.39,-914 1983.39,-885.335 1630.07,-879.87 1467.98,-897.607"/>
<polygon fill="black" stroke="black" points="1467.12,-894.184 1457.59,-898.809 1467.92,-901.137 1467.12,-894.184"/>
<text text-anchor="middle" x="2036.39" y="-910.3" font-family="Times New Roman,serif" font-size="14.00"> &#160;&#160;swipe(&quot;Right&quot;) &#160;&#160;</text>
</g>
<!-- state_2&#45;&gt;state_2 -->
<g id="edge7" class="edge"><title>state_2&#45;&gt;state_2</title>
<path fill="none" stroke="black" d="M1457.67,-930.852C1634.76,-955.456 2089.39,-949.839 2089.39,-914 2089.39,-878.826 1651.48,-872.763 1467.81,-895.81"/>
<polygon fill="black" stroke="black" points="1467.13,-892.37 1457.67,-897.148 1468.04,-899.309 1467.13,-892.37"/>
<text text-anchor="middle" x="2138.89" y="-910.3" font-family="Times New Roman,serif" font-size="14.00"> &#160;&#160;swipe(&quot;Left&quot;) &#160;&#160;</text>
</g>
<!-- state_19 -->
<g id="node2" class="node"><title>state_19</title>
<g id="a_node2"><a xlink:href="19.png" xlink:title="&lt;TABLE&gt;">
<polygon fill="none" stroke="black" points="392.388,-718 262.388,-718 262.388,-428 392.388,-428 392.388,-718"/>
<text text-anchor="start" x="303.888" y="-706.8" font-family="Times New Roman,serif" font-size="14.00">state_19</text>
<text text-anchor="start" x="293.388" y="-691.8" font-family="Times New Roman,serif" font-size="14.00">incoming:13</text>
<text text-anchor="start" x="297.888" y="-676.8" font-family="Times New Roman,serif" font-size="14.00">outgoing:8</text>
<text text-anchor="start" x="309.388" y="-661.8" font-family="Times New Roman,serif" font-size="14.00">loop:6</text>
<image xlink:href="19.png" width="130px" height="230px" preserveAspectRatio="xMinYMin meet" x="262.388" y="-658"/>
</a>
</g>
</g>
<!-- state_2&#45;&gt;state_19 -->
<g id="edge3" class="edge"><title>state_2&#45;&gt;state_19</title>
<path fill="none" stroke="black" d="M1327.37,-892.304C1140.29,-832.753 601.316,-661.194 402.35,-597.861"/>
<polygon fill="black" stroke="black" points="403.158,-594.446 392.568,-594.747 401.035,-601.116 403.158,-594.446"/>
<text text-anchor="middle" x="928.888" y="-739.8" font-family="Times New Roman,serif" font-size="14.00"> &#160;&#160;&quot;index=1&quot;.input(&quot;a&quot;) &#160;&#160;</text>
</g>
<!-- state_27 -->
<g id="node3" class="node"><title>state_27</title>
<g id="a_node3"><a xlink:href="27.png" xlink:title="&lt;TABLE&gt;">
<polygon fill="none" stroke="black" points="182.388,-377 52.3875,-377 52.3875,-87 182.388,-87 182.388,-377"/>
<text text-anchor="start" x="93.8875" y="-365.8" font-family="Times New Roman,serif" font-size="14.00">state_27</text>
<text text-anchor="start" x="86.8875" y="-350.8" font-family="Times New Roman,serif" font-size="14.00">incoming:4</text>
<text text-anchor="start" x="87.8875" y="-335.8" font-family="Times New Roman,serif" font-size="14.00">outgoing:7</text>
<text text-anchor="start" x="99.3875" y="-320.8" font-family="Times New Roman,serif" font-size="14.00">loop:2</text>
<image xlink:href="27.png" width="130px" height="230px" preserveAspectRatio="xMinYMin meet" x="52.3875" y="-317"/>
</a>
</g>
</g>
<!-- state_2&#45;&gt;state_27 -->
<g id="edge8" class="edge"><title>state_2&#45;&gt;state_27</title>
<path fill="none" stroke="black" d="M1327.27,-911.577C1095.05,-905.234 311.462,-872.554 125.388,-718 8.94748,-621.284 -23.9367,-540.618 17.3875,-395 23.97,-371.805 34.9211,-348.674 47.2166,-327.455"/>
<polygon fill="black" stroke="black" points="50.2619,-329.182 52.3673,-318.798 44.2462,-325.603 50.2619,-329.182"/>
<text text-anchor="middle" x="189.388" y="-569.3" font-family="Times New Roman,serif" font-size="14.00"> &#160;&#160;press(&quot;MenuKey&quot;) &#160;&#160;</text>
</g>
<!-- activity_0 -->
<g id="node4" class="node"><title>activity_0</title>
<ellipse fill="none" stroke="red" cx="1073.39" cy="-18" rx="46.2923" ry="18"/>
<text text-anchor="middle" x="1073.39" y="-14.3" font-family="Times New Roman,serif" font-size="14.00" fill="red">activity_0</text>
</g>
<!-- state_2&#45;&gt;activity_0 -->
<g id="edge9" class="edge"><title>state_2&#45;&gt;activity_0</title>
<path fill="none" stroke="red" d="M1327.27,-860.332C1295.98,-831.4 1260.9,-792.916 1240.39,-751 1176.51,-620.457 1289.05,-533.777 1189.39,-428 1163.8,-400.843 1130.77,-439.075 1107.39,-410 1103.21,-404.805 1103.15,-400.147 1107.39,-395 1133.87,-362.835 1172.91,-409.165 1199.39,-377 1240.35,-327.248 1232.41,-142.342 1199.39,-87 1182.53,-58.7393 1149.41,-41.5224 1121.35,-31.4849"/>
<polygon fill="red" stroke="red" points="1122.27,-28.101 1111.68,-28.2276 1120.04,-34.7352 1122.27,-28.101"/>
<text text-anchor="middle" x="1169.89" y="-398.8" font-family="Times New Roman,serif" font-size="14.00" fill="red"> &#160;&#160;press(&quot;BackKey&quot;) &#160;&#160;</text>
</g>
<!-- state_19&#45;&gt;state_19 -->
<g id="edge10" class="edge"><title>state_19&#45;&gt;state_19</title>
<path fill="none" stroke="black" d="M392.459,-577.915C403.085,-577.212 410.388,-575.573 410.388,-573 410.388,-571.352 407.391,-570.087 402.443,-569.205"/>
<polygon fill="black" stroke="black" points="402.787,-565.722 392.459,-568.085 402.006,-572.679 402.787,-565.722"/>
<text text-anchor="middle" x="448.388" y="-569.3" font-family="Times New Roman,serif" font-size="14.00"> &#160;&#160;click(&quot;a&quot;) &#160;&#160;</text>
</g>
<!-- state_19&#45;&gt;state_19 -->
<g id="edge11" class="edge"><title>state_19&#45;&gt;state_19</title>
<path fill="none" stroke="black" d="M392.491,-582.961C437.429,-585.174 486.388,-581.854 486.388,-573 486.388,-564.803 444.427,-561.349 402.542,-562.638"/>
<polygon fill="black" stroke="black" points="402.343,-559.143 392.491,-563.039 402.623,-566.137 402.343,-559.143"/>
<text text-anchor="middle" x="557.388" y="-569.3" font-family="Times New Roman,serif" font-size="14.00"> &#160;&#160;longClick(&quot;index=1&quot;) &#160;&#160;</text>
</g>
<!-- state_19&#45;&gt;state_19 -->
<g id="edge12" class="edge"><title>state_19&#45;&gt;state_19</title>
<path fill="none" stroke="black" d="M392.568,-585.077C482.915,-592.88 628.388,-588.854 628.388,-573 628.388,-557.718 493.238,-553.426 402.568,-560.124"/>
<polygon fill="black" stroke="black" points="402.257,-556.637 392.568,-560.923 402.815,-563.615 402.257,-556.637"/>
<text text-anchor="middle" x="685.888" y="-569.3" font-family="Times New Roman,serif" font-size="14.00"> &#160;&#160;click(&quot;index=1&quot;) &#160;&#160;</text>
</g>
<!-- state_19&#45;&gt;state_19 -->
<g id="edge13" class="edge"><title>state_19&#45;&gt;state_19</title>
<path fill="none" stroke="black" d="M392.657,-587.1C512.24,-600.084 743.388,-595.384 743.388,-573 743.388,-551.228 524.708,-546.186 402.71,-557.875"/>
<polygon fill="black" stroke="black" points="402.25,-554.404 392.657,-558.9 402.96,-561.367 402.25,-554.404"/>
<text text-anchor="middle" x="814.388" y="-569.3" font-family="Times New Roman,serif" font-size="14.00"> &#160;&#160;longClick(&quot;index=1&quot;) &#160;&#160;</text>
</g>
<!-- state_19&#45;&gt;state_19 -->
<g id="edge14" class="edge"><title>state_19&#45;&gt;state_19</title>
<path fill="none" stroke="black" d="M392.629,-588.528C543.045,-607.298 885.388,-602.122 885.388,-573 885.388,-544.504 557.597,-538.936 402.584,-556.295"/>
<polygon fill="black" stroke="black" points="402.149,-552.822 392.629,-557.472 402.971,-559.774 402.149,-552.822"/>
<text text-anchor="middle" x="938.388" y="-569.3" font-family="Times New Roman,serif" font-size="14.00"> &#160;&#160;swipe(&quot;Right&quot;) &#160;&#160;</text>
</g>
<!-- state_19&#45;&gt;state_19 -->
<g id="edge15" class="edge"><title>state_19&#45;&gt;state_19</title>
<path fill="none" stroke="black" d="M392.57,-590.15C563.718,-614.41 991.388,-608.693 991.388,-573 991.388,-537.986 579.851,-531.819 402.622,-554.497"/>
<polygon fill="black" stroke="black" points="402.013,-551.047 392.57,-555.85 402.947,-557.985 402.013,-551.047"/>
<text text-anchor="middle" x="1040.89" y="-569.3" font-family="Times New Roman,serif" font-size="14.00"> &#160;&#160;swipe(&quot;Left&quot;) &#160;&#160;</text>
</g>
<!-- state_19&#45;&gt;state_27 -->
<g id="edge16" class="edge"><title>state_19&#45;&gt;state_27</title>
<path fill="none" stroke="black" d="M262.335,-518.954C230.305,-489.784 193.49,-451.201 169.388,-410 164.981,-402.468 160.924,-394.534 157.191,-386.369"/>
<polygon fill="black" stroke="black" points="160.332,-384.817 153.113,-377.062 153.92,-387.626 160.332,-384.817"/>
<text text-anchor="middle" x="233.388" y="-398.8" font-family="Times New Roman,serif" font-size="14.00"> &#160;&#160;press(&quot;MenuKey&quot;) &#160;&#160;</text>
</g>
<!-- state_19&#45;&gt;activity_0 -->
<g id="edge17" class="edge"><title>state_19&#45;&gt;activity_0</title>
<path fill="none" stroke="red" d="M392.521,-487.109C407.912,-463.287 422.659,-436.597 432.388,-410 457.243,-342.049 425.303,-141.064 473.388,-87 509.241,-46.6877 875.378,-27.2385 1017.46,-21.1653"/>
<polygon fill="red" stroke="red" points="1017.85,-24.652 1027.69,-20.7344 1017.56,-17.6581 1017.85,-24.652"/>
<text text-anchor="middle" x="535.888" y="-228.3" font-family="Times New Roman,serif" font-size="14.00" fill="red"> &#160;&#160;press(&quot;BackKey&quot;) &#160;&#160;</text>
</g>
<!-- state_27&#45;&gt;state_19 -->
<g id="edge21" class="edge"><title>state_27&#45;&gt;state_19</title>
<path fill="none" stroke="black" d="M182.563,-274.678C222.188,-303.567 270.233,-345.639 297.388,-395 301.437,-402.36 304.966,-410.133 308.039,-418.149"/>
<polygon fill="black" stroke="black" points="304.778,-419.425 311.442,-427.662 311.369,-417.067 304.778,-419.425"/>
<text text-anchor="middle" x="365.888" y="-398.8" font-family="Times New Roman,serif" font-size="14.00"> &#160;&#160;press(&quot;BackKey&quot;) &#160;&#160;</text>
</g>
<!-- state_27&#45;&gt;state_19 -->
<g id="edge22" class="edge"><title>state_27&#45;&gt;state_19</title>
<path fill="none" stroke="black" d="M52.2466,-296.373C23.4802,-332.033 1.75962,-376.071 29.3875,-410 54.3197,-440.619 80.041,-412.571 116.388,-428 165.553,-448.87 215.157,-481.974 253.906,-511.181"/>
<polygon fill="black" stroke="black" points="251.93,-514.075 262.006,-517.349 256.171,-508.506 251.93,-514.075"/>
<text text-anchor="middle" x="93.3875" y="-398.8" font-family="Times New Roman,serif" font-size="14.00"> &#160;&#160;press(&quot;MenuKey&quot;) &#160;&#160;</text>
</g>
<!-- state_27&#45;&gt;state_27 -->
<g id="edge19" class="edge"><title>state_27&#45;&gt;state_27</title>
<path fill="none" stroke="black" d="M182.459,-246.746C193.085,-244.635 200.388,-239.72 200.388,-232 200.388,-226.934 197.243,-223.076 192.077,-220.425"/>
<polygon fill="black" stroke="black" points="193.052,-217.061 182.459,-217.254 190.861,-223.709 193.052,-217.061"/>
<text text-anchor="middle" x="253.388" y="-228.3" font-family="Times New Roman,serif" font-size="14.00"> &#160;&#160;swipe(&quot;Right&quot;) &#160;&#160;</text>
</g>
<!-- state_27&#45;&gt;state_27 -->
<g id="edge20" class="edge"><title>state_27&#45;&gt;state_27</title>
<path fill="none" stroke="black" d="M182.501,-260.524C238.291,-269.648 306.388,-260.14 306.388,-232 306.388,-205.509 246.037,-195.53 192.418,-202.064"/>
<polygon fill="black" stroke="black" points="191.908,-198.601 182.501,-203.476 192.894,-205.531 191.908,-198.601"/>
<text text-anchor="middle" x="355.888" y="-228.3" font-family="Times New Roman,serif" font-size="14.00"> &#160;&#160;swipe(&quot;Left&quot;) &#160;&#160;</text>
</g>
<!-- state_27&#45;&gt;activity_0 -->
<g id="edge18" class="edge"><title>state_27&#45;&gt;activity_0</title>
<path fill="none" stroke="red" d="M92.9023,-86.6428C96.4235,-74.5681 102.317,-63.4065 111.388,-54 142.94,-21.2786 815.848,-18.8959 1017.05,-18.9175"/>
<polygon fill="red" stroke="red" points="1017.11,-22.4174 1027.11,-18.9206 1017.12,-15.4174 1017.11,-22.4174"/>
<text text-anchor="middle" x="159.388" y="-57.8" font-family="Times New Roman,serif" font-size="14.00" fill="red"> &#160;&#160;click(&quot;大约&quot;) &#160;&#160;</text>
</g>
<!-- state_27&#45;&gt;activity_0 -->
<g id="edge23" class="edge"><title>state_27&#45;&gt;activity_0</title>
<path fill="none" stroke="red" d="M182.722,-96.0627C196.235,-79.3962 212.059,-64.5443 230.388,-54 264.444,-34.4075 833.71,-23.0692 1017.01,-19.9134"/>
<polygon fill="red" stroke="red" points="1017.3,-23.409 1027.24,-19.7388 1017.18,-16.41 1017.3,-23.409"/>
<text text-anchor="middle" x="278.388" y="-57.8" font-family="Times New Roman,serif" font-size="14.00" fill="red"> &#160;&#160;click(&quot;保存&quot;) &#160;&#160;</text>
</g>
<!-- state_27&#45;&gt;activity_0 -->
<g id="edge24" class="edge"><title>state_27&#45;&gt;activity_0</title>
<path fill="none" stroke="red" d="M182.558,-179.764C247.726,-128.764 339.661,-57.5505 349.388,-54 411.38,-31.3698 857.897,-22.3263 1017.15,-19.798"/>
<polygon fill="red" stroke="red" points="1017.27,-23.2966 1027.21,-19.6408 1017.16,-16.2974 1017.27,-23.2966"/>
<text text-anchor="middle" x="397.388" y="-57.8" font-family="Times New Roman,serif" font-size="14.00" fill="red"> &#160;&#160;click(&quot;删除&quot;) &#160;&#160;</text>
</g>
<!-- activity_0&#45;&gt;state_2 -->
<g id="edge25" class="edge"><title>activity_0&#45;&gt;state_2</title>
<path fill="none" stroke="red" d="M1117.32,-23.737C1154.99,-30.5244 1206.27,-47.0089 1226.39,-87 1291.15,-215.764 1229.91,-268.137 1255.39,-410 1276.74,-528.863 1313.05,-660.468 1342.93,-759.241"/>
<polygon fill="red" stroke="red" points="1339.64,-760.446 1345.89,-768.998 1346.33,-758.412 1339.64,-760.446"/>
<text text-anchor="middle" x="1312.89" y="-398.8" font-family="Times New Roman,serif" font-size="14.00" fill="red"> &#160;&#160;click(&quot;index=1&quot;) &#160;&#160;</text>
</g>
<!-- activity_0&#45;&gt;state_2 -->
<g id="edge28" class="edge"><title>activity_0&#45;&gt;state_2</title>
<path fill="none" stroke="red" d="M1118.66,-21.6854C1162.07,-26.97 1225.32,-42.388 1255.39,-87 1337.06,-208.164 1341.37,-251.79 1370.39,-395 1394.8,-515.487 1399.42,-654.85 1398.43,-758.654"/>
<polygon fill="red" stroke="red" points="1394.93,-758.864 1398.31,-768.904 1401.93,-758.945 1394.93,-758.864"/>
<text text-anchor="middle" x="1429.89" y="-398.8" font-family="Times New Roman,serif" font-size="14.00" fill="red"> &#160;&#160;click(&quot;index=1&quot;) &#160;&#160;</text>
</g>
<!-- activity_0&#45;&gt;state_2 -->
<g id="edge31" class="edge"><title>activity_0&#45;&gt;state_2</title>
<path fill="none" stroke="red" d="M1119.49,-19.5028C1174.75,-22.532 1267.05,-35.6432 1324.39,-87 1440.38,-190.891 1453.1,-244.064 1491.39,-395 1522.14,-516.238 1491.88,-655.591 1456.97,-759.201"/>
<polygon fill="red" stroke="red" points="1453.61,-758.204 1453.68,-768.799 1460.23,-760.469 1453.61,-758.204"/>
<text text-anchor="middle" x="1550.89" y="-398.8" font-family="Times New Roman,serif" font-size="14.00" fill="red"> &#160;&#160;click(&quot;index=1&quot;) &#160;&#160;</text>
</g>
<!-- activity_0&#45;&gt;state_2 -->
<g id="edge32" class="edge"><title>activity_0&#45;&gt;state_2</title>
<path fill="none" stroke="red" d="M1117.84,-22.9928C1199.94,-31.126 1371.28,-51.8766 1418.39,-87 1548.08,-183.705 1567.52,-239.567 1612.39,-395 1658.76,-555.63 1544.85,-732.959 1464.21,-832.895"/>
<polygon fill="red" stroke="red" points="1461.33,-830.879 1457.73,-840.842 1466.76,-835.3 1461.33,-830.879"/>
<text text-anchor="middle" x="1671.89" y="-398.8" font-family="Times New Roman,serif" font-size="14.00" fill="red"> &#160;&#160;click(&quot;index=1&quot;) &#160;&#160;</text>
</g>
<!-- activity_0&#45;&gt;state_2 -->
<g id="edge33" class="edge"><title>activity_0&#45;&gt;state_2</title>
<path fill="none" stroke="red" d="M1118.97,-20.968C1220.09,-26.0996 1459.43,-42.7047 1525.39,-87 1662.52,-179.087 1685.05,-237.051 1733.39,-395 1792.39,-587.788 1582.62,-775.693 1465.71,-862.708"/>
<polygon fill="red" stroke="red" points="1463.43,-860.044 1457.46,-868.798 1467.59,-865.676 1463.43,-860.044"/>
<text text-anchor="middle" x="1793.89" y="-398.8" font-family="Times New Roman,serif" font-size="14.00" fill="red"> &#160;&#160;click(&quot;index=0&quot;) &#160;&#160;</text>
</g>
<!-- activity_0&#45;&gt;state_2 -->
<g id="edge34" class="edge"><title>activity_0&#45;&gt;state_2</title>
<path fill="none" stroke="red" d="M1119.51,-19.4129C1238.72,-21.2726 1553.76,-31.4545 1639.39,-87 1779.65,-177.993 1805.05,-235.561 1855.39,-395 1926.88,-621.454 1614.57,-805.965 1466.5,-879.111"/>
<polygon fill="red" stroke="red" points="1464.87,-876.017 1457.42,-883.559 1467.94,-882.303 1464.87,-876.017"/>
<text text-anchor="middle" x="1915.89" y="-398.8" font-family="Times New Roman,serif" font-size="14.00" fill="red"> &#160;&#160;click(&quot;index=1&quot;) &#160;&#160;</text>
</g>
<!-- activity_0&#45;&gt;state_19 -->
<g id="edge26" class="edge"><title>activity_0&#45;&gt;state_19</title>
<path fill="none" stroke="red" d="M1027.21,-18.9821C925.08,-20.0202 685.078,-28.7465 634.388,-87 549.13,-184.977 664.637,-265.289 598.388,-377 553.158,-453.267 465.214,-508.016 401.756,-539.731"/>
<polygon fill="red" stroke="red" points="400.008,-536.689 392.579,-544.242 403.097,-542.971 400.008,-536.689"/>
<text text-anchor="middle" x="691.888" y="-228.3" font-family="Times New Roman,serif" font-size="14.00" fill="red"> &#160;&#160;click(&quot;index=1&quot;) &#160;&#160;</text>
</g>
<!-- activity_0&#45;&gt;state_19 -->
<g id="edge27" class="edge"><title>activity_0&#45;&gt;state_19</title>
<path fill="none" stroke="red" d="M1029.06,-23.2278C956.43,-31.13 816.962,-50.7147 785.388,-87 700.13,-184.977 825.98,-272.11 749.388,-377 666.184,-490.943 499.834,-540.2 402.69,-559.982"/>
<polygon fill="red" stroke="red" points="401.773,-556.596 392.644,-561.973 403.133,-563.463 401.773,-556.596"/>
<text text-anchor="middle" x="842.888" y="-228.3" font-family="Times New Roman,serif" font-size="14.00" fill="red"> &#160;&#160;click(&quot;index=0&quot;) &#160;&#160;</text>
</g>
<!-- activity_0&#45;&gt;state_19 -->
<g id="edge29" class="edge"><title>activity_0&#45;&gt;state_19</title>
<path fill="none" stroke="red" d="M1034.22,-27.6092C1002.5,-36.7474 959.426,-54.509 936.388,-87 861.263,-192.947 982.371,-276.267 900.388,-377 776.353,-529.401 527.797,-563.203 402.809,-570.353"/>
<polygon fill="red" stroke="red" points="402.367,-566.871 392.566,-570.895 402.737,-573.861 402.367,-566.871"/>
<text text-anchor="middle" x="993.888" y="-228.3" font-family="Times New Roman,serif" font-size="14.00" fill="red"> &#160;&#160;click(&quot;index=1&quot;) &#160;&#160;</text>
</g>
<!-- activity_0&#45;&gt;state_19 -->
<g id="edge30" class="edge"><title>activity_0&#45;&gt;state_19</title>
<path fill="none" stroke="red" d="M1074.88,-36.4023C1080.02,-100.76 1094.4,-324.296 1051.39,-377 968.758,-478.237 570.417,-540.62 402.396,-562.825"/>
<polygon fill="red" stroke="red" points="401.852,-559.366 392.392,-564.135 402.761,-566.307 401.852,-559.366"/>
<text text-anchor="middle" x="1137.89" y="-228.3" font-family="Times New Roman,serif" font-size="14.00" fill="red"> &#160;&#160;click(&quot;index=0&quot;) &#160;&#160;</text>
</g>
</g>
</svg>
