<?xml version="1.0" encoding="UTF-8" standalone="no"?>
<!DOCTYPE svg PUBLIC "-//W3C//DTD SVG 1.1//EN"
 "http://www.w3.org/Graphics/SVG/1.1/DTD/svg11.dtd">
<!-- Generated by graphviz version 2.38.0 (20140413.2041)
 -->
<!-- Title: result Pages: 1 -->
<svg width="612pt" height="758pt"
 viewBox="0.00 0.00 612.00 758.42" xmlns="http://www.w3.org/2000/svg" xmlns:xlink="http://www.w3.org/1999/xlink">
<g id="graph0" class="graph" transform="scale(1 1) rotate(0) translate(4 754.422)">
<title>result</title>
<polygon fill="white" stroke="none" points="-4,4 -4,-754.422 608,-754.422 608,4 -4,4"/>
<!-- initial -->
<g id="node1" class="node"><title>initial</title>
<image xlink:href="-1.png" width="50px" height="50px" preserveAspectRatio="xMinYMin meet" x="0" y="-396.422"/>
</g>
<!-- activity_0 -->
<g id="node2" class="node"><title>activity_0</title>
<g id="a_node2"><a xlink:href="activity_0.svg" xlink:title="&lt;TABLE&gt;">
<polygon fill="none" stroke="black" points="217,-508.922 87,-508.922 87,-233.922 217,-233.922 217,-508.922"/>
<text text-anchor="start" x="124.5" y="-497.222" font-family="Times New Roman,serif" font-size="14.00">activity_0</text>
<text text-anchor="start" x="121.5" y="-482.222" font-family="Times New Roman,serif" font-size="14.00">incoming:5</text>
<text text-anchor="start" x="119" y="-467.222" font-family="Times New Roman,serif" font-size="14.00">outgoing:14</text>
<image xlink:href="0.png" width="130px" height="230px" preserveAspectRatio="xMinYMin meet" x="87" y="-463.422"/>
</a>
</g>
</g>
<!-- initial&#45;&gt;activity_0 -->
<g id="edge1" class="edge"><title>initial&#45;&gt;activity_0</title>
<path fill="none" stroke="black" d="M50.1013,-371.422C57.9994,-371.422 67.2332,-371.422 76.8484,-371.422"/>
<polygon fill="black" stroke="black" points="76.9667,-374.923 86.9666,-371.422 76.9666,-367.923 76.9667,-374.923"/>
</g>
<!-- activity_1 -->
<g id="node3" class="node"><title>activity_1</title>
<g id="a_node3"><a xlink:href="activity_1.svg" xlink:title="&lt;TABLE&gt;">
<polygon fill="none" stroke="black" points="604,-584.922 474,-584.922 474,-309.922 604,-309.922 604,-584.922"/>
<text text-anchor="start" x="511.5" y="-573.222" font-family="Times New Roman,serif" font-size="14.00">activity_1</text>
<text text-anchor="start" x="505" y="-558.222" font-family="Times New Roman,serif" font-size="14.00">incoming:10</text>
<text text-anchor="start" x="509.5" y="-543.222" font-family="Times New Roman,serif" font-size="14.00">outgoing:5</text>
<image xlink:href="2.png" width="130px" height="230px" preserveAspectRatio="xMinYMin meet" x="474" y="-539.422"/>
</a>
</g>
</g>
<!-- activity_0&#45;&gt;activity_1 -->
<g id="edge2" class="edge"><title>activity_0&#45;&gt;activity_1</title>
<path fill="none" stroke="black" d="M171.333,-509.326C184.547,-585.138 205.324,-668.392 235,-691.422 312.596,-751.642 376.247,-748.756 456,-691.422 487.894,-668.494 507.553,-632.547 519.619,-595.223"/>
<polygon fill="black" stroke="black" points="523.109,-595.779 522.675,-585.193 516.413,-593.738 523.109,-595.779"/>
<text text-anchor="middle" x="345.5" y="-739.222" font-family="Times New Roman,serif" font-size="14.00"> &#160;&#160;&lt;a0.s0,click(&quot;index=1&quot;),a1.s2&gt; &#160;&#160;</text>
</g>
<!-- activity_0&#45;&gt;activity_1 -->
<g id="edge9" class="edge"><title>activity_0&#45;&gt;activity_1</title>
<path fill="none" stroke="black" d="M176.951,-509.301C190.825,-571.42 210.432,-634.981 235,-653.422 254.638,-668.164 435.678,-667.206 456,-653.422 477.539,-638.813 493.421,-617.552 505.131,-594.171"/>
<polygon fill="black" stroke="black" points="508.302,-595.651 509.418,-585.115 501.975,-592.656 508.302,-595.651"/>
<text text-anchor="middle" x="345.5" y="-667.222" font-family="Times New Roman,serif" font-size="14.00"> &#160;&#160;&lt;a0.s26,click(&quot;index=1&quot;),a1.s19&gt; &#160;&#160;</text>
</g>
<!-- activity_0&#45;&gt;activity_1 -->
<g id="edge10" class="edge"><title>activity_0&#45;&gt;activity_1</title>
<path fill="none" stroke="black" d="M168.325,-509.193C180.031,-550.018 200.256,-590.445 235,-615.422 254.938,-629.756 435.174,-628.432 456,-615.422 465.793,-609.305 474.448,-601.643 482.092,-592.984"/>
<polygon fill="black" stroke="black" points="484.902,-595.078 488.553,-585.131 479.497,-590.63 484.902,-595.078"/>
<text text-anchor="middle" x="345.5" y="-629.222" font-family="Times New Roman,serif" font-size="14.00"> &#160;&#160;&lt;a0.s26,click(&quot;index=0&quot;),a1.s19&gt; &#160;&#160;</text>
</g>
<!-- activity_0&#45;&gt;activity_1 -->
<g id="edge11" class="edge"><title>activity_0&#45;&gt;activity_1</title>
<path fill="none" stroke="black" d="M181.582,-509.115C193.614,-536.011 210.709,-560.947 235,-577.422 255.322,-591.206 434.498,-589.282 456,-577.422 459.414,-575.54 462.705,-573.448 465.876,-571.179"/>
<polygon fill="black" stroke="black" points="468.311,-573.716 473.993,-564.774 463.975,-568.221 468.311,-573.716"/>
<text text-anchor="middle" x="345.5" y="-590.222" font-family="Times New Roman,serif" font-size="14.00"> &#160;&#160;&lt;a0.s26,click(&quot;index=1&quot;),a1.s2&gt; &#160;&#160;</text>
</g>
<!-- activity_0&#45;&gt;activity_1 -->
<g id="edge13" class="edge"><title>activity_0&#45;&gt;activity_1</title>
<path fill="none" stroke="black" d="M202.447,-509.131C211.579,-521.021 222.338,-531.513 235,-539.422 276.652,-565.441 411.185,-559.511 456,-539.422 459.221,-537.978 462.368,-536.338 465.437,-534.534"/>
<polygon fill="black" stroke="black" points="467.405,-537.428 473.874,-529.037 463.584,-531.563 467.405,-537.428"/>
<text text-anchor="middle" x="345.5" y="-560.222" font-family="Times New Roman,serif" font-size="14.00"> &#160;&#160;&lt;a0.s42,click(&quot;index=1&quot;),a1.s19&gt; &#160;&#160;</text>
</g>
<!-- activity_0&#45;&gt;activity_1 -->
<g id="edge14" class="edge"><title>activity_0&#45;&gt;activity_1</title>
<path fill="none" stroke="black" d="M217.007,-488.774C222.583,-493.596 228.574,-497.878 235,-501.422 278.004,-525.141 408.956,-515.521 456,-501.422 458.926,-500.545 461.845,-499.527 464.742,-498.39"/>
<polygon fill="black" stroke="black" points="466.143,-501.598 473.908,-494.389 463.342,-495.182 466.143,-501.598"/>
<text text-anchor="middle" x="345.5" y="-519.222" font-family="Times New Roman,serif" font-size="14.00"> &#160;&#160;&lt;a0.s42,click(&quot;index=0&quot;),a1.s19&gt; &#160;&#160;</text>
</g>
<!-- activity_0&#45;&gt;activity_1 -->
<g id="edge15" class="edge"><title>activity_0&#45;&gt;activity_1</title>
<path fill="none" stroke="black" d="M217.126,-453.037C222.785,-457.084 228.752,-460.622 235,-463.422 279.815,-483.511 407.117,-468.147 456,-463.422 458.527,-463.178 461.091,-462.893 463.676,-462.573"/>
<polygon fill="black" stroke="black" points="464.29,-466.021 473.714,-461.181 463.328,-459.087 464.29,-466.021"/>
<text text-anchor="middle" x="345.5" y="-477.222" font-family="Times New Roman,serif" font-size="14.00"> &#160;&#160;&lt;a0.s42,click(&quot;index=1&quot;),a1.s2&gt; &#160;&#160;</text>
</g>
<!-- activity_0&#45;&gt;activity_1 -->
<g id="edge17" class="edge"><title>activity_0&#45;&gt;activity_1</title>
<path fill="none" stroke="black" d="M217.245,-417.911C223.07,-420.824 229.028,-423.394 235,-425.422 256.064,-432.577 380.966,-439.856 463.691,-443.989"/>
<polygon fill="black" stroke="black" points="463.65,-447.491 473.811,-444.489 463.996,-440.5 463.65,-447.491"/>
<text text-anchor="middle" x="345.5" y="-446.222" font-family="Times New Roman,serif" font-size="14.00"> &#160;&#160;&lt;a0.s39,click(&quot;index=1&quot;),a1.s2&gt; &#160;&#160;</text>
</g>
<!-- activity_0&#45;&gt;activity_1 -->
<g id="edge18" class="edge"><title>activity_0&#45;&gt;activity_1</title>
<path fill="none" stroke="black" d="M217.348,-384.653C223.302,-385.673 229.254,-386.617 235,-387.422 332.631,-401.104 361.112,-379.68 456,-406.422 458.638,-407.166 461.292,-407.995 463.948,-408.894"/>
<polygon fill="black" stroke="black" points="462.955,-412.259 473.548,-412.434 465.376,-405.691 462.955,-412.259"/>
<text text-anchor="middle" x="345.5" y="-410.222" font-family="Times New Roman,serif" font-size="14.00"> &#160;&#160;&lt;a0.s39,click(&quot;index=0&quot;),a1.s2&gt; &#160;&#160;</text>
</g>
<!-- activity_0&#45;&gt;activity_1 -->
<g id="edge19" class="edge"><title>activity_0&#45;&gt;activity_1</title>
<path fill="none" stroke="black" d="M217.234,-365.085C293.106,-358.588 414.286,-351.598 456,-368.422 459.071,-369.661 462.091,-371.076 465.053,-372.638"/>
<polygon fill="black" stroke="black" points="463.366,-375.706 473.763,-377.741 466.904,-369.666 463.366,-375.706"/>
<text text-anchor="middle" x="345.5" y="-372.222" font-family="Times New Roman,serif" font-size="14.00"> &#160;&#160;&lt;a0.s39,click(&quot;index=1&quot;),a1.s2&gt; &#160;&#160;</text>
</g>
<!-- final -->
<g id="node4" class="node"><title>final</title>
<image xlink:href="-2.png" width="50px" height="50px" preserveAspectRatio="xMinYMin meet" x="514" y="-111.422"/>
</g>
<!-- activity_0&#45;&gt;final -->
<g id="edge3" class="edge"><title>activity_0&#45;&gt;final</title>
<path fill="none" stroke="black" d="M178.859,-233.892C190.991,-202.552 208.815,-172.359 235,-151.422 312.419,-89.5217 360.446,-147.782 456,-121.422 472.524,-116.864 490.097,-109.7 504.719,-103.037"/>
<polygon fill="black" stroke="black" points="506.284,-106.169 513.861,-98.764 503.319,-99.828 506.284,-106.169"/>
<text text-anchor="middle" x="345.5" y="-155.222" font-family="Times New Roman,serif" font-size="14.00"> &#160;&#160;&lt;a0.s0,press(&quot;BackKey&quot;),final&gt; &#160;&#160;</text>
</g>
<!-- activity_0&#45;&gt;final -->
<g id="edge12" class="edge"><title>activity_0&#45;&gt;final</title>
<path fill="none" stroke="black" d="M179.737,-233.718C193.769,-176.737 212.696,-119.87 235,-102.422 255.712,-86.2201 428.458,-85.559 503.464,-86.0524"/>
<polygon fill="black" stroke="black" points="503.765,-89.5547 513.792,-86.1318 503.819,-82.5549 503.765,-89.5547"/>
<text text-anchor="middle" x="345.5" y="-106.222" font-family="Times New Roman,serif" font-size="14.00"> &#160;&#160;&lt;a0.s26,press(&quot;BackKey&quot;),final&gt; &#160;&#160;</text>
</g>
<!-- activity_0&#45;&gt;final -->
<g id="edge16" class="edge"><title>activity_0&#45;&gt;final</title>
<path fill="none" stroke="black" d="M173.489,-233.721C187.048,-163.513 207.444,-88.5307 235,-67.4225 273.987,-37.558 407.207,-61.8435 456,-67.4225 471.889,-69.2392 489.178,-72.9749 503.767,-76.6568"/>
<polygon fill="black" stroke="black" points="503.294,-80.1509 513.855,-79.3002 505.068,-73.3795 503.294,-80.1509"/>
<text text-anchor="middle" x="345.5" y="-71.2225" font-family="Times New Roman,serif" font-size="14.00"> &#160;&#160;&lt;a0.s42,press(&quot;BackKey&quot;),final&gt; &#160;&#160;</text>
</g>
<!-- activity_0&#45;&gt;final -->
<g id="edge20" class="edge"><title>activity_0&#45;&gt;final</title>
<path fill="none" stroke="black" d="M169.222,-233.563C181.987,-151.88 203.043,-59.5363 235,-34.4225 312.229,26.268 361.673,-7.03526 456,-34.4225 473.696,-39.5605 491.231,-49.7918 505.516,-59.8299"/>
<polygon fill="black" stroke="black" points="503.824,-62.9293 513.962,-66.0078 507.957,-57.2792 503.824,-62.9293"/>
<text text-anchor="middle" x="345.5" y="-38.2225" font-family="Times New Roman,serif" font-size="14.00"> &#160;&#160;&lt;a0.s39,press(&quot;BackKey&quot;),final&gt; &#160;&#160;</text>
</g>
<!-- activity_1&#45;&gt;activity_0 -->
<g id="edge4" class="edge"><title>activity_1&#45;&gt;activity_0</title>
<path fill="none" stroke="black" d="M473.976,-346.206C468.361,-341.671 462.37,-337.671 456,-334.422 412.248,-312.114 283.012,-324.092 235,-334.422 232.209,-335.023 229.398,-335.727 226.585,-336.515"/>
<polygon fill="black" stroke="black" points="225.536,-333.176 217.035,-339.499 227.623,-339.857 225.536,-333.176"/>
<text text-anchor="middle" x="345.5" y="-338.222" font-family="Times New Roman,serif" font-size="14.00"> &#160;&#160;&lt;a1.s2,press(&quot;BackKey&quot;),a0.s39&gt; &#160;&#160;</text>
</g>
<!-- activity_1&#45;&gt;activity_0 -->
<g id="edge5" class="edge"><title>activity_1&#45;&gt;activity_0</title>
<path fill="none" stroke="black" d="M473.772,-315.489C468.285,-310.552 462.37,-306.138 456,-302.422 413.578,-277.677 281.138,-285.594 235,-302.422 232.037,-303.503 229.106,-304.744 226.217,-306.118"/>
<polygon fill="black" stroke="black" points="224.339,-303.152 217.143,-310.928 227.618,-309.337 224.339,-303.152"/>
<text text-anchor="middle" x="345.5" y="-306.222" font-family="Times New Roman,serif" font-size="14.00"> &#160;&#160;&lt;a1.s19,press(&quot;BackKey&quot;),a0.s26&gt; &#160;&#160;</text>
</g>
<!-- activity_1&#45;&gt;activity_0 -->
<g id="edge6" class="edge"><title>activity_1&#45;&gt;activity_0</title>
<path fill="none" stroke="black" d="M496.504,-309.855C485.889,-293.07 472.606,-278.105 456,-267.422 414.698,-240.852 279.188,-245.992 235,-267.422 231.746,-269 228.583,-270.777 225.511,-272.722"/>
<polygon fill="black" stroke="black" points="223.275,-270.015 217.098,-278.623 227.295,-275.746 223.275,-270.015"/>
<text text-anchor="middle" x="345.5" y="-271.222" font-family="Times New Roman,serif" font-size="14.00"> &#160;&#160;&lt;a1.s27,click(&quot;大约&quot;),a0.s7&gt; &#160;&#160;</text>
</g>
<!-- activity_1&#45;&gt;activity_0 -->
<g id="edge7" class="edge"><title>activity_1&#45;&gt;activity_0</title>
<path fill="none" stroke="black" d="M514.186,-309.765C502.026,-278.335 483.678,-248.583 456,-229.422 415.62,-201.469 277.533,-204.869 235,-229.422 231.494,-231.446 228.125,-233.683 224.888,-236.104"/>
<polygon fill="black" stroke="black" points="222.625,-233.433 217.112,-242.48 227.064,-238.846 222.625,-233.433"/>
<text text-anchor="middle" x="345.5" y="-233.222" font-family="Times New Roman,serif" font-size="14.00"> &#160;&#160;&lt;a1.s27,click(&quot;保存&quot;),a0.s42&gt; &#160;&#160;</text>
</g>
<!-- activity_1&#45;&gt;activity_0 -->
<g id="edge8" class="edge"><title>activity_1&#45;&gt;activity_0</title>
<path fill="none" stroke="black" d="M526.308,-309.893C515.118,-264.444 494.289,-218.397 456,-190.422 416.345,-161.45 276.275,-163.809 235,-190.422 221.074,-199.402 209.487,-211.383 199.852,-224.924"/>
<polygon fill="black" stroke="black" points="196.74,-223.283 194.101,-233.544 202.563,-227.168 196.74,-223.283"/>
<text text-anchor="middle" x="345.5" y="-194.222" font-family="Times New Roman,serif" font-size="14.00"> &#160;&#160;&lt;a1.s27,click(&quot;删除&quot;),a0.s42&gt; &#160;&#160;</text>
</g>
</g>
</svg>
