<?xml version="1.0" encoding="UTF-8" standalone="no"?>
<!DOCTYPE svg PUBLIC "-//W3C//DTD SVG 1.1//EN"
 "http://www.w3.org/Graphics/SVG/1.1/DTD/svg11.dtd">
<!-- Generated by graphviz version 2.38.0 (20140413.2041)
 -->
<!-- Title: g Pages: 1 -->
<svg width="3005pt" height="1740pt"
 viewBox="0.00 0.00 3005.00 1740.00" xmlns="http://www.w3.org/2000/svg" xmlns:xlink="http://www.w3.org/1999/xlink">
<g id="graph0" class="graph" transform="scale(1 1) rotate(0) translate(4 1736)">
<title>g</title>
<polygon fill="white" stroke="none" points="-4,4 -4,-1736 3001,-1736 3001,4 -4,4"/>
<g id="clust1" class="cluster"><title>cluster_0</title>
<polygon fill="none" stroke="red" points="295,-8 295,-1724 1589,-1724 1589,-8 295,-8"/>
<text text-anchor="middle" x="942" y="-1708.8" font-family="Times New Roman,serif" font-size="14.00" fill="red"> &#160;&#160;activity_0 &#160;&#160;</text>
</g>
<g id="clust2" class="cluster"><title>cluster_1</title>
<polygon fill="none" stroke="red" points="1597,-289 1597,-1141 2695,-1141 2695,-289 1597,-289"/>
<text text-anchor="middle" x="2146" y="-1125.8" font-family="Times New Roman,serif" font-size="14.00" fill="red"> &#160;&#160;activity_1 &#160;&#160;</text>
</g>
<g id="clust3" class="cluster"><title>cluster_2</title>
<polygon fill="none" stroke="red" points="111,-289 111,-558 257,-558 257,-289 111,-289"/>
<text text-anchor="middle" x="184" y="-542.8" font-family="Times New Roman,serif" font-size="14.00" fill="red"> &#160;&#160;activity_2 &#160;&#160;</text>
</g>
<!-- state_0 -->
<g id="node1" class="node"><title>state_0</title>
<g id="a_node1"><a xlink:href="0.png">
<polygon fill="none" stroke="black" points="581,-829 451,-829 451,-599 581,-599 581,-829"/>
<image xlink:href="0.png" width="130px" height="230px" preserveAspectRatio="xMinYMin meet" x="451" y="-829"/>
</a>
</g>
</g>
<!-- state_0&#45;&gt;state_0 -->
<g id="edge1" class="edge"><title>state_0&#45;&gt;state_0</title>
<path fill="none" stroke="black" d="M581.072,-722.096C591.697,-720.937 599,-718.238 599,-714 599,-711.285 596.003,-709.202 591.055,-707.75"/>
<polygon fill="black" stroke="black" points="591.541,-704.281 581.072,-705.904 590.269,-711.164 591.541,-704.281"/>
<text text-anchor="middle" x="670" y="-710.3" font-family="Times New Roman,serif" font-size="14.00"> &#160;&#160;longClick(&quot;index=1&quot;) &#160;&#160;</text>
</g>
<!-- state_0&#45;&gt;state_0 -->
<g id="edge2" class="edge"><title>state_0&#45;&gt;state_0</title>
<path fill="none" stroke="black" d="M581.098,-728.856C648.758,-735.153 741,-730.201 741,-714 741,-698.59 657.546,-693.357 591.171,-698.302"/>
<polygon fill="black" stroke="black" points="590.772,-694.823 581.098,-699.144 591.355,-701.798 590.772,-694.823"/>
<text text-anchor="middle" x="794" y="-710.3" font-family="Times New Roman,serif" font-size="14.00"> &#160;&#160;swipe(&quot;Right&quot;) &#160;&#160;</text>
</g>
<!-- state_0&#45;&gt;state_0 -->
<g id="edge3" class="edge"><title>state_0&#45;&gt;state_0</title>
<path fill="none" stroke="black" d="M581.011,-733.218C679.262,-746.964 847,-740.558 847,-714 847,-688.324 690.216,-681.484 591.019,-693.479"/>
<polygon fill="black" stroke="black" points="590.476,-690.021 581.011,-694.782 591.38,-696.962 590.476,-690.021"/>
<text text-anchor="middle" x="896.5" y="-710.3" font-family="Times New Roman,serif" font-size="14.00"> &#160;&#160;swipe(&quot;Left&quot;) &#160;&#160;</text>
</g>
<!-- state_6 -->
<g id="node2" class="node"><title>state_6</title>
<g id="a_node2"><a xlink:href="6.png">
<polygon fill="none" stroke="black" points="717,-527 587,-527 587,-297 717,-297 717,-527"/>
<image xlink:href="6.png" width="130px" height="230px" preserveAspectRatio="xMinYMin meet" x="587" y="-527"/>
</a>
</g>
</g>
<!-- state_0&#45;&gt;state_6 -->
<g id="edge4" class="edge"><title>state_0&#45;&gt;state_6</title>
<path fill="none" stroke="black" d="M486.877,-598.846C488.894,-586.772 493.552,-575.469 502,-566 512.424,-554.317 558.992,-566.714 572,-558 581.422,-551.688 589.84,-543.879 597.34,-535.184"/>
<polygon fill="black" stroke="black" points="600.126,-537.305 603.696,-527.33 594.684,-532.901 600.126,-537.305"/>
<text text-anchor="middle" x="566" y="-569.8" font-family="Times New Roman,serif" font-size="14.00"> &#160;&#160;press(&quot;MenuKey&quot;) &#160;&#160;</text>
</g>
<!-- state_2 -->
<g id="node8" class="node"><title>state_2</title>
<g id="a_node8"><a xlink:href="2.png">
<polygon fill="none" stroke="black" points="1735,-1110 1605,-1110 1605,-880 1735,-880 1735,-1110"/>
<image xlink:href="2.png" width="130px" height="230px" preserveAspectRatio="xMinYMin meet" x="1605" y="-1110"/>
</a>
</g>
</g>
<!-- state_0&#45;&gt;state_2 -->
<g id="edge5" class="edge"><title>state_0&#45;&gt;state_2</title>
<path fill="none" stroke="black" d="M581.151,-719.799C774.667,-734.645 1343.36,-782.73 1517,-847 1528.45,-851.236 1529.03,-856.663 1540,-862 1562.37,-872.88 1573.23,-864.904 1593,-880 1594.4,-881.071 1595.79,-882.175 1597.16,-883.31"/>
<polygon fill="black" stroke="black" points="1595.01,-886.088 1604.81,-890.121 1599.67,-880.859 1595.01,-886.088"/>
<text text-anchor="middle" x="1597.5" y="-850.8" font-family="Times New Roman,serif" font-size="14.00"> &#160;&#160;click(&quot;index=1&quot;) &#160;&#160;</text>
</g>
<!-- state_final -->
<g id="node11" class="node"><title>state_final</title>
<g id="a_node11"><a xlink:href="-2.png">
<polygon fill="none" stroke="black" points="249,-527 119,-527 119,-297 249,-297 249,-527"/>
<image xlink:href="-2.png" width="76px" height="74px" preserveAspectRatio="xMinYMin meet" x="146" y="-449"/>
</a>
</g>
</g>
<!-- state_0&#45;&gt;state_final -->
<g id="edge6" class="edge"><title>state_0&#45;&gt;state_final</title>
<path fill="none" stroke="black" d="M450.675,-676.035C403.33,-647.414 339.396,-604.848 291,-558 278.692,-546.086 266.754,-532.635 255.591,-518.849"/>
<polygon fill="black" stroke="black" points="258.075,-516.35 249.111,-510.703 252.597,-520.708 258.075,-516.35"/>
<text text-anchor="middle" x="375.5" y="-569.8" font-family="Times New Roman,serif" font-size="14.00"> &#160;&#160;press(&quot;BackKey&quot;) &#160;&#160;</text>
</g>
<!-- state_6&#45;&gt;state_0 -->
<g id="edge10" class="edge"><title>state_6&#45;&gt;state_0</title>
<path fill="none" stroke="black" d="M646.18,-527.093C642.677,-545.624 637.518,-564.223 630,-581 619.77,-603.829 604.27,-625.671 587.966,-644.786"/>
<polygon fill="black" stroke="black" points="585.144,-642.696 581.194,-652.526 590.413,-647.305 585.144,-642.696"/>
<text text-anchor="middle" x="698.5" y="-569.8" font-family="Times New Roman,serif" font-size="14.00"> &#160;&#160;press(&quot;BackKey&quot;) &#160;&#160;</text>
</g>
<!-- state_6&#45;&gt;state_0 -->
<g id="edge11" class="edge"><title>state_6&#45;&gt;state_0</title>
<path fill="none" stroke="black" d="M717.02,-459.965C754.711,-493.204 790.19,-539.135 765,-581 727.484,-643.349 649.522,-677.805 590.768,-695.734"/>
<polygon fill="black" stroke="black" points="589.744,-692.387 581.145,-698.576 591.727,-699.1 589.744,-692.387"/>
<text text-anchor="middle" x="836" y="-569.8" font-family="Times New Roman,serif" font-size="14.00"> &#160;&#160;press(&quot;MenuKey&quot;) &#160;&#160;</text>
</g>
<!-- state_6&#45;&gt;state_6 -->
<g id="edge8" class="edge"><title>state_6&#45;&gt;state_6</title>
<path fill="none" stroke="black" d="M717.072,-424.144C727.697,-422.405 735,-418.357 735,-412 735,-407.927 732.003,-404.802 727.055,-402.625"/>
<polygon fill="black" stroke="black" points="727.643,-399.156 717.072,-399.856 725.773,-405.902 727.643,-399.156"/>
<text text-anchor="middle" x="788" y="-408.3" font-family="Times New Roman,serif" font-size="14.00"> &#160;&#160;swipe(&quot;Right&quot;) &#160;&#160;</text>
</g>
<!-- state_6&#45;&gt;state_6 -->
<g id="edge9" class="edge"><title>state_6&#45;&gt;state_6</title>
<path fill="none" stroke="black" d="M717.113,-435.491C772.904,-443.004 841,-435.174 841,-412 841,-390.229 780.9,-382 727.364,-387.313"/>
<polygon fill="black" stroke="black" points="726.64,-383.874 717.113,-388.509 727.451,-390.827 726.64,-383.874"/>
<text text-anchor="middle" x="890.5" y="-408.3" font-family="Times New Roman,serif" font-size="14.00"> &#160;&#160;swipe(&quot;Left&quot;) &#160;&#160;</text>
</g>
<!-- state_7 -->
<g id="node3" class="node"><title>state_7</title>
<g id="a_node3"><a xlink:href="7.png">
<polygon fill="none" stroke="black" points="973,-246 843,-246 843,-16 973,-16 973,-246"/>
<image xlink:href="7.png" width="130px" height="230px" preserveAspectRatio="xMinYMin meet" x="843" y="-246"/>
</a>
</g>
</g>
<!-- state_6&#45;&gt;state_7 -->
<g id="edge7" class="edge"><title>state_6&#45;&gt;state_7</title>
<path fill="none" stroke="black" d="M717.262,-339.875C753.521,-300.358 798.703,-251.116 835.991,-210.479"/>
<polygon fill="black" stroke="black" points="838.675,-212.73 842.857,-202.995 833.517,-207.997 838.675,-212.73"/>
<text text-anchor="middle" x="828" y="-267.8" font-family="Times New Roman,serif" font-size="14.00"> &#160;&#160;click(&quot;大约&quot;) &#160;&#160;</text>
</g>
<!-- state_7&#45;&gt;state_0 -->
<g id="edge12" class="edge"><title>state_7&#45;&gt;state_0</title>
<path fill="none" stroke="black" d="M842.704,-134.57C746.109,-142.311 567.862,-172.543 487,-289 426.807,-375.689 442.932,-497.875 468.883,-588.826"/>
<polygon fill="black" stroke="black" points="465.588,-590.026 471.756,-598.64 472.306,-588.06 465.588,-590.026"/>
<text text-anchor="middle" x="532.5" y="-408.3" font-family="Times New Roman,serif" font-size="14.00"> &#160;&#160;click(&quot;OK&quot;) &#160;&#160;</text>
</g>
<!-- state_7&#45;&gt;state_0 -->
<g id="edge15" class="edge"><title>state_7&#45;&gt;state_0</title>
<path fill="none" stroke="black" d="M964.093,-246.205C1000.52,-338.35 1030.55,-467.144 967,-558 882.266,-679.138 696.332,-706.698 591.589,-712.286"/>
<polygon fill="black" stroke="black" points="591.223,-708.799 581.402,-712.774 591.558,-715.791 591.223,-708.799"/>
<text text-anchor="middle" x="1067.5" y="-408.3" font-family="Times New Roman,serif" font-size="14.00"> &#160;&#160;press(&quot;BackKey&quot;) &#160;&#160;</text>
</g>
<!-- state_7&#45;&gt;state_7 -->
<g id="edge13" class="edge"><title>state_7&#45;&gt;state_7</title>
<path fill="none" stroke="black" d="M973.072,-139.096C983.697,-137.937 991,-135.238 991,-131 991,-128.285 988.003,-126.202 983.055,-124.75"/>
<polygon fill="black" stroke="black" points="983.541,-121.281 973.072,-122.904 982.269,-128.164 983.541,-121.281"/>
<text text-anchor="middle" x="1044" y="-127.3" font-family="Times New Roman,serif" font-size="14.00"> &#160;&#160;swipe(&quot;Right&quot;) &#160;&#160;</text>
</g>
<!-- state_7&#45;&gt;state_7 -->
<g id="edge14" class="edge"><title>state_7&#45;&gt;state_7</title>
<path fill="none" stroke="black" d="M973.113,-146.66C1028.9,-151.669 1097,-146.449 1097,-131 1097,-116.486 1036.9,-111 983.364,-114.542"/>
<polygon fill="black" stroke="black" points="982.812,-111.075 973.113,-115.34 983.355,-118.053 982.812,-111.075"/>
<text text-anchor="middle" x="1146.5" y="-127.3" font-family="Times New Roman,serif" font-size="14.00"> &#160;&#160;swipe(&quot;Left&quot;) &#160;&#160;</text>
</g>
<!-- state_7&#45;&gt;state_7 -->
<g id="edge16" class="edge"><title>state_7&#45;&gt;state_7</title>
<path fill="none" stroke="black" d="M973.143,-151.19C1059.93,-163.638 1196,-156.908 1196,-131 1196,-106.079 1070.09,-98.9022 983.263,-109.471"/>
<polygon fill="black" stroke="black" points="982.597,-106.028 973.143,-110.81 983.516,-112.968 982.597,-106.028"/>
<text text-anchor="middle" x="1260" y="-127.3" font-family="Times New Roman,serif" font-size="14.00"> &#160;&#160;press(&quot;MenuKey&quot;) &#160;&#160;</text>
</g>
<!-- state_26 -->
<g id="node4" class="node"><title>state_26</title>
<g id="a_node4"><a xlink:href="26.png">
<polygon fill="none" stroke="black" points="830,-1693 700,-1693 700,-1463 830,-1463 830,-1693"/>
<image xlink:href="26.png" width="130px" height="230px" preserveAspectRatio="xMinYMin meet" x="700" y="-1693"/>
</a>
</g>
</g>
<!-- state_26&#45;&gt;state_6 -->
<g id="edge49" class="edge"><title>state_26&#45;&gt;state_6</title>
<path fill="none" stroke="black" d="M699.864,-1560.32C632.151,-1538.91 530.741,-1494.3 492,-1412 470.185,-1365.66 496.608,-1229.32 477,-1182 467.717,-1159.6 449.549,-1163.69 441,-1141 436.554,-1129.2 438.959,-604.756 442,-599 454.093,-576.109 465.633,-574.744 490,-566 509.316,-559.069 565.108,-569.653 582,-558 591.073,-551.741 599.011,-543.971 605.949,-535.302"/>
<polygon fill="black" stroke="black" points="608.885,-537.22 612.044,-527.107 603.268,-533.043 608.885,-537.22"/>
<text text-anchor="middle" x="505" y="-991.3" font-family="Times New Roman,serif" font-size="14.00"> &#160;&#160;press(&quot;MenuKey&quot;) &#160;&#160;</text>
</g>
<!-- state_42 -->
<g id="node5" class="node"><title>state_42</title>
<g id="a_node5"><a xlink:href="42.png">
<polygon fill="none" stroke="black" points="631,-1412 501,-1412 501,-1182 631,-1182 631,-1412"/>
<image xlink:href="42.png" width="130px" height="230px" preserveAspectRatio="xMinYMin meet" x="501" y="-1412"/>
</a>
</g>
</g>
<!-- state_26&#45;&gt;state_42 -->
<g id="edge42" class="edge"><title>state_26&#45;&gt;state_42</title>
<path fill="none" stroke="black" d="M699.88,-1559.17C645.593,-1540.47 571.725,-1505.23 537,-1445 532.889,-1437.87 530.237,-1430.26 528.747,-1422.39"/>
<polygon fill="black" stroke="black" points="532.197,-1421.78 527.457,-1412.3 525.254,-1422.67 532.197,-1421.78"/>
<text text-anchor="middle" x="608" y="-1433.8" font-family="Times New Roman,serif" font-size="14.00"> &#160;&#160;longClick(&quot;index=1&quot;) &#160;&#160;</text>
</g>
<!-- state_26&#45;&gt;state_42 -->
<g id="edge46" class="edge"><title>state_26&#45;&gt;state_42</title>
<path fill="none" stroke="black" d="M701.024,-1462.95C693.867,-1451.64 686.459,-1440.48 679,-1430 666.407,-1412.31 651.963,-1394.13 637.704,-1377.14"/>
<polygon fill="black" stroke="black" points="640.304,-1374.8 631.173,-1369.43 634.961,-1379.32 640.304,-1374.8"/>
<text text-anchor="middle" x="740" y="-1433.8" font-family="Times New Roman,serif" font-size="14.00"> &#160;&#160;swipe(&quot;Right&quot;) &#160;&#160;</text>
</g>
<!-- state_26&#45;&gt;state_42 -->
<g id="edge47" class="edge"><title>state_26&#45;&gt;state_42</title>
<path fill="none" stroke="black" d="M806.404,-1462.75C805.736,-1451.3 802.899,-1440.17 797,-1430 763.592,-1372.43 694.604,-1337.85 640.676,-1318.62"/>
<polygon fill="black" stroke="black" points="641.731,-1315.28 631.136,-1315.32 639.442,-1321.89 641.731,-1315.28"/>
<text text-anchor="middle" x="853.5" y="-1433.8" font-family="Times New Roman,serif" font-size="14.00"> &#160;&#160;swipe(&quot;Left&quot;) &#160;&#160;</text>
</g>
<!-- state_46 -->
<g id="node6" class="node"><title>state_46</title>
<g id="a_node6"><a xlink:href="46.png">
<polygon fill="none" stroke="black" points="708,-1110 578,-1110 578,-880 708,-880 708,-1110"/>
<image xlink:href="46.png" width="130px" height="230px" preserveAspectRatio="xMinYMin meet" x="578" y="-1110"/>
</a>
</g>
</g>
<!-- state_26&#45;&gt;state_46 -->
<g id="edge44" class="edge"><title>state_26&#45;&gt;state_46</title>
<path fill="none" stroke="black" d="M699.698,-1572.76C604.109,-1562.62 428.907,-1528.29 350,-1412 292.603,-1327.41 287.312,-1262.74 350,-1182 386.292,-1135.26 420.695,-1159.14 479,-1149 497.692,-1145.75 548.16,-1151.44 564,-1141 573.533,-1134.71 582.012,-1126.87 589.535,-1118.12"/>
<polygon fill="black" stroke="black" points="592.362,-1120.19 595.901,-1110.2 586.907,-1115.8 592.362,-1120.19"/>
<text text-anchor="middle" x="421" y="-1293.3" font-family="Times New Roman,serif" font-size="14.00"> &#160;&#160;longClick(&quot;index=0&quot;) &#160;&#160;</text>
</g>
<!-- state_26&#45;&gt;state_2 -->
<g id="edge45" class="edge"><title>state_26&#45;&gt;state_2</title>
<path fill="none" stroke="black" d="M830.062,-1571.13C971.986,-1556.81 1318.42,-1513.53 1590,-1412 1798.45,-1334.07 1913.2,-1356.43 2025,-1164 2089.38,-1053.18 1867.84,-1014.53 1745.53,-1001.81"/>
<polygon fill="black" stroke="black" points="1745.76,-998.314 1735.46,-1000.8 1745.06,-1005.28 1745.76,-998.314"/>
<text text-anchor="middle" x="2071.5" y="-1293.3" font-family="Times New Roman,serif" font-size="14.00"> &#160;&#160;click(&quot;index=1&quot;) &#160;&#160;</text>
</g>
<!-- state_19 -->
<g id="node9" class="node"><title>state_19</title>
<g id="a_node9"><a xlink:href="19.png">
<polygon fill="none" stroke="black" points="1899,-829 1769,-829 1769,-599 1899,-599 1899,-829"/>
<image xlink:href="19.png" width="130px" height="230px" preserveAspectRatio="xMinYMin meet" x="1769" y="-829"/>
</a>
</g>
</g>
<!-- state_26&#45;&gt;state_19 -->
<g id="edge41" class="edge"><title>state_26&#45;&gt;state_19</title>
<path fill="none" stroke="black" d="M830.335,-1574.13C1091.32,-1562.06 2058.86,-1511.38 2347,-1412 2546.17,-1343.31 2648.12,-1347.86 2751,-1164 2820.86,-1039.14 2827.19,-901.716 2695,-847 2421.65,-733.857 2063.28,-716.553 1909.46,-714.684"/>
<polygon fill="black" stroke="black" points="1909.22,-711.181 1899.18,-714.579 1909.14,-718.181 1909.22,-711.181"/>
<text text-anchor="middle" x="2815.5" y="-1152.8" font-family="Times New Roman,serif" font-size="14.00"> &#160;&#160;click(&quot;index=1&quot;) &#160;&#160;</text>
</g>
<!-- state_26&#45;&gt;state_19 -->
<g id="edge43" class="edge"><title>state_26&#45;&gt;state_19</title>
<path fill="none" stroke="black" d="M830.093,-1576.03C1112.77,-1571.07 2234.13,-1543.32 2557,-1412 2723.67,-1344.21 2797.81,-1325.57 2877,-1164 2945.94,-1023.35 2872.38,-894.115 2723,-847 2431.34,-755.011 2065.18,-726.505 1909.56,-718.195"/>
<polygon fill="black" stroke="black" points="1909.33,-714.679 1899.17,-717.654 1908.97,-721.669 1909.33,-714.679"/>
<text text-anchor="middle" x="2939.5" y="-1152.8" font-family="Times New Roman,serif" font-size="14.00"> &#160;&#160;click(&quot;index=0&quot;) &#160;&#160;</text>
</g>
<!-- state_26&#45;&gt;state_final -->
<g id="edge48" class="edge"><title>state_26&#45;&gt;state_final</title>
<path fill="none" stroke="black" d="M699.777,-1567.59C514.778,-1539.09 0,-1446.44 0,-1298 0,-1298 0,-1298 0,-713 0,-623.389 60.3936,-537.988 111.981,-481.386"/>
<polygon fill="black" stroke="black" points="114.648,-483.656 118.87,-473.939 109.51,-478.903 114.648,-483.656"/>
<text text-anchor="middle" x="62.5" y="-991.3" font-family="Times New Roman,serif" font-size="14.00"> &#160;&#160;press(&quot;BackKey&quot;) &#160;&#160;</text>
</g>
<!-- state_42&#45;&gt;state_6 -->
<g id="edge58" class="edge"><title>state_42&#45;&gt;state_6</title>
<path fill="none" stroke="black" d="M631.391,-1280.05C733.236,-1253.69 921.855,-1198.24 958,-1141 992.909,-1085.72 939.903,-905.547 969,-847 974.623,-835.687 985.59,-840.416 991,-829 1034.77,-736.625 1043.07,-686.965 991,-599 934.151,-502.965 808.18,-453.221 726.833,-430.145"/>
<polygon fill="black" stroke="black" points="727.713,-426.757 717.142,-427.461 725.845,-433.503 727.713,-426.757"/>
<text text-anchor="middle" x="1033" y="-850.8" font-family="Times New Roman,serif" font-size="14.00"> &#160;&#160;press(&quot;MenuKey&quot;) &#160;&#160;</text>
</g>
<!-- state_42&#45;&gt;state_42 -->
<g id="edge51" class="edge"><title>state_42&#45;&gt;state_42</title>
<path fill="none" stroke="black" d="M631.072,-1305.1C641.697,-1303.94 649,-1301.24 649,-1297 649,-1294.28 646.003,-1292.2 641.055,-1290.75"/>
<polygon fill="black" stroke="black" points="641.541,-1287.28 631.072,-1288.9 640.269,-1294.16 641.541,-1287.28"/>
<text text-anchor="middle" x="720" y="-1293.3" font-family="Times New Roman,serif" font-size="14.00"> &#160;&#160;longClick(&quot;index=1&quot;) &#160;&#160;</text>
</g>
<!-- state_42&#45;&gt;state_42 -->
<g id="edge55" class="edge"><title>state_42&#45;&gt;state_42</title>
<path fill="none" stroke="black" d="M631.098,-1311.86C698.758,-1318.15 791,-1313.2 791,-1297 791,-1281.59 707.546,-1276.36 641.171,-1281.3"/>
<polygon fill="black" stroke="black" points="640.772,-1277.82 631.098,-1282.14 641.355,-1284.8 640.772,-1277.82"/>
<text text-anchor="middle" x="844" y="-1293.3" font-family="Times New Roman,serif" font-size="14.00"> &#160;&#160;swipe(&quot;Right&quot;) &#160;&#160;</text>
</g>
<!-- state_42&#45;&gt;state_42 -->
<g id="edge56" class="edge"><title>state_42&#45;&gt;state_42</title>
<path fill="none" stroke="black" d="M631.011,-1316.22C729.262,-1329.96 897,-1323.56 897,-1297 897,-1271.32 740.216,-1264.48 641.019,-1276.48"/>
<polygon fill="black" stroke="black" points="640.476,-1273.02 631.011,-1277.78 641.38,-1279.96 640.476,-1273.02"/>
<text text-anchor="middle" x="946.5" y="-1293.3" font-family="Times New Roman,serif" font-size="14.00"> &#160;&#160;swipe(&quot;Left&quot;) &#160;&#160;</text>
</g>
<!-- state_42&#45;&gt;state_46 -->
<g id="edge53" class="edge"><title>state_42&#45;&gt;state_46</title>
<path fill="none" stroke="black" d="M631.223,-1271.6C676.917,-1250.66 734.536,-1215.61 762,-1164 784.025,-1122.61 752.238,-1079.53 716.001,-1047.36"/>
<polygon fill="black" stroke="black" points="718.082,-1044.53 708.219,-1040.66 713.517,-1049.84 718.082,-1044.53"/>
<text text-anchor="middle" x="839" y="-1152.8" font-family="Times New Roman,serif" font-size="14.00"> &#160;&#160;longClick(&quot;index=0&quot;) &#160;&#160;</text>
</g>
<!-- state_42&#45;&gt;state_2 -->
<g id="edge54" class="edge"><title>state_42&#45;&gt;state_2</title>
<path fill="none" stroke="black" d="M631.375,-1276.49C722.309,-1250.24 892.552,-1204.26 1041,-1182 1104.63,-1172.46 1268.92,-1184.24 1330,-1164 1341.58,-1160.16 1341.36,-1152.67 1353,-1149 1378.45,-1140.97 1570.37,-1155.13 1593,-1141 1602.82,-1134.87 1611.46,-1127.04 1619.05,-1118.2"/>
<polygon fill="black" stroke="black" points="1621.94,-1120.18 1625.45,-1110.19 1616.47,-1115.81 1621.94,-1120.18"/>
<text text-anchor="middle" x="1410.5" y="-1152.8" font-family="Times New Roman,serif" font-size="14.00"> &#160;&#160;click(&quot;index=1&quot;) &#160;&#160;</text>
</g>
<!-- state_42&#45;&gt;state_19 -->
<g id="edge50" class="edge"><title>state_42&#45;&gt;state_19</title>
<path fill="none" stroke="black" d="M631.313,-1276.07C722.176,-1249.32 892.336,-1202.77 1041,-1182 1135.06,-1168.86 1376.39,-1189.05 1468,-1164 1481.62,-1160.28 1482.32,-1152.49 1496,-1149 1510.39,-1145.33 2554.54,-1151.54 2565,-1141 2605.86,-1099.83 2601.22,-925.303 2565,-880 2483.35,-777.862 2079.2,-734.391 1909.37,-720.43"/>
<polygon fill="black" stroke="black" points="1909.51,-716.93 1899.26,-719.611 1908.95,-723.907 1909.51,-716.93"/>
<text text-anchor="middle" x="2650.5" y="-991.3" font-family="Times New Roman,serif" font-size="14.00"> &#160;&#160;click(&quot;index=1&quot;) &#160;&#160;</text>
</g>
<!-- state_42&#45;&gt;state_19 -->
<g id="edge52" class="edge"><title>state_42&#45;&gt;state_19</title>
<path fill="none" stroke="black" d="M631.075,-1277.15C722.013,-1251.55 892.642,-1206.21 1041,-1182 1085.92,-1174.67 1207.56,-1189.87 1245,-1164 1373.71,-1075.08 1267.59,-933.404 1398,-847 1463.37,-803.693 1677.23,-865.566 1760.02,-830.329"/>
<polygon fill="black" stroke="black" points="1761.63,-833.435 1768.99,-825.811 1758.48,-827.183 1761.63,-833.435"/>
<text text-anchor="middle" x="1417.5" y="-991.3" font-family="Times New Roman,serif" font-size="14.00"> &#160;&#160;click(&quot;index=0&quot;) &#160;&#160;</text>
</g>
<!-- state_42&#45;&gt;state_final -->
<g id="edge57" class="edge"><title>state_42&#45;&gt;state_final</title>
<path fill="none" stroke="black" d="M500.937,-1185.28C499.325,-1184.13 497.68,-1183.04 496,-1182 456.332,-1157.51 324.915,-1191.12 287,-1164 167.715,-1078.67 184.203,-1005.52 154,-862 131.243,-753.863 142.792,-628.149 157.685,-537.295"/>
<polygon fill="black" stroke="black" points="161.171,-537.668 159.372,-527.227 154.268,-536.511 161.171,-537.668"/>
<text text-anchor="middle" x="216.5" y="-850.8" font-family="Times New Roman,serif" font-size="14.00"> &#160;&#160;press(&quot;BackKey&quot;) &#160;&#160;</text>
</g>
<!-- state_46&#45;&gt;state_0 -->
<g id="edge59" class="edge"><title>state_46&#45;&gt;state_0</title>
<path fill="none" stroke="black" d="M637.387,-879.905C634.823,-868.546 631.438,-857.387 627,-847 617.581,-824.956 603.196,-803.789 587.874,-785.107"/>
<polygon fill="black" stroke="black" points="590.381,-782.65 581.261,-777.257 585.027,-787.16 590.381,-782.65"/>
<text text-anchor="middle" x="690.5" y="-850.8" font-family="Times New Roman,serif" font-size="14.00"> &#160;&#160;click(&quot;index=0&quot;) &#160;&#160;</text>
</g>
<!-- state_46&#45;&gt;state_0 -->
<g id="edge60" class="edge"><title>state_46&#45;&gt;state_0</title>
<path fill="none" stroke="black" d="M577.926,-891.806C573.481,-887.557 568.836,-883.585 564,-880 542.998,-864.432 523.4,-883.126 508,-862 502.86,-854.949 499.233,-847.164 496.807,-838.966"/>
<polygon fill="black" stroke="black" points="500.199,-838.1 494.493,-829.173 493.387,-839.71 500.199,-838.1"/>
<text text-anchor="middle" x="565.5" y="-850.8" font-family="Times New Roman,serif" font-size="14.00"> &#160;&#160;click(&quot;index=0&quot;) &#160;&#160;</text>
</g>
<!-- state_46&#45;&gt;state_42 -->
<g id="edge63" class="edge"><title>state_46&#45;&gt;state_42</title>
<path fill="none" stroke="black" d="M595.836,-1110.1C586.835,-1122.07 576.292,-1132.82 564,-1141 549.493,-1150.65 497.675,-1136.07 486,-1149 477.664,-1158.23 483.856,-1177.74 495.79,-1199.61"/>
<polygon fill="black" stroke="black" points="492.827,-1201.48 500.825,-1208.43 498.905,-1198.01 492.827,-1201.48"/>
<text text-anchor="middle" x="548.5" y="-1152.8" font-family="Times New Roman,serif" font-size="14.00"> &#160;&#160;press(&quot;BackKey&quot;) &#160;&#160;</text>
</g>
<!-- state_46&#45;&gt;state_42 -->
<g id="edge64" class="edge"><title>state_46&#45;&gt;state_42</title>
<path fill="none" stroke="black" d="M623.454,-1110.35C619.728,-1128.4 615.552,-1146.78 611,-1164 610.299,-1166.65 609.572,-1169.33 608.823,-1172.02"/>
<polygon fill="black" stroke="black" points="605.403,-1171.25 606.018,-1181.83 612.133,-1173.17 605.403,-1171.25"/>
<text text-anchor="middle" x="679" y="-1152.8" font-family="Times New Roman,serif" font-size="14.00"> &#160;&#160;press(&quot;MenuKey&quot;) &#160;&#160;</text>
</g>
<!-- state_46&#45;&gt;state_46 -->
<g id="edge61" class="edge"><title>state_46&#45;&gt;state_46</title>
<path fill="none" stroke="black" d="M708.072,-1007.14C718.697,-1005.41 726,-1001.36 726,-995 726,-990.927 723.003,-987.802 718.055,-985.625"/>
<polygon fill="black" stroke="black" points="718.643,-982.156 708.072,-982.856 716.773,-988.902 718.643,-982.156"/>
<text text-anchor="middle" x="779" y="-991.3" font-family="Times New Roman,serif" font-size="14.00"> &#160;&#160;swipe(&quot;Right&quot;) &#160;&#160;</text>
</g>
<!-- state_46&#45;&gt;state_46 -->
<g id="edge62" class="edge"><title>state_46&#45;&gt;state_46</title>
<path fill="none" stroke="black" d="M708.113,-1018.49C763.904,-1026 832,-1018.17 832,-995 832,-973.229 771.9,-965 718.364,-970.313"/>
<polygon fill="black" stroke="black" points="717.64,-966.874 708.113,-971.509 718.451,-973.827 717.64,-966.874"/>
<text text-anchor="middle" x="881.5" y="-991.3" font-family="Times New Roman,serif" font-size="14.00"> &#160;&#160;swipe(&quot;Left&quot;) &#160;&#160;</text>
</g>
<!-- state_39 -->
<g id="node7" class="node"><title>state_39</title>
<g id="a_node7"><a xlink:href="39.png">
<polygon fill="none" stroke="black" points="1180,-1412 1050,-1412 1050,-1182 1180,-1182 1180,-1412"/>
<image xlink:href="39.png" width="130px" height="230px" preserveAspectRatio="xMinYMin meet" x="1050" y="-1412"/>
</a>
</g>
</g>
<!-- state_39&#45;&gt;state_6 -->
<g id="edge73" class="edge"><title>state_39&#45;&gt;state_6</title>
<path fill="none" stroke="black" d="M1126.74,-1181.69C1135.97,-1034.54 1131.65,-776.689 1015,-599 1002.91,-580.58 996.388,-578.141 978,-566 966.619,-558.486 819.272,-490.121 726.614,-447.358"/>
<polygon fill="black" stroke="black" points="727.815,-444.057 717.269,-443.046 724.882,-450.413 727.815,-444.057"/>
<text text-anchor="middle" x="1176" y="-850.8" font-family="Times New Roman,serif" font-size="14.00"> &#160;&#160;press(&quot;MenuKey&quot;) &#160;&#160;</text>
</g>
<!-- state_39&#45;&gt;state_46 -->
<g id="edge68" class="edge"><title>state_39&#45;&gt;state_46</title>
<path fill="none" stroke="black" d="M1049.9,-1189.11C1047.03,-1186.59 1044.06,-1184.21 1041,-1182 1015.3,-1163.45 1001.62,-1175.27 972,-1164 881.12,-1129.41 782.485,-1076.87 717.159,-1039.76"/>
<polygon fill="black" stroke="black" points="718.587,-1036.55 708.167,-1034.63 715.119,-1042.63 718.587,-1036.55"/>
<text text-anchor="middle" x="1043" y="-1152.8" font-family="Times New Roman,serif" font-size="14.00"> &#160;&#160;longClick(&quot;index=0&quot;) &#160;&#160;</text>
</g>
<!-- state_39&#45;&gt;state_39 -->
<g id="edge66" class="edge"><title>state_39&#45;&gt;state_39</title>
<path fill="none" stroke="black" d="M1180.07,-1305.1C1190.7,-1303.94 1198,-1301.24 1198,-1297 1198,-1294.28 1195,-1292.2 1190.06,-1290.75"/>
<polygon fill="black" stroke="black" points="1190.54,-1287.28 1180.07,-1288.9 1189.27,-1294.16 1190.54,-1287.28"/>
<text text-anchor="middle" x="1269" y="-1293.3" font-family="Times New Roman,serif" font-size="14.00"> &#160;&#160;longClick(&quot;index=1&quot;) &#160;&#160;</text>
</g>
<!-- state_39&#45;&gt;state_39 -->
<g id="edge70" class="edge"><title>state_39&#45;&gt;state_39</title>
<path fill="none" stroke="black" d="M1180.1,-1311.86C1247.76,-1318.15 1340,-1313.2 1340,-1297 1340,-1281.59 1256.55,-1276.36 1190.17,-1281.3"/>
<polygon fill="black" stroke="black" points="1189.77,-1277.82 1180.1,-1282.14 1190.35,-1284.8 1189.77,-1277.82"/>
<text text-anchor="middle" x="1393" y="-1293.3" font-family="Times New Roman,serif" font-size="14.00"> &#160;&#160;swipe(&quot;Right&quot;) &#160;&#160;</text>
</g>
<!-- state_39&#45;&gt;state_39 -->
<g id="edge71" class="edge"><title>state_39&#45;&gt;state_39</title>
<path fill="none" stroke="black" d="M1180.01,-1316.22C1278.26,-1329.96 1446,-1323.56 1446,-1297 1446,-1271.32 1289.22,-1264.48 1190.02,-1276.48"/>
<polygon fill="black" stroke="black" points="1189.48,-1273.02 1180.01,-1277.78 1190.38,-1279.96 1189.48,-1273.02"/>
<text text-anchor="middle" x="1495.5" y="-1293.3" font-family="Times New Roman,serif" font-size="14.00"> &#160;&#160;swipe(&quot;Left&quot;) &#160;&#160;</text>
</g>
<!-- state_39&#45;&gt;state_2 -->
<g id="edge65" class="edge"><title>state_39&#45;&gt;state_2</title>
<path fill="none" stroke="black" d="M1180.22,-1288.49C1306.75,-1272.55 1578.65,-1231.21 1641,-1164 1652.53,-1151.58 1660.35,-1136.3 1665.54,-1120.08"/>
<polygon fill="black" stroke="black" points="1668.92,-1121.01 1668.31,-1110.43 1662.19,-1119.08 1668.92,-1121.01"/>
<text text-anchor="middle" x="1709.5" y="-1152.8" font-family="Times New Roman,serif" font-size="14.00"> &#160;&#160;click(&quot;index=1&quot;) &#160;&#160;</text>
</g>
<!-- state_39&#45;&gt;state_2 -->
<g id="edge67" class="edge"><title>state_39&#45;&gt;state_2</title>
<path fill="none" stroke="black" d="M1180.05,-1292.99C1330.75,-1284.52 1696.62,-1254.84 1771,-1164 1798.26,-1130.71 1773.96,-1089.32 1742.37,-1055.96"/>
<polygon fill="black" stroke="black" points="1744.6,-1053.23 1735.1,-1048.53 1739.6,-1058.12 1744.6,-1053.23"/>
<text text-anchor="middle" x="1836.5" y="-1152.8" font-family="Times New Roman,serif" font-size="14.00"> &#160;&#160;click(&quot;index=0&quot;) &#160;&#160;</text>
</g>
<!-- state_39&#45;&gt;state_2 -->
<g id="edge69" class="edge"><title>state_39&#45;&gt;state_2</title>
<path fill="none" stroke="black" d="M1180.26,-1295.31C1351.34,-1291.99 1805.93,-1272.89 1898,-1164 1952.64,-1099.38 1830.75,-1045.71 1745,-1017.48"/>
<polygon fill="black" stroke="black" points="1745.85,-1014.07 1735.26,-1014.33 1743.69,-1020.73 1745.85,-1014.07"/>
<text text-anchor="middle" x="1963.5" y="-1152.8" font-family="Times New Roman,serif" font-size="14.00"> &#160;&#160;click(&quot;index=1&quot;) &#160;&#160;</text>
</g>
<!-- state_39&#45;&gt;state_final -->
<g id="edge72" class="edge"><title>state_39&#45;&gt;state_final</title>
<path fill="none" stroke="black" d="M1049.93,-1187.75C1047.06,-1185.67 1044.08,-1183.74 1041,-1182 986.582,-1151.31 540.502,-1174.99 479,-1164 447.179,-1158.31 433.395,-1163.31 410,-1141 322.477,-1057.55 244.736,-722.206 207.417,-537.166"/>
<polygon fill="black" stroke="black" points="210.798,-536.223 205.399,-527.107 203.935,-537.601 210.798,-536.223"/>
<text text-anchor="middle" x="347.5" y="-850.8" font-family="Times New Roman,serif" font-size="14.00"> &#160;&#160;press(&quot;BackKey&quot;) &#160;&#160;</text>
</g>
<!-- state_2&#45;&gt;state_39 -->
<g id="edge25" class="edge"><title>state_2&#45;&gt;state_39</title>
<path fill="none" stroke="black" d="M1624.4,-1110.05C1615.56,-1122.02 1605.17,-1132.8 1593,-1141 1578.73,-1150.62 1532.76,-1145.12 1516,-1149 1499.46,-1152.83 1301.31,-1226.43 1189.9,-1268"/>
<polygon fill="black" stroke="black" points="1188.53,-1264.78 1180.38,-1271.55 1190.98,-1271.33 1188.53,-1264.78"/>
<text text-anchor="middle" x="1578.5" y="-1152.8" font-family="Times New Roman,serif" font-size="14.00"> &#160;&#160;press(&quot;BackKey&quot;) &#160;&#160;</text>
</g>
<!-- state_2&#45;&gt;state_2 -->
<g id="edge17" class="edge"><title>state_2&#45;&gt;state_2</title>
<path fill="none" stroke="black" d="M1735.07,-999.048C1745.7,-998.468 1753,-997.119 1753,-995 1753,-993.642 1750,-992.601 1745.06,-991.875"/>
<polygon fill="black" stroke="black" points="1745.35,-988.388 1735.07,-990.952 1744.71,-995.358 1745.35,-988.388"/>
<text text-anchor="middle" x="1807.5" y="-991.3" font-family="Times New Roman,serif" font-size="14.00"> &#160;&#160;click(&quot;无标题&quot;) &#160;&#160;</text>
</g>
<!-- state_2&#45;&gt;state_2 -->
<g id="edge18" class="edge"><title>state_2&#45;&gt;state_2</title>
<path fill="none" stroke="black" d="M1735.41,-1002.81C1792.18,-1005.35 1862,-1002.75 1862,-995 1862,-987.707 1800.12,-984.973 1745.5,-986.798"/>
<polygon fill="black" stroke="black" points="1745.26,-983.305 1735.41,-987.192 1745.54,-990.3 1745.26,-983.305"/>
<text text-anchor="middle" x="1933" y="-991.3" font-family="Times New Roman,serif" font-size="14.00"> &#160;&#160;longClick(&quot;index=1&quot;) &#160;&#160;</text>
</g>
<!-- state_2&#45;&gt;state_2 -->
<g id="edge20" class="edge"><title>state_2&#45;&gt;state_2</title>
<path fill="none" stroke="black" d="M1735.07,-1004.58C1834.1,-1011.49 2004,-1008.3 2004,-995 2004,-982.146 1845.19,-978.733 1745.16,-984.763"/>
<polygon fill="black" stroke="black" points="1744.82,-981.277 1735.07,-985.418 1745.27,-988.263 1744.82,-981.277"/>
<text text-anchor="middle" x="2061.5" y="-991.3" font-family="Times New Roman,serif" font-size="14.00"> &#160;&#160;click(&quot;index=1&quot;) &#160;&#160;</text>
</g>
<!-- state_2&#45;&gt;state_2 -->
<g id="edge21" class="edge"><title>state_2&#45;&gt;state_2</title>
<path fill="none" stroke="black" d="M1735.26,-1006.29C1862.25,-1017.38 2119,-1013.62 2119,-995 2119,-976.874 1875.61,-972.829 1745.56,-982.864"/>
<polygon fill="black" stroke="black" points="1744.94,-979.404 1735.26,-983.71 1745.51,-986.38 1744.94,-979.404"/>
<text text-anchor="middle" x="2190" y="-991.3" font-family="Times New Roman,serif" font-size="14.00"> &#160;&#160;longClick(&quot;index=1&quot;) &#160;&#160;</text>
</g>
<!-- state_2&#45;&gt;state_2 -->
<g id="edge22" class="edge"><title>state_2&#45;&gt;state_2</title>
<path fill="none" stroke="black" d="M1735.2,-1007.51C1892,-1023.3 2261,-1019.13 2261,-995 2261,-971.393 1907.69,-966.893 1745.59,-981.5"/>
<polygon fill="black" stroke="black" points="1744.82,-978.058 1735.2,-982.49 1745.49,-985.026 1744.82,-978.058"/>
<text text-anchor="middle" x="2314" y="-991.3" font-family="Times New Roman,serif" font-size="14.00"> &#160;&#160;swipe(&quot;Right&quot;) &#160;&#160;</text>
</g>
<!-- state_2&#45;&gt;state_2 -->
<g id="edge23" class="edge"><title>state_2&#45;&gt;state_2</title>
<path fill="none" stroke="black" d="M1735.28,-1008.88C1912.38,-1029.14 2367,-1024.51 2367,-995 2367,-966.033 1929.09,-961.04 1745.42,-980.02"/>
<polygon fill="black" stroke="black" points="1744.85,-976.562 1735.28,-981.122 1745.6,-983.521 1744.85,-976.562"/>
<text text-anchor="middle" x="2416.5" y="-991.3" font-family="Times New Roman,serif" font-size="14.00"> &#160;&#160;swipe(&quot;Left&quot;) &#160;&#160;</text>
</g>
<!-- state_2&#45;&gt;state_19 -->
<g id="edge19" class="edge"><title>state_2&#45;&gt;state_19</title>
<path fill="none" stroke="black" d="M1735.05,-883.331C1744.41,-867.414 1754.07,-850.972 1763.53,-834.886"/>
<polygon fill="black" stroke="black" points="1766.71,-836.386 1768.76,-825.992 1760.67,-832.839 1766.71,-836.386"/>
<text text-anchor="middle" x="1821.5" y="-850.8" font-family="Times New Roman,serif" font-size="14.00"> &#160;&#160;&quot;index=1&quot;.input(&quot;a&quot;) &#160;&#160;</text>
</g>
<!-- state_27 -->
<g id="node10" class="node"><title>state_27</title>
<g id="a_node10"><a xlink:href="27.png">
<polygon fill="none" stroke="black" points="1735,-527 1605,-527 1605,-297 1735,-297 1735,-527"/>
<image xlink:href="27.png" width="130px" height="230px" preserveAspectRatio="xMinYMin meet" x="1605" y="-527"/>
</a>
</g>
</g>
<!-- state_2&#45;&gt;state_27 -->
<g id="edge24" class="edge"><title>state_2&#45;&gt;state_27</title>
<path fill="none" stroke="black" d="M1640.15,-879.629C1636.77,-862.758 1633.88,-845.502 1632,-829 1620.46,-727.432 1621.72,-700.704 1632,-599 1634.04,-578.851 1637.29,-557.659 1641.05,-537.085"/>
<polygon fill="black" stroke="black" points="1644.53,-537.517 1642.93,-527.043 1637.65,-536.226 1644.53,-537.517"/>
<text text-anchor="middle" x="1696" y="-710.3" font-family="Times New Roman,serif" font-size="14.00"> &#160;&#160;press(&quot;MenuKey&quot;) &#160;&#160;</text>
</g>
<!-- state_19&#45;&gt;state_26 -->
<g id="edge33" class="edge"><title>state_19&#45;&gt;state_26</title>
<path fill="none" stroke="black" d="M1899.2,-716.875C2084.73,-723.723 2608.89,-754.073 2712,-880 2748.75,-924.875 2751.07,-1098.13 2712,-1141 2699.07,-1155.19 2644.38,-1143.49 2626,-1149 2388.13,-1220.35 2369.87,-1337.41 2133,-1412 1657.86,-1561.61 1050.56,-1577 840.478,-1577.54"/>
<polygon fill="black" stroke="black" points="840.175,-1574.04 830.181,-1577.55 840.186,-1581.04 840.175,-1574.04"/>
<text text-anchor="middle" x="2688.5" y="-1152.8" font-family="Times New Roman,serif" font-size="14.00"> &#160;&#160;press(&quot;BackKey&quot;) &#160;&#160;</text>
</g>
<!-- state_19&#45;&gt;state_19 -->
<g id="edge26" class="edge"><title>state_19&#45;&gt;state_19</title>
<path fill="none" stroke="black" d="M1899.07,-718.048C1909.7,-717.468 1917,-716.119 1917,-714 1917,-712.642 1914,-711.601 1909.06,-710.875"/>
<polygon fill="black" stroke="black" points="1909.35,-707.388 1899.07,-709.952 1908.71,-714.358 1909.35,-707.388"/>
<text text-anchor="middle" x="1955" y="-710.3" font-family="Times New Roman,serif" font-size="14.00"> &#160;&#160;click(&quot;a&quot;) &#160;&#160;</text>
</g>
<!-- state_19&#45;&gt;state_19 -->
<g id="edge27" class="edge"><title>state_19&#45;&gt;state_19</title>
<path fill="none" stroke="black" d="M1899.1,-722.203C1944.04,-724.026 1993,-721.292 1993,-714 1993,-707.25 1951.04,-704.405 1909.15,-705.466"/>
<polygon fill="black" stroke="black" points="1908.98,-701.97 1899.1,-705.797 1909.21,-708.966 1908.98,-701.97"/>
<text text-anchor="middle" x="2064" y="-710.3" font-family="Times New Roman,serif" font-size="14.00"> &#160;&#160;longClick(&quot;index=1&quot;) &#160;&#160;</text>
</g>
<!-- state_19&#45;&gt;state_19 -->
<g id="edge28" class="edge"><title>state_19&#45;&gt;state_19</title>
<path fill="none" stroke="black" d="M1899.18,-723.945C1989.53,-730.372 2135,-727.057 2135,-714 2135,-701.415 1999.85,-697.88 1909.18,-703.396"/>
<polygon fill="black" stroke="black" points="1908.93,-699.905 1899.18,-704.055 1909.39,-706.89 1908.93,-699.905"/>
<text text-anchor="middle" x="2192.5" y="-710.3" font-family="Times New Roman,serif" font-size="14.00"> &#160;&#160;click(&quot;index=1&quot;) &#160;&#160;</text>
</g>
<!-- state_19&#45;&gt;state_19 -->
<g id="edge29" class="edge"><title>state_19&#45;&gt;state_19</title>
<path fill="none" stroke="black" d="M1899.27,-725.611C2018.85,-736.305 2250,-732.434 2250,-714 2250,-696.07 2031.32,-691.918 1909.32,-701.544"/>
<polygon fill="black" stroke="black" points="1908.94,-698.064 1899.27,-702.389 1909.53,-705.039 1908.94,-698.064"/>
<text text-anchor="middle" x="2321" y="-710.3" font-family="Times New Roman,serif" font-size="14.00"> &#160;&#160;longClick(&quot;index=1&quot;) &#160;&#160;</text>
</g>
<!-- state_19&#45;&gt;state_19 -->
<g id="edge30" class="edge"><title>state_19&#45;&gt;state_19</title>
<path fill="none" stroke="black" d="M1899.24,-726.788C2049.66,-742.245 2392,-737.983 2392,-714 2392,-690.533 2064.21,-685.947 1909.2,-700.243"/>
<polygon fill="black" stroke="black" points="1908.86,-696.76 1899.24,-701.212 1909.53,-703.727 1908.86,-696.76"/>
<text text-anchor="middle" x="2445" y="-710.3" font-family="Times New Roman,serif" font-size="14.00"> &#160;&#160;swipe(&quot;Right&quot;) &#160;&#160;</text>
</g>
<!-- state_19&#45;&gt;state_19 -->
<g id="edge31" class="edge"><title>state_19&#45;&gt;state_19</title>
<path fill="none" stroke="black" d="M1899.18,-728.123C2070.33,-748.102 2498,-743.395 2498,-714 2498,-685.165 2086.46,-680.086 1909.23,-698.762"/>
<polygon fill="black" stroke="black" points="1908.74,-695.296 1899.18,-699.877 1909.51,-702.253 1908.74,-695.296"/>
<text text-anchor="middle" x="2547.5" y="-710.3" font-family="Times New Roman,serif" font-size="14.00"> &#160;&#160;swipe(&quot;Left&quot;) &#160;&#160;</text>
</g>
<!-- state_19&#45;&gt;state_27 -->
<g id="edge32" class="edge"><title>state_19&#45;&gt;state_27</title>
<path fill="none" stroke="black" d="M1768.9,-609.562C1764.48,-605.699 1759.85,-602.143 1755,-599 1718.57,-575.389 1686.72,-614.405 1659,-581 1648.57,-568.427 1643.21,-553.335 1641.22,-537.423"/>
<polygon fill="black" stroke="black" points="1644.7,-537.105 1640.4,-527.425 1637.73,-537.679 1644.7,-537.105"/>
<text text-anchor="middle" x="1723" y="-569.8" font-family="Times New Roman,serif" font-size="14.00"> &#160;&#160;press(&quot;MenuKey&quot;) &#160;&#160;</text>
</g>
<!-- state_27&#45;&gt;state_7 -->
<g id="edge34" class="edge"><title>state_27&#45;&gt;state_7</title>
<path fill="none" stroke="black" d="M1604.76,-298.502C1601.01,-295.085 1597.09,-291.896 1593,-289 1494.62,-219.278 1139.8,-163.626 983.182,-141.882"/>
<polygon fill="black" stroke="black" points="983.542,-138.398 973.158,-140.499 982.586,-145.333 983.542,-138.398"/>
<text text-anchor="middle" x="1624" y="-267.8" font-family="Times New Roman,serif" font-size="14.00"> &#160;&#160;click(&quot;大约&quot;) &#160;&#160;</text>
</g>
<!-- state_27&#45;&gt;state_42 -->
<g id="edge39" class="edge"><title>state_27&#45;&gt;state_42</title>
<path fill="none" stroke="black" d="M1625.38,-527.073C1616.36,-539.21 1605.66,-550.017 1593,-558 1557.82,-580.189 1440.74,-543.124 1406,-566 1159.63,-728.247 1348.16,-979.473 1118,-1164 1090.58,-1185.98 1075.2,-1173.9 1041,-1182 899.671,-1215.48 734.854,-1255.18 641.226,-1277.8"/>
<polygon fill="black" stroke="black" points="640.178,-1274.45 631.28,-1280.2 641.822,-1281.26 640.178,-1274.45"/>
<text text-anchor="middle" x="1305" y="-850.8" font-family="Times New Roman,serif" font-size="14.00"> &#160;&#160;click(&quot;保存&quot;) &#160;&#160;</text>
</g>
<!-- state_27&#45;&gt;state_42 -->
<g id="edge40" class="edge"><title>state_27&#45;&gt;state_42</title>
<path fill="none" stroke="black" d="M1610.1,-527.326C1604.4,-537.741 1598.64,-548.092 1593,-558 1518.59,-688.69 1460.32,-702.986 1417,-847 1379.33,-972.215 1495.08,-1045.28 1406,-1141 1394.88,-1152.95 1349.09,-1146.3 1333,-1149 1303.33,-1153.98 1296.74,-1159.46 1267,-1164 1167.39,-1179.2 1140.52,-1166.19 1041,-1182 897.76,-1204.75 733.918,-1247.98 640.925,-1274.17"/>
<polygon fill="black" stroke="black" points="639.716,-1270.88 631.046,-1276.97 641.621,-1277.61 639.716,-1270.88"/>
<text text-anchor="middle" x="1465" y="-850.8" font-family="Times New Roman,serif" font-size="14.00"> &#160;&#160;click(&quot;删除&quot;) &#160;&#160;</text>
</g>
<!-- state_27&#45;&gt;state_19 -->
<g id="edge37" class="edge"><title>state_27&#45;&gt;state_19</title>
<path fill="none" stroke="black" d="M1735.3,-487.737C1753.86,-511.597 1772.84,-538.877 1787,-566 1790.88,-573.426 1794.51,-581.231 1797.9,-589.211"/>
<polygon fill="black" stroke="black" points="1794.73,-590.72 1801.76,-598.648 1801.21,-588.067 1794.73,-590.72"/>
<text text-anchor="middle" x="1855.5" y="-569.8" font-family="Times New Roman,serif" font-size="14.00"> &#160;&#160;press(&quot;BackKey&quot;) &#160;&#160;</text>
</g>
<!-- state_27&#45;&gt;state_19 -->
<g id="edge38" class="edge"><title>state_27&#45;&gt;state_19</title>
<path fill="none" stroke="black" d="M1735.08,-432.114C1795.64,-453.761 1882.34,-495.525 1922,-566 1937.4,-593.368 1925.13,-623.164 1905.39,-648.732"/>
<polygon fill="black" stroke="black" points="1902.65,-646.558 1899.05,-656.523 1908.08,-650.977 1902.65,-646.558"/>
<text text-anchor="middle" x="1992" y="-569.8" font-family="Times New Roman,serif" font-size="14.00"> &#160;&#160;press(&quot;MenuKey&quot;) &#160;&#160;</text>
</g>
<!-- state_27&#45;&gt;state_27 -->
<g id="edge35" class="edge"><title>state_27&#45;&gt;state_27</title>
<path fill="none" stroke="black" d="M1735.07,-424.144C1745.7,-422.405 1753,-418.357 1753,-412 1753,-407.927 1750,-404.802 1745.06,-402.625"/>
<polygon fill="black" stroke="black" points="1745.64,-399.156 1735.07,-399.856 1743.77,-405.902 1745.64,-399.156"/>
<text text-anchor="middle" x="1806" y="-408.3" font-family="Times New Roman,serif" font-size="14.00"> &#160;&#160;swipe(&quot;Right&quot;) &#160;&#160;</text>
</g>
<!-- state_27&#45;&gt;state_27 -->
<g id="edge36" class="edge"><title>state_27&#45;&gt;state_27</title>
<path fill="none" stroke="black" d="M1735.11,-435.491C1790.9,-443.004 1859,-435.174 1859,-412 1859,-390.229 1798.9,-382 1745.36,-387.313"/>
<polygon fill="black" stroke="black" points="1744.64,-383.874 1735.11,-388.509 1745.45,-390.827 1744.64,-383.874"/>
<text text-anchor="middle" x="1908.5" y="-408.3" font-family="Times New Roman,serif" font-size="14.00"> &#160;&#160;swipe(&quot;Left&quot;) &#160;&#160;</text>
</g>
</g>
</svg>
