<?xml version="1.0" encoding="UTF-8" standalone="no"?>
<!DOCTYPE svg PUBLIC "-//W3C//DTD SVG 1.1//EN"
 "http://www.w3.org/Graphics/SVG/1.1/DTD/svg11.dtd">
<!-- Generated by graphviz version 2.38.0 (20140413.2041)
 -->
<!-- Title: activity_2 Pages: 1 -->
<svg width="221pt" height="385pt"
 viewBox="0.00 0.00 221.00 385.00" xmlns="http://www.w3.org/2000/svg" xmlns:xlink="http://www.w3.org/1999/xlink">
<g id="graph0" class="graph" transform="scale(1 1) rotate(0) translate(4 381)">
<title>activity_2</title>
<polygon fill="white" stroke="none" points="-4,4 -4,-381 217,-381 217,4 -4,4"/>
<!-- state_30 -->
<g id="node1" class="node"><title>state_30</title>
<g id="a_node1"><a xlink:href="30.png" xlink:title="&lt;TABLE&gt;">
<polygon fill="none" stroke="black" points="130,-290 0,-290 0,-0 130,-0 130,-290"/>
<text text-anchor="start" x="41.5" y="-278.8" font-family="Times New Roman,serif" font-size="14.00">state_30</text>
<text text-anchor="start" x="34.5" y="-263.8" font-family="Times New Roman,serif" font-size="14.00">incoming:2</text>
<text text-anchor="start" x="35.5" y="-248.8" font-family="Times New Roman,serif" font-size="14.00">outgoing:0</text>
<text text-anchor="start" x="47" y="-233.8" font-family="Times New Roman,serif" font-size="14.00">loop:0</text>
<image xlink:href="30.png" width="130px" height="230px" preserveAspectRatio="xMinYMin meet" x="0" y="-230"/>
</a>
</g>
</g>
<!-- activity_0 -->
<g id="node2" class="node"><title>activity_0</title>
<ellipse fill="none" stroke="red" cx="65" cy="-359" rx="46.2923" ry="18"/>
<text text-anchor="middle" x="65" y="-355.3" font-family="Times New Roman,serif" font-size="14.00" fill="red">activity_0</text>
</g>
<!-- activity_0&#45;&gt;state_30 -->
<g id="edge1" class="edge"><title>activity_0&#45;&gt;state_30</title>
<path fill="none" stroke="red" d="M30.9329,-346.741C20.0557,-341.35 9.23202,-333.675 3,-323 -0.361235,-317.243 1.78838,-314.556 3,-308 3.496,-305.316 4.03458,-302.62 4.6121,-299.914"/>
<polygon fill="red" stroke="red" points="8.04157,-300.618 6.86692,-290.088 1.2189,-299.052 8.04157,-300.618"/>
<text text-anchor="middle" x="54.5" y="-311.8" font-family="Times New Roman,serif" font-size="14.00" fill="red"> &#160;&#160;click(&quot;給5星&quot;) &#160;&#160;</text>
</g>
<!-- activity_0&#45;&gt;state_30 -->
<g id="edge2" class="edge"><title>activity_0&#45;&gt;state_30</title>
<path fill="none" stroke="red" d="M89.05,-343.289C95.8094,-337.83 102.316,-330.989 106,-323 109.39,-315.649 111.688,-307.993 113.08,-300.167"/>
<polygon fill="red" stroke="red" points="116.561,-300.539 114.371,-290.173 109.618,-299.642 116.561,-300.539"/>
<text text-anchor="middle" x="161.5" y="-311.8" font-family="Times New Roman,serif" font-size="14.00" fill="red"> &#160;&#160;click(&quot;給5星&quot;) &#160;&#160;</text>
</g>
</g>
</svg>
