<?xml version="1.0" encoding="UTF-8" standalone="no"?>
<!DOCTYPE svg PUBLIC "-//W3C//DTD SVG 1.1//EN"
 "http://www.w3.org/Graphics/SVG/1.1/DTD/svg11.dtd">
<!-- Generated by graphviz version 2.38.0 (20140413.2041)
 -->
<!-- Title: result Pages: 1 -->
<svg width="599pt" height="403pt"
 viewBox="0.00 0.00 599.00 403.00" xmlns="http://www.w3.org/2000/svg" xmlns:xlink="http://www.w3.org/1999/xlink">
<g id="graph0" class="graph" transform="scale(1 1) rotate(0) translate(4 399)">
<title>result</title>
<polygon fill="white" stroke="none" points="-4,4 -4,-399 595,-399 595,4 -4,4"/>
<!-- initial -->
<g id="node1" class="node"><title>initial</title>
<image xlink:href="-1.png" width="50px" height="50px" preserveAspectRatio="xMinYMin meet" x="0" y="-282.5"/>
</g>
<!-- activity_0 -->
<g id="node2" class="node"><title>activity_0</title>
<g id="a_node2"><a xlink:href="activity_0.svg" xlink:title="&lt;TABLE&gt;">
<polygon fill="none" stroke="black" points="217,-395 87,-395 87,-120 217,-120 217,-395"/>
<text text-anchor="start" x="124.5" y="-383.3" font-family="Times New Roman,serif" font-size="14.00">activity_0</text>
<text text-anchor="start" x="121.5" y="-368.3" font-family="Times New Roman,serif" font-size="14.00">incoming:0</text>
<text text-anchor="start" x="122.5" y="-353.3" font-family="Times New Roman,serif" font-size="14.00">outgoing:6</text>
<image xlink:href="0.png" width="130px" height="230px" preserveAspectRatio="xMinYMin meet" x="87" y="-349.5"/>
</a>
</g>
</g>
<!-- initial&#45;&gt;activity_0 -->
<g id="edge1" class="edge"><title>initial&#45;&gt;activity_0</title>
<path fill="none" stroke="black" d="M50.1013,-257.5C57.9994,-257.5 67.2332,-257.5 76.8484,-257.5"/>
<polygon fill="black" stroke="black" points="76.9667,-261 86.9666,-257.5 76.9666,-254 76.9667,-261"/>
</g>
<!-- final -->
<g id="node3" class="node"><title>final</title>
<image xlink:href="-2.png" width="50px" height="50px" preserveAspectRatio="xMinYMin meet" x="501" y="-343.5"/>
</g>
<!-- activity_0&#45;&gt;final -->
<g id="edge2" class="edge"><title>activity_0&#45;&gt;final</title>
<path fill="none" stroke="black" d="M217.381,-321.778C223.049,-325.214 228.943,-328.195 235,-330.5 322.339,-363.744 435.331,-342.524 490.97,-328.304"/>
<polygon fill="black" stroke="black" points="491.896,-331.68 500.673,-325.745 490.111,-324.911 491.896,-331.68"/>
<text text-anchor="middle" x="339" y="-351.3" font-family="Times New Roman,serif" font-size="14.00"> &#160;&#160;&lt;a0.s0,press(&quot;BackKey&quot;),final&gt; &#160;&#160;</text>
</g>
<!-- activity_0&#45;&gt;final -->
<g id="edge3" class="edge"><title>activity_0&#45;&gt;final</title>
<path fill="none" stroke="black" d="M217.251,-287.136C223.172,-289.191 229.146,-291.027 235,-292.5 241.133,-294.043 414.954,-309.067 490.497,-315.548"/>
<polygon fill="black" stroke="black" points="490.636,-319.073 500.898,-316.44 491.234,-312.099 490.636,-319.073"/>
<text text-anchor="middle" x="339" y="-315.3" font-family="Times New Roman,serif" font-size="14.00"> &#160;&#160;&lt;a0.s3,press(&quot;BackKey&quot;),final&gt; &#160;&#160;</text>
</g>
<!-- activity_0&#45;&gt;final -->
<g id="edge5" class="edge"><title>activity_0&#45;&gt;final</title>
<path fill="none" stroke="black" d="M217.174,-257.699C289.462,-258.512 402.185,-261.715 443,-273.5 451.792,-276.039 452.985,-279.082 461,-283.5 471.105,-289.07 482.123,-295.108 492.126,-300.576"/>
<polygon fill="black" stroke="black" points="490.516,-303.685 500.97,-305.408 493.872,-297.542 490.516,-303.685"/>
<text text-anchor="middle" x="339" y="-277.3" font-family="Times New Roman,serif" font-size="14.00"> &#160;&#160;&lt;a0.s6,press(&quot;BackKey&quot;),final&gt; &#160;&#160;</text>
</g>
<!-- activity_0&#45;&gt;final -->
<g id="edge7" class="edge"><title>activity_0&#45;&gt;final</title>
<path fill="none" stroke="black" d="M217.241,-242.024C223.217,-241 229.204,-240.129 235,-239.5 280.953,-234.516 404.624,-213.736 443,-239.5 460.542,-251.277 446.92,-267.746 461,-283.5 469.289,-292.775 480.64,-300.085 491.482,-305.573"/>
<polygon fill="black" stroke="black" points="490.249,-308.86 500.789,-309.93 493.216,-302.52 490.249,-308.86"/>
<text text-anchor="middle" x="339" y="-243.3" font-family="Times New Roman,serif" font-size="14.00"> &#160;&#160;&lt;a0.s10,press(&quot;BackKey&quot;),final&gt; &#160;&#160;</text>
</g>
<!-- activity_2 -->
<g id="node4" class="node"><title>activity_2</title>
<g id="a_node4"><a xlink:href="activity_2.svg" xlink:title="&lt;TABLE&gt;">
<polygon fill="none" stroke="black" points="591,-275 461,-275 461,-0 591,-0 591,-275"/>
<text text-anchor="start" x="498.5" y="-263.3" font-family="Times New Roman,serif" font-size="14.00">activity_2</text>
<text text-anchor="start" x="495.5" y="-248.3" font-family="Times New Roman,serif" font-size="14.00">incoming:2</text>
<text text-anchor="start" x="496.5" y="-233.3" font-family="Times New Roman,serif" font-size="14.00">outgoing:0</text>
<image xlink:href="30.png" width="130px" height="230px" preserveAspectRatio="xMinYMin meet" x="461" y="-229.5"/>
</a>
</g>
</g>
<!-- activity_0&#45;&gt;activity_2 -->
<g id="edge4" class="edge"><title>activity_0&#45;&gt;activity_2</title>
<path fill="none" stroke="black" d="M217.283,-216.244C223.147,-213.357 229.101,-210.718 235,-208.5 322.962,-175.425 352.728,-196.62 443,-170.5 445.764,-169.7 448.563,-168.841 451.377,-167.934"/>
<polygon fill="black" stroke="black" points="452.62,-171.209 460.973,-164.691 450.379,-164.577 452.62,-171.209"/>
<text text-anchor="middle" x="339" y="-212.3" font-family="Times New Roman,serif" font-size="14.00"> &#160;&#160;&lt;a0.s5,click(&quot;給5星&quot;),a2.s30&gt; &#160;&#160;</text>
</g>
<!-- activity_0&#45;&gt;activity_2 -->
<g id="edge6" class="edge"><title>activity_0&#45;&gt;activity_2</title>
<path fill="none" stroke="black" d="M217.136,-163.288C222.749,-158.781 228.707,-154.779 235,-151.5 301.8,-116.697 389.425,-117.754 450.804,-124.665"/>
<polygon fill="black" stroke="black" points="450.456,-128.149 460.802,-125.869 451.292,-121.199 450.456,-128.149"/>
<text text-anchor="middle" x="339" y="-155.3" font-family="Times New Roman,serif" font-size="14.00"> &#160;&#160;&lt;a0.s9,click(&quot;給5星&quot;),a2.s30&gt; &#160;&#160;</text>
</g>
</g>
</svg>
