<?xml version="1.0" encoding="UTF-8" standalone="no"?>
<!DOCTYPE svg PUBLIC "-//W3C//DTD SVG 1.1//EN"
 "http://www.w3.org/Graphics/SVG/1.1/DTD/svg11.dtd">
<!-- Generated by graphviz version 2.38.0 (20140413.2041)
 -->
<!-- Title: g Pages: 1 -->
<svg width="1309pt" height="2228pt"
 viewBox="0.00 0.00 1309.00 2228.00" xmlns="http://www.w3.org/2000/svg" xmlns:xlink="http://www.w3.org/1999/xlink">
<g id="graph0" class="graph" transform="scale(1 1) rotate(0) translate(4 2224)">
<title>g</title>
<polygon fill="white" stroke="none" points="-4,4 -4,-2224 1305,-2224 1305,4 -4,4"/>
<text text-anchor="middle" x="650.5" y="-7.8" font-family="Times New Roman,serif" font-size="14.00"> &#160;&#160;activity_2 &#160;&#160;</text>
<!-- state_0 -->
<g id="node1" class="node"><title>state_0</title>
<g id="a_node1"><a xlink:href="0.png">
<polygon fill="none" stroke="black" points="273,-2220 143,-2220 143,-1990 273,-1990 273,-2220"/>
<image xlink:href="0.png" width="130px" height="230px" preserveAspectRatio="xMinYMin meet" x="143" y="-2220"/>
</a>
</g>
</g>
<!-- state_0&#45;&gt;state_0 -->
<g id="edge1" class="edge"><title>state_0&#45;&gt;state_0</title>
<path fill="none" stroke="black" d="M273.072,-2111.07C283.697,-2110.2 291,-2108.18 291,-2105 291,-2102.96 288.003,-2101.4 283.055,-2100.31"/>
<polygon fill="black" stroke="black" points="283.458,-2096.84 273.072,-2098.93 282.496,-2103.77 283.458,-2096.84"/>
<text text-anchor="middle" x="348.5" y="-2101.3" font-family="Times New Roman,serif" font-size="14.00"> &#160;&#160;click(&quot;index=1&quot;) &#160;&#160;</text>
</g>
<!-- state_0&#45;&gt;state_0 -->
<g id="edge4" class="edge"><title>state_0&#45;&gt;state_0</title>
<path fill="none" stroke="black" d="M273.181,-2116.59C332.033,-2120.6 406,-2116.74 406,-2105 406,-2093.92 340.175,-2089.86 283.31,-2092.8"/>
<polygon fill="black" stroke="black" points="282.954,-2089.32 273.181,-2093.41 283.372,-2096.3 282.954,-2089.32"/>
<text text-anchor="middle" x="459" y="-2101.3" font-family="Times New Roman,serif" font-size="14.00"> &#160;&#160;swipe(&quot;Right&quot;) &#160;&#160;</text>
</g>
<!-- state_0&#45;&gt;state_0 -->
<g id="edge5" class="edge"><title>state_0&#45;&gt;state_0</title>
<path fill="none" stroke="black" d="M273.304,-2119.88C364.472,-2129.57 512,-2124.61 512,-2105 512,-2086.1 374.94,-2080.81 283.398,-2089.13"/>
<polygon fill="black" stroke="black" points="282.914,-2085.66 273.304,-2090.12 283.599,-2092.62 282.914,-2085.66"/>
<text text-anchor="middle" x="561.5" y="-2101.3" font-family="Times New Roman,serif" font-size="14.00"> &#160;&#160;swipe(&quot;Left&quot;) &#160;&#160;</text>
</g>
<!-- state_0&#45;&gt;state_0 -->
<g id="edge6" class="edge"><title>state_0&#45;&gt;state_0</title>
<path fill="none" stroke="black" d="M273.087,-2122.59C389.617,-2138.41 611,-2132.55 611,-2105 611,-2078.23 401.979,-2071.94 283.233,-2086.11"/>
<polygon fill="black" stroke="black" points="282.565,-2082.67 273.087,-2087.41 283.45,-2089.61 282.565,-2082.67"/>
<text text-anchor="middle" x="675" y="-2101.3" font-family="Times New Roman,serif" font-size="14.00"> &#160;&#160;press(&quot;MenuKey&quot;) &#160;&#160;</text>
</g>
<!-- state_2 -->
<g id="node2" class="node"><title>state_2</title>
<g id="a_node2"><a xlink:href="2.png">
<polygon fill="none" stroke="black" points="273,-1939 143,-1939 143,-1709 273,-1709 273,-1939"/>
<image xlink:href="2.png" width="130px" height="230px" preserveAspectRatio="xMinYMin meet" x="143" y="-1939"/>
</a>
</g>
</g>
<!-- state_0&#45;&gt;state_2 -->
<g id="edge2" class="edge"><title>state_0&#45;&gt;state_2</title>
<path fill="none" stroke="black" d="M208,-1989.72C208,-1976.4 208,-1962.78 208,-1949.34"/>
<polygon fill="black" stroke="black" points="211.5,-1949.11 208,-1939.11 204.5,-1949.11 211.5,-1949.11"/>
<text text-anchor="middle" x="265.5" y="-1960.8" font-family="Times New Roman,serif" font-size="14.00"> &#160;&#160;click(&quot;index=1&quot;) &#160;&#160;</text>
</g>
<!-- state_9 -->
<g id="node6" class="node"><title>state_9</title>
<g id="a_node6"><a xlink:href="9.png">
<polygon fill="none" stroke="black" points="391,-815 261,-815 261,-585 391,-585 391,-815"/>
<image xlink:href="9.png" width="130px" height="230px" preserveAspectRatio="xMinYMin meet" x="261" y="-815"/>
</a>
</g>
</g>
<!-- state_0&#45;&gt;state_9 -->
<g id="edge3" class="edge"><title>state_0&#45;&gt;state_9</title>
<path fill="none" stroke="black" d="M273.307,-2099.57C492.163,-2082.98 1186,-2015.36 1186,-1825 1186,-1825 1186,-1825 1186,-980 1186,-914.371 1217,-880.774 1172,-833 1067.6,-722.163 588.551,-704.187 401.306,-701.429"/>
<polygon fill="black" stroke="black" points="401.319,-697.929 391.272,-701.292 401.223,-704.928 401.319,-697.929"/>
<text text-anchor="middle" x="1243.5" y="-1398.8" font-family="Times New Roman,serif" font-size="14.00"> &#160;&#160;click(&quot;index=3&quot;) &#160;&#160;</text>
</g>
<!-- state_final -->
<g id="node8" class="node"><title>state_final</title>
<g id="a_node8"><a xlink:href="-2.png">
<polygon fill="none" stroke="black" points="241,-253 111,-253 111,-23 241,-23 241,-253"/>
<image xlink:href="-2.png" width="76px" height="74px" preserveAspectRatio="xMinYMin meet" x="138" y="-175"/>
</a>
</g>
</g>
<!-- state_0&#45;&gt;state_final -->
<g id="edge7" class="edge"><title>state_0&#45;&gt;state_final</title>
<path fill="none" stroke="black" d="M142.758,-2056.97C81.7586,-2007.01 0,-1921.97 0,-1825 0,-1825 0,-1825 0,-418 0,-335.849 55.2593,-258.163 103.851,-205.732"/>
<polygon fill="black" stroke="black" points="106.654,-207.861 110.964,-198.182 101.559,-203.06 106.654,-207.861"/>
<text text-anchor="middle" x="62.5" y="-1117.8" font-family="Times New Roman,serif" font-size="14.00"> &#160;&#160;press(&quot;BackKey&quot;) &#160;&#160;</text>
</g>
<!-- state_2&#45;&gt;state_2 -->
<g id="edge9" class="edge"><title>state_2&#45;&gt;state_2</title>
<path fill="none" stroke="black" d="M273.072,-1830.07C283.697,-1829.2 291,-1827.18 291,-1824 291,-1821.96 288.003,-1820.4 283.055,-1819.31"/>
<polygon fill="black" stroke="black" points="283.458,-1815.84 273.072,-1817.93 282.496,-1822.77 283.458,-1815.84"/>
<text text-anchor="middle" x="344" y="-1820.3" font-family="Times New Roman,serif" font-size="14.00"> &#160;&#160;swipe(&quot;Right&quot;) &#160;&#160;</text>
</g>
<!-- state_2&#45;&gt;state_2 -->
<g id="edge10" class="edge"><title>state_2&#45;&gt;state_2</title>
<path fill="none" stroke="black" d="M273.113,-1835.75C328.904,-1839.5 397,-1835.59 397,-1824 397,-1813.11 336.9,-1809 283.364,-1811.66"/>
<polygon fill="black" stroke="black" points="282.892,-1808.18 273.113,-1812.25 283.3,-1815.17 282.892,-1808.18"/>
<text text-anchor="middle" x="446.5" y="-1820.3" font-family="Times New Roman,serif" font-size="14.00"> &#160;&#160;swipe(&quot;Left&quot;) &#160;&#160;</text>
</g>
<!-- state_2&#45;&gt;state_2 -->
<g id="edge11" class="edge"><title>state_2&#45;&gt;state_2</title>
<path fill="none" stroke="black" d="M273.143,-1839.14C359.927,-1848.48 496,-1843.43 496,-1824 496,-1805.31 370.094,-1799.93 283.263,-1807.85"/>
<polygon fill="black" stroke="black" points="282.748,-1804.39 273.143,-1808.86 283.44,-1811.35 282.748,-1804.39"/>
<text text-anchor="middle" x="558.5" y="-1820.3" font-family="Times New Roman,serif" font-size="14.00"> &#160;&#160;press(&quot;BackKey&quot;) &#160;&#160;</text>
</g>
<!-- state_2&#45;&gt;state_2 -->
<g id="edge12" class="edge"><title>state_2&#45;&gt;state_2</title>
<path fill="none" stroke="black" d="M273.369,-1841.48C392.291,-1857.44 621,-1851.62 621,-1824 621,-1797.14 404.628,-1790.89 283.364,-1805.26"/>
<polygon fill="black" stroke="black" points="282.852,-1801.8 273.369,-1806.52 283.729,-1808.74 282.852,-1801.8"/>
<text text-anchor="middle" x="685" y="-1820.3" font-family="Times New Roman,serif" font-size="14.00"> &#160;&#160;press(&quot;MenuKey&quot;) &#160;&#160;</text>
</g>
<!-- state_3 -->
<g id="node3" class="node"><title>state_3</title>
<g id="a_node3"><a xlink:href="3.png">
<polygon fill="none" stroke="black" points="488,-1658 358,-1658 358,-1428 488,-1428 488,-1658"/>
<image xlink:href="3.png" width="130px" height="230px" preserveAspectRatio="xMinYMin meet" x="358" y="-1658"/>
</a>
</g>
</g>
<!-- state_2&#45;&gt;state_3 -->
<g id="edge8" class="edge"><title>state_2&#45;&gt;state_3</title>
<path fill="none" stroke="black" d="M273.091,-1738.53C297.815,-1706.45 326.104,-1669.74 351.398,-1636.92"/>
<polygon fill="black" stroke="black" points="354.428,-1638.72 357.76,-1628.66 348.884,-1634.44 354.428,-1638.72"/>
<text text-anchor="middle" x="360.5" y="-1679.8" font-family="Times New Roman,serif" font-size="14.00"> &#160;&#160;click(&quot;OK&quot;) &#160;&#160;</text>
</g>
<!-- state_3&#45;&gt;state_3 -->
<g id="edge13" class="edge"><title>state_3&#45;&gt;state_3</title>
<path fill="none" stroke="black" d="M488.072,-1549.07C498.697,-1548.2 506,-1546.18 506,-1543 506,-1540.96 503.003,-1539.4 498.055,-1538.31"/>
<polygon fill="black" stroke="black" points="498.458,-1534.84 488.072,-1536.93 497.496,-1541.77 498.458,-1534.84"/>
<text text-anchor="middle" x="563.5" y="-1539.3" font-family="Times New Roman,serif" font-size="14.00"> &#160;&#160;click(&quot;index=1&quot;) &#160;&#160;</text>
</g>
<!-- state_3&#45;&gt;state_3 -->
<g id="edge15" class="edge"><title>state_3&#45;&gt;state_3</title>
<path fill="none" stroke="black" d="M488.181,-1554.59C547.033,-1558.6 621,-1554.74 621,-1543 621,-1531.92 555.175,-1527.86 498.31,-1530.8"/>
<polygon fill="black" stroke="black" points="497.954,-1527.32 488.181,-1531.41 498.372,-1534.3 497.954,-1527.32"/>
<text text-anchor="middle" x="674" y="-1539.3" font-family="Times New Roman,serif" font-size="14.00"> &#160;&#160;swipe(&quot;Right&quot;) &#160;&#160;</text>
</g>
<!-- state_3&#45;&gt;state_3 -->
<g id="edge16" class="edge"><title>state_3&#45;&gt;state_3</title>
<path fill="none" stroke="black" d="M488.304,-1557.88C579.472,-1567.57 727,-1562.61 727,-1543 727,-1524.1 589.94,-1518.81 498.398,-1527.13"/>
<polygon fill="black" stroke="black" points="497.914,-1523.66 488.304,-1528.12 498.599,-1530.62 497.914,-1523.66"/>
<text text-anchor="middle" x="776.5" y="-1539.3" font-family="Times New Roman,serif" font-size="14.00"> &#160;&#160;swipe(&quot;Left&quot;) &#160;&#160;</text>
</g>
<!-- state_3&#45;&gt;state_3 -->
<g id="edge17" class="edge"><title>state_3&#45;&gt;state_3</title>
<path fill="none" stroke="black" d="M488.087,-1560.59C604.617,-1576.41 826,-1570.55 826,-1543 826,-1516.23 616.979,-1509.94 498.233,-1524.11"/>
<polygon fill="black" stroke="black" points="497.565,-1520.67 488.087,-1525.41 498.45,-1527.61 497.565,-1520.67"/>
<text text-anchor="middle" x="890" y="-1539.3" font-family="Times New Roman,serif" font-size="14.00"> &#160;&#160;press(&quot;MenuKey&quot;) &#160;&#160;</text>
</g>
<!-- state_5 -->
<g id="node4" class="node"><title>state_5</title>
<g id="a_node4"><a xlink:href="5.png">
<polygon fill="none" stroke="black" points="488,-1377 358,-1377 358,-1147 488,-1147 488,-1377"/>
<image xlink:href="5.png" width="130px" height="230px" preserveAspectRatio="xMinYMin meet" x="358" y="-1377"/>
</a>
</g>
</g>
<!-- state_3&#45;&gt;state_5 -->
<g id="edge14" class="edge"><title>state_3&#45;&gt;state_5</title>
<path fill="none" stroke="black" d="M423,-1427.72C423,-1414.4 423,-1400.78 423,-1387.34"/>
<polygon fill="black" stroke="black" points="426.5,-1387.11 423,-1377.11 419.5,-1387.11 426.5,-1387.11"/>
<text text-anchor="middle" x="480.5" y="-1398.8" font-family="Times New Roman,serif" font-size="14.00"> &#160;&#160;click(&quot;index=0&quot;) &#160;&#160;</text>
</g>
<!-- state_3&#45;&gt;state_final -->
<g id="edge18" class="edge"><title>state_3&#45;&gt;state_final</title>
<path fill="none" stroke="black" d="M488.183,-1533.12C628.923,-1512.58 954.407,-1457.36 1027,-1377 1061.43,-1338.88 1046,-1314.37 1046,-1263 1046,-1263 1046,-1263 1046,-418 1046,-360.744 1031.8,-338.36 986,-304 869.587,-216.665 429.238,-164.15 251.288,-146.098"/>
<polygon fill="black" stroke="black" points="251.526,-142.604 241.225,-145.086 250.825,-149.569 251.526,-142.604"/>
<text text-anchor="middle" x="1108.5" y="-836.8" font-family="Times New Roman,serif" font-size="14.00"> &#160;&#160;press(&quot;BackKey&quot;) &#160;&#160;</text>
</g>
<!-- state_5&#45;&gt;state_5 -->
<g id="edge20" class="edge"><title>state_5&#45;&gt;state_5</title>
<path fill="none" stroke="black" d="M488.072,-1268.07C498.697,-1267.2 506,-1265.18 506,-1262 506,-1259.96 503.003,-1258.4 498.055,-1257.31"/>
<polygon fill="black" stroke="black" points="498.458,-1253.84 488.072,-1255.93 497.496,-1260.77 498.458,-1253.84"/>
<text text-anchor="middle" x="559" y="-1258.3" font-family="Times New Roman,serif" font-size="14.00"> &#160;&#160;swipe(&quot;Right&quot;) &#160;&#160;</text>
</g>
<!-- state_5&#45;&gt;state_5 -->
<g id="edge21" class="edge"><title>state_5&#45;&gt;state_5</title>
<path fill="none" stroke="black" d="M488.113,-1273.75C543.904,-1277.5 612,-1273.59 612,-1262 612,-1251.11 551.9,-1247 498.364,-1249.66"/>
<polygon fill="black" stroke="black" points="497.892,-1246.18 488.113,-1250.25 498.3,-1253.17 497.892,-1246.18"/>
<text text-anchor="middle" x="661.5" y="-1258.3" font-family="Times New Roman,serif" font-size="14.00"> &#160;&#160;swipe(&quot;Left&quot;) &#160;&#160;</text>
</g>
<!-- state_5&#45;&gt;state_5 -->
<g id="edge22" class="edge"><title>state_5&#45;&gt;state_5</title>
<path fill="none" stroke="black" d="M488.143,-1277.14C574.927,-1286.48 711,-1281.43 711,-1262 711,-1243.31 585.094,-1237.93 498.263,-1245.85"/>
<polygon fill="black" stroke="black" points="497.748,-1242.39 488.143,-1246.86 498.44,-1249.35 497.748,-1242.39"/>
<text text-anchor="middle" x="773.5" y="-1258.3" font-family="Times New Roman,serif" font-size="14.00"> &#160;&#160;press(&quot;BackKey&quot;) &#160;&#160;</text>
</g>
<!-- state_5&#45;&gt;state_5 -->
<g id="edge23" class="edge"><title>state_5&#45;&gt;state_5</title>
<path fill="none" stroke="black" d="M488.369,-1279.48C607.291,-1295.44 836,-1289.62 836,-1262 836,-1235.14 619.628,-1228.89 498.364,-1243.26"/>
<polygon fill="black" stroke="black" points="497.852,-1239.8 488.369,-1244.52 498.729,-1246.74 497.852,-1239.8"/>
<text text-anchor="middle" x="900" y="-1258.3" font-family="Times New Roman,serif" font-size="14.00"> &#160;&#160;press(&quot;MenuKey&quot;) &#160;&#160;</text>
</g>
<!-- state_6 -->
<g id="node5" class="node"><title>state_6</title>
<g id="a_node5"><a xlink:href="6.png">
<polygon fill="none" stroke="black" points="158,-1096 28,-1096 28,-866 158,-866 158,-1096"/>
<image xlink:href="6.png" width="130px" height="230px" preserveAspectRatio="xMinYMin meet" x="28" y="-1096"/>
</a>
</g>
</g>
<!-- state_5&#45;&gt;state_6 -->
<g id="edge19" class="edge"><title>state_5&#45;&gt;state_6</title>
<path fill="none" stroke="black" d="M357.803,-1205.88C302.548,-1159.16 223.375,-1092.23 166.007,-1043.72"/>
<polygon fill="black" stroke="black" points="167.958,-1040.79 158.062,-1037.01 163.439,-1046.14 167.958,-1040.79"/>
<text text-anchor="middle" x="299.5" y="-1117.8" font-family="Times New Roman,serif" font-size="14.00"> &#160;&#160;click(&quot;行&quot;) &#160;&#160;</text>
</g>
<!-- state_30 -->
<g id="node9" class="node"><title>state_30</title>
<g id="a_node9"><a xlink:href="30.png">
<polygon fill="none" stroke="black" points="303,-534 173,-534 173,-304 303,-304 303,-534"/>
<image xlink:href="30.png" width="130px" height="230px" preserveAspectRatio="xMinYMin meet" x="173" y="-534"/>
</a>
</g>
</g>
<!-- state_5&#45;&gt;state_30 -->
<g id="edge24" class="edge"><title>state_5&#45;&gt;state_30</title>
<path fill="none" stroke="black" d="M488.25,-1240.92C551.854,-1217.47 644.947,-1171.87 687,-1096 736.554,-1006.59 754.943,-942.375 687,-866 654.655,-829.641 284.984,-850.781 252,-815 216.758,-776.771 218.335,-645.382 225.489,-544.526"/>
<polygon fill="black" stroke="black" points="229.002,-544.478 226.244,-534.248 222.02,-543.964 229.002,-544.478"/>
<text text-anchor="middle" x="662.5" y="-836.8" font-family="Times New Roman,serif" font-size="14.00"> &#160;&#160;click(&quot;給5星&quot;) &#160;&#160;</text>
</g>
<!-- state_6&#45;&gt;state_2 -->
<g id="edge26" class="edge"><title>state_6&#45;&gt;state_2</title>
<path fill="none" stroke="black" d="M125.317,-1096.22C126.647,-1102.21 127.887,-1108.17 129,-1114 167.75,-1317.01 189.549,-1556.61 200.031,-1698.84"/>
<polygon fill="black" stroke="black" points="196.547,-1699.19 200.766,-1708.91 203.529,-1698.68 196.547,-1699.19"/>
<text text-anchor="middle" x="229.5" y="-1398.8" font-family="Times New Roman,serif" font-size="14.00"> &#160;&#160;click(&quot;index=1&quot;) &#160;&#160;</text>
</g>
<!-- state_6&#45;&gt;state_6 -->
<g id="edge25" class="edge"><title>state_6&#45;&gt;state_6</title>
<path fill="none" stroke="black" d="M158.072,-987.072C168.697,-986.203 176,-984.179 176,-981 176,-978.964 173.003,-977.401 168.055,-976.313"/>
<polygon fill="black" stroke="black" points="168.458,-972.835 158.072,-974.928 167.496,-979.769 168.458,-972.835"/>
<text text-anchor="middle" x="233.5" y="-977.3" font-family="Times New Roman,serif" font-size="14.00"> &#160;&#160;click(&quot;index=1&quot;) &#160;&#160;</text>
</g>
<!-- state_6&#45;&gt;state_6 -->
<g id="edge28" class="edge"><title>state_6&#45;&gt;state_6</title>
<path fill="none" stroke="black" d="M158.181,-992.592C217.033,-996.605 291,-992.741 291,-981 291,-969.924 225.175,-965.858 168.31,-968.802"/>
<polygon fill="black" stroke="black" points="167.954,-965.317 158.181,-969.408 168.372,-972.305 167.954,-965.317"/>
<text text-anchor="middle" x="344" y="-977.3" font-family="Times New Roman,serif" font-size="14.00"> &#160;&#160;swipe(&quot;Right&quot;) &#160;&#160;</text>
</g>
<!-- state_6&#45;&gt;state_6 -->
<g id="edge29" class="edge"><title>state_6&#45;&gt;state_6</title>
<path fill="none" stroke="black" d="M158.304,-995.88C249.472,-1005.57 397,-1000.61 397,-981 397,-962.098 259.94,-956.807 168.398,-965.127"/>
<polygon fill="black" stroke="black" points="167.914,-961.657 158.304,-966.12 168.599,-968.624 167.914,-961.657"/>
<text text-anchor="middle" x="446.5" y="-977.3" font-family="Times New Roman,serif" font-size="14.00"> &#160;&#160;swipe(&quot;Left&quot;) &#160;&#160;</text>
</g>
<!-- state_6&#45;&gt;state_6 -->
<g id="edge30" class="edge"><title>state_6&#45;&gt;state_6</title>
<path fill="none" stroke="black" d="M158.087,-998.595C274.617,-1014.41 496,-1008.55 496,-981 496,-954.231 286.979,-947.936 168.233,-962.114"/>
<polygon fill="black" stroke="black" points="167.565,-958.67 158.087,-963.405 168.45,-965.614 167.565,-958.67"/>
<text text-anchor="middle" x="560" y="-977.3" font-family="Times New Roman,serif" font-size="14.00"> &#160;&#160;press(&quot;MenuKey&quot;) &#160;&#160;</text>
</g>
<!-- state_6&#45;&gt;state_9 -->
<g id="edge27" class="edge"><title>state_6&#45;&gt;state_9</title>
<path fill="none" stroke="black" d="M158.213,-901.912C188.127,-866.092 223.677,-823.524 254.338,-786.81"/>
<polygon fill="black" stroke="black" points="257.079,-788.988 260.802,-779.069 251.706,-784.501 257.079,-788.988"/>
<text text-anchor="middle" x="266.5" y="-836.8" font-family="Times New Roman,serif" font-size="14.00"> &#160;&#160;click(&quot;index=3&quot;) &#160;&#160;</text>
</g>
<!-- state_6&#45;&gt;state_final -->
<g id="edge31" class="edge"><title>state_6&#45;&gt;state_final</title>
<path fill="none" stroke="black" d="M87.2784,-865.702C84.4041,-779.316 83.4616,-657.92 94,-552 103.754,-453.965 125.964,-344.688 144.812,-263.176"/>
<polygon fill="black" stroke="black" points="148.235,-263.909 147.093,-253.376 141.417,-262.322 148.235,-263.909"/>
<text text-anchor="middle" x="156.5" y="-555.8" font-family="Times New Roman,serif" font-size="14.00"> &#160;&#160;press(&quot;BackKey&quot;) &#160;&#160;</text>
</g>
<!-- state_9&#45;&gt;state_9 -->
<g id="edge33" class="edge"><title>state_9&#45;&gt;state_9</title>
<path fill="none" stroke="black" d="M391.072,-706.072C401.697,-705.203 409,-703.179 409,-700 409,-697.964 406.003,-696.401 401.055,-695.313"/>
<polygon fill="black" stroke="black" points="401.458,-691.835 391.072,-693.928 400.496,-698.769 401.458,-691.835"/>
<text text-anchor="middle" x="462" y="-696.3" font-family="Times New Roman,serif" font-size="14.00"> &#160;&#160;swipe(&quot;Right&quot;) &#160;&#160;</text>
</g>
<!-- state_9&#45;&gt;state_9 -->
<g id="edge34" class="edge"><title>state_9&#45;&gt;state_9</title>
<path fill="none" stroke="black" d="M391.113,-711.745C446.904,-715.502 515,-711.587 515,-700 515,-689.115 454.9,-685 401.364,-687.657"/>
<polygon fill="black" stroke="black" points="400.892,-684.178 391.113,-688.255 401.3,-691.166 400.892,-684.178"/>
<text text-anchor="middle" x="564.5" y="-696.3" font-family="Times New Roman,serif" font-size="14.00"> &#160;&#160;swipe(&quot;Left&quot;) &#160;&#160;</text>
</g>
<!-- state_9&#45;&gt;state_9 -->
<g id="edge35" class="edge"><title>state_9&#45;&gt;state_9</title>
<path fill="none" stroke="black" d="M391.143,-715.143C477.927,-724.479 614,-719.431 614,-700 614,-681.309 488.094,-675.927 401.263,-683.853"/>
<polygon fill="black" stroke="black" points="400.748,-680.387 391.143,-684.857 401.44,-687.353 400.748,-680.387"/>
<text text-anchor="middle" x="676.5" y="-696.3" font-family="Times New Roman,serif" font-size="14.00"> &#160;&#160;press(&quot;BackKey&quot;) &#160;&#160;</text>
</g>
<!-- state_9&#45;&gt;state_9 -->
<g id="edge36" class="edge"><title>state_9&#45;&gt;state_9</title>
<path fill="none" stroke="black" d="M391.369,-717.477C510.291,-733.443 739,-727.617 739,-700 739,-673.138 522.628,-666.892 401.364,-681.263"/>
<polygon fill="black" stroke="black" points="400.852,-677.799 391.369,-682.523 401.729,-684.744 400.852,-677.799"/>
<text text-anchor="middle" x="803" y="-696.3" font-family="Times New Roman,serif" font-size="14.00"> &#160;&#160;press(&quot;MenuKey&quot;) &#160;&#160;</text>
</g>
<!-- state_10 -->
<g id="node7" class="node"><title>state_10</title>
<g id="a_node7"><a xlink:href="10.png">
<polygon fill="none" stroke="black" points="457,-534 327,-534 327,-304 457,-304 457,-534"/>
<image xlink:href="10.png" width="130px" height="230px" preserveAspectRatio="xMinYMin meet" x="327" y="-534"/>
</a>
</g>
</g>
<!-- state_9&#45;&gt;state_10 -->
<g id="edge32" class="edge"><title>state_9&#45;&gt;state_10</title>
<path fill="none" stroke="black" d="M365.386,-584.876C367.041,-578.858 368.593,-572.873 370,-567 371.776,-559.589 373.434,-551.932 374.979,-544.184"/>
<polygon fill="black" stroke="black" points="378.422,-544.814 376.876,-534.333 371.548,-543.491 378.422,-544.814"/>
<text text-anchor="middle" x="417.5" y="-555.8" font-family="Times New Roman,serif" font-size="14.00"> &#160;&#160;click(&quot;OK&quot;) &#160;&#160;</text>
</g>
<!-- state_9&#45;&gt;state_30 -->
<g id="edge37" class="edge"><title>state_9&#45;&gt;state_30</title>
<path fill="none" stroke="black" d="M269.231,-584.945C266.976,-578.935 264.879,-572.931 263,-567 260.663,-559.626 258.531,-551.97 256.588,-544.199"/>
<polygon fill="black" stroke="black" points="259.953,-543.22 254.227,-534.306 253.144,-544.846 259.953,-543.22"/>
<text text-anchor="middle" x="314.5" y="-555.8" font-family="Times New Roman,serif" font-size="14.00"> &#160;&#160;click(&quot;給5星&quot;) &#160;&#160;</text>
</g>
<!-- state_10&#45;&gt;state_5 -->
<g id="edge39" class="edge"><title>state_10&#45;&gt;state_5</title>
<path fill="none" stroke="black" d="M457.427,-430.255C587.955,-452.192 873.084,-508.011 930,-585 990.768,-667.199 972.714,-722.13 930,-815 924.863,-826.168 917.061,-823.72 909,-833 806.642,-950.838 838.331,-1027.21 720,-1129 654.899,-1185 562.238,-1221.07 497.792,-1241.11"/>
<polygon fill="black" stroke="black" points="496.64,-1237.8 488.098,-1244.07 498.684,-1244.5 496.64,-1237.8"/>
<text text-anchor="middle" x="966.5" y="-836.8" font-family="Times New Roman,serif" font-size="14.00"> &#160;&#160;click(&quot;index=0&quot;) &#160;&#160;</text>
</g>
<!-- state_10&#45;&gt;state_10 -->
<g id="edge38" class="edge"><title>state_10&#45;&gt;state_10</title>
<path fill="none" stroke="black" d="M457.072,-425.072C467.697,-424.203 475,-422.179 475,-419 475,-416.964 472.003,-415.401 467.055,-414.313"/>
<polygon fill="black" stroke="black" points="467.458,-410.835 457.072,-412.928 466.496,-417.769 467.458,-410.835"/>
<text text-anchor="middle" x="532.5" y="-415.3" font-family="Times New Roman,serif" font-size="14.00"> &#160;&#160;click(&quot;index=1&quot;) &#160;&#160;</text>
</g>
<!-- state_10&#45;&gt;state_10 -->
<g id="edge40" class="edge"><title>state_10&#45;&gt;state_10</title>
<path fill="none" stroke="black" d="M457.181,-430.592C516.033,-434.605 590,-430.741 590,-419 590,-407.924 524.175,-403.858 467.31,-406.802"/>
<polygon fill="black" stroke="black" points="466.954,-403.317 457.181,-407.408 467.372,-410.305 466.954,-403.317"/>
<text text-anchor="middle" x="643" y="-415.3" font-family="Times New Roman,serif" font-size="14.00"> &#160;&#160;swipe(&quot;Right&quot;) &#160;&#160;</text>
</g>
<!-- state_10&#45;&gt;state_10 -->
<g id="edge41" class="edge"><title>state_10&#45;&gt;state_10</title>
<path fill="none" stroke="black" d="M457.304,-433.88C548.472,-443.571 696,-438.611 696,-419 696,-400.098 558.94,-394.807 467.398,-403.127"/>
<polygon fill="black" stroke="black" points="466.914,-399.657 457.304,-404.12 467.599,-406.624 466.914,-399.657"/>
<text text-anchor="middle" x="745.5" y="-415.3" font-family="Times New Roman,serif" font-size="14.00"> &#160;&#160;swipe(&quot;Left&quot;) &#160;&#160;</text>
</g>
<!-- state_10&#45;&gt;state_10 -->
<g id="edge42" class="edge"><title>state_10&#45;&gt;state_10</title>
<path fill="none" stroke="black" d="M457.087,-436.595C573.617,-452.414 795,-446.549 795,-419 795,-392.231 585.979,-385.936 467.233,-400.114"/>
<polygon fill="black" stroke="black" points="466.565,-396.67 457.087,-401.405 467.45,-403.614 466.565,-396.67"/>
<text text-anchor="middle" x="859" y="-415.3" font-family="Times New Roman,serif" font-size="14.00"> &#160;&#160;press(&quot;MenuKey&quot;) &#160;&#160;</text>
</g>
<!-- state_10&#45;&gt;state_final -->
<g id="edge43" class="edge"><title>state_10&#45;&gt;state_final</title>
<path fill="none" stroke="black" d="M326.869,-323.952C321.898,-317.156 316.906,-310.445 312,-304 291.725,-277.365 268.86,-249.022 247.745,-223.479"/>
<polygon fill="black" stroke="black" points="250.329,-221.112 241.253,-215.646 244.94,-225.579 250.329,-221.112"/>
<text text-anchor="middle" x="359.5" y="-274.8" font-family="Times New Roman,serif" font-size="14.00"> &#160;&#160;press(&quot;BackKey&quot;) &#160;&#160;</text>
</g>
</g>
</svg>
