<?xml version="1.0" encoding="UTF-8" standalone="no"?>
<!DOCTYPE svg PUBLIC "-//W3C//DTD SVG 1.1//EN"
 "http://www.w3.org/Graphics/SVG/1.1/DTD/svg11.dtd">
<!-- Generated by graphviz version 2.38.0 (20140413.2041)
 -->
<!-- Title: activity_1 Pages: 1 -->
<svg width="675pt" height="1362pt"
 viewBox="0.00 0.00 675.00 1362.00" xmlns="http://www.w3.org/2000/svg" xmlns:xlink="http://www.w3.org/1999/xlink">
<g id="graph0" class="graph" transform="scale(1 1) rotate(0) translate(4 1358)">
<title>activity_1</title>
<polygon fill="white" stroke="none" points="-4,4 -4,-1358 671,-1358 671,4 -4,4"/>
<!-- state_8 -->
<g id="node1" class="node"><title>state_8</title>
<g id="a_node1"><a xlink:href="8.png">
<polygon fill="none" stroke="black" points="325,-1354 195,-1354 195,-1124 325,-1124 325,-1354"/>
<image xlink:href="8.png" width="130px" height="230px" preserveAspectRatio="xMinYMin meet" x="195" y="-1354"/>
</a>
</g>
</g>
<!-- state_8&#45;&gt;state_8 -->
<g id="edge3" class="edge"><title>state_8&#45;&gt;state_8</title>
<path fill="none" stroke="black" d="M325.072,-1247.1C335.697,-1245.94 343,-1243.24 343,-1239 343,-1236.28 340.003,-1234.2 335.055,-1232.75"/>
<polygon fill="black" stroke="black" points="335.541,-1229.28 325.072,-1230.9 334.269,-1236.16 335.541,-1229.28"/>
<text text-anchor="middle" x="385" y="-1235.3" font-family="Times New Roman,serif" font-size="14.00"> &#160;&#160;swipe right &#160;&#160;</text>
</g>
<!-- state_8&#45;&gt;state_8 -->
<g id="edge4" class="edge"><title>state_8&#45;&gt;state_8</title>
<path fill="none" stroke="black" d="M325.422,-1255.23C373.276,-1259.22 427,-1253.81 427,-1239 427,-1225.23 380.566,-1219.59 335.583,-1222.07"/>
<polygon fill="black" stroke="black" points="335.157,-1218.59 325.422,-1222.77 335.64,-1225.57 335.157,-1218.59"/>
<text text-anchor="middle" x="465" y="-1235.3" font-family="Times New Roman,serif" font-size="14.00"> &#160;&#160;swipe left &#160;&#160;</text>
</g>
<!-- state_8&#45;&gt;state_8 -->
<g id="edge6" class="edge"><title>state_8&#45;&gt;state_8</title>
<path fill="none" stroke="black" d="M325.047,-1260.36C398.812,-1271.17 503,-1264.05 503,-1239 503,-1215.07 407.963,-1207.5 335.16,-1216.29"/>
<polygon fill="black" stroke="black" points="334.497,-1212.85 325.047,-1217.64 335.422,-1219.79 334.497,-1212.85"/>
<text text-anchor="middle" x="567" y="-1235.3" font-family="Times New Roman,serif" font-size="14.00"> &#160;&#160;press(&quot;MenuKey&quot;) &#160;&#160;</text>
</g>
<!-- state_47 -->
<g id="node2" class="node"><title>state_47</title>
<g id="a_node2"><a xlink:href="47.png">
<polygon fill="none" stroke="black" points="187,-1073 57,-1073 57,-843 187,-843 187,-1073"/>
<image xlink:href="47.png" width="130px" height="230px" preserveAspectRatio="xMinYMin meet" x="57" y="-1073"/>
</a>
</g>
</g>
<!-- state_8&#45;&gt;state_47 -->
<g id="edge1" class="edge"><title>state_8&#45;&gt;state_47</title>
<path fill="none" stroke="black" d="M194.991,-1182.84C173.634,-1161.13 152.048,-1134.56 139,-1106 135.661,-1098.69 132.883,-1090.97 130.581,-1083.05"/>
<polygon fill="black" stroke="black" points="133.944,-1082.08 128.002,-1073.31 127.177,-1083.87 133.944,-1082.08"/>
<text text-anchor="middle" x="196.5" y="-1094.8" font-family="Times New Roman,serif" font-size="14.00"> &#160;&#160;click(&quot;index=0&quot;) &#160;&#160;</text>
</g>
<!-- activity_0 -->
<g id="node6" class="node"><title>activity_0</title>
<ellipse fill="none" stroke="red" cx="329" cy="-958" rx="46.2923" ry="18"/>
<text text-anchor="middle" x="329" y="-954.3" font-family="Times New Roman,serif" font-size="14.00" fill="red">activity_0</text>
</g>
<!-- state_8&#45;&gt;activity_0 -->
<g id="edge2" class="edge"><title>state_8&#45;&gt;activity_0</title>
<path fill="none" stroke="red" d="M255.519,-1123.79C256.65,-1112.62 258.409,-1101.53 261,-1091 270.862,-1050.92 294.99,-1009.34 311.68,-983.811"/>
<polygon fill="red" stroke="red" points="314.599,-985.742 317.237,-975.481 308.776,-981.857 314.599,-985.742"/>
<text text-anchor="middle" x="318.5" y="-1094.8" font-family="Times New Roman,serif" font-size="14.00" fill="red"> &#160;&#160;click(&quot;index=0&quot;) &#160;&#160;</text>
</g>
<!-- state_8&#45;&gt;activity_0 -->
<g id="edge5" class="edge"><title>state_8&#45;&gt;activity_0</title>
<path fill="none" stroke="red" d="M325.046,-1182.17C345.385,-1160.67 365.293,-1134.4 376,-1106 391.931,-1063.74 366.505,-1013.4 347.279,-983.942"/>
<polygon fill="red" stroke="red" points="350.069,-981.82 341.563,-975.502 344.273,-985.745 350.069,-981.82"/>
<text text-anchor="middle" x="441.5" y="-1094.8" font-family="Times New Roman,serif" font-size="14.00" fill="red"> &#160;&#160;press(&quot;BackKey&quot;) &#160;&#160;</text>
</g>
<!-- state_48 -->
<g id="node3" class="node"><title>state_48</title>
<g id="a_node3"><a xlink:href="48.png">
<polygon fill="none" stroke="black" points="130,-792 0,-792 0,-562 130,-562 130,-792"/>
<image xlink:href="48.png" width="130px" height="230px" preserveAspectRatio="xMinYMin meet" x="0" y="-792"/>
</a>
</g>
</g>
<!-- state_47&#45;&gt;state_48 -->
<g id="edge7" class="edge"><title>state_47&#45;&gt;state_48</title>
<path fill="none" stroke="black" d="M76.2822,-842.817C74.6667,-836.841 73.2212,-830.878 72,-825 70.447,-817.525 69.1612,-809.791 68.1013,-801.963"/>
<polygon fill="black" stroke="black" points="71.5715,-801.505 66.8766,-792.007 64.6239,-802.359 71.5715,-801.505"/>
<text text-anchor="middle" x="114" y="-813.8" font-family="Times New Roman,serif" font-size="14.00"> &#160;&#160;swipe right &#160;&#160;</text>
</g>
<!-- state_49 -->
<g id="node4" class="node"><title>state_49</title>
<g id="a_node4"><a xlink:href="49.png">
<polygon fill="none" stroke="black" points="130,-511 0,-511 0,-281 130,-281 130,-511"/>
<image xlink:href="49.png" width="130px" height="230px" preserveAspectRatio="xMinYMin meet" x="0" y="-511"/>
</a>
</g>
</g>
<!-- state_48&#45;&gt;state_49 -->
<g id="edge8" class="edge"><title>state_48&#45;&gt;state_49</title>
<path fill="none" stroke="black" d="M63.9858,-561.644C63.9591,-550.612 63.9599,-539.591 64,-529 64.0097,-526.443 64.0204,-523.859 64.0321,-521.254"/>
<polygon fill="black" stroke="black" points="67.5326,-521.136 64.0816,-511.119 60.5327,-521.102 67.5326,-521.136"/>
<text text-anchor="middle" x="106" y="-532.8" font-family="Times New Roman,serif" font-size="14.00"> &#160;&#160;swipe right &#160;&#160;</text>
</g>
<!-- state_50 -->
<g id="node5" class="node"><title>state_50</title>
<g id="a_node5"><a xlink:href="50.png">
<polygon fill="none" stroke="black" points="184,-230 54,-230 54,-0 184,-0 184,-230"/>
<image xlink:href="50.png" width="130px" height="230px" preserveAspectRatio="xMinYMin meet" x="54" y="-230"/>
</a>
</g>
</g>
<!-- state_49&#45;&gt;state_50 -->
<g id="edge9" class="edge"><title>state_49&#45;&gt;state_50</title>
<path fill="none" stroke="black" d="M67.1415,-280.642C68.3384,-269.558 69.9226,-258.528 72,-248 72.5228,-245.351 73.0887,-242.683 73.6928,-240.003"/>
<polygon fill="black" stroke="black" points="77.1005,-240.801 76.0396,-230.26 70.2951,-239.162 77.1005,-240.801"/>
<text text-anchor="middle" x="114" y="-251.8" font-family="Times New Roman,serif" font-size="14.00"> &#160;&#160;swipe right &#160;&#160;</text>
</g>
<!-- state_50&#45;&gt;state_47 -->
<g id="edge10" class="edge"><title>state_50&#45;&gt;state_47</title>
<path fill="none" stroke="black" d="M153.031,-230.071C154.184,-236.103 155.189,-242.105 156,-248 190.933,-502.054 188.239,-570.59 156,-825 155.675,-827.568 155.315,-830.157 154.925,-832.761"/>
<polygon fill="black" stroke="black" points="151.432,-832.434 153.274,-842.867 158.34,-833.562 151.432,-832.434"/>
<text text-anchor="middle" x="224" y="-532.8" font-family="Times New Roman,serif" font-size="14.00"> &#160;&#160;swipe right &#160;&#160;</text>
</g>
</g>
</svg>
