<?xml version="1.0" encoding="UTF-8" standalone="no"?>
<!DOCTYPE svg PUBLIC "-//W3C//DTD SVG 1.1//EN"
 "http://www.w3.org/Graphics/SVG/1.1/DTD/svg11.dtd">
<!-- Generated by graphviz version 2.38.0 (20140413.2041)
 -->
<!-- Title: activity_0 Pages: 1 -->
<svg width="2261pt" height="887pt"
 viewBox="0.00 0.00 2261.49 887.00" xmlns="http://www.w3.org/2000/svg" xmlns:xlink="http://www.w3.org/1999/xlink">
<g id="graph0" class="graph" transform="scale(1 1) rotate(0) translate(4 883)">
<title>activity_0</title>
<polygon fill="white" stroke="none" points="-4,4 -4,-883 2257.49,-883 2257.49,4 -4,4"/>
<!-- state_0 -->
<g id="node1" class="node"><title>state_0</title>
<g id="a_node1"><a xlink:href="0.png">
<polygon fill="none" stroke="black" points="1156.49,-879 1026.49,-879 1026.49,-649 1156.49,-649 1156.49,-879"/>
<image xlink:href="0.png" width="130px" height="230px" preserveAspectRatio="xMinYMin meet" x="1026.49" y="-879"/>
</a>
</g>
</g>
<!-- state_0&#45;&gt;state_0 -->
<g id="edge1" class="edge"><title>state_0&#45;&gt;state_0</title>
<path fill="none" stroke="black" d="M1156.56,-767.036C1167.19,-766.601 1174.49,-765.589 1174.49,-764 1174.49,-762.982 1171.49,-762.201 1166.55,-761.656"/>
<polygon fill="black" stroke="black" points="1166.78,-758.164 1156.56,-760.964 1166.3,-765.148 1166.78,-758.164"/>
<text text-anchor="middle" x="1216.49" y="-760.3" font-family="Times New Roman,serif" font-size="14.00"> &#160;&#160;swipe right &#160;&#160;</text>
</g>
<!-- state_0&#45;&gt;state_0 -->
<g id="edge2" class="edge"><title>state_0&#45;&gt;state_0</title>
<path fill="none" stroke="black" d="M1156.91,-770.086C1204.77,-771.583 1258.49,-769.554 1258.49,-764 1258.49,-758.836 1212.06,-756.72 1167.07,-757.651"/>
<polygon fill="black" stroke="black" points="1166.82,-754.156 1156.91,-757.914 1167,-761.154 1166.82,-754.156"/>
<text text-anchor="middle" x="1296.49" y="-760.3" font-family="Times New Roman,serif" font-size="14.00"> &#160;&#160;swipe left &#160;&#160;</text>
</g>
<!-- state_0&#45;&gt;state_0 -->
<g id="edge4" class="edge"><title>state_0&#45;&gt;state_0</title>
<path fill="none" stroke="black" d="M1156.54,-772.01C1230.3,-776.065 1334.49,-773.395 1334.49,-764 1334.49,-755.027 1239.45,-752.188 1166.65,-755.484"/>
<polygon fill="black" stroke="black" points="1166.35,-751.995 1156.54,-755.99 1166.7,-758.986 1166.35,-751.995"/>
<text text-anchor="middle" x="1370.99" y="-760.3" font-family="Times New Roman,serif" font-size="14.00"> &#160;&#160;swipe up &#160;&#160;</text>
</g>
<!-- state_0&#45;&gt;state_0 -->
<g id="edge5" class="edge"><title>state_0&#45;&gt;state_0</title>
<path fill="none" stroke="black" d="M1156.8,-773.609C1251.84,-780.482 1407.49,-777.279 1407.49,-764 1407.49,-751.188 1262.59,-747.756 1167.04,-753.704"/>
<polygon fill="black" stroke="black" points="1166.55,-750.229 1156.8,-754.391 1167.02,-757.213 1166.55,-750.229"/>
<text text-anchor="middle" x="1539.99" y="-760.3" font-family="Times New Roman,serif" font-size="14.00"> &#160;&#160;click(&quot;此页面是空白的 点选此处开始输入&quot;) &#160;&#160;</text>
</g>
<!-- state_0&#45;&gt;state_0 -->
<g id="edge6" class="edge"><title>state_0&#45;&gt;state_0</title>
<path fill="none" stroke="black" d="M1156.72,-773.445C1311.62,-785.21 1672.49,-782.062 1672.49,-764 1672.49,-746.326 1326.95,-742.932 1166.98,-753.817"/>
<polygon fill="black" stroke="black" points="1166.44,-750.347 1156.72,-754.555 1166.94,-757.329 1166.44,-750.347"/>
<text text-anchor="middle" x="1744.49" y="-760.3" font-family="Times New Roman,serif" font-size="14.00"> &#160;&#160;long&#45;click(&quot;index=0&quot;) &#160;&#160;</text>
</g>
<!-- state_0&#45;&gt;state_0 -->
<g id="edge7" class="edge"><title>state_0&#45;&gt;state_0</title>
<path fill="none" stroke="black" d="M1156.72,-774.249C1338.65,-789.629 1816.49,-786.213 1816.49,-764 1816.49,-742.189 1355.76,-738.501 1166.87,-752.935"/>
<polygon fill="black" stroke="black" points="1166.41,-749.461 1156.72,-753.751 1166.97,-756.438 1166.41,-749.461"/>
<text text-anchor="middle" x="1891.99" y="-760.3" font-family="Times New Roman,serif" font-size="14.00"> &#160;&#160;input(&quot;&quot;) on &quot;index=0&quot; &#160;&#160;</text>
</g>
<!-- state_0&#45;&gt;state_0 -->
<g id="edge8" class="edge"><title>state_0&#45;&gt;state_0</title>
<path fill="none" stroke="black" d="M1156.65,-774.941C1364.15,-794.04 1967.49,-790.393 1967.49,-764 1967.49,-738.019 1382.85,-734.079 1166.66,-752.18"/>
<polygon fill="black" stroke="black" points="1166.31,-748.698 1156.65,-753.059 1166.92,-755.671 1166.31,-748.698"/>
<text text-anchor="middle" x="2009.49" y="-760.3" font-family="Times New Roman,serif" font-size="14.00"> &#160;&#160;swipe right &#160;&#160;</text>
</g>
<!-- state_0&#45;&gt;state_0 -->
<g id="edge9" class="edge"><title>state_0&#45;&gt;state_0</title>
<path fill="none" stroke="black" d="M1156.79,-775.904C1378.17,-798.405 2051.49,-794.437 2051.49,-764 2051.49,-734.009 1397.75,-729.717 1166.81,-751.124"/>
<polygon fill="black" stroke="black" points="1166.41,-747.646 1156.79,-752.096 1167.08,-754.614 1166.41,-747.646"/>
<text text-anchor="middle" x="2089.49" y="-760.3" font-family="Times New Roman,serif" font-size="14.00"> &#160;&#160;swipe left &#160;&#160;</text>
</g>
<!-- state_3 -->
<g id="node2" class="node"><title>state_3</title>
<g id="a_node2"><a xlink:href="3.png">
<polygon fill="none" stroke="black" points="658.49,-598 528.49,-598 528.49,-368 658.49,-368 658.49,-598"/>
<image xlink:href="3.png" width="130px" height="230px" preserveAspectRatio="xMinYMin meet" x="528.49" y="-598"/>
</a>
</g>
</g>
<!-- state_0&#45;&gt;state_3 -->
<g id="edge3" class="edge"><title>state_0&#45;&gt;state_3</title>
<path fill="none" stroke="black" d="M1026.07,-755.388C903.599,-739.654 647.311,-699.2 594.49,-631 589.098,-624.039 585.142,-616.284 582.332,-608.076"/>
<polygon fill="black" stroke="black" points="585.641,-606.916 579.542,-598.253 578.907,-608.829 585.641,-606.916"/>
<text text-anchor="middle" x="639.99" y="-619.8" font-family="Times New Roman,serif" font-size="14.00"> &#160;&#160;swipe down &#160;&#160;</text>
</g>
<!-- state_28 -->
<g id="node4" class="node"><title>state_28</title>
<g id="a_node4"><a xlink:href="28.png">
<polygon fill="none" stroke="black" points="1711.49,-317 1581.49,-317 1581.49,-87 1711.49,-87 1711.49,-317"/>
<image xlink:href="28.png" width="130px" height="230px" preserveAspectRatio="xMinYMin meet" x="1581.49" y="-317"/>
</a>
</g>
</g>
<!-- state_0&#45;&gt;state_28 -->
<g id="edge10" class="edge"><title>state_0&#45;&gt;state_28</title>
<path fill="none" stroke="black" d="M1156.71,-735.611C1212.05,-708.847 1288.9,-662.674 1330.49,-598 1386.65,-510.666 1300.76,-444.019 1371.49,-368 1387.18,-351.131 1553.76,-330.421 1572.49,-317 1572.78,-316.794 1573.06,-316.586 1573.35,-316.377"/>
<polygon fill="black" stroke="black" points="1575.79,-318.904 1581.41,-309.922 1571.42,-313.44 1575.79,-318.904"/>
<text text-anchor="middle" x="1435.49" y="-479.3" font-family="Times New Roman,serif" font-size="14.00"> &#160;&#160;press(&quot;MenuKey&quot;) &#160;&#160;</text>
</g>
<!-- state_3&#45;&gt;state_0 -->
<g id="edge14" class="edge"><title>state_3&#45;&gt;state_0</title>
<path fill="none" stroke="black" d="M658.79,-583.942C673.54,-601.358 690.286,-618.02 708.49,-631 802.905,-698.32 934.568,-733.679 1016.34,-750.321"/>
<polygon fill="black" stroke="black" points="1015.81,-753.785 1026.3,-752.306 1017.18,-746.92 1015.81,-753.785"/>
<text text-anchor="middle" x="744.99" y="-619.8" font-family="Times New Roman,serif" font-size="14.00"> &#160;&#160;swipe up &#160;&#160;</text>
</g>
<!-- state_3&#45;&gt;state_0 -->
<g id="edge17" class="edge"><title>state_3&#45;&gt;state_0</title>
<path fill="none" stroke="black" d="M658.655,-529.815C717.758,-571.303 796.813,-626.607 804.49,-631 874.185,-670.885 958.039,-708.326 1017.06,-733.071"/>
<polygon fill="black" stroke="black" points="1015.73,-736.311 1026.31,-736.932 1018.43,-729.851 1015.73,-736.311"/>
<text text-anchor="middle" x="936.99" y="-619.8" font-family="Times New Roman,serif" font-size="14.00"> &#160;&#160;click(&quot;此页面是空白的 点选此处开始输入&quot;) &#160;&#160;</text>
</g>
<!-- state_3&#45;&gt;state_0 -->
<g id="edge19" class="edge"><title>state_3&#45;&gt;state_0</title>
<path fill="none" stroke="black" d="M658.55,-493.205C775.712,-511.15 1015.07,-554.507 1069.49,-616 1075.64,-622.954 1080.5,-630.857 1084.31,-639.306"/>
<polygon fill="black" stroke="black" points="1081.08,-640.673 1088.04,-648.669 1087.59,-638.083 1081.08,-640.673"/>
<text text-anchor="middle" x="1153.99" y="-619.8" font-family="Times New Roman,serif" font-size="14.00"> &#160;&#160;input(&quot;&quot;) on &quot;index=0&quot; &#160;&#160;</text>
</g>
<!-- state_3&#45;&gt;state_3 -->
<g id="edge11" class="edge"><title>state_3&#45;&gt;state_3</title>
<path fill="none" stroke="black" d="M658.562,-487.048C669.187,-486.468 676.49,-485.119 676.49,-483 676.49,-481.642 673.493,-480.601 668.545,-479.875"/>
<polygon fill="black" stroke="black" points="668.841,-476.388 658.562,-478.952 668.197,-483.358 668.841,-476.388"/>
<text text-anchor="middle" x="718.49" y="-479.3" font-family="Times New Roman,serif" font-size="14.00"> &#160;&#160;swipe right &#160;&#160;</text>
</g>
<!-- state_3&#45;&gt;state_3 -->
<g id="edge12" class="edge"><title>state_3&#45;&gt;state_3</title>
<path fill="none" stroke="black" d="M658.912,-491.114C706.766,-493.11 760.49,-490.406 760.49,-483 760.49,-476.115 714.056,-473.293 669.073,-474.534"/>
<polygon fill="black" stroke="black" points="668.785,-471.042 658.912,-474.886 669.027,-478.038 668.785,-471.042"/>
<text text-anchor="middle" x="798.49" y="-479.3" font-family="Times New Roman,serif" font-size="14.00"> &#160;&#160;swipe left &#160;&#160;</text>
</g>
<!-- state_3&#45;&gt;state_3 -->
<g id="edge13" class="edge"><title>state_3&#45;&gt;state_3</title>
<path fill="none" stroke="black" d="M658.537,-493.68C732.302,-499.087 836.49,-495.527 836.49,-483 836.49,-471.036 741.453,-467.251 668.65,-471.646"/>
<polygon fill="black" stroke="black" points="668.282,-468.163 658.537,-472.32 668.748,-475.147 668.282,-468.163"/>
<text text-anchor="middle" x="881.99" y="-479.3" font-family="Times New Roman,serif" font-size="14.00"> &#160;&#160;swipe down &#160;&#160;</text>
</g>
<!-- state_3&#45;&gt;state_3 -->
<g id="edge18" class="edge"><title>state_3&#45;&gt;state_3</title>
<path fill="none" stroke="black" d="M658.753,-495.561C758.474,-505.052 927.49,-500.865 927.49,-483 927.49,-465.729 769.512,-461.242 668.907,-469.539"/>
<polygon fill="black" stroke="black" points="668.405,-466.07 658.753,-470.439 669.023,-473.042 668.405,-466.07"/>
<text text-anchor="middle" x="999.49" y="-479.3" font-family="Times New Roman,serif" font-size="14.00"> &#160;&#160;long&#45;click(&quot;index=0&quot;) &#160;&#160;</text>
</g>
<!-- state_3&#45;&gt;state_3 -->
<g id="edge20" class="edge"><title>state_3&#45;&gt;state_3</title>
<path fill="none" stroke="black" d="M658.72,-496.542C792.743,-511.098 1071.49,-506.584 1071.49,-483 1071.49,-459.992 806.188,-455.134 668.789,-468.426"/>
<polygon fill="black" stroke="black" points="668.311,-464.956 658.72,-469.458 669.025,-471.92 668.311,-464.956"/>
<text text-anchor="middle" x="1113.49" y="-479.3" font-family="Times New Roman,serif" font-size="14.00"> &#160;&#160;swipe right &#160;&#160;</text>
</g>
<!-- state_3&#45;&gt;state_3 -->
<g id="edge21" class="edge"><title>state_3&#45;&gt;state_3</title>
<path fill="none" stroke="black" d="M658.518,-498.012C810.438,-516.954 1155.49,-511.95 1155.49,-483 1155.49,-454.672 825.105,-449.272 668.572,-466.8"/>
<polygon fill="black" stroke="black" points="668.038,-463.339 658.518,-467.988 668.86,-470.29 668.038,-463.339"/>
<text text-anchor="middle" x="1193.49" y="-479.3" font-family="Times New Roman,serif" font-size="14.00"> &#160;&#160;swipe left &#160;&#160;</text>
</g>
<!-- state_9 -->
<g id="node3" class="node"><title>state_9</title>
<g id="a_node3"><a xlink:href="9.png">
<polygon fill="none" stroke="black" points="423.49,-317 293.49,-317 293.49,-87 423.49,-87 423.49,-317"/>
<image xlink:href="9.png" width="130px" height="230px" preserveAspectRatio="xMinYMin meet" x="293.49" y="-317"/>
</a>
</g>
</g>
<!-- state_3&#45;&gt;state_9 -->
<g id="edge15" class="edge"><title>state_3&#45;&gt;state_9</title>
<path fill="none" stroke="black" d="M528.399,-466.035C471.311,-448.206 391.768,-413.174 354.49,-350 350.247,-342.809 347.153,-335.057 344.984,-327.004"/>
<polygon fill="black" stroke="black" points="348.36,-326.057 342.783,-317.049 341.525,-327.569 348.36,-326.057"/>
<text text-anchor="middle" x="411.99" y="-338.8" font-family="Times New Roman,serif" font-size="14.00"> &#160;&#160;click(&quot;index=2&quot;) &#160;&#160;</text>
</g>
<!-- state_3&#45;&gt;state_28 -->
<g id="edge16" class="edge"><title>state_3&#45;&gt;state_28</title>
<path fill="none" stroke="black" d="M658.637,-453.115C742,-417.748 891.762,-359.533 1026.49,-335 1086.21,-324.126 1519.63,-346.844 1572.49,-317 1572.59,-316.946 1572.68,-316.891 1572.78,-316.836"/>
<polygon fill="black" stroke="black" points="1574.92,-319.617 1581.42,-311.245 1571.12,-313.741 1574.92,-319.617"/>
<text text-anchor="middle" x="1074.49" y="-338.8" font-family="Times New Roman,serif" font-size="14.00"> &#160;&#160;click(&quot;菜单&quot;) &#160;&#160;</text>
</g>
<!-- state_3&#45;&gt;state_28 -->
<g id="edge23" class="edge"><title>state_3&#45;&gt;state_28</title>
<path fill="none" stroke="black" d="M658.566,-462.479C770.957,-429.703 1009.24,-364.324 1215.49,-335 1254.81,-329.41 1538.08,-336.828 1572.49,-317 1572.59,-316.945 1572.68,-316.889 1572.78,-316.834"/>
<polygon fill="black" stroke="black" points="1574.95,-319.595 1581.38,-311.174 1571.1,-313.748 1574.95,-319.595"/>
<text text-anchor="middle" x="1279.49" y="-338.8" font-family="Times New Roman,serif" font-size="14.00"> &#160;&#160;press(&quot;MenuKey&quot;) &#160;&#160;</text>
</g>
<!-- activity_5 -->
<g id="node5" class="node"><title>activity_5</title>
<ellipse fill="none" stroke="red" cx="1301.49" cy="-18" rx="46.2923" ry="18"/>
<text text-anchor="middle" x="1301.49" y="-14.3" font-family="Times New Roman,serif" font-size="14.00" fill="red">activity_5</text>
</g>
<!-- state_3&#45;&gt;activity_5 -->
<g id="edge22" class="edge"><title>state_3&#45;&gt;activity_5</title>
<path fill="none" stroke="red" d="M528.351,-472.025C396.853,-450.417 107.254,-394.883 49.4899,-317 -11.4052,-234.895 -20.8048,-161.216 49.4899,-87 91.1354,-43.0312 1006.7,-24.1171 1245.13,-19.9267"/>
<polygon fill="red" stroke="red" points="1245.38,-23.4231 1255.31,-19.7496 1245.26,-16.4242 1245.38,-23.4231"/>
<text text-anchor="middle" x="111.99" y="-198.3" font-family="Times New Roman,serif" font-size="14.00" fill="red"> &#160;&#160;press(&quot;BackKey&quot;) &#160;&#160;</text>
</g>
<!-- activity_1 -->
<g id="node6" class="node"><title>activity_1</title>
<ellipse fill="none" stroke="red" cx="229.49" cy="-202" rx="46.2923" ry="18"/>
<text text-anchor="middle" x="229.49" y="-198.3" font-family="Times New Roman,serif" font-size="14.00" fill="red">activity_1</text>
</g>
<!-- state_3&#45;&gt;activity_1 -->
<g id="edge24" class="edge"><title>state_3&#45;&gt;activity_1</title>
<path fill="none" stroke="red" d="M528.471,-476.684C449.007,-466.462 316.724,-436.667 248.49,-350 221.46,-315.668 221.928,-262.206 225.308,-230.096"/>
<polygon fill="red" stroke="red" points="228.793,-230.435 226.531,-220.084 221.845,-229.586 228.793,-230.435"/>
<text text-anchor="middle" x="296.49" y="-338.8" font-family="Times New Roman,serif" font-size="14.00" fill="red"> &#160;&#160;click(&quot;内容&quot;) &#160;&#160;</text>
</g>
<!-- state_9&#45;&gt;state_3 -->
<g id="edge25" class="edge"><title>state_9&#45;&gt;state_3</title>
<path fill="none" stroke="black" d="M423.765,-280.497C454.217,-316.65 490.544,-359.779 521.761,-396.841"/>
<polygon fill="black" stroke="black" points="519.222,-399.26 528.341,-404.653 524.576,-394.75 519.222,-399.26"/>
<text text-anchor="middle" x="533.99" y="-338.8" font-family="Times New Roman,serif" font-size="14.00"> &#160;&#160;click(&quot;index=1&quot;) &#160;&#160;</text>
</g>
<!-- state_9&#45;&gt;state_3 -->
<g id="edge34" class="edge"><title>state_9&#45;&gt;state_3</title>
<path fill="none" stroke="black" d="M423.604,-219.299C480.187,-237.289 558.682,-272.367 595.49,-335 599.719,-342.196 602.835,-349.953 605.053,-358.009"/>
<polygon fill="black" stroke="black" points="601.689,-358.998 607.328,-367.967 608.513,-357.439 601.689,-358.998"/>
<text text-anchor="middle" x="663.99" y="-338.8" font-family="Times New Roman,serif" font-size="14.00"> &#160;&#160;press(&quot;BackKey&quot;) &#160;&#160;</text>
</g>
<!-- state_9&#45;&gt;state_9 -->
<g id="edge26" class="edge"><title>state_9&#45;&gt;state_9</title>
<path fill="none" stroke="black" d="M423.562,-204.699C434.187,-204.312 441.49,-203.413 441.49,-202 441.49,-201.095 438.493,-200.401 433.545,-199.917"/>
<polygon fill="black" stroke="black" points="433.758,-196.423 423.562,-199.301 433.327,-203.41 433.758,-196.423"/>
<text text-anchor="middle" x="498.99" y="-198.3" font-family="Times New Roman,serif" font-size="14.00"> &#160;&#160;click(&quot;index=0&quot;) &#160;&#160;</text>
</g>
<!-- state_9&#45;&gt;state_9 -->
<g id="edge27" class="edge"><title>state_9&#45;&gt;state_9</title>
<path fill="none" stroke="black" d="M423.671,-207.152C482.523,-208.935 556.49,-207.218 556.49,-202 556.49,-197.077 490.664,-195.27 433.8,-196.579"/>
<polygon fill="black" stroke="black" points="433.574,-193.083 423.671,-196.848 433.76,-200.081 433.574,-193.083"/>
<text text-anchor="middle" x="613.99" y="-198.3" font-family="Times New Roman,serif" font-size="14.00"> &#160;&#160;click(&quot;index=1&quot;) &#160;&#160;</text>
</g>
<!-- state_9&#45;&gt;state_9 -->
<g id="edge28" class="edge"><title>state_9&#45;&gt;state_9</title>
<path fill="none" stroke="black" d="M423.765,-208.545C517.339,-212.943 671.49,-210.761 671.49,-202 671.49,-193.547 527.987,-191.218 433.85,-195.015"/>
<polygon fill="black" stroke="black" points="433.603,-191.523 423.765,-195.455 433.908,-198.516 433.603,-191.523"/>
<text text-anchor="middle" x="728.99" y="-198.3" font-family="Times New Roman,serif" font-size="14.00"> &#160;&#160;click(&quot;index=2&quot;) &#160;&#160;</text>
</g>
<!-- state_9&#45;&gt;state_9 -->
<g id="edge29" class="edge"><title>state_9&#45;&gt;state_9</title>
<path fill="none" stroke="black" d="M423.764,-209.661C546.079,-216.889 786.49,-214.335 786.49,-202 786.49,-190.002 559.047,-187.258 434.055,-193.768"/>
<polygon fill="black" stroke="black" points="433.554,-190.29 423.764,-194.339 433.942,-197.279 433.554,-190.29"/>
<text text-anchor="middle" x="843.99" y="-198.3" font-family="Times New Roman,serif" font-size="14.00"> &#160;&#160;click(&quot;index=0&quot;) &#160;&#160;</text>
</g>
<!-- state_9&#45;&gt;state_9 -->
<g id="edge30" class="edge"><title>state_9&#45;&gt;state_9</title>
<path fill="none" stroke="black" d="M423.527,-210.598C570.866,-220.817 901.49,-217.951 901.49,-202 901.49,-186.408 585.551,-183.319 433.727,-192.733"/>
<polygon fill="black" stroke="black" points="433.277,-189.255 423.527,-193.402 433.735,-196.24 433.277,-189.255"/>
<text text-anchor="middle" x="958.99" y="-198.3" font-family="Times New Roman,serif" font-size="14.00"> &#160;&#160;click(&quot;index=1&quot;) &#160;&#160;</text>
</g>
<!-- state_9&#45;&gt;state_9 -->
<g id="edge31" class="edge"><title>state_9&#45;&gt;state_9</title>
<path fill="none" stroke="black" d="M423.556,-211.439C593.545,-224.731 1016.49,-221.585 1016.49,-202 1016.49,-182.788 609.499,-179.395 433.538,-191.82"/>
<polygon fill="black" stroke="black" points="433.269,-188.33 423.556,-192.561 433.788,-195.311 433.269,-188.33"/>
<text text-anchor="middle" x="1073.99" y="-198.3" font-family="Times New Roman,serif" font-size="14.00"> &#160;&#160;click(&quot;index=2&quot;) &#160;&#160;</text>
</g>
<!-- state_9&#45;&gt;state_9 -->
<g id="edge32" class="edge"><title>state_9&#45;&gt;state_9</title>
<path fill="none" stroke="black" d="M423.773,-212.211C614.748,-228.638 1131.49,-225.235 1131.49,-202 1131.49,-179.162 632.26,-175.484 433.845,-190.965"/>
<polygon fill="black" stroke="black" points="433.454,-187.485 423.773,-191.789 434.025,-194.462 433.454,-187.485"/>
<text text-anchor="middle" x="1173.49" y="-198.3" font-family="Times New Roman,serif" font-size="14.00"> &#160;&#160;swipe right &#160;&#160;</text>
</g>
<!-- state_9&#45;&gt;state_9 -->
<g id="edge33" class="edge"><title>state_9&#45;&gt;state_9</title>
<path fill="none" stroke="black" d="M423.811,-213.049C629.39,-232.525 1215.49,-228.842 1215.49,-202 1215.49,-175.59 648.126,-171.599 434.041,-190.028"/>
<polygon fill="black" stroke="black" points="433.455,-186.566 423.811,-190.951 434.085,-193.538 433.455,-186.566"/>
<text text-anchor="middle" x="1253.49" y="-198.3" font-family="Times New Roman,serif" font-size="14.00"> &#160;&#160;swipe left &#160;&#160;</text>
</g>
<!-- state_9&#45;&gt;state_9 -->
<g id="edge35" class="edge"><title>state_9&#45;&gt;state_9</title>
<path fill="none" stroke="black" d="M423.574,-213.828C641.671,-236.414 1291.49,-232.471 1291.49,-202 1291.49,-171.99 661.194,-167.711 433.771,-189.164"/>
<polygon fill="black" stroke="black" points="433.181,-185.705 423.574,-190.172 433.87,-192.671 433.181,-185.705"/>
<text text-anchor="middle" x="1355.49" y="-198.3" font-family="Times New Roman,serif" font-size="14.00"> &#160;&#160;press(&quot;MenuKey&quot;) &#160;&#160;</text>
</g>
<!-- state_28&#45;&gt;state_0 -->
<g id="edge41" class="edge"><title>state_28&#45;&gt;state_0</title>
<path fill="none" stroke="black" d="M1581.4,-303.892C1578.41,-308.335 1575.43,-312.721 1572.49,-317 1556.64,-340.085 1546.17,-342.115 1535.49,-368 1496.01,-463.64 1563.81,-516.957 1499.49,-598 1417.34,-701.505 1259.97,-740.466 1166.51,-754.851"/>
<polygon fill="black" stroke="black" points="1165.94,-751.398 1156.56,-756.328 1166.96,-758.322 1165.94,-751.398"/>
<text text-anchor="middle" x="1597.99" y="-479.3" font-family="Times New Roman,serif" font-size="14.00"> &#160;&#160;press(&quot;BackKey&quot;) &#160;&#160;</text>
</g>
<!-- state_28&#45;&gt;state_0 -->
<g id="edge42" class="edge"><title>state_28&#45;&gt;state_0</title>
<path fill="none" stroke="black" d="M1686.04,-317.406C1707.91,-403.092 1720.04,-518.722 1660.49,-598 1600.86,-677.375 1307.61,-730.865 1166.98,-752.373"/>
<polygon fill="black" stroke="black" points="1166.08,-748.969 1156.72,-753.927 1167.13,-755.891 1166.08,-748.969"/>
<text text-anchor="middle" x="1767.49" y="-479.3" font-family="Times New Roman,serif" font-size="14.00"> &#160;&#160;press(&quot;MenuKey&quot;) &#160;&#160;</text>
</g>
<!-- state_28&#45;&gt;state_28 -->
<g id="edge39" class="edge"><title>state_28&#45;&gt;state_28</title>
<path fill="none" stroke="black" d="M1711.56,-214.144C1722.19,-212.405 1729.49,-208.357 1729.49,-202 1729.49,-197.927 1726.49,-194.802 1721.55,-192.625"/>
<polygon fill="black" stroke="black" points="1722.13,-189.156 1711.56,-189.856 1720.26,-195.902 1722.13,-189.156"/>
<text text-anchor="middle" x="1771.49" y="-198.3" font-family="Times New Roman,serif" font-size="14.00"> &#160;&#160;swipe right &#160;&#160;</text>
</g>
<!-- state_28&#45;&gt;state_28 -->
<g id="edge40" class="edge"><title>state_28&#45;&gt;state_28</title>
<path fill="none" stroke="black" d="M1711.91,-226.343C1759.77,-232.331 1813.49,-224.217 1813.49,-202 1813.49,-181.345 1767.06,-172.88 1722.07,-176.603"/>
<polygon fill="black" stroke="black" points="1721.5,-173.144 1711.91,-177.657 1722.22,-180.106 1721.5,-173.144"/>
<text text-anchor="middle" x="1851.49" y="-198.3" font-family="Times New Roman,serif" font-size="14.00"> &#160;&#160;swipe left &#160;&#160;</text>
</g>
<!-- state_28&#45;&gt;activity_5 -->
<g id="edge36" class="edge"><title>state_28&#45;&gt;activity_5</title>
<path fill="none" stroke="red" d="M1581.32,-94.7934C1578.46,-92.0582 1575.52,-89.4503 1572.49,-87 1570.5,-85.3897 1488.95,-54.699 1486.49,-54 1442.66,-41.553 1391.71,-32.2839 1354.39,-26.4222"/>
<polygon fill="red" stroke="red" points="1354.66,-22.9224 1344.24,-24.8595 1353.59,-29.8409 1354.66,-22.9224"/>
<text text-anchor="middle" x="1581.99" y="-57.8" font-family="Times New Roman,serif" font-size="14.00" fill="red"> &#160;&#160;click(&quot;index=0&quot;) &#160;&#160;</text>
</g>
<!-- state_28&#45;&gt;activity_5 -->
<g id="edge37" class="edge"><title>state_28&#45;&gt;activity_5</title>
<path fill="none" stroke="red" d="M1581.37,-92.837C1578.51,-90.7259 1575.55,-88.771 1572.49,-87 1539.83,-68.1256 1259.45,-96.3698 1233.49,-69 1220.64,-55.4458 1237.44,-42.9924 1257.56,-33.9044"/>
<polygon fill="red" stroke="red" points="1259.07,-37.0663 1266.94,-29.9738 1256.37,-30.6101 1259.07,-37.0663"/>
<text text-anchor="middle" x="1290.99" y="-57.8" font-family="Times New Roman,serif" font-size="14.00" fill="red"> &#160;&#160;click(&quot;index=1&quot;) &#160;&#160;</text>
</g>
<!-- state_28&#45;&gt;activity_5 -->
<g id="edge38" class="edge"><title>state_28&#45;&gt;activity_5</title>
<path fill="none" stroke="red" d="M1581.29,-92.977C1578.46,-90.8251 1575.52,-88.8237 1572.49,-87 1533.3,-63.4368 1409.99,-85.8748 1367.49,-69 1357.49,-65.03 1357.03,-60.5469 1348.49,-54 1342.61,-49.4884 1336.26,-44.7092 1330.2,-40.1803"/>
<polygon fill="red" stroke="red" points="1332.29,-37.37 1322.17,-34.2083 1328.11,-42.9859 1332.29,-37.37"/>
<text text-anchor="middle" x="1424.99" y="-57.8" font-family="Times New Roman,serif" font-size="14.00" fill="red"> &#160;&#160;click(&quot;index=2&quot;) &#160;&#160;</text>
</g>
<!-- activity_2 -->
<g id="node7" class="node"><title>activity_2</title>
<ellipse fill="none" stroke="red" cx="1646.49" cy="-18" rx="46.2923" ry="18"/>
<text text-anchor="middle" x="1646.49" y="-14.3" font-family="Times New Roman,serif" font-size="14.00" fill="red">activity_2</text>
</g>
<!-- state_28&#45;&gt;activity_2 -->
<g id="edge43" class="edge"><title>state_28&#45;&gt;activity_2</title>
<path fill="none" stroke="red" d="M1646.49,-86.7701C1646.49,-71.7241 1646.49,-57.5861 1646.49,-46.1563"/>
<polygon fill="red" stroke="red" points="1649.99,-46.0863 1646.49,-36.0863 1642.99,-46.0863 1649.99,-46.0863"/>
<text text-anchor="middle" x="1703.99" y="-57.8" font-family="Times New Roman,serif" font-size="14.00" fill="red"> &#160;&#160;click(&quot;index=0&quot;) &#160;&#160;</text>
</g>
<!-- activity_3 -->
<g id="node8" class="node"><title>activity_3</title>
<ellipse fill="none" stroke="red" cx="1784.49" cy="-18" rx="46.2923" ry="18"/>
<text text-anchor="middle" x="1784.49" y="-14.3" font-family="Times New Roman,serif" font-size="14.00" fill="red">activity_3</text>
</g>
<!-- state_28&#45;&gt;activity_3 -->
<g id="edge44" class="edge"><title>state_28&#45;&gt;activity_3</title>
<path fill="none" stroke="red" d="M1711.54,-134.995C1729.42,-114.822 1747.89,-91.8926 1762.49,-69 1767.15,-61.6913 1771.29,-53.2274 1774.68,-45.365"/>
<polygon fill="red" stroke="red" points="1778.02,-46.4408 1778.57,-35.8599 1771.54,-43.7931 1778.02,-46.4408"/>
<text text-anchor="middle" x="1826.99" y="-57.8" font-family="Times New Roman,serif" font-size="14.00" fill="red"> &#160;&#160;click(&quot;index=0&quot;) &#160;&#160;</text>
</g>
<!-- activity_4 -->
<g id="node9" class="node"><title>activity_4</title>
<ellipse fill="none" stroke="red" cx="1922.49" cy="-18" rx="46.2923" ry="18"/>
<text text-anchor="middle" x="1922.49" y="-14.3" font-family="Times New Roman,serif" font-size="14.00" fill="red">activity_4</text>
</g>
<!-- state_28&#45;&gt;activity_4 -->
<g id="edge45" class="edge"><title>state_28&#45;&gt;activity_4</title>
<path fill="none" stroke="red" d="M1711.61,-175.631C1763.58,-153.136 1836.11,-116.495 1888.49,-69 1896.22,-61.9876 1903.08,-52.8775 1908.57,-44.3579"/>
<polygon fill="red" stroke="red" points="1911.57,-46.1669 1913.78,-35.806 1905.59,-42.5245 1911.57,-46.1669"/>
<text text-anchor="middle" x="1958.99" y="-57.8" font-family="Times New Roman,serif" font-size="14.00" fill="red"> &#160;&#160;click(&quot;index=0&quot;) &#160;&#160;</text>
</g>
</g>
</svg>
