<?xml version="1.0" encoding="UTF-8" standalone="no"?>
<!DOCTYPE svg PUBLIC "-//W3C//DTD SVG 1.1//EN"
 "http://www.w3.org/Graphics/SVG/1.1/DTD/svg11.dtd">
<!-- Generated by graphviz version 2.38.0 (20140413.2041)
 -->
<!-- Title: result Pages: 1 -->
<svg width="627pt" height="272pt"
 viewBox="0.00 0.00 627.00 272.00" xmlns="http://www.w3.org/2000/svg" xmlns:xlink="http://www.w3.org/1999/xlink">
<g id="graph0" class="graph" transform="scale(1 1) rotate(0) translate(4 268)">
<title>result</title>
<polygon fill="white" stroke="none" points="-4,4 -4,-268 623,-268 623,4 -4,4"/>
<!-- initial -->
<g id="node1" class="node"><title>initial</title>
<image xlink:href="-1.png" width="50px" height="50px" preserveAspectRatio="xMinYMin meet" x="0" y="-157"/>
</g>
<!-- activity_0 -->
<g id="node2" class="node"><title>activity_0</title>
<g id="a_node2"><a xlink:href="activity_0.svg" xlink:title="&lt;TABLE&gt;">
<polygon fill="none" stroke="black" points="217,-264 87,-264 87,-0 217,-0 217,-264"/>
<polygon fill="none" stroke="black" points="87,-247 87,-264 217,-264 217,-247 87,-247"/>
<text text-anchor="start" x="124.5" y="-251.8" font-family="Times New Roman,serif" font-size="14.00">activity_0</text>
<polygon fill="none" stroke="black" points="87,-230 87,-247 150,-247 150,-230 87,-230"/>
<text text-anchor="start" x="109" y="-234.8" font-family="Times New Roman,serif" font-size="14.00">aaa</text>
<polygon fill="none" stroke="black" points="150,-230 150,-247 217,-247 217,-230 150,-230"/>
<text text-anchor="start" x="172" y="-234.8" font-family="Times New Roman,serif" font-size="14.00">bbb</text>
<polygon fill="none" stroke="black" points="87,-0 87,-230 217,-230 217,-0 87,-0"/>
<image xlink:href="0.png" width="128px" height="228px" preserveAspectRatio="xMinYMin meet" x="88" y="-229"/>
</a>
</g>
</g>
<!-- initial&#45;&gt;activity_0 -->
<g id="edge1" class="edge"><title>initial&#45;&gt;activity_0</title>
<path fill="none" stroke="black" d="M50.1013,-132C57.9994,-132 67.2332,-132 76.8484,-132"/>
<polygon fill="black" stroke="black" points="76.9667,-135.5 86.9666,-132 76.9666,-128.5 76.9667,-135.5"/>
</g>
<!-- activity_1 -->
<g id="node3" class="node"><title>activity_1</title>
<g id="a_node3"><a xlink:href="activity_1.svg">
<polygon fill="none" stroke="black" points="619,-247 489,-247 489,-17 619,-17 619,-247"/>
<image xlink:href="8.png" width="130px" height="230px" preserveAspectRatio="xMinYMin meet" x="489" y="-247"/>
</a>
</g>
</g>
<!-- activity_0&#45;&gt;activity_1 -->
<g id="edge2" class="edge"><title>activity_0&#45;&gt;activity_1</title>
<path fill="none" stroke="black" d="M217.286,-145.758C223.253,-146.668 229.225,-147.442 235,-148 339.402,-158.09 366.598,-158.09 471,-148 473.527,-147.756 476.091,-147.47 478.676,-147.15"/>
<polygon fill="black" stroke="black" points="479.29,-150.599 488.714,-145.758 478.328,-143.665 479.29,-150.599"/>
<text text-anchor="middle" x="353" y="-158.8" font-family="Times New Roman,serif" font-size="14.00"> &#160;&#160;&quot;state_3&quot; click(&quot;内容&quot;) &quot;state_8&quot; &#160;&#160;</text>
</g>
<!-- activity_1&#45;&gt;activity_0 -->
<g id="edge3" class="edge"><title>activity_1&#45;&gt;activity_0</title>
<path fill="none" stroke="black" d="M488.993,-129.432C482.912,-129.256 476.84,-129.107 471,-129 366.129,-127.082 339.871,-127.082 235,-129 232.445,-129.047 229.846,-129.102 227.22,-129.163"/>
<polygon fill="black" stroke="black" points="226.911,-125.67 217.007,-129.432 227.096,-132.668 226.911,-125.67"/>
<text text-anchor="middle" x="353" y="-132.8" font-family="Times New Roman,serif" font-size="14.00"> &#160;&#160;&quot;state_8&quot; click(&quot;index=0&quot;) &quot;state_3&quot; &#160;&#160;</text>
</g>
<!-- activity_1&#45;&gt;activity_0 -->
<g id="edge4" class="edge"><title>activity_1&#45;&gt;activity_0</title>
<path fill="none" stroke="black" d="M488.924,-111.373C482.913,-110.007 476.873,-108.842 471,-108 367.172,-93.1179 338.828,-93.1179 235,-108 232.339,-108.381 229.643,-108.829 226.932,-109.332"/>
<polygon fill="black" stroke="black" points="226.158,-105.918 217.076,-111.373 227.578,-112.772 226.158,-105.918"/>
<text text-anchor="middle" x="353" y="-111.8" font-family="Times New Roman,serif" font-size="14.00"> &#160;&#160;&quot;state_8&quot; press(&quot;BackKey&quot;) &quot;state_3&quot; &#160;&#160;</text>
</g>
</g>
</svg>
