<?xml version="1.0" encoding="UTF-8" standalone="no"?>
<!DOCTYPE svg PUBLIC "-//W3C//DTD SVG 1.1//EN"
 "http://www.w3.org/Graphics/SVG/1.1/DTD/svg11.dtd">
<!-- Generated by graphviz version 2.38.0 (20140413.2041)
 -->
<!-- Title: activity_0 Pages: 1 -->
<svg width="1536pt" height="2445pt"
 viewBox="0.00 0.00 1536.00 2445.00" xmlns="http://www.w3.org/2000/svg" xmlns:xlink="http://www.w3.org/1999/xlink">
<g id="graph0" class="graph" transform="scale(1 1) rotate(0) translate(4 2441)">
<title>activity_0</title>
<polygon fill="white" stroke="none" points="-4,4 -4,-2441 1532,-2441 1532,4 -4,4"/>
<!-- state_0 -->
<g id="node1" class="node"><title>state_0</title>
<g id="a_node1"><a xlink:href="0.png" xlink:title="&lt;TABLE&gt;">
<polygon fill="none" stroke="black" points="1008,-2437 878,-2437 878,-2147 1008,-2147 1008,-2437"/>
<text text-anchor="start" x="923" y="-2425.8" font-family="Times New Roman,serif" font-size="14.00">state_0</text>
<text text-anchor="start" x="912.5" y="-2410.8" font-family="Times New Roman,serif" font-size="14.00">incoming:4</text>
<text text-anchor="start" x="913.5" y="-2395.8" font-family="Times New Roman,serif" font-size="14.00">outgoing:7</text>
<text text-anchor="start" x="925" y="-2380.8" font-family="Times New Roman,serif" font-size="14.00">loop:4</text>
<image xlink:href="0.png" width="130px" height="230px" preserveAspectRatio="xMinYMin meet" x="878" y="-2377"/>
</a>
</g>
</g>
<!-- state_0&#45;&gt;state_0 -->
<g id="edge1" class="edge"><title>state_0&#45;&gt;state_0</title>
<path fill="none" stroke="black" d="M1008.07,-2299.37C1018.7,-2298.32 1026,-2295.86 1026,-2292 1026,-2289.53 1023,-2287.63 1018.06,-2286.31"/>
<polygon fill="black" stroke="black" points="1018.51,-2282.84 1008.07,-2284.63 1017.35,-2289.74 1018.51,-2282.84"/>
<text text-anchor="middle" x="1083.5" y="-2288.3" font-family="Times New Roman,serif" font-size="14.00"> &#160;&#160;click(&quot;index=1&quot;) &#160;&#160;</text>
</g>
<!-- state_0&#45;&gt;state_0 -->
<g id="edge4" class="edge"><title>state_0&#45;&gt;state_0</title>
<path fill="none" stroke="black" d="M1008.18,-2306.08C1067.03,-2310.95 1141,-2306.26 1141,-2292 1141,-2278.55 1075.17,-2273.61 1018.31,-2277.19"/>
<polygon fill="black" stroke="black" points="1017.9,-2273.71 1008.18,-2277.92 1018.41,-2280.69 1017.9,-2273.71"/>
<text text-anchor="middle" x="1194" y="-2288.3" font-family="Times New Roman,serif" font-size="14.00"> &#160;&#160;swipe(&quot;Right&quot;) &#160;&#160;</text>
</g>
<!-- state_0&#45;&gt;state_0 -->
<g id="edge5" class="edge"><title>state_0&#45;&gt;state_0</title>
<path fill="none" stroke="black" d="M1008.3,-2310.07C1099.47,-2321.84 1247,-2315.81 1247,-2292 1247,-2269.05 1109.94,-2262.62 1018.4,-2272.73"/>
<polygon fill="black" stroke="black" points="1017.82,-2269.27 1008.3,-2273.93 1018.65,-2276.22 1017.82,-2269.27"/>
<text text-anchor="middle" x="1296.5" y="-2288.3" font-family="Times New Roman,serif" font-size="14.00"> &#160;&#160;swipe(&quot;Left&quot;) &#160;&#160;</text>
</g>
<!-- state_0&#45;&gt;state_0 -->
<g id="edge6" class="edge"><title>state_0&#45;&gt;state_0</title>
<path fill="none" stroke="black" d="M1008.09,-2313.36C1124.62,-2332.57 1346,-2325.45 1346,-2292 1346,-2259.5 1136.98,-2251.85 1018.23,-2269.07"/>
<polygon fill="black" stroke="black" points="1017.44,-2265.65 1008.09,-2270.64 1018.5,-2272.57 1017.44,-2265.65"/>
<text text-anchor="middle" x="1410" y="-2288.3" font-family="Times New Roman,serif" font-size="14.00"> &#160;&#160;press(&quot;MenuKey&quot;) &#160;&#160;</text>
</g>
<!-- state_2 -->
<g id="node2" class="node"><title>state_2</title>
<g id="a_node2"><a xlink:href="2.png" xlink:title="&lt;TABLE&gt;">
<polygon fill="none" stroke="black" points="385,-2096 255,-2096 255,-1806 385,-1806 385,-2096"/>
<text text-anchor="start" x="300" y="-2084.8" font-family="Times New Roman,serif" font-size="14.00">state_2</text>
<text text-anchor="start" x="289.5" y="-2069.8" font-family="Times New Roman,serif" font-size="14.00">incoming:6</text>
<text text-anchor="start" x="290.5" y="-2054.8" font-family="Times New Roman,serif" font-size="14.00">outgoing:5</text>
<text text-anchor="start" x="302" y="-2039.8" font-family="Times New Roman,serif" font-size="14.00">loop:4</text>
<image xlink:href="2.png" width="130px" height="230px" preserveAspectRatio="xMinYMin meet" x="255" y="-2036"/>
</a>
</g>
</g>
<!-- state_0&#45;&gt;state_2 -->
<g id="edge2" class="edge"><title>state_0&#45;&gt;state_2</title>
<path fill="none" stroke="black" d="M877.799,-2255.52C761.056,-2192 517.079,-2059.24 394.154,-1992.35"/>
<polygon fill="black" stroke="black" points="395.614,-1989.16 385.157,-1987.45 392.268,-1995.31 395.614,-1989.16"/>
<text text-anchor="middle" x="689.5" y="-2117.8" font-family="Times New Roman,serif" font-size="14.00"> &#160;&#160;click(&quot;index=1&quot;) &#160;&#160;</text>
</g>
<!-- state_9 -->
<g id="node6" class="node"><title>state_9</title>
<g id="a_node6"><a xlink:href="9.png" xlink:title="&lt;TABLE&gt;">
<polygon fill="none" stroke="black" points="547,-732 417,-732 417,-442 547,-442 547,-732"/>
<text text-anchor="start" x="462" y="-720.8" font-family="Times New Roman,serif" font-size="14.00">state_9</text>
<text text-anchor="start" x="451.5" y="-705.8" font-family="Times New Roman,serif" font-size="14.00">incoming:6</text>
<text text-anchor="start" x="452.5" y="-690.8" font-family="Times New Roman,serif" font-size="14.00">outgoing:6</text>
<text text-anchor="start" x="464" y="-675.8" font-family="Times New Roman,serif" font-size="14.00">loop:4</text>
<image xlink:href="9.png" width="130px" height="230px" preserveAspectRatio="xMinYMin meet" x="417" y="-672"/>
</a>
</g>
</g>
<!-- state_0&#45;&gt;state_9 -->
<g id="edge3" class="edge"><title>state_0&#45;&gt;state_9</title>
<path fill="none" stroke="black" d="M943,-2146.66C943,-2086.48 943,-2015.86 943,-1952 943,-1952 943,-1952 943,-927 943,-862.043 957.881,-834.273 918,-783 828.421,-667.832 656.006,-618.859 556.945,-599.493"/>
<polygon fill="black" stroke="black" points="557.483,-596.032 547.005,-597.6 556.174,-602.909 557.483,-596.032"/>
<text text-anchor="middle" x="1000.5" y="-1435.8" font-family="Times New Roman,serif" font-size="14.00"> &#160;&#160;click(&quot;index=3&quot;) &#160;&#160;</text>
</g>
<!-- final -->
<g id="node8" class="node"><title>final</title>
<image xlink:href="-2.png" width="50px" height="50px" preserveAspectRatio="xMinYMin meet" x="303" y="-50"/>
</g>
<!-- state_0&#45;&gt;final -->
<g id="edge7" class="edge"><title>state_0&#45;&gt;final</title>
<path fill="none" stroke="red" d="M1008.16,-2227.4C1066.2,-2163.69 1142,-2059.83 1142,-1952 1142,-1952 1142,-1952 1142,-245 1142,-180.257 1165.47,-147.089 1120,-101 1066.18,-46.445 510.377,-30.1122 363.459,-26.7323"/>
<polygon fill="red" stroke="red" points="363.287,-23.2276 353.211,-26.5025 363.13,-30.2259 363.287,-23.2276"/>
<text text-anchor="middle" x="1204.5" y="-1094.8" font-family="Times New Roman,serif" font-size="14.00" fill="red"> &#160;&#160;press(&quot;BackKey&quot;) &#160;&#160;</text>
</g>
<!-- state_2&#45;&gt;state_2 -->
<g id="edge9" class="edge"><title>state_2&#45;&gt;state_2</title>
<path fill="none" stroke="black" d="M385.072,-1958.37C395.697,-1957.32 403,-1954.86 403,-1951 403,-1948.53 400.003,-1946.63 395.055,-1945.31"/>
<polygon fill="black" stroke="black" points="395.514,-1941.84 385.072,-1943.63 394.352,-1948.74 395.514,-1941.84"/>
<text text-anchor="middle" x="456" y="-1947.3" font-family="Times New Roman,serif" font-size="14.00"> &#160;&#160;swipe(&quot;Right&quot;) &#160;&#160;</text>
</g>
<!-- state_2&#45;&gt;state_2 -->
<g id="edge10" class="edge"><title>state_2&#45;&gt;state_2</title>
<path fill="none" stroke="black" d="M385.113,-1965.26C440.904,-1969.82 509,-1965.07 509,-1951 509,-1937.78 448.9,-1932.79 395.364,-1936.01"/>
<polygon fill="black" stroke="black" points="394.841,-1932.54 385.113,-1936.74 395.336,-1939.52 394.841,-1932.54"/>
<text text-anchor="middle" x="558.5" y="-1947.3" font-family="Times New Roman,serif" font-size="14.00"> &#160;&#160;swipe(&quot;Left&quot;) &#160;&#160;</text>
</g>
<!-- state_2&#45;&gt;state_2 -->
<g id="edge11" class="edge"><title>state_2&#45;&gt;state_2</title>
<path fill="none" stroke="black" d="M385.143,-1969.39C471.927,-1980.72 608,-1974.59 608,-1951 608,-1928.3 482.094,-1921.77 395.263,-1931.39"/>
<polygon fill="black" stroke="black" points="394.652,-1927.94 385.143,-1932.61 395.49,-1934.89 394.652,-1927.94"/>
<text text-anchor="middle" x="670.5" y="-1947.3" font-family="Times New Roman,serif" font-size="14.00"> &#160;&#160;press(&quot;BackKey&quot;) &#160;&#160;</text>
</g>
<!-- state_2&#45;&gt;state_2 -->
<g id="edge12" class="edge"><title>state_2&#45;&gt;state_2</title>
<path fill="none" stroke="black" d="M385.369,-1972.22C504.291,-1991.61 733,-1984.54 733,-1951 733,-1918.38 516.628,-1910.8 395.364,-1928.25"/>
<polygon fill="black" stroke="black" points="394.724,-1924.8 385.369,-1929.78 395.784,-1931.72 394.724,-1924.8"/>
<text text-anchor="middle" x="797" y="-1947.3" font-family="Times New Roman,serif" font-size="14.00"> &#160;&#160;press(&quot;MenuKey&quot;) &#160;&#160;</text>
</g>
<!-- state_3 -->
<g id="node3" class="node"><title>state_3</title>
<g id="a_node3"><a xlink:href="3.png" xlink:title="&lt;TABLE&gt;">
<polygon fill="none" stroke="black" points="205,-1755 75,-1755 75,-1465 205,-1465 205,-1755"/>
<text text-anchor="start" x="120" y="-1743.8" font-family="Times New Roman,serif" font-size="14.00">state_3</text>
<text text-anchor="start" x="109.5" y="-1728.8" font-family="Times New Roman,serif" font-size="14.00">incoming:5</text>
<text text-anchor="start" x="110.5" y="-1713.8" font-family="Times New Roman,serif" font-size="14.00">outgoing:6</text>
<text text-anchor="start" x="122" y="-1698.8" font-family="Times New Roman,serif" font-size="14.00">loop:4</text>
<image xlink:href="3.png" width="130px" height="230px" preserveAspectRatio="xMinYMin meet" x="75" y="-1695"/>
</a>
</g>
</g>
<!-- state_2&#45;&gt;state_3 -->
<g id="edge8" class="edge"><title>state_2&#45;&gt;state_3</title>
<path fill="none" stroke="black" d="M254.761,-1827.13C240.145,-1799.61 224.583,-1770.3 209.79,-1742.44"/>
<polygon fill="black" stroke="black" points="212.797,-1740.64 205.016,-1733.45 206.615,-1743.92 212.797,-1740.64"/>
<text text-anchor="middle" x="275.5" y="-1776.8" font-family="Times New Roman,serif" font-size="14.00"> &#160;&#160;click(&quot;OK&quot;) &#160;&#160;</text>
</g>
<!-- state_3&#45;&gt;state_3 -->
<g id="edge13" class="edge"><title>state_3&#45;&gt;state_3</title>
<path fill="none" stroke="black" d="M205.072,-1617.37C215.697,-1616.32 223,-1613.86 223,-1610 223,-1607.53 220.003,-1605.63 215.055,-1604.31"/>
<polygon fill="black" stroke="black" points="215.514,-1600.84 205.072,-1602.63 214.352,-1607.74 215.514,-1600.84"/>
<text text-anchor="middle" x="280.5" y="-1606.3" font-family="Times New Roman,serif" font-size="14.00"> &#160;&#160;click(&quot;index=1&quot;) &#160;&#160;</text>
</g>
<!-- state_3&#45;&gt;state_3 -->
<g id="edge15" class="edge"><title>state_3&#45;&gt;state_3</title>
<path fill="none" stroke="black" d="M205.181,-1624.08C264.033,-1628.95 338,-1624.26 338,-1610 338,-1596.55 272.175,-1591.61 215.31,-1595.19"/>
<polygon fill="black" stroke="black" points="214.901,-1591.71 205.181,-1595.92 215.408,-1598.69 214.901,-1591.71"/>
<text text-anchor="middle" x="391" y="-1606.3" font-family="Times New Roman,serif" font-size="14.00"> &#160;&#160;swipe(&quot;Right&quot;) &#160;&#160;</text>
</g>
<!-- state_3&#45;&gt;state_3 -->
<g id="edge16" class="edge"><title>state_3&#45;&gt;state_3</title>
<path fill="none" stroke="black" d="M205.304,-1628.07C296.472,-1639.84 444,-1633.81 444,-1610 444,-1587.05 306.94,-1580.62 215.398,-1590.73"/>
<polygon fill="black" stroke="black" points="214.819,-1587.27 205.304,-1591.93 215.649,-1594.22 214.819,-1587.27"/>
<text text-anchor="middle" x="493.5" y="-1606.3" font-family="Times New Roman,serif" font-size="14.00"> &#160;&#160;swipe(&quot;Left&quot;) &#160;&#160;</text>
</g>
<!-- state_3&#45;&gt;state_3 -->
<g id="edge17" class="edge"><title>state_3&#45;&gt;state_3</title>
<path fill="none" stroke="black" d="M205.087,-1631.36C321.617,-1650.57 543,-1643.45 543,-1610 543,-1577.5 333.979,-1569.85 215.233,-1587.07"/>
<polygon fill="black" stroke="black" points="214.435,-1583.65 205.087,-1588.64 215.505,-1590.57 214.435,-1583.65"/>
<text text-anchor="middle" x="607" y="-1606.3" font-family="Times New Roman,serif" font-size="14.00"> &#160;&#160;press(&quot;MenuKey&quot;) &#160;&#160;</text>
</g>
<!-- state_5 -->
<g id="node4" class="node"><title>state_5</title>
<g id="a_node4"><a xlink:href="5.png" xlink:title="&lt;TABLE&gt;">
<polygon fill="none" stroke="black" points="205,-1414 75,-1414 75,-1124 205,-1124 205,-1414"/>
<text text-anchor="start" x="120" y="-1402.8" font-family="Times New Roman,serif" font-size="14.00">state_5</text>
<text text-anchor="start" x="109.5" y="-1387.8" font-family="Times New Roman,serif" font-size="14.00">incoming:6</text>
<text text-anchor="start" x="110.5" y="-1372.8" font-family="Times New Roman,serif" font-size="14.00">outgoing:6</text>
<text text-anchor="start" x="122" y="-1357.8" font-family="Times New Roman,serif" font-size="14.00">loop:4</text>
<image xlink:href="5.png" width="130px" height="230px" preserveAspectRatio="xMinYMin meet" x="75" y="-1354"/>
</a>
</g>
</g>
<!-- state_3&#45;&gt;state_5 -->
<g id="edge14" class="edge"><title>state_3&#45;&gt;state_5</title>
<path fill="none" stroke="black" d="M140,-1464.74C140,-1451.39 140,-1437.82 140,-1424.38"/>
<polygon fill="black" stroke="black" points="143.5,-1424.13 140,-1414.13 136.5,-1424.13 143.5,-1424.13"/>
<text text-anchor="middle" x="197.5" y="-1435.8" font-family="Times New Roman,serif" font-size="14.00"> &#160;&#160;click(&quot;index=0&quot;) &#160;&#160;</text>
</g>
<!-- state_3&#45;&gt;final -->
<g id="edge18" class="edge"><title>state_3&#45;&gt;final</title>
<path fill="none" stroke="red" d="M74.9183,-1509.54C38.3582,-1444.21 0,-1355.33 0,-1270 0,-1270 0,-1270 0,-245 0,-105.325 208.266,-49.1922 292.888,-32.1494"/>
<polygon fill="red" stroke="red" points="293.661,-35.5647 302.807,-30.2176 292.322,-28.6938 293.661,-35.5647"/>
<text text-anchor="middle" x="62.5" y="-753.8" font-family="Times New Roman,serif" font-size="14.00" fill="red"> &#160;&#160;press(&quot;BackKey&quot;) &#160;&#160;</text>
</g>
<!-- state_5&#45;&gt;state_5 -->
<g id="edge20" class="edge"><title>state_5&#45;&gt;state_5</title>
<path fill="none" stroke="black" d="M205.072,-1276.37C215.697,-1275.32 223,-1272.86 223,-1269 223,-1266.53 220.003,-1264.63 215.055,-1263.31"/>
<polygon fill="black" stroke="black" points="215.514,-1259.84 205.072,-1261.63 214.352,-1266.74 215.514,-1259.84"/>
<text text-anchor="middle" x="276" y="-1265.3" font-family="Times New Roman,serif" font-size="14.00"> &#160;&#160;swipe(&quot;Right&quot;) &#160;&#160;</text>
</g>
<!-- state_5&#45;&gt;state_5 -->
<g id="edge21" class="edge"><title>state_5&#45;&gt;state_5</title>
<path fill="none" stroke="black" d="M205.113,-1283.26C260.904,-1287.82 329,-1283.07 329,-1269 329,-1255.78 268.9,-1250.79 215.364,-1254.01"/>
<polygon fill="black" stroke="black" points="214.841,-1250.54 205.113,-1254.74 215.336,-1257.52 214.841,-1250.54"/>
<text text-anchor="middle" x="378.5" y="-1265.3" font-family="Times New Roman,serif" font-size="14.00"> &#160;&#160;swipe(&quot;Left&quot;) &#160;&#160;</text>
</g>
<!-- state_5&#45;&gt;state_5 -->
<g id="edge22" class="edge"><title>state_5&#45;&gt;state_5</title>
<path fill="none" stroke="black" d="M205.143,-1287.39C291.927,-1298.72 428,-1292.59 428,-1269 428,-1246.3 302.094,-1239.77 215.263,-1249.39"/>
<polygon fill="black" stroke="black" points="214.652,-1245.94 205.143,-1250.61 215.49,-1252.89 214.652,-1245.94"/>
<text text-anchor="middle" x="490.5" y="-1265.3" font-family="Times New Roman,serif" font-size="14.00"> &#160;&#160;press(&quot;BackKey&quot;) &#160;&#160;</text>
</g>
<!-- state_5&#45;&gt;state_5 -->
<g id="edge23" class="edge"><title>state_5&#45;&gt;state_5</title>
<path fill="none" stroke="black" d="M205.369,-1290.22C324.291,-1309.61 553,-1302.54 553,-1269 553,-1236.38 336.628,-1228.8 215.364,-1246.25"/>
<polygon fill="black" stroke="black" points="214.724,-1242.8 205.369,-1247.78 215.784,-1249.72 214.724,-1242.8"/>
<text text-anchor="middle" x="617" y="-1265.3" font-family="Times New Roman,serif" font-size="14.00"> &#160;&#160;press(&quot;MenuKey&quot;) &#160;&#160;</text>
</g>
<!-- state_6 -->
<g id="node5" class="node"><title>state_6</title>
<g id="a_node5"><a xlink:href="6.png" xlink:title="&lt;TABLE&gt;">
<polygon fill="none" stroke="black" points="389,-1073 259,-1073 259,-783 389,-783 389,-1073"/>
<text text-anchor="start" x="304" y="-1061.8" font-family="Times New Roman,serif" font-size="14.00">state_6</text>
<text text-anchor="start" x="293.5" y="-1046.8" font-family="Times New Roman,serif" font-size="14.00">incoming:5</text>
<text text-anchor="start" x="294.5" y="-1031.8" font-family="Times New Roman,serif" font-size="14.00">outgoing:7</text>
<text text-anchor="start" x="306" y="-1016.8" font-family="Times New Roman,serif" font-size="14.00">loop:4</text>
<image xlink:href="6.png" width="130px" height="230px" preserveAspectRatio="xMinYMin meet" x="259" y="-1013"/>
</a>
</g>
</g>
<!-- state_5&#45;&gt;state_6 -->
<g id="edge19" class="edge"><title>state_5&#45;&gt;state_6</title>
<path fill="none" stroke="black" d="M205.13,-1148C220.964,-1118.83 237.961,-1087.52 254.009,-1057.95"/>
<polygon fill="black" stroke="black" points="257.263,-1059.29 258.957,-1048.83 251.111,-1055.95 257.263,-1059.29"/>
<text text-anchor="middle" x="273.5" y="-1094.8" font-family="Times New Roman,serif" font-size="14.00"> &#160;&#160;click(&quot;行&quot;) &#160;&#160;</text>
</g>
<!-- state_5&#45;&gt;final -->
<g id="edge24" class="edge"><title>state_5&#45;&gt;final</title>
<path fill="none" stroke="red" d="M140,-1123.66C140,-1063.48 140,-992.857 140,-929 140,-929 140,-929 140,-245 140,-151.492 239.897,-77.9394 294.052,-44.9367"/>
<polygon fill="red" stroke="red" points="295.854,-47.9371 302.645,-39.8055 292.265,-41.9269 295.854,-47.9371"/>
<text text-anchor="middle" x="191.5" y="-583.3" font-family="Times New Roman,serif" font-size="14.00" fill="red"> &#160;&#160;click(&quot;給5星&quot;) &#160;&#160;</text>
</g>
<!-- state_6&#45;&gt;state_2 -->
<g id="edge26" class="edge"><title>state_6&#45;&gt;state_2</title>
<path fill="none" stroke="black" d="M389.261,-937.545C486.21,-954.138 665.283,-1000.67 744,-1124 813.342,-1232.65 745.889,-1285.12 744,-1414 741.778,-1565.6 817.087,-1628.17 734,-1755 657.786,-1871.34 492.22,-1919.75 395.138,-1938.74"/>
<polygon fill="black" stroke="black" points="394.267,-1935.34 385.095,-1940.64 395.573,-1942.22 394.267,-1935.34"/>
<text text-anchor="middle" x="801.5" y="-1435.8" font-family="Times New Roman,serif" font-size="14.00"> &#160;&#160;click(&quot;index=1&quot;) &#160;&#160;</text>
</g>
<!-- state_6&#45;&gt;state_6 -->
<g id="edge25" class="edge"><title>state_6&#45;&gt;state_6</title>
<path fill="none" stroke="black" d="M389.072,-935.373C399.697,-934.318 407,-931.86 407,-928 407,-925.527 404.003,-923.63 399.055,-922.308"/>
<polygon fill="black" stroke="black" points="399.514,-918.836 389.072,-920.627 398.352,-925.739 399.514,-918.836"/>
<text text-anchor="middle" x="464.5" y="-924.3" font-family="Times New Roman,serif" font-size="14.00"> &#160;&#160;click(&quot;index=1&quot;) &#160;&#160;</text>
</g>
<!-- state_6&#45;&gt;state_6 -->
<g id="edge28" class="edge"><title>state_6&#45;&gt;state_6</title>
<path fill="none" stroke="black" d="M389.181,-942.076C448.033,-946.948 522,-942.257 522,-928 522,-914.551 456.175,-909.614 399.31,-913.188"/>
<polygon fill="black" stroke="black" points="398.901,-909.709 389.181,-913.924 399.408,-916.69 398.901,-909.709"/>
<text text-anchor="middle" x="575" y="-924.3" font-family="Times New Roman,serif" font-size="14.00"> &#160;&#160;swipe(&quot;Right&quot;) &#160;&#160;</text>
</g>
<!-- state_6&#45;&gt;state_6 -->
<g id="edge29" class="edge"><title>state_6&#45;&gt;state_6</title>
<path fill="none" stroke="black" d="M389.304,-946.069C480.472,-957.836 628,-951.813 628,-928 628,-905.048 490.94,-898.623 399.398,-908.725"/>
<polygon fill="black" stroke="black" points="398.819,-905.269 389.304,-909.931 399.649,-912.22 398.819,-905.269"/>
<text text-anchor="middle" x="677.5" y="-924.3" font-family="Times New Roman,serif" font-size="14.00"> &#160;&#160;swipe(&quot;Left&quot;) &#160;&#160;</text>
</g>
<!-- state_6&#45;&gt;state_6 -->
<g id="edge30" class="edge"><title>state_6&#45;&gt;state_6</title>
<path fill="none" stroke="black" d="M389.087,-949.365C505.617,-968.574 727,-961.452 727,-928 727,-895.495 517.979,-887.851 399.233,-905.066"/>
<polygon fill="black" stroke="black" points="398.435,-901.648 389.087,-906.635 399.505,-908.566 398.435,-901.648"/>
<text text-anchor="middle" x="791" y="-924.3" font-family="Times New Roman,serif" font-size="14.00"> &#160;&#160;press(&quot;MenuKey&quot;) &#160;&#160;</text>
</g>
<!-- state_6&#45;&gt;state_9 -->
<g id="edge27" class="edge"><title>state_6&#45;&gt;state_9</title>
<path fill="none" stroke="black" d="M389.177,-787.159C396.923,-770.539 404.852,-753.526 412.654,-736.787"/>
<polygon fill="black" stroke="black" points="415.921,-738.063 416.973,-727.52 409.576,-735.105 415.921,-738.063"/>
<text text-anchor="middle" x="460.5" y="-753.8" font-family="Times New Roman,serif" font-size="14.00"> &#160;&#160;click(&quot;index=3&quot;) &#160;&#160;</text>
</g>
<!-- state_6&#45;&gt;final -->
<g id="edge31" class="edge"><title>state_6&#45;&gt;final</title>
<path fill="none" stroke="red" d="M313.604,-782.998C303.77,-617.878 293.553,-339.26 316,-101 317.256,-87.6666 319.404,-73.1081 321.539,-60.3953"/>
<polygon fill="red" stroke="red" points="325.044,-60.6698 323.309,-50.2179 318.147,-59.4703 325.044,-60.6698"/>
<text text-anchor="middle" x="365.5" y="-412.8" font-family="Times New Roman,serif" font-size="14.00" fill="red"> &#160;&#160;press(&quot;BackKey&quot;) &#160;&#160;</text>
</g>
<!-- state_9&#45;&gt;state_9 -->
<g id="edge33" class="edge"><title>state_9&#45;&gt;state_9</title>
<path fill="none" stroke="black" d="M547.072,-594.373C557.697,-593.318 565,-590.86 565,-587 565,-584.527 562.003,-582.63 557.055,-581.308"/>
<polygon fill="black" stroke="black" points="557.514,-577.836 547.072,-579.627 556.352,-584.739 557.514,-577.836"/>
<text text-anchor="middle" x="618" y="-583.3" font-family="Times New Roman,serif" font-size="14.00"> &#160;&#160;swipe(&quot;Right&quot;) &#160;&#160;</text>
</g>
<!-- state_9&#45;&gt;state_9 -->
<g id="edge34" class="edge"><title>state_9&#45;&gt;state_9</title>
<path fill="none" stroke="black" d="M547.113,-601.262C602.904,-605.824 671,-601.07 671,-587 671,-573.782 610.9,-568.786 557.364,-572.012"/>
<polygon fill="black" stroke="black" points="556.841,-568.54 547.113,-572.738 557.336,-575.522 556.841,-568.54"/>
<text text-anchor="middle" x="720.5" y="-583.3" font-family="Times New Roman,serif" font-size="14.00"> &#160;&#160;swipe(&quot;Left&quot;) &#160;&#160;</text>
</g>
<!-- state_9&#45;&gt;state_9 -->
<g id="edge35" class="edge"><title>state_9&#45;&gt;state_9</title>
<path fill="none" stroke="black" d="M547.143,-605.387C633.927,-616.724 770,-610.595 770,-587 770,-564.304 644.094,-557.768 557.263,-567.393"/>
<polygon fill="black" stroke="black" points="556.652,-563.941 547.143,-568.613 557.49,-570.891 556.652,-563.941"/>
<text text-anchor="middle" x="832.5" y="-583.3" font-family="Times New Roman,serif" font-size="14.00"> &#160;&#160;press(&quot;BackKey&quot;) &#160;&#160;</text>
</g>
<!-- state_9&#45;&gt;state_9 -->
<g id="edge36" class="edge"><title>state_9&#45;&gt;state_9</title>
<path fill="none" stroke="black" d="M547.369,-608.221C666.291,-627.609 895,-620.535 895,-587 895,-554.382 678.628,-546.798 557.364,-564.248"/>
<polygon fill="black" stroke="black" points="556.724,-560.805 547.369,-565.779 557.784,-567.724 556.724,-560.805"/>
<text text-anchor="middle" x="959" y="-583.3" font-family="Times New Roman,serif" font-size="14.00"> &#160;&#160;press(&quot;MenuKey&quot;) &#160;&#160;</text>
</g>
<!-- state_10 -->
<g id="node7" class="node"><title>state_10</title>
<g id="a_node7"><a xlink:href="10.png" xlink:title="&lt;TABLE&gt;">
<polygon fill="none" stroke="black" points="455,-391 325,-391 325,-101 455,-101 455,-391"/>
<text text-anchor="start" x="366.5" y="-379.8" font-family="Times New Roman,serif" font-size="14.00">state_10</text>
<text text-anchor="start" x="359.5" y="-364.8" font-family="Times New Roman,serif" font-size="14.00">incoming:5</text>
<text text-anchor="start" x="360.5" y="-349.8" font-family="Times New Roman,serif" font-size="14.00">outgoing:6</text>
<text text-anchor="start" x="372" y="-334.8" font-family="Times New Roman,serif" font-size="14.00">loop:4</text>
<image xlink:href="10.png" width="130px" height="230px" preserveAspectRatio="xMinYMin meet" x="325" y="-331"/>
</a>
</g>
</g>
<!-- state_9&#45;&gt;state_10 -->
<g id="edge32" class="edge"><title>state_9&#45;&gt;state_10</title>
<path fill="none" stroke="black" d="M444.863,-441.995C441.894,-430.823 438.915,-419.723 436,-409 435.287,-406.379 434.566,-403.736 433.837,-401.074"/>
<polygon fill="black" stroke="black" points="437.195,-400.082 431.17,-391.367 430.445,-401.937 437.195,-400.082"/>
<text text-anchor="middle" x="485.5" y="-412.8" font-family="Times New Roman,serif" font-size="14.00"> &#160;&#160;click(&quot;OK&quot;) &#160;&#160;</text>
</g>
<!-- state_9&#45;&gt;final -->
<g id="edge37" class="edge"><title>state_9&#45;&gt;final</title>
<path fill="none" stroke="red" d="M547.093,-582.851C658.74,-573.522 884.333,-536.637 984,-391 1020.4,-337.817 1026.9,-149.088 984,-101 942.294,-54.2536 493.469,-32.654 363.234,-27.3411"/>
<polygon fill="red" stroke="red" points="363.154,-23.8352 353.022,-26.9314 362.874,-30.8295 363.154,-23.8352"/>
<text text-anchor="middle" x="1064.5" y="-242.3" font-family="Times New Roman,serif" font-size="14.00" fill="red"> &#160;&#160;click(&quot;給5星&quot;) &#160;&#160;</text>
</g>
<!-- state_10&#45;&gt;state_5 -->
<g id="edge39" class="edge"><title>state_10&#45;&gt;state_5</title>
<path fill="none" stroke="black" d="M324.926,-350.352C315.032,-369.325 305.855,-389.355 299,-409 251.098,-546.287 341.153,-621.196 247,-732 230.619,-751.278 208.819,-730.257 193,-750 187.267,-757.155 167.507,-963.369 153.806,-1113.41"/>
<polygon fill="black" stroke="black" points="150.294,-1113.38 152.871,-1123.66 157.265,-1114.02 150.294,-1113.38"/>
<text text-anchor="middle" x="250.5" y="-753.8" font-family="Times New Roman,serif" font-size="14.00"> &#160;&#160;click(&quot;index=0&quot;) &#160;&#160;</text>
</g>
<!-- state_10&#45;&gt;state_10 -->
<g id="edge38" class="edge"><title>state_10&#45;&gt;state_10</title>
<path fill="none" stroke="black" d="M455.072,-253.373C465.697,-252.318 473,-249.86 473,-246 473,-243.527 470.003,-241.63 465.055,-240.308"/>
<polygon fill="black" stroke="black" points="465.514,-236.836 455.072,-238.627 464.352,-243.739 465.514,-236.836"/>
<text text-anchor="middle" x="530.5" y="-242.3" font-family="Times New Roman,serif" font-size="14.00"> &#160;&#160;click(&quot;index=1&quot;) &#160;&#160;</text>
</g>
<!-- state_10&#45;&gt;state_10 -->
<g id="edge40" class="edge"><title>state_10&#45;&gt;state_10</title>
<path fill="none" stroke="black" d="M455.181,-260.076C514.033,-264.948 588,-260.257 588,-246 588,-232.551 522.175,-227.614 465.31,-231.188"/>
<polygon fill="black" stroke="black" points="464.901,-227.709 455.181,-231.924 465.408,-234.69 464.901,-227.709"/>
<text text-anchor="middle" x="641" y="-242.3" font-family="Times New Roman,serif" font-size="14.00"> &#160;&#160;swipe(&quot;Right&quot;) &#160;&#160;</text>
</g>
<!-- state_10&#45;&gt;state_10 -->
<g id="edge41" class="edge"><title>state_10&#45;&gt;state_10</title>
<path fill="none" stroke="black" d="M455.304,-264.069C546.472,-275.836 694,-269.813 694,-246 694,-223.048 556.94,-216.623 465.398,-226.725"/>
<polygon fill="black" stroke="black" points="464.819,-223.269 455.304,-227.931 465.649,-230.22 464.819,-223.269"/>
<text text-anchor="middle" x="743.5" y="-242.3" font-family="Times New Roman,serif" font-size="14.00"> &#160;&#160;swipe(&quot;Left&quot;) &#160;&#160;</text>
</g>
<!-- state_10&#45;&gt;state_10 -->
<g id="edge42" class="edge"><title>state_10&#45;&gt;state_10</title>
<path fill="none" stroke="black" d="M455.087,-267.365C571.617,-286.574 793,-279.452 793,-246 793,-213.495 583.979,-205.851 465.233,-223.066"/>
<polygon fill="black" stroke="black" points="464.435,-219.648 455.087,-224.635 465.505,-226.566 464.435,-219.648"/>
<text text-anchor="middle" x="857" y="-242.3" font-family="Times New Roman,serif" font-size="14.00"> &#160;&#160;press(&quot;MenuKey&quot;) &#160;&#160;</text>
</g>
<!-- state_10&#45;&gt;final -->
<g id="edge43" class="edge"><title>state_10&#45;&gt;final</title>
<path fill="none" stroke="red" d="M349.163,-100.755C344.92,-85.7653 340.951,-71.7449 337.622,-59.9883"/>
<polygon fill="red" stroke="red" points="340.963,-58.9404 334.872,-50.2719 334.228,-60.8472 340.963,-58.9404"/>
<text text-anchor="middle" x="405.5" y="-71.8" font-family="Times New Roman,serif" font-size="14.00" fill="red"> &#160;&#160;press(&quot;BackKey&quot;) &#160;&#160;</text>
</g>
</g>
</svg>
