<?xml version="1.0" encoding="UTF-8" standalone="no"?>
<!DOCTYPE svg PUBLIC "-//W3C//DTD SVG 1.1//EN"
 "http://www.w3.org/Graphics/SVG/1.1/DTD/svg11.dtd">
<!-- Generated by graphviz version 2.38.0 (20140413.2041)
 -->
<!-- Title: result Pages: 1 -->
<svg width="519pt" height="283pt"
 viewBox="0.00 0.00 519.00 283.00" xmlns="http://www.w3.org/2000/svg" xmlns:xlink="http://www.w3.org/1999/xlink">
<g id="graph0" class="graph" transform="scale(1 1) rotate(0) translate(4 279)">
<title>result</title>
<polygon fill="white" stroke="none" points="-4,4 -4,-279 515,-279 515,4 -4,4"/>
<!-- initial -->
<g id="node1" class="node"><title>initial</title>
<image xlink:href="-1.png" width="50px" height="50px" preserveAspectRatio="xMinYMin meet" x="0" y="-162.5"/>
</g>
<!-- activity_0 -->
<g id="node2" class="node"><title>activity_0</title>
<g id="a_node2"><a xlink:href="activity_0.svg" xlink:title="&lt;TABLE&gt;">
<polygon fill="none" stroke="black" points="217,-275 87,-275 87,-0 217,-0 217,-275"/>
<text text-anchor="start" x="124.5" y="-263.3" font-family="Times New Roman,serif" font-size="14.00">activity_0</text>
<text text-anchor="start" x="121.5" y="-248.3" font-family="Times New Roman,serif" font-size="14.00">incoming:0</text>
<text text-anchor="start" x="122.5" y="-233.3" font-family="Times New Roman,serif" font-size="14.00">outgoing:6</text>
<image xlink:href="0.png" width="130px" height="230px" preserveAspectRatio="xMinYMin meet" x="87" y="-229.5"/>
</a>
</g>
</g>
<!-- initial&#45;&gt;activity_0 -->
<g id="edge1" class="edge"><title>initial&#45;&gt;activity_0</title>
<path fill="none" stroke="black" d="M50.1013,-137.5C57.9994,-137.5 67.2332,-137.5 76.8484,-137.5"/>
<polygon fill="black" stroke="black" points="76.9667,-141 86.9666,-137.5 76.9666,-134 76.9667,-141"/>
</g>
<!-- final -->
<g id="node3" class="node"><title>final</title>
<image xlink:href="-2.png" width="50px" height="50px" preserveAspectRatio="xMinYMin meet" x="461" y="-162.5"/>
</g>
<!-- activity_0&#45;&gt;final -->
<g id="edge2" class="edge"><title>activity_0&#45;&gt;final</title>
<path fill="none" stroke="black" d="M217.381,-201.778C223.049,-205.214 228.943,-208.195 235,-210.5 321.397,-243.386 362.976,-256.783 443,-210.5 457.536,-202.093 467.482,-186.538 474.032,-171.94"/>
<polygon fill="black" stroke="black" points="477.318,-173.151 477.859,-162.57 470.838,-170.503 477.318,-173.151"/>
<text text-anchor="middle" x="339" y="-243.3" font-family="Times New Roman,serif" font-size="14.00"> &#160;&#160;&lt;a0.s0,press(&quot;BackKey&quot;),final&gt; &#160;&#160;</text>
</g>
<!-- activity_0&#45;&gt;final -->
<g id="edge3" class="edge"><title>activity_0&#45;&gt;final</title>
<path fill="none" stroke="black" d="M217.122,-167.704C223.07,-169.637 229.086,-171.291 235,-172.5 280.285,-181.76 399.539,-188.235 443,-172.5 446.124,-171.369 449.178,-169.893 452.124,-168.188"/>
<polygon fill="black" stroke="black" points="454.246,-170.979 460.597,-162.498 450.344,-165.167 454.246,-170.979"/>
<text text-anchor="middle" x="339" y="-185.3" font-family="Times New Roman,serif" font-size="14.00"> &#160;&#160;&lt;a0.s3,press(&quot;BackKey&quot;),final&gt; &#160;&#160;</text>
</g>
<!-- activity_0&#45;&gt;final -->
<g id="edge4" class="edge"><title>activity_0&#45;&gt;final</title>
<path fill="none" stroke="black" d="M217.013,-137.5C286.614,-137.5 395.269,-137.5 450.402,-137.5"/>
<polygon fill="black" stroke="black" points="450.688,-141 460.688,-137.5 450.688,-134 450.688,-141"/>
<text text-anchor="middle" x="339" y="-141.3" font-family="Times New Roman,serif" font-size="14.00"> &#160;&#160;&lt;a0.s5,click(&quot;給5星&quot;),final&gt; &#160;&#160;</text>
</g>
<!-- activity_0&#45;&gt;final -->
<g id="edge5" class="edge"><title>activity_0&#45;&gt;final</title>
<path fill="none" stroke="black" d="M217.216,-121.165C223.198,-120.084 229.193,-119.164 235,-118.5 326.846,-107.998 352.633,-99.0107 443,-118.5 445.694,-119.081 448.423,-119.85 451.13,-120.745"/>
<polygon fill="black" stroke="black" points="450.135,-124.112 460.725,-124.431 452.646,-117.578 450.135,-124.112"/>
<text text-anchor="middle" x="339" y="-122.3" font-family="Times New Roman,serif" font-size="14.00"> &#160;&#160;&lt;a0.s6,press(&quot;BackKey&quot;),final&gt; &#160;&#160;</text>
</g>
<!-- activity_0&#45;&gt;final -->
<g id="edge6" class="edge"><title>activity_0&#45;&gt;final</title>
<path fill="none" stroke="black" d="M217.316,-93.9936C223.125,-91.3984 229.06,-89.168 235,-87.5 324.001,-62.5055 359.207,-48.4534 443,-87.5 451.124,-91.2858 458.236,-97.5023 464.187,-104.287"/>
<polygon fill="black" stroke="black" points="461.67,-106.746 470.629,-112.401 467.152,-102.393 461.67,-106.746"/>
<text text-anchor="middle" x="339" y="-91.3" font-family="Times New Roman,serif" font-size="14.00"> &#160;&#160;&lt;a0.s9,click(&quot;給5星&quot;),final&gt; &#160;&#160;</text>
</g>
<!-- activity_0&#45;&gt;final -->
<g id="edge7" class="edge"><title>activity_0&#45;&gt;final</title>
<path fill="none" stroke="black" d="M217.254,-53.9337C222.867,-49.8754 228.79,-46.3235 235,-43.5 319.154,-5.23697 365.436,6.79776 443,-43.5 462.977,-56.4543 473.536,-81.377 479.069,-102.306"/>
<polygon fill="black" stroke="black" points="475.698,-103.261 481.401,-112.19 482.511,-101.653 475.698,-103.261"/>
<text text-anchor="middle" x="339" y="-47.3" font-family="Times New Roman,serif" font-size="14.00"> &#160;&#160;&lt;a0.s10,press(&quot;BackKey&quot;),final&gt; &#160;&#160;</text>
</g>
</g>
</svg>
