<?xml version="1.0" encoding="UTF-8" standalone="no"?>
<!DOCTYPE svg PUBLIC "-//W3C//DTD SVG 1.1//EN"
 "http://www.w3.org/Graphics/SVG/1.1/DTD/svg11.dtd">
<!-- Generated by graphviz version 2.38.0 (20140413.2041)
 -->
<!-- Title: activity_0 Pages: 1 -->
<svg width="1309pt" height="2445pt"
 viewBox="0.00 0.00 1309.00 2445.00" xmlns="http://www.w3.org/2000/svg" xmlns:xlink="http://www.w3.org/1999/xlink">
<g id="graph0" class="graph" transform="scale(1 1) rotate(0) translate(4 2441)">
<title>activity_0</title>
<polygon fill="white" stroke="none" points="-4,4 -4,-2441 1305,-2441 1305,4 -4,4"/>
<!-- state_0 -->
<g id="node1" class="node"><title>state_0</title>
<g id="a_node1"><a xlink:href="0.png" xlink:title="&lt;TABLE&gt;">
<polygon fill="none" stroke="black" points="273,-2437 143,-2437 143,-2147 273,-2147 273,-2437"/>
<text text-anchor="start" x="188" y="-2425.8" font-family="Times New Roman,serif" font-size="14.00">state_0</text>
<text text-anchor="start" x="177.5" y="-2410.8" font-family="Times New Roman,serif" font-size="14.00">incoming:4</text>
<text text-anchor="start" x="178.5" y="-2395.8" font-family="Times New Roman,serif" font-size="14.00">outgoing:7</text>
<text text-anchor="start" x="190" y="-2380.8" font-family="Times New Roman,serif" font-size="14.00">loop:4</text>
<image xlink:href="0.png" width="130px" height="230px" preserveAspectRatio="xMinYMin meet" x="143" y="-2377"/>
</a>
</g>
</g>
<!-- state_0&#45;&gt;state_0 -->
<g id="edge1" class="edge"><title>state_0&#45;&gt;state_0</title>
<path fill="none" stroke="black" d="M273.072,-2299.37C283.697,-2298.32 291,-2295.86 291,-2292 291,-2289.53 288.003,-2287.63 283.055,-2286.31"/>
<polygon fill="black" stroke="black" points="283.514,-2282.84 273.072,-2284.63 282.352,-2289.74 283.514,-2282.84"/>
<text text-anchor="middle" x="348.5" y="-2288.3" font-family="Times New Roman,serif" font-size="14.00"> &#160;&#160;click(&quot;index=1&quot;) &#160;&#160;</text>
</g>
<!-- state_0&#45;&gt;state_0 -->
<g id="edge4" class="edge"><title>state_0&#45;&gt;state_0</title>
<path fill="none" stroke="black" d="M273.181,-2306.08C332.033,-2310.95 406,-2306.26 406,-2292 406,-2278.55 340.175,-2273.61 283.31,-2277.19"/>
<polygon fill="black" stroke="black" points="282.901,-2273.71 273.181,-2277.92 283.408,-2280.69 282.901,-2273.71"/>
<text text-anchor="middle" x="459" y="-2288.3" font-family="Times New Roman,serif" font-size="14.00"> &#160;&#160;swipe(&quot;Right&quot;) &#160;&#160;</text>
</g>
<!-- state_0&#45;&gt;state_0 -->
<g id="edge5" class="edge"><title>state_0&#45;&gt;state_0</title>
<path fill="none" stroke="black" d="M273.304,-2310.07C364.472,-2321.84 512,-2315.81 512,-2292 512,-2269.05 374.94,-2262.62 283.398,-2272.73"/>
<polygon fill="black" stroke="black" points="282.819,-2269.27 273.304,-2273.93 283.649,-2276.22 282.819,-2269.27"/>
<text text-anchor="middle" x="561.5" y="-2288.3" font-family="Times New Roman,serif" font-size="14.00"> &#160;&#160;swipe(&quot;Left&quot;) &#160;&#160;</text>
</g>
<!-- state_0&#45;&gt;state_0 -->
<g id="edge6" class="edge"><title>state_0&#45;&gt;state_0</title>
<path fill="none" stroke="black" d="M273.087,-2313.36C389.617,-2332.57 611,-2325.45 611,-2292 611,-2259.5 401.979,-2251.85 283.233,-2269.07"/>
<polygon fill="black" stroke="black" points="282.435,-2265.65 273.087,-2270.64 283.505,-2272.57 282.435,-2265.65"/>
<text text-anchor="middle" x="675" y="-2288.3" font-family="Times New Roman,serif" font-size="14.00"> &#160;&#160;press(&quot;MenuKey&quot;) &#160;&#160;</text>
</g>
<!-- state_2 -->
<g id="node2" class="node"><title>state_2</title>
<g id="a_node2"><a xlink:href="2.png" xlink:title="&lt;TABLE&gt;">
<polygon fill="none" stroke="black" points="273,-2096 143,-2096 143,-1806 273,-1806 273,-2096"/>
<text text-anchor="start" x="188" y="-2084.8" font-family="Times New Roman,serif" font-size="14.00">state_2</text>
<text text-anchor="start" x="177.5" y="-2069.8" font-family="Times New Roman,serif" font-size="14.00">incoming:6</text>
<text text-anchor="start" x="178.5" y="-2054.8" font-family="Times New Roman,serif" font-size="14.00">outgoing:5</text>
<text text-anchor="start" x="190" y="-2039.8" font-family="Times New Roman,serif" font-size="14.00">loop:4</text>
<image xlink:href="2.png" width="130px" height="230px" preserveAspectRatio="xMinYMin meet" x="143" y="-2036"/>
</a>
</g>
</g>
<!-- state_0&#45;&gt;state_2 -->
<g id="edge2" class="edge"><title>state_0&#45;&gt;state_2</title>
<path fill="none" stroke="black" d="M208,-2146.74C208,-2133.39 208,-2119.82 208,-2106.38"/>
<polygon fill="black" stroke="black" points="211.5,-2106.13 208,-2096.13 204.5,-2106.13 211.5,-2106.13"/>
<text text-anchor="middle" x="265.5" y="-2117.8" font-family="Times New Roman,serif" font-size="14.00"> &#160;&#160;click(&quot;index=1&quot;) &#160;&#160;</text>
</g>
<!-- state_9 -->
<g id="node6" class="node"><title>state_9</title>
<g id="a_node6"><a xlink:href="9.png" xlink:title="&lt;TABLE&gt;">
<polygon fill="none" stroke="black" points="391,-732 261,-732 261,-442 391,-442 391,-732"/>
<text text-anchor="start" x="306" y="-720.8" font-family="Times New Roman,serif" font-size="14.00">state_9</text>
<text text-anchor="start" x="295.5" y="-705.8" font-family="Times New Roman,serif" font-size="14.00">incoming:6</text>
<text text-anchor="start" x="296.5" y="-690.8" font-family="Times New Roman,serif" font-size="14.00">outgoing:6</text>
<text text-anchor="start" x="308" y="-675.8" font-family="Times New Roman,serif" font-size="14.00">loop:4</text>
<image xlink:href="9.png" width="130px" height="230px" preserveAspectRatio="xMinYMin meet" x="261" y="-672"/>
</a>
</g>
</g>
<!-- state_0&#45;&gt;state_9 -->
<g id="edge3" class="edge"><title>state_0&#45;&gt;state_9</title>
<path fill="none" stroke="black" d="M273.307,-2282.82C492.163,-2253.61 1186,-2145.74 1186,-1952 1186,-1952 1186,-1952 1186,-927 1186,-848.088 1224.64,-808.79 1172,-750 1069.76,-635.817 588.862,-600.625 401.235,-591.133"/>
<polygon fill="black" stroke="black" points="401.341,-587.634 391.18,-590.635 400.995,-594.626 401.341,-587.634"/>
<text text-anchor="middle" x="1243.5" y="-1435.8" font-family="Times New Roman,serif" font-size="14.00"> &#160;&#160;click(&quot;index=3&quot;) &#160;&#160;</text>
</g>
<!-- final -->
<g id="node8" class="node"><title>final</title>
<image xlink:href="-2.png" width="50px" height="50px" preserveAspectRatio="xMinYMin meet" x="151" y="-50"/>
</g>
<!-- state_0&#45;&gt;final -->
<g id="edge7" class="edge"><title>state_0&#45;&gt;final</title>
<path fill="none" stroke="red" d="M142.758,-2230.94C81.7586,-2167.94 0,-2062.82 0,-1952 0,-1952 0,-1952 0,-245 0,-155.086 91.2542,-81.1101 142.345,-46.7389"/>
<polygon fill="red" stroke="red" points="144.361,-49.6022 150.783,-41.1759 140.508,-43.7579 144.361,-49.6022"/>
<text text-anchor="middle" x="62.5" y="-1094.8" font-family="Times New Roman,serif" font-size="14.00" fill="red"> &#160;&#160;press(&quot;BackKey&quot;) &#160;&#160;</text>
</g>
<!-- state_2&#45;&gt;state_2 -->
<g id="edge9" class="edge"><title>state_2&#45;&gt;state_2</title>
<path fill="none" stroke="black" d="M273.072,-1958.37C283.697,-1957.32 291,-1954.86 291,-1951 291,-1948.53 288.003,-1946.63 283.055,-1945.31"/>
<polygon fill="black" stroke="black" points="283.514,-1941.84 273.072,-1943.63 282.352,-1948.74 283.514,-1941.84"/>
<text text-anchor="middle" x="344" y="-1947.3" font-family="Times New Roman,serif" font-size="14.00"> &#160;&#160;swipe(&quot;Right&quot;) &#160;&#160;</text>
</g>
<!-- state_2&#45;&gt;state_2 -->
<g id="edge10" class="edge"><title>state_2&#45;&gt;state_2</title>
<path fill="none" stroke="black" d="M273.113,-1965.26C328.904,-1969.82 397,-1965.07 397,-1951 397,-1937.78 336.9,-1932.79 283.364,-1936.01"/>
<polygon fill="black" stroke="black" points="282.841,-1932.54 273.113,-1936.74 283.336,-1939.52 282.841,-1932.54"/>
<text text-anchor="middle" x="446.5" y="-1947.3" font-family="Times New Roman,serif" font-size="14.00"> &#160;&#160;swipe(&quot;Left&quot;) &#160;&#160;</text>
</g>
<!-- state_2&#45;&gt;state_2 -->
<g id="edge11" class="edge"><title>state_2&#45;&gt;state_2</title>
<path fill="none" stroke="black" d="M273.143,-1969.39C359.927,-1980.72 496,-1974.59 496,-1951 496,-1928.3 370.094,-1921.77 283.263,-1931.39"/>
<polygon fill="black" stroke="black" points="282.652,-1927.94 273.143,-1932.61 283.49,-1934.89 282.652,-1927.94"/>
<text text-anchor="middle" x="558.5" y="-1947.3" font-family="Times New Roman,serif" font-size="14.00"> &#160;&#160;press(&quot;BackKey&quot;) &#160;&#160;</text>
</g>
<!-- state_2&#45;&gt;state_2 -->
<g id="edge12" class="edge"><title>state_2&#45;&gt;state_2</title>
<path fill="none" stroke="black" d="M273.369,-1972.22C392.291,-1991.61 621,-1984.54 621,-1951 621,-1918.38 404.628,-1910.8 283.364,-1928.25"/>
<polygon fill="black" stroke="black" points="282.724,-1924.8 273.369,-1929.78 283.784,-1931.72 282.724,-1924.8"/>
<text text-anchor="middle" x="685" y="-1947.3" font-family="Times New Roman,serif" font-size="14.00"> &#160;&#160;press(&quot;MenuKey&quot;) &#160;&#160;</text>
</g>
<!-- state_3 -->
<g id="node3" class="node"><title>state_3</title>
<g id="a_node3"><a xlink:href="3.png" xlink:title="&lt;TABLE&gt;">
<polygon fill="none" stroke="black" points="488,-1755 358,-1755 358,-1465 488,-1465 488,-1755"/>
<text text-anchor="start" x="403" y="-1743.8" font-family="Times New Roman,serif" font-size="14.00">state_3</text>
<text text-anchor="start" x="392.5" y="-1728.8" font-family="Times New Roman,serif" font-size="14.00">incoming:5</text>
<text text-anchor="start" x="393.5" y="-1713.8" font-family="Times New Roman,serif" font-size="14.00">outgoing:6</text>
<text text-anchor="start" x="405" y="-1698.8" font-family="Times New Roman,serif" font-size="14.00">loop:4</text>
<image xlink:href="3.png" width="130px" height="230px" preserveAspectRatio="xMinYMin meet" x="358" y="-1695"/>
</a>
</g>
</g>
<!-- state_2&#45;&gt;state_3 -->
<g id="edge8" class="edge"><title>state_2&#45;&gt;state_3</title>
<path fill="none" stroke="black" d="M273.091,-1847.37C298.187,-1807.8 326.956,-1762.44 352.537,-1722.1"/>
<polygon fill="black" stroke="black" points="355.545,-1723.89 357.945,-1713.57 349.634,-1720.14 355.545,-1723.89"/>
<text text-anchor="middle" x="360.5" y="-1776.8" font-family="Times New Roman,serif" font-size="14.00"> &#160;&#160;click(&quot;OK&quot;) &#160;&#160;</text>
</g>
<!-- state_3&#45;&gt;state_3 -->
<g id="edge13" class="edge"><title>state_3&#45;&gt;state_3</title>
<path fill="none" stroke="black" d="M488.072,-1617.37C498.697,-1616.32 506,-1613.86 506,-1610 506,-1607.53 503.003,-1605.63 498.055,-1604.31"/>
<polygon fill="black" stroke="black" points="498.514,-1600.84 488.072,-1602.63 497.352,-1607.74 498.514,-1600.84"/>
<text text-anchor="middle" x="563.5" y="-1606.3" font-family="Times New Roman,serif" font-size="14.00"> &#160;&#160;click(&quot;index=1&quot;) &#160;&#160;</text>
</g>
<!-- state_3&#45;&gt;state_3 -->
<g id="edge15" class="edge"><title>state_3&#45;&gt;state_3</title>
<path fill="none" stroke="black" d="M488.181,-1624.08C547.033,-1628.95 621,-1624.26 621,-1610 621,-1596.55 555.175,-1591.61 498.31,-1595.19"/>
<polygon fill="black" stroke="black" points="497.901,-1591.71 488.181,-1595.92 498.408,-1598.69 497.901,-1591.71"/>
<text text-anchor="middle" x="674" y="-1606.3" font-family="Times New Roman,serif" font-size="14.00"> &#160;&#160;swipe(&quot;Right&quot;) &#160;&#160;</text>
</g>
<!-- state_3&#45;&gt;state_3 -->
<g id="edge16" class="edge"><title>state_3&#45;&gt;state_3</title>
<path fill="none" stroke="black" d="M488.304,-1628.07C579.472,-1639.84 727,-1633.81 727,-1610 727,-1587.05 589.94,-1580.62 498.398,-1590.73"/>
<polygon fill="black" stroke="black" points="497.819,-1587.27 488.304,-1591.93 498.649,-1594.22 497.819,-1587.27"/>
<text text-anchor="middle" x="776.5" y="-1606.3" font-family="Times New Roman,serif" font-size="14.00"> &#160;&#160;swipe(&quot;Left&quot;) &#160;&#160;</text>
</g>
<!-- state_3&#45;&gt;state_3 -->
<g id="edge17" class="edge"><title>state_3&#45;&gt;state_3</title>
<path fill="none" stroke="black" d="M488.087,-1631.36C604.617,-1650.57 826,-1643.45 826,-1610 826,-1577.5 616.979,-1569.85 498.233,-1587.07"/>
<polygon fill="black" stroke="black" points="497.435,-1583.65 488.087,-1588.64 498.505,-1590.57 497.435,-1583.65"/>
<text text-anchor="middle" x="890" y="-1606.3" font-family="Times New Roman,serif" font-size="14.00"> &#160;&#160;press(&quot;MenuKey&quot;) &#160;&#160;</text>
</g>
<!-- state_5 -->
<g id="node4" class="node"><title>state_5</title>
<g id="a_node4"><a xlink:href="5.png" xlink:title="&lt;TABLE&gt;">
<polygon fill="none" stroke="black" points="488,-1414 358,-1414 358,-1124 488,-1124 488,-1414"/>
<text text-anchor="start" x="403" y="-1402.8" font-family="Times New Roman,serif" font-size="14.00">state_5</text>
<text text-anchor="start" x="392.5" y="-1387.8" font-family="Times New Roman,serif" font-size="14.00">incoming:6</text>
<text text-anchor="start" x="393.5" y="-1372.8" font-family="Times New Roman,serif" font-size="14.00">outgoing:6</text>
<text text-anchor="start" x="405" y="-1357.8" font-family="Times New Roman,serif" font-size="14.00">loop:4</text>
<image xlink:href="5.png" width="130px" height="230px" preserveAspectRatio="xMinYMin meet" x="358" y="-1354"/>
</a>
</g>
</g>
<!-- state_3&#45;&gt;state_5 -->
<g id="edge14" class="edge"><title>state_3&#45;&gt;state_5</title>
<path fill="none" stroke="black" d="M423,-1464.74C423,-1451.39 423,-1437.82 423,-1424.38"/>
<polygon fill="black" stroke="black" points="426.5,-1424.13 423,-1414.13 419.5,-1424.13 426.5,-1424.13"/>
<text text-anchor="middle" x="480.5" y="-1435.8" font-family="Times New Roman,serif" font-size="14.00"> &#160;&#160;click(&quot;index=0&quot;) &#160;&#160;</text>
</g>
<!-- state_3&#45;&gt;final -->
<g id="edge18" class="edge"><title>state_3&#45;&gt;final</title>
<path fill="none" stroke="red" d="M488.038,-1609.12C613.838,-1605.52 890.13,-1578.21 1027,-1414 1068.33,-1364.41 1046,-1334.55 1046,-1270 1046,-1270 1046,-1270 1046,-245 1046,-175.667 1041.85,-142.08 986,-101 922.805,-54.5192 359.135,-32.2249 211.347,-27.1468"/>
<polygon fill="red" stroke="red" points="211.161,-23.6386 201.048,-26.7978 210.924,-30.6346 211.161,-23.6386"/>
<text text-anchor="middle" x="1108.5" y="-753.8" font-family="Times New Roman,serif" font-size="14.00" fill="red"> &#160;&#160;press(&quot;BackKey&quot;) &#160;&#160;</text>
</g>
<!-- state_5&#45;&gt;state_5 -->
<g id="edge20" class="edge"><title>state_5&#45;&gt;state_5</title>
<path fill="none" stroke="black" d="M488.072,-1276.37C498.697,-1275.32 506,-1272.86 506,-1269 506,-1266.53 503.003,-1264.63 498.055,-1263.31"/>
<polygon fill="black" stroke="black" points="498.514,-1259.84 488.072,-1261.63 497.352,-1266.74 498.514,-1259.84"/>
<text text-anchor="middle" x="559" y="-1265.3" font-family="Times New Roman,serif" font-size="14.00"> &#160;&#160;swipe(&quot;Right&quot;) &#160;&#160;</text>
</g>
<!-- state_5&#45;&gt;state_5 -->
<g id="edge21" class="edge"><title>state_5&#45;&gt;state_5</title>
<path fill="none" stroke="black" d="M488.113,-1283.26C543.904,-1287.82 612,-1283.07 612,-1269 612,-1255.78 551.9,-1250.79 498.364,-1254.01"/>
<polygon fill="black" stroke="black" points="497.841,-1250.54 488.113,-1254.74 498.336,-1257.52 497.841,-1250.54"/>
<text text-anchor="middle" x="661.5" y="-1265.3" font-family="Times New Roman,serif" font-size="14.00"> &#160;&#160;swipe(&quot;Left&quot;) &#160;&#160;</text>
</g>
<!-- state_5&#45;&gt;state_5 -->
<g id="edge22" class="edge"><title>state_5&#45;&gt;state_5</title>
<path fill="none" stroke="black" d="M488.143,-1287.39C574.927,-1298.72 711,-1292.59 711,-1269 711,-1246.3 585.094,-1239.77 498.263,-1249.39"/>
<polygon fill="black" stroke="black" points="497.652,-1245.94 488.143,-1250.61 498.49,-1252.89 497.652,-1245.94"/>
<text text-anchor="middle" x="773.5" y="-1265.3" font-family="Times New Roman,serif" font-size="14.00"> &#160;&#160;press(&quot;BackKey&quot;) &#160;&#160;</text>
</g>
<!-- state_5&#45;&gt;state_5 -->
<g id="edge23" class="edge"><title>state_5&#45;&gt;state_5</title>
<path fill="none" stroke="black" d="M488.369,-1290.22C607.291,-1309.61 836,-1302.54 836,-1269 836,-1236.38 619.628,-1228.8 498.364,-1246.25"/>
<polygon fill="black" stroke="black" points="497.724,-1242.8 488.369,-1247.78 498.784,-1249.72 497.724,-1242.8"/>
<text text-anchor="middle" x="900" y="-1265.3" font-family="Times New Roman,serif" font-size="14.00"> &#160;&#160;press(&quot;MenuKey&quot;) &#160;&#160;</text>
</g>
<!-- state_6 -->
<g id="node5" class="node"><title>state_6</title>
<g id="a_node5"><a xlink:href="6.png" xlink:title="&lt;TABLE&gt;">
<polygon fill="none" stroke="black" points="158,-1073 28,-1073 28,-783 158,-783 158,-1073"/>
<text text-anchor="start" x="73" y="-1061.8" font-family="Times New Roman,serif" font-size="14.00">state_6</text>
<text text-anchor="start" x="62.5" y="-1046.8" font-family="Times New Roman,serif" font-size="14.00">incoming:5</text>
<text text-anchor="start" x="63.5" y="-1031.8" font-family="Times New Roman,serif" font-size="14.00">outgoing:7</text>
<text text-anchor="start" x="75" y="-1016.8" font-family="Times New Roman,serif" font-size="14.00">loop:4</text>
<image xlink:href="6.png" width="130px" height="230px" preserveAspectRatio="xMinYMin meet" x="28" y="-1013"/>
</a>
</g>
</g>
<!-- state_5&#45;&gt;state_6 -->
<g id="edge19" class="edge"><title>state_5&#45;&gt;state_6</title>
<path fill="none" stroke="black" d="M357.803,-1201.02C302.322,-1144.03 222.727,-1062.27 165.305,-1003.28"/>
<polygon fill="black" stroke="black" points="167.545,-1000.56 158.062,-995.836 162.529,-1005.44 167.545,-1000.56"/>
<text text-anchor="middle" x="299.5" y="-1094.8" font-family="Times New Roman,serif" font-size="14.00"> &#160;&#160;click(&quot;行&quot;) &#160;&#160;</text>
</g>
<!-- activity_2 -->
<g id="node9" class="node"><title>activity_2</title>
<ellipse fill="none" stroke="red" cx="248" cy="-246" rx="46.2923" ry="18"/>
<text text-anchor="middle" x="248" y="-242.3" font-family="Times New Roman,serif" font-size="14.00" fill="red">activity_2</text>
</g>
<!-- state_5&#45;&gt;activity_2 -->
<g id="edge24" class="edge"><title>state_5&#45;&gt;activity_2</title>
<path fill="none" stroke="red" d="M488.011,-1241.21C551.91,-1210.91 645.673,-1154.9 687,-1073 745.062,-957.93 772.668,-879.298 687,-783 670.827,-764.82 268.248,-750.113 252,-732 191.29,-664.32 230.158,-365.706 243.805,-273.928"/>
<polygon fill="red" stroke="red" points="247.268,-274.437 245.3,-264.027 240.346,-273.392 247.268,-274.437"/>
<text text-anchor="middle" x="609.5" y="-753.8" font-family="Times New Roman,serif" font-size="14.00" fill="red"> &#160;&#160;click(&quot;給5星&quot;) &#160;&#160;</text>
</g>
<!-- state_6&#45;&gt;state_2 -->
<g id="edge26" class="edge"><title>state_6&#45;&gt;state_2</title>
<path fill="none" stroke="black" d="M126.027,-1073.24C127.09,-1079.23 128.087,-1085.16 129,-1091 167.3,-1335.81 189.092,-1622.99 199.716,-1795.51"/>
<polygon fill="black" stroke="black" points="196.234,-1795.92 200.338,-1805.68 203.221,-1795.49 196.234,-1795.92"/>
<text text-anchor="middle" x="229.5" y="-1435.8" font-family="Times New Roman,serif" font-size="14.00"> &#160;&#160;click(&quot;index=1&quot;) &#160;&#160;</text>
</g>
<!-- state_6&#45;&gt;state_6 -->
<g id="edge25" class="edge"><title>state_6&#45;&gt;state_6</title>
<path fill="none" stroke="black" d="M158.072,-935.373C168.697,-934.318 176,-931.86 176,-928 176,-925.527 173.003,-923.63 168.055,-922.308"/>
<polygon fill="black" stroke="black" points="168.514,-918.836 158.072,-920.627 167.352,-925.739 168.514,-918.836"/>
<text text-anchor="middle" x="233.5" y="-924.3" font-family="Times New Roman,serif" font-size="14.00"> &#160;&#160;click(&quot;index=1&quot;) &#160;&#160;</text>
</g>
<!-- state_6&#45;&gt;state_6 -->
<g id="edge28" class="edge"><title>state_6&#45;&gt;state_6</title>
<path fill="none" stroke="black" d="M158.181,-942.076C217.033,-946.948 291,-942.257 291,-928 291,-914.551 225.175,-909.614 168.31,-913.188"/>
<polygon fill="black" stroke="black" points="167.901,-909.709 158.181,-913.924 168.408,-916.69 167.901,-909.709"/>
<text text-anchor="middle" x="344" y="-924.3" font-family="Times New Roman,serif" font-size="14.00"> &#160;&#160;swipe(&quot;Right&quot;) &#160;&#160;</text>
</g>
<!-- state_6&#45;&gt;state_6 -->
<g id="edge29" class="edge"><title>state_6&#45;&gt;state_6</title>
<path fill="none" stroke="black" d="M158.304,-946.069C249.472,-957.836 397,-951.813 397,-928 397,-905.048 259.94,-898.623 168.398,-908.725"/>
<polygon fill="black" stroke="black" points="167.819,-905.269 158.304,-909.931 168.649,-912.22 167.819,-905.269"/>
<text text-anchor="middle" x="446.5" y="-924.3" font-family="Times New Roman,serif" font-size="14.00"> &#160;&#160;swipe(&quot;Left&quot;) &#160;&#160;</text>
</g>
<!-- state_6&#45;&gt;state_6 -->
<g id="edge30" class="edge"><title>state_6&#45;&gt;state_6</title>
<path fill="none" stroke="black" d="M158.087,-949.365C274.617,-968.574 496,-961.452 496,-928 496,-895.495 286.979,-887.851 168.233,-905.066"/>
<polygon fill="black" stroke="black" points="167.435,-901.648 158.087,-906.635 168.505,-908.566 167.435,-901.648"/>
<text text-anchor="middle" x="560" y="-924.3" font-family="Times New Roman,serif" font-size="14.00"> &#160;&#160;press(&quot;MenuKey&quot;) &#160;&#160;</text>
</g>
<!-- state_6&#45;&gt;state_9 -->
<g id="edge27" class="edge"><title>state_6&#45;&gt;state_9</title>
<path fill="none" stroke="black" d="M158.213,-832.119C188.377,-788.232 224.273,-736.007 255.106,-691.146"/>
<polygon fill="black" stroke="black" points="258.023,-693.082 260.802,-682.858 252.254,-689.117 258.023,-693.082"/>
<text text-anchor="middle" x="266.5" y="-753.8" font-family="Times New Roman,serif" font-size="14.00"> &#160;&#160;click(&quot;index=3&quot;) &#160;&#160;</text>
</g>
<!-- state_6&#45;&gt;final -->
<g id="edge31" class="edge"><title>state_6&#45;&gt;final</title>
<path fill="none" stroke="red" d="M85.2407,-782.82C81.5899,-678.652 80.5666,-534.75 94,-409 107.953,-278.39 147.536,-126.823 166.127,-60.2881"/>
<polygon fill="red" stroke="red" points="169.582,-60.9304 168.923,-50.356 162.844,-59.0333 169.582,-60.9304"/>
<text text-anchor="middle" x="156.5" y="-412.8" font-family="Times New Roman,serif" font-size="14.00" fill="red"> &#160;&#160;press(&quot;BackKey&quot;) &#160;&#160;</text>
</g>
<!-- state_9&#45;&gt;state_9 -->
<g id="edge33" class="edge"><title>state_9&#45;&gt;state_9</title>
<path fill="none" stroke="black" d="M391.072,-594.373C401.697,-593.318 409,-590.86 409,-587 409,-584.527 406.003,-582.63 401.055,-581.308"/>
<polygon fill="black" stroke="black" points="401.514,-577.836 391.072,-579.627 400.352,-584.739 401.514,-577.836"/>
<text text-anchor="middle" x="462" y="-583.3" font-family="Times New Roman,serif" font-size="14.00"> &#160;&#160;swipe(&quot;Right&quot;) &#160;&#160;</text>
</g>
<!-- state_9&#45;&gt;state_9 -->
<g id="edge34" class="edge"><title>state_9&#45;&gt;state_9</title>
<path fill="none" stroke="black" d="M391.113,-601.262C446.904,-605.824 515,-601.07 515,-587 515,-573.782 454.9,-568.786 401.364,-572.012"/>
<polygon fill="black" stroke="black" points="400.841,-568.54 391.113,-572.738 401.336,-575.522 400.841,-568.54"/>
<text text-anchor="middle" x="564.5" y="-583.3" font-family="Times New Roman,serif" font-size="14.00"> &#160;&#160;swipe(&quot;Left&quot;) &#160;&#160;</text>
</g>
<!-- state_9&#45;&gt;state_9 -->
<g id="edge35" class="edge"><title>state_9&#45;&gt;state_9</title>
<path fill="none" stroke="black" d="M391.143,-605.387C477.927,-616.724 614,-610.595 614,-587 614,-564.304 488.094,-557.768 401.263,-567.393"/>
<polygon fill="black" stroke="black" points="400.652,-563.941 391.143,-568.613 401.49,-570.891 400.652,-563.941"/>
<text text-anchor="middle" x="676.5" y="-583.3" font-family="Times New Roman,serif" font-size="14.00"> &#160;&#160;press(&quot;BackKey&quot;) &#160;&#160;</text>
</g>
<!-- state_9&#45;&gt;state_9 -->
<g id="edge36" class="edge"><title>state_9&#45;&gt;state_9</title>
<path fill="none" stroke="black" d="M391.369,-608.221C510.291,-627.609 739,-620.535 739,-587 739,-554.382 522.628,-546.798 401.364,-564.248"/>
<polygon fill="black" stroke="black" points="400.724,-560.805 391.369,-565.779 401.784,-567.724 400.724,-560.805"/>
<text text-anchor="middle" x="803" y="-583.3" font-family="Times New Roman,serif" font-size="14.00"> &#160;&#160;press(&quot;MenuKey&quot;) &#160;&#160;</text>
</g>
<!-- state_10 -->
<g id="node7" class="node"><title>state_10</title>
<g id="a_node7"><a xlink:href="10.png" xlink:title="&lt;TABLE&gt;">
<polygon fill="none" stroke="black" points="457,-391 327,-391 327,-101 457,-101 457,-391"/>
<text text-anchor="start" x="368.5" y="-379.8" font-family="Times New Roman,serif" font-size="14.00">state_10</text>
<text text-anchor="start" x="361.5" y="-364.8" font-family="Times New Roman,serif" font-size="14.00">incoming:5</text>
<text text-anchor="start" x="362.5" y="-349.8" font-family="Times New Roman,serif" font-size="14.00">outgoing:6</text>
<text text-anchor="start" x="374" y="-334.8" font-family="Times New Roman,serif" font-size="14.00">loop:4</text>
<image xlink:href="10.png" width="130px" height="230px" preserveAspectRatio="xMinYMin meet" x="327" y="-331"/>
</a>
</g>
</g>
<!-- state_9&#45;&gt;state_10 -->
<g id="edge32" class="edge"><title>state_9&#45;&gt;state_10</title>
<path fill="none" stroke="black" d="M366.268,-441.832C367.594,-435.824 368.846,-429.862 370,-424 371.472,-416.523 372.865,-408.848 374.179,-401.082"/>
<polygon fill="black" stroke="black" points="377.635,-401.64 375.803,-391.205 370.727,-400.505 377.635,-401.64"/>
<text text-anchor="middle" x="417.5" y="-412.8" font-family="Times New Roman,serif" font-size="14.00"> &#160;&#160;click(&quot;OK&quot;) &#160;&#160;</text>
</g>
<!-- state_9&#45;&gt;activity_2 -->
<g id="edge37" class="edge"><title>state_9&#45;&gt;activity_2</title>
<path fill="none" stroke="red" d="M267.567,-441.802C265.897,-435.829 264.363,-429.88 263,-424 250.97,-372.086 248.346,-309.611 247.911,-274.485"/>
<polygon fill="red" stroke="red" points="251.408,-274.065 247.838,-264.09 244.409,-274.114 251.408,-274.065"/>
<text text-anchor="middle" x="314.5" y="-412.8" font-family="Times New Roman,serif" font-size="14.00" fill="red"> &#160;&#160;click(&quot;給5星&quot;) &#160;&#160;</text>
</g>
<!-- state_10&#45;&gt;state_5 -->
<g id="edge39" class="edge"><title>state_10&#45;&gt;state_5</title>
<path fill="none" stroke="black" d="M457.369,-248.281C575.196,-254.555 821.056,-286.634 930,-442 1004,-547.53 983.857,-614.903 930,-732 924.863,-743.168 916.683,-740.404 909,-750 797.041,-889.841 845.953,-978.618 720,-1106 656.728,-1169.99 562.807,-1215.41 497.588,-1241.57"/>
<polygon fill="black" stroke="black" points="496.194,-1238.36 488.181,-1245.29 498.768,-1244.87 496.194,-1238.36"/>
<text text-anchor="middle" x="966.5" y="-753.8" font-family="Times New Roman,serif" font-size="14.00"> &#160;&#160;click(&quot;index=0&quot;) &#160;&#160;</text>
</g>
<!-- state_10&#45;&gt;state_10 -->
<g id="edge38" class="edge"><title>state_10&#45;&gt;state_10</title>
<path fill="none" stroke="black" d="M457.072,-253.373C467.697,-252.318 475,-249.86 475,-246 475,-243.527 472.003,-241.63 467.055,-240.308"/>
<polygon fill="black" stroke="black" points="467.514,-236.836 457.072,-238.627 466.352,-243.739 467.514,-236.836"/>
<text text-anchor="middle" x="532.5" y="-242.3" font-family="Times New Roman,serif" font-size="14.00"> &#160;&#160;click(&quot;index=1&quot;) &#160;&#160;</text>
</g>
<!-- state_10&#45;&gt;state_10 -->
<g id="edge40" class="edge"><title>state_10&#45;&gt;state_10</title>
<path fill="none" stroke="black" d="M457.181,-260.076C516.033,-264.948 590,-260.257 590,-246 590,-232.551 524.175,-227.614 467.31,-231.188"/>
<polygon fill="black" stroke="black" points="466.901,-227.709 457.181,-231.924 467.408,-234.69 466.901,-227.709"/>
<text text-anchor="middle" x="643" y="-242.3" font-family="Times New Roman,serif" font-size="14.00"> &#160;&#160;swipe(&quot;Right&quot;) &#160;&#160;</text>
</g>
<!-- state_10&#45;&gt;state_10 -->
<g id="edge41" class="edge"><title>state_10&#45;&gt;state_10</title>
<path fill="none" stroke="black" d="M457.304,-264.069C548.472,-275.836 696,-269.813 696,-246 696,-223.048 558.94,-216.623 467.398,-226.725"/>
<polygon fill="black" stroke="black" points="466.819,-223.269 457.304,-227.931 467.649,-230.22 466.819,-223.269"/>
<text text-anchor="middle" x="745.5" y="-242.3" font-family="Times New Roman,serif" font-size="14.00"> &#160;&#160;swipe(&quot;Left&quot;) &#160;&#160;</text>
</g>
<!-- state_10&#45;&gt;state_10 -->
<g id="edge42" class="edge"><title>state_10&#45;&gt;state_10</title>
<path fill="none" stroke="black" d="M457.087,-267.365C573.617,-286.574 795,-279.452 795,-246 795,-213.495 585.979,-205.851 467.233,-223.066"/>
<polygon fill="black" stroke="black" points="466.435,-219.648 457.087,-224.635 467.505,-226.566 466.435,-219.648"/>
<text text-anchor="middle" x="859" y="-242.3" font-family="Times New Roman,serif" font-size="14.00"> &#160;&#160;press(&quot;MenuKey&quot;) &#160;&#160;</text>
</g>
<!-- state_10&#45;&gt;final -->
<g id="edge43" class="edge"><title>state_10&#45;&gt;final</title>
<path fill="none" stroke="red" d="M326.771,-128.022C319.341,-118.401 311.396,-109.228 303,-101 276.008,-74.5459 237.924,-53.6652 210.511,-40.7248"/>
<polygon fill="red" stroke="red" points="211.842,-37.4849 201.295,-36.4827 208.915,-43.8436 211.842,-37.4849"/>
<text text-anchor="middle" x="343.5" y="-71.8" font-family="Times New Roman,serif" font-size="14.00" fill="red"> &#160;&#160;press(&quot;BackKey&quot;) &#160;&#160;</text>
</g>
</g>
</svg>
