<?xml version="1.0" encoding="UTF-8" standalone="no"?>
<!DOCTYPE svg PUBLIC "-//W3C//DTD SVG 1.1//EN"
 "http://www.w3.org/Graphics/SVG/1.1/DTD/svg11.dtd">
<!-- Generated by graphviz version 2.38.0 (20140413.2041)
 -->
<!-- Title: activity_2 Pages: 1 -->
<svg width="308pt" height="385pt"
 viewBox="0.00 0.00 308.00 385.00" xmlns="http://www.w3.org/2000/svg" xmlns:xlink="http://www.w3.org/1999/xlink">
<g id="graph0" class="graph" transform="scale(1 1) rotate(0) translate(4 381)">
<title>activity_2</title>
<polygon fill="white" stroke="none" points="-4,4 -4,-381 304,-381 304,4 -4,4"/>
<!-- state_30 -->
<g id="node1" class="node"><title>state_30</title>
<g id="a_node1"><a xlink:href="30.png" xlink:title="&lt;TABLE&gt;">
<polygon fill="none" stroke="black" points="130,-290 0,-290 0,-0 130,-0 130,-290"/>
<text text-anchor="start" x="41.5" y="-278.8" font-family="Times New Roman,serif" font-size="14.00">state_30</text>
<text text-anchor="start" x="34.5" y="-263.8" font-family="Times New Roman,serif" font-size="14.00">incoming:1</text>
<text text-anchor="start" x="35.5" y="-248.8" font-family="Times New Roman,serif" font-size="14.00">outgoing:0</text>
<text text-anchor="start" x="47" y="-233.8" font-family="Times New Roman,serif" font-size="14.00">loop:0</text>
<image xlink:href="30.png" width="130px" height="230px" preserveAspectRatio="xMinYMin meet" x="0" y="-230"/>
</a>
</g>
</g>
<!-- state_39 -->
<g id="node2" class="node"><title>state_39</title>
<g id="a_node2"><a xlink:href="39.png" xlink:title="&lt;TABLE&gt;">
<polygon fill="none" stroke="black" points="278,-290 148,-290 148,-0 278,-0 278,-290"/>
<text text-anchor="start" x="189.5" y="-278.8" font-family="Times New Roman,serif" font-size="14.00">state_39</text>
<text text-anchor="start" x="182.5" y="-263.8" font-family="Times New Roman,serif" font-size="14.00">incoming:1</text>
<text text-anchor="start" x="183.5" y="-248.8" font-family="Times New Roman,serif" font-size="14.00">outgoing:0</text>
<text text-anchor="start" x="195" y="-233.8" font-family="Times New Roman,serif" font-size="14.00">loop:0</text>
<image xlink:href="39.png" width="130px" height="230px" preserveAspectRatio="xMinYMin meet" x="148" y="-230"/>
</a>
</g>
</g>
<!-- activity_0 -->
<g id="node3" class="node"><title>activity_0</title>
<ellipse fill="none" stroke="red" cx="139" cy="-359" rx="46.2923" ry="18"/>
<text text-anchor="middle" x="139" y="-355.3" font-family="Times New Roman,serif" font-size="14.00" fill="red">activity_0</text>
</g>
<!-- activity_0&#45;&gt;state_30 -->
<g id="edge1" class="edge"><title>activity_0&#45;&gt;state_30</title>
<path fill="none" stroke="red" d="M110.711,-344.548C102.077,-339.061 93.4382,-331.884 88,-323 83.5233,-315.687 79.7457,-307.886 76.5683,-299.789"/>
<polygon fill="red" stroke="red" points="79.7836,-298.387 73.1081,-290.16 73.196,-300.754 79.7836,-298.387"/>
<text text-anchor="middle" x="139.5" y="-311.8" font-family="Times New Roman,serif" font-size="14.00" fill="red"> &#160;&#160;click(&quot;給5星&quot;) &#160;&#160;</text>
</g>
<!-- activity_0&#45;&gt;state_39 -->
<g id="edge2" class="edge"><title>activity_0&#45;&gt;state_39</title>
<path fill="none" stroke="red" d="M167.593,-344.844C176.488,-339.345 185.417,-332.086 191,-323 195.486,-315.699 199.26,-307.909 202.422,-299.82"/>
<polygon fill="red" stroke="red" points="205.791,-300.793 205.859,-290.199 199.199,-298.438 205.791,-300.793"/>
<text text-anchor="middle" x="248.5" y="-311.8" font-family="Times New Roman,serif" font-size="14.00" fill="red"> &#160;&#160;click(&quot;給5星&quot;) &#160;&#160;</text>
</g>
</g>
</svg>
