<?xml version="1.0" encoding="UTF-8" standalone="no"?>
<!DOCTYPE svg PUBLIC "-//W3C//DTD SVG 1.1//EN"
 "http://www.w3.org/Graphics/SVG/1.1/DTD/svg11.dtd">
<!-- Generated by graphviz version 2.38.0 (20140413.2041)
 -->
<!-- Title: activity_1 Pages: 1 -->
<svg width="2962pt" height="2685pt"
 viewBox="0.00 0.00 2962.00 2685.00" xmlns="http://www.w3.org/2000/svg" xmlns:xlink="http://www.w3.org/1999/xlink">
<g id="graph0" class="graph" transform="scale(1 1) rotate(0) translate(4 2681)">
<title>activity_1</title>
<polygon fill="white" stroke="none" points="-4,4 -4,-2681 2958,-2681 2958,4 -4,4"/>
<!-- state_2 -->
<g id="node1" class="node"><title>state_2</title>
<g id="a_node1"><a xlink:href="2.png" xlink:title="&lt;TABLE&gt;">
<polygon fill="none" stroke="black" points="1712,-2677 1582,-2677 1582,-2387 1712,-2387 1712,-2677"/>
<text text-anchor="start" x="1627" y="-2665.8" font-family="Times New Roman,serif" font-size="14.00">state_2</text>
<text text-anchor="start" x="1616.5" y="-2650.8" font-family="Times New Roman,serif" font-size="14.00">incoming:7</text>
<text text-anchor="start" x="1617.5" y="-2635.8" font-family="Times New Roman,serif" font-size="14.00">outgoing:4</text>
<text text-anchor="start" x="1629" y="-2620.8" font-family="Times New Roman,serif" font-size="14.00">loop:2</text>
<image xlink:href="2.png" width="130px" height="230px" preserveAspectRatio="xMinYMin meet" x="1582" y="-2617"/>
</a>
</g>
</g>
<!-- state_2&#45;&gt;state_2 -->
<g id="edge1" class="edge"><title>state_2&#45;&gt;state_2</title>
<path fill="none" stroke="black" d="M1712.07,-2546.75C1722.7,-2544.64 1730,-2539.72 1730,-2532 1730,-2526.93 1726.86,-2523.08 1721.69,-2520.43"/>
<polygon fill="black" stroke="black" points="1722.66,-2517.06 1712.07,-2517.25 1720.47,-2523.71 1722.66,-2517.06"/>
<text text-anchor="middle" x="1784.5" y="-2528.3" font-family="Times New Roman,serif" font-size="14.00"> &#160;&#160;click(&quot;无标题&quot;) &#160;&#160;</text>
</g>
<!-- state_2&#45;&gt;state_2 -->
<g id="edge2" class="edge"><title>state_2&#45;&gt;state_2</title>
<path fill="none" stroke="black" d="M1712.41,-2560.44C1769.18,-2569.7 1839,-2560.22 1839,-2532 1839,-2505.43 1777.12,-2495.47 1722.5,-2502.12"/>
<polygon fill="black" stroke="black" points="1721.82,-2498.68 1712.41,-2503.56 1722.8,-2505.62 1721.82,-2498.68"/>
<text text-anchor="middle" x="1910" y="-2528.3" font-family="Times New Roman,serif" font-size="14.00"> &#160;&#160;longClick(&quot;index=1&quot;) &#160;&#160;</text>
</g>
<!-- state_19 -->
<g id="node2" class="node"><title>state_19</title>
<g id="a_node2"><a xlink:href="19.png" xlink:title="&lt;TABLE&gt;">
<polygon fill="none" stroke="black" points="373,-2336 243,-2336 243,-2046 373,-2046 373,-2336"/>
<text text-anchor="start" x="284.5" y="-2324.8" font-family="Times New Roman,serif" font-size="14.00">state_19</text>
<text text-anchor="start" x="277.5" y="-2309.8" font-family="Times New Roman,serif" font-size="14.00">incoming:7</text>
<text text-anchor="start" x="278.5" y="-2294.8" font-family="Times New Roman,serif" font-size="14.00">outgoing:9</text>
<text text-anchor="start" x="290" y="-2279.8" font-family="Times New Roman,serif" font-size="14.00">loop:6</text>
<image xlink:href="19.png" width="130px" height="230px" preserveAspectRatio="xMinYMin meet" x="243" y="-2276"/>
</a>
</g>
</g>
<!-- state_2&#45;&gt;state_19 -->
<g id="edge3" class="edge"><title>state_2&#45;&gt;state_19</title>
<path fill="none" stroke="black" d="M1581.96,-2514.53C1358.27,-2457.9 621.233,-2271.3 382.994,-2210.99"/>
<polygon fill="black" stroke="black" points="383.593,-2207.53 373.04,-2208.47 381.875,-2214.31 383.593,-2207.53"/>
<text text-anchor="middle" x="1046.5" y="-2357.8" font-family="Times New Roman,serif" font-size="14.00"> &#160;&#160;&quot;index=1&quot;.input(&quot;a&quot;) &#160;&#160;</text>
</g>
<!-- state_48 -->
<g id="node6" class="node"><title>state_48</title>
<g id="a_node6"><a xlink:href="48.png" xlink:title="&lt;TABLE&gt;">
<polygon fill="none" stroke="black" points="2160,-1313 2030,-1313 2030,-1023 2160,-1023 2160,-1313"/>
<text text-anchor="start" x="2071.5" y="-1301.8" font-family="Times New Roman,serif" font-size="14.00">state_48</text>
<text text-anchor="start" x="2064.5" y="-1286.8" font-family="Times New Roman,serif" font-size="14.00">incoming:7</text>
<text text-anchor="start" x="2065.5" y="-1271.8" font-family="Times New Roman,serif" font-size="14.00">outgoing:9</text>
<text text-anchor="start" x="2077" y="-1256.8" font-family="Times New Roman,serif" font-size="14.00">loop:6</text>
<image xlink:href="48.png" width="130px" height="230px" preserveAspectRatio="xMinYMin meet" x="2030" y="-1253"/>
</a>
</g>
</g>
<!-- state_2&#45;&gt;state_48 -->
<g id="edge4" class="edge"><title>state_2&#45;&gt;state_48</title>
<path fill="none" stroke="black" d="M1712.39,-2514.92C1837.84,-2479.73 2100,-2383.3 2100,-2192 2100,-2192 2100,-2192 2100,-1508 2100,-1447.75 2099.2,-1381.49 2098.24,-1323.65"/>
<polygon fill="black" stroke="black" points="2101.74,-1323.27 2098.07,-1313.33 2094.74,-1323.39 2101.74,-1323.27"/>
<text text-anchor="middle" x="2172.5" y="-1846.3" font-family="Times New Roman,serif" font-size="14.00"> &#160;&#160;&quot;index=1&quot;.input(&quot;aa&quot;) &#160;&#160;</text>
</g>
<!-- state_19&#45;&gt;state_19 -->
<g id="edge5" class="edge"><title>state_19&#45;&gt;state_19</title>
<path fill="none" stroke="black" d="M373.072,-2195.92C383.697,-2195.21 391,-2193.57 391,-2191 391,-2189.35 388.003,-2188.09 383.055,-2187.21"/>
<polygon fill="black" stroke="black" points="383.4,-2183.72 373.072,-2186.08 382.619,-2190.68 383.4,-2183.72"/>
<text text-anchor="middle" x="429" y="-2187.3" font-family="Times New Roman,serif" font-size="14.00"> &#160;&#160;click(&quot;a&quot;) &#160;&#160;</text>
</g>
<!-- state_19&#45;&gt;state_19 -->
<g id="edge6" class="edge"><title>state_19&#45;&gt;state_19</title>
<path fill="none" stroke="black" d="M373.104,-2200.96C418.042,-2203.17 467,-2199.85 467,-2191 467,-2182.8 425.039,-2179.35 383.154,-2180.64"/>
<polygon fill="black" stroke="black" points="382.956,-2177.14 373.104,-2181.04 383.235,-2184.14 382.956,-2177.14"/>
<text text-anchor="middle" x="538" y="-2187.3" font-family="Times New Roman,serif" font-size="14.00"> &#160;&#160;longClick(&quot;index=1&quot;) &#160;&#160;</text>
</g>
<!-- state_19&#45;&gt;state_19 -->
<g id="edge7" class="edge"><title>state_19&#45;&gt;state_19</title>
<path fill="none" stroke="black" d="M373.18,-2203.08C463.527,-2210.88 609,-2206.85 609,-2191 609,-2175.72 473.85,-2171.43 383.18,-2178.12"/>
<polygon fill="black" stroke="black" points="382.869,-2174.64 373.18,-2178.92 383.427,-2181.62 382.869,-2174.64"/>
<text text-anchor="middle" x="666.5" y="-2187.3" font-family="Times New Roman,serif" font-size="14.00"> &#160;&#160;click(&quot;index=1&quot;) &#160;&#160;</text>
</g>
<!-- state_19&#45;&gt;state_19 -->
<g id="edge8" class="edge"><title>state_19&#45;&gt;state_19</title>
<path fill="none" stroke="black" d="M373.269,-2205.1C492.852,-2218.08 724,-2213.38 724,-2191 724,-2169.23 505.32,-2164.19 383.322,-2175.87"/>
<polygon fill="black" stroke="black" points="382.862,-2172.4 373.269,-2176.9 383.573,-2179.37 382.862,-2172.4"/>
<text text-anchor="middle" x="795" y="-2187.3" font-family="Times New Roman,serif" font-size="14.00"> &#160;&#160;longClick(&quot;index=1&quot;) &#160;&#160;</text>
</g>
<!-- state_19&#45;&gt;state_19 -->
<g id="edge11" class="edge"><title>state_19&#45;&gt;state_19</title>
<path fill="none" stroke="black" d="M373.241,-2206.53C523.658,-2225.3 866,-2220.12 866,-2191 866,-2162.5 538.21,-2156.94 383.197,-2174.3"/>
<polygon fill="black" stroke="black" points="382.761,-2170.82 373.241,-2175.47 383.583,-2177.77 382.761,-2170.82"/>
<text text-anchor="middle" x="919" y="-2187.3" font-family="Times New Roman,serif" font-size="14.00"> &#160;&#160;swipe(&quot;Right&quot;) &#160;&#160;</text>
</g>
<!-- state_19&#45;&gt;state_19 -->
<g id="edge12" class="edge"><title>state_19&#45;&gt;state_19</title>
<path fill="none" stroke="black" d="M373.182,-2208.15C544.33,-2232.41 972,-2226.69 972,-2191 972,-2155.99 560.463,-2149.82 383.234,-2172.5"/>
<polygon fill="black" stroke="black" points="382.626,-2169.05 373.182,-2173.85 383.56,-2175.98 382.626,-2169.05"/>
<text text-anchor="middle" x="1021.5" y="-2187.3" font-family="Times New Roman,serif" font-size="14.00"> &#160;&#160;swipe(&quot;Left&quot;) &#160;&#160;</text>
</g>
<!-- state_24 -->
<g id="node3" class="node"><title>state_24</title>
<g id="a_node3"><a xlink:href="24.png" xlink:title="&lt;TABLE&gt;">
<polygon fill="none" stroke="black" points="216,-1995 86,-1995 86,-1705 216,-1705 216,-1995"/>
<text text-anchor="start" x="127.5" y="-1983.8" font-family="Times New Roman,serif" font-size="14.00">state_24</text>
<text text-anchor="start" x="120.5" y="-1968.8" font-family="Times New Roman,serif" font-size="14.00">incoming:9</text>
<text text-anchor="start" x="121.5" y="-1953.8" font-family="Times New Roman,serif" font-size="14.00">outgoing:9</text>
<text text-anchor="start" x="133" y="-1938.8" font-family="Times New Roman,serif" font-size="14.00">loop:7</text>
<image xlink:href="24.png" width="130px" height="230px" preserveAspectRatio="xMinYMin meet" x="86" y="-1935"/>
</a>
</g>
</g>
<!-- state_19&#45;&gt;state_24 -->
<g id="edge9" class="edge"><title>state_19&#45;&gt;state_24</title>
<path fill="none" stroke="black" d="M242.782,-2049.18C235.387,-2033.21 227.83,-2016.89 220.384,-2000.82"/>
<polygon fill="black" stroke="black" points="223.394,-1998.99 216.015,-1991.38 217.042,-2001.93 223.394,-1998.99"/>
<text text-anchor="middle" x="300" y="-2016.8" font-family="Times New Roman,serif" font-size="14.00"> &#160;&#160;&quot;index=1&quot;.input(&quot;b&quot;) &#160;&#160;</text>
</g>
<!-- state_30 -->
<g id="node4" class="node"><title>state_30</title>
<g id="a_node4"><a xlink:href="30.png" xlink:title="&lt;TABLE&gt;">
<polygon fill="none" stroke="black" points="487,-1654 357,-1654 357,-1364 487,-1364 487,-1654"/>
<text text-anchor="start" x="398.5" y="-1642.8" font-family="Times New Roman,serif" font-size="14.00">state_30</text>
<text text-anchor="start" x="388" y="-1627.8" font-family="Times New Roman,serif" font-size="14.00">incoming:15</text>
<text text-anchor="start" x="389" y="-1612.8" font-family="Times New Roman,serif" font-size="14.00">outgoing:10</text>
<text text-anchor="start" x="404" y="-1597.8" font-family="Times New Roman,serif" font-size="14.00">loop:7</text>
<image xlink:href="30.png" width="130px" height="230px" preserveAspectRatio="xMinYMin meet" x="357" y="-1594"/>
</a>
</g>
</g>
<!-- state_19&#45;&gt;state_30 -->
<g id="edge10" class="edge"><title>state_19&#45;&gt;state_30</title>
<path fill="none" stroke="black" d="M373.233,-2184.76C551.297,-2168.98 1038.73,-2115.38 1134,-1995 1173.99,-1944.47 1173.09,-1756.24 1134,-1705 1056.14,-1602.95 664.221,-1541.21 497.379,-1519.18"/>
<polygon fill="black" stroke="black" points="497.57,-1515.68 487.2,-1517.85 496.661,-1522.62 497.57,-1515.68"/>
<text text-anchor="middle" x="1237" y="-1846.3" font-family="Times New Roman,serif" font-size="14.00"> &#160;&#160;&quot;index=1&quot;.input(&quot;bb&quot;) &#160;&#160;</text>
</g>
<!-- state_40 -->
<g id="node5" class="node"><title>state_40</title>
<g id="a_node5"><a xlink:href="40.png" xlink:title="&lt;TABLE&gt;">
<polygon fill="none" stroke="black" points="689,-290 559,-290 559,-0 689,-0 689,-290"/>
<text text-anchor="start" x="600.5" y="-278.8" font-family="Times New Roman,serif" font-size="14.00">state_40</text>
<text text-anchor="start" x="593.5" y="-263.8" font-family="Times New Roman,serif" font-size="14.00">incoming:8</text>
<text text-anchor="start" x="594.5" y="-248.8" font-family="Times New Roman,serif" font-size="14.00">outgoing:5</text>
<text text-anchor="start" x="606" y="-233.8" font-family="Times New Roman,serif" font-size="14.00">loop:2</text>
<image xlink:href="40.png" width="130px" height="230px" preserveAspectRatio="xMinYMin meet" x="559" y="-230"/>
</a>
</g>
</g>
<!-- state_19&#45;&gt;state_40 -->
<g id="edge13" class="edge"><title>state_19&#45;&gt;state_40</title>
<path fill="none" stroke="black" d="M242.681,-2155.95C152.271,-2103.58 0,-1994.13 0,-1851 0,-1851 0,-1851 0,-485 0,-237.745 382.961,-169.839 548.858,-152.023"/>
<polygon fill="black" stroke="black" points="549.403,-155.485 558.987,-150.969 548.678,-148.523 549.403,-155.485"/>
<text text-anchor="middle" x="64" y="-1164.3" font-family="Times New Roman,serif" font-size="14.00"> &#160;&#160;press(&quot;MenuKey&quot;) &#160;&#160;</text>
</g>
<!-- state_24&#45;&gt;state_24 -->
<g id="edge14" class="edge"><title>state_24&#45;&gt;state_24</title>
<path fill="none" stroke="black" d="M216.072,-1854.21C226.697,-1853.61 234,-1852.21 234,-1850 234,-1848.59 231.003,-1847.5 226.055,-1846.75"/>
<polygon fill="black" stroke="black" points="226.361,-1843.26 216.072,-1845.79 225.69,-1850.23 226.361,-1843.26"/>
<text text-anchor="middle" x="272" y="-1846.3" font-family="Times New Roman,serif" font-size="14.00"> &#160;&#160;click(&quot;a&quot;) &#160;&#160;</text>
</g>
<!-- state_24&#45;&gt;state_24 -->
<g id="edge15" class="edge"><title>state_24&#45;&gt;state_24</title>
<path fill="none" stroke="black" d="M216.104,-1858.54C261.042,-1860.44 310,-1857.59 310,-1850 310,-1842.97 268.039,-1840.01 226.154,-1841.12"/>
<polygon fill="black" stroke="black" points="225.978,-1837.62 216.104,-1841.46 226.217,-1844.62 225.978,-1837.62"/>
<text text-anchor="middle" x="381" y="-1846.3" font-family="Times New Roman,serif" font-size="14.00"> &#160;&#160;longClick(&quot;index=1&quot;) &#160;&#160;</text>
</g>
<!-- state_24&#45;&gt;state_24 -->
<g id="edge16" class="edge"><title>state_24&#45;&gt;state_24</title>
<path fill="none" stroke="black" d="M216.18,-1860.35C306.527,-1867.04 452,-1863.59 452,-1850 452,-1836.9 316.85,-1833.22 226.18,-1838.96"/>
<polygon fill="black" stroke="black" points="225.917,-1835.47 216.18,-1839.65 226.396,-1842.46 225.917,-1835.47"/>
<text text-anchor="middle" x="491" y="-1846.3" font-family="Times New Roman,serif" font-size="14.00"> &#160;&#160;click(&quot;b&quot;) &#160;&#160;</text>
</g>
<!-- state_24&#45;&gt;state_24 -->
<g id="edge17" class="edge"><title>state_24&#45;&gt;state_24</title>
<path fill="none" stroke="black" d="M216.18,-1862.49C327.058,-1873.11 530,-1868.95 530,-1850 530,-1831.61 338.775,-1827.14 226.155,-1836.61"/>
<polygon fill="black" stroke="black" points="225.827,-1833.13 216.18,-1837.51 226.453,-1840.1 225.827,-1833.13"/>
<text text-anchor="middle" x="601" y="-1846.3" font-family="Times New Roman,serif" font-size="14.00"> &#160;&#160;longClick(&quot;index=1&quot;) &#160;&#160;</text>
</g>
<!-- state_24&#45;&gt;state_24 -->
<g id="edge18" class="edge"><title>state_24&#45;&gt;state_24</title>
<path fill="none" stroke="black" d="M216.202,-1863.65C359.18,-1879.33 672,-1874.78 672,-1850 672,-1825.8 373.672,-1820.89 226.529,-1835.28"/>
<polygon fill="black" stroke="black" points="225.789,-1831.84 216.202,-1836.35 226.51,-1838.8 225.789,-1831.84"/>
<text text-anchor="middle" x="742" y="-1846.3" font-family="Times New Roman,serif" font-size="14.00"> &#160;&#160;&quot;index=1&quot;.input(&quot;b&quot;) &#160;&#160;</text>
</g>
<!-- state_24&#45;&gt;state_24 -->
<g id="edge20" class="edge"><title>state_24&#45;&gt;state_24</title>
<path fill="none" stroke="black" d="M216.274,-1864.74C386.941,-1885.49 812,-1880.58 812,-1850 812,-1820.01 402.976,-1814.71 226.296,-1834.11"/>
<polygon fill="black" stroke="black" points="225.806,-1830.64 216.274,-1835.26 226.609,-1837.59 225.806,-1830.64"/>
<text text-anchor="middle" x="865" y="-1846.3" font-family="Times New Roman,serif" font-size="14.00"> &#160;&#160;swipe(&quot;Right&quot;) &#160;&#160;</text>
</g>
<!-- state_24&#45;&gt;state_24 -->
<g id="edge21" class="edge"><title>state_24&#45;&gt;state_24</title>
<path fill="none" stroke="black" d="M216.26,-1865.98C406.216,-1891.58 918,-1886.25 918,-1850 918,-1814.37 423.559,-1808.61 226.277,-1832.73"/>
<polygon fill="black" stroke="black" points="225.734,-1829.27 216.26,-1834.02 226.624,-1836.21 225.734,-1829.27"/>
<text text-anchor="middle" x="967.5" y="-1846.3" font-family="Times New Roman,serif" font-size="14.00"> &#160;&#160;swipe(&quot;Left&quot;) &#160;&#160;</text>
</g>
<!-- state_24&#45;&gt;state_30 -->
<g id="edge19" class="edge"><title>state_24&#45;&gt;state_30</title>
<path fill="none" stroke="black" d="M198.635,-1704.95C204.739,-1693.38 211.513,-1682.23 219,-1672 253.713,-1624.59 305.686,-1583.47 348.353,-1554.52"/>
<polygon fill="black" stroke="black" points="350.393,-1557.37 356.754,-1548.9 346.498,-1551.55 350.393,-1557.37"/>
<text text-anchor="middle" x="293" y="-1675.8" font-family="Times New Roman,serif" font-size="14.00"> &#160;&#160;&quot;index=1&quot;.input(&quot;bb&quot;) &#160;&#160;</text>
</g>
<!-- state_24&#45;&gt;state_40 -->
<g id="edge22" class="edge"><title>state_24&#45;&gt;state_40</title>
<path fill="none" stroke="black" d="M154.067,-1704.67C155.102,-1644.49 156,-1573.86 156,-1510 156,-1510 156,-1510 156,-485 156,-293.161 417.101,-198.773 549.254,-163.285"/>
<polygon fill="black" stroke="black" points="550.152,-166.668 558.927,-160.731 548.364,-159.9 550.152,-166.668"/>
<text text-anchor="middle" x="220" y="-993.8" font-family="Times New Roman,serif" font-size="14.00"> &#160;&#160;press(&quot;MenuKey&quot;) &#160;&#160;</text>
</g>
<!-- state_30&#45;&gt;state_24 -->
<g id="edge27" class="edge"><title>state_30&#45;&gt;state_24</title>
<path fill="none" stroke="black" d="M385.821,-1654.27C380.377,-1665.79 374.141,-1676.88 367,-1687 330.247,-1739.11 271.563,-1781.58 224.633,-1809.94"/>
<polygon fill="black" stroke="black" points="222.817,-1806.95 216.015,-1815.08 226.398,-1812.97 222.817,-1806.95"/>
<text text-anchor="middle" x="445" y="-1675.8" font-family="Times New Roman,serif" font-size="14.00"> &#160;&#160;&quot;index=1&quot;.input(&quot;b&quot;) &#160;&#160;</text>
</g>
<!-- state_30&#45;&gt;state_30 -->
<g id="edge23" class="edge"><title>state_30&#45;&gt;state_30</title>
<path fill="none" stroke="black" d="M487.072,-1513.21C497.697,-1512.61 505,-1511.21 505,-1509 505,-1507.59 502.003,-1506.5 497.055,-1505.75"/>
<polygon fill="black" stroke="black" points="497.361,-1502.26 487.072,-1504.79 496.69,-1509.23 497.361,-1502.26"/>
<text text-anchor="middle" x="543" y="-1505.3" font-family="Times New Roman,serif" font-size="14.00"> &#160;&#160;click(&quot;a&quot;) &#160;&#160;</text>
</g>
<!-- state_30&#45;&gt;state_30 -->
<g id="edge24" class="edge"><title>state_30&#45;&gt;state_30</title>
<path fill="none" stroke="black" d="M487.104,-1517.54C532.042,-1519.44 581,-1516.59 581,-1509 581,-1501.97 539.039,-1499.01 497.154,-1500.12"/>
<polygon fill="black" stroke="black" points="496.978,-1496.62 487.104,-1500.46 497.217,-1503.62 496.978,-1496.62"/>
<text text-anchor="middle" x="652" y="-1505.3" font-family="Times New Roman,serif" font-size="14.00"> &#160;&#160;longClick(&quot;index=1&quot;) &#160;&#160;</text>
</g>
<!-- state_30&#45;&gt;state_30 -->
<g id="edge25" class="edge"><title>state_30&#45;&gt;state_30</title>
<path fill="none" stroke="black" d="M487.18,-1519.35C577.527,-1526.04 723,-1522.59 723,-1509 723,-1495.9 587.85,-1492.22 497.18,-1497.96"/>
<polygon fill="black" stroke="black" points="496.917,-1494.47 487.18,-1498.65 497.396,-1501.46 496.917,-1494.47"/>
<text text-anchor="middle" x="765.5" y="-1505.3" font-family="Times New Roman,serif" font-size="14.00"> &#160;&#160;click(&quot;bb&quot;) &#160;&#160;</text>
</g>
<!-- state_30&#45;&gt;state_30 -->
<g id="edge26" class="edge"><title>state_30&#45;&gt;state_30</title>
<path fill="none" stroke="black" d="M487.201,-1521.41C599.757,-1532.13 808,-1528 808,-1509 808,-1490.56 611.78,-1486.12 497.332,-1495.68"/>
<polygon fill="black" stroke="black" points="496.85,-1492.21 487.201,-1496.59 497.472,-1499.19 496.85,-1492.21"/>
<text text-anchor="middle" x="879" y="-1505.3" font-family="Times New Roman,serif" font-size="14.00"> &#160;&#160;longClick(&quot;index=1&quot;) &#160;&#160;</text>
</g>
<!-- state_30&#45;&gt;state_30 -->
<g id="edge28" class="edge"><title>state_30&#45;&gt;state_30</title>
<path fill="none" stroke="black" d="M487.046,-1522.57C631.374,-1538.35 950,-1533.83 950,-1509 950,-1484.73 645.527,-1479.86 497.03,-1494.4"/>
<polygon fill="black" stroke="black" points="496.633,-1490.92 487.046,-1495.43 497.354,-1497.89 496.633,-1490.92"/>
<text text-anchor="middle" x="1024" y="-1505.3" font-family="Times New Roman,serif" font-size="14.00"> &#160;&#160;&quot;index=1&quot;.input(&quot;bb&quot;) &#160;&#160;</text>
</g>
<!-- state_30&#45;&gt;state_30 -->
<g id="edge29" class="edge"><title>state_30&#45;&gt;state_30</title>
<path fill="none" stroke="black" d="M487.1,-1523.59C660.344,-1544.51 1098,-1539.65 1098,-1509 1098,-1478.94 676.853,-1473.68 497.28,-1493.24"/>
<polygon fill="black" stroke="black" points="496.636,-1489.79 487.1,-1494.41 497.433,-1496.75 496.636,-1489.79"/>
<text text-anchor="middle" x="1151" y="-1505.3" font-family="Times New Roman,serif" font-size="14.00"> &#160;&#160;swipe(&quot;Right&quot;) &#160;&#160;</text>
</g>
<!-- state_30&#45;&gt;state_30 -->
<g id="edge30" class="edge"><title>state_30&#45;&gt;state_30</title>
<path fill="none" stroke="black" d="M487.145,-1524.85C679.504,-1550.6 1204,-1545.32 1204,-1509 1204,-1473.3 697.278,-1467.59 497.294,-1491.85"/>
<polygon fill="black" stroke="black" points="496.622,-1488.41 487.145,-1493.15 497.507,-1495.36 496.622,-1488.41"/>
<text text-anchor="middle" x="1253.5" y="-1505.3" font-family="Times New Roman,serif" font-size="14.00"> &#160;&#160;swipe(&quot;Left&quot;) &#160;&#160;</text>
</g>
<!-- state_30&#45;&gt;state_40 -->
<g id="edge31" class="edge"><title>state_30&#45;&gt;state_40</title>
<path fill="none" stroke="black" d="M356.898,-1390.93C327.395,-1327.27 299,-1246.01 299,-1169 299,-1169 299,-1169 299,-485 299,-341.052 453.583,-234.414 549.528,-182.091"/>
<polygon fill="black" stroke="black" points="551.474,-185.018 558.622,-177.197 548.158,-178.854 551.474,-185.018"/>
<text text-anchor="middle" x="363" y="-823.3" font-family="Times New Roman,serif" font-size="14.00"> &#160;&#160;press(&quot;MenuKey&quot;) &#160;&#160;</text>
</g>
<!-- activity_0 -->
<g id="node9" class="node"><title>activity_0</title>
<ellipse fill="none" stroke="red" cx="1186" cy="-1168" rx="46.2923" ry="18"/>
<text text-anchor="middle" x="1186" y="-1164.3" font-family="Times New Roman,serif" font-size="14.00" fill="red">activity_0</text>
</g>
<!-- state_30&#45;&gt;activity_0 -->
<g id="edge32" class="edge"><title>state_30&#45;&gt;activity_0</title>
<path fill="none" stroke="red" d="M487.199,-1457.28C550.469,-1408.37 639.57,-1340.38 658,-1331 822.668,-1247.23 1038.57,-1197.79 1135.3,-1178.45"/>
<polygon fill="red" stroke="red" points="1135.98,-1181.89 1145.11,-1176.52 1134.62,-1175.02 1135.98,-1181.89"/>
<text text-anchor="middle" x="720.5" y="-1334.8" font-family="Times New Roman,serif" font-size="14.00" fill="red"> &#160;&#160;press(&quot;BackKey&quot;) &#160;&#160;</text>
</g>
<!-- state_40&#45;&gt;state_30 -->
<g id="edge36" class="edge"><title>state_40&#45;&gt;state_30</title>
<path fill="none" stroke="black" d="M558.979,-229.327C514.296,-294.98 463,-390.852 463,-485 463,-1169 463,-1169 463,-1169 463,-1229.66 456.449,-1296 448.584,-1353.77"/>
<polygon fill="black" stroke="black" points="445.113,-1353.32 447.207,-1363.71 452.046,-1354.29 445.113,-1353.32"/>
<text text-anchor="middle" x="525.5" y="-823.3" font-family="Times New Roman,serif" font-size="14.00"> &#160;&#160;press(&quot;BackKey&quot;) &#160;&#160;</text>
</g>
<!-- state_40&#45;&gt;state_30 -->
<g id="edge37" class="edge"><title>state_40&#45;&gt;state_30</title>
<path fill="none" stroke="black" d="M624,-290.337C624,-350.52 624,-421.143 624,-485 624,-1169 624,-1169 624,-1169 624,-1273.68 552.046,-1374.16 494.027,-1438.17"/>
<polygon fill="black" stroke="black" points="491.212,-1436.06 487.026,-1445.79 496.368,-1440.79 491.212,-1436.06"/>
<text text-anchor="middle" x="688" y="-823.3" font-family="Times New Roman,serif" font-size="14.00"> &#160;&#160;press(&quot;MenuKey&quot;) &#160;&#160;</text>
</g>
<!-- state_40&#45;&gt;state_40 -->
<g id="edge34" class="edge"><title>state_40&#45;&gt;state_40</title>
<path fill="none" stroke="black" d="M689.072,-159.746C699.697,-157.635 707,-152.72 707,-145 707,-139.934 703.855,-136.076 698.69,-133.425"/>
<polygon fill="black" stroke="black" points="699.665,-130.061 689.072,-130.254 697.473,-136.709 699.665,-130.061"/>
<text text-anchor="middle" x="760" y="-141.3" font-family="Times New Roman,serif" font-size="14.00"> &#160;&#160;swipe(&quot;Right&quot;) &#160;&#160;</text>
</g>
<!-- state_40&#45;&gt;state_40 -->
<g id="edge35" class="edge"><title>state_40&#45;&gt;state_40</title>
<path fill="none" stroke="black" d="M689.113,-173.524C744.904,-182.648 813,-173.14 813,-145 813,-118.509 752.65,-108.53 699.031,-115.064"/>
<polygon fill="black" stroke="black" points="698.52,-111.601 689.113,-116.476 699.507,-118.531 698.52,-111.601"/>
<text text-anchor="middle" x="862.5" y="-141.3" font-family="Times New Roman,serif" font-size="14.00"> &#160;&#160;swipe(&quot;Left&quot;) &#160;&#160;</text>
</g>
<!-- state_40&#45;&gt;activity_0 -->
<g id="edge33" class="edge"><title>state_40&#45;&gt;activity_0</title>
<path fill="none" stroke="red" d="M689.16,-145.629C923.12,-145.809 1715.1,-159.977 1870,-341 2052.33,-554.084 2038.95,-748.156 1870,-972 1792.36,-1074.87 1386.57,-1139.63 1239.39,-1160.03"/>
<polygon fill="red" stroke="red" points="1238.68,-1156.6 1229.25,-1161.43 1239.63,-1163.53 1238.68,-1156.6"/>
<text text-anchor="middle" x="2049" y="-652.8" font-family="Times New Roman,serif" font-size="14.00" fill="red"> &#160;&#160;click(&quot;大约&quot;) &#160;&#160;</text>
</g>
<!-- state_48&#45;&gt;state_40 -->
<g id="edge46" class="edge"><title>state_48&#45;&gt;state_40</title>
<path fill="none" stroke="black" d="M2160.3,-1088.7C2184.33,-1054.98 2208.68,-1013.75 2221,-972 2257.46,-848.377 2263.58,-803.654 2221,-682 2156.96,-499.019 2107.06,-453.256 1949,-341 1745.2,-196.254 949.009,-157.092 699.323,-148.264"/>
<polygon fill="black" stroke="black" points="699.374,-144.763 689.258,-147.914 699.131,-151.759 699.374,-144.763"/>
<text text-anchor="middle" x="2277" y="-652.8" font-family="Times New Roman,serif" font-size="14.00"> &#160;&#160;press(&quot;MenuKey&quot;) &#160;&#160;</text>
</g>
<!-- state_48&#45;&gt;state_48 -->
<g id="edge38" class="edge"><title>state_48&#45;&gt;state_48</title>
<path fill="none" stroke="black" d="M2160.07,-1172.92C2170.7,-1172.21 2178,-1170.57 2178,-1168 2178,-1166.35 2175,-1165.09 2170.06,-1164.21"/>
<polygon fill="black" stroke="black" points="2170.4,-1160.72 2160.07,-1163.08 2169.62,-1167.68 2170.4,-1160.72"/>
<text text-anchor="middle" x="2219" y="-1164.3" font-family="Times New Roman,serif" font-size="14.00"> &#160;&#160;click(&quot;aa&quot;) &#160;&#160;</text>
</g>
<!-- state_48&#45;&gt;state_48 -->
<g id="edge39" class="edge"><title>state_48&#45;&gt;state_48</title>
<path fill="none" stroke="black" d="M2160.25,-1177.88C2207.41,-1180.26 2260,-1176.96 2260,-1168 2260,-1159.67 2214.54,-1156.23 2170.26,-1157.71"/>
<polygon fill="black" stroke="black" points="2170.1,-1154.21 2160.25,-1158.12 2170.39,-1161.2 2170.1,-1154.21"/>
<text text-anchor="middle" x="2331" y="-1164.3" font-family="Times New Roman,serif" font-size="14.00"> &#160;&#160;longClick(&quot;index=1&quot;) &#160;&#160;</text>
</g>
<!-- state_48&#45;&gt;state_48 -->
<g id="edge40" class="edge"><title>state_48&#45;&gt;state_48</title>
<path fill="none" stroke="black" d="M2160.06,-1179.98C2252.02,-1187.91 2402,-1183.92 2402,-1168 2402,-1152.66 2262.66,-1148.39 2170.25,-1155.2"/>
<polygon fill="black" stroke="black" points="2169.75,-1151.73 2160.06,-1156.02 2170.31,-1158.71 2169.75,-1151.73"/>
<text text-anchor="middle" x="2459.5" y="-1164.3" font-family="Times New Roman,serif" font-size="14.00"> &#160;&#160;click(&quot;index=1&quot;) &#160;&#160;</text>
</g>
<!-- state_48&#45;&gt;state_48 -->
<g id="edge41" class="edge"><title>state_48&#45;&gt;state_48</title>
<path fill="none" stroke="black" d="M2160.06,-1182C2280.94,-1195.11 2517,-1190.44 2517,-1168 2517,-1146.17 2293.68,-1141.16 2170.22,-1152.96"/>
<polygon fill="black" stroke="black" points="2169.65,-1149.5 2160.06,-1154 2170.36,-1156.47 2169.65,-1149.5"/>
<text text-anchor="middle" x="2588" y="-1164.3" font-family="Times New Roman,serif" font-size="14.00"> &#160;&#160;longClick(&quot;index=1&quot;) &#160;&#160;</text>
</g>
<!-- state_48&#45;&gt;state_48 -->
<g id="edge44" class="edge"><title>state_48&#45;&gt;state_48</title>
<path fill="none" stroke="black" d="M2160.2,-1183.46C2311.78,-1202.31 2659,-1197.16 2659,-1168 2659,-1139.47 2326.54,-1133.92 2170.24,-1151.36"/>
<polygon fill="black" stroke="black" points="2169.72,-1147.89 2160.2,-1152.54 2170.54,-1154.85 2169.72,-1147.89"/>
<text text-anchor="middle" x="2712" y="-1164.3" font-family="Times New Roman,serif" font-size="14.00"> &#160;&#160;swipe(&quot;Right&quot;) &#160;&#160;</text>
</g>
<!-- state_48&#45;&gt;state_48 -->
<g id="edge45" class="edge"><title>state_48&#45;&gt;state_48</title>
<path fill="none" stroke="black" d="M2160.29,-1185.11C2332.6,-1209.42 2765,-1203.71 2765,-1168 2765,-1132.97 2348.91,-1126.81 2170.42,-1149.54"/>
<polygon fill="black" stroke="black" points="2169.74,-1146.1 2160.29,-1150.89 2170.67,-1153.03 2169.74,-1146.1"/>
<text text-anchor="middle" x="2814.5" y="-1164.3" font-family="Times New Roman,serif" font-size="14.00"> &#160;&#160;swipe(&quot;Left&quot;) &#160;&#160;</text>
</g>
<!-- state_53 -->
<g id="node7" class="node"><title>state_53</title>
<g id="a_node7"><a xlink:href="53.png" xlink:title="&lt;TABLE&gt;">
<polygon fill="none" stroke="black" points="946,-631 816,-631 816,-341 946,-341 946,-631"/>
<text text-anchor="start" x="857.5" y="-619.8" font-family="Times New Roman,serif" font-size="14.00">state_53</text>
<text text-anchor="start" x="850.5" y="-604.8" font-family="Times New Roman,serif" font-size="14.00">incoming:9</text>
<text text-anchor="start" x="851.5" y="-589.8" font-family="Times New Roman,serif" font-size="14.00">outgoing:9</text>
<text text-anchor="start" x="863" y="-574.8" font-family="Times New Roman,serif" font-size="14.00">loop:7</text>
<image xlink:href="53.png" width="130px" height="230px" preserveAspectRatio="xMinYMin meet" x="816" y="-571"/>
</a>
</g>
</g>
<!-- state_48&#45;&gt;state_53 -->
<g id="edge42" class="edge"><title>state_48&#45;&gt;state_53</title>
<path fill="none" stroke="black" d="M2083.82,-1022.79C2070.22,-887.69 2042.17,-699.238 1989,-649 1839.57,-507.807 1180.78,-489.339 956.256,-487.184"/>
<polygon fill="black" stroke="black" points="956.245,-483.684 946.215,-487.096 956.183,-490.684 956.245,-483.684"/>
<text text-anchor="middle" x="2147" y="-823.3" font-family="Times New Roman,serif" font-size="14.00"> &#160;&#160;&quot;index=1&quot;.input(&quot;b&quot;) &#160;&#160;</text>
</g>
<!-- state_59 -->
<g id="node8" class="node"><title>state_59</title>
<g id="a_node8"><a xlink:href="59.png" xlink:title="&lt;TABLE&gt;">
<polygon fill="none" stroke="black" points="931,-972 801,-972 801,-682 931,-682 931,-972"/>
<text text-anchor="start" x="842.5" y="-960.8" font-family="Times New Roman,serif" font-size="14.00">state_59</text>
<text text-anchor="start" x="832" y="-945.8" font-family="Times New Roman,serif" font-size="14.00">incoming:13</text>
<text text-anchor="start" x="833" y="-930.8" font-family="Times New Roman,serif" font-size="14.00">outgoing:10</text>
<text text-anchor="start" x="848" y="-915.8" font-family="Times New Roman,serif" font-size="14.00">loop:7</text>
<image xlink:href="59.png" width="130px" height="230px" preserveAspectRatio="xMinYMin meet" x="801" y="-912"/>
</a>
</g>
</g>
<!-- state_48&#45;&gt;state_59 -->
<g id="edge43" class="edge"><title>state_48&#45;&gt;state_59</title>
<path fill="none" stroke="black" d="M2029.79,-1149.01C1820.12,-1091.18 1163.99,-910.196 941.022,-848.694"/>
<polygon fill="black" stroke="black" points="941.622,-845.229 931.052,-845.943 939.761,-851.977 941.622,-845.229"/>
<text text-anchor="middle" x="1554" y="-993.8" font-family="Times New Roman,serif" font-size="14.00"> &#160;&#160;&quot;index=1&quot;.input(&quot;bb&quot;) &#160;&#160;</text>
</g>
<!-- state_53&#45;&gt;state_40 -->
<g id="edge55" class="edge"><title>state_53&#45;&gt;state_40</title>
<path fill="none" stroke="black" d="M815.919,-361.618C811.381,-354.534 806.727,-347.61 802,-341 770.635,-297.141 730.511,-252.416 696.3,-216.881"/>
<polygon fill="black" stroke="black" points="698.566,-214.19 689.095,-209.441 693.538,-219.06 698.566,-214.19"/>
<text text-anchor="middle" x="848" y="-311.8" font-family="Times New Roman,serif" font-size="14.00"> &#160;&#160;press(&quot;MenuKey&quot;) &#160;&#160;</text>
</g>
<!-- state_53&#45;&gt;state_53 -->
<g id="edge47" class="edge"><title>state_53&#45;&gt;state_53</title>
<path fill="none" stroke="black" d="M946.072,-490.213C956.697,-489.61 964,-488.206 964,-486 964,-484.587 961.003,-483.503 956.055,-482.748"/>
<polygon fill="black" stroke="black" points="956.361,-479.261 946.072,-481.787 955.69,-486.229 956.361,-479.261"/>
<text text-anchor="middle" x="1005" y="-482.3" font-family="Times New Roman,serif" font-size="14.00"> &#160;&#160;click(&quot;aa&quot;) &#160;&#160;</text>
</g>
<!-- state_53&#45;&gt;state_53 -->
<g id="edge48" class="edge"><title>state_53&#45;&gt;state_53</title>
<path fill="none" stroke="black" d="M946.253,-494.465C993.407,-496.506 1046,-493.684 1046,-486 1046,-478.856 1000.54,-475.915 956.26,-477.177"/>
<polygon fill="black" stroke="black" points="956.121,-473.68 946.253,-477.535 956.372,-480.675 956.121,-473.68"/>
<text text-anchor="middle" x="1117" y="-482.3" font-family="Times New Roman,serif" font-size="14.00"> &#160;&#160;longClick(&quot;index=1&quot;) &#160;&#160;</text>
</g>
<!-- state_53&#45;&gt;state_53 -->
<g id="edge49" class="edge"><title>state_53&#45;&gt;state_53</title>
<path fill="none" stroke="black" d="M946.062,-496.272C1038.02,-503.067 1188,-499.643 1188,-486 1188,-472.85 1048.66,-469.194 956.248,-475.031"/>
<polygon fill="black" stroke="black" points="955.8,-471.554 946.062,-475.728 956.278,-478.537 955.8,-471.554"/>
<text text-anchor="middle" x="1227" y="-482.3" font-family="Times New Roman,serif" font-size="14.00"> &#160;&#160;click(&quot;b&quot;) &#160;&#160;</text>
</g>
<!-- state_53&#45;&gt;state_53 -->
<g id="edge50" class="edge"><title>state_53&#45;&gt;state_53</title>
<path fill="none" stroke="black" d="M946.079,-498.411C1058.37,-509.134 1266,-504.997 1266,-486 1266,-467.56 1070.36,-463.121 956.186,-472.685"/>
<polygon fill="black" stroke="black" points="955.727,-469.212 946.079,-473.589 956.351,-476.184 955.727,-469.212"/>
<text text-anchor="middle" x="1337" y="-482.3" font-family="Times New Roman,serif" font-size="14.00"> &#160;&#160;longClick(&quot;index=1&quot;) &#160;&#160;</text>
</g>
<!-- state_53&#45;&gt;state_53 -->
<g id="edge51" class="edge"><title>state_53&#45;&gt;state_53</title>
<path fill="none" stroke="black" d="M946.217,-499.594C1090.42,-515.345 1408,-510.813 1408,-486 1408,-461.744 1104.53,-456.869 956.191,-471.375"/>
<polygon fill="black" stroke="black" points="955.805,-467.897 946.217,-472.406 956.524,-474.859 955.805,-467.897"/>
<text text-anchor="middle" x="1478" y="-482.3" font-family="Times New Roman,serif" font-size="14.00"> &#160;&#160;&quot;index=1&quot;.input(&quot;b&quot;) &#160;&#160;</text>
</g>
<!-- state_53&#45;&gt;state_53 -->
<g id="edge53" class="edge"><title>state_53&#45;&gt;state_53</title>
<path fill="none" stroke="black" d="M946.089,-500.663C1117.71,-521.5 1548,-516.612 1548,-486 1548,-455.971 1133.95,-450.696 956.17,-470.174"/>
<polygon fill="black" stroke="black" points="955.622,-466.714 946.089,-471.337 956.424,-473.668 955.622,-466.714"/>
<text text-anchor="middle" x="1601" y="-482.3" font-family="Times New Roman,serif" font-size="14.00"> &#160;&#160;swipe(&quot;Right&quot;) &#160;&#160;</text>
</g>
<!-- state_53&#45;&gt;state_53 -->
<g id="edge54" class="edge"><title>state_53&#45;&gt;state_53</title>
<path fill="none" stroke="black" d="M946.283,-501.941C1137.26,-527.588 1654,-522.274 1654,-486 1654,-450.346 1154.77,-444.603 956.355,-468.771"/>
<polygon fill="black" stroke="black" points="955.758,-465.319 946.283,-470.059 956.646,-472.263 955.758,-465.319"/>
<text text-anchor="middle" x="1703.5" y="-482.3" font-family="Times New Roman,serif" font-size="14.00"> &#160;&#160;swipe(&quot;Left&quot;) &#160;&#160;</text>
</g>
<!-- state_53&#45;&gt;state_59 -->
<g id="edge52" class="edge"><title>state_53&#45;&gt;state_59</title>
<path fill="none" stroke="black" d="M815.913,-608.242C811.307,-616.004 806.646,-623.648 802,-631 796.728,-639.342 792.036,-639.61 789,-649 780.368,-675.694 785.617,-703.858 796.591,-729.676"/>
<polygon fill="black" stroke="black" points="793.543,-731.429 800.878,-739.075 799.912,-728.524 793.543,-731.429"/>
<text text-anchor="middle" x="863" y="-652.8" font-family="Times New Roman,serif" font-size="14.00"> &#160;&#160;&quot;index=1&quot;.input(&quot;bb&quot;) &#160;&#160;</text>
</g>
<!-- state_59&#45;&gt;state_40 -->
<g id="edge64" class="edge"><title>state_59&#45;&gt;state_40</title>
<path fill="none" stroke="black" d="M800.747,-731.096C786.936,-713.867 771.742,-696.716 756,-682 726.014,-653.968 700.433,-666.008 679,-631 670.299,-616.788 651.523,-436.899 638.34,-300.318"/>
<polygon fill="black" stroke="black" points="641.803,-299.768 637.361,-290.149 634.835,-300.438 641.803,-299.768"/>
<text text-anchor="middle" x="743" y="-482.3" font-family="Times New Roman,serif" font-size="14.00"> &#160;&#160;press(&quot;MenuKey&quot;) &#160;&#160;</text>
</g>
<!-- state_59&#45;&gt;state_53 -->
<g id="edge60" class="edge"><title>state_59&#45;&gt;state_53</title>
<path fill="none" stroke="black" d="M931.122,-687.142C933.404,-679.409 935.394,-671.664 937,-664 938.562,-656.542 939.359,-648.953 939.517,-641.319"/>
<polygon fill="black" stroke="black" points="943.016,-641.213 939.369,-631.266 936.017,-641.316 943.016,-641.213"/>
<text text-anchor="middle" x="1009" y="-652.8" font-family="Times New Roman,serif" font-size="14.00"> &#160;&#160;&quot;index=1&quot;.input(&quot;b&quot;) &#160;&#160;</text>
</g>
<!-- state_59&#45;&gt;state_59 -->
<g id="edge56" class="edge"><title>state_59&#45;&gt;state_59</title>
<path fill="none" stroke="black" d="M931.072,-831.213C941.697,-830.61 949,-829.206 949,-827 949,-825.587 946.003,-824.503 941.055,-823.748"/>
<polygon fill="black" stroke="black" points="941.361,-820.261 931.072,-822.787 940.69,-827.229 941.361,-820.261"/>
<text text-anchor="middle" x="990" y="-823.3" font-family="Times New Roman,serif" font-size="14.00"> &#160;&#160;click(&quot;aa&quot;) &#160;&#160;</text>
</g>
<!-- state_59&#45;&gt;state_59 -->
<g id="edge57" class="edge"><title>state_59&#45;&gt;state_59</title>
<path fill="none" stroke="black" d="M931.253,-835.465C978.407,-837.506 1031,-834.684 1031,-827 1031,-819.856 985.543,-816.915 941.26,-818.177"/>
<polygon fill="black" stroke="black" points="941.121,-814.68 931.253,-818.535 941.372,-821.675 941.121,-814.68"/>
<text text-anchor="middle" x="1102" y="-823.3" font-family="Times New Roman,serif" font-size="14.00"> &#160;&#160;longClick(&quot;index=1&quot;) &#160;&#160;</text>
</g>
<!-- state_59&#45;&gt;state_59 -->
<g id="edge58" class="edge"><title>state_59&#45;&gt;state_59</title>
<path fill="none" stroke="black" d="M931.062,-837.272C1023.02,-844.067 1173,-840.643 1173,-827 1173,-813.85 1033.66,-810.194 941.248,-816.031"/>
<polygon fill="black" stroke="black" points="940.8,-812.554 931.062,-816.728 941.278,-819.537 940.8,-812.554"/>
<text text-anchor="middle" x="1215.5" y="-823.3" font-family="Times New Roman,serif" font-size="14.00"> &#160;&#160;click(&quot;bb&quot;) &#160;&#160;</text>
</g>
<!-- state_59&#45;&gt;state_59 -->
<g id="edge59" class="edge"><title>state_59&#45;&gt;state_59</title>
<path fill="none" stroke="black" d="M931.077,-839.33C1045.03,-850.155 1258,-846.044 1258,-827 1258,-808.514 1057.32,-804.099 941.339,-813.757"/>
<polygon fill="black" stroke="black" points="940.728,-810.297 931.077,-814.67 941.348,-817.27 940.728,-810.297"/>
<text text-anchor="middle" x="1329" y="-823.3" font-family="Times New Roman,serif" font-size="14.00"> &#160;&#160;longClick(&quot;index=1&quot;) &#160;&#160;</text>
</g>
<!-- state_59&#45;&gt;state_59 -->
<g id="edge61" class="edge"><title>state_59&#45;&gt;state_59</title>
<path fill="none" stroke="black" d="M931.05,-840.509C1076.59,-856.361 1400,-851.858 1400,-827 1400,-802.7 1090.95,-797.852 941.12,-812.453"/>
<polygon fill="black" stroke="black" points="940.638,-808.984 931.05,-813.491 941.356,-815.948 940.638,-808.984"/>
<text text-anchor="middle" x="1474" y="-823.3" font-family="Times New Roman,serif" font-size="14.00"> &#160;&#160;&quot;index=1&quot;.input(&quot;bb&quot;) &#160;&#160;</text>
</g>
<!-- state_59&#45;&gt;state_59 -->
<g id="edge62" class="edge"><title>state_59&#45;&gt;state_59</title>
<path fill="none" stroke="black" d="M931.201,-841.554C1105.58,-862.517 1548,-857.665 1548,-827 1548,-796.904 1121.85,-791.672 941.18,-811.306"/>
<polygon fill="black" stroke="black" points="940.739,-807.833 931.201,-812.446 941.534,-814.788 940.739,-807.833"/>
<text text-anchor="middle" x="1601" y="-823.3" font-family="Times New Roman,serif" font-size="14.00"> &#160;&#160;swipe(&quot;Right&quot;) &#160;&#160;</text>
</g>
<!-- state_59&#45;&gt;state_59 -->
<g id="edge63" class="edge"><title>state_59&#45;&gt;state_59</title>
<path fill="none" stroke="black" d="M931.157,-842.809C1124.52,-868.606 1654,-863.337 1654,-827 1654,-791.284 1142.46,-785.583 941.361,-809.896"/>
<polygon fill="black" stroke="black" points="940.637,-806.46 931.157,-811.191 941.519,-813.404 940.637,-806.46"/>
<text text-anchor="middle" x="1703.5" y="-823.3" font-family="Times New Roman,serif" font-size="14.00"> &#160;&#160;swipe(&quot;Left&quot;) &#160;&#160;</text>
</g>
<!-- state_59&#45;&gt;activity_0 -->
<g id="edge65" class="edge"><title>state_59&#45;&gt;activity_0</title>
<path fill="none" stroke="red" d="M868.43,-972.35C872.222,-983.921 877.299,-994.99 884,-1005 943.305,-1093.6 1067.55,-1137.53 1136.77,-1155.93"/>
<polygon fill="red" stroke="red" points="1136.01,-1159.35 1146.57,-1158.46 1137.76,-1152.57 1136.01,-1159.35"/>
<text text-anchor="middle" x="946.5" y="-993.8" font-family="Times New Roman,serif" font-size="14.00" fill="red"> &#160;&#160;press(&quot;BackKey&quot;) &#160;&#160;</text>
</g>
<!-- activity_0&#45;&gt;state_2 -->
<g id="edge66" class="edge"><title>activity_0&#45;&gt;state_2</title>
<path fill="none" stroke="red" d="M1214.49,-1182.23C1266.84,-1208.34 1376.93,-1272.05 1420,-1364 1474.67,-1480.72 1474.57,-1537.24 1420,-1654 1405.04,-1686.01 1373.96,-1672.99 1359,-1705 1304.43,-1821.76 1338.61,-1867.73 1359,-1995 1386.68,-2167.78 1389.62,-2220.39 1482,-2369 1506.33,-2408.14 1542.02,-2444.75 1573.99,-2473.23"/>
<polygon fill="red" stroke="red" points="1571.77,-2475.95 1581.59,-2479.93 1576.4,-2470.69 1571.77,-2475.95"/>
<text text-anchor="middle" x="1416.5" y="-1846.3" font-family="Times New Roman,serif" font-size="14.00" fill="red"> &#160;&#160;click(&quot;index=1&quot;) &#160;&#160;</text>
</g>
<!-- activity_0&#45;&gt;state_2 -->
<g id="edge69" class="edge"><title>activity_0&#45;&gt;state_2</title>
<path fill="none" stroke="red" d="M1216.74,-1181.53C1274.11,-1206.67 1396.86,-1269.11 1454,-1364 1488.39,-1421.11 1496,-1441.33 1496,-1508 1496,-2192 1496,-2192 1496,-2192 1496,-2278.17 1537.21,-2366.83 1576.58,-2431.86"/>
<polygon fill="red" stroke="red" points="1573.65,-2433.78 1581.87,-2440.47 1579.62,-2430.12 1573.65,-2433.78"/>
<text text-anchor="middle" x="1553.5" y="-1846.3" font-family="Times New Roman,serif" font-size="14.00" fill="red"> &#160;&#160;click(&quot;index=1&quot;) &#160;&#160;</text>
</g>
<!-- activity_0&#45;&gt;state_2 -->
<g id="edge72" class="edge"><title>activity_0&#45;&gt;state_2</title>
<path fill="none" stroke="red" d="M1225.3,-1177.7C1336.79,-1204.91 1647,-1299.38 1647,-1508 1647,-2192 1647,-2192 1647,-2192 1647,-2252.24 1647,-2318.5 1647,-2376.34"/>
<polygon fill="red" stroke="red" points="1643.5,-2376.66 1647,-2386.66 1650.5,-2376.66 1643.5,-2376.66"/>
<text text-anchor="middle" x="1704.5" y="-1846.3" font-family="Times New Roman,serif" font-size="14.00" fill="red"> &#160;&#160;click(&quot;index=1&quot;) &#160;&#160;</text>
</g>
<!-- activity_0&#45;&gt;state_2 -->
<g id="edge75" class="edge"><title>activity_0&#45;&gt;state_2</title>
<path fill="none" stroke="red" d="M1231,-1172.49C1372.34,-1186.11 1798,-1248.68 1798,-1508 1798,-2192 1798,-2192 1798,-2192 1798,-2278.17 1756.79,-2366.83 1717.42,-2431.86"/>
<polygon fill="red" stroke="red" points="1714.38,-2430.12 1712.13,-2440.47 1720.35,-2433.78 1714.38,-2430.12"/>
<text text-anchor="middle" x="1855.5" y="-1846.3" font-family="Times New Roman,serif" font-size="14.00" fill="red"> &#160;&#160;click(&quot;index=1&quot;) &#160;&#160;</text>
</g>
<!-- activity_0&#45;&gt;state_2 -->
<g id="edge78" class="edge"><title>activity_0&#45;&gt;state_2</title>
<path fill="none" stroke="red" d="M1232.3,-1168.3C1397.61,-1168.44 1949,-1192.55 1949,-1508 1949,-2192 1949,-2192 1949,-2192 1949,-2328.73 1810.33,-2435.82 1720.92,-2490.65"/>
<polygon fill="red" stroke="red" points="1718.9,-2487.78 1712.16,-2495.96 1722.52,-2493.77 1718.9,-2487.78"/>
<text text-anchor="middle" x="2006.5" y="-1846.3" font-family="Times New Roman,serif" font-size="14.00" fill="red"> &#160;&#160;click(&quot;index=1&quot;) &#160;&#160;</text>
</g>
<!-- activity_0&#45;&gt;state_30 -->
<g id="edge67" class="edge"><title>activity_0&#45;&gt;state_30</title>
<path fill="none" stroke="red" d="M1153.08,-1180.8C1086.07,-1205.31 929.68,-1264.96 806,-1331 795.235,-1336.75 793.711,-1340.15 783,-1346 686.879,-1398.49 570.467,-1448.44 496.319,-1478.64"/>
<polygon fill="red" stroke="red" points="494.991,-1475.41 487.042,-1482.41 497.624,-1481.89 494.991,-1475.41"/>
<text text-anchor="middle" x="863.5" y="-1334.8" font-family="Times New Roman,serif" font-size="14.00" fill="red"> &#160;&#160;click(&quot;index=1&quot;) &#160;&#160;</text>
</g>
<!-- activity_0&#45;&gt;state_30 -->
<g id="edge68" class="edge"><title>activity_0&#45;&gt;state_30</title>
<path fill="none" stroke="red" d="M1163.72,-1183.94C1100.5,-1226.33 924.267,-1344.42 921,-1346 777.578,-1415.53 597.073,-1465.7 497.195,-1490.49"/>
<polygon fill="red" stroke="red" points="496.067,-1487.16 487.195,-1492.95 497.742,-1493.96 496.067,-1487.16"/>
<text text-anchor="middle" x="997.5" y="-1334.8" font-family="Times New Roman,serif" font-size="14.00" fill="red"> &#160;&#160;click(&quot;index=0&quot;) &#160;&#160;</text>
</g>
<!-- activity_0&#45;&gt;state_30 -->
<g id="edge70" class="edge"><title>activity_0&#45;&gt;state_30</title>
<path fill="none" stroke="red" d="M1178.8,-1185.91C1162.79,-1221.41 1120.7,-1303.9 1059,-1346 882.737,-1466.26 624.105,-1497.27 497.48,-1505.25"/>
<polygon fill="red" stroke="red" points="496.892,-1501.78 487.119,-1505.87 497.31,-1508.76 496.892,-1501.78"/>
<text text-anchor="middle" x="1134.5" y="-1334.8" font-family="Times New Roman,serif" font-size="14.00" fill="red"> &#160;&#160;click(&quot;index=1&quot;) &#160;&#160;</text>
</g>
<!-- activity_0&#45;&gt;state_30 -->
<g id="edge71" class="edge"><title>activity_0&#45;&gt;state_30</title>
<path fill="none" stroke="red" d="M1193.66,-1185.9C1207.97,-1220.3 1234.04,-1299.18 1196,-1346 1108.27,-1453.99 674.256,-1492.53 497.301,-1503.9"/>
<polygon fill="red" stroke="red" points="497.05,-1500.41 487.29,-1504.53 497.491,-1507.39 497.05,-1500.41"/>
<text text-anchor="middle" x="1260.5" y="-1334.8" font-family="Times New Roman,serif" font-size="14.00" fill="red"> &#160;&#160;click(&quot;index=0&quot;) &#160;&#160;</text>
</g>
<!-- activity_0&#45;&gt;state_59 -->
<g id="edge73" class="edge"><title>activity_0&#45;&gt;state_59</title>
<path fill="none" stroke="red" d="M1170.66,-1150.94C1142.93,-1121.88 1082.62,-1058.61 1032,-1005 1001.21,-972.388 967.316,-936.288 938.229,-905.242"/>
<polygon fill="red" stroke="red" points="940.721,-902.783 931.331,-897.877 935.612,-907.568 940.721,-902.783"/>
<text text-anchor="middle" x="1089.5" y="-993.8" font-family="Times New Roman,serif" font-size="14.00" fill="red"> &#160;&#160;click(&quot;index=1&quot;) &#160;&#160;</text>
</g>
<!-- activity_0&#45;&gt;state_59 -->
<g id="edge74" class="edge"><title>activity_0&#45;&gt;state_59</title>
<path fill="none" stroke="red" d="M1186.59,-1149.81C1186.89,-1115.89 1183.17,-1039.37 1147,-990 1096.03,-920.44 1005.49,-876.131 940.956,-851.754"/>
<polygon fill="red" stroke="red" points="941.826,-848.344 931.232,-848.157 939.397,-854.909 941.826,-848.344"/>
<text text-anchor="middle" x="1211.5" y="-993.8" font-family="Times New Roman,serif" font-size="14.00" fill="red"> &#160;&#160;click(&quot;index=0&quot;) &#160;&#160;</text>
</g>
<!-- activity_0&#45;&gt;state_59 -->
<g id="edge76" class="edge"><title>activity_0&#45;&gt;state_59</title>
<path fill="none" stroke="red" d="M1204.58,-1151.3C1240.02,-1119.41 1310.58,-1045.4 1273,-990 1198.65,-880.388 1037.1,-844.939 941.405,-833.477"/>
<polygon fill="red" stroke="red" points="941.546,-829.97 931.214,-832.317 940.754,-836.925 941.546,-829.97"/>
<text text-anchor="middle" x="1336.5" y="-993.8" font-family="Times New Roman,serif" font-size="14.00" fill="red"> &#160;&#160;click(&quot;index=1&quot;) &#160;&#160;</text>
</g>
<!-- activity_0&#45;&gt;state_59 -->
<g id="edge77" class="edge"><title>activity_0&#45;&gt;state_59</title>
<path fill="none" stroke="red" d="M1139.92,-1165.56C1048.5,-1159.92 845.393,-1132.86 757,-1005 744.885,-987.475 767.131,-948.465 794.62,-911.515"/>
<polygon fill="red" stroke="red" points="797.687,-913.263 800.935,-903.178 792.107,-909.036 797.687,-913.263"/>
<text text-anchor="middle" x="814.5" y="-993.8" font-family="Times New Roman,serif" font-size="14.00" fill="red"> &#160;&#160;click(&quot;index=0&quot;) &#160;&#160;</text>
</g>
</g>
</svg>
