<?xml version="1.0" encoding="UTF-8" standalone="no"?>
<!DOCTYPE svg PUBLIC "-//W3C//DTD SVG 1.1//EN"
 "http://www.w3.org/Graphics/SVG/1.1/DTD/svg11.dtd">
<!-- Generated by graphviz version 2.38.0 (20140413.2041)
 -->
<!-- Title: activity_0 Pages: 1 -->
<svg width="3065pt" height="1749pt"
 viewBox="0.00 0.00 3065.00 1749.00" xmlns="http://www.w3.org/2000/svg" xmlns:xlink="http://www.w3.org/1999/xlink">
<g id="graph0" class="graph" transform="scale(1 1) rotate(0) translate(4 1745)">
<title>activity_0</title>
<polygon fill="white" stroke="none" points="-4,4 -4,-1745 3061,-1745 3061,4 -4,4"/>
<!-- state_0 -->
<g id="node1" class="node"><title>state_0</title>
<g id="a_node1"><a xlink:href="0.png" xlink:title="&lt;TABLE&gt;">
<polygon fill="none" stroke="black" points="1435,-1741 1305,-1741 1305,-1451 1435,-1451 1435,-1741"/>
<text text-anchor="start" x="1350" y="-1729.8" font-family="Times New Roman,serif" font-size="14.00">state_0</text>
<text text-anchor="start" x="1339.5" y="-1714.8" font-family="Times New Roman,serif" font-size="14.00">incoming:9</text>
<text text-anchor="start" x="1340.5" y="-1699.8" font-family="Times New Roman,serif" font-size="14.00">outgoing:6</text>
<text text-anchor="start" x="1352" y="-1684.8" font-family="Times New Roman,serif" font-size="14.00">loop:3</text>
<image xlink:href="0.png" width="130px" height="230px" preserveAspectRatio="xMinYMin meet" x="1305" y="-1681"/>
</a>
</g>
</g>
<!-- state_0&#45;&gt;state_0 -->
<g id="edge1" class="edge"><title>state_0&#45;&gt;state_0</title>
<path fill="none" stroke="black" d="M1435.07,-1605.83C1445.7,-1604.42 1453,-1601.15 1453,-1596 1453,-1592.7 1450,-1590.17 1445.06,-1588.41"/>
<polygon fill="black" stroke="black" points="1445.6,-1584.95 1435.07,-1586.17 1444.06,-1591.78 1445.6,-1584.95"/>
<text text-anchor="middle" x="1524" y="-1592.3" font-family="Times New Roman,serif" font-size="14.00"> &#160;&#160;longClick(&quot;index=1&quot;) &#160;&#160;</text>
</g>
<!-- state_0&#45;&gt;state_0 -->
<g id="edge2" class="edge"><title>state_0&#45;&gt;state_0</title>
<path fill="none" stroke="black" d="M1435.1,-1614.04C1502.76,-1621.69 1595,-1615.67 1595,-1596 1595,-1577.29 1511.55,-1570.93 1445.17,-1576.94"/>
<polygon fill="black" stroke="black" points="1444.69,-1573.47 1435.1,-1577.96 1445.4,-1580.43 1444.69,-1573.47"/>
<text text-anchor="middle" x="1648" y="-1592.3" font-family="Times New Roman,serif" font-size="14.00"> &#160;&#160;swipe(&quot;Right&quot;) &#160;&#160;</text>
</g>
<!-- state_0&#45;&gt;state_0 -->
<g id="edge3" class="edge"><title>state_0&#45;&gt;state_0</title>
<path fill="none" stroke="black" d="M1435.01,-1619.34C1533.26,-1636.03 1701,-1628.25 1701,-1596 1701,-1564.82 1544.22,-1556.52 1445.02,-1571.08"/>
<polygon fill="black" stroke="black" points="1444.34,-1567.65 1435.01,-1572.66 1445.44,-1574.56 1444.34,-1567.65"/>
<text text-anchor="middle" x="1750.5" y="-1592.3" font-family="Times New Roman,serif" font-size="14.00"> &#160;&#160;swipe(&quot;Left&quot;) &#160;&#160;</text>
</g>
<!-- state_6 -->
<g id="node2" class="node"><title>state_6</title>
<g id="a_node2"><a xlink:href="6.png" xlink:title="&lt;TABLE&gt;">
<polygon fill="none" stroke="black" points="585,-631 455,-631 455,-341 585,-341 585,-631"/>
<text text-anchor="start" x="500" y="-619.8" font-family="Times New Roman,serif" font-size="14.00">state_6</text>
<text text-anchor="start" x="489.5" y="-604.8" font-family="Times New Roman,serif" font-size="14.00">incoming:7</text>
<text text-anchor="start" x="490.5" y="-589.8" font-family="Times New Roman,serif" font-size="14.00">outgoing:5</text>
<text text-anchor="start" x="502" y="-574.8" font-family="Times New Roman,serif" font-size="14.00">loop:2</text>
<image xlink:href="6.png" width="130px" height="230px" preserveAspectRatio="xMinYMin meet" x="455" y="-571"/>
</a>
</g>
</g>
<!-- state_0&#45;&gt;state_6 -->
<g id="edge4" class="edge"><title>state_0&#45;&gt;state_6</title>
<path fill="none" stroke="black" d="M1304.84,-1591.89C1032.58,-1578.05 0,-1516.73 0,-1383 0,-1383 0,-1383 0,-826 0,-616.174 300.791,-529.424 444.837,-499.91"/>
<polygon fill="black" stroke="black" points="445.816,-503.284 454.931,-497.883 444.437,-496.421 445.816,-503.284"/>
<text text-anchor="middle" x="64" y="-1164.3" font-family="Times New Roman,serif" font-size="14.00"> &#160;&#160;press(&quot;MenuKey&quot;) &#160;&#160;</text>
</g>
<!-- activity_1 -->
<g id="node9" class="node"><title>activity_1</title>
<ellipse fill="none" stroke="red" cx="1370" cy="-1382" rx="46.2923" ry="18"/>
<text text-anchor="middle" x="1370" y="-1378.3" font-family="Times New Roman,serif" font-size="14.00" fill="red">activity_1</text>
</g>
<!-- state_0&#45;&gt;activity_1 -->
<g id="edge5" class="edge"><title>state_0&#45;&gt;activity_1</title>
<path fill="none" stroke="red" d="M1370,-1450.95C1370,-1435.72 1370,-1421.7 1370,-1410.4"/>
<polygon fill="red" stroke="red" points="1373.5,-1410.06 1370,-1400.06 1366.5,-1410.06 1373.5,-1410.06"/>
<text text-anchor="middle" x="1427.5" y="-1421.8" font-family="Times New Roman,serif" font-size="14.00" fill="red"> &#160;&#160;click(&quot;index=1&quot;) &#160;&#160;</text>
</g>
<!-- final -->
<g id="node10" class="node"><title>final</title>
<image xlink:href="-2.png" width="50px" height="50px" preserveAspectRatio="xMinYMin meet" x="888" y="-511"/>
</g>
<!-- state_0&#45;&gt;final -->
<g id="edge6" class="edge"><title>state_0&#45;&gt;final</title>
<path fill="none" stroke="red" d="M1304.91,-1594.55C1146.41,-1589.6 739.386,-1552.95 547,-1313 503.063,-1258.2 462.248,-734.418 509,-682 532.375,-655.792 631.424,-670.141 666,-664 693.914,-659.043 700.226,-654.688 728,-649 775.243,-639.324 795.766,-659.04 835,-631 872.209,-604.407 893.454,-554.378 904.106,-520.865"/>
<polygon fill="red" stroke="red" points="907.533,-521.624 907.077,-511.039 900.832,-519.598 907.533,-521.624"/>
<text text-anchor="middle" x="609.5" y="-1164.3" font-family="Times New Roman,serif" font-size="14.00" fill="red"> &#160;&#160;press(&quot;BackKey&quot;) &#160;&#160;</text>
</g>
<!-- state_6&#45;&gt;state_0 -->
<g id="edge10" class="edge"><title>state_6&#45;&gt;state_0</title>
<path fill="none" stroke="black" d="M454.704,-513.571C351.93,-560.233 164,-667.259 164,-826 164,-1383 164,-1383 164,-1383 164,-1498.31 1030.35,-1570.45 1294.47,-1589.76"/>
<polygon fill="black" stroke="black" points="1294.51,-1593.27 1304.73,-1590.51 1295.01,-1586.29 1294.51,-1593.27"/>
<text text-anchor="middle" x="226.5" y="-1164.3" font-family="Times New Roman,serif" font-size="14.00"> &#160;&#160;press(&quot;BackKey&quot;) &#160;&#160;</text>
</g>
<!-- state_6&#45;&gt;state_0 -->
<g id="edge11" class="edge"><title>state_6&#45;&gt;state_0</title>
<path fill="none" stroke="black" d="M454.865,-536.393C413.548,-571.883 363.429,-623.625 339,-682 284.987,-811.07 325,-856.584 325,-996.5 325,-1383 325,-1383 325,-1383 325,-1581.01 1054.74,-1596.13 1294.6,-1595.75"/>
<polygon fill="black" stroke="black" points="1294.64,-1599.25 1304.63,-1595.72 1294.62,-1592.25 1294.64,-1599.25"/>
<text text-anchor="middle" x="389" y="-1164.3" font-family="Times New Roman,serif" font-size="14.00"> &#160;&#160;press(&quot;MenuKey&quot;) &#160;&#160;</text>
</g>
<!-- state_6&#45;&gt;state_6 -->
<g id="edge8" class="edge"><title>state_6&#45;&gt;state_6</title>
<path fill="none" stroke="black" d="M585.072,-500.746C595.697,-498.635 603,-493.72 603,-486 603,-480.934 599.855,-477.076 594.69,-474.425"/>
<polygon fill="black" stroke="black" points="595.665,-471.061 585.072,-471.254 593.473,-477.709 595.665,-471.061"/>
<text text-anchor="middle" x="656" y="-482.3" font-family="Times New Roman,serif" font-size="14.00"> &#160;&#160;swipe(&quot;Right&quot;) &#160;&#160;</text>
</g>
<!-- state_6&#45;&gt;state_6 -->
<g id="edge9" class="edge"><title>state_6&#45;&gt;state_6</title>
<path fill="none" stroke="black" d="M585.113,-514.524C640.904,-523.648 709,-514.14 709,-486 709,-459.509 648.65,-449.53 595.031,-456.064"/>
<polygon fill="black" stroke="black" points="594.52,-452.601 585.113,-457.476 595.507,-459.531 594.52,-452.601"/>
<text text-anchor="middle" x="758.5" y="-482.3" font-family="Times New Roman,serif" font-size="14.00"> &#160;&#160;swipe(&quot;Left&quot;) &#160;&#160;</text>
</g>
<!-- state_7 -->
<g id="node3" class="node"><title>state_7</title>
<g id="a_node3"><a xlink:href="7.png" xlink:title="&lt;TABLE&gt;">
<polygon fill="none" stroke="black" points="2280,-290 2150,-290 2150,-0 2280,-0 2280,-290"/>
<text text-anchor="start" x="2195" y="-278.8" font-family="Times New Roman,serif" font-size="14.00">state_7</text>
<text text-anchor="start" x="2184.5" y="-263.8" font-family="Times New Roman,serif" font-size="14.00">incoming:5</text>
<text text-anchor="start" x="2185.5" y="-248.8" font-family="Times New Roman,serif" font-size="14.00">outgoing:5</text>
<text text-anchor="start" x="2197" y="-233.8" font-family="Times New Roman,serif" font-size="14.00">loop:3</text>
<image xlink:href="7.png" width="130px" height="230px" preserveAspectRatio="xMinYMin meet" x="2150" y="-230"/>
</a>
</g>
</g>
<!-- state_6&#45;&gt;state_7 -->
<g id="edge7" class="edge"><title>state_6&#45;&gt;state_7</title>
<path fill="none" stroke="black" d="M585.217,-453.374C655.951,-420.381 772.985,-369.566 879,-341 1348.63,-214.458 1934.66,-164.941 2139.87,-150.72"/>
<polygon fill="black" stroke="black" points="2140.2,-154.206 2149.94,-150.03 2139.72,-147.222 2140.2,-154.206"/>
<text text-anchor="middle" x="1033" y="-311.8" font-family="Times New Roman,serif" font-size="14.00"> &#160;&#160;click(&quot;大约&quot;) &#160;&#160;</text>
</g>
<!-- state_7&#45;&gt;state_0 -->
<g id="edge12" class="edge"><title>state_7&#45;&gt;state_0</title>
<path fill="none" stroke="black" d="M2280.1,-152.021C2436.03,-170.373 2818,-240.302 2818,-485 2818,-1383 2818,-1383 2818,-1383 2818,-1523.14 1742.44,-1579.19 1445.27,-1592"/>
<polygon fill="black" stroke="black" points="1444.87,-1588.52 1435.03,-1592.44 1445.17,-1595.51 1444.87,-1588.52"/>
<text text-anchor="middle" x="2863.5" y="-993.8" font-family="Times New Roman,serif" font-size="14.00"> &#160;&#160;click(&quot;OK&quot;) &#160;&#160;</text>
</g>
<!-- state_7&#45;&gt;state_0 -->
<g id="edge15" class="edge"><title>state_7&#45;&gt;state_0</title>
<path fill="none" stroke="black" d="M2280.21,-147.043C2456.96,-153.647 2932,-198.086 2932,-485 2932,-1383 2932,-1383 2932,-1383 2932,-1534.87 1757.58,-1582.76 1445.43,-1592.81"/>
<polygon fill="black" stroke="black" points="1445.01,-1589.32 1435.13,-1593.14 1445.23,-1596.32 1445.01,-1589.32"/>
<text text-anchor="middle" x="2994.5" y="-993.8" font-family="Times New Roman,serif" font-size="14.00"> &#160;&#160;press(&quot;BackKey&quot;) &#160;&#160;</text>
</g>
<!-- state_7&#45;&gt;state_7 -->
<g id="edge13" class="edge"><title>state_7&#45;&gt;state_7</title>
<path fill="none" stroke="black" d="M2280.07,-154.831C2290.7,-153.423 2298,-150.146 2298,-145 2298,-141.703 2295,-139.173 2290.06,-137.411"/>
<polygon fill="black" stroke="black" points="2290.6,-133.945 2280.07,-135.169 2289.06,-140.775 2290.6,-133.945"/>
<text text-anchor="middle" x="2351" y="-141.3" font-family="Times New Roman,serif" font-size="14.00"> &#160;&#160;swipe(&quot;Right&quot;) &#160;&#160;</text>
</g>
<!-- state_7&#45;&gt;state_7 -->
<g id="edge14" class="edge"><title>state_7&#45;&gt;state_7</title>
<path fill="none" stroke="black" d="M2280.11,-164.016C2335.9,-170.099 2404,-163.76 2404,-145 2404,-127.376 2343.9,-120.715 2290.36,-125.016"/>
<polygon fill="black" stroke="black" points="2289.74,-121.559 2280.11,-125.984 2290.4,-128.528 2289.74,-121.559"/>
<text text-anchor="middle" x="2453.5" y="-141.3" font-family="Times New Roman,serif" font-size="14.00"> &#160;&#160;swipe(&quot;Left&quot;) &#160;&#160;</text>
</g>
<!-- state_7&#45;&gt;state_7 -->
<g id="edge16" class="edge"><title>state_7&#45;&gt;state_7</title>
<path fill="none" stroke="black" d="M2280.14,-169.517C2366.93,-184.632 2503,-176.46 2503,-145 2503,-114.738 2377.09,-106.024 2290.26,-118.858"/>
<polygon fill="black" stroke="black" points="2289.46,-115.441 2280.14,-120.483 2290.57,-122.353 2289.46,-115.441"/>
<text text-anchor="middle" x="2567" y="-141.3" font-family="Times New Roman,serif" font-size="14.00"> &#160;&#160;press(&quot;MenuKey&quot;) &#160;&#160;</text>
</g>
<!-- state_39 -->
<g id="node4" class="node"><title>state_39</title>
<g id="a_node4"><a xlink:href="39.png" xlink:title="&lt;TABLE&gt;">
<polygon fill="none" stroke="black" points="1808,-1313 1678,-1313 1678,-1023 1808,-1023 1808,-1313"/>
<text text-anchor="start" x="1719.5" y="-1301.8" font-family="Times New Roman,serif" font-size="14.00">state_39</text>
<text text-anchor="start" x="1712.5" y="-1286.8" font-family="Times New Roman,serif" font-size="14.00">incoming:1</text>
<text text-anchor="start" x="1713.5" y="-1271.8" font-family="Times New Roman,serif" font-size="14.00">outgoing:9</text>
<text text-anchor="start" x="1725" y="-1256.8" font-family="Times New Roman,serif" font-size="14.00">loop:0</text>
<image xlink:href="39.png" width="130px" height="230px" preserveAspectRatio="xMinYMin meet" x="1678" y="-1253"/>
</a>
</g>
</g>
<!-- state_39&#45;&gt;state_6 -->
<g id="edge25" class="edge"><title>state_39&#45;&gt;state_6</title>
<path fill="none" stroke="black" d="M1677.66,-1102.21C1646.29,-1066.85 1611.56,-1020.46 1593,-972 1569.89,-911.644 1617.17,-727.224 1571,-682 1545,-656.538 1280.29,-666.639 1244,-664 1203.39,-661.047 918.594,-640.514 879,-631 776.986,-606.487 665.777,-558.261 594.591,-524.395"/>
<polygon fill="black" stroke="black" points="595.781,-521.084 585.25,-519.923 592.759,-527.398 595.781,-521.084"/>
<text text-anchor="middle" x="1657" y="-823.3" font-family="Times New Roman,serif" font-size="14.00"> &#160;&#160;press(&quot;MenuKey&quot;) &#160;&#160;</text>
</g>
<!-- state_89 -->
<g id="node5" class="node"><title>state_89</title>
<g id="a_node5"><a xlink:href="89.png" xlink:title="&lt;TABLE&gt;">
<polygon fill="none" stroke="black" points="2208,-972 2078,-972 2078,-682 2208,-682 2208,-972"/>
<text text-anchor="start" x="2119.5" y="-960.8" font-family="Times New Roman,serif" font-size="14.00">state_89</text>
<text text-anchor="start" x="2112.5" y="-945.8" font-family="Times New Roman,serif" font-size="14.00">incoming:8</text>
<text text-anchor="start" x="2113.5" y="-930.8" font-family="Times New Roman,serif" font-size="14.00">outgoing:9</text>
<text text-anchor="start" x="2125" y="-915.8" font-family="Times New Roman,serif" font-size="14.00">loop:3</text>
<image xlink:href="89.png" width="130px" height="230px" preserveAspectRatio="xMinYMin meet" x="2078" y="-912"/>
</a>
</g>
</g>
<!-- state_39&#45;&gt;state_89 -->
<g id="edge18" class="edge"><title>state_39&#45;&gt;state_89</title>
<path fill="none" stroke="black" d="M1808.18,-1130.8C1864.54,-1098.98 1947.77,-1050.74 2018,-1005 2028.54,-998.134 2055.66,-981.415 2064,-972 2066.64,-969.024 2069.22,-965.945 2071.75,-962.783"/>
<polygon fill="black" stroke="black" points="2074.6,-964.822 2077.92,-954.763 2069.05,-960.552 2074.6,-964.822"/>
<text text-anchor="middle" x="2111" y="-993.8" font-family="Times New Roman,serif" font-size="14.00"> &#160;&#160;longClick(&quot;index=1&quot;) &#160;&#160;</text>
</g>
<!-- state_39&#45;&gt;state_89 -->
<g id="edge22" class="edge"><title>state_39&#45;&gt;state_89</title>
<path fill="none" stroke="black" d="M1763.86,-1022.59C1770.53,-1010.2 1779.07,-998.989 1790,-990 1837.12,-951.233 2012.54,-1004.79 2064,-972 2066,-970.724 2067.96,-969.378 2069.87,-967.969"/>
<polygon fill="black" stroke="black" points="2072.4,-970.424 2077.95,-961.403 2067.99,-964.99 2072.4,-970.424"/>
<text text-anchor="middle" x="1843" y="-993.8" font-family="Times New Roman,serif" font-size="14.00"> &#160;&#160;swipe(&quot;Right&quot;) &#160;&#160;</text>
</g>
<!-- state_39&#45;&gt;state_89 -->
<g id="edge23" class="edge"><title>state_39&#45;&gt;state_89</title>
<path fill="none" stroke="black" d="M1808.21,-1095.5C1851.02,-1049.34 1901.51,-996.681 1915,-990 1974.77,-960.389 2008.75,-1009.37 2064,-972 2065.97,-970.67 2067.89,-969.273 2069.77,-967.817"/>
<polygon fill="black" stroke="black" points="2072.37,-970.201 2077.73,-961.064 2067.84,-964.863 2072.37,-970.201"/>
<text text-anchor="middle" x="1964.5" y="-993.8" font-family="Times New Roman,serif" font-size="14.00"> &#160;&#160;swipe(&quot;Left&quot;) &#160;&#160;</text>
</g>
<!-- state_93 -->
<g id="node6" class="node"><title>state_93</title>
<g id="a_node6"><a xlink:href="93.png" xlink:title="&lt;TABLE&gt;">
<polygon fill="none" stroke="black" points="2111,-631 1981,-631 1981,-341 2111,-341 2111,-631"/>
<text text-anchor="start" x="2022.5" y="-619.8" font-family="Times New Roman,serif" font-size="14.00">state_93</text>
<text text-anchor="start" x="2015.5" y="-604.8" font-family="Times New Roman,serif" font-size="14.00">incoming:6</text>
<text text-anchor="start" x="2016.5" y="-589.8" font-family="Times New Roman,serif" font-size="14.00">outgoing:6</text>
<text text-anchor="start" x="2028" y="-574.8" font-family="Times New Roman,serif" font-size="14.00">loop:2</text>
<image xlink:href="93.png" width="130px" height="230px" preserveAspectRatio="xMinYMin meet" x="1981" y="-571"/>
</a>
</g>
</g>
<!-- state_39&#45;&gt;state_93 -->
<g id="edge20" class="edge"><title>state_39&#45;&gt;state_93</title>
<path fill="none" stroke="black" d="M1750.1,-1022.91C1755.38,-1010.7 1762.5,-999.44 1772,-990 1808.38,-953.835 1850.02,-1008.56 1886,-972 1931.65,-925.608 1905.04,-743.268 1927,-682 1938.94,-648.7 1957,-614.932 1975.48,-585.065"/>
<polygon fill="black" stroke="black" points="1978.6,-586.67 1980.95,-576.339 1972.67,-582.948 1978.6,-586.67"/>
<text text-anchor="middle" x="1998" y="-823.3" font-family="Times New Roman,serif" font-size="14.00"> &#160;&#160;longClick(&quot;index=0&quot;) &#160;&#160;</text>
</g>
<!-- state_39&#45;&gt;activity_1 -->
<g id="edge17" class="edge"><title>state_39&#45;&gt;activity_1</title>
<path fill="none" stroke="red" d="M1697.8,-1313.17C1689.23,-1325.69 1679.06,-1337 1667,-1346 1630.1,-1373.55 1501.71,-1379.72 1426.36,-1380.92"/>
<polygon fill="red" stroke="red" points="1426.04,-1377.42 1416.09,-1381.06 1426.14,-1384.42 1426.04,-1377.42"/>
<text text-anchor="middle" x="1739.5" y="-1334.8" font-family="Times New Roman,serif" font-size="14.00" fill="red"> &#160;&#160;click(&quot;index=1&quot;) &#160;&#160;</text>
</g>
<!-- state_39&#45;&gt;activity_1 -->
<g id="edge19" class="edge"><title>state_39&#45;&gt;activity_1</title>
<path fill="none" stroke="red" d="M1808.04,-1265.09C1819.26,-1293.85 1821.61,-1323.65 1801,-1346 1776.11,-1372.99 1537.54,-1379.17 1426.43,-1380.58"/>
<polygon fill="red" stroke="red" points="1426.36,-1377.08 1416.4,-1380.7 1426.44,-1384.08 1426.36,-1377.08"/>
<text text-anchor="middle" x="1866.5" y="-1334.8" font-family="Times New Roman,serif" font-size="14.00" fill="red"> &#160;&#160;click(&quot;index=0&quot;) &#160;&#160;</text>
</g>
<!-- state_39&#45;&gt;activity_1 -->
<g id="edge21" class="edge"><title>state_39&#45;&gt;activity_1</title>
<path fill="none" stroke="red" d="M1677.84,-1213.39C1628.1,-1245.39 1556.78,-1287.31 1489,-1313 1452.89,-1326.68 1436.06,-1309.48 1404,-1331 1395.07,-1336.99 1387.85,-1346.19 1382.39,-1355.08"/>
<polygon fill="red" stroke="red" points="1379.18,-1353.64 1377.35,-1364.07 1385.29,-1357.06 1379.18,-1353.64"/>
<text text-anchor="middle" x="1461.5" y="-1334.8" font-family="Times New Roman,serif" font-size="14.00" fill="red"> &#160;&#160;click(&quot;index=1&quot;) &#160;&#160;</text>
</g>
<!-- state_39&#45;&gt;final -->
<g id="edge24" class="edge"><title>state_39&#45;&gt;final</title>
<path fill="none" stroke="red" d="M1746.33,-1022.98C1748.03,-889.584 1746.27,-707.975 1725,-682 1623.41,-557.927 1091.07,-502.675 948.276,-489.95"/>
<polygon fill="red" stroke="red" points="948.569,-486.463 938.301,-489.075 947.956,-493.436 948.569,-486.463"/>
<text text-anchor="middle" x="1808.5" y="-823.3" font-family="Times New Roman,serif" font-size="14.00" fill="red"> &#160;&#160;press(&quot;BackKey&quot;) &#160;&#160;</text>
</g>
<!-- state_89&#45;&gt;state_6 -->
<g id="edge34" class="edge"><title>state_89&#45;&gt;state_6</title>
<path fill="none" stroke="black" d="M2077.8,-692.046C2073.47,-688.336 2068.87,-684.96 2064,-682 2025.81,-658.811 1302.04,-679.124 1260,-664 1249.88,-660.358 1251.07,-652.78 1241,-649 1165.59,-620.703 957.68,-648.229 879,-631 776.511,-608.557 665.406,-559.874 594.375,-525.338"/>
<polygon fill="black" stroke="black" points="595.574,-522.028 585.054,-520.775 592.497,-528.315 595.574,-522.028"/>
<text text-anchor="middle" x="1324" y="-652.8" font-family="Times New Roman,serif" font-size="14.00"> &#160;&#160;press(&quot;MenuKey&quot;) &#160;&#160;</text>
</g>
<!-- state_89&#45;&gt;state_89 -->
<g id="edge27" class="edge"><title>state_89&#45;&gt;state_89</title>
<path fill="none" stroke="black" d="M2208.07,-836.831C2218.7,-835.423 2226,-832.146 2226,-827 2226,-823.703 2223,-821.173 2218.06,-819.411"/>
<polygon fill="black" stroke="black" points="2218.6,-815.945 2208.07,-817.169 2217.06,-822.775 2218.6,-815.945"/>
<text text-anchor="middle" x="2297" y="-823.3" font-family="Times New Roman,serif" font-size="14.00"> &#160;&#160;longClick(&quot;index=1&quot;) &#160;&#160;</text>
</g>
<!-- state_89&#45;&gt;state_89 -->
<g id="edge31" class="edge"><title>state_89&#45;&gt;state_89</title>
<path fill="none" stroke="black" d="M2208.1,-845.04C2275.76,-852.686 2368,-846.673 2368,-827 2368,-808.288 2284.55,-801.934 2218.17,-807.938"/>
<polygon fill="black" stroke="black" points="2217.69,-804.468 2208.1,-808.96 2218.4,-811.432 2217.69,-804.468"/>
<text text-anchor="middle" x="2421" y="-823.3" font-family="Times New Roman,serif" font-size="14.00"> &#160;&#160;swipe(&quot;Right&quot;) &#160;&#160;</text>
</g>
<!-- state_89&#45;&gt;state_89 -->
<g id="edge32" class="edge"><title>state_89&#45;&gt;state_89</title>
<path fill="none" stroke="black" d="M2208.01,-850.336C2306.26,-867.027 2474,-859.249 2474,-827 2474,-795.822 2317.22,-787.516 2218.02,-802.082"/>
<polygon fill="black" stroke="black" points="2217.34,-798.646 2208.01,-803.664 2218.44,-805.56 2217.34,-798.646"/>
<text text-anchor="middle" x="2523.5" y="-823.3" font-family="Times New Roman,serif" font-size="14.00"> &#160;&#160;swipe(&quot;Left&quot;) &#160;&#160;</text>
</g>
<!-- state_89&#45;&gt;state_93 -->
<g id="edge29" class="edge"><title>state_89&#45;&gt;state_93</title>
<path fill="none" stroke="black" d="M2109.03,-681.802C2106.09,-670.674 2103.06,-659.637 2100,-649 2099.24,-646.353 2098.46,-643.686 2097.67,-641.002"/>
<polygon fill="black" stroke="black" points="2100.97,-639.803 2094.75,-631.222 2094.26,-641.805 2100.97,-639.803"/>
<text text-anchor="middle" x="2175" y="-652.8" font-family="Times New Roman,serif" font-size="14.00"> &#160;&#160;longClick(&quot;index=0&quot;) &#160;&#160;</text>
</g>
<!-- state_89&#45;&gt;activity_1 -->
<g id="edge26" class="edge"><title>state_89&#45;&gt;activity_1</title>
<path fill="none" stroke="red" d="M2197.67,-972.271C2195.75,-984.065 2191.17,-995.197 2183,-1005 2154.66,-1039.02 2120.25,-996.2 2085,-1023 1957.93,-1119.6 2060.59,-1257.13 1928,-1346 1887.04,-1373.45 1559.52,-1379.38 1426.18,-1380.65"/>
<polygon fill="red" stroke="red" points="1426.13,-1377.15 1416.16,-1380.74 1426.19,-1384.15 1426.13,-1377.15"/>
<text text-anchor="middle" x="2142.5" y="-1164.3" font-family="Times New Roman,serif" font-size="14.00" fill="red"> &#160;&#160;click(&quot;index=1&quot;) &#160;&#160;</text>
</g>
<!-- state_89&#45;&gt;activity_1 -->
<g id="edge28" class="edge"><title>state_89&#45;&gt;activity_1</title>
<path fill="none" stroke="red" d="M2197.39,-972.18C2198.76,-978.158 2199.98,-984.113 2201,-990 2213.28,-1060.72 2247.4,-1259.1 2200,-1313 2149.01,-1370.98 1605.18,-1379.55 1426.52,-1380.79"/>
<polygon fill="red" stroke="red" points="1426.26,-1377.29 1416.28,-1380.86 1426.3,-1384.29 1426.26,-1377.29"/>
<text text-anchor="middle" x="2281.5" y="-1164.3" font-family="Times New Roman,serif" font-size="14.00" fill="red"> &#160;&#160;click(&quot;index=0&quot;) &#160;&#160;</text>
</g>
<!-- state_89&#45;&gt;activity_1 -->
<g id="edge30" class="edge"><title>state_89&#45;&gt;activity_1</title>
<path fill="none" stroke="red" d="M2208.28,-870.005C2255.56,-904.625 2315.77,-958.43 2343,-1023 2368.04,-1082.38 2384.68,-1263.84 2343,-1313 2285.02,-1381.38 2233.16,-1336.63 2144,-1346 1876.61,-1374.12 1554.92,-1379.66 1426.73,-1380.74"/>
<polygon fill="red" stroke="red" points="1426.35,-1377.25 1416.38,-1380.83 1426.41,-1384.25 1426.35,-1377.25"/>
<text text-anchor="middle" x="2425.5" y="-1164.3" font-family="Times New Roman,serif" font-size="14.00" fill="red"> &#160;&#160;click(&quot;index=1&quot;) &#160;&#160;</text>
</g>
<!-- state_89&#45;&gt;final -->
<g id="edge33" class="edge"><title>state_89&#45;&gt;final</title>
<path fill="none" stroke="red" d="M2077.91,-692.669C2073.54,-688.755 2068.91,-685.17 2064,-682 2020.36,-653.842 1882.38,-671.534 1831,-664 1799.95,-659.447 1792.75,-655.275 1762,-649 1446.91,-584.701 1064.38,-514.525 948.146,-493.374"/>
<polygon fill="red" stroke="red" points="948.514,-489.884 938.049,-491.538 947.261,-496.771 948.514,-489.884"/>
<text text-anchor="middle" x="1893.5" y="-652.8" font-family="Times New Roman,serif" font-size="14.00" fill="red"> &#160;&#160;press(&quot;BackKey&quot;) &#160;&#160;</text>
</g>
<!-- state_93&#45;&gt;state_0 -->
<g id="edge35" class="edge"><title>state_93&#45;&gt;state_0</title>
<path fill="none" stroke="black" d="M2111.46,-486.698C2234.89,-490.118 2500.16,-517.329 2618,-682 2655.5,-734.408 2648.99,-915.495 2618,-972 2597.72,-1008.97 2561.41,-987.931 2538,-1023 2465.34,-1131.84 2576.09,-1217.14 2487,-1313 2342.76,-1468.2 1672.19,-1559.66 1445.28,-1586.59"/>
<polygon fill="black" stroke="black" points="1444.66,-1583.13 1435.14,-1587.78 1445.48,-1590.09 1444.66,-1583.13"/>
<text text-anchor="middle" x="2595.5" y="-1164.3" font-family="Times New Roman,serif" font-size="14.00"> &#160;&#160;click(&quot;index=0&quot;) &#160;&#160;</text>
</g>
<!-- state_93&#45;&gt;state_0 -->
<g id="edge36" class="edge"><title>state_93&#45;&gt;state_0</title>
<path fill="none" stroke="black" d="M2111.18,-494.855C2220.89,-510.353 2446.58,-552.153 2611,-649 2683.08,-691.456 2675,-742.349 2675,-826 2675,-1383 2675,-1383 2675,-1383 2675,-1508.42 1723.76,-1574.21 1445.56,-1590.77"/>
<polygon fill="black" stroke="black" points="1444.94,-1587.3 1435.16,-1591.39 1445.35,-1594.29 1444.94,-1587.3"/>
<text text-anchor="middle" x="2732.5" y="-1164.3" font-family="Times New Roman,serif" font-size="14.00"> &#160;&#160;click(&quot;index=0&quot;) &#160;&#160;</text>
</g>
<!-- state_93&#45;&gt;state_89 -->
<g id="edge39" class="edge"><title>state_93&#45;&gt;state_89</title>
<path fill="none" stroke="black" d="M2111.22,-518.371C2159.4,-545.513 2221.39,-589.743 2250,-649 2269.23,-688.832 2245.18,-731.314 2215.05,-764.672"/>
<polygon fill="black" stroke="black" points="2212.4,-762.384 2208.12,-772.079 2217.51,-767.165 2212.4,-762.384"/>
<text text-anchor="middle" x="2315.5" y="-652.8" font-family="Times New Roman,serif" font-size="14.00"> &#160;&#160;press(&quot;BackKey&quot;) &#160;&#160;</text>
</g>
<!-- state_93&#45;&gt;state_89 -->
<g id="edge40" class="edge"><title>state_93&#45;&gt;state_89</title>
<path fill="none" stroke="black" d="M1980.97,-558.399C1957.54,-592.841 1942.48,-633.25 1968,-664 1995.72,-697.405 2028.85,-656.524 2064,-682 2066.12,-683.537 2068.19,-685.15 2070.21,-686.83"/>
<polygon fill="black" stroke="black" points="2067.99,-689.54 2077.76,-693.632 2072.68,-684.339 2067.99,-689.54"/>
<text text-anchor="middle" x="2032" y="-652.8" font-family="Times New Roman,serif" font-size="14.00"> &#160;&#160;press(&quot;MenuKey&quot;) &#160;&#160;</text>
</g>
<!-- state_93&#45;&gt;state_93 -->
<g id="edge37" class="edge"><title>state_93&#45;&gt;state_93</title>
<path fill="none" stroke="black" d="M2111.07,-500.746C2121.7,-498.635 2129,-493.72 2129,-486 2129,-480.934 2125.86,-477.076 2120.69,-474.425"/>
<polygon fill="black" stroke="black" points="2121.66,-471.061 2111.07,-471.254 2119.47,-477.709 2121.66,-471.061"/>
<text text-anchor="middle" x="2182" y="-482.3" font-family="Times New Roman,serif" font-size="14.00"> &#160;&#160;swipe(&quot;Right&quot;) &#160;&#160;</text>
</g>
<!-- state_93&#45;&gt;state_93 -->
<g id="edge38" class="edge"><title>state_93&#45;&gt;state_93</title>
<path fill="none" stroke="black" d="M2111.11,-514.524C2166.9,-523.648 2235,-514.14 2235,-486 2235,-459.509 2174.65,-449.53 2121.03,-456.064"/>
<polygon fill="black" stroke="black" points="2120.52,-452.601 2111.11,-457.476 2121.51,-459.531 2120.52,-452.601"/>
<text text-anchor="middle" x="2284.5" y="-482.3" font-family="Times New Roman,serif" font-size="14.00"> &#160;&#160;swipe(&quot;Left&quot;) &#160;&#160;</text>
</g>
<!-- state_68 -->
<g id="node7" class="node"><title>state_68</title>
<g id="a_node7"><a xlink:href="68.png" xlink:title="&lt;TABLE&gt;">
<polygon fill="none" stroke="black" points="978,-1313 848,-1313 848,-1023 978,-1023 978,-1313"/>
<text text-anchor="start" x="889.5" y="-1301.8" font-family="Times New Roman,serif" font-size="14.00">state_68</text>
<text text-anchor="start" x="882.5" y="-1286.8" font-family="Times New Roman,serif" font-size="14.00">incoming:1</text>
<text text-anchor="start" x="883.5" y="-1271.8" font-family="Times New Roman,serif" font-size="14.00">outgoing:9</text>
<text text-anchor="start" x="895" y="-1256.8" font-family="Times New Roman,serif" font-size="14.00">loop:0</text>
<image xlink:href="68.png" width="130px" height="230px" preserveAspectRatio="xMinYMin meet" x="848" y="-1253"/>
</a>
</g>
</g>
<!-- state_68&#45;&gt;state_6 -->
<g id="edge49" class="edge"><title>state_68&#45;&gt;state_6</title>
<path fill="none" stroke="black" d="M847.775,-1058.86C835.677,-1045.16 822.044,-1032.61 807,-1023 759.03,-992.365 593.625,-1014.71 556,-972 477.936,-883.391 474.426,-746.837 487.307,-641.175"/>
<polygon fill="black" stroke="black" points="490.805,-641.412 488.602,-631.048 483.861,-640.523 490.805,-641.412"/>
<text text-anchor="middle" x="620" y="-823.3" font-family="Times New Roman,serif" font-size="14.00"> &#160;&#160;press(&quot;MenuKey&quot;) &#160;&#160;</text>
</g>
<!-- state_68&#45;&gt;state_93 -->
<g id="edge44" class="edge"><title>state_68&#45;&gt;state_93</title>
<path fill="none" stroke="black" d="M978.242,-1126.51C1031.85,-1094.69 1110.64,-1051.18 1184,-1023 1271.24,-989.492 1325.46,-1041.45 1388,-972 1475.11,-875.273 1336.92,-774.01 1429,-682 1449.32,-661.696 1529.12,-670.925 1557,-664 1707.79,-626.539 1876.82,-559.459 1971.43,-519.509"/>
<polygon fill="black" stroke="black" points="1973.07,-522.615 1980.91,-515.491 1970.34,-516.17 1973.07,-522.615"/>
<text text-anchor="middle" x="1500" y="-823.3" font-family="Times New Roman,serif" font-size="14.00"> &#160;&#160;longClick(&quot;index=0&quot;) &#160;&#160;</text>
</g>
<!-- state_113 -->
<g id="node8" class="node"><title>state_113</title>
<g id="a_node8"><a xlink:href="113.png" xlink:title="&lt;TABLE&gt;">
<polygon fill="none" stroke="black" points="978,-972 848,-972 848,-682 978,-682 978,-972"/>
<text text-anchor="start" x="886" y="-960.8" font-family="Times New Roman,serif" font-size="14.00">state_113</text>
<text text-anchor="start" x="882.5" y="-945.8" font-family="Times New Roman,serif" font-size="14.00">incoming:6</text>
<text text-anchor="start" x="883.5" y="-930.8" font-family="Times New Roman,serif" font-size="14.00">outgoing:9</text>
<text text-anchor="start" x="895" y="-915.8" font-family="Times New Roman,serif" font-size="14.00">loop:3</text>
<image xlink:href="113.png" width="130px" height="230px" preserveAspectRatio="xMinYMin meet" x="848" y="-912"/>
</a>
</g>
</g>
<!-- state_68&#45;&gt;state_113 -->
<g id="edge42" class="edge"><title>state_68&#45;&gt;state_113</title>
<path fill="none" stroke="black" d="M913,-1022.74C913,-1009.39 913,-995.818 913,-982.376"/>
<polygon fill="black" stroke="black" points="916.5,-982.128 913,-972.128 909.5,-982.128 916.5,-982.128"/>
<text text-anchor="middle" x="984" y="-993.8" font-family="Times New Roman,serif" font-size="14.00"> &#160;&#160;longClick(&quot;index=1&quot;) &#160;&#160;</text>
</g>
<!-- state_68&#45;&gt;state_113 -->
<g id="edge46" class="edge"><title>state_68&#45;&gt;state_113</title>
<path fill="none" stroke="black" d="M978.449,-1128.61C1025.31,-1095.64 1076.75,-1044.87 1056,-990 1041.44,-951.508 1013.1,-916.259 985.467,-888.54"/>
<polygon fill="black" stroke="black" points="987.673,-885.801 978.085,-881.293 982.769,-890.796 987.673,-885.801"/>
<text text-anchor="middle" x="1112" y="-993.8" font-family="Times New Roman,serif" font-size="14.00"> &#160;&#160;swipe(&quot;Right&quot;) &#160;&#160;</text>
</g>
<!-- state_68&#45;&gt;state_113 -->
<g id="edge47" class="edge"><title>state_68&#45;&gt;state_113</title>
<path fill="none" stroke="black" d="M847.925,-1084.39C832.426,-1060.15 818.055,-1032.68 810,-1005 808.137,-998.599 807.019,-995.963 810,-990 815.963,-978.074 825.263,-982.072 834,-972 836.606,-968.996 839.162,-965.892 841.666,-962.708"/>
<polygon fill="black" stroke="black" points="844.531,-964.723 847.784,-954.639 838.953,-960.494 844.531,-964.723"/>
<text text-anchor="middle" x="859.5" y="-993.8" font-family="Times New Roman,serif" font-size="14.00"> &#160;&#160;swipe(&quot;Left&quot;) &#160;&#160;</text>
</g>
<!-- state_68&#45;&gt;activity_1 -->
<g id="edge41" class="edge"><title>state_68&#45;&gt;activity_1</title>
<path fill="none" stroke="red" d="M895.353,-1313.04C899.125,-1325.18 905.098,-1336.44 914,-1346 940.726,-1374.69 1197.72,-1379.94 1313.7,-1380.85"/>
<polygon fill="red" stroke="red" points="1313.78,-1384.35 1323.81,-1380.92 1313.83,-1377.35 1313.78,-1384.35"/>
<text text-anchor="middle" x="971.5" y="-1334.8" font-family="Times New Roman,serif" font-size="14.00" fill="red"> &#160;&#160;click(&quot;index=1&quot;) &#160;&#160;</text>
</g>
<!-- state_68&#45;&gt;activity_1 -->
<g id="edge43" class="edge"><title>state_68&#45;&gt;activity_1</title>
<path fill="none" stroke="red" d="M978.076,-1279.74C998.487,-1305.52 1023.31,-1330.05 1052,-1346 1095.61,-1370.24 1234.66,-1377.7 1313.69,-1379.99"/>
<polygon fill="red" stroke="red" points="1313.87,-1383.49 1323.96,-1380.27 1314.06,-1376.5 1313.87,-1383.49"/>
<text text-anchor="middle" x="1109.5" y="-1334.8" font-family="Times New Roman,serif" font-size="14.00" fill="red"> &#160;&#160;click(&quot;index=0&quot;) &#160;&#160;</text>
</g>
<!-- state_68&#45;&gt;activity_1 -->
<g id="edge45" class="edge"><title>state_68&#45;&gt;activity_1</title>
<path fill="none" stroke="red" d="M978.107,-1210.27C1029.49,-1242.9 1102.94,-1289.68 1167,-1331 1177.26,-1337.61 1178.69,-1341.42 1190,-1346 1230.32,-1362.34 1278.88,-1371.21 1315.4,-1375.92"/>
<polygon fill="red" stroke="red" points="1315.01,-1379.4 1325.36,-1377.15 1315.87,-1372.45 1315.01,-1379.4"/>
<text text-anchor="middle" x="1247.5" y="-1334.8" font-family="Times New Roman,serif" font-size="14.00" fill="red"> &#160;&#160;click(&quot;index=1&quot;) &#160;&#160;</text>
</g>
<!-- state_68&#45;&gt;final -->
<g id="edge48" class="edge"><title>state_68&#45;&gt;final</title>
<path fill="none" stroke="red" d="M847.894,-1066.46C835.389,-1050.9 821.6,-1035.78 807,-1023 771.526,-991.954 738.018,-1012.56 714,-972 681.166,-916.547 678.363,-735.694 714,-682 746.272,-633.376 791.771,-670.206 835,-631 868.401,-600.708 890.353,-552.682 902.223,-520.521"/>
<polygon fill="red" stroke="red" points="905.525,-521.682 905.584,-511.087 898.931,-519.332 905.525,-521.682"/>
<text text-anchor="middle" x="776.5" y="-823.3" font-family="Times New Roman,serif" font-size="14.00" fill="red"> &#160;&#160;press(&quot;BackKey&quot;) &#160;&#160;</text>
</g>
<!-- state_113&#45;&gt;state_6 -->
<g id="edge58" class="edge"><title>state_113&#45;&gt;state_6</title>
<path fill="none" stroke="black" d="M847.989,-695.435C843.575,-690.636 838.915,-686.124 834,-682 814.944,-666.008 803.273,-675.081 781,-664 713.904,-630.619 643.942,-582.332 593.36,-544.623"/>
<polygon fill="black" stroke="black" points="595.197,-541.625 585.096,-538.427 590.998,-547.226 595.197,-541.625"/>
<text text-anchor="middle" x="845" y="-652.8" font-family="Times New Roman,serif" font-size="14.00"> &#160;&#160;press(&quot;MenuKey&quot;) &#160;&#160;</text>
</g>
<!-- state_113&#45;&gt;state_93 -->
<g id="edge53" class="edge"><title>state_113&#45;&gt;state_93</title>
<path fill="none" stroke="black" d="M978.176,-809.581C1072.28,-784.636 1250.45,-732.731 1392,-664 1402.98,-658.67 1403.83,-653.916 1415,-649 1606.06,-564.913 1849.6,-517.869 1970.65,-498.161"/>
<polygon fill="black" stroke="black" points="1971.24,-501.61 1980.56,-496.564 1970.13,-494.699 1971.24,-501.61"/>
<text text-anchor="middle" x="1486" y="-652.8" font-family="Times New Roman,serif" font-size="14.00"> &#160;&#160;longClick(&quot;index=0&quot;) &#160;&#160;</text>
</g>
<!-- state_113&#45;&gt;state_113 -->
<g id="edge51" class="edge"><title>state_113&#45;&gt;state_113</title>
<path fill="none" stroke="black" d="M978.072,-836.831C988.697,-835.423 996,-832.146 996,-827 996,-823.703 993.003,-821.173 988.055,-819.411"/>
<polygon fill="black" stroke="black" points="988.596,-815.945 978.072,-817.169 987.062,-822.775 988.596,-815.945"/>
<text text-anchor="middle" x="1067" y="-823.3" font-family="Times New Roman,serif" font-size="14.00"> &#160;&#160;longClick(&quot;index=1&quot;) &#160;&#160;</text>
</g>
<!-- state_113&#45;&gt;state_113 -->
<g id="edge55" class="edge"><title>state_113&#45;&gt;state_113</title>
<path fill="none" stroke="black" d="M978.098,-845.04C1045.76,-852.686 1138,-846.673 1138,-827 1138,-808.288 1054.55,-801.934 988.171,-807.938"/>
<polygon fill="black" stroke="black" points="987.693,-804.468 978.098,-808.96 988.4,-811.432 987.693,-804.468"/>
<text text-anchor="middle" x="1191" y="-823.3" font-family="Times New Roman,serif" font-size="14.00"> &#160;&#160;swipe(&quot;Right&quot;) &#160;&#160;</text>
</g>
<!-- state_113&#45;&gt;state_113 -->
<g id="edge56" class="edge"><title>state_113&#45;&gt;state_113</title>
<path fill="none" stroke="black" d="M978.011,-850.336C1076.26,-867.027 1244,-859.249 1244,-827 1244,-795.822 1087.22,-787.516 988.019,-802.082"/>
<polygon fill="black" stroke="black" points="987.342,-798.646 978.011,-803.664 988.435,-805.56 987.342,-798.646"/>
<text text-anchor="middle" x="1293.5" y="-823.3" font-family="Times New Roman,serif" font-size="14.00"> &#160;&#160;swipe(&quot;Left&quot;) &#160;&#160;</text>
</g>
<!-- state_113&#45;&gt;activity_1 -->
<g id="edge50" class="edge"><title>state_113&#45;&gt;activity_1</title>
<path fill="none" stroke="red" d="M847.732,-967.266C846.187,-968.886 844.609,-970.465 843,-972 822.178,-991.854 739.838,-998.981 724,-1023 653.048,-1130.6 669.043,-1196.41 724,-1313 733.827,-1333.85 742.544,-1337.59 764,-1346 814.309,-1365.73 1173.04,-1376.31 1313.66,-1379.74"/>
<polygon fill="red" stroke="red" points="1313.71,-1383.24 1323.8,-1379.98 1313.88,-1376.24 1313.71,-1383.24"/>
<text text-anchor="middle" x="781.5" y="-1164.3" font-family="Times New Roman,serif" font-size="14.00" fill="red"> &#160;&#160;click(&quot;index=1&quot;) &#160;&#160;</text>
</g>
<!-- state_113&#45;&gt;activity_1 -->
<g id="edge52" class="edge"><title>state_113&#45;&gt;activity_1</title>
<path fill="none" stroke="red" d="M978.143,-851.75C1037.41,-876.833 1122.52,-922.224 1169,-990 1251.77,-1110.69 1132.1,-1206.99 1233,-1313 1255.74,-1336.89 1275.3,-1316.64 1305,-1331 1319.54,-1338.03 1333.96,-1348.65 1345.51,-1358.3"/>
<polygon fill="red" stroke="red" points="1343.52,-1361.2 1353.38,-1365.09 1348.09,-1355.9 1343.52,-1361.2"/>
<text text-anchor="middle" x="1290.5" y="-1164.3" font-family="Times New Roman,serif" font-size="14.00" fill="red"> &#160;&#160;click(&quot;index=0&quot;) &#160;&#160;</text>
</g>
<!-- state_113&#45;&gt;activity_1 -->
<g id="edge54" class="edge"><title>state_113&#45;&gt;activity_1</title>
<path fill="none" stroke="red" d="M978.322,-836.212C1077.07,-852.455 1261.93,-898.631 1348,-1023 1419.67,-1126.56 1391.83,-1289.92 1376.98,-1353.97"/>
<polygon fill="red" stroke="red" points="1373.57,-1353.17 1374.64,-1363.71 1380.38,-1354.81 1373.57,-1353.17"/>
<text text-anchor="middle" x="1451.5" y="-1164.3" font-family="Times New Roman,serif" font-size="14.00" fill="red"> &#160;&#160;click(&quot;index=1&quot;) &#160;&#160;</text>
</g>
<!-- state_113&#45;&gt;final -->
<g id="edge57" class="edge"><title>state_113&#45;&gt;final</title>
<path fill="none" stroke="red" d="M913,-681.742C913,-622.695 913,-559.468 913,-521.593"/>
<polygon fill="red" stroke="red" points="916.5,-521.146 913,-511.146 909.5,-521.146 916.5,-521.146"/>
<text text-anchor="middle" x="975.5" y="-652.8" font-family="Times New Roman,serif" font-size="14.00" fill="red"> &#160;&#160;press(&quot;BackKey&quot;) &#160;&#160;</text>
</g>
<!-- activity_1&#45;&gt;state_7 -->
<g id="edge60" class="edge"><title>activity_1&#45;&gt;state_7</title>
<path fill="none" stroke="red" d="M1323.84,-1380.86C1151.65,-1379.88 553.716,-1372.19 495,-1313 403.454,-1220.71 522.971,-1135.01 457,-1023 437.647,-990.142 405.173,-1006.05 388,-972 261.173,-720.547 241.103,-534.212 446,-341 571.194,-222.946 1818.04,-162.691 2139.64,-149.037"/>
<polygon fill="red" stroke="red" points="2139.94,-152.527 2149.79,-148.608 2139.65,-145.533 2139.94,-152.527"/>
<text text-anchor="middle" x="436" y="-823.3" font-family="Times New Roman,serif" font-size="14.00" fill="red"> &#160;&#160;click(&quot;大约&quot;) &#160;&#160;</text>
</g>
<!-- activity_1&#45;&gt;state_39 -->
<g id="edge59" class="edge"><title>activity_1&#45;&gt;state_39</title>
<path fill="none" stroke="red" d="M1413.75,-1375.86C1444.37,-1371.06 1485.62,-1362.11 1519,-1346 1519.14,-1345.93 1604.77,-1278.26 1670.1,-1226.62"/>
<polygon fill="red" stroke="red" points="1672.29,-1229.35 1677.96,-1220.41 1667.95,-1223.86 1672.29,-1229.35"/>
<text text-anchor="middle" x="1596.5" y="-1334.8" font-family="Times New Roman,serif" font-size="14.00" fill="red"> &#160;&#160;press(&quot;BackKey&quot;) &#160;&#160;</text>
</g>
<!-- activity_1&#45;&gt;state_68 -->
<g id="edge61" class="edge"><title>activity_1&#45;&gt;state_68</title>
<path fill="none" stroke="red" d="M1323.94,-1380C1187.34,-1376.82 792.8,-1365.94 774,-1346 751.645,-1322.29 800.831,-1318.39 807,-1313 819.103,-1302.43 830.644,-1290.25 841.357,-1277.54"/>
<polygon fill="red" stroke="red" points="844.266,-1279.52 847.918,-1269.57 838.861,-1275.07 844.266,-1279.52"/>
<text text-anchor="middle" x="836.5" y="-1334.8" font-family="Times New Roman,serif" font-size="14.00" fill="red"> &#160;&#160;press(&quot;BackKey&quot;) &#160;&#160;</text>
</g>
</g>
</svg>
