<?xml version="1.0" encoding="UTF-8" standalone="no"?>
<!DOCTYPE svg PUBLIC "-//W3C//DTD SVG 1.1//EN"
 "http://www.w3.org/Graphics/SVG/1.1/DTD/svg11.dtd">
<!-- Generated by graphviz version 2.38.0 (20140413.2041)
 -->
<!-- Title: result Pages: 1 -->
<svg width="612pt" height="840pt"
 viewBox="0.00 0.00 612.00 840.23" xmlns="http://www.w3.org/2000/svg" xmlns:xlink="http://www.w3.org/1999/xlink">
<g id="graph0" class="graph" transform="scale(1 1) rotate(0) translate(4 836.232)">
<title>result</title>
<polygon fill="white" stroke="none" points="-4,4 -4,-836.232 608,-836.232 608,4 -4,4"/>
<!-- initial -->
<g id="node1" class="node"><title>initial</title>
<image xlink:href="-1.png" width="50px" height="50px" preserveAspectRatio="xMinYMin meet" x="0" y="-440.232"/>
</g>
<!-- activity_0 -->
<g id="node2" class="node"><title>activity_0</title>
<g id="a_node2"><a xlink:href="activity_0.svg" xlink:title="&lt;TABLE&gt;">
<polygon fill="none" stroke="black" points="217,-552.732 87,-552.732 87,-277.732 217,-277.732 217,-552.732"/>
<text text-anchor="start" x="124.5" y="-541.032" font-family="Times New Roman,serif" font-size="14.00">activity_0</text>
<text text-anchor="start" x="121.5" y="-526.032" font-family="Times New Roman,serif" font-size="14.00">incoming:3</text>
<text text-anchor="start" x="119" y="-511.032" font-family="Times New Roman,serif" font-size="14.00">outgoing:18</text>
<image xlink:href="0.png" width="130px" height="230px" preserveAspectRatio="xMinYMin meet" x="87" y="-507.232"/>
</a>
</g>
</g>
<!-- initial&#45;&gt;activity_0 -->
<g id="edge1" class="edge"><title>initial&#45;&gt;activity_0</title>
<path fill="none" stroke="black" d="M50.1013,-415.232C57.9994,-415.232 67.2332,-415.232 76.8484,-415.232"/>
<polygon fill="black" stroke="black" points="76.9667,-418.732 86.9666,-415.232 76.9666,-411.732 76.9667,-418.732"/>
</g>
<!-- activity_1 -->
<g id="node3" class="node"><title>activity_1</title>
<g id="a_node3"><a xlink:href="activity_1.svg" xlink:title="&lt;TABLE&gt;">
<polygon fill="none" stroke="black" points="604,-647.732 474,-647.732 474,-372.732 604,-372.732 604,-647.732"/>
<text text-anchor="start" x="511.5" y="-636.032" font-family="Times New Roman,serif" font-size="14.00">activity_1</text>
<text text-anchor="start" x="505" y="-621.032" font-family="Times New Roman,serif" font-size="14.00">incoming:13</text>
<text text-anchor="start" x="509.5" y="-606.032" font-family="Times New Roman,serif" font-size="14.00">outgoing:3</text>
<image xlink:href="2.png" width="130px" height="230px" preserveAspectRatio="xMinYMin meet" x="474" y="-602.232"/>
</a>
</g>
</g>
<!-- activity_0&#45;&gt;activity_1 -->
<g id="edge2" class="edge"><title>activity_0&#45;&gt;activity_1</title>
<path fill="none" stroke="black" d="M166.88,-552.955C178.994,-641.702 200.218,-745.516 235,-773.232 311.817,-834.443 376.882,-831.439 456,-773.232 476.675,-758.022 494.428,-709.334 508.074,-657.915"/>
<polygon fill="black" stroke="black" points="511.537,-658.506 510.661,-647.948 504.761,-656.748 511.537,-658.506"/>
<text text-anchor="middle" x="345.5" y="-821.032" font-family="Times New Roman,serif" font-size="14.00"> &#160;&#160;&lt;a0.s0,click(&quot;index=1&quot;),a1.s2&gt; &#160;&#160;</text>
</g>
<!-- activity_0&#45;&gt;activity_1 -->
<g id="edge7" class="edge"><title>activity_0&#45;&gt;activity_1</title>
<path fill="none" stroke="black" d="M171.333,-553.136C184.547,-628.947 205.324,-712.202 235,-735.232 254.399,-750.287 435.882,-749.313 456,-735.232 482.856,-716.436 500.947,-687.876 513.126,-657.348"/>
<polygon fill="black" stroke="black" points="516.465,-658.412 516.718,-647.82 509.915,-655.942 516.465,-658.412"/>
<text text-anchor="middle" x="345.5" y="-749.032" font-family="Times New Roman,serif" font-size="14.00"> &#160;&#160;&lt;a0.s39,click(&quot;index=1&quot;),a1.s30&gt; &#160;&#160;</text>
</g>
<!-- activity_0&#45;&gt;activity_1 -->
<g id="edge8" class="edge"><title>activity_0&#45;&gt;activity_1</title>
<path fill="none" stroke="black" d="M176.951,-553.111C190.825,-615.23 210.432,-678.791 235,-697.232 254.638,-711.974 435.444,-710.664 456,-697.232 471.775,-686.925 484.534,-672.836 494.85,-656.979"/>
<polygon fill="black" stroke="black" points="498.108,-658.36 500.333,-648.001 492.134,-654.711 498.108,-658.36"/>
<text text-anchor="middle" x="345.5" y="-711.032" font-family="Times New Roman,serif" font-size="14.00"> &#160;&#160;&lt;a0.s39,click(&quot;index=0&quot;),a1.s30&gt; &#160;&#160;</text>
</g>
<!-- activity_0&#45;&gt;activity_1 -->
<g id="edge9" class="edge"><title>activity_0&#45;&gt;activity_1</title>
<path fill="none" stroke="black" d="M168.325,-553.003C180.031,-593.828 200.256,-634.255 235,-659.232 254.938,-673.566 434.861,-671.727 456,-659.232 459.475,-657.178 462.813,-654.918 466.018,-652.481"/>
<polygon fill="black" stroke="black" points="468.27,-655.16 473.715,-646.072 463.791,-649.781 468.27,-655.16"/>
<text text-anchor="middle" x="345.5" y="-673.032" font-family="Times New Roman,serif" font-size="14.00"> &#160;&#160;&lt;a0.s39,click(&quot;index=1&quot;),a1.s2&gt; &#160;&#160;</text>
</g>
<!-- activity_0&#45;&gt;activity_1 -->
<g id="edge11" class="edge"><title>activity_0&#45;&gt;activity_1</title>
<path fill="none" stroke="black" d="M181.582,-552.925C193.614,-579.821 210.709,-604.757 235,-621.232 275.644,-648.799 412.154,-643.354 456,-621.232 459.352,-619.541 462.601,-617.641 465.748,-615.563"/>
<polygon fill="black" stroke="black" points="467.812,-618.39 473.835,-609.673 463.691,-612.731 467.812,-618.39"/>
<text text-anchor="middle" x="345.5" y="-643.032" font-family="Times New Roman,serif" font-size="14.00"> &#160;&#160;&lt;a0.s89,click(&quot;index=1&quot;),a1.s30&gt; &#160;&#160;</text>
</g>
<!-- activity_0&#45;&gt;activity_1 -->
<g id="edge12" class="edge"><title>activity_0&#45;&gt;activity_1</title>
<path fill="none" stroke="black" d="M202.447,-552.941C211.579,-564.831 222.338,-575.323 235,-583.232 276.652,-609.251 410.101,-600.703 456,-583.232 458.934,-582.116 461.829,-580.841 464.679,-579.432"/>
<polygon fill="black" stroke="black" points="466.547,-582.399 473.619,-574.511 463.171,-576.267 466.547,-582.399"/>
<text text-anchor="middle" x="345.5" y="-603.032" font-family="Times New Roman,serif" font-size="14.00"> &#160;&#160;&lt;a0.s89,click(&quot;index=0&quot;),a1.s30&gt; &#160;&#160;</text>
</g>
<!-- activity_0&#45;&gt;activity_1 -->
<g id="edge13" class="edge"><title>activity_0&#45;&gt;activity_1</title>
<path fill="none" stroke="black" d="M217.007,-532.584C222.583,-537.406 228.574,-541.688 235,-545.232 278.004,-568.951 407.885,-555.071 456,-545.232 458.68,-544.684 461.381,-544.045 464.086,-543.33"/>
<polygon fill="black" stroke="black" points="465.28,-546.627 473.878,-540.436 463.296,-539.914 465.28,-546.627"/>
<text text-anchor="middle" x="345.5" y="-562.032" font-family="Times New Roman,serif" font-size="14.00"> &#160;&#160;&lt;a0.s89,click(&quot;index=1&quot;),a1.s2&gt; &#160;&#160;</text>
</g>
<!-- activity_0&#45;&gt;activity_1 -->
<g id="edge15" class="edge"><title>activity_0&#45;&gt;activity_1</title>
<path fill="none" stroke="black" d="M217.158,-496.776C222.81,-500.84 228.766,-504.401 235,-507.232 274.25,-525.06 387.431,-521.291 463.795,-516.27"/>
<polygon fill="black" stroke="black" points="464.108,-519.757 473.848,-515.588 463.634,-512.773 464.108,-519.757"/>
<text text-anchor="middle" x="345.5" y="-524.032" font-family="Times New Roman,serif" font-size="14.00"> &#160;&#160;&lt;a0.s68,click(&quot;index=1&quot;),a1.s59&gt; &#160;&#160;</text>
</g>
<!-- activity_0&#45;&gt;activity_1 -->
<g id="edge16" class="edge"><title>activity_0&#45;&gt;activity_1</title>
<path fill="none" stroke="black" d="M217.275,-461.634C223.093,-464.566 229.042,-467.164 235,-469.232 328.135,-501.556 358.903,-471.171 456,-488.232 458.631,-488.695 461.301,-489.202 463.99,-489.745"/>
<polygon fill="black" stroke="black" points="463.269,-493.17 473.782,-491.855 464.744,-486.327 463.269,-493.17"/>
<text text-anchor="middle" x="345.5" y="-492.032" font-family="Times New Roman,serif" font-size="14.00"> &#160;&#160;&lt;a0.s68,click(&quot;index=0&quot;),a1.s59&gt; &#160;&#160;</text>
</g>
<!-- activity_0&#45;&gt;activity_1 -->
<g id="edge17" class="edge"><title>activity_0&#45;&gt;activity_1</title>
<path fill="none" stroke="black" d="M217.348,-428.463C223.302,-429.483 229.254,-430.427 235,-431.232 332.631,-444.914 363.691,-415.621 456,-450.232 458.88,-451.312 461.748,-452.523 464.593,-453.843"/>
<polygon fill="black" stroke="black" points="463.081,-457 473.583,-458.398 466.244,-450.756 463.081,-457"/>
<text text-anchor="middle" x="345.5" y="-454.032" font-family="Times New Roman,serif" font-size="14.00"> &#160;&#160;&lt;a0.s68,click(&quot;index=1&quot;),a1.s2&gt; &#160;&#160;</text>
</g>
<!-- activity_0&#45;&gt;activity_1 -->
<g id="edge19" class="edge"><title>activity_0&#45;&gt;activity_1</title>
<path fill="none" stroke="black" d="M217.218,-408.195C293.39,-400.952 415.189,-393.167 456,-412.232 459.213,-413.733 462.344,-415.429 465.391,-417.289"/>
<polygon fill="black" stroke="black" points="463.51,-420.242 473.755,-422.941 467.43,-414.442 463.51,-420.242"/>
<text text-anchor="middle" x="345.5" y="-416.032" font-family="Times New Roman,serif" font-size="14.00"> &#160;&#160;&lt;a0.s113,click(&quot;index=1&quot;),a1.s59&gt; &#160;&#160;</text>
</g>
<!-- activity_0&#45;&gt;activity_1 -->
<g id="edge20" class="edge"><title>activity_0&#45;&gt;activity_1</title>
<path fill="none" stroke="black" d="M217.164,-385.889C223.103,-384.011 229.105,-382.406 235,-381.232 331.331,-362.053 369.91,-333.945 456,-381.232 459.398,-383.099 462.675,-385.172 465.835,-387.423"/>
<polygon fill="black" stroke="black" points="463.897,-390.352 473.923,-393.776 468.22,-384.847 463.897,-390.352"/>
<text text-anchor="middle" x="345.5" y="-385.032" font-family="Times New Roman,serif" font-size="14.00"> &#160;&#160;&lt;a0.s113,click(&quot;index=0&quot;),a1.s59&gt; &#160;&#160;</text>
</g>
<!-- activity_0&#45;&gt;activity_1 -->
<g id="edge21" class="edge"><title>activity_0&#45;&gt;activity_1</title>
<path fill="none" stroke="black" d="M217.237,-345.55C222.92,-341.891 228.858,-338.709 235,-336.232 280.546,-317.862 414.527,-309.929 456,-336.232 467.8,-343.716 477.934,-353.403 486.63,-364.371"/>
<polygon fill="black" stroke="black" points="483.944,-366.624 492.712,-372.571 489.566,-362.454 483.944,-366.624"/>
<text text-anchor="middle" x="345.5" y="-340.032" font-family="Times New Roman,serif" font-size="14.00"> &#160;&#160;&lt;a0.s113,click(&quot;index=1&quot;),a1.s2&gt; &#160;&#160;</text>
</g>
<!-- final -->
<g id="node4" class="node"><title>final</title>
<image xlink:href="-2.png" width="50px" height="50px" preserveAspectRatio="xMinYMin meet" x="514" y="-136.232"/>
</g>
<!-- activity_0&#45;&gt;final -->
<g id="edge3" class="edge"><title>activity_0&#45;&gt;final</title>
<path fill="none" stroke="black" d="M178.859,-277.702C190.991,-246.362 208.815,-216.169 235,-195.232 312.419,-133.332 363.184,-200.024 456,-165.232 473.612,-158.63 491.276,-147.687 505.675,-137.372"/>
<polygon fill="black" stroke="black" points="507.786,-140.164 513.751,-131.408 503.627,-134.533 507.786,-140.164"/>
<text text-anchor="middle" x="345.5" y="-199.032" font-family="Times New Roman,serif" font-size="14.00"> &#160;&#160;&lt;a0.s0,press(&quot;BackKey&quot;),final&gt; &#160;&#160;</text>
</g>
<!-- activity_0&#45;&gt;final -->
<g id="edge10" class="edge"><title>activity_0&#45;&gt;final</title>
<path fill="none" stroke="black" d="M163.572,-277.479C174.494,-228.8 195.434,-178.25 235,-146.232 273.318,-115.225 407.185,-134.073 456,-127.232 471.72,-125.029 488.985,-121.786 503.601,-118.794"/>
<polygon fill="black" stroke="black" points="504.644,-122.152 513.716,-116.679 503.211,-115.3 504.644,-122.152"/>
<text text-anchor="middle" x="345.5" y="-150.032" font-family="Times New Roman,serif" font-size="14.00"> &#160;&#160;&lt;a0.s39,press(&quot;BackKey&quot;),final&gt; &#160;&#160;</text>
</g>
<!-- activity_0&#45;&gt;final -->
<g id="edge14" class="edge"><title>activity_0&#45;&gt;final</title>
<path fill="none" stroke="black" d="M173.077,-277.443C186.578,-206.187 207.052,-129.695 235,-108.232 276.075,-76.6887 433.202,-95.4408 503.57,-105.782"/>
<polygon fill="black" stroke="black" points="503.285,-109.278 513.693,-107.3 504.323,-102.355 503.285,-109.278"/>
<text text-anchor="middle" x="345.5" y="-112.032" font-family="Times New Roman,serif" font-size="14.00"> &#160;&#160;&lt;a0.s89,press(&quot;BackKey&quot;),final&gt; &#160;&#160;</text>
</g>
<!-- activity_0&#45;&gt;final -->
<g id="edge18" class="edge"><title>activity_0&#45;&gt;final</title>
<path fill="none" stroke="black" d="M168.478,-277.712C181.062,-193.916 202.196,-98.1182 235,-72.2323 273.553,-41.8095 408.094,-61.4203 456,-72.2323 472.903,-76.0472 490.409,-83.7764 504.883,-91.3551"/>
<polygon fill="black" stroke="black" points="503.463,-94.5671 513.92,-96.271 506.808,-88.418 503.463,-94.5671"/>
<text text-anchor="middle" x="345.5" y="-76.0323" font-family="Times New Roman,serif" font-size="14.00"> &#160;&#160;&lt;a0.s68,press(&quot;BackKey&quot;),final&gt; &#160;&#160;</text>
</g>
<!-- activity_0&#45;&gt;final -->
<g id="edge22" class="edge"><title>activity_0&#45;&gt;final</title>
<path fill="none" stroke="black" d="M164.919,-277.418C176.343,-182.185 197.558,-67.4226 235,-37.2323 311.462,24.4212 364.321,-1.98116 456,-37.2323 477.842,-45.6306 497.493,-62.8372 512.079,-78.5461"/>
<polygon fill="black" stroke="black" points="509.548,-80.9661 518.82,-86.0922 514.768,-76.3027 509.548,-80.9661"/>
<text text-anchor="middle" x="345.5" y="-41.0323" font-family="Times New Roman,serif" font-size="14.00"> &#160;&#160;&lt;a0.s113,press(&quot;BackKey&quot;),final&gt; &#160;&#160;</text>
</g>
<!-- activity_1&#45;&gt;activity_0 -->
<g id="edge4" class="edge"><title>activity_1&#45;&gt;activity_0</title>
<path fill="none" stroke="black" d="M510.266,-372.568C498.195,-344.9 480.868,-319.159 456,-302.232 415.401,-274.598 278.752,-279.924 235,-302.232 231.616,-303.958 228.339,-305.896 225.168,-308.013"/>
<polygon fill="black" stroke="black" points="222.997,-305.265 217.024,-314.016 227.151,-310.9 222.997,-305.265"/>
<text text-anchor="middle" x="345.5" y="-306.032" font-family="Times New Roman,serif" font-size="14.00"> &#160;&#160;&lt;a1.s30,press(&quot;BackKey&quot;),a0.s39&gt; &#160;&#160;</text>
</g>
<!-- activity_1&#45;&gt;activity_0 -->
<g id="edge5" class="edge"><title>activity_1&#45;&gt;activity_0</title>
<path fill="none" stroke="black" d="M523.303,-372.649C511.673,-331.054 491.334,-289.7 456,-264.232 416.159,-235.517 277.207,-239.124 235,-264.232 231.495,-266.318 228.13,-268.611 224.901,-271.084"/>
<polygon fill="black" stroke="black" points="222.563,-268.477 217.151,-277.585 227.061,-273.84 222.563,-268.477"/>
<text text-anchor="middle" x="345.5" y="-268.032" font-family="Times New Roman,serif" font-size="14.00"> &#160;&#160;&lt;a1.s40,click(&quot;大约&quot;),a0.s7&gt; &#160;&#160;</text>
</g>
<!-- activity_1&#45;&gt;activity_0 -->
<g id="edge6" class="edge"><title>activity_1&#45;&gt;activity_0</title>
<path fill="none" stroke="black" d="M514.718,-372.38C500.885,-308.768 481.112,-243.156 456,-224.232 436.389,-209.454 255.504,-210.721 235,-224.232 217.909,-235.494 204.366,-251.142 193.638,-268.678"/>
<polygon fill="black" stroke="black" points="190.556,-267.016 188.595,-277.428 196.621,-270.512 190.556,-267.016"/>
<text text-anchor="middle" x="345.5" y="-228.032" font-family="Times New Roman,serif" font-size="14.00"> &#160;&#160;&lt;a1.s59,press(&quot;BackKey&quot;),a0.s68&gt; &#160;&#160;</text>
</g>
</g>
</svg>
