<?xml version="1.0" encoding="UTF-8" standalone="no"?>
<!DOCTYPE svg PUBLIC "-//W3C//DTD SVG 1.1//EN"
 "http://www.w3.org/Graphics/SVG/1.1/DTD/svg11.dtd">
<!-- Generated by graphviz version 2.38.0 (20140413.2041)
 -->
<!-- Title: g Pages: 1 -->
<svg width="3295pt" height="2228pt"
 viewBox="0.00 0.00 3294.95 2228.00" xmlns="http://www.w3.org/2000/svg" xmlns:xlink="http://www.w3.org/1999/xlink">
<g id="graph0" class="graph" transform="scale(1 1) rotate(0) translate(4 2224)">
<title>g</title>
<polygon fill="white" stroke="none" points="-4,4 -4,-2224 3290.95,-2224 3290.95,4 -4,4"/>
<text text-anchor="middle" x="1643.47" y="-7.8" font-family="Times New Roman,serif" font-size="14.00"> &#160;&#160;activity_1 &#160;&#160;</text>
<!-- state_0 -->
<g id="node1" class="node"><title>state_0</title>
<g id="a_node1"><a xlink:href="0.png">
<polygon fill="none" stroke="black" points="2867.95,-2220 2737.95,-2220 2737.95,-1990 2867.95,-1990 2867.95,-2220"/>
<image xlink:href="0.png" width="130px" height="230px" preserveAspectRatio="xMinYMin meet" x="2737.95" y="-2220"/>
</a>
</g>
</g>
<!-- state_2 -->
<g id="node2" class="node"><title>state_2</title>
<g id="a_node2"><a xlink:href="2.png">
<polygon fill="none" stroke="black" points="2329.95,-1939 2199.95,-1939 2199.95,-1709 2329.95,-1709 2329.95,-1939"/>
<image xlink:href="2.png" width="130px" height="230px" preserveAspectRatio="xMinYMin meet" x="2199.95" y="-1939"/>
</a>
</g>
</g>
<!-- state_0&#45;&gt;state_2 -->
<g id="edge2" class="edge"><title>state_0&#45;&gt;state_2</title>
<path fill="none" stroke="black" d="M2737.68,-2080.73C2672.82,-2056.66 2571.27,-2016.42 2487.95,-1972 2436.16,-1944.39 2381.07,-1908.15 2338.61,-1878.56"/>
<polygon fill="black" stroke="black" points="2340.49,-1875.61 2330.29,-1872.74 2336.47,-1881.34 2340.49,-1875.61"/>
<text text-anchor="middle" x="2545.45" y="-1960.8" font-family="Times New Roman,serif" font-size="14.00"> &#160;&#160;click(&quot;index=1&quot;) &#160;&#160;</text>
</g>
<!-- state_final -->
<g id="node8" class="node"><title>state_final</title>
<g id="a_node8"><a xlink:href="-2.png">
<polygon fill="none" stroke="black" points="1581.95,-253 1451.95,-253 1451.95,-23 1581.95,-23 1581.95,-253"/>
<image xlink:href="-2.png" width="76px" height="74px" preserveAspectRatio="xMinYMin meet" x="1478.95" y="-175"/>
</a>
</g>
</g>
<!-- state_0&#45;&gt;state_final -->
<g id="edge7" class="edge"><title>state_0&#45;&gt;state_final</title>
<path fill="none" stroke="black" d="M2737.87,-2056.58C2702.03,-2026.89 2660.05,-1985.5 2635.95,-1939 2612.3,-1893.4 2616.95,-1876.37 2616.95,-1825 2616.95,-1825 2616.95,-1825 2616.95,-418 2616.95,-206.064 1840.04,-153.3 1592.06,-141.856"/>
<polygon fill="black" stroke="black" points="1592.2,-138.359 1582.06,-141.404 1591.89,-145.352 1592.2,-138.359"/>
<text text-anchor="middle" x="2679.45" y="-1117.8" font-family="Times New Roman,serif" font-size="14.00"> &#160;&#160;press(&quot;BackKey&quot;) &#160;&#160;</text>
</g>
<!-- state_1 -->
<g id="node9" class="node"><title>state_1</title>
<ellipse fill="none" stroke="black" cx="2680.95" cy="-1824" rx="36.2938" ry="18"/>
<text text-anchor="middle" x="2680.95" y="-1820.3" font-family="Times New Roman,serif" font-size="14.00">state_1</text>
</g>
<!-- state_0&#45;&gt;state_1 -->
<g id="edge1" class="edge"><title>state_0&#45;&gt;state_1</title>
<path fill="none" stroke="black" d="M2737.83,-2049.61C2716.57,-2027.9 2695.48,-2001.12 2683.95,-1972 2668.38,-1932.68 2671.7,-1882.7 2675.99,-1852.31"/>
<polygon fill="black" stroke="black" points="2679.5,-1852.48 2677.58,-1842.06 2672.59,-1851.41 2679.5,-1852.48"/>
<text text-anchor="middle" x="2741.45" y="-1960.8" font-family="Times New Roman,serif" font-size="14.00"> &#160;&#160;click(&quot;index=1&quot;) &#160;&#160;</text>
</g>
<!-- state_17 -->
<g id="node10" class="node"><title>state_17</title>
<ellipse fill="none" stroke="black" cx="2802.95" cy="-1824" rx="40.8928" ry="18"/>
<text text-anchor="middle" x="2802.95" y="-1820.3" font-family="Times New Roman,serif" font-size="14.00">state_17</text>
</g>
<!-- state_0&#45;&gt;state_17 -->
<g id="edge3" class="edge"><title>state_0&#45;&gt;state_17</title>
<path fill="none" stroke="black" d="M2802.95,-1989.72C2802.95,-1939.37 2802.95,-1884.49 2802.95,-1852.5"/>
<polygon fill="black" stroke="black" points="2806.45,-1852.18 2802.95,-1842.18 2799.45,-1852.18 2806.45,-1852.18"/>
<text text-anchor="middle" x="2860.45" y="-1960.8" font-family="Times New Roman,serif" font-size="14.00"> &#160;&#160;click(&quot;index=3&quot;) &#160;&#160;</text>
</g>
<!-- state_18 -->
<g id="node11" class="node"><title>state_18</title>
<ellipse fill="none" stroke="black" cx="2940.95" cy="-1824" rx="40.8928" ry="18"/>
<text text-anchor="middle" x="2940.95" y="-1820.3" font-family="Times New Roman,serif" font-size="14.00">state_18</text>
</g>
<!-- state_0&#45;&gt;state_18 -->
<g id="edge4" class="edge"><title>state_0&#45;&gt;state_18</title>
<path fill="none" stroke="black" d="M2868.09,-2044.56C2887.42,-2023.5 2906.67,-1998.42 2918.95,-1972 2936.95,-1933.23 2940.87,-1883.08 2941.39,-1852.52"/>
<polygon fill="black" stroke="black" points="2944.89,-1852.22 2941.45,-1842.2 2937.89,-1852.18 2944.89,-1852.22"/>
<text text-anchor="middle" x="2978.95" y="-1960.8" font-family="Times New Roman,serif" font-size="14.00"> &#160;&#160;swipe(&quot;Right&quot;) &#160;&#160;</text>
</g>
<!-- state_19 -->
<g id="node12" class="node"><title>state_19</title>
<ellipse fill="none" stroke="black" cx="3069.95" cy="-1824" rx="40.8928" ry="18"/>
<text text-anchor="middle" x="3069.95" y="-1820.3" font-family="Times New Roman,serif" font-size="14.00">state_19</text>
</g>
<!-- state_0&#45;&gt;state_19 -->
<g id="edge5" class="edge"><title>state_0&#45;&gt;state_19</title>
<path fill="none" stroke="black" d="M2867.98,-2083.69C2921.16,-2063.71 2994.16,-2027.97 3035.95,-1972 3062.3,-1936.7 3068.7,-1884.34 3069.99,-1852.57"/>
<polygon fill="black" stroke="black" points="3073.5,-1852.34 3070.26,-1842.25 3066.5,-1852.16 3073.5,-1852.34"/>
<text text-anchor="middle" x="3094.45" y="-1960.8" font-family="Times New Roman,serif" font-size="14.00"> &#160;&#160;swipe(&quot;Left&quot;) &#160;&#160;</text>
</g>
<!-- state_21 -->
<g id="node13" class="node"><title>state_21</title>
<ellipse fill="none" stroke="black" cx="3191.95" cy="-1824" rx="40.8928" ry="18"/>
<text text-anchor="middle" x="3191.95" y="-1820.3" font-family="Times New Roman,serif" font-size="14.00">state_21</text>
</g>
<!-- state_0&#45;&gt;state_21 -->
<g id="edge6" class="edge"><title>state_0&#45;&gt;state_21</title>
<path fill="none" stroke="black" d="M2868.14,-2096.43C2945.61,-2083.99 3073.68,-2052.03 3147.95,-1972 3178.72,-1938.84 3188.03,-1885 3190.81,-1852.5"/>
<polygon fill="black" stroke="black" points="3194.31,-1852.57 3191.52,-1842.35 3187.33,-1852.08 3194.31,-1852.57"/>
<text text-anchor="middle" x="3222.95" y="-1960.8" font-family="Times New Roman,serif" font-size="14.00"> &#160;&#160;press(&quot;MenuKey&quot;) &#160;&#160;</text>
</g>
<!-- state_3 -->
<g id="node3" class="node"><title>state_3</title>
<g id="a_node3"><a xlink:href="3.png">
<polygon fill="none" stroke="black" points="2018.95,-1658 1888.95,-1658 1888.95,-1428 2018.95,-1428 2018.95,-1658"/>
<image xlink:href="3.png" width="130px" height="230px" preserveAspectRatio="xMinYMin meet" x="1888.95" y="-1658"/>
</a>
</g>
</g>
<!-- state_2&#45;&gt;state_3 -->
<g id="edge8" class="edge"><title>state_2&#45;&gt;state_3</title>
<path fill="none" stroke="black" d="M2199.92,-1808.39C2137.47,-1790.98 2045.01,-1755.73 1991.95,-1691 1986.06,-1683.81 1981.07,-1675.82 1976.84,-1667.38"/>
<polygon fill="black" stroke="black" points="1979.91,-1665.68 1972.55,-1658.06 1973.55,-1668.6 1979.91,-1665.68"/>
<text text-anchor="middle" x="2037.45" y="-1679.8" font-family="Times New Roman,serif" font-size="14.00"> &#160;&#160;click(&quot;OK&quot;) &#160;&#160;</text>
</g>
<!-- state_22 -->
<g id="node14" class="node"><title>state_22</title>
<ellipse fill="none" stroke="black" cx="2077.95" cy="-1543" rx="40.8928" ry="18"/>
<text text-anchor="middle" x="2077.95" y="-1539.3" font-family="Times New Roman,serif" font-size="14.00">state_22</text>
</g>
<!-- state_2&#45;&gt;state_22 -->
<g id="edge9" class="edge"><title>state_2&#45;&gt;state_22</title>
<path fill="none" stroke="black" d="M2199.59,-1790.38C2161.79,-1767.87 2117.07,-1734.22 2092.95,-1691 2072.04,-1653.53 2072.05,-1602.26 2074.57,-1571.23"/>
<polygon fill="black" stroke="black" points="2078.06,-1571.44 2075.53,-1561.15 2071.1,-1570.77 2078.06,-1571.44"/>
<text text-anchor="middle" x="2145.95" y="-1679.8" font-family="Times New Roman,serif" font-size="14.00"> &#160;&#160;swipe(&quot;Right&quot;) &#160;&#160;</text>
</g>
<!-- state_23 -->
<g id="node15" class="node"><title>state_23</title>
<ellipse fill="none" stroke="black" cx="2203.95" cy="-1543" rx="40.8928" ry="18"/>
<text text-anchor="middle" x="2203.95" y="-1539.3" font-family="Times New Roman,serif" font-size="14.00">state_23</text>
</g>
<!-- state_2&#45;&gt;state_23 -->
<g id="edge10" class="edge"><title>state_2&#45;&gt;state_23</title>
<path fill="none" stroke="black" d="M2209.63,-1708.8C2207.83,-1702.85 2206.25,-1696.9 2204.95,-1691 2195.9,-1649.93 2198.09,-1600.84 2200.79,-1571.06"/>
<polygon fill="black" stroke="black" points="2204.28,-1571.31 2201.79,-1561.01 2197.32,-1570.61 2204.28,-1571.31"/>
<text text-anchor="middle" x="2254.45" y="-1679.8" font-family="Times New Roman,serif" font-size="14.00"> &#160;&#160;swipe(&quot;Left&quot;) &#160;&#160;</text>
</g>
<!-- state_24 -->
<g id="node16" class="node"><title>state_24</title>
<ellipse fill="none" stroke="black" cx="2325.95" cy="-1543" rx="40.8928" ry="18"/>
<text text-anchor="middle" x="2325.95" y="-1539.3" font-family="Times New Roman,serif" font-size="14.00">state_24</text>
</g>
<!-- state_2&#45;&gt;state_24 -->
<g id="edge11" class="edge"><title>state_2&#45;&gt;state_24</title>
<path fill="none" stroke="black" d="M2299.75,-1708.78C2301.24,-1702.79 2302.65,-1696.83 2303.95,-1691 2313.09,-1649.71 2319.54,-1601.05 2323,-1571.37"/>
<polygon fill="black" stroke="black" points="2326.49,-1571.67 2324.14,-1561.34 2319.53,-1570.88 2326.49,-1571.67"/>
<text text-anchor="middle" x="2369.45" y="-1679.8" font-family="Times New Roman,serif" font-size="14.00"> &#160;&#160;press(&quot;BackKey&quot;) &#160;&#160;</text>
</g>
<!-- state_25 -->
<g id="node17" class="node"><title>state_25</title>
<ellipse fill="none" stroke="black" cx="2473.95" cy="-1543" rx="40.8928" ry="18"/>
<text text-anchor="middle" x="2473.95" y="-1539.3" font-family="Times New Roman,serif" font-size="14.00">state_25</text>
</g>
<!-- state_2&#45;&gt;state_25 -->
<g id="edge12" class="edge"><title>state_2&#45;&gt;state_25</title>
<path fill="none" stroke="black" d="M2330.2,-1787.32C2366.43,-1764.33 2409.41,-1731.23 2435.95,-1691 2460.23,-1654.19 2469,-1602.72 2472.17,-1571.47"/>
<polygon fill="black" stroke="black" points="2475.67,-1571.58 2473.07,-1561.31 2468.7,-1570.96 2475.67,-1571.58"/>
<text text-anchor="middle" x="2508.95" y="-1679.8" font-family="Times New Roman,serif" font-size="14.00"> &#160;&#160;press(&quot;MenuKey&quot;) &#160;&#160;</text>
</g>
<!-- state_5 -->
<g id="node4" class="node"><title>state_5</title>
<g id="a_node4"><a xlink:href="5.png">
<polygon fill="none" stroke="black" points="1568.95,-1377 1438.95,-1377 1438.95,-1147 1568.95,-1147 1568.95,-1377"/>
<image xlink:href="5.png" width="130px" height="230px" preserveAspectRatio="xMinYMin meet" x="1438.95" y="-1377"/>
</a>
</g>
</g>
<!-- state_3&#45;&gt;state_5 -->
<g id="edge14" class="edge"><title>state_3&#45;&gt;state_5</title>
<path fill="none" stroke="black" d="M1888.51,-1501.43C1805.91,-1450.22 1664.19,-1362.35 1577.8,-1308.79"/>
<polygon fill="black" stroke="black" points="1579.44,-1305.69 1569.09,-1303.39 1575.75,-1311.64 1579.44,-1305.69"/>
<text text-anchor="middle" x="1786.45" y="-1398.8" font-family="Times New Roman,serif" font-size="14.00"> &#160;&#160;click(&quot;index=0&quot;) &#160;&#160;</text>
</g>
<!-- state_3&#45;&gt;state_final -->
<g id="edge18" class="edge"><title>state_3&#45;&gt;state_final</title>
<path fill="none" stroke="black" d="M1934.32,-1428C1927.23,-1377.59 1920.95,-1317.51 1920.95,-1263 1920.95,-1263 1920.95,-1263 1920.95,-418 1920.95,-260.012 1709.17,-184.544 1592.28,-154.922"/>
<polygon fill="black" stroke="black" points="1592.85,-151.459 1582.3,-152.448 1591.17,-158.253 1592.85,-151.459"/>
<text text-anchor="middle" x="1983.45" y="-836.8" font-family="Times New Roman,serif" font-size="14.00"> &#160;&#160;press(&quot;BackKey&quot;) &#160;&#160;</text>
</g>
<!-- state_4 -->
<g id="node18" class="node"><title>state_4</title>
<ellipse fill="none" stroke="black" cx="1984.95" cy="-1262" rx="36.2938" ry="18"/>
<text text-anchor="middle" x="1984.95" y="-1258.3" font-family="Times New Roman,serif" font-size="14.00">state_4</text>
</g>
<!-- state_3&#45;&gt;state_4 -->
<g id="edge13" class="edge"><title>state_3&#45;&gt;state_4</title>
<path fill="none" stroke="black" d="M1952.29,-1427.89C1952.86,-1416.76 1953.71,-1405.65 1954.95,-1395 1959.24,-1357.9 1969.76,-1316 1977.13,-1289.55"/>
<polygon fill="black" stroke="black" points="1980.51,-1290.46 1979.87,-1279.88 1973.77,-1288.55 1980.51,-1290.46"/>
<text text-anchor="middle" x="2012.45" y="-1398.8" font-family="Times New Roman,serif" font-size="14.00"> &#160;&#160;click(&quot;index=1&quot;) &#160;&#160;</text>
</g>
<!-- state_26 -->
<g id="node19" class="node"><title>state_26</title>
<ellipse fill="none" stroke="black" cx="2091.95" cy="-1262" rx="40.8928" ry="18"/>
<text text-anchor="middle" x="2091.95" y="-1258.3" font-family="Times New Roman,serif" font-size="14.00">state_26</text>
</g>
<!-- state_3&#45;&gt;state_26 -->
<g id="edge15" class="edge"><title>state_3&#45;&gt;state_26</title>
<path fill="none" stroke="black" d="M2018.99,-1436.2C2021.89,-1433.33 2024.88,-1430.58 2027.95,-1428 2043.48,-1414.92 2057.54,-1426.08 2069.95,-1410 2096.72,-1375.31 2097.65,-1321.96 2095.25,-1289.97"/>
<polygon fill="black" stroke="black" points="2098.73,-1289.64 2094.34,-1280 2091.76,-1290.28 2098.73,-1289.64"/>
<text text-anchor="middle" x="2131.95" y="-1398.8" font-family="Times New Roman,serif" font-size="14.00"> &#160;&#160;swipe(&quot;Right&quot;) &#160;&#160;</text>
</g>
<!-- state_27 -->
<g id="node20" class="node"><title>state_27</title>
<ellipse fill="none" stroke="black" cx="2220.95" cy="-1262" rx="40.8928" ry="18"/>
<text text-anchor="middle" x="2220.95" y="-1258.3" font-family="Times New Roman,serif" font-size="14.00">state_27</text>
</g>
<!-- state_3&#45;&gt;state_27 -->
<g id="edge16" class="edge"><title>state_3&#45;&gt;state_27</title>
<path fill="none" stroke="black" d="M2019.21,-1434.07C2022.02,-1431.89 2024.93,-1429.86 2027.95,-1428 2058.58,-1409.09 2162.21,-1434.11 2188.95,-1410 2222.37,-1379.85 2225.3,-1323.67 2223.64,-1290.17"/>
<polygon fill="black" stroke="black" points="2227.13,-1289.9 2222.97,-1280.16 2220.14,-1290.37 2227.13,-1289.9"/>
<text text-anchor="middle" x="2251.45" y="-1398.8" font-family="Times New Roman,serif" font-size="14.00"> &#160;&#160;swipe(&quot;Left&quot;) &#160;&#160;</text>
</g>
<!-- state_29 -->
<g id="node21" class="node"><title>state_29</title>
<ellipse fill="none" stroke="black" cx="2342.95" cy="-1262" rx="40.8928" ry="18"/>
<text text-anchor="middle" x="2342.95" y="-1258.3" font-family="Times New Roman,serif" font-size="14.00">state_29</text>
</g>
<!-- state_3&#45;&gt;state_29 -->
<g id="edge17" class="edge"><title>state_3&#45;&gt;state_29</title>
<path fill="none" stroke="black" d="M2019.09,-1433.89C2021.94,-1431.76 2024.89,-1429.79 2027.95,-1428 2081.17,-1396.82 2257.43,-1449.33 2304.95,-1410 2339.95,-1381.03 2345.04,-1324.44 2344.64,-1290.55"/>
<polygon fill="black" stroke="black" points="2348.13,-1290.3 2344.34,-1280.41 2341.13,-1290.51 2348.13,-1290.3"/>
<text text-anchor="middle" x="2382.95" y="-1398.8" font-family="Times New Roman,serif" font-size="14.00"> &#160;&#160;press(&quot;MenuKey&quot;) &#160;&#160;</text>
</g>
<!-- state_6 -->
<g id="node5" class="node"><title>state_6</title>
<g id="a_node5"><a xlink:href="6.png">
<polygon fill="none" stroke="black" points="1211.95,-1096 1081.95,-1096 1081.95,-866 1211.95,-866 1211.95,-1096"/>
<image xlink:href="6.png" width="130px" height="230px" preserveAspectRatio="xMinYMin meet" x="1081.95" y="-1096"/>
</a>
</g>
</g>
<!-- state_5&#45;&gt;state_6 -->
<g id="edge19" class="edge"><title>state_5&#45;&gt;state_6</title>
<path fill="none" stroke="black" d="M1438.63,-1250C1368.35,-1234.82 1257.94,-1200.71 1192.95,-1129 1186.48,-1121.87 1180.93,-1113.84 1176.15,-1105.3"/>
<polygon fill="black" stroke="black" points="1179.16,-1103.5 1171.45,-1096.23 1172.95,-1106.72 1179.16,-1103.5"/>
<text text-anchor="middle" x="1234.45" y="-1117.8" font-family="Times New Roman,serif" font-size="14.00"> &#160;&#160;click(&quot;行&quot;) &#160;&#160;</text>
</g>
<!-- state_31 -->
<g id="node22" class="node"><title>state_31</title>
<ellipse fill="none" stroke="black" cx="1270.95" cy="-981" rx="40.8928" ry="18"/>
<text text-anchor="middle" x="1270.95" y="-977.3" font-family="Times New Roman,serif" font-size="14.00">state_31</text>
</g>
<!-- state_5&#45;&gt;state_31 -->
<g id="edge20" class="edge"><title>state_5&#45;&gt;state_31</title>
<path fill="none" stroke="black" d="M1438.86,-1239.54C1388.57,-1219.35 1321.85,-1183.89 1286.95,-1129 1263.78,-1092.57 1264.15,-1040.57 1267.12,-1009.17"/>
<polygon fill="black" stroke="black" points="1270.63,-1009.31 1268.25,-998.985 1263.67,-1008.54 1270.63,-1009.31"/>
<text text-anchor="middle" x="1339.95" y="-1117.8" font-family="Times New Roman,serif" font-size="14.00"> &#160;&#160;swipe(&quot;Right&quot;) &#160;&#160;</text>
</g>
<!-- state_32 -->
<g id="node23" class="node"><title>state_32</title>
<ellipse fill="none" stroke="black" cx="1381.95" cy="-981" rx="40.8928" ry="18"/>
<text text-anchor="middle" x="1381.95" y="-977.3" font-family="Times New Roman,serif" font-size="14.00">state_32</text>
</g>
<!-- state_5&#45;&gt;state_32 -->
<g id="edge21" class="edge"><title>state_5&#45;&gt;state_32</title>
<path fill="none" stroke="black" d="M1438.88,-1191.78C1424.17,-1172.7 1410.19,-1151.13 1400.95,-1129 1384.52,-1089.66 1381.4,-1039.68 1381.24,-1009.3"/>
<polygon fill="black" stroke="black" points="1384.74,-1009.07 1381.29,-999.055 1377.74,-1009.04 1384.74,-1009.07"/>
<text text-anchor="middle" x="1450.45" y="-1117.8" font-family="Times New Roman,serif" font-size="14.00"> &#160;&#160;swipe(&quot;Left&quot;) &#160;&#160;</text>
</g>
<!-- state_33 -->
<g id="node24" class="node"><title>state_33</title>
<ellipse fill="none" stroke="black" cx="1503.95" cy="-981" rx="40.8928" ry="18"/>
<text text-anchor="middle" x="1503.95" y="-977.3" font-family="Times New Roman,serif" font-size="14.00">state_33</text>
</g>
<!-- state_5&#45;&gt;state_33 -->
<g id="edge22" class="edge"><title>state_5&#45;&gt;state_33</title>
<path fill="none" stroke="black" d="M1503.95,-1146.72C1503.95,-1096.37 1503.95,-1041.49 1503.95,-1009.5"/>
<polygon fill="black" stroke="black" points="1507.45,-1009.18 1503.95,-999.181 1500.45,-1009.18 1507.45,-1009.18"/>
<text text-anchor="middle" x="1566.45" y="-1117.8" font-family="Times New Roman,serif" font-size="14.00"> &#160;&#160;press(&quot;BackKey&quot;) &#160;&#160;</text>
</g>
<!-- state_34 -->
<g id="node25" class="node"><title>state_34</title>
<ellipse fill="none" stroke="black" cx="1651.95" cy="-981" rx="40.8928" ry="18"/>
<text text-anchor="middle" x="1651.95" y="-977.3" font-family="Times New Roman,serif" font-size="14.00">state_34</text>
</g>
<!-- state_5&#45;&gt;state_34 -->
<g id="edge23" class="edge"><title>state_5&#45;&gt;state_34</title>
<path fill="none" stroke="black" d="M1569.13,-1207.95C1591.94,-1185.92 1615.46,-1158.59 1629.95,-1129 1648.75,-1090.61 1652.43,-1040.35 1652.68,-1009.66"/>
<polygon fill="black" stroke="black" points="1656.18,-1009.28 1652.65,-999.293 1649.18,-1009.31 1656.18,-1009.28"/>
<text text-anchor="middle" x="1700.95" y="-1117.8" font-family="Times New Roman,serif" font-size="14.00"> &#160;&#160;press(&quot;MenuKey&quot;) &#160;&#160;</text>
</g>
<!-- state_30 -->
<g id="node26" class="node"><title>state_30</title>
<ellipse fill="none" stroke="black" cx="1802.95" cy="-981" rx="40.8928" ry="18"/>
<text text-anchor="middle" x="1802.95" y="-977.3" font-family="Times New Roman,serif" font-size="14.00">state_30</text>
</g>
<!-- state_5&#45;&gt;state_30 -->
<g id="edge24" class="edge"><title>state_5&#45;&gt;state_30</title>
<path fill="none" stroke="black" d="M1569.18,-1245.64C1630.05,-1227.87 1718.8,-1192.55 1768.95,-1129 1796.23,-1094.42 1802.34,-1041.83 1803.32,-1009.82"/>
<polygon fill="black" stroke="black" points="1806.83,-1009.47 1803.48,-999.422 1799.83,-1009.37 1806.83,-1009.47"/>
<text text-anchor="middle" x="1830.45" y="-1117.8" font-family="Times New Roman,serif" font-size="14.00"> &#160;&#160;click(&quot;給5星&quot;) &#160;&#160;</text>
</g>
<!-- state_9 -->
<g id="node6" class="node"><title>state_9</title>
<g id="a_node6"><a xlink:href="9.png">
<polygon fill="none" stroke="black" points="753.946,-815 623.946,-815 623.946,-585 753.946,-585 753.946,-815"/>
<image xlink:href="9.png" width="130px" height="230px" preserveAspectRatio="xMinYMin meet" x="623.946" y="-815"/>
</a>
</g>
</g>
<!-- state_6&#45;&gt;state_9 -->
<g id="edge27" class="edge"><title>state_6&#45;&gt;state_9</title>
<path fill="none" stroke="black" d="M1081.81,-940.322C997.563,-889 851.173,-799.824 762.852,-746.021"/>
<polygon fill="black" stroke="black" points="764.587,-742.98 754.226,-740.766 760.945,-748.958 764.587,-742.98"/>
<text text-anchor="middle" x="975.446" y="-836.8" font-family="Times New Roman,serif" font-size="14.00"> &#160;&#160;click(&quot;index=3&quot;) &#160;&#160;</text>
</g>
<!-- state_6&#45;&gt;state_final -->
<g id="edge31" class="edge"><title>state_6&#45;&gt;state_final</title>
<path fill="none" stroke="black" d="M1120.34,-865.668C1106.84,-784.753 1099.52,-675.063 1132.95,-585 1194.96,-417.926 1350.72,-271.484 1443.7,-195.113"/>
<polygon fill="black" stroke="black" points="1446.13,-197.649 1451.67,-188.616 1441.71,-192.224 1446.13,-197.649"/>
<text text-anchor="middle" x="1207.45" y="-555.8" font-family="Times New Roman,serif" font-size="14.00"> &#160;&#160;press(&quot;BackKey&quot;) &#160;&#160;</text>
</g>
<!-- state_7 -->
<g id="node27" class="node"><title>state_7</title>
<ellipse fill="none" stroke="black" cx="1177.95" cy="-700" rx="36.2938" ry="18"/>
<text text-anchor="middle" x="1177.95" y="-696.3" font-family="Times New Roman,serif" font-size="14.00">state_7</text>
</g>
<!-- state_6&#45;&gt;state_7 -->
<g id="edge25" class="edge"><title>state_6&#45;&gt;state_7</title>
<path fill="none" stroke="black" d="M1145.29,-865.894C1145.86,-854.759 1146.71,-843.648 1147.95,-833 1152.24,-795.903 1162.76,-754 1170.13,-727.551"/>
<polygon fill="black" stroke="black" points="1173.51,-728.459 1172.87,-717.883 1166.77,-726.547 1173.51,-728.459"/>
<text text-anchor="middle" x="1205.45" y="-836.8" font-family="Times New Roman,serif" font-size="14.00"> &#160;&#160;click(&quot;index=1&quot;) &#160;&#160;</text>
</g>
<!-- state_8 -->
<g id="node28" class="node"><title>state_8</title>
<ellipse fill="none" stroke="black" cx="1284.95" cy="-700" rx="36.2938" ry="18"/>
<text text-anchor="middle" x="1284.95" y="-696.3" font-family="Times New Roman,serif" font-size="14.00">state_8</text>
</g>
<!-- state_6&#45;&gt;state_8 -->
<g id="edge26" class="edge"><title>state_6&#45;&gt;state_8</title>
<path fill="none" stroke="black" d="M1211.99,-874.198C1214.89,-871.328 1217.88,-868.584 1220.95,-866 1236.48,-852.917 1250.54,-864.078 1262.95,-848 1289.72,-813.31 1290.65,-759.964 1288.25,-727.974"/>
<polygon fill="black" stroke="black" points="1291.73,-727.642 1287.34,-718.002 1284.76,-728.279 1291.73,-727.642"/>
<text text-anchor="middle" x="1329.45" y="-836.8" font-family="Times New Roman,serif" font-size="14.00"> &#160;&#160;click(&quot;index=1&quot;) &#160;&#160;</text>
</g>
<!-- state_35 -->
<g id="node29" class="node"><title>state_35</title>
<ellipse fill="none" stroke="black" cx="1422.95" cy="-700" rx="40.8928" ry="18"/>
<text text-anchor="middle" x="1422.95" y="-696.3" font-family="Times New Roman,serif" font-size="14.00">state_35</text>
</g>
<!-- state_6&#45;&gt;state_35 -->
<g id="edge28" class="edge"><title>state_6&#45;&gt;state_35</title>
<path fill="none" stroke="black" d="M1212.19,-872.049C1215.01,-869.876 1217.93,-867.851 1220.95,-866 1253.33,-846.135 1362.66,-873.361 1390.95,-848 1424.46,-817.949 1427.35,-761.734 1425.66,-728.204"/>
<polygon fill="black" stroke="black" points="1429.15,-727.919 1424.99,-718.177 1422.17,-728.39 1429.15,-727.919"/>
<text text-anchor="middle" x="1456.95" y="-836.8" font-family="Times New Roman,serif" font-size="14.00"> &#160;&#160;swipe(&quot;Right&quot;) &#160;&#160;</text>
</g>
<!-- state_36 -->
<g id="node30" class="node"><title>state_36</title>
<ellipse fill="none" stroke="black" cx="1551.95" cy="-700" rx="40.8928" ry="18"/>
<text text-anchor="middle" x="1551.95" y="-696.3" font-family="Times New Roman,serif" font-size="14.00">state_36</text>
</g>
<!-- state_6&#45;&gt;state_36 -->
<g id="edge29" class="edge"><title>state_6&#45;&gt;state_36</title>
<path fill="none" stroke="black" d="M1212.09,-871.871C1214.94,-869.75 1217.89,-867.784 1220.95,-866 1277.29,-833.124 1463.62,-889.503 1513.95,-848 1549,-819.096 1554.08,-762.484 1553.65,-728.572"/>
<polygon fill="black" stroke="black" points="1557.15,-728.315 1553.35,-718.423 1550.15,-728.522 1557.15,-728.315"/>
<text text-anchor="middle" x="1577.45" y="-836.8" font-family="Times New Roman,serif" font-size="14.00"> &#160;&#160;swipe(&quot;Left&quot;) &#160;&#160;</text>
</g>
<!-- state_38 -->
<g id="node31" class="node"><title>state_38</title>
<ellipse fill="none" stroke="black" cx="1673.95" cy="-700" rx="40.8928" ry="18"/>
<text text-anchor="middle" x="1673.95" y="-696.3" font-family="Times New Roman,serif" font-size="14.00">state_38</text>
</g>
<!-- state_6&#45;&gt;state_38 -->
<g id="edge30" class="edge"><title>state_6&#45;&gt;state_38</title>
<path fill="none" stroke="black" d="M1212.05,-871.8C1214.91,-869.699 1217.87,-867.757 1220.95,-866 1260.53,-843.364 1595.06,-876.139 1630.95,-848 1667.2,-819.572 1674.08,-762.295 1674.74,-728.238"/>
<polygon fill="black" stroke="black" points="1678.24,-728.07 1674.76,-718.062 1671.24,-728.053 1678.24,-728.07"/>
<text text-anchor="middle" x="1709.95" y="-836.8" font-family="Times New Roman,serif" font-size="14.00"> &#160;&#160;press(&quot;MenuKey&quot;) &#160;&#160;</text>
</g>
<!-- state_10 -->
<g id="node7" class="node"><title>state_10</title>
<g id="a_node7"><a xlink:href="10.png">
<polygon fill="none" stroke="black" points="381.946,-534 251.946,-534 251.946,-304 381.946,-304 381.946,-534"/>
<image xlink:href="10.png" width="130px" height="230px" preserveAspectRatio="xMinYMin meet" x="251.946" y="-534"/>
</a>
</g>
</g>
<!-- state_9&#45;&gt;state_10 -->
<g id="edge32" class="edge"><title>state_9&#45;&gt;state_10</title>
<path fill="none" stroke="black" d="M623.904,-688.412C552.154,-673.458 437.761,-639.434 368.946,-567 362.094,-559.788 356.138,-551.616 350.961,-542.911"/>
<polygon fill="black" stroke="black" points="353.953,-541.088 346.04,-534.042 347.832,-544.485 353.953,-541.088"/>
<text text-anchor="middle" x="414.446" y="-555.8" font-family="Times New Roman,serif" font-size="14.00"> &#160;&#160;click(&quot;OK&quot;) &#160;&#160;</text>
</g>
<!-- state_40 -->
<g id="node32" class="node"><title>state_40</title>
<ellipse fill="none" stroke="black" cx="440.946" cy="-419" rx="40.8928" ry="18"/>
<text text-anchor="middle" x="440.946" y="-415.3" font-family="Times New Roman,serif" font-size="14.00">state_40</text>
</g>
<!-- state_9&#45;&gt;state_40 -->
<g id="edge33" class="edge"><title>state_9&#45;&gt;state_40</title>
<path fill="none" stroke="black" d="M623.788,-675.934C574.497,-655.089 509.147,-619.544 471.946,-567 446.601,-531.201 441.178,-478.999 440.439,-447.394"/>
<polygon fill="black" stroke="black" points="443.937,-447.103 440.349,-437.134 436.937,-447.165 443.937,-447.103"/>
<text text-anchor="middle" x="524.946" y="-555.8" font-family="Times New Roman,serif" font-size="14.00"> &#160;&#160;swipe(&quot;Right&quot;) &#160;&#160;</text>
</g>
<!-- state_41 -->
<g id="node33" class="node"><title>state_41</title>
<ellipse fill="none" stroke="black" cx="566.946" cy="-419" rx="40.8928" ry="18"/>
<text text-anchor="middle" x="566.946" y="-415.3" font-family="Times New Roman,serif" font-size="14.00">state_41</text>
</g>
<!-- state_9&#45;&gt;state_41 -->
<g id="edge34" class="edge"><title>state_9&#45;&gt;state_41</title>
<path fill="none" stroke="black" d="M623.877,-629.784C609.169,-610.704 595.187,-589.129 585.946,-567 569.52,-527.663 566.396,-477.682 566.238,-447.304"/>
<polygon fill="black" stroke="black" points="569.739,-447.074 566.294,-437.055 562.739,-447.036 569.739,-447.074"/>
<text text-anchor="middle" x="635.446" y="-555.8" font-family="Times New Roman,serif" font-size="14.00"> &#160;&#160;swipe(&quot;Left&quot;) &#160;&#160;</text>
</g>
<!-- state_42 -->
<g id="node34" class="node"><title>state_42</title>
<ellipse fill="none" stroke="black" cx="688.946" cy="-419" rx="40.8928" ry="18"/>
<text text-anchor="middle" x="688.946" y="-415.3" font-family="Times New Roman,serif" font-size="14.00">state_42</text>
</g>
<!-- state_9&#45;&gt;state_42 -->
<g id="edge35" class="edge"><title>state_9&#45;&gt;state_42</title>
<path fill="none" stroke="black" d="M688.946,-584.715C688.946,-534.369 688.946,-479.49 688.946,-447.498"/>
<polygon fill="black" stroke="black" points="692.446,-447.181 688.946,-437.181 685.446,-447.182 692.446,-447.181"/>
<text text-anchor="middle" x="751.446" y="-555.8" font-family="Times New Roman,serif" font-size="14.00"> &#160;&#160;press(&quot;BackKey&quot;) &#160;&#160;</text>
</g>
<!-- state_43 -->
<g id="node35" class="node"><title>state_43</title>
<ellipse fill="none" stroke="black" cx="836.946" cy="-419" rx="40.8928" ry="18"/>
<text text-anchor="middle" x="836.946" y="-415.3" font-family="Times New Roman,serif" font-size="14.00">state_43</text>
</g>
<!-- state_9&#45;&gt;state_43 -->
<g id="edge36" class="edge"><title>state_9&#45;&gt;state_43</title>
<path fill="none" stroke="black" d="M754.133,-645.951C776.945,-623.925 800.456,-596.591 814.946,-567 833.746,-528.608 837.427,-478.349 837.684,-447.657"/>
<polygon fill="black" stroke="black" points="841.183,-447.28 837.646,-437.293 834.183,-447.306 841.183,-447.28"/>
<text text-anchor="middle" x="885.946" y="-555.8" font-family="Times New Roman,serif" font-size="14.00"> &#160;&#160;press(&quot;MenuKey&quot;) &#160;&#160;</text>
</g>
<!-- state_39 -->
<g id="node36" class="node"><title>state_39</title>
<ellipse fill="none" stroke="black" cx="987.946" cy="-419" rx="40.8928" ry="18"/>
<text text-anchor="middle" x="987.946" y="-415.3" font-family="Times New Roman,serif" font-size="14.00">state_39</text>
</g>
<!-- state_9&#45;&gt;state_39 -->
<g id="edge37" class="edge"><title>state_9&#45;&gt;state_39</title>
<path fill="none" stroke="black" d="M754.182,-683.639C815.054,-665.871 903.804,-630.554 953.946,-567 981.232,-532.416 987.341,-479.833 988.321,-447.823"/>
<polygon fill="black" stroke="black" points="991.827,-447.474 988.481,-437.422 984.828,-447.367 991.827,-447.474"/>
<text text-anchor="middle" x="1015.45" y="-555.8" font-family="Times New Roman,serif" font-size="14.00"> &#160;&#160;click(&quot;給5星&quot;) &#160;&#160;</text>
</g>
<!-- state_10&#45;&gt;state_final -->
<g id="edge43" class="edge"><title>state_10&#45;&gt;state_final</title>
<path fill="none" stroke="black" d="M382.089,-309.875C384.938,-307.753 387.89,-305.785 390.946,-304 418.631,-287.827 647.107,-289.776 678.946,-286 962.386,-252.388 1295.4,-185.762 1441.65,-155.114"/>
<polygon fill="black" stroke="black" points="1442.78,-158.451 1451.85,-152.97 1441.34,-151.601 1442.78,-158.451"/>
<text text-anchor="middle" x="856.446" y="-274.8" font-family="Times New Roman,serif" font-size="14.00"> &#160;&#160;press(&quot;BackKey&quot;) &#160;&#160;</text>
</g>
<!-- state_11 -->
<g id="node37" class="node"><title>state_11</title>
<ellipse fill="none" stroke="black" cx="40.9464" cy="-138" rx="40.8928" ry="18"/>
<text text-anchor="middle" x="40.9464" y="-134.3" font-family="Times New Roman,serif" font-size="14.00">state_11</text>
</g>
<!-- state_10&#45;&gt;state_11 -->
<g id="edge38" class="edge"><title>state_10&#45;&gt;state_11</title>
<path fill="none" stroke="black" d="M251.82,-399.459C196.12,-380.195 118.153,-344.514 73.9464,-286 47.431,-250.903 41.5117,-198.481 40.571,-166.642"/>
<polygon fill="black" stroke="black" points="44.0657,-166.248 40.4203,-156.301 37.0665,-166.351 44.0657,-166.248"/>
<text text-anchor="middle" x="131.446" y="-274.8" font-family="Times New Roman,serif" font-size="14.00"> &#160;&#160;click(&quot;index=1&quot;) &#160;&#160;</text>
</g>
<!-- state_12 -->
<g id="node38" class="node"><title>state_12</title>
<ellipse fill="none" stroke="black" cx="178.946" cy="-138" rx="40.8928" ry="18"/>
<text text-anchor="middle" x="178.946" y="-134.3" font-family="Times New Roman,serif" font-size="14.00">state_12</text>
</g>
<!-- state_10&#45;&gt;state_12 -->
<g id="edge39" class="edge"><title>state_10&#45;&gt;state_12</title>
<path fill="none" stroke="black" d="M251.662,-360.941C231.19,-339.516 210.646,-313.611 197.946,-286 180.133,-247.272 177.418,-197.112 177.72,-166.531"/>
<polygon fill="black" stroke="black" points="181.226,-166.282 177.945,-156.208 174.228,-166.13 181.226,-166.282"/>
<text text-anchor="middle" x="255.446" y="-274.8" font-family="Times New Roman,serif" font-size="14.00"> &#160;&#160;click(&quot;index=0&quot;) &#160;&#160;</text>
</g>
<!-- state_13 -->
<g id="node39" class="node"><title>state_13</title>
<ellipse fill="none" stroke="black" cx="316.946" cy="-138" rx="40.8928" ry="18"/>
<text text-anchor="middle" x="316.946" y="-134.3" font-family="Times New Roman,serif" font-size="14.00">state_13</text>
</g>
<!-- state_10&#45;&gt;state_13 -->
<g id="edge40" class="edge"><title>state_10&#45;&gt;state_13</title>
<path fill="none" stroke="black" d="M316.946,-303.715C316.946,-253.369 316.946,-198.49 316.946,-166.498"/>
<polygon fill="black" stroke="black" points="320.446,-166.181 316.946,-156.181 313.446,-166.182 320.446,-166.181"/>
<text text-anchor="middle" x="369.946" y="-274.8" font-family="Times New Roman,serif" font-size="14.00"> &#160;&#160;swipe(&quot;Right&quot;) &#160;&#160;</text>
</g>
<!-- state_14 -->
<g id="node40" class="node"><title>state_14</title>
<ellipse fill="none" stroke="black" cx="445.946" cy="-138" rx="40.8928" ry="18"/>
<text text-anchor="middle" x="445.946" y="-134.3" font-family="Times New Roman,serif" font-size="14.00">state_14</text>
</g>
<!-- state_10&#45;&gt;state_14 -->
<g id="edge41" class="edge"><title>state_10&#45;&gt;state_14</title>
<path fill="none" stroke="black" d="M382.069,-312.832C384.956,-309.761 387.917,-306.806 390.946,-304 403.202,-292.646 414.376,-299.694 423.946,-286 448.807,-250.43 450.499,-198.156 448.733,-166.475"/>
<polygon fill="black" stroke="black" points="452.202,-165.913 447.997,-156.189 445.22,-166.413 452.202,-165.913"/>
<text text-anchor="middle" x="482.446" y="-274.8" font-family="Times New Roman,serif" font-size="14.00"> &#160;&#160;swipe(&quot;Left&quot;) &#160;&#160;</text>
</g>
<!-- state_16 -->
<g id="node41" class="node"><title>state_16</title>
<ellipse fill="none" stroke="black" cx="567.946" cy="-138" rx="40.8928" ry="18"/>
<text text-anchor="middle" x="567.946" y="-134.3" font-family="Times New Roman,serif" font-size="14.00">state_16</text>
</g>
<!-- state_10&#45;&gt;state_16 -->
<g id="edge42" class="edge"><title>state_10&#45;&gt;state_16</title>
<path fill="none" stroke="black" d="M381.957,-310.341C384.85,-308.064 387.846,-305.94 390.946,-304 445.991,-269.545 487.99,-329.787 535.946,-286 569.189,-255.648 572.175,-199.537 570.577,-166.108"/>
<polygon fill="black" stroke="black" points="574.069,-165.865 569.93,-156.113 567.084,-166.318 574.069,-165.865"/>
<text text-anchor="middle" x="610.946" y="-274.8" font-family="Times New Roman,serif" font-size="14.00"> &#160;&#160;press(&quot;MenuKey&quot;) &#160;&#160;</text>
</g>
</g>
</svg>
