<?xml version="1.0" encoding="UTF-8" standalone="no"?>
<!DOCTYPE svg PUBLIC "-//W3C//DTD SVG 1.1//EN"
 "http://www.w3.org/Graphics/SVG/1.1/DTD/svg11.dtd">
<!-- Generated by graphviz version 2.38.0 (20140413.2041)
 -->
<!-- Title: g Pages: 1 -->
<svg width="1536pt" height="2228pt"
 viewBox="0.00 0.00 1536.00 2228.00" xmlns="http://www.w3.org/2000/svg" xmlns:xlink="http://www.w3.org/1999/xlink">
<g id="graph0" class="graph" transform="scale(1 1) rotate(0) translate(4 2224)">
<title>g</title>
<polygon fill="white" stroke="none" points="-4,4 -4,-2224 1532,-2224 1532,4 -4,4"/>
<text text-anchor="middle" x="764" y="-7.8" font-family="Times New Roman,serif" font-size="14.00"> &#160;&#160;activity_1 &#160;&#160;</text>
<!-- state_0 -->
<g id="node1" class="node"><title>state_0</title>
<g id="a_node1"><a xlink:href="0.png">
<polygon fill="none" stroke="black" points="1008,-2220 878,-2220 878,-1990 1008,-1990 1008,-2220"/>
<image xlink:href="0.png" width="130px" height="230px" preserveAspectRatio="xMinYMin meet" x="878" y="-2220"/>
</a>
</g>
</g>
<!-- state_0&#45;&gt;state_0 -->
<g id="edge1" class="edge"><title>state_0&#45;&gt;state_0</title>
<path fill="none" stroke="black" d="M1008.07,-2111.07C1018.7,-2110.2 1026,-2108.18 1026,-2105 1026,-2102.96 1023,-2101.4 1018.06,-2100.31"/>
<polygon fill="black" stroke="black" points="1018.46,-2096.84 1008.07,-2098.93 1017.5,-2103.77 1018.46,-2096.84"/>
<text text-anchor="middle" x="1083.5" y="-2101.3" font-family="Times New Roman,serif" font-size="14.00"> &#160;&#160;click(&quot;index=1&quot;) &#160;&#160;</text>
</g>
<!-- state_0&#45;&gt;state_0 -->
<g id="edge4" class="edge"><title>state_0&#45;&gt;state_0</title>
<path fill="none" stroke="black" d="M1008.18,-2116.59C1067.03,-2120.6 1141,-2116.74 1141,-2105 1141,-2093.92 1075.17,-2089.86 1018.31,-2092.8"/>
<polygon fill="black" stroke="black" points="1017.95,-2089.32 1008.18,-2093.41 1018.37,-2096.3 1017.95,-2089.32"/>
<text text-anchor="middle" x="1194" y="-2101.3" font-family="Times New Roman,serif" font-size="14.00"> &#160;&#160;swipe(&quot;Right&quot;) &#160;&#160;</text>
</g>
<!-- state_0&#45;&gt;state_0 -->
<g id="edge5" class="edge"><title>state_0&#45;&gt;state_0</title>
<path fill="none" stroke="black" d="M1008.3,-2119.88C1099.47,-2129.57 1247,-2124.61 1247,-2105 1247,-2086.1 1109.94,-2080.81 1018.4,-2089.13"/>
<polygon fill="black" stroke="black" points="1017.91,-2085.66 1008.3,-2090.12 1018.6,-2092.62 1017.91,-2085.66"/>
<text text-anchor="middle" x="1296.5" y="-2101.3" font-family="Times New Roman,serif" font-size="14.00"> &#160;&#160;swipe(&quot;Left&quot;) &#160;&#160;</text>
</g>
<!-- state_0&#45;&gt;state_0 -->
<g id="edge6" class="edge"><title>state_0&#45;&gt;state_0</title>
<path fill="none" stroke="black" d="M1008.09,-2122.59C1124.62,-2138.41 1346,-2132.55 1346,-2105 1346,-2078.23 1136.98,-2071.94 1018.23,-2086.11"/>
<polygon fill="black" stroke="black" points="1017.57,-2082.67 1008.09,-2087.41 1018.45,-2089.61 1017.57,-2082.67"/>
<text text-anchor="middle" x="1410" y="-2101.3" font-family="Times New Roman,serif" font-size="14.00"> &#160;&#160;press(&quot;MenuKey&quot;) &#160;&#160;</text>
</g>
<!-- state_2 -->
<g id="node2" class="node"><title>state_2</title>
<g id="a_node2"><a xlink:href="2.png">
<polygon fill="none" stroke="black" points="385,-1939 255,-1939 255,-1709 385,-1709 385,-1939"/>
<image xlink:href="2.png" width="130px" height="230px" preserveAspectRatio="xMinYMin meet" x="255" y="-1939"/>
</a>
</g>
</g>
<!-- state_0&#45;&gt;state_2 -->
<g id="edge2" class="edge"><title>state_0&#45;&gt;state_2</title>
<path fill="none" stroke="black" d="M877.799,-2074.8C761.173,-2022.57 517.567,-1913.48 394.524,-1858.37"/>
<polygon fill="black" stroke="black" points="395.714,-1855.07 385.157,-1854.18 392.853,-1861.46 395.714,-1855.07"/>
<text text-anchor="middle" x="689.5" y="-1960.8" font-family="Times New Roman,serif" font-size="14.00"> &#160;&#160;click(&quot;index=1&quot;) &#160;&#160;</text>
</g>
<!-- state_9 -->
<g id="node6" class="node"><title>state_9</title>
<g id="a_node6"><a xlink:href="9.png">
<polygon fill="none" stroke="black" points="547,-815 417,-815 417,-585 547,-585 547,-815"/>
<image xlink:href="9.png" width="130px" height="230px" preserveAspectRatio="xMinYMin meet" x="417" y="-815"/>
</a>
</g>
</g>
<!-- state_0&#45;&gt;state_9 -->
<g id="edge3" class="edge"><title>state_0&#45;&gt;state_9</title>
<path fill="none" stroke="black" d="M943,-1989.98C943,-1939.43 943,-1879.25 943,-1825 943,-1825 943,-1825 943,-980 943,-928.129 951.907,-905.254 918,-866 825.387,-758.783 655.562,-721.045 557.427,-707.899"/>
<polygon fill="black" stroke="black" points="557.649,-704.399 547.284,-706.594 556.756,-711.342 557.649,-704.399"/>
<text text-anchor="middle" x="1000.5" y="-1398.8" font-family="Times New Roman,serif" font-size="14.00"> &#160;&#160;click(&quot;index=3&quot;) &#160;&#160;</text>
</g>
<!-- state_final -->
<g id="node8" class="node"><title>state_final</title>
<g id="a_node8"><a xlink:href="-2.png">
<polygon fill="none" stroke="black" points="393,-253 263,-253 263,-23 393,-23 393,-253"/>
<image xlink:href="-2.png" width="76px" height="74px" preserveAspectRatio="xMinYMin meet" x="290" y="-175"/>
</a>
</g>
</g>
<!-- state_0&#45;&gt;state_final -->
<g id="edge7" class="edge"><title>state_0&#45;&gt;state_final</title>
<path fill="none" stroke="black" d="M1008.16,-2053.97C1066.2,-2003.25 1142,-1919 1142,-1825 1142,-1825 1142,-1825 1142,-418 1142,-365.827 1151.18,-340.603 1114,-304 1013.37,-204.921 579.858,-159.33 403.278,-144.615"/>
<polygon fill="black" stroke="black" points="403.543,-141.125 393.29,-143.793 402.969,-148.101 403.543,-141.125"/>
<text text-anchor="middle" x="1204.5" y="-1117.8" font-family="Times New Roman,serif" font-size="14.00"> &#160;&#160;press(&quot;BackKey&quot;) &#160;&#160;</text>
</g>
<!-- state_2&#45;&gt;state_2 -->
<g id="edge9" class="edge"><title>state_2&#45;&gt;state_2</title>
<path fill="none" stroke="black" d="M385.072,-1830.07C395.697,-1829.2 403,-1827.18 403,-1824 403,-1821.96 400.003,-1820.4 395.055,-1819.31"/>
<polygon fill="black" stroke="black" points="395.458,-1815.84 385.072,-1817.93 394.496,-1822.77 395.458,-1815.84"/>
<text text-anchor="middle" x="456" y="-1820.3" font-family="Times New Roman,serif" font-size="14.00"> &#160;&#160;swipe(&quot;Right&quot;) &#160;&#160;</text>
</g>
<!-- state_2&#45;&gt;state_2 -->
<g id="edge10" class="edge"><title>state_2&#45;&gt;state_2</title>
<path fill="none" stroke="black" d="M385.113,-1835.75C440.904,-1839.5 509,-1835.59 509,-1824 509,-1813.11 448.9,-1809 395.364,-1811.66"/>
<polygon fill="black" stroke="black" points="394.892,-1808.18 385.113,-1812.25 395.3,-1815.17 394.892,-1808.18"/>
<text text-anchor="middle" x="558.5" y="-1820.3" font-family="Times New Roman,serif" font-size="14.00"> &#160;&#160;swipe(&quot;Left&quot;) &#160;&#160;</text>
</g>
<!-- state_2&#45;&gt;state_2 -->
<g id="edge11" class="edge"><title>state_2&#45;&gt;state_2</title>
<path fill="none" stroke="black" d="M385.143,-1839.14C471.927,-1848.48 608,-1843.43 608,-1824 608,-1805.31 482.094,-1799.93 395.263,-1807.85"/>
<polygon fill="black" stroke="black" points="394.748,-1804.39 385.143,-1808.86 395.44,-1811.35 394.748,-1804.39"/>
<text text-anchor="middle" x="670.5" y="-1820.3" font-family="Times New Roman,serif" font-size="14.00"> &#160;&#160;press(&quot;BackKey&quot;) &#160;&#160;</text>
</g>
<!-- state_2&#45;&gt;state_2 -->
<g id="edge12" class="edge"><title>state_2&#45;&gt;state_2</title>
<path fill="none" stroke="black" d="M385.369,-1841.48C504.291,-1857.44 733,-1851.62 733,-1824 733,-1797.14 516.628,-1790.89 395.364,-1805.26"/>
<polygon fill="black" stroke="black" points="394.852,-1801.8 385.369,-1806.52 395.729,-1808.74 394.852,-1801.8"/>
<text text-anchor="middle" x="797" y="-1820.3" font-family="Times New Roman,serif" font-size="14.00"> &#160;&#160;press(&quot;MenuKey&quot;) &#160;&#160;</text>
</g>
<!-- state_3 -->
<g id="node3" class="node"><title>state_3</title>
<g id="a_node3"><a xlink:href="3.png">
<polygon fill="none" stroke="black" points="205,-1658 75,-1658 75,-1428 205,-1428 205,-1658"/>
<image xlink:href="3.png" width="130px" height="230px" preserveAspectRatio="xMinYMin meet" x="75" y="-1658"/>
</a>
</g>
</g>
<!-- state_2&#45;&gt;state_3 -->
<g id="edge8" class="edge"><title>state_2&#45;&gt;state_3</title>
<path fill="none" stroke="black" d="M254.761,-1721.88C240.398,-1699.62 225.122,-1675.94 210.559,-1653.37"/>
<polygon fill="black" stroke="black" points="213.379,-1651.28 205.016,-1644.78 207.497,-1655.08 213.379,-1651.28"/>
<text text-anchor="middle" x="275.5" y="-1679.8" font-family="Times New Roman,serif" font-size="14.00"> &#160;&#160;click(&quot;OK&quot;) &#160;&#160;</text>
</g>
<!-- state_3&#45;&gt;state_3 -->
<g id="edge13" class="edge"><title>state_3&#45;&gt;state_3</title>
<path fill="none" stroke="black" d="M205.072,-1549.07C215.697,-1548.2 223,-1546.18 223,-1543 223,-1540.96 220.003,-1539.4 215.055,-1538.31"/>
<polygon fill="black" stroke="black" points="215.458,-1534.84 205.072,-1536.93 214.496,-1541.77 215.458,-1534.84"/>
<text text-anchor="middle" x="280.5" y="-1539.3" font-family="Times New Roman,serif" font-size="14.00"> &#160;&#160;click(&quot;index=1&quot;) &#160;&#160;</text>
</g>
<!-- state_3&#45;&gt;state_3 -->
<g id="edge15" class="edge"><title>state_3&#45;&gt;state_3</title>
<path fill="none" stroke="black" d="M205.181,-1554.59C264.033,-1558.6 338,-1554.74 338,-1543 338,-1531.92 272.175,-1527.86 215.31,-1530.8"/>
<polygon fill="black" stroke="black" points="214.954,-1527.32 205.181,-1531.41 215.372,-1534.3 214.954,-1527.32"/>
<text text-anchor="middle" x="391" y="-1539.3" font-family="Times New Roman,serif" font-size="14.00"> &#160;&#160;swipe(&quot;Right&quot;) &#160;&#160;</text>
</g>
<!-- state_3&#45;&gt;state_3 -->
<g id="edge16" class="edge"><title>state_3&#45;&gt;state_3</title>
<path fill="none" stroke="black" d="M205.304,-1557.88C296.472,-1567.57 444,-1562.61 444,-1543 444,-1524.1 306.94,-1518.81 215.398,-1527.13"/>
<polygon fill="black" stroke="black" points="214.914,-1523.66 205.304,-1528.12 215.599,-1530.62 214.914,-1523.66"/>
<text text-anchor="middle" x="493.5" y="-1539.3" font-family="Times New Roman,serif" font-size="14.00"> &#160;&#160;swipe(&quot;Left&quot;) &#160;&#160;</text>
</g>
<!-- state_3&#45;&gt;state_3 -->
<g id="edge17" class="edge"><title>state_3&#45;&gt;state_3</title>
<path fill="none" stroke="black" d="M205.087,-1560.59C321.617,-1576.41 543,-1570.55 543,-1543 543,-1516.23 333.979,-1509.94 215.233,-1524.11"/>
<polygon fill="black" stroke="black" points="214.565,-1520.67 205.087,-1525.41 215.45,-1527.61 214.565,-1520.67"/>
<text text-anchor="middle" x="607" y="-1539.3" font-family="Times New Roman,serif" font-size="14.00"> &#160;&#160;press(&quot;MenuKey&quot;) &#160;&#160;</text>
</g>
<!-- state_5 -->
<g id="node4" class="node"><title>state_5</title>
<g id="a_node4"><a xlink:href="5.png">
<polygon fill="none" stroke="black" points="205,-1377 75,-1377 75,-1147 205,-1147 205,-1377"/>
<image xlink:href="5.png" width="130px" height="230px" preserveAspectRatio="xMinYMin meet" x="75" y="-1377"/>
</a>
</g>
</g>
<!-- state_3&#45;&gt;state_5 -->
<g id="edge14" class="edge"><title>state_3&#45;&gt;state_5</title>
<path fill="none" stroke="black" d="M140,-1427.72C140,-1414.4 140,-1400.78 140,-1387.34"/>
<polygon fill="black" stroke="black" points="143.5,-1387.11 140,-1377.11 136.5,-1387.11 143.5,-1387.11"/>
<text text-anchor="middle" x="197.5" y="-1398.8" font-family="Times New Roman,serif" font-size="14.00"> &#160;&#160;click(&quot;index=0&quot;) &#160;&#160;</text>
</g>
<!-- state_3&#45;&gt;state_final -->
<g id="edge18" class="edge"><title>state_3&#45;&gt;state_final</title>
<path fill="none" stroke="black" d="M74.9183,-1461.78C38.3582,-1408.66 0,-1335.62 0,-1263 0,-1263 0,-1263 0,-418 0,-285.781 156.551,-203.088 253.343,-164.597"/>
<polygon fill="black" stroke="black" points="254.766,-167.799 262.806,-160.899 252.218,-161.279 254.766,-167.799"/>
<text text-anchor="middle" x="62.5" y="-836.8" font-family="Times New Roman,serif" font-size="14.00"> &#160;&#160;press(&quot;BackKey&quot;) &#160;&#160;</text>
</g>
<!-- state_5&#45;&gt;state_5 -->
<g id="edge20" class="edge"><title>state_5&#45;&gt;state_5</title>
<path fill="none" stroke="black" d="M205.072,-1268.07C215.697,-1267.2 223,-1265.18 223,-1262 223,-1259.96 220.003,-1258.4 215.055,-1257.31"/>
<polygon fill="black" stroke="black" points="215.458,-1253.84 205.072,-1255.93 214.496,-1260.77 215.458,-1253.84"/>
<text text-anchor="middle" x="276" y="-1258.3" font-family="Times New Roman,serif" font-size="14.00"> &#160;&#160;swipe(&quot;Right&quot;) &#160;&#160;</text>
</g>
<!-- state_5&#45;&gt;state_5 -->
<g id="edge21" class="edge"><title>state_5&#45;&gt;state_5</title>
<path fill="none" stroke="black" d="M205.113,-1273.75C260.904,-1277.5 329,-1273.59 329,-1262 329,-1251.11 268.9,-1247 215.364,-1249.66"/>
<polygon fill="black" stroke="black" points="214.892,-1246.18 205.113,-1250.25 215.3,-1253.17 214.892,-1246.18"/>
<text text-anchor="middle" x="378.5" y="-1258.3" font-family="Times New Roman,serif" font-size="14.00"> &#160;&#160;swipe(&quot;Left&quot;) &#160;&#160;</text>
</g>
<!-- state_5&#45;&gt;state_5 -->
<g id="edge22" class="edge"><title>state_5&#45;&gt;state_5</title>
<path fill="none" stroke="black" d="M205.143,-1277.14C291.927,-1286.48 428,-1281.43 428,-1262 428,-1243.31 302.094,-1237.93 215.263,-1245.85"/>
<polygon fill="black" stroke="black" points="214.748,-1242.39 205.143,-1246.86 215.44,-1249.35 214.748,-1242.39"/>
<text text-anchor="middle" x="490.5" y="-1258.3" font-family="Times New Roman,serif" font-size="14.00"> &#160;&#160;press(&quot;BackKey&quot;) &#160;&#160;</text>
</g>
<!-- state_5&#45;&gt;state_5 -->
<g id="edge23" class="edge"><title>state_5&#45;&gt;state_5</title>
<path fill="none" stroke="black" d="M205.369,-1279.48C324.291,-1295.44 553,-1289.62 553,-1262 553,-1235.14 336.628,-1228.89 215.364,-1243.26"/>
<polygon fill="black" stroke="black" points="214.852,-1239.8 205.369,-1244.52 215.729,-1246.74 214.852,-1239.8"/>
<text text-anchor="middle" x="617" y="-1258.3" font-family="Times New Roman,serif" font-size="14.00"> &#160;&#160;press(&quot;MenuKey&quot;) &#160;&#160;</text>
</g>
<!-- state_6 -->
<g id="node5" class="node"><title>state_6</title>
<g id="a_node5"><a xlink:href="6.png">
<polygon fill="none" stroke="black" points="389,-1096 259,-1096 259,-866 389,-866 389,-1096"/>
<image xlink:href="6.png" width="130px" height="230px" preserveAspectRatio="xMinYMin meet" x="259" y="-1096"/>
</a>
</g>
</g>
<!-- state_5&#45;&gt;state_6 -->
<g id="edge19" class="edge"><title>state_5&#45;&gt;state_6</title>
<path fill="none" stroke="black" d="M205.13,-1162.24C220.759,-1138.54 237.522,-1113.13 253.386,-1089.07"/>
<polygon fill="black" stroke="black" points="256.373,-1090.9 258.957,-1080.62 250.53,-1087.05 256.373,-1090.9"/>
<text text-anchor="middle" x="273.5" y="-1117.8" font-family="Times New Roman,serif" font-size="14.00"> &#160;&#160;click(&quot;行&quot;) &#160;&#160;</text>
</g>
<!-- state_5&#45;&gt;state_final -->
<g id="edge24" class="edge"><title>state_5&#45;&gt;state_final</title>
<path fill="none" stroke="black" d="M140,-1146.98C140,-1096.43 140,-1036.25 140,-982 140,-982 140,-982 140,-418 140,-331.813 202.462,-252.288 255.378,-200.379"/>
<polygon fill="black" stroke="black" points="258.01,-202.704 262.774,-193.24 253.149,-197.667 258.01,-202.704"/>
<text text-anchor="middle" x="191.5" y="-696.3" font-family="Times New Roman,serif" font-size="14.00"> &#160;&#160;click(&quot;給5星&quot;) &#160;&#160;</text>
</g>
<!-- state_6&#45;&gt;state_2 -->
<g id="edge26" class="edge"><title>state_6&#45;&gt;state_2</title>
<path fill="none" stroke="black" d="M389.262,-985.896C485.785,-995.582 663.811,-1029.34 744,-1147 807.965,-1240.85 799.395,-1565.14 734,-1658 656.121,-1768.59 491.554,-1805.08 395.006,-1817.11"/>
<polygon fill="black" stroke="black" points="394.535,-1813.64 385.018,-1818.3 395.361,-1820.59 394.535,-1813.64"/>
<text text-anchor="middle" x="844.5" y="-1398.8" font-family="Times New Roman,serif" font-size="14.00"> &#160;&#160;click(&quot;index=1&quot;) &#160;&#160;</text>
</g>
<!-- state_6&#45;&gt;state_6 -->
<g id="edge25" class="edge"><title>state_6&#45;&gt;state_6</title>
<path fill="none" stroke="black" d="M389.072,-987.072C399.697,-986.203 407,-984.179 407,-981 407,-978.964 404.003,-977.401 399.055,-976.313"/>
<polygon fill="black" stroke="black" points="399.458,-972.835 389.072,-974.928 398.496,-979.769 399.458,-972.835"/>
<text text-anchor="middle" x="464.5" y="-977.3" font-family="Times New Roman,serif" font-size="14.00"> &#160;&#160;click(&quot;index=1&quot;) &#160;&#160;</text>
</g>
<!-- state_6&#45;&gt;state_6 -->
<g id="edge28" class="edge"><title>state_6&#45;&gt;state_6</title>
<path fill="none" stroke="black" d="M389.181,-992.592C448.033,-996.605 522,-992.741 522,-981 522,-969.924 456.175,-965.858 399.31,-968.802"/>
<polygon fill="black" stroke="black" points="398.954,-965.317 389.181,-969.408 399.372,-972.305 398.954,-965.317"/>
<text text-anchor="middle" x="575" y="-977.3" font-family="Times New Roman,serif" font-size="14.00"> &#160;&#160;swipe(&quot;Right&quot;) &#160;&#160;</text>
</g>
<!-- state_6&#45;&gt;state_6 -->
<g id="edge29" class="edge"><title>state_6&#45;&gt;state_6</title>
<path fill="none" stroke="black" d="M389.304,-995.88C480.472,-1005.57 628,-1000.61 628,-981 628,-962.098 490.94,-956.807 399.398,-965.127"/>
<polygon fill="black" stroke="black" points="398.914,-961.657 389.304,-966.12 399.599,-968.624 398.914,-961.657"/>
<text text-anchor="middle" x="677.5" y="-977.3" font-family="Times New Roman,serif" font-size="14.00"> &#160;&#160;swipe(&quot;Left&quot;) &#160;&#160;</text>
</g>
<!-- state_6&#45;&gt;state_6 -->
<g id="edge30" class="edge"><title>state_6&#45;&gt;state_6</title>
<path fill="none" stroke="black" d="M389.087,-998.595C505.617,-1014.41 727,-1008.55 727,-981 727,-954.231 517.979,-947.936 399.233,-962.114"/>
<polygon fill="black" stroke="black" points="398.565,-958.67 389.087,-963.405 399.45,-965.614 398.565,-958.67"/>
<text text-anchor="middle" x="791" y="-977.3" font-family="Times New Roman,serif" font-size="14.00"> &#160;&#160;press(&quot;MenuKey&quot;) &#160;&#160;</text>
</g>
<!-- state_6&#45;&gt;state_9 -->
<g id="edge27" class="edge"><title>state_6&#45;&gt;state_9</title>
<path fill="none" stroke="black" d="M388.721,-865.715C396.48,-852.012 404.43,-837.974 412.258,-824.153"/>
<polygon fill="black" stroke="black" points="415.498,-825.534 417.38,-815.107 409.407,-822.084 415.498,-825.534"/>
<text text-anchor="middle" x="460.5" y="-836.8" font-family="Times New Roman,serif" font-size="14.00"> &#160;&#160;click(&quot;index=3&quot;) &#160;&#160;</text>
</g>
<!-- state_6&#45;&gt;state_final -->
<g id="edge31" class="edge"><title>state_6&#45;&gt;state_final</title>
<path fill="none" stroke="black" d="M315.86,-865.593C310.602,-779.411 305.071,-658.323 307,-552 309,-441.723 309.999,-414.131 316,-304 316.723,-290.73 317.577,-276.867 318.49,-263.059"/>
<polygon fill="black" stroke="black" points="321.986,-263.236 319.165,-253.023 315.002,-262.766 321.986,-263.236"/>
<text text-anchor="middle" x="369.5" y="-555.8" font-family="Times New Roman,serif" font-size="14.00"> &#160;&#160;press(&quot;BackKey&quot;) &#160;&#160;</text>
</g>
<!-- state_9&#45;&gt;state_9 -->
<g id="edge33" class="edge"><title>state_9&#45;&gt;state_9</title>
<path fill="none" stroke="black" d="M547.072,-706.072C557.697,-705.203 565,-703.179 565,-700 565,-697.964 562.003,-696.401 557.055,-695.313"/>
<polygon fill="black" stroke="black" points="557.458,-691.835 547.072,-693.928 556.496,-698.769 557.458,-691.835"/>
<text text-anchor="middle" x="618" y="-696.3" font-family="Times New Roman,serif" font-size="14.00"> &#160;&#160;swipe(&quot;Right&quot;) &#160;&#160;</text>
</g>
<!-- state_9&#45;&gt;state_9 -->
<g id="edge34" class="edge"><title>state_9&#45;&gt;state_9</title>
<path fill="none" stroke="black" d="M547.113,-711.745C602.904,-715.502 671,-711.587 671,-700 671,-689.115 610.9,-685 557.364,-687.657"/>
<polygon fill="black" stroke="black" points="556.892,-684.178 547.113,-688.255 557.3,-691.166 556.892,-684.178"/>
<text text-anchor="middle" x="720.5" y="-696.3" font-family="Times New Roman,serif" font-size="14.00"> &#160;&#160;swipe(&quot;Left&quot;) &#160;&#160;</text>
</g>
<!-- state_9&#45;&gt;state_9 -->
<g id="edge35" class="edge"><title>state_9&#45;&gt;state_9</title>
<path fill="none" stroke="black" d="M547.143,-715.143C633.927,-724.479 770,-719.431 770,-700 770,-681.309 644.094,-675.927 557.263,-683.853"/>
<polygon fill="black" stroke="black" points="556.748,-680.387 547.143,-684.857 557.44,-687.353 556.748,-680.387"/>
<text text-anchor="middle" x="832.5" y="-696.3" font-family="Times New Roman,serif" font-size="14.00"> &#160;&#160;press(&quot;BackKey&quot;) &#160;&#160;</text>
</g>
<!-- state_9&#45;&gt;state_9 -->
<g id="edge36" class="edge"><title>state_9&#45;&gt;state_9</title>
<path fill="none" stroke="black" d="M547.369,-717.477C666.291,-733.443 895,-727.617 895,-700 895,-673.138 678.628,-666.892 557.364,-681.263"/>
<polygon fill="black" stroke="black" points="556.852,-677.799 547.369,-682.523 557.729,-684.744 556.852,-677.799"/>
<text text-anchor="middle" x="959" y="-696.3" font-family="Times New Roman,serif" font-size="14.00"> &#160;&#160;press(&quot;MenuKey&quot;) &#160;&#160;</text>
</g>
<!-- state_10 -->
<g id="node7" class="node"><title>state_10</title>
<g id="a_node7"><a xlink:href="10.png">
<polygon fill="none" stroke="black" points="455,-534 325,-534 325,-304 455,-304 455,-534"/>
<image xlink:href="10.png" width="130px" height="230px" preserveAspectRatio="xMinYMin meet" x="325" y="-534"/>
</a>
</g>
</g>
<!-- state_9&#45;&gt;state_10 -->
<g id="edge32" class="edge"><title>state_9&#45;&gt;state_10</title>
<path fill="none" stroke="black" d="M446.699,-584.927C443.132,-573.785 439.526,-562.664 436,-552 435.089,-549.246 434.164,-546.461 433.226,-543.655"/>
<polygon fill="black" stroke="black" points="436.499,-542.407 429.997,-534.042 429.863,-544.636 436.499,-542.407"/>
<text text-anchor="middle" x="485.5" y="-555.8" font-family="Times New Roman,serif" font-size="14.00"> &#160;&#160;click(&quot;OK&quot;) &#160;&#160;</text>
</g>
<!-- state_9&#45;&gt;state_final -->
<g id="edge37" class="edge"><title>state_9&#45;&gt;state_final</title>
<path fill="none" stroke="black" d="M547.368,-687.246C671.109,-663.522 931.884,-605.988 984,-534 1013.97,-492.599 1015.43,-344.309 984,-304 912.595,-212.411 559.962,-163.856 403.269,-146.509"/>
<polygon fill="black" stroke="black" points="403.558,-143.019 393.236,-145.411 402.796,-149.978 403.558,-143.019"/>
<text text-anchor="middle" x="1058.5" y="-415.3" font-family="Times New Roman,serif" font-size="14.00"> &#160;&#160;click(&quot;給5星&quot;) &#160;&#160;</text>
</g>
<!-- state_10&#45;&gt;state_5 -->
<g id="edge39" class="edge"><title>state_10&#45;&gt;state_5</title>
<path fill="none" stroke="black" d="M324.965,-509.12C316.701,-523.018 309.038,-537.568 303,-552 256.872,-662.248 326.132,-725.442 247,-815 230.806,-833.327 210.429,-814.024 195,-833 190.161,-838.951 168.994,-1012.54 154.377,-1136.79"/>
<polygon fill="black" stroke="black" points="150.895,-1136.43 153.205,-1146.77 157.848,-1137.24 150.895,-1136.43"/>
<text text-anchor="middle" x="252.5" y="-836.8" font-family="Times New Roman,serif" font-size="14.00"> &#160;&#160;click(&quot;index=0&quot;) &#160;&#160;</text>
</g>
<!-- state_10&#45;&gt;state_10 -->
<g id="edge38" class="edge"><title>state_10&#45;&gt;state_10</title>
<path fill="none" stroke="black" d="M455.072,-425.072C465.697,-424.203 473,-422.179 473,-419 473,-416.964 470.003,-415.401 465.055,-414.313"/>
<polygon fill="black" stroke="black" points="465.458,-410.835 455.072,-412.928 464.496,-417.769 465.458,-410.835"/>
<text text-anchor="middle" x="530.5" y="-415.3" font-family="Times New Roman,serif" font-size="14.00"> &#160;&#160;click(&quot;index=1&quot;) &#160;&#160;</text>
</g>
<!-- state_10&#45;&gt;state_10 -->
<g id="edge40" class="edge"><title>state_10&#45;&gt;state_10</title>
<path fill="none" stroke="black" d="M455.181,-430.592C514.033,-434.605 588,-430.741 588,-419 588,-407.924 522.175,-403.858 465.31,-406.802"/>
<polygon fill="black" stroke="black" points="464.954,-403.317 455.181,-407.408 465.372,-410.305 464.954,-403.317"/>
<text text-anchor="middle" x="641" y="-415.3" font-family="Times New Roman,serif" font-size="14.00"> &#160;&#160;swipe(&quot;Right&quot;) &#160;&#160;</text>
</g>
<!-- state_10&#45;&gt;state_10 -->
<g id="edge41" class="edge"><title>state_10&#45;&gt;state_10</title>
<path fill="none" stroke="black" d="M455.304,-433.88C546.472,-443.571 694,-438.611 694,-419 694,-400.098 556.94,-394.807 465.398,-403.127"/>
<polygon fill="black" stroke="black" points="464.914,-399.657 455.304,-404.12 465.599,-406.624 464.914,-399.657"/>
<text text-anchor="middle" x="743.5" y="-415.3" font-family="Times New Roman,serif" font-size="14.00"> &#160;&#160;swipe(&quot;Left&quot;) &#160;&#160;</text>
</g>
<!-- state_10&#45;&gt;state_10 -->
<g id="edge42" class="edge"><title>state_10&#45;&gt;state_10</title>
<path fill="none" stroke="black" d="M455.087,-436.595C571.617,-452.414 793,-446.549 793,-419 793,-392.231 583.979,-385.936 465.233,-400.114"/>
<polygon fill="black" stroke="black" points="464.565,-396.67 455.087,-401.405 465.45,-403.614 464.565,-396.67"/>
<text text-anchor="middle" x="857" y="-415.3" font-family="Times New Roman,serif" font-size="14.00"> &#160;&#160;press(&quot;MenuKey&quot;) &#160;&#160;</text>
</g>
<!-- state_10&#45;&gt;state_final -->
<g id="edge43" class="edge"><title>state_10&#45;&gt;state_final</title>
<path fill="none" stroke="black" d="M364.603,-303.715C361.616,-290.273 358.557,-276.509 355.543,-262.943"/>
<polygon fill="black" stroke="black" points="358.943,-262.11 353.357,-253.107 352.11,-263.628 358.943,-262.11"/>
<text text-anchor="middle" x="421.5" y="-274.8" font-family="Times New Roman,serif" font-size="14.00"> &#160;&#160;press(&quot;BackKey&quot;) &#160;&#160;</text>
</g>
</g>
</svg>
