<?xml version="1.0" encoding="UTF-8" standalone="no"?>
<!DOCTYPE svg PUBLIC "-//W3C//DTD SVG 1.1//EN"
 "http://www.w3.org/Graphics/SVG/1.1/DTD/svg11.dtd">
<!-- Generated by graphviz version 2.38.0 (20140413.2041)
 -->
<!-- Title: activity_0 Pages: 1 -->
<svg width="1666pt" height="2786pt"
 viewBox="0.00 0.00 1665.81 2786.00" xmlns="http://www.w3.org/2000/svg" xmlns:xlink="http://www.w3.org/1999/xlink">
<g id="graph0" class="graph" transform="scale(1 1) rotate(0) translate(4 2782)">
<title>activity_0</title>
<polygon fill="white" stroke="none" points="-4,4 -4,-2782 1661.81,-2782 1661.81,4 -4,4"/>
<!-- state_0 -->
<g id="node1" class="node"><title>state_0</title>
<g id="a_node1"><a xlink:href="0.png" xlink:title="&lt;TABLE&gt;">
<polygon fill="none" stroke="black" points="991.806,-2778 861.806,-2778 861.806,-2488 991.806,-2488 991.806,-2778"/>
<text text-anchor="start" x="906.806" y="-2766.8" font-family="Times New Roman,serif" font-size="14.00">state_0</text>
<text text-anchor="start" x="896.306" y="-2751.8" font-family="Times New Roman,serif" font-size="14.00">incoming:1</text>
<text text-anchor="start" x="897.306" y="-2736.8" font-family="Times New Roman,serif" font-size="14.00">outgoing:7</text>
<text text-anchor="start" x="908.806" y="-2721.8" font-family="Times New Roman,serif" font-size="14.00">loop:1</text>
<image xlink:href="0.png" width="130px" height="230px" preserveAspectRatio="xMinYMin meet" x="861.806" y="-2718"/>
</a>
</g>
</g>
<!-- state_0&#45;&gt;state_0 -->
<g id="edge1" class="edge"><title>state_0&#45;&gt;state_0</title>
<path fill="none" stroke="black" d="M991.878,-2662.49C1002.5,-2658.27 1009.81,-2648.44 1009.81,-2633 1009.81,-2622.39 1006.35,-2614.42 1000.74,-2609.11"/>
<polygon fill="black" stroke="black" points="1002.2,-2605.89 991.878,-2603.51 998.463,-2611.81 1002.2,-2605.89"/>
<text text-anchor="middle" x="1067.31" y="-2629.3" font-family="Times New Roman,serif" font-size="14.00"> &#160;&#160;click(&quot;index=1&quot;) &#160;&#160;</text>
</g>
<!-- state_2 -->
<g id="node2" class="node"><title>state_2</title>
<g id="a_node2"><a xlink:href="2.png" xlink:title="&lt;TABLE&gt;">
<polygon fill="none" stroke="black" points="372.806,-2096 242.806,-2096 242.806,-1806 372.806,-1806 372.806,-2096"/>
<text text-anchor="start" x="287.806" y="-2084.8" font-family="Times New Roman,serif" font-size="14.00">state_2</text>
<text text-anchor="start" x="277.306" y="-2069.8" font-family="Times New Roman,serif" font-size="14.00">incoming:7</text>
<text text-anchor="start" x="278.306" y="-2054.8" font-family="Times New Roman,serif" font-size="14.00">outgoing:5</text>
<text text-anchor="start" x="289.806" y="-2039.8" font-family="Times New Roman,serif" font-size="14.00">loop:4</text>
<image xlink:href="2.png" width="130px" height="230px" preserveAspectRatio="xMinYMin meet" x="242.806" y="-2036"/>
</a>
</g>
</g>
<!-- state_0&#45;&gt;state_2 -->
<g id="edge2" class="edge"><title>state_0&#45;&gt;state_2</title>
<path fill="none" stroke="black" d="M861.732,-2560.51C745.054,-2432.34 501.132,-2164.38 379.692,-2030.97"/>
<polygon fill="black" stroke="black" points="382.257,-2028.59 372.937,-2023.55 377.08,-2033.3 382.257,-2028.59"/>
<text text-anchor="middle" x="804.306" y="-2288.3" font-family="Times New Roman,serif" font-size="14.00"> &#160;&#160;click(&quot;index=1&quot;) &#160;&#160;</text>
</g>
<!-- state_9 -->
<g id="node6" class="node"><title>state_9</title>
<g id="a_node6"><a xlink:href="9.png" xlink:title="&lt;TABLE&gt;">
<polygon fill="none" stroke="black" points="604.806,-732 474.806,-732 474.806,-442 604.806,-442 604.806,-732"/>
<text text-anchor="start" x="519.806" y="-720.8" font-family="Times New Roman,serif" font-size="14.00">state_9</text>
<text text-anchor="start" x="509.306" y="-705.8" font-family="Times New Roman,serif" font-size="14.00">incoming:7</text>
<text text-anchor="start" x="510.306" y="-690.8" font-family="Times New Roman,serif" font-size="14.00">outgoing:6</text>
<text text-anchor="start" x="521.806" y="-675.8" font-family="Times New Roman,serif" font-size="14.00">loop:4</text>
<image xlink:href="9.png" width="130px" height="230px" preserveAspectRatio="xMinYMin meet" x="474.806" y="-672"/>
</a>
</g>
</g>
<!-- state_0&#45;&gt;state_9 -->
<g id="edge3" class="edge"><title>state_0&#45;&gt;state_9</title>
<path fill="none" stroke="black" d="M925.256,-2487.98C924.38,-2384.04 923.666,-2240.35 924.806,-2114 926.14,-1966.2 930.806,-1929.3 930.806,-1781.5 930.806,-1781.5 930.806,-1781.5 930.806,-927 930.806,-862.445 948.765,-835.928 911.806,-783 841.157,-681.827 701.355,-629.203 614.699,-605.152"/>
<polygon fill="black" stroke="black" points="615.492,-601.74 604.924,-602.497 613.657,-608.496 615.492,-601.74"/>
<text text-anchor="middle" x="988.306" y="-1606.3" font-family="Times New Roman,serif" font-size="14.00"> &#160;&#160;click(&quot;index=3&quot;) &#160;&#160;</text>
</g>
<!-- state_18 -->
<g id="node8" class="node"><title>state_18</title>
<g id="a_node8"><a xlink:href="18.png" xlink:title="&lt;TABLE&gt;">
<polygon fill="none" stroke="black" points="1137.81,-2437 1007.81,-2437 1007.81,-2147 1137.81,-2147 1137.81,-2437"/>
<text text-anchor="start" x="1049.31" y="-2425.8" font-family="Times New Roman,serif" font-size="14.00">state_18</text>
<text text-anchor="start" x="1042.31" y="-2410.8" font-family="Times New Roman,serif" font-size="14.00">incoming:7</text>
<text text-anchor="start" x="1043.31" y="-2395.8" font-family="Times New Roman,serif" font-size="14.00">outgoing:7</text>
<text text-anchor="start" x="1054.81" y="-2380.8" font-family="Times New Roman,serif" font-size="14.00">loop:4</text>
<image xlink:href="18.png" width="130px" height="230px" preserveAspectRatio="xMinYMin meet" x="1007.81" y="-2377"/>
</a>
</g>
</g>
<!-- state_0&#45;&gt;state_18 -->
<g id="edge4" class="edge"><title>state_0&#45;&gt;state_18</title>
<path fill="none" stroke="black" d="M934.474,-2487.81C937.179,-2476.52 940.572,-2465.45 944.806,-2455 957.8,-2422.94 979.189,-2392.02 1000.8,-2365.95"/>
<polygon fill="black" stroke="black" points="1003.72,-2367.92 1007.5,-2358.02 998.373,-2363.4 1003.72,-2367.92"/>
<text text-anchor="middle" x="997.806" y="-2458.8" font-family="Times New Roman,serif" font-size="14.00"> &#160;&#160;swipe(&quot;Right&quot;) &#160;&#160;</text>
</g>
<!-- state_0&#45;&gt;state_18 -->
<g id="edge5" class="edge"><title>state_0&#45;&gt;state_18</title>
<path fill="none" stroke="black" d="M991.932,-2563.75C1014.22,-2536.58 1036.99,-2503.76 1050.81,-2470 1053.85,-2462.56 1056.5,-2454.82 1058.81,-2446.9"/>
<polygon fill="black" stroke="black" points="1062.21,-2447.73 1061.46,-2437.16 1055.46,-2445.89 1062.21,-2447.73"/>
<text text-anchor="middle" x="1105.31" y="-2458.8" font-family="Times New Roman,serif" font-size="14.00"> &#160;&#160;swipe(&quot;Left&quot;) &#160;&#160;</text>
</g>
<!-- state_0&#45;&gt;state_18 -->
<g id="edge6" class="edge"><title>state_0&#45;&gt;state_18</title>
<path fill="none" stroke="black" d="M991.834,-2607.04C1047.48,-2581.79 1123.94,-2536.86 1158.81,-2470 1175.63,-2437.74 1163.57,-2401.69 1143.76,-2370.59"/>
<polygon fill="black" stroke="black" points="1146.45,-2368.32 1137.98,-2361.96 1140.63,-2372.21 1146.45,-2368.32"/>
<text text-anchor="middle" x="1227.81" y="-2458.8" font-family="Times New Roman,serif" font-size="14.00"> &#160;&#160;press(&quot;MenuKey&quot;) &#160;&#160;</text>
</g>
<!-- activity_1 -->
<g id="node9" class="node"><title>activity_1</title>
<ellipse fill="none" stroke="red" cx="204.806" cy="-246" rx="46.2923" ry="18"/>
<text text-anchor="middle" x="204.806" y="-242.3" font-family="Times New Roman,serif" font-size="14.00" fill="red">activity_1</text>
</g>
<!-- state_0&#45;&gt;activity_1 -->
<g id="edge7" class="edge"><title>state_0&#45;&gt;activity_1</title>
<path fill="none" stroke="red" d="M861.692,-2622.64C650.914,-2590.53 0.806186,-2476.61 0.806186,-2293 0.806186,-2293 0.806186,-2293 0.806186,-927 0.806186,-848.088 -2.41856,-827.01 14.8062,-750 57.2302,-560.328 156.326,-346.46 191.848,-273.216"/>
<polygon fill="red" stroke="red" points="195.187,-274.354 196.426,-263.831 188.896,-271.285 195.187,-274.354"/>
<text text-anchor="middle" x="63.3062" y="-1435.8" font-family="Times New Roman,serif" font-size="14.00" fill="red"> &#160;&#160;press(&quot;BackKey&quot;) &#160;&#160;</text>
</g>
<!-- state_2&#45;&gt;state_2 -->
<g id="edge9" class="edge"><title>state_2&#45;&gt;state_2</title>
<path fill="none" stroke="black" d="M372.878,-1958.37C383.504,-1957.32 390.806,-1954.86 390.806,-1951 390.806,-1948.53 387.809,-1946.63 382.862,-1945.31"/>
<polygon fill="black" stroke="black" points="383.32,-1941.84 372.878,-1943.63 382.158,-1948.74 383.32,-1941.84"/>
<text text-anchor="middle" x="443.806" y="-1947.3" font-family="Times New Roman,serif" font-size="14.00"> &#160;&#160;swipe(&quot;Right&quot;) &#160;&#160;</text>
</g>
<!-- state_2&#45;&gt;state_2 -->
<g id="edge10" class="edge"><title>state_2&#45;&gt;state_2</title>
<path fill="none" stroke="black" d="M372.919,-1965.26C428.71,-1969.82 496.806,-1965.07 496.806,-1951 496.806,-1937.78 436.706,-1932.79 383.171,-1936.01"/>
<polygon fill="black" stroke="black" points="382.647,-1932.54 372.919,-1936.74 383.142,-1939.52 382.647,-1932.54"/>
<text text-anchor="middle" x="546.306" y="-1947.3" font-family="Times New Roman,serif" font-size="14.00"> &#160;&#160;swipe(&quot;Left&quot;) &#160;&#160;</text>
</g>
<!-- state_2&#45;&gt;state_2 -->
<g id="edge11" class="edge"><title>state_2&#45;&gt;state_2</title>
<path fill="none" stroke="black" d="M372.949,-1969.39C459.733,-1980.72 595.806,-1974.59 595.806,-1951 595.806,-1928.3 469.9,-1921.77 383.069,-1931.39"/>
<polygon fill="black" stroke="black" points="382.459,-1927.94 372.949,-1932.61 383.296,-1934.89 382.459,-1927.94"/>
<text text-anchor="middle" x="658.306" y="-1947.3" font-family="Times New Roman,serif" font-size="14.00"> &#160;&#160;press(&quot;BackKey&quot;) &#160;&#160;</text>
</g>
<!-- state_2&#45;&gt;state_2 -->
<g id="edge12" class="edge"><title>state_2&#45;&gt;state_2</title>
<path fill="none" stroke="black" d="M373.175,-1972.22C492.097,-1991.61 720.806,-1984.54 720.806,-1951 720.806,-1918.38 504.434,-1910.8 383.17,-1928.25"/>
<polygon fill="black" stroke="black" points="382.53,-1924.8 373.175,-1929.78 383.59,-1931.72 382.53,-1924.8"/>
<text text-anchor="middle" x="784.806" y="-1947.3" font-family="Times New Roman,serif" font-size="14.00"> &#160;&#160;press(&quot;MenuKey&quot;) &#160;&#160;</text>
</g>
<!-- state_3 -->
<g id="node3" class="node"><title>state_3</title>
<g id="a_node3"><a xlink:href="3.png" xlink:title="&lt;TABLE&gt;">
<polygon fill="none" stroke="black" points="242.806,-1755 112.806,-1755 112.806,-1465 242.806,-1465 242.806,-1755"/>
<text text-anchor="start" x="157.806" y="-1743.8" font-family="Times New Roman,serif" font-size="14.00">state_3</text>
<text text-anchor="start" x="147.306" y="-1728.8" font-family="Times New Roman,serif" font-size="14.00">incoming:5</text>
<text text-anchor="start" x="148.306" y="-1713.8" font-family="Times New Roman,serif" font-size="14.00">outgoing:6</text>
<text text-anchor="start" x="159.806" y="-1698.8" font-family="Times New Roman,serif" font-size="14.00">loop:4</text>
<image xlink:href="3.png" width="130px" height="230px" preserveAspectRatio="xMinYMin meet" x="112.806" y="-1695"/>
</a>
</g>
</g>
<!-- state_2&#45;&gt;state_3 -->
<g id="edge8" class="edge"><title>state_2&#45;&gt;state_3</title>
<path fill="none" stroke="black" d="M252.486,-1805.74C247.264,-1792.12 241.957,-1778.29 236.703,-1764.59"/>
<polygon fill="black" stroke="black" points="239.925,-1763.21 233.077,-1755.13 233.389,-1765.72 239.925,-1763.21"/>
<text text-anchor="middle" x="288.306" y="-1776.8" font-family="Times New Roman,serif" font-size="14.00"> &#160;&#160;click(&quot;OK&quot;) &#160;&#160;</text>
</g>
<!-- state_3&#45;&gt;state_3 -->
<g id="edge13" class="edge"><title>state_3&#45;&gt;state_3</title>
<path fill="none" stroke="black" d="M242.878,-1617.37C253.504,-1616.32 260.806,-1613.86 260.806,-1610 260.806,-1607.53 257.809,-1605.63 252.862,-1604.31"/>
<polygon fill="black" stroke="black" points="253.32,-1600.84 242.878,-1602.63 252.158,-1607.74 253.32,-1600.84"/>
<text text-anchor="middle" x="318.306" y="-1606.3" font-family="Times New Roman,serif" font-size="14.00"> &#160;&#160;click(&quot;index=1&quot;) &#160;&#160;</text>
</g>
<!-- state_3&#45;&gt;state_3 -->
<g id="edge15" class="edge"><title>state_3&#45;&gt;state_3</title>
<path fill="none" stroke="black" d="M242.987,-1624.08C301.839,-1628.95 375.806,-1624.26 375.806,-1610 375.806,-1596.55 309.981,-1591.61 253.117,-1595.19"/>
<polygon fill="black" stroke="black" points="252.707,-1591.71 242.987,-1595.92 253.214,-1598.69 252.707,-1591.71"/>
<text text-anchor="middle" x="428.806" y="-1606.3" font-family="Times New Roman,serif" font-size="14.00"> &#160;&#160;swipe(&quot;Right&quot;) &#160;&#160;</text>
</g>
<!-- state_3&#45;&gt;state_3 -->
<g id="edge16" class="edge"><title>state_3&#45;&gt;state_3</title>
<path fill="none" stroke="black" d="M243.111,-1628.07C334.278,-1639.84 481.806,-1633.81 481.806,-1610 481.806,-1587.05 344.747,-1580.62 253.204,-1590.73"/>
<polygon fill="black" stroke="black" points="252.625,-1587.27 243.111,-1591.93 253.455,-1594.22 252.625,-1587.27"/>
<text text-anchor="middle" x="531.306" y="-1606.3" font-family="Times New Roman,serif" font-size="14.00"> &#160;&#160;swipe(&quot;Left&quot;) &#160;&#160;</text>
</g>
<!-- state_3&#45;&gt;state_3 -->
<g id="edge17" class="edge"><title>state_3&#45;&gt;state_3</title>
<path fill="none" stroke="black" d="M242.894,-1631.36C359.423,-1650.57 580.806,-1643.45 580.806,-1610 580.806,-1577.5 371.785,-1569.85 253.039,-1587.07"/>
<polygon fill="black" stroke="black" points="252.241,-1583.65 242.894,-1588.64 253.311,-1590.57 252.241,-1583.65"/>
<text text-anchor="middle" x="644.806" y="-1606.3" font-family="Times New Roman,serif" font-size="14.00"> &#160;&#160;press(&quot;MenuKey&quot;) &#160;&#160;</text>
</g>
<!-- state_5 -->
<g id="node4" class="node"><title>state_5</title>
<g id="a_node4"><a xlink:href="5.png" xlink:title="&lt;TABLE&gt;">
<polygon fill="none" stroke="black" points="242.806,-1414 112.806,-1414 112.806,-1124 242.806,-1124 242.806,-1414"/>
<text text-anchor="start" x="157.806" y="-1402.8" font-family="Times New Roman,serif" font-size="14.00">state_5</text>
<text text-anchor="start" x="147.306" y="-1387.8" font-family="Times New Roman,serif" font-size="14.00">incoming:6</text>
<text text-anchor="start" x="148.306" y="-1372.8" font-family="Times New Roman,serif" font-size="14.00">outgoing:6</text>
<text text-anchor="start" x="159.806" y="-1357.8" font-family="Times New Roman,serif" font-size="14.00">loop:4</text>
<image xlink:href="5.png" width="130px" height="230px" preserveAspectRatio="xMinYMin meet" x="112.806" y="-1354"/>
</a>
</g>
</g>
<!-- state_3&#45;&gt;state_5 -->
<g id="edge14" class="edge"><title>state_3&#45;&gt;state_5</title>
<path fill="none" stroke="black" d="M177.806,-1464.74C177.806,-1451.39 177.806,-1437.82 177.806,-1424.38"/>
<polygon fill="black" stroke="black" points="181.306,-1424.13 177.806,-1414.13 174.306,-1424.13 181.306,-1424.13"/>
<text text-anchor="middle" x="235.306" y="-1435.8" font-family="Times New Roman,serif" font-size="14.00"> &#160;&#160;click(&quot;index=0&quot;) &#160;&#160;</text>
</g>
<!-- final -->
<g id="node10" class="node"><title>final</title>
<image xlink:href="-2.png" width="50px" height="50px" preserveAspectRatio="xMinYMin meet" x="434.806" y="-50"/>
</g>
<!-- state_3&#45;&gt;final -->
<g id="edge18" class="edge"><title>state_3&#45;&gt;final</title>
<path fill="none" stroke="red" d="M144.834,-1464.91C139.662,-1453.34 133.693,-1442.21 126.806,-1432 119.545,-1421.24 109.945,-1425.44 103.806,-1414 -34.2619,-1156.75 -47.249,-316.425 149.806,-101 186.674,-60.695 350.844,-37.968 424.196,-29.6644"/>
<polygon fill="red" stroke="red" points="424.779,-33.1214 434.334,-28.5436 424.009,-26.1638 424.779,-33.1214"/>
<text text-anchor="middle" x="64.3062" y="-753.8" font-family="Times New Roman,serif" font-size="14.00" fill="red"> &#160;&#160;press(&quot;BackKey&quot;) &#160;&#160;</text>
</g>
<!-- state_5&#45;&gt;state_5 -->
<g id="edge20" class="edge"><title>state_5&#45;&gt;state_5</title>
<path fill="none" stroke="black" d="M242.878,-1276.37C253.504,-1275.32 260.806,-1272.86 260.806,-1269 260.806,-1266.53 257.809,-1264.63 252.862,-1263.31"/>
<polygon fill="black" stroke="black" points="253.32,-1259.84 242.878,-1261.63 252.158,-1266.74 253.32,-1259.84"/>
<text text-anchor="middle" x="313.806" y="-1265.3" font-family="Times New Roman,serif" font-size="14.00"> &#160;&#160;swipe(&quot;Right&quot;) &#160;&#160;</text>
</g>
<!-- state_5&#45;&gt;state_5 -->
<g id="edge21" class="edge"><title>state_5&#45;&gt;state_5</title>
<path fill="none" stroke="black" d="M242.919,-1283.26C298.71,-1287.82 366.806,-1283.07 366.806,-1269 366.806,-1255.78 306.706,-1250.79 253.171,-1254.01"/>
<polygon fill="black" stroke="black" points="252.647,-1250.54 242.919,-1254.74 253.142,-1257.52 252.647,-1250.54"/>
<text text-anchor="middle" x="416.306" y="-1265.3" font-family="Times New Roman,serif" font-size="14.00"> &#160;&#160;swipe(&quot;Left&quot;) &#160;&#160;</text>
</g>
<!-- state_5&#45;&gt;state_5 -->
<g id="edge22" class="edge"><title>state_5&#45;&gt;state_5</title>
<path fill="none" stroke="black" d="M242.949,-1287.39C329.733,-1298.72 465.806,-1292.59 465.806,-1269 465.806,-1246.3 339.9,-1239.77 253.069,-1249.39"/>
<polygon fill="black" stroke="black" points="252.459,-1245.94 242.949,-1250.61 253.296,-1252.89 252.459,-1245.94"/>
<text text-anchor="middle" x="528.306" y="-1265.3" font-family="Times New Roman,serif" font-size="14.00"> &#160;&#160;press(&quot;BackKey&quot;) &#160;&#160;</text>
</g>
<!-- state_5&#45;&gt;state_5 -->
<g id="edge23" class="edge"><title>state_5&#45;&gt;state_5</title>
<path fill="none" stroke="black" d="M243.175,-1290.22C362.097,-1309.61 590.806,-1302.54 590.806,-1269 590.806,-1236.38 374.434,-1228.8 253.17,-1246.25"/>
<polygon fill="black" stroke="black" points="252.53,-1242.8 243.175,-1247.78 253.59,-1249.72 252.53,-1242.8"/>
<text text-anchor="middle" x="654.806" y="-1265.3" font-family="Times New Roman,serif" font-size="14.00"> &#160;&#160;press(&quot;MenuKey&quot;) &#160;&#160;</text>
</g>
<!-- state_6 -->
<g id="node5" class="node"><title>state_6</title>
<g id="a_node5"><a xlink:href="6.png" xlink:title="&lt;TABLE&gt;">
<polygon fill="none" stroke="black" points="382.806,-1073 252.806,-1073 252.806,-783 382.806,-783 382.806,-1073"/>
<text text-anchor="start" x="297.806" y="-1061.8" font-family="Times New Roman,serif" font-size="14.00">state_6</text>
<text text-anchor="start" x="287.306" y="-1046.8" font-family="Times New Roman,serif" font-size="14.00">incoming:5</text>
<text text-anchor="start" x="288.306" y="-1031.8" font-family="Times New Roman,serif" font-size="14.00">outgoing:7</text>
<text text-anchor="start" x="299.806" y="-1016.8" font-family="Times New Roman,serif" font-size="14.00">loop:4</text>
<image xlink:href="6.png" width="130px" height="230px" preserveAspectRatio="xMinYMin meet" x="252.806" y="-1013"/>
</a>
</g>
</g>
<!-- state_5&#45;&gt;state_6 -->
<g id="edge19" class="edge"><title>state_5&#45;&gt;state_6</title>
<path fill="none" stroke="black" d="M237.382,-1123.74C243.005,-1110.12 248.721,-1096.29 254.378,-1082.59"/>
<polygon fill="black" stroke="black" points="257.702,-1083.71 258.284,-1073.13 251.232,-1081.04 257.702,-1083.71"/>
<text text-anchor="middle" x="289.306" y="-1094.8" font-family="Times New Roman,serif" font-size="14.00"> &#160;&#160;click(&quot;行&quot;) &#160;&#160;</text>
</g>
<!-- state_5&#45;&gt;activity_1 -->
<g id="edge24" class="edge"><title>state_5&#45;&gt;activity_1</title>
<path fill="none" stroke="red" d="M177.454,-1123.95C177.557,-1020 178.432,-876.311 181.806,-750 186.657,-568.427 198.785,-350.239 203.182,-274.488"/>
<polygon fill="red" stroke="red" points="206.684,-274.553 203.773,-264.366 199.696,-274.145 206.684,-274.553"/>
<text text-anchor="middle" x="233.306" y="-753.8" font-family="Times New Roman,serif" font-size="14.00" fill="red"> &#160;&#160;click(&quot;給5星&quot;) &#160;&#160;</text>
</g>
<!-- state_6&#45;&gt;state_2 -->
<g id="edge26" class="edge"><title>state_6&#45;&gt;state_2</title>
<path fill="none" stroke="black" d="M383.159,-934.453C488.223,-947.143 691.98,-988.814 781.806,-1124 853.137,-1231.35 783.695,-1285.12 781.806,-1414 779.584,-1565.6 857.559,-1629.96 771.806,-1755 682.996,-1884.5 490.231,-1928.28 383.218,-1942.87"/>
<polygon fill="black" stroke="black" points="382.595,-1939.42 373.136,-1944.19 383.506,-1946.36 382.595,-1939.42"/>
<text text-anchor="middle" x="839.306" y="-1435.8" font-family="Times New Roman,serif" font-size="14.00"> &#160;&#160;click(&quot;index=1&quot;) &#160;&#160;</text>
</g>
<!-- state_6&#45;&gt;state_6 -->
<g id="edge25" class="edge"><title>state_6&#45;&gt;state_6</title>
<path fill="none" stroke="black" d="M382.878,-935.373C393.504,-934.318 400.806,-931.86 400.806,-928 400.806,-925.527 397.809,-923.63 392.862,-922.308"/>
<polygon fill="black" stroke="black" points="393.32,-918.836 382.878,-920.627 392.158,-925.739 393.32,-918.836"/>
<text text-anchor="middle" x="458.306" y="-924.3" font-family="Times New Roman,serif" font-size="14.00"> &#160;&#160;click(&quot;index=1&quot;) &#160;&#160;</text>
</g>
<!-- state_6&#45;&gt;state_6 -->
<g id="edge28" class="edge"><title>state_6&#45;&gt;state_6</title>
<path fill="none" stroke="black" d="M382.987,-942.076C441.839,-946.948 515.806,-942.257 515.806,-928 515.806,-914.551 449.981,-909.614 393.117,-913.188"/>
<polygon fill="black" stroke="black" points="392.707,-909.709 382.987,-913.924 393.214,-916.69 392.707,-909.709"/>
<text text-anchor="middle" x="568.806" y="-924.3" font-family="Times New Roman,serif" font-size="14.00"> &#160;&#160;swipe(&quot;Right&quot;) &#160;&#160;</text>
</g>
<!-- state_6&#45;&gt;state_6 -->
<g id="edge29" class="edge"><title>state_6&#45;&gt;state_6</title>
<path fill="none" stroke="black" d="M383.111,-946.069C474.278,-957.836 621.806,-951.813 621.806,-928 621.806,-905.048 484.747,-898.623 393.204,-908.725"/>
<polygon fill="black" stroke="black" points="392.625,-905.269 383.111,-909.931 393.455,-912.22 392.625,-905.269"/>
<text text-anchor="middle" x="671.306" y="-924.3" font-family="Times New Roman,serif" font-size="14.00"> &#160;&#160;swipe(&quot;Left&quot;) &#160;&#160;</text>
</g>
<!-- state_6&#45;&gt;state_6 -->
<g id="edge30" class="edge"><title>state_6&#45;&gt;state_6</title>
<path fill="none" stroke="black" d="M382.894,-949.365C499.423,-968.574 720.806,-961.452 720.806,-928 720.806,-895.495 511.785,-887.851 393.039,-905.066"/>
<polygon fill="black" stroke="black" points="392.241,-901.648 382.894,-906.635 393.311,-908.566 392.241,-901.648"/>
<text text-anchor="middle" x="784.806" y="-924.3" font-family="Times New Roman,serif" font-size="14.00"> &#160;&#160;press(&quot;MenuKey&quot;) &#160;&#160;</text>
</g>
<!-- state_6&#45;&gt;state_9 -->
<g id="edge27" class="edge"><title>state_6&#45;&gt;state_9</title>
<path fill="none" stroke="black" d="M383.002,-872.237C414.485,-843.037 450.767,-804.945 475.806,-765 480.586,-757.375 485.077,-749.343 489.288,-741.079"/>
<polygon fill="black" stroke="black" points="492.467,-742.546 493.747,-732.028 486.188,-739.452 492.467,-742.546"/>
<text text-anchor="middle" x="541.306" y="-753.8" font-family="Times New Roman,serif" font-size="14.00"> &#160;&#160;click(&quot;index=3&quot;) &#160;&#160;</text>
</g>
<!-- state_6&#45;&gt;activity_1 -->
<g id="edge31" class="edge"><title>state_6&#45;&gt;activity_1</title>
<path fill="none" stroke="red" d="M293.842,-782.789C266.347,-617.334 223.259,-358.042 209.319,-274.157"/>
<polygon fill="red" stroke="red" points="212.75,-273.451 207.658,-264.16 205.844,-274.598 212.75,-273.451"/>
<text text-anchor="middle" x="348.306" y="-583.3" font-family="Times New Roman,serif" font-size="14.00" fill="red"> &#160;&#160;press(&quot;BackKey&quot;) &#160;&#160;</text>
</g>
<!-- state_9&#45;&gt;state_9 -->
<g id="edge33" class="edge"><title>state_9&#45;&gt;state_9</title>
<path fill="none" stroke="black" d="M604.878,-594.373C615.504,-593.318 622.806,-590.86 622.806,-587 622.806,-584.527 619.809,-582.63 614.862,-581.308"/>
<polygon fill="black" stroke="black" points="615.32,-577.836 604.878,-579.627 614.158,-584.739 615.32,-577.836"/>
<text text-anchor="middle" x="675.806" y="-583.3" font-family="Times New Roman,serif" font-size="14.00"> &#160;&#160;swipe(&quot;Right&quot;) &#160;&#160;</text>
</g>
<!-- state_9&#45;&gt;state_9 -->
<g id="edge34" class="edge"><title>state_9&#45;&gt;state_9</title>
<path fill="none" stroke="black" d="M604.919,-601.262C660.71,-605.824 728.806,-601.07 728.806,-587 728.806,-573.782 668.706,-568.786 615.171,-572.012"/>
<polygon fill="black" stroke="black" points="614.647,-568.54 604.919,-572.738 615.142,-575.522 614.647,-568.54"/>
<text text-anchor="middle" x="778.306" y="-583.3" font-family="Times New Roman,serif" font-size="14.00"> &#160;&#160;swipe(&quot;Left&quot;) &#160;&#160;</text>
</g>
<!-- state_9&#45;&gt;state_9 -->
<g id="edge35" class="edge"><title>state_9&#45;&gt;state_9</title>
<path fill="none" stroke="black" d="M604.949,-605.387C691.733,-616.724 827.806,-610.595 827.806,-587 827.806,-564.304 701.9,-557.768 615.069,-567.393"/>
<polygon fill="black" stroke="black" points="614.459,-563.941 604.949,-568.613 615.296,-570.891 614.459,-563.941"/>
<text text-anchor="middle" x="890.306" y="-583.3" font-family="Times New Roman,serif" font-size="14.00"> &#160;&#160;press(&quot;BackKey&quot;) &#160;&#160;</text>
</g>
<!-- state_9&#45;&gt;state_9 -->
<g id="edge36" class="edge"><title>state_9&#45;&gt;state_9</title>
<path fill="none" stroke="black" d="M605.175,-608.221C724.097,-627.609 952.806,-620.535 952.806,-587 952.806,-554.382 736.434,-546.798 615.17,-564.248"/>
<polygon fill="black" stroke="black" points="614.53,-560.805 605.175,-565.779 615.59,-567.724 614.53,-560.805"/>
<text text-anchor="middle" x="1016.81" y="-583.3" font-family="Times New Roman,serif" font-size="14.00"> &#160;&#160;press(&quot;MenuKey&quot;) &#160;&#160;</text>
</g>
<!-- state_10 -->
<g id="node7" class="node"><title>state_10</title>
<g id="a_node7"><a xlink:href="10.png" xlink:title="&lt;TABLE&gt;">
<polygon fill="none" stroke="black" points="524.806,-391 394.806,-391 394.806,-101 524.806,-101 524.806,-391"/>
<text text-anchor="start" x="436.306" y="-379.8" font-family="Times New Roman,serif" font-size="14.00">state_10</text>
<text text-anchor="start" x="429.306" y="-364.8" font-family="Times New Roman,serif" font-size="14.00">incoming:5</text>
<text text-anchor="start" x="430.306" y="-349.8" font-family="Times New Roman,serif" font-size="14.00">outgoing:6</text>
<text text-anchor="start" x="441.806" y="-334.8" font-family="Times New Roman,serif" font-size="14.00">loop:4</text>
<image xlink:href="10.png" width="130px" height="230px" preserveAspectRatio="xMinYMin meet" x="394.806" y="-331"/>
</a>
</g>
</g>
<!-- state_9&#45;&gt;state_10 -->
<g id="edge32" class="edge"><title>state_9&#45;&gt;state_10</title>
<path fill="none" stroke="black" d="M524.54,-441.593C522.551,-430.512 520.316,-419.543 517.806,-409 517.179,-406.366 516.524,-403.716 515.843,-401.054"/>
<polygon fill="black" stroke="black" points="519.221,-400.136 513.271,-391.37 512.455,-401.933 519.221,-400.136"/>
<text text-anchor="middle" x="567.306" y="-412.8" font-family="Times New Roman,serif" font-size="14.00"> &#160;&#160;click(&quot;OK&quot;) &#160;&#160;</text>
</g>
<!-- state_9&#45;&gt;activity_1 -->
<g id="edge37" class="edge"><title>state_9&#45;&gt;activity_1</title>
<path fill="none" stroke="red" d="M474.42,-519.833C398.714,-443.223 278.004,-321.071 227.837,-270.306"/>
<polygon fill="red" stroke="red" points="230.203,-267.72 220.684,-263.068 225.224,-272.641 230.203,-267.72"/>
<text text-anchor="middle" x="424.306" y="-412.8" font-family="Times New Roman,serif" font-size="14.00" fill="red"> &#160;&#160;click(&quot;給5星&quot;) &#160;&#160;</text>
</g>
<!-- state_10&#45;&gt;state_5 -->
<g id="edge39" class="edge"><title>state_10&#45;&gt;state_5</title>
<path fill="none" stroke="black" d="M399.518,-391.157C397.794,-397.141 396.212,-403.104 394.806,-409 361.392,-549.166 451.525,-615.442 366.806,-732 344.675,-762.448 323.616,-750.676 288.806,-765 268.886,-773.197 257.06,-766.02 243.806,-783 233.516,-796.183 210.921,-976.579 195.048,-1113.54"/>
<polygon fill="black" stroke="black" points="191.54,-1113.4 193.869,-1123.73 198.494,-1114.2 191.54,-1113.4"/>
<text text-anchor="middle" x="404.306" y="-753.8" font-family="Times New Roman,serif" font-size="14.00"> &#160;&#160;click(&quot;index=0&quot;) &#160;&#160;</text>
</g>
<!-- state_10&#45;&gt;state_10 -->
<g id="edge38" class="edge"><title>state_10&#45;&gt;state_10</title>
<path fill="none" stroke="black" d="M524.878,-253.373C535.504,-252.318 542.806,-249.86 542.806,-246 542.806,-243.527 539.809,-241.63 534.862,-240.308"/>
<polygon fill="black" stroke="black" points="535.32,-236.836 524.878,-238.627 534.158,-243.739 535.32,-236.836"/>
<text text-anchor="middle" x="600.306" y="-242.3" font-family="Times New Roman,serif" font-size="14.00"> &#160;&#160;click(&quot;index=1&quot;) &#160;&#160;</text>
</g>
<!-- state_10&#45;&gt;state_10 -->
<g id="edge40" class="edge"><title>state_10&#45;&gt;state_10</title>
<path fill="none" stroke="black" d="M524.987,-260.076C583.839,-264.948 657.806,-260.257 657.806,-246 657.806,-232.551 591.981,-227.614 535.117,-231.188"/>
<polygon fill="black" stroke="black" points="534.707,-227.709 524.987,-231.924 535.214,-234.69 534.707,-227.709"/>
<text text-anchor="middle" x="710.806" y="-242.3" font-family="Times New Roman,serif" font-size="14.00"> &#160;&#160;swipe(&quot;Right&quot;) &#160;&#160;</text>
</g>
<!-- state_10&#45;&gt;state_10 -->
<g id="edge41" class="edge"><title>state_10&#45;&gt;state_10</title>
<path fill="none" stroke="black" d="M525.111,-264.069C616.278,-275.836 763.806,-269.813 763.806,-246 763.806,-223.048 626.747,-216.623 535.204,-226.725"/>
<polygon fill="black" stroke="black" points="534.625,-223.269 525.111,-227.931 535.455,-230.22 534.625,-223.269"/>
<text text-anchor="middle" x="813.306" y="-242.3" font-family="Times New Roman,serif" font-size="14.00"> &#160;&#160;swipe(&quot;Left&quot;) &#160;&#160;</text>
</g>
<!-- state_10&#45;&gt;state_10 -->
<g id="edge42" class="edge"><title>state_10&#45;&gt;state_10</title>
<path fill="none" stroke="black" d="M524.894,-267.365C641.423,-286.574 862.806,-279.452 862.806,-246 862.806,-213.495 653.785,-205.851 535.039,-223.066"/>
<polygon fill="black" stroke="black" points="534.241,-219.648 524.894,-224.635 535.311,-226.566 534.241,-219.648"/>
<text text-anchor="middle" x="926.806" y="-242.3" font-family="Times New Roman,serif" font-size="14.00"> &#160;&#160;press(&quot;MenuKey&quot;) &#160;&#160;</text>
</g>
<!-- state_10&#45;&gt;final -->
<g id="edge43" class="edge"><title>state_10&#45;&gt;final</title>
<path fill="none" stroke="red" d="M459.806,-100.755C459.806,-85.9168 459.806,-72.0283 459.806,-60.3452"/>
<polygon fill="red" stroke="red" points="463.306,-60.2719 459.806,-50.2719 456.306,-60.272 463.306,-60.2719"/>
<text text-anchor="middle" x="522.306" y="-71.8" font-family="Times New Roman,serif" font-size="14.00" fill="red"> &#160;&#160;press(&quot;BackKey&quot;) &#160;&#160;</text>
</g>
<!-- state_18&#45;&gt;state_2 -->
<g id="edge45" class="edge"><title>state_18&#45;&gt;state_2</title>
<path fill="none" stroke="black" d="M1007.58,-2262.1C866.158,-2199.43 532.007,-2051.35 382.445,-1985.08"/>
<polygon fill="black" stroke="black" points="383.425,-1981.68 372.865,-1980.83 380.589,-1988.08 383.425,-1981.68"/>
<text text-anchor="middle" x="748.306" y="-2117.8" font-family="Times New Roman,serif" font-size="14.00"> &#160;&#160;click(&quot;index=1&quot;) &#160;&#160;</text>
</g>
<!-- state_18&#45;&gt;state_9 -->
<g id="edge46" class="edge"><title>state_18&#45;&gt;state_9</title>
<path fill="none" stroke="black" d="M1073.42,-2146.66C1073.63,-2086.48 1073.81,-2015.86 1073.81,-1952 1073.81,-1952 1073.81,-1952 1073.81,-927 1073.81,-712.175 761.966,-627.714 614.889,-599.825"/>
<polygon fill="black" stroke="black" points="615.489,-596.377 605.018,-597.991 614.21,-603.259 615.489,-596.377"/>
<text text-anchor="middle" x="1131.31" y="-1435.8" font-family="Times New Roman,serif" font-size="14.00"> &#160;&#160;click(&quot;index=3&quot;) &#160;&#160;</text>
</g>
<!-- state_18&#45;&gt;state_18 -->
<g id="edge44" class="edge"><title>state_18&#45;&gt;state_18</title>
<path fill="none" stroke="black" d="M1137.88,-2299.37C1148.5,-2298.32 1155.81,-2295.86 1155.81,-2292 1155.81,-2289.53 1152.81,-2287.63 1147.86,-2286.31"/>
<polygon fill="black" stroke="black" points="1148.32,-2282.84 1137.88,-2284.63 1147.16,-2289.74 1148.32,-2282.84"/>
<text text-anchor="middle" x="1213.31" y="-2288.3" font-family="Times New Roman,serif" font-size="14.00"> &#160;&#160;click(&quot;index=1&quot;) &#160;&#160;</text>
</g>
<!-- state_18&#45;&gt;state_18 -->
<g id="edge47" class="edge"><title>state_18&#45;&gt;state_18</title>
<path fill="none" stroke="black" d="M1137.99,-2306.08C1196.84,-2310.95 1270.81,-2306.26 1270.81,-2292 1270.81,-2278.55 1204.98,-2273.61 1148.12,-2277.19"/>
<polygon fill="black" stroke="black" points="1147.71,-2273.71 1137.99,-2277.92 1148.21,-2280.69 1147.71,-2273.71"/>
<text text-anchor="middle" x="1323.81" y="-2288.3" font-family="Times New Roman,serif" font-size="14.00"> &#160;&#160;swipe(&quot;Right&quot;) &#160;&#160;</text>
</g>
<!-- state_18&#45;&gt;state_18 -->
<g id="edge48" class="edge"><title>state_18&#45;&gt;state_18</title>
<path fill="none" stroke="black" d="M1138.11,-2310.07C1229.28,-2321.84 1376.81,-2315.81 1376.81,-2292 1376.81,-2269.05 1239.75,-2262.62 1148.2,-2272.73"/>
<polygon fill="black" stroke="black" points="1147.62,-2269.27 1138.11,-2273.93 1148.46,-2276.22 1147.62,-2269.27"/>
<text text-anchor="middle" x="1426.31" y="-2288.3" font-family="Times New Roman,serif" font-size="14.00"> &#160;&#160;swipe(&quot;Left&quot;) &#160;&#160;</text>
</g>
<!-- state_18&#45;&gt;state_18 -->
<g id="edge49" class="edge"><title>state_18&#45;&gt;state_18</title>
<path fill="none" stroke="black" d="M1137.89,-2313.36C1254.42,-2332.57 1475.81,-2325.45 1475.81,-2292 1475.81,-2259.5 1266.79,-2251.85 1148.04,-2269.07"/>
<polygon fill="black" stroke="black" points="1147.24,-2265.65 1137.89,-2270.64 1148.31,-2272.57 1147.24,-2265.65"/>
<text text-anchor="middle" x="1539.81" y="-2288.3" font-family="Times New Roman,serif" font-size="14.00"> &#160;&#160;press(&quot;MenuKey&quot;) &#160;&#160;</text>
</g>
<!-- state_18&#45;&gt;final -->
<g id="edge50" class="edge"><title>state_18&#45;&gt;final</title>
<path fill="none" stroke="red" d="M1137.92,-2182.83C1170.8,-2118.17 1203.81,-2033.08 1203.81,-1952 1203.81,-1952 1203.81,-1952 1203.81,-245 1203.81,-152.585 1137.21,-140.805 1053.81,-101 953.615,-53.1823 607.057,-32.9457 495.032,-27.5549"/>
<polygon fill="red" stroke="red" points="495.093,-24.054 484.939,-27.0792 494.764,-31.0462 495.093,-24.054"/>
<text text-anchor="middle" x="1266.31" y="-1094.8" font-family="Times New Roman,serif" font-size="14.00" fill="red"> &#160;&#160;press(&quot;BackKey&quot;) &#160;&#160;</text>
</g>
</g>
</svg>
