<?xml version="1.0" encoding="UTF-8" standalone="no"?>
<!DOCTYPE svg PUBLIC "-//W3C//DTD SVG 1.1//EN"
 "http://www.w3.org/Graphics/SVG/1.1/DTD/svg11.dtd">
<!-- Generated by graphviz version 2.38.0 (20140413.2041)
 -->
<!-- Title: result Pages: 1 -->
<svg width="567pt" height="286pt"
 viewBox="0.00 0.00 567.29 286.44" xmlns="http://www.w3.org/2000/svg" xmlns:xlink="http://www.w3.org/1999/xlink">
<g id="graph0" class="graph" transform="scale(1 1) rotate(0) translate(4 282.443)">
<title>result</title>
<polygon fill="white" stroke="none" points="-4,4 -4,-282.443 563.292,-282.443 563.292,4 -4,4"/>
<!-- initial -->
<g id="node1" class="node"><title>initial</title>
<image xlink:href="-1.png" width="50px" height="50px" preserveAspectRatio="xMinYMin meet" x="0" y="-165.943"/>
</g>
<!-- activity_0 -->
<g id="node2" class="node"><title>activity_0</title>
<g id="a_node2"><a xlink:href="activity_0.svg" xlink:title="&lt;TABLE&gt;">
<polygon fill="none" stroke="black" points="217,-278.443 87,-278.443 87,-3.44348 217,-3.44348 217,-278.443"/>
<text text-anchor="start" x="124.5" y="-266.743" font-family="Times New Roman,serif" font-size="14.00">activity_0</text>
<text text-anchor="start" x="121.5" y="-251.743" font-family="Times New Roman,serif" font-size="14.00">incoming:0</text>
<text text-anchor="start" x="122.5" y="-236.743" font-family="Times New Roman,serif" font-size="14.00">outgoing:7</text>
<image xlink:href="0.png" width="130px" height="230px" preserveAspectRatio="xMinYMin meet" x="87" y="-232.943"/>
</a>
</g>
</g>
<!-- initial&#45;&gt;activity_0 -->
<g id="edge1" class="edge"><title>initial&#45;&gt;activity_0</title>
<path fill="none" stroke="black" d="M50.1013,-140.943C57.9994,-140.943 67.2332,-140.943 76.8484,-140.943"/>
<polygon fill="black" stroke="black" points="76.9667,-144.444 86.9666,-140.943 76.9666,-137.444 76.9667,-144.444"/>
</g>
<!-- final -->
<g id="node3" class="node"><title>final</title>
<image xlink:href="-2.png" width="50px" height="50px" preserveAspectRatio="xMinYMin meet" x="488.146" y="-241.943"/>
</g>
<!-- activity_0&#45;&gt;final -->
<g id="edge3" class="edge"><title>activity_0&#45;&gt;final</title>
<path fill="none" stroke="black" d="M217.126,-222.558C222.785,-226.605 228.752,-230.143 235,-232.943 315.98,-269.243 423.848,-245.047 478.03,-228.601"/>
<polygon fill="black" stroke="black" points="479.319,-231.865 487.815,-225.536 477.226,-225.185 479.319,-231.865"/>
<text text-anchor="middle" x="342" y="-254.743" font-family="Times New Roman,serif" font-size="14.00"> &#160;&#160;&lt;a0.s3,press(&quot;BackKey&quot;),final&gt; &#160;&#160;</text>
</g>
<!-- activity_0&#45;&gt;final -->
<g id="edge7" class="edge"><title>activity_0&#45;&gt;final</title>
<path fill="none" stroke="black" d="M217.26,-187.388C223.081,-190.311 229.035,-192.895 235,-194.943 257.37,-202.625 407.964,-211.441 477.311,-215.151"/>
<polygon fill="black" stroke="black" points="477.54,-218.668 487.711,-215.702 477.91,-211.678 477.54,-218.668"/>
<text text-anchor="middle" x="342" y="-216.743" font-family="Times New Roman,serif" font-size="14.00"> &#160;&#160;&lt;a0.s10,press(&quot;BackKey&quot;),final&gt; &#160;&#160;</text>
</g>
<!-- activity_0&#45;&gt;final -->
<g id="edge8" class="edge"><title>activity_0&#45;&gt;final</title>
<path fill="none" stroke="black" d="M217.351,-154.157C223.304,-155.181 229.255,-156.13 235,-156.943 329.543,-170.327 358.736,-144.802 449,-175.943 459.69,-179.632 470.367,-185.51 479.818,-191.676"/>
<polygon fill="black" stroke="black" points="477.891,-194.599 488.119,-197.366 481.849,-188.825 477.891,-194.599"/>
<text text-anchor="middle" x="342" y="-179.743" font-family="Times New Roman,serif" font-size="14.00"> &#160;&#160;&lt;a0.s18,press(&quot;BackKey&quot;),final&gt; &#160;&#160;</text>
</g>
<!-- activity_1 -->
<g id="node4" class="node"><title>activity_1</title>
<ellipse fill="none" stroke="black" cx="513.146" cy="-83.9435" rx="46.2923" ry="18"/>
<text text-anchor="middle" x="513.146" y="-80.2435" font-family="Times New Roman,serif" font-size="14.00">activity_1</text>
</g>
<!-- activity_0&#45;&gt;activity_1 -->
<g id="edge2" class="edge"><title>activity_0&#45;&gt;activity_1</title>
<path fill="none" stroke="black" d="M217.213,-139.385C290.958,-137.032 407.153,-131.438 449,-118.943 459.942,-115.676 471.094,-110.301 480.921,-104.733"/>
<polygon fill="black" stroke="black" points="482.718,-107.736 489.528,-99.6197 479.143,-101.718 482.718,-107.736"/>
<text text-anchor="middle" x="342" y="-141.743" font-family="Times New Roman,serif" font-size="14.00"> &#160;&#160;&lt;a0.s0,press(&quot;BackKey&quot;),a1.s34&gt; &#160;&#160;</text>
</g>
<!-- activity_0&#45;&gt;activity_1 -->
<g id="edge4" class="edge"><title>activity_0&#45;&gt;activity_1</title>
<path fill="none" stroke="black" d="M217.403,-105.776C223.24,-103.502 229.156,-101.502 235,-99.9435 275.363,-89.1777 388.143,-85.6555 456.758,-84.5034"/>
<polygon fill="black" stroke="black" points="457.016,-87.9999 466.96,-84.344 456.907,-81.0007 457.016,-87.9999"/>
<text text-anchor="middle" x="342" y="-103.743" font-family="Times New Roman,serif" font-size="14.00"> &#160;&#160;&lt;a0.s5,click(&quot;給5星&quot;),a1.s34&gt; &#160;&#160;</text>
</g>
<!-- activity_0&#45;&gt;activity_1 -->
<g id="edge5" class="edge"><title>activity_0&#45;&gt;activity_1</title>
<path fill="none" stroke="black" d="M217.184,-74.0447C222.898,-70.4628 228.856,-67.3528 235,-64.9435 312.512,-34.547 411.516,-53.7869 467.777,-69.541"/>
<polygon fill="black" stroke="black" points="466.856,-72.9181 477.435,-72.3295 468.798,-66.1928 466.856,-72.9181"/>
<text text-anchor="middle" x="342" y="-68.7435" font-family="Times New Roman,serif" font-size="14.00"> &#160;&#160;&lt;a0.s6,press(&quot;BackKey&quot;),a1.s34&gt; &#160;&#160;</text>
</g>
<!-- activity_0&#45;&gt;activity_1 -->
<g id="edge6" class="edge"><title>activity_0&#45;&gt;activity_1</title>
<path fill="none" stroke="black" d="M217.095,-40.6148C222.692,-36.1214 228.66,-32.1594 235,-28.9435 319.823,14.0811 359.928,4.40852 449,-28.9435 465.418,-35.091 480.379,-47.6503 491.614,-59.2171"/>
<polygon fill="black" stroke="black" points="489.078,-61.63 498.436,-66.5974 494.218,-56.8783 489.078,-61.63"/>
<text text-anchor="middle" x="342" y="-32.7435" font-family="Times New Roman,serif" font-size="14.00"> &#160;&#160;&lt;a0.s9,click(&quot;給5星&quot;),a1.s34&gt; &#160;&#160;</text>
</g>
</g>
</svg>
