<?xml version="1.0" encoding="UTF-8" standalone="no"?>
<!DOCTYPE svg PUBLIC "-//W3C//DTD SVG 1.1//EN"
 "http://www.w3.org/Graphics/SVG/1.1/DTD/svg11.dtd">
<!-- Generated by graphviz version 2.38.0 (20140413.2041)
 -->
<!-- Title: g Pages: 1 -->
<svg width="1665pt" height="2509pt"
 viewBox="0.00 0.00 1665.14 2509.00" xmlns="http://www.w3.org/2000/svg" xmlns:xlink="http://www.w3.org/1999/xlink">
<g id="graph0" class="graph" transform="scale(1 1) rotate(0) translate(4 2505)">
<title>g</title>
<polygon fill="white" stroke="none" points="-4,4 -4,-2505 1661.14,-2505 1661.14,4 -4,4"/>
<text text-anchor="middle" x="828.569" y="-7.8" font-family="Times New Roman,serif" font-size="14.00"> &#160;&#160;activity_1 &#160;&#160;</text>
<!-- state_0 -->
<g id="node1" class="node"><title>state_0</title>
<g id="a_node1"><a xlink:href="0.png">
<polygon fill="none" stroke="black" points="991.138,-2501 861.138,-2501 861.138,-2271 991.138,-2271 991.138,-2501"/>
<image xlink:href="0.png" width="130px" height="230px" preserveAspectRatio="xMinYMin meet" x="861.138" y="-2501"/>
</a>
</g>
</g>
<!-- state_0&#45;&gt;state_0 -->
<g id="edge1" class="edge"><title>state_0&#45;&gt;state_0</title>
<path fill="none" stroke="black" d="M991.21,-2410.29C1001.84,-2406.81 1009.14,-2398.71 1009.14,-2386 1009.14,-2377.46 1005.84,-2371 1000.46,-2366.63"/>
<polygon fill="black" stroke="black" points="1001.68,-2363.32 991.21,-2361.71 998.397,-2369.5 1001.68,-2363.32"/>
<text text-anchor="middle" x="1066.64" y="-2382.3" font-family="Times New Roman,serif" font-size="14.00"> &#160;&#160;click(&quot;index=1&quot;) &#160;&#160;</text>
</g>
<!-- state_2 -->
<g id="node2" class="node"><title>state_2</title>
<g id="a_node2"><a xlink:href="2.png">
<polygon fill="none" stroke="black" points="372.138,-1939 242.138,-1939 242.138,-1709 372.138,-1709 372.138,-1939"/>
<image xlink:href="2.png" width="130px" height="230px" preserveAspectRatio="xMinYMin meet" x="242.138" y="-1939"/>
</a>
</g>
</g>
<!-- state_0&#45;&gt;state_2 -->
<g id="edge2" class="edge"><title>state_0&#45;&gt;state_2</title>
<path fill="none" stroke="black" d="M861.064,-2326.13C744.618,-2220.78 501.434,-2000.78 379.75,-1890.69"/>
<polygon fill="black" stroke="black" points="382.033,-1888.04 372.269,-1883.92 377.336,-1893.23 382.033,-1888.04"/>
<text text-anchor="middle" x="794.638" y="-2101.3" font-family="Times New Roman,serif" font-size="14.00"> &#160;&#160;click(&quot;index=1&quot;) &#160;&#160;</text>
</g>
<!-- state_9 -->
<g id="node6" class="node"><title>state_9</title>
<g id="a_node6"><a xlink:href="9.png">
<polygon fill="none" stroke="black" points="604.138,-815 474.138,-815 474.138,-585 604.138,-585 604.138,-815"/>
<image xlink:href="9.png" width="130px" height="230px" preserveAspectRatio="xMinYMin meet" x="474.138" y="-815"/>
</a>
</g>
</g>
<!-- state_0&#45;&gt;state_9 -->
<g id="edge3" class="edge"><title>state_0&#45;&gt;state_9</title>
<path fill="none" stroke="black" d="M924.629,-2270.55C923.73,-2184.35 922.968,-2063.25 924.138,-1957 925.471,-1835.87 930.138,-1805.64 930.138,-1684.5 930.138,-1684.5 930.138,-1684.5 930.138,-980 930.138,-928.634 942.6,-906.602 911.138,-866 838.188,-771.856 700.006,-730.152 614.135,-712.647"/>
<polygon fill="black" stroke="black" points="614.678,-709.187 604.189,-710.68 613.32,-716.054 614.678,-709.187"/>
<text text-anchor="middle" x="987.638" y="-1539.3" font-family="Times New Roman,serif" font-size="14.00"> &#160;&#160;click(&quot;index=3&quot;) &#160;&#160;</text>
</g>
<!-- state_18 -->
<g id="node8" class="node"><title>state_18</title>
<g id="a_node8"><a xlink:href="18.png">
<polygon fill="none" stroke="black" points="1137.14,-2220 1007.14,-2220 1007.14,-1990 1137.14,-1990 1137.14,-2220"/>
<image xlink:href="18.png" width="130px" height="230px" preserveAspectRatio="xMinYMin meet" x="1007.14" y="-2220"/>
</a>
</g>
</g>
<!-- state_0&#45;&gt;state_18 -->
<g id="edge4" class="edge"><title>state_0&#45;&gt;state_18</title>
<path fill="none" stroke="black" d="M932.591,-2270.92C935.44,-2259.5 939.203,-2248.32 944.138,-2238 957.25,-2210.57 978.32,-2185.28 999.613,-2164.34"/>
<polygon fill="black" stroke="black" points="1002.04,-2166.86 1006.83,-2157.41 997.195,-2161.81 1002.04,-2166.86"/>
<text text-anchor="middle" x="997.138" y="-2241.8" font-family="Times New Roman,serif" font-size="14.00"> &#160;&#160;swipe(&quot;Right&quot;) &#160;&#160;</text>
</g>
<!-- state_0&#45;&gt;state_18 -->
<g id="edge5" class="edge"><title>state_0&#45;&gt;state_18</title>
<path fill="none" stroke="black" d="M991.258,-2330.82C1013.4,-2308.94 1036.08,-2282 1050.14,-2253 1053.7,-2245.65 1056.72,-2237.88 1059.27,-2229.89"/>
<polygon fill="black" stroke="black" points="1062.7,-2230.64 1062.16,-2220.06 1055.98,-2228.67 1062.7,-2230.64"/>
<text text-anchor="middle" x="1105.64" y="-2241.8" font-family="Times New Roman,serif" font-size="14.00"> &#160;&#160;swipe(&quot;Left&quot;) &#160;&#160;</text>
</g>
<!-- state_0&#45;&gt;state_18 -->
<g id="edge6" class="edge"><title>state_0&#45;&gt;state_18</title>
<path fill="none" stroke="black" d="M991.275,-2368.03C1046.84,-2349.72 1123.26,-2314.56 1159.14,-2253 1174.77,-2226.18 1163.07,-2196.72 1143.78,-2171.26"/>
<polygon fill="black" stroke="black" points="1146.26,-2168.75 1137.28,-2163.14 1140.8,-2173.13 1146.26,-2168.75"/>
<text text-anchor="middle" x="1228.14" y="-2241.8" font-family="Times New Roman,serif" font-size="14.00"> &#160;&#160;press(&quot;MenuKey&quot;) &#160;&#160;</text>
</g>
<!-- state_34 -->
<g id="node10" class="node"><title>state_34</title>
<g id="a_node10"><a xlink:href="34.png">
<polygon fill="none" stroke="black" points="269.138,-534 139.138,-534 139.138,-304 269.138,-304 269.138,-534"/>
<image xlink:href="34.png" width="130px" height="230px" preserveAspectRatio="xMinYMin meet" x="139.138" y="-534"/>
</a>
</g>
</g>
<!-- state_0&#45;&gt;state_34 -->
<g id="edge7" class="edge"><title>state_0&#45;&gt;state_34</title>
<path fill="none" stroke="black" d="M861.024,-2379.58C650.246,-2360.26 0.138042,-2286.08 0.138042,-2106 0.138042,-2106 0.138042,-2106 0.138042,-980 0.138042,-914.231 -0.414125,-896.383 17.138,-833 45.2017,-731.658 94.9046,-623.609 136.017,-543.454"/>
<polygon fill="black" stroke="black" points="139.259,-544.805 140.731,-534.313 133.037,-541.597 139.259,-544.805"/>
<text text-anchor="middle" x="62.638" y="-1398.8" font-family="Times New Roman,serif" font-size="14.00"> &#160;&#160;press(&quot;BackKey&quot;) &#160;&#160;</text>
</g>
<!-- state_2&#45;&gt;state_2 -->
<g id="edge9" class="edge"><title>state_2&#45;&gt;state_2</title>
<path fill="none" stroke="black" d="M372.21,-1830.07C382.836,-1829.2 390.138,-1827.18 390.138,-1824 390.138,-1821.96 387.141,-1820.4 382.193,-1819.31"/>
<polygon fill="black" stroke="black" points="382.596,-1815.84 372.21,-1817.93 381.634,-1822.77 382.596,-1815.84"/>
<text text-anchor="middle" x="443.138" y="-1820.3" font-family="Times New Roman,serif" font-size="14.00"> &#160;&#160;swipe(&quot;Right&quot;) &#160;&#160;</text>
</g>
<!-- state_2&#45;&gt;state_2 -->
<g id="edge10" class="edge"><title>state_2&#45;&gt;state_2</title>
<path fill="none" stroke="black" d="M372.251,-1835.75C428.042,-1839.5 496.138,-1835.59 496.138,-1824 496.138,-1813.11 436.038,-1809 382.503,-1811.66"/>
<polygon fill="black" stroke="black" points="382.03,-1808.18 372.251,-1812.25 382.438,-1815.17 382.03,-1808.18"/>
<text text-anchor="middle" x="545.638" y="-1820.3" font-family="Times New Roman,serif" font-size="14.00"> &#160;&#160;swipe(&quot;Left&quot;) &#160;&#160;</text>
</g>
<!-- state_2&#45;&gt;state_2 -->
<g id="edge11" class="edge"><title>state_2&#45;&gt;state_2</title>
<path fill="none" stroke="black" d="M372.281,-1839.14C459.065,-1848.48 595.138,-1843.43 595.138,-1824 595.138,-1805.31 469.232,-1799.93 382.401,-1807.85"/>
<polygon fill="black" stroke="black" points="381.886,-1804.39 372.281,-1808.86 382.578,-1811.35 381.886,-1804.39"/>
<text text-anchor="middle" x="657.638" y="-1820.3" font-family="Times New Roman,serif" font-size="14.00"> &#160;&#160;press(&quot;BackKey&quot;) &#160;&#160;</text>
</g>
<!-- state_2&#45;&gt;state_2 -->
<g id="edge12" class="edge"><title>state_2&#45;&gt;state_2</title>
<path fill="none" stroke="black" d="M372.507,-1841.48C491.429,-1857.44 720.138,-1851.62 720.138,-1824 720.138,-1797.14 503.766,-1790.89 382.502,-1805.26"/>
<polygon fill="black" stroke="black" points="381.99,-1801.8 372.507,-1806.52 382.867,-1808.74 381.99,-1801.8"/>
<text text-anchor="middle" x="784.138" y="-1820.3" font-family="Times New Roman,serif" font-size="14.00"> &#160;&#160;press(&quot;MenuKey&quot;) &#160;&#160;</text>
</g>
<!-- state_3 -->
<g id="node3" class="node"><title>state_3</title>
<g id="a_node3"><a xlink:href="3.png">
<polygon fill="none" stroke="black" points="242.138,-1658 112.138,-1658 112.138,-1428 242.138,-1428 242.138,-1658"/>
<image xlink:href="3.png" width="130px" height="230px" preserveAspectRatio="xMinYMin meet" x="112.138" y="-1658"/>
</a>
</g>
</g>
<!-- state_2&#45;&gt;state_3 -->
<g id="edge8" class="edge"><title>state_2&#45;&gt;state_3</title>
<path fill="none" stroke="black" d="M253.887,-1708.72C247.563,-1695.14 241.086,-1681.24 234.705,-1667.55"/>
<polygon fill="black" stroke="black" points="237.702,-1665.69 230.306,-1658.11 231.357,-1668.65 237.702,-1665.69"/>
<text text-anchor="middle" x="287.638" y="-1679.8" font-family="Times New Roman,serif" font-size="14.00"> &#160;&#160;click(&quot;OK&quot;) &#160;&#160;</text>
</g>
<!-- state_3&#45;&gt;state_3 -->
<g id="edge13" class="edge"><title>state_3&#45;&gt;state_3</title>
<path fill="none" stroke="black" d="M242.21,-1549.07C252.836,-1548.2 260.138,-1546.18 260.138,-1543 260.138,-1540.96 257.141,-1539.4 252.193,-1538.31"/>
<polygon fill="black" stroke="black" points="252.596,-1534.84 242.21,-1536.93 251.634,-1541.77 252.596,-1534.84"/>
<text text-anchor="middle" x="317.638" y="-1539.3" font-family="Times New Roman,serif" font-size="14.00"> &#160;&#160;click(&quot;index=1&quot;) &#160;&#160;</text>
</g>
<!-- state_3&#45;&gt;state_3 -->
<g id="edge15" class="edge"><title>state_3&#45;&gt;state_3</title>
<path fill="none" stroke="black" d="M242.319,-1554.59C301.171,-1558.6 375.138,-1554.74 375.138,-1543 375.138,-1531.92 309.313,-1527.86 252.448,-1530.8"/>
<polygon fill="black" stroke="black" points="252.092,-1527.32 242.319,-1531.41 252.51,-1534.3 252.092,-1527.32"/>
<text text-anchor="middle" x="428.138" y="-1539.3" font-family="Times New Roman,serif" font-size="14.00"> &#160;&#160;swipe(&quot;Right&quot;) &#160;&#160;</text>
</g>
<!-- state_3&#45;&gt;state_3 -->
<g id="edge16" class="edge"><title>state_3&#45;&gt;state_3</title>
<path fill="none" stroke="black" d="M242.442,-1557.88C333.61,-1567.57 481.138,-1562.61 481.138,-1543 481.138,-1524.1 344.078,-1518.81 252.536,-1527.13"/>
<polygon fill="black" stroke="black" points="252.052,-1523.66 242.442,-1528.12 252.737,-1530.62 252.052,-1523.66"/>
<text text-anchor="middle" x="530.638" y="-1539.3" font-family="Times New Roman,serif" font-size="14.00"> &#160;&#160;swipe(&quot;Left&quot;) &#160;&#160;</text>
</g>
<!-- state_3&#45;&gt;state_3 -->
<g id="edge17" class="edge"><title>state_3&#45;&gt;state_3</title>
<path fill="none" stroke="black" d="M242.226,-1560.59C358.755,-1576.41 580.138,-1570.55 580.138,-1543 580.138,-1516.23 371.117,-1509.94 252.371,-1524.11"/>
<polygon fill="black" stroke="black" points="251.703,-1520.67 242.226,-1525.41 252.588,-1527.61 251.703,-1520.67"/>
<text text-anchor="middle" x="644.138" y="-1539.3" font-family="Times New Roman,serif" font-size="14.00"> &#160;&#160;press(&quot;MenuKey&quot;) &#160;&#160;</text>
</g>
<!-- state_5 -->
<g id="node4" class="node"><title>state_5</title>
<g id="a_node4"><a xlink:href="5.png">
<polygon fill="none" stroke="black" points="242.138,-1377 112.138,-1377 112.138,-1147 242.138,-1147 242.138,-1377"/>
<image xlink:href="5.png" width="130px" height="230px" preserveAspectRatio="xMinYMin meet" x="112.138" y="-1377"/>
</a>
</g>
</g>
<!-- state_3&#45;&gt;state_5 -->
<g id="edge14" class="edge"><title>state_3&#45;&gt;state_5</title>
<path fill="none" stroke="black" d="M177.138,-1427.72C177.138,-1414.4 177.138,-1400.78 177.138,-1387.34"/>
<polygon fill="black" stroke="black" points="180.638,-1387.11 177.138,-1377.11 173.638,-1387.11 180.638,-1387.11"/>
<text text-anchor="middle" x="234.638" y="-1398.8" font-family="Times New Roman,serif" font-size="14.00"> &#160;&#160;click(&quot;index=0&quot;) &#160;&#160;</text>
</g>
<!-- state_final -->
<g id="node9" class="node"><title>state_final</title>
<g id="a_node9"><a xlink:href="-2.png">
<polygon fill="none" stroke="black" points="524.138,-253 394.138,-253 394.138,-23 524.138,-23 524.138,-253"/>
<image xlink:href="-2.png" width="76px" height="74px" preserveAspectRatio="xMinYMin meet" x="421.138" y="-175"/>
</a>
</g>
</g>
<!-- state_3&#45;&gt;state_final -->
<g id="edge18" class="edge"><title>state_3&#45;&gt;state_final</title>
<path fill="none" stroke="black" d="M145.069,-1427.94C139.636,-1416.33 133.362,-1405.11 126.138,-1395 118.592,-1384.44 109.378,-1388.38 103.138,-1377 -11.5139,-1167.84 -9.64426,-497.268 130.138,-304 190.973,-219.887 307.089,-176.082 383.824,-155.3"/>
<polygon fill="black" stroke="black" points="385.137,-158.573 393.913,-152.638 383.351,-151.805 385.137,-158.573"/>
<text text-anchor="middle" x="84.638" y="-836.8" font-family="Times New Roman,serif" font-size="14.00"> &#160;&#160;press(&quot;BackKey&quot;) &#160;&#160;</text>
</g>
<!-- state_5&#45;&gt;state_5 -->
<g id="edge20" class="edge"><title>state_5&#45;&gt;state_5</title>
<path fill="none" stroke="black" d="M242.21,-1268.07C252.836,-1267.2 260.138,-1265.18 260.138,-1262 260.138,-1259.96 257.141,-1258.4 252.193,-1257.31"/>
<polygon fill="black" stroke="black" points="252.596,-1253.84 242.21,-1255.93 251.634,-1260.77 252.596,-1253.84"/>
<text text-anchor="middle" x="313.138" y="-1258.3" font-family="Times New Roman,serif" font-size="14.00"> &#160;&#160;swipe(&quot;Right&quot;) &#160;&#160;</text>
</g>
<!-- state_5&#45;&gt;state_5 -->
<g id="edge21" class="edge"><title>state_5&#45;&gt;state_5</title>
<path fill="none" stroke="black" d="M242.251,-1273.75C298.042,-1277.5 366.138,-1273.59 366.138,-1262 366.138,-1251.11 306.038,-1247 252.503,-1249.66"/>
<polygon fill="black" stroke="black" points="252.03,-1246.18 242.251,-1250.25 252.438,-1253.17 252.03,-1246.18"/>
<text text-anchor="middle" x="415.638" y="-1258.3" font-family="Times New Roman,serif" font-size="14.00"> &#160;&#160;swipe(&quot;Left&quot;) &#160;&#160;</text>
</g>
<!-- state_5&#45;&gt;state_5 -->
<g id="edge22" class="edge"><title>state_5&#45;&gt;state_5</title>
<path fill="none" stroke="black" d="M242.281,-1277.14C329.065,-1286.48 465.138,-1281.43 465.138,-1262 465.138,-1243.31 339.232,-1237.93 252.401,-1245.85"/>
<polygon fill="black" stroke="black" points="251.886,-1242.39 242.281,-1246.86 252.578,-1249.35 251.886,-1242.39"/>
<text text-anchor="middle" x="527.638" y="-1258.3" font-family="Times New Roman,serif" font-size="14.00"> &#160;&#160;press(&quot;BackKey&quot;) &#160;&#160;</text>
</g>
<!-- state_5&#45;&gt;state_5 -->
<g id="edge23" class="edge"><title>state_5&#45;&gt;state_5</title>
<path fill="none" stroke="black" d="M242.507,-1279.48C361.429,-1295.44 590.138,-1289.62 590.138,-1262 590.138,-1235.14 373.766,-1228.89 252.502,-1243.26"/>
<polygon fill="black" stroke="black" points="251.99,-1239.8 242.507,-1244.52 252.867,-1246.74 251.99,-1239.8"/>
<text text-anchor="middle" x="654.138" y="-1258.3" font-family="Times New Roman,serif" font-size="14.00"> &#160;&#160;press(&quot;MenuKey&quot;) &#160;&#160;</text>
</g>
<!-- state_6 -->
<g id="node5" class="node"><title>state_6</title>
<g id="a_node5"><a xlink:href="6.png">
<polygon fill="none" stroke="black" points="382.138,-1096 252.138,-1096 252.138,-866 382.138,-866 382.138,-1096"/>
<image xlink:href="6.png" width="130px" height="230px" preserveAspectRatio="xMinYMin meet" x="252.138" y="-1096"/>
</a>
</g>
</g>
<!-- state_5&#45;&gt;state_6 -->
<g id="edge19" class="edge"><title>state_5&#45;&gt;state_6</title>
<path fill="none" stroke="black" d="M234.485,-1146.72C241.361,-1133.01 248.406,-1118.97 255.341,-1105.15"/>
<polygon fill="black" stroke="black" points="258.523,-1106.61 259.88,-1096.11 252.267,-1103.48 258.523,-1106.61"/>
<text text-anchor="middle" x="288.638" y="-1117.8" font-family="Times New Roman,serif" font-size="14.00"> &#160;&#160;click(&quot;行&quot;) &#160;&#160;</text>
</g>
<!-- state_5&#45;&gt;state_34 -->
<g id="edge24" class="edge"><title>state_5&#45;&gt;state_34</title>
<path fill="none" stroke="black" d="M176.77,-1146.98C176.84,-1060.73 177.68,-939.391 181.138,-833 184.29,-736.022 190.522,-626.366 195.704,-544.428"/>
<polygon fill="black" stroke="black" points="199.205,-544.525 196.347,-534.323 192.219,-544.081 199.205,-544.525"/>
<text text-anchor="middle" x="232.638" y="-836.8" font-family="Times New Roman,serif" font-size="14.00"> &#160;&#160;click(&quot;給5星&quot;) &#160;&#160;</text>
</g>
<!-- state_6&#45;&gt;state_2 -->
<g id="edge26" class="edge"><title>state_6&#45;&gt;state_2</title>
<path fill="none" stroke="black" d="M382.519,-983.167C487.143,-988.996 689.69,-1017.42 781.138,-1147 797.51,-1170.2 787.92,-1635.1 771.138,-1658 680.451,-1781.77 488.888,-1813.09 382.447,-1820.76"/>
<polygon fill="black" stroke="black" points="382.163,-1817.27 372.419,-1821.43 382.63,-1824.26 382.163,-1817.27"/>
<text text-anchor="middle" x="845.638" y="-1398.8" font-family="Times New Roman,serif" font-size="14.00"> &#160;&#160;click(&quot;index=1&quot;) &#160;&#160;</text>
</g>
<!-- state_6&#45;&gt;state_6 -->
<g id="edge25" class="edge"><title>state_6&#45;&gt;state_6</title>
<path fill="none" stroke="black" d="M382.21,-987.072C392.836,-986.203 400.138,-984.179 400.138,-981 400.138,-978.964 397.141,-977.401 392.193,-976.313"/>
<polygon fill="black" stroke="black" points="392.596,-972.835 382.21,-974.928 391.634,-979.769 392.596,-972.835"/>
<text text-anchor="middle" x="457.638" y="-977.3" font-family="Times New Roman,serif" font-size="14.00"> &#160;&#160;click(&quot;index=1&quot;) &#160;&#160;</text>
</g>
<!-- state_6&#45;&gt;state_6 -->
<g id="edge28" class="edge"><title>state_6&#45;&gt;state_6</title>
<path fill="none" stroke="black" d="M382.319,-992.592C441.171,-996.605 515.138,-992.741 515.138,-981 515.138,-969.924 449.313,-965.858 392.448,-968.802"/>
<polygon fill="black" stroke="black" points="392.092,-965.317 382.319,-969.408 392.51,-972.305 392.092,-965.317"/>
<text text-anchor="middle" x="568.138" y="-977.3" font-family="Times New Roman,serif" font-size="14.00"> &#160;&#160;swipe(&quot;Right&quot;) &#160;&#160;</text>
</g>
<!-- state_6&#45;&gt;state_6 -->
<g id="edge29" class="edge"><title>state_6&#45;&gt;state_6</title>
<path fill="none" stroke="black" d="M382.442,-995.88C473.61,-1005.57 621.138,-1000.61 621.138,-981 621.138,-962.098 484.078,-956.807 392.536,-965.127"/>
<polygon fill="black" stroke="black" points="392.052,-961.657 382.442,-966.12 392.737,-968.624 392.052,-961.657"/>
<text text-anchor="middle" x="670.638" y="-977.3" font-family="Times New Roman,serif" font-size="14.00"> &#160;&#160;swipe(&quot;Left&quot;) &#160;&#160;</text>
</g>
<!-- state_6&#45;&gt;state_6 -->
<g id="edge30" class="edge"><title>state_6&#45;&gt;state_6</title>
<path fill="none" stroke="black" d="M382.226,-998.595C498.755,-1014.41 720.138,-1008.55 720.138,-981 720.138,-954.231 511.117,-947.936 392.371,-962.114"/>
<polygon fill="black" stroke="black" points="391.703,-958.67 382.226,-963.405 392.588,-965.614 391.703,-958.67"/>
<text text-anchor="middle" x="784.138" y="-977.3" font-family="Times New Roman,serif" font-size="14.00"> &#160;&#160;press(&quot;MenuKey&quot;) &#160;&#160;</text>
</g>
<!-- state_6&#45;&gt;state_9 -->
<g id="edge27" class="edge"><title>state_6&#45;&gt;state_9</title>
<path fill="none" stroke="black" d="M382.16,-936.597C413.408,-913.224 449.537,-882.191 475.138,-848 480.772,-840.476 486.033,-832.379 490.922,-823.991"/>
<polygon fill="black" stroke="black" points="494.038,-825.59 495.882,-815.157 487.934,-822.163 494.038,-825.59"/>
<text text-anchor="middle" x="542.638" y="-836.8" font-family="Times New Roman,serif" font-size="14.00"> &#160;&#160;click(&quot;index=3&quot;) &#160;&#160;</text>
</g>
<!-- state_6&#45;&gt;state_34 -->
<g id="edge31" class="edge"><title>state_6&#45;&gt;state_34</title>
<path fill="none" stroke="black" d="M294.066,-865.663C275.207,-772.202 248.589,-640.29 229.208,-544.24"/>
<polygon fill="black" stroke="black" points="232.587,-543.291 227.178,-534.181 225.725,-544.676 232.587,-543.291"/>
<text text-anchor="middle" x="345.638" y="-696.3" font-family="Times New Roman,serif" font-size="14.00"> &#160;&#160;press(&quot;BackKey&quot;) &#160;&#160;</text>
</g>
<!-- state_9&#45;&gt;state_9 -->
<g id="edge33" class="edge"><title>state_9&#45;&gt;state_9</title>
<path fill="none" stroke="black" d="M604.21,-706.072C614.836,-705.203 622.138,-703.179 622.138,-700 622.138,-697.964 619.141,-696.401 614.193,-695.313"/>
<polygon fill="black" stroke="black" points="614.596,-691.835 604.21,-693.928 613.634,-698.769 614.596,-691.835"/>
<text text-anchor="middle" x="675.138" y="-696.3" font-family="Times New Roman,serif" font-size="14.00"> &#160;&#160;swipe(&quot;Right&quot;) &#160;&#160;</text>
</g>
<!-- state_9&#45;&gt;state_9 -->
<g id="edge34" class="edge"><title>state_9&#45;&gt;state_9</title>
<path fill="none" stroke="black" d="M604.251,-711.745C660.042,-715.502 728.138,-711.587 728.138,-700 728.138,-689.115 668.038,-685 614.503,-687.657"/>
<polygon fill="black" stroke="black" points="614.03,-684.178 604.251,-688.255 614.438,-691.166 614.03,-684.178"/>
<text text-anchor="middle" x="777.638" y="-696.3" font-family="Times New Roman,serif" font-size="14.00"> &#160;&#160;swipe(&quot;Left&quot;) &#160;&#160;</text>
</g>
<!-- state_9&#45;&gt;state_9 -->
<g id="edge35" class="edge"><title>state_9&#45;&gt;state_9</title>
<path fill="none" stroke="black" d="M604.281,-715.143C691.065,-724.479 827.138,-719.431 827.138,-700 827.138,-681.309 701.232,-675.927 614.401,-683.853"/>
<polygon fill="black" stroke="black" points="613.886,-680.387 604.281,-684.857 614.578,-687.353 613.886,-680.387"/>
<text text-anchor="middle" x="889.638" y="-696.3" font-family="Times New Roman,serif" font-size="14.00"> &#160;&#160;press(&quot;BackKey&quot;) &#160;&#160;</text>
</g>
<!-- state_9&#45;&gt;state_9 -->
<g id="edge36" class="edge"><title>state_9&#45;&gt;state_9</title>
<path fill="none" stroke="black" d="M604.507,-717.477C723.429,-733.443 952.138,-727.617 952.138,-700 952.138,-673.138 735.766,-666.892 614.502,-681.263"/>
<polygon fill="black" stroke="black" points="613.99,-677.799 604.507,-682.523 614.867,-684.744 613.99,-677.799"/>
<text text-anchor="middle" x="1016.14" y="-696.3" font-family="Times New Roman,serif" font-size="14.00"> &#160;&#160;press(&quot;MenuKey&quot;) &#160;&#160;</text>
</g>
<!-- state_10 -->
<g id="node7" class="node"><title>state_10</title>
<g id="a_node7"><a xlink:href="10.png">
<polygon fill="none" stroke="black" points="524.138,-534 394.138,-534 394.138,-304 524.138,-304 524.138,-534"/>
<image xlink:href="10.png" width="130px" height="230px" preserveAspectRatio="xMinYMin meet" x="394.138" y="-534"/>
</a>
</g>
</g>
<!-- state_9&#45;&gt;state_10 -->
<g id="edge32" class="edge"><title>state_9&#45;&gt;state_10</title>
<path fill="none" stroke="black" d="M525.108,-584.794C522.822,-573.625 520.182,-562.536 517.138,-552 516.34,-549.238 515.497,-546.459 514.614,-543.668"/>
<polygon fill="black" stroke="black" points="517.93,-542.548 511.47,-534.151 511.284,-544.744 517.93,-542.548"/>
<text text-anchor="middle" x="566.638" y="-555.8" font-family="Times New Roman,serif" font-size="14.00"> &#160;&#160;click(&quot;OK&quot;) &#160;&#160;</text>
</g>
<!-- state_9&#45;&gt;state_34 -->
<g id="edge37" class="edge"><title>state_9&#45;&gt;state_34</title>
<path fill="none" stroke="black" d="M473.751,-644.544C417.26,-597.496 335.71,-529.578 277.11,-480.773"/>
<polygon fill="black" stroke="black" points="279.284,-478.029 269.36,-474.319 274.804,-483.408 279.284,-478.029"/>
<text text-anchor="middle" x="423.638" y="-555.8" font-family="Times New Roman,serif" font-size="14.00"> &#160;&#160;click(&quot;給5星&quot;) &#160;&#160;</text>
</g>
<!-- state_10&#45;&gt;state_5 -->
<g id="edge39" class="edge"><title>state_10&#45;&gt;state_5</title>
<path fill="none" stroke="black" d="M399.946,-534.228C397.8,-540.166 395.843,-546.111 394.138,-552 361.447,-664.912 436.179,-720.596 366.138,-815 343.71,-845.23 322.948,-833.676 288.138,-848 268.218,-856.197 256.648,-849.222 243.138,-866 226.131,-887.12 205.342,-1029.19 191.697,-1136.95"/>
<polygon fill="black" stroke="black" points="188.216,-1136.58 190.44,-1146.94 195.161,-1137.45 188.216,-1136.58"/>
<text text-anchor="middle" x="403.638" y="-836.8" font-family="Times New Roman,serif" font-size="14.00"> &#160;&#160;click(&quot;index=0&quot;) &#160;&#160;</text>
</g>
<!-- state_10&#45;&gt;state_10 -->
<g id="edge38" class="edge"><title>state_10&#45;&gt;state_10</title>
<path fill="none" stroke="black" d="M524.21,-425.072C534.836,-424.203 542.138,-422.179 542.138,-419 542.138,-416.964 539.141,-415.401 534.193,-414.313"/>
<polygon fill="black" stroke="black" points="534.596,-410.835 524.21,-412.928 533.634,-417.769 534.596,-410.835"/>
<text text-anchor="middle" x="599.638" y="-415.3" font-family="Times New Roman,serif" font-size="14.00"> &#160;&#160;click(&quot;index=1&quot;) &#160;&#160;</text>
</g>
<!-- state_10&#45;&gt;state_10 -->
<g id="edge40" class="edge"><title>state_10&#45;&gt;state_10</title>
<path fill="none" stroke="black" d="M524.319,-430.592C583.171,-434.605 657.138,-430.741 657.138,-419 657.138,-407.924 591.313,-403.858 534.448,-406.802"/>
<polygon fill="black" stroke="black" points="534.092,-403.317 524.319,-407.408 534.51,-410.305 534.092,-403.317"/>
<text text-anchor="middle" x="710.138" y="-415.3" font-family="Times New Roman,serif" font-size="14.00"> &#160;&#160;swipe(&quot;Right&quot;) &#160;&#160;</text>
</g>
<!-- state_10&#45;&gt;state_10 -->
<g id="edge41" class="edge"><title>state_10&#45;&gt;state_10</title>
<path fill="none" stroke="black" d="M524.442,-433.88C615.61,-443.571 763.138,-438.611 763.138,-419 763.138,-400.098 626.078,-394.807 534.536,-403.127"/>
<polygon fill="black" stroke="black" points="534.052,-399.657 524.442,-404.12 534.737,-406.624 534.052,-399.657"/>
<text text-anchor="middle" x="812.638" y="-415.3" font-family="Times New Roman,serif" font-size="14.00"> &#160;&#160;swipe(&quot;Left&quot;) &#160;&#160;</text>
</g>
<!-- state_10&#45;&gt;state_10 -->
<g id="edge42" class="edge"><title>state_10&#45;&gt;state_10</title>
<path fill="none" stroke="black" d="M524.226,-436.595C640.755,-452.414 862.138,-446.549 862.138,-419 862.138,-392.231 653.117,-385.936 534.371,-400.114"/>
<polygon fill="black" stroke="black" points="533.703,-396.67 524.226,-401.405 534.588,-403.614 533.703,-396.67"/>
<text text-anchor="middle" x="926.138" y="-415.3" font-family="Times New Roman,serif" font-size="14.00"> &#160;&#160;press(&quot;MenuKey&quot;) &#160;&#160;</text>
</g>
<!-- state_10&#45;&gt;state_final -->
<g id="edge43" class="edge"><title>state_10&#45;&gt;state_final</title>
<path fill="none" stroke="black" d="M459.138,-303.715C459.138,-290.404 459.138,-276.776 459.138,-263.338"/>
<polygon fill="black" stroke="black" points="462.638,-263.107 459.138,-253.107 455.638,-263.107 462.638,-263.107"/>
<text text-anchor="middle" x="521.638" y="-274.8" font-family="Times New Roman,serif" font-size="14.00"> &#160;&#160;press(&quot;BackKey&quot;) &#160;&#160;</text>
</g>
<!-- state_18&#45;&gt;state_2 -->
<g id="edge45" class="edge"><title>state_18&#45;&gt;state_2</title>
<path fill="none" stroke="black" d="M1006.91,-2080.21C865.49,-2028.63 531.339,-1906.77 381.777,-1852.22"/>
<polygon fill="black" stroke="black" points="382.79,-1848.87 372.196,-1848.73 380.392,-1855.44 382.79,-1848.87"/>
<text text-anchor="middle" x="747.638" y="-1960.8" font-family="Times New Roman,serif" font-size="14.00"> &#160;&#160;click(&quot;index=1&quot;) &#160;&#160;</text>
</g>
<!-- state_18&#45;&gt;state_9 -->
<g id="edge46" class="edge"><title>state_18&#45;&gt;state_9</title>
<path fill="none" stroke="black" d="M1072.73,-1989.98C1072.95,-1939.43 1073.14,-1879.25 1073.14,-1825 1073.14,-1825 1073.14,-1825 1073.14,-980 1073.14,-775.577 761.92,-720.671 614.662,-706.134"/>
<polygon fill="black" stroke="black" points="614.636,-702.615 604.35,-705.155 613.974,-709.584 614.636,-702.615"/>
<text text-anchor="middle" x="1130.64" y="-1398.8" font-family="Times New Roman,serif" font-size="14.00"> &#160;&#160;click(&quot;index=3&quot;) &#160;&#160;</text>
</g>
<!-- state_18&#45;&gt;state_18 -->
<g id="edge44" class="edge"><title>state_18&#45;&gt;state_18</title>
<path fill="none" stroke="black" d="M1137.21,-2111.07C1147.84,-2110.2 1155.14,-2108.18 1155.14,-2105 1155.14,-2102.96 1152.14,-2101.4 1147.19,-2100.31"/>
<polygon fill="black" stroke="black" points="1147.6,-2096.84 1137.21,-2098.93 1146.63,-2103.77 1147.6,-2096.84"/>
<text text-anchor="middle" x="1212.64" y="-2101.3" font-family="Times New Roman,serif" font-size="14.00"> &#160;&#160;click(&quot;index=1&quot;) &#160;&#160;</text>
</g>
<!-- state_18&#45;&gt;state_18 -->
<g id="edge47" class="edge"><title>state_18&#45;&gt;state_18</title>
<path fill="none" stroke="black" d="M1137.32,-2116.59C1196.17,-2120.6 1270.14,-2116.74 1270.14,-2105 1270.14,-2093.92 1204.31,-2089.86 1147.45,-2092.8"/>
<polygon fill="black" stroke="black" points="1147.09,-2089.32 1137.32,-2093.41 1147.51,-2096.3 1147.09,-2089.32"/>
<text text-anchor="middle" x="1323.14" y="-2101.3" font-family="Times New Roman,serif" font-size="14.00"> &#160;&#160;swipe(&quot;Right&quot;) &#160;&#160;</text>
</g>
<!-- state_18&#45;&gt;state_18 -->
<g id="edge48" class="edge"><title>state_18&#45;&gt;state_18</title>
<path fill="none" stroke="black" d="M1137.44,-2119.88C1228.61,-2129.57 1376.14,-2124.61 1376.14,-2105 1376.14,-2086.1 1239.08,-2080.81 1147.54,-2089.13"/>
<polygon fill="black" stroke="black" points="1147.05,-2085.66 1137.44,-2090.12 1147.74,-2092.62 1147.05,-2085.66"/>
<text text-anchor="middle" x="1425.64" y="-2101.3" font-family="Times New Roman,serif" font-size="14.00"> &#160;&#160;swipe(&quot;Left&quot;) &#160;&#160;</text>
</g>
<!-- state_18&#45;&gt;state_18 -->
<g id="edge49" class="edge"><title>state_18&#45;&gt;state_18</title>
<path fill="none" stroke="black" d="M1137.23,-2122.59C1253.76,-2138.41 1475.14,-2132.55 1475.14,-2105 1475.14,-2078.23 1266.12,-2071.94 1147.37,-2086.11"/>
<polygon fill="black" stroke="black" points="1146.7,-2082.67 1137.23,-2087.41 1147.59,-2089.61 1146.7,-2082.67"/>
<text text-anchor="middle" x="1539.14" y="-2101.3" font-family="Times New Roman,serif" font-size="14.00"> &#160;&#160;press(&quot;MenuKey&quot;) &#160;&#160;</text>
</g>
<!-- state_18&#45;&gt;state_final -->
<g id="edge50" class="edge"><title>state_18&#45;&gt;state_final</title>
<path fill="none" stroke="black" d="M1137.25,-2016.49C1170.13,-1963.79 1203.14,-1893.76 1203.14,-1825 1203.14,-1825 1203.14,-1825 1203.14,-418 1203.14,-276.193 723.287,-182.211 534.316,-150.698"/>
<polygon fill="black" stroke="black" points="534.623,-147.201 524.186,-149.022 533.481,-154.107 534.623,-147.201"/>
<text text-anchor="middle" x="1265.64" y="-1117.8" font-family="Times New Roman,serif" font-size="14.00"> &#160;&#160;press(&quot;BackKey&quot;) &#160;&#160;</text>
</g>
</g>
</svg>
