<?xml version="1.0" encoding="UTF-8" standalone="no"?>
<!DOCTYPE svg PUBLIC "-//W3C//DTD SVG 1.1//EN"
 "http://www.w3.org/Graphics/SVG/1.1/DTD/svg11.dtd">
<!-- Generated by graphviz version 2.38.0 (20140413.2041)
 -->
<!-- Title: activity_0 Pages: 1 -->
<svg width="3425pt" height="1749pt"
 viewBox="0.00 0.00 3425.00 1749.00" xmlns="http://www.w3.org/2000/svg" xmlns:xlink="http://www.w3.org/1999/xlink">
<g id="graph0" class="graph" transform="scale(1 1) rotate(0) translate(4 1745)">
<title>activity_0</title>
<polygon fill="white" stroke="none" points="-4,4 -4,-1745 3421,-1745 3421,4 -4,4"/>
<!-- state_0 -->
<g id="node1" class="node"><title>state_0</title>
<g id="a_node1"><a xlink:href="0.png" xlink:title="&lt;TABLE&gt;">
<polygon fill="none" stroke="black" points="2513,-1741 2383,-1741 2383,-1451 2513,-1451 2513,-1741"/>
<text text-anchor="start" x="2428" y="-1729.8" font-family="Times New Roman,serif" font-size="14.00">state_0</text>
<text text-anchor="start" x="2417.5" y="-1714.8" font-family="Times New Roman,serif" font-size="14.00">incoming:9</text>
<text text-anchor="start" x="2418.5" y="-1699.8" font-family="Times New Roman,serif" font-size="14.00">outgoing:6</text>
<text text-anchor="start" x="2430" y="-1684.8" font-family="Times New Roman,serif" font-size="14.00">loop:3</text>
<image xlink:href="0.png" width="130px" height="230px" preserveAspectRatio="xMinYMin meet" x="2383" y="-1681"/>
</a>
</g>
</g>
<!-- state_0&#45;&gt;state_0 -->
<g id="edge1" class="edge"><title>state_0&#45;&gt;state_0</title>
<path fill="none" stroke="black" d="M2513.07,-1605.83C2523.7,-1604.42 2531,-1601.15 2531,-1596 2531,-1592.7 2528,-1590.17 2523.06,-1588.41"/>
<polygon fill="black" stroke="black" points="2523.6,-1584.95 2513.07,-1586.17 2522.06,-1591.78 2523.6,-1584.95"/>
<text text-anchor="middle" x="2602" y="-1592.3" font-family="Times New Roman,serif" font-size="14.00"> &#160;&#160;longClick(&quot;index=1&quot;) &#160;&#160;</text>
</g>
<!-- state_0&#45;&gt;state_0 -->
<g id="edge2" class="edge"><title>state_0&#45;&gt;state_0</title>
<path fill="none" stroke="black" d="M2513.1,-1614.04C2580.76,-1621.69 2673,-1615.67 2673,-1596 2673,-1577.29 2589.55,-1570.93 2523.17,-1576.94"/>
<polygon fill="black" stroke="black" points="2522.69,-1573.47 2513.1,-1577.96 2523.4,-1580.43 2522.69,-1573.47"/>
<text text-anchor="middle" x="2726" y="-1592.3" font-family="Times New Roman,serif" font-size="14.00"> &#160;&#160;swipe(&quot;Right&quot;) &#160;&#160;</text>
</g>
<!-- state_0&#45;&gt;state_0 -->
<g id="edge3" class="edge"><title>state_0&#45;&gt;state_0</title>
<path fill="none" stroke="black" d="M2513.01,-1619.34C2611.26,-1636.03 2779,-1628.25 2779,-1596 2779,-1564.82 2622.22,-1556.52 2523.02,-1571.08"/>
<polygon fill="black" stroke="black" points="2522.34,-1567.65 2513.01,-1572.66 2523.44,-1574.56 2522.34,-1567.65"/>
<text text-anchor="middle" x="2828.5" y="-1592.3" font-family="Times New Roman,serif" font-size="14.00"> &#160;&#160;swipe(&quot;Left&quot;) &#160;&#160;</text>
</g>
<!-- state_6 -->
<g id="node2" class="node"><title>state_6</title>
<g id="a_node2"><a xlink:href="6.png" xlink:title="&lt;TABLE&gt;">
<polygon fill="none" stroke="black" points="395,-631 265,-631 265,-341 395,-341 395,-631"/>
<text text-anchor="start" x="310" y="-619.8" font-family="Times New Roman,serif" font-size="14.00">state_6</text>
<text text-anchor="start" x="299.5" y="-604.8" font-family="Times New Roman,serif" font-size="14.00">incoming:7</text>
<text text-anchor="start" x="300.5" y="-589.8" font-family="Times New Roman,serif" font-size="14.00">outgoing:5</text>
<text text-anchor="start" x="312" y="-574.8" font-family="Times New Roman,serif" font-size="14.00">loop:2</text>
<image xlink:href="6.png" width="130px" height="230px" preserveAspectRatio="xMinYMin meet" x="265" y="-571"/>
</a>
</g>
</g>
<!-- state_0&#45;&gt;state_6 -->
<g id="edge4" class="edge"><title>state_0&#45;&gt;state_6</title>
<path fill="none" stroke="black" d="M2382.84,-1592.86C1994.3,-1579.71 0,-1506.21 0,-1383 0,-1383 0,-1383 0,-826 0,-680.243 158.575,-573.665 255.876,-521.988"/>
<polygon fill="black" stroke="black" points="257.57,-525.052 264.803,-517.309 254.321,-518.852 257.57,-525.052"/>
<text text-anchor="middle" x="64" y="-1164.3" font-family="Times New Roman,serif" font-size="14.00"> &#160;&#160;press(&quot;MenuKey&quot;) &#160;&#160;</text>
</g>
<!-- activity_1 -->
<g id="node9" class="node"><title>activity_1</title>
<ellipse fill="none" stroke="red" cx="1363" cy="-1382" rx="46.2923" ry="18"/>
<text text-anchor="middle" x="1363" y="-1378.3" font-family="Times New Roman,serif" font-size="14.00" fill="red">activity_1</text>
</g>
<!-- state_0&#45;&gt;activity_1 -->
<g id="edge5" class="edge"><title>state_0&#45;&gt;activity_1</title>
<path fill="none" stroke="red" d="M2382.98,-1582.29C2184.63,-1543.54 1590.12,-1427.38 1413.2,-1392.81"/>
<polygon fill="red" stroke="red" points="1413.86,-1389.37 1403.37,-1390.89 1412.52,-1396.24 1413.86,-1389.37"/>
<text text-anchor="middle" x="1654.5" y="-1421.8" font-family="Times New Roman,serif" font-size="14.00" fill="red"> &#160;&#160;click(&quot;index=1&quot;) &#160;&#160;</text>
</g>
<!-- final -->
<g id="node10" class="node"><title>final</title>
<image xlink:href="-2.png" width="50px" height="50px" preserveAspectRatio="xMinYMin meet" x="1682" y="-511"/>
</g>
<!-- state_0&#45;&gt;final -->
<g id="edge6" class="edge"><title>state_0&#45;&gt;final</title>
<path fill="none" stroke="red" d="M2513.18,-1550.82C2579.24,-1501.68 2677.32,-1415.54 2718,-1313 2765.53,-1193.19 2766.07,-1142.59 2718,-1023 2639.68,-828.174 2576.73,-779.957 2391,-682 2386.04,-679.386 2197.57,-649.641 2192,-649 2130.72,-641.946 1973.25,-651.293 1915,-631 1845.69,-606.854 1778.23,-552.87 1739.75,-518.292"/>
<polygon fill="red" stroke="red" points="1741.73,-515.369 1731.98,-511.226 1737.02,-520.546 1741.73,-515.369"/>
<text text-anchor="middle" x="2815.5" y="-1164.3" font-family="Times New Roman,serif" font-size="14.00" fill="red"> &#160;&#160;press(&quot;BackKey&quot;) &#160;&#160;</text>
</g>
<!-- state_6&#45;&gt;state_0 -->
<g id="edge10" class="edge"><title>state_6&#45;&gt;state_0</title>
<path fill="none" stroke="black" d="M264.869,-567.315C218.363,-632.854 164,-729.996 164,-826 164,-1383 164,-1383 164,-1383 164,-1496.55 1977.33,-1576.06 2372.54,-1592.04"/>
<polygon fill="black" stroke="black" points="2372.58,-1595.55 2382.72,-1592.45 2372.87,-1588.55 2372.58,-1595.55"/>
<text text-anchor="middle" x="226.5" y="-1164.3" font-family="Times New Roman,serif" font-size="14.00"> &#160;&#160;press(&quot;BackKey&quot;) &#160;&#160;</text>
</g>
<!-- state_6&#45;&gt;state_0 -->
<g id="edge11" class="edge"><title>state_6&#45;&gt;state_0</title>
<path fill="none" stroke="black" d="M301.992,-631.193C299.528,-648.261 297.429,-665.481 296,-682 284.889,-810.409 288.852,-843.309 296,-972 300.229,-1048.13 293.072,-1248.67 334,-1313 349.098,-1336.73 361.431,-1336.77 388,-1346 767.234,-1477.77 2047.72,-1568.84 2372.58,-1590.2"/>
<polygon fill="black" stroke="black" points="2372.61,-1593.7 2382.82,-1590.87 2373.07,-1586.72 2372.61,-1593.7"/>
<text text-anchor="middle" x="398" y="-1164.3" font-family="Times New Roman,serif" font-size="14.00"> &#160;&#160;press(&quot;MenuKey&quot;) &#160;&#160;</text>
</g>
<!-- state_6&#45;&gt;state_6 -->
<g id="edge8" class="edge"><title>state_6&#45;&gt;state_6</title>
<path fill="none" stroke="black" d="M395.072,-500.746C405.697,-498.635 413,-493.72 413,-486 413,-480.934 409.855,-477.076 404.69,-474.425"/>
<polygon fill="black" stroke="black" points="405.665,-471.061 395.072,-471.254 403.473,-477.709 405.665,-471.061"/>
<text text-anchor="middle" x="466" y="-482.3" font-family="Times New Roman,serif" font-size="14.00"> &#160;&#160;swipe(&quot;Right&quot;) &#160;&#160;</text>
</g>
<!-- state_6&#45;&gt;state_6 -->
<g id="edge9" class="edge"><title>state_6&#45;&gt;state_6</title>
<path fill="none" stroke="black" d="M395.113,-514.524C450.904,-523.648 519,-514.14 519,-486 519,-459.509 458.65,-449.53 405.031,-456.064"/>
<polygon fill="black" stroke="black" points="404.52,-452.601 395.113,-457.476 405.507,-459.531 404.52,-452.601"/>
<text text-anchor="middle" x="568.5" y="-482.3" font-family="Times New Roman,serif" font-size="14.00"> &#160;&#160;swipe(&quot;Left&quot;) &#160;&#160;</text>
</g>
<!-- state_7 -->
<g id="node3" class="node"><title>state_7</title>
<g id="a_node3"><a xlink:href="7.png" xlink:title="&lt;TABLE&gt;">
<polygon fill="none" stroke="black" points="3030,-290 2900,-290 2900,-0 3030,-0 3030,-290"/>
<text text-anchor="start" x="2945" y="-278.8" font-family="Times New Roman,serif" font-size="14.00">state_7</text>
<text text-anchor="start" x="2934.5" y="-263.8" font-family="Times New Roman,serif" font-size="14.00">incoming:5</text>
<text text-anchor="start" x="2935.5" y="-248.8" font-family="Times New Roman,serif" font-size="14.00">outgoing:5</text>
<text text-anchor="start" x="2947" y="-233.8" font-family="Times New Roman,serif" font-size="14.00">loop:3</text>
<image xlink:href="7.png" width="130px" height="230px" preserveAspectRatio="xMinYMin meet" x="2900" y="-230"/>
</a>
</g>
</g>
<!-- state_6&#45;&gt;state_7 -->
<g id="edge7" class="edge"><title>state_6&#45;&gt;state_7</title>
<path fill="none" stroke="black" d="M395.135,-476.62C755.703,-430.232 2504.68,-205.221 2889.86,-155.667"/>
<polygon fill="black" stroke="black" points="2890.31,-159.138 2899.78,-154.39 2889.42,-152.195 2890.31,-159.138"/>
<text text-anchor="middle" x="1695" y="-311.8" font-family="Times New Roman,serif" font-size="14.00"> &#160;&#160;click(&quot;大约&quot;) &#160;&#160;</text>
</g>
<!-- state_7&#45;&gt;state_0 -->
<g id="edge12" class="edge"><title>state_7&#45;&gt;state_0</title>
<path fill="none" stroke="black" d="M3003.21,-290.113C3015.97,-349.952 3027,-420.383 3027,-485 3027,-1383 3027,-1383 3027,-1383 3027,-1489.12 2679.69,-1558.03 2523.05,-1583.71"/>
<polygon fill="black" stroke="black" points="2522.32,-1580.28 2513.01,-1585.34 2523.44,-1587.19 2522.32,-1580.28"/>
<text text-anchor="middle" x="3072.5" y="-993.8" font-family="Times New Roman,serif" font-size="14.00"> &#160;&#160;click(&quot;OK&quot;) &#160;&#160;</text>
</g>
<!-- state_7&#45;&gt;state_0 -->
<g id="edge15" class="edge"><title>state_7&#45;&gt;state_0</title>
<path fill="none" stroke="black" d="M3030.04,-220.419C3080.17,-285.578 3141,-385.198 3141,-485 3141,-1383 3141,-1383 3141,-1383 3141,-1511.05 2702.88,-1569.5 2523.35,-1588.07"/>
<polygon fill="black" stroke="black" points="2522.79,-1584.61 2513.2,-1589.11 2523.5,-1591.58 2522.79,-1584.61"/>
<text text-anchor="middle" x="3203.5" y="-993.8" font-family="Times New Roman,serif" font-size="14.00"> &#160;&#160;press(&quot;BackKey&quot;) &#160;&#160;</text>
</g>
<!-- state_7&#45;&gt;state_7 -->
<g id="edge13" class="edge"><title>state_7&#45;&gt;state_7</title>
<path fill="none" stroke="black" d="M3030.07,-154.831C3040.7,-153.423 3048,-150.146 3048,-145 3048,-141.703 3045,-139.173 3040.06,-137.411"/>
<polygon fill="black" stroke="black" points="3040.6,-133.945 3030.07,-135.169 3039.06,-140.775 3040.6,-133.945"/>
<text text-anchor="middle" x="3101" y="-141.3" font-family="Times New Roman,serif" font-size="14.00"> &#160;&#160;swipe(&quot;Right&quot;) &#160;&#160;</text>
</g>
<!-- state_7&#45;&gt;state_7 -->
<g id="edge14" class="edge"><title>state_7&#45;&gt;state_7</title>
<path fill="none" stroke="black" d="M3030.11,-164.016C3085.9,-170.099 3154,-163.76 3154,-145 3154,-127.376 3093.9,-120.715 3040.36,-125.016"/>
<polygon fill="black" stroke="black" points="3039.74,-121.559 3030.11,-125.984 3040.4,-128.528 3039.74,-121.559"/>
<text text-anchor="middle" x="3203.5" y="-141.3" font-family="Times New Roman,serif" font-size="14.00"> &#160;&#160;swipe(&quot;Left&quot;) &#160;&#160;</text>
</g>
<!-- state_7&#45;&gt;state_7 -->
<g id="edge16" class="edge"><title>state_7&#45;&gt;state_7</title>
<path fill="none" stroke="black" d="M3030.14,-169.517C3116.93,-184.632 3253,-176.46 3253,-145 3253,-114.738 3127.09,-106.024 3040.26,-118.858"/>
<polygon fill="black" stroke="black" points="3039.46,-115.441 3030.14,-120.483 3040.57,-122.353 3039.46,-115.441"/>
<text text-anchor="middle" x="3317" y="-141.3" font-family="Times New Roman,serif" font-size="14.00"> &#160;&#160;press(&quot;MenuKey&quot;) &#160;&#160;</text>
</g>
<!-- state_32 -->
<g id="node4" class="node"><title>state_32</title>
<g id="a_node4"><a xlink:href="32.png" xlink:title="&lt;TABLE&gt;">
<polygon fill="none" stroke="black" points="1543,-1313 1413,-1313 1413,-1023 1543,-1023 1543,-1313"/>
<text text-anchor="start" x="1454.5" y="-1301.8" font-family="Times New Roman,serif" font-size="14.00">state_32</text>
<text text-anchor="start" x="1447.5" y="-1286.8" font-family="Times New Roman,serif" font-size="14.00">incoming:2</text>
<text text-anchor="start" x="1448.5" y="-1271.8" font-family="Times New Roman,serif" font-size="14.00">outgoing:9</text>
<text text-anchor="start" x="1460" y="-1256.8" font-family="Times New Roman,serif" font-size="14.00">loop:0</text>
<image xlink:href="32.png" width="130px" height="230px" preserveAspectRatio="xMinYMin meet" x="1413" y="-1253"/>
</a>
</g>
</g>
<!-- state_32&#45;&gt;state_6 -->
<g id="edge25" class="edge"><title>state_32&#45;&gt;state_6</title>
<path fill="none" stroke="black" d="M1412.85,-1053.75C1406.83,-1043.35 1400.81,-1032.97 1395,-1023 1381.77,-1000.27 1373.08,-997.026 1365,-972 1345.12,-910.407 1385.35,-726.13 1338,-682 1305.56,-651.765 581.479,-679.681 540,-664 487.943,-644.32 439.701,-605.792 402.617,-569.693"/>
<polygon fill="black" stroke="black" points="404.924,-567.052 395.351,-562.512 400.004,-572.031 404.924,-567.052"/>
<text text-anchor="middle" x="1429" y="-823.3" font-family="Times New Roman,serif" font-size="14.00"> &#160;&#160;press(&quot;MenuKey&quot;) &#160;&#160;</text>
</g>
<!-- state_63 -->
<g id="node5" class="node"><title>state_63</title>
<g id="a_node5"><a xlink:href="63.png" xlink:title="&lt;TABLE&gt;">
<polygon fill="none" stroke="black" points="1981,-972 1851,-972 1851,-682 1981,-682 1981,-972"/>
<text text-anchor="start" x="1892.5" y="-960.8" font-family="Times New Roman,serif" font-size="14.00">state_63</text>
<text text-anchor="start" x="1882" y="-945.8" font-family="Times New Roman,serif" font-size="14.00">incoming:10</text>
<text text-anchor="start" x="1886.5" y="-930.8" font-family="Times New Roman,serif" font-size="14.00">outgoing:9</text>
<text text-anchor="start" x="1898" y="-915.8" font-family="Times New Roman,serif" font-size="14.00">loop:3</text>
<image xlink:href="63.png" width="130px" height="230px" preserveAspectRatio="xMinYMin meet" x="1851" y="-912"/>
</a>
</g>
</g>
<!-- state_32&#45;&gt;state_63 -->
<g id="edge18" class="edge"><title>state_32&#45;&gt;state_63</title>
<path fill="none" stroke="black" d="M1543.2,-1126.31C1589.46,-1097.45 1653.02,-1057.82 1709,-1023 1721.88,-1014.99 1725.2,-1013.14 1738,-1005 1748.3,-998.448 1749.79,-994.828 1761,-990 1792.48,-976.439 1808.7,-992.735 1836,-972 1838.46,-970.135 1840.85,-968.172 1843.17,-966.121"/>
<polygon fill="black" stroke="black" points="1846,-968.261 1850.84,-958.834 1841.18,-963.187 1846,-968.261"/>
<text text-anchor="middle" x="1832" y="-993.8" font-family="Times New Roman,serif" font-size="14.00"> &#160;&#160;longClick(&quot;index=1&quot;) &#160;&#160;</text>
</g>
<!-- state_32&#45;&gt;state_63 -->
<g id="edge22" class="edge"><title>state_32&#45;&gt;state_63</title>
<path fill="none" stroke="black" d="M1486.3,-1022.6C1492,-1010.29 1499.7,-999.097 1510,-990 1564.38,-941.965 1774.51,-1010.5 1836,-972 1838.28,-970.572 1840.5,-969.055 1842.66,-967.457"/>
<polygon fill="black" stroke="black" points="1845.17,-969.933 1850.72,-960.909 1840.75,-964.502 1845.17,-969.933"/>
<text text-anchor="middle" x="1563" y="-993.8" font-family="Times New Roman,serif" font-size="14.00"> &#160;&#160;swipe(&quot;Right&quot;) &#160;&#160;</text>
</g>
<!-- state_32&#45;&gt;state_63 -->
<g id="edge23" class="edge"><title>state_32&#45;&gt;state_63</title>
<path fill="none" stroke="black" d="M1543.04,-1088.44C1580.59,-1044.04 1622.76,-996.175 1635,-990 1715.08,-949.599 1760.81,-1020.89 1836,-972 1838.47,-970.392 1840.88,-968.681 1843.21,-966.876"/>
<polygon fill="black" stroke="black" points="1845.51,-969.519 1850.89,-960.396 1840.99,-964.169 1845.51,-969.519"/>
<text text-anchor="middle" x="1684.5" y="-993.8" font-family="Times New Roman,serif" font-size="14.00"> &#160;&#160;swipe(&quot;Left&quot;) &#160;&#160;</text>
</g>
<!-- state_67 -->
<g id="node6" class="node"><title>state_67</title>
<g id="a_node6"><a xlink:href="67.png" xlink:title="&lt;TABLE&gt;">
<polygon fill="none" stroke="black" points="2054,-631 1924,-631 1924,-341 2054,-341 2054,-631"/>
<text text-anchor="start" x="1965.5" y="-619.8" font-family="Times New Roman,serif" font-size="14.00">state_67</text>
<text text-anchor="start" x="1958.5" y="-604.8" font-family="Times New Roman,serif" font-size="14.00">incoming:6</text>
<text text-anchor="start" x="1959.5" y="-589.8" font-family="Times New Roman,serif" font-size="14.00">outgoing:6</text>
<text text-anchor="start" x="1971" y="-574.8" font-family="Times New Roman,serif" font-size="14.00">loop:2</text>
<image xlink:href="67.png" width="130px" height="230px" preserveAspectRatio="xMinYMin meet" x="1924" y="-571"/>
</a>
</g>
</g>
<!-- state_32&#45;&gt;state_67 -->
<g id="edge20" class="edge"><title>state_32&#45;&gt;state_67</title>
<path fill="none" stroke="black" d="M1488.59,-1022.88C1489.91,-1011.73 1491.37,-1000.67 1493,-990 1494.24,-981.899 1495.66,-980.085 1497,-972 1507.6,-908.037 1481.88,-726.532 1529,-682 1556.25,-656.245 1833.25,-682.254 1866,-664 1885.42,-653.179 1902.45,-637.85 1917.15,-620.687"/>
<polygon fill="black" stroke="black" points="1920.09,-622.626 1923.74,-612.682 1914.68,-618.176 1920.09,-622.626"/>
<text text-anchor="middle" x="1600" y="-823.3" font-family="Times New Roman,serif" font-size="14.00"> &#160;&#160;longClick(&quot;index=0&quot;) &#160;&#160;</text>
</g>
<!-- state_32&#45;&gt;activity_1 -->
<g id="edge17" class="edge"><title>state_32&#45;&gt;activity_1</title>
<path fill="none" stroke="red" d="M1412.92,-1302.35C1408.55,-1306.26 1403.92,-1309.84 1399,-1313 1353.65,-1342.17 1193.69,-1291.48 1157,-1331 1152.46,-1335.89 1152.7,-1340.91 1157,-1346 1175.85,-1368.33 1252.57,-1376.41 1306.85,-1379.34"/>
<polygon fill="red" stroke="red" points="1306.88,-1382.85 1317.04,-1379.85 1307.23,-1375.86 1306.88,-1382.85"/>
<text text-anchor="middle" x="1214.5" y="-1334.8" font-family="Times New Roman,serif" font-size="14.00" fill="red"> &#160;&#160;click(&quot;index=1&quot;) &#160;&#160;</text>
</g>
<!-- state_32&#45;&gt;activity_1 -->
<g id="edge19" class="edge"><title>state_32&#45;&gt;activity_1</title>
<path fill="none" stroke="red" d="M1412.83,-1301.45C1408.48,-1305.64 1403.87,-1309.52 1399,-1313 1360.83,-1340.26 1325.21,-1295.11 1295,-1331 1283.19,-1345.03 1299.18,-1357.3 1318.62,-1366.17"/>
<polygon fill="red" stroke="red" points="1317.44,-1369.47 1328.02,-1370.12 1320.16,-1363.02 1317.44,-1369.47"/>
<text text-anchor="middle" x="1352.5" y="-1334.8" font-family="Times New Roman,serif" font-size="14.00" fill="red"> &#160;&#160;click(&quot;index=0&quot;) &#160;&#160;</text>
</g>
<!-- state_32&#45;&gt;activity_1 -->
<g id="edge21" class="edge"><title>state_32&#45;&gt;activity_1</title>
<path fill="none" stroke="red" d="M1430.73,-1313.32C1424.55,-1324.84 1417.66,-1335.9 1410,-1346 1406.05,-1351.21 1401.11,-1356.02 1395.94,-1360.29"/>
<polygon fill="red" stroke="red" points="1393.56,-1357.7 1387.73,-1366.54 1397.8,-1363.27 1393.56,-1357.7"/>
<text text-anchor="middle" x="1475.5" y="-1334.8" font-family="Times New Roman,serif" font-size="14.00" fill="red"> &#160;&#160;click(&quot;index=1&quot;) &#160;&#160;</text>
</g>
<!-- state_32&#45;&gt;final -->
<g id="edge24" class="edge"><title>state_32&#45;&gt;final</title>
<path fill="none" stroke="red" d="M1472.54,-1022.91C1477.08,-1010.71 1483.69,-999.442 1493,-990 1521.54,-961.061 1646.74,-1001.2 1675,-972 1706.21,-939.757 1707.65,-626.298 1707.24,-521.171"/>
<polygon fill="red" stroke="red" points="1710.74,-521.081 1707.19,-511.097 1703.74,-521.113 1710.74,-521.081"/>
<text text-anchor="middle" x="1767.5" y="-823.3" font-family="Times New Roman,serif" font-size="14.00" fill="red"> &#160;&#160;press(&quot;BackKey&quot;) &#160;&#160;</text>
</g>
<!-- state_63&#45;&gt;state_6 -->
<g id="edge34" class="edge"><title>state_63&#45;&gt;state_6</title>
<path fill="none" stroke="black" d="M1850.79,-692.979C1846.16,-688.913 1841.24,-685.219 1836,-682 1791.38,-654.584 1417.09,-669.426 1365,-664 1002.56,-626.248 575.093,-539.535 405.127,-503.339"/>
<polygon fill="black" stroke="black" points="405.789,-499.902 395.278,-501.237 404.327,-506.748 405.789,-499.902"/>
<text text-anchor="middle" x="1429" y="-652.8" font-family="Times New Roman,serif" font-size="14.00"> &#160;&#160;press(&quot;MenuKey&quot;) &#160;&#160;</text>
</g>
<!-- state_63&#45;&gt;state_63 -->
<g id="edge27" class="edge"><title>state_63&#45;&gt;state_63</title>
<path fill="none" stroke="black" d="M1981.07,-836.831C1991.7,-835.423 1999,-832.146 1999,-827 1999,-823.703 1996,-821.173 1991.06,-819.411"/>
<polygon fill="black" stroke="black" points="1991.6,-815.945 1981.07,-817.169 1990.06,-822.775 1991.6,-815.945"/>
<text text-anchor="middle" x="2070" y="-823.3" font-family="Times New Roman,serif" font-size="14.00"> &#160;&#160;longClick(&quot;index=1&quot;) &#160;&#160;</text>
</g>
<!-- state_63&#45;&gt;state_63 -->
<g id="edge31" class="edge"><title>state_63&#45;&gt;state_63</title>
<path fill="none" stroke="black" d="M1981.1,-845.04C2048.76,-852.686 2141,-846.673 2141,-827 2141,-808.288 2057.55,-801.934 1991.17,-807.938"/>
<polygon fill="black" stroke="black" points="1990.69,-804.468 1981.1,-808.96 1991.4,-811.432 1990.69,-804.468"/>
<text text-anchor="middle" x="2194" y="-823.3" font-family="Times New Roman,serif" font-size="14.00"> &#160;&#160;swipe(&quot;Right&quot;) &#160;&#160;</text>
</g>
<!-- state_63&#45;&gt;state_63 -->
<g id="edge32" class="edge"><title>state_63&#45;&gt;state_63</title>
<path fill="none" stroke="black" d="M1981.01,-850.336C2079.26,-867.027 2247,-859.249 2247,-827 2247,-795.822 2090.22,-787.516 1991.02,-802.082"/>
<polygon fill="black" stroke="black" points="1990.34,-798.646 1981.01,-803.664 1991.44,-805.56 1990.34,-798.646"/>
<text text-anchor="middle" x="2296.5" y="-823.3" font-family="Times New Roman,serif" font-size="14.00"> &#160;&#160;swipe(&quot;Left&quot;) &#160;&#160;</text>
</g>
<!-- state_63&#45;&gt;state_67 -->
<g id="edge29" class="edge"><title>state_63&#45;&gt;state_67</title>
<path fill="none" stroke="black" d="M1981.3,-763.136C2005.6,-735.336 2030.35,-700.652 2043,-664 2045.55,-656.61 2047.13,-649.025 2047.9,-641.349"/>
<polygon fill="black" stroke="black" points="2051.4,-641.392 2048.45,-631.215 2044.41,-641.009 2051.4,-641.392"/>
<text text-anchor="middle" x="2117" y="-652.8" font-family="Times New Roman,serif" font-size="14.00"> &#160;&#160;longClick(&quot;index=0&quot;) &#160;&#160;</text>
</g>
<!-- state_63&#45;&gt;activity_1 -->
<g id="edge26" class="edge"><title>state_63&#45;&gt;activity_1</title>
<path fill="none" stroke="red" d="M1927.24,-972.382C1927.53,-978.332 1927.79,-984.223 1928,-990 1928.25,-996.662 1931.85,-999.558 1928,-1005 1914.12,-1024.62 1891.12,-1003.55 1877,-1023 1866.45,-1037.52 1881.41,-1333.03 1869,-1346 1838.47,-1377.91 1545.06,-1381.3 1419.53,-1381.28"/>
<polygon fill="red" stroke="red" points="1419.35,-1377.78 1409.35,-1381.27 1419.34,-1384.78 1419.35,-1377.78"/>
<text text-anchor="middle" x="1934.5" y="-1164.3" font-family="Times New Roman,serif" font-size="14.00" fill="red"> &#160;&#160;click(&quot;index=1&quot;) &#160;&#160;</text>
</g>
<!-- state_63&#45;&gt;activity_1 -->
<g id="edge28" class="edge"><title>state_63&#45;&gt;activity_1</title>
<path fill="none" stroke="red" d="M1978.95,-972.136C1984.29,-989.023 1988.84,-1006.22 1992,-1023 2003.91,-1086.34 2030.34,-1261.2 1992,-1313 1958.18,-1358.7 1567.68,-1374.96 1419.53,-1379.5"/>
<polygon fill="red" stroke="red" points="1419.18,-1376.01 1409.29,-1379.81 1419.39,-1383.01 1419.18,-1376.01"/>
<text text-anchor="middle" x="2069.5" y="-1164.3" font-family="Times New Roman,serif" font-size="14.00" fill="red"> &#160;&#160;click(&quot;index=0&quot;) &#160;&#160;</text>
</g>
<!-- state_63&#45;&gt;activity_1 -->
<g id="edge30" class="edge"><title>state_63&#45;&gt;activity_1</title>
<path fill="none" stroke="red" d="M1981.31,-843.044C2064.22,-866.036 2203.79,-918.69 2265,-1023 2297.61,-1078.58 2301.51,-1259.89 2265,-1313 2241.81,-1346.74 2219.09,-1337.68 2179,-1346 2033.46,-1376.2 1579.04,-1380.41 1419.26,-1380.94"/>
<polygon fill="red" stroke="red" points="1419.15,-1377.44 1409.16,-1380.97 1419.17,-1384.44 1419.15,-1377.44"/>
<text text-anchor="middle" x="2347.5" y="-1164.3" font-family="Times New Roman,serif" font-size="14.00" fill="red"> &#160;&#160;click(&quot;index=1&quot;) &#160;&#160;</text>
</g>
<!-- state_63&#45;&gt;final -->
<g id="edge33" class="edge"><title>state_63&#45;&gt;final</title>
<path fill="none" stroke="red" d="M1850.78,-695.936C1846.13,-690.935 1841.21,-686.251 1836,-682 1815.42,-665.196 1798.53,-682.015 1779,-664 1737.82,-626.004 1719.63,-561.095 1712.03,-521.327"/>
<polygon fill="red" stroke="red" points="1715.44,-520.532 1710.24,-511.305 1708.55,-521.765 1715.44,-520.532"/>
<text text-anchor="middle" x="1841.5" y="-652.8" font-family="Times New Roman,serif" font-size="14.00" fill="red"> &#160;&#160;press(&quot;BackKey&quot;) &#160;&#160;</text>
</g>
<!-- state_67&#45;&gt;state_0 -->
<g id="edge35" class="edge"><title>state_67&#45;&gt;state_0</title>
<path fill="none" stroke="black" d="M2054.28,-492.685C2211.64,-510.322 2599,-578.838 2599,-826 2599,-1383 2599,-1383 2599,-1383 2599,-1442.34 2559.26,-1496.59 2520.56,-1535.35"/>
<polygon fill="black" stroke="black" points="2518.05,-1532.91 2513.35,-1542.41 2522.95,-1537.91 2518.05,-1532.91"/>
<text text-anchor="middle" x="2656.5" y="-1164.3" font-family="Times New Roman,serif" font-size="14.00"> &#160;&#160;click(&quot;index=0&quot;) &#160;&#160;</text>
</g>
<!-- state_67&#45;&gt;state_0 -->
<g id="edge36" class="edge"><title>state_67&#45;&gt;state_0</title>
<path fill="none" stroke="black" d="M2054.28,-502.533C2181,-537.001 2448,-632.575 2448,-826 2448,-1383 2448,-1383 2448,-1383 2448,-1401.65 2448,-1421.22 2448,-1440.62"/>
<polygon fill="black" stroke="black" points="2444.5,-1440.74 2448,-1450.74 2451.5,-1440.74 2444.5,-1440.74"/>
<text text-anchor="middle" x="2505.5" y="-1164.3" font-family="Times New Roman,serif" font-size="14.00"> &#160;&#160;click(&quot;index=0&quot;) &#160;&#160;</text>
</g>
<!-- state_67&#45;&gt;state_63 -->
<g id="edge39" class="edge"><title>state_67&#45;&gt;state_63</title>
<path fill="none" stroke="black" d="M2054.1,-509.505C2127.5,-538.785 2231.79,-594.511 2192,-664 2149.17,-738.794 2056.91,-782.427 1990.85,-805.201"/>
<polygon fill="black" stroke="black" points="1989.66,-801.907 1981.3,-808.411 1991.89,-808.542 1989.66,-801.907"/>
<text text-anchor="middle" x="2259.5" y="-652.8" font-family="Times New Roman,serif" font-size="14.00"> &#160;&#160;press(&quot;BackKey&quot;) &#160;&#160;</text>
</g>
<!-- state_67&#45;&gt;state_63 -->
<g id="edge40" class="edge"><title>state_67&#45;&gt;state_63</title>
<path fill="none" stroke="black" d="M1923.93,-607.38C1918.66,-621.111 1914.16,-635.153 1911,-649 1909.29,-656.481 1907.97,-664.186 1906.96,-672"/>
<polygon fill="black" stroke="black" points="1903.48,-671.622 1905.86,-681.947 1910.44,-672.394 1903.48,-671.622"/>
<text text-anchor="middle" x="1975" y="-652.8" font-family="Times New Roman,serif" font-size="14.00"> &#160;&#160;press(&quot;MenuKey&quot;) &#160;&#160;</text>
</g>
<!-- state_67&#45;&gt;state_67 -->
<g id="edge37" class="edge"><title>state_67&#45;&gt;state_67</title>
<path fill="none" stroke="black" d="M2054.07,-500.746C2064.7,-498.635 2072,-493.72 2072,-486 2072,-480.934 2068.86,-477.076 2063.69,-474.425"/>
<polygon fill="black" stroke="black" points="2064.66,-471.061 2054.07,-471.254 2062.47,-477.709 2064.66,-471.061"/>
<text text-anchor="middle" x="2125" y="-482.3" font-family="Times New Roman,serif" font-size="14.00"> &#160;&#160;swipe(&quot;Right&quot;) &#160;&#160;</text>
</g>
<!-- state_67&#45;&gt;state_67 -->
<g id="edge38" class="edge"><title>state_67&#45;&gt;state_67</title>
<path fill="none" stroke="black" d="M2054.11,-514.524C2109.9,-523.648 2178,-514.14 2178,-486 2178,-459.509 2117.65,-449.53 2064.03,-456.064"/>
<polygon fill="black" stroke="black" points="2063.52,-452.601 2054.11,-457.476 2064.51,-459.531 2063.52,-452.601"/>
<text text-anchor="middle" x="2227.5" y="-482.3" font-family="Times New Roman,serif" font-size="14.00"> &#160;&#160;swipe(&quot;Left&quot;) &#160;&#160;</text>
</g>
<!-- state_52 -->
<g id="node7" class="node"><title>state_52</title>
<g id="a_node7"><a xlink:href="52.png" xlink:title="&lt;TABLE&gt;">
<polygon fill="none" stroke="black" points="601,-1313 471,-1313 471,-1023 601,-1023 601,-1313"/>
<text text-anchor="start" x="512.5" y="-1301.8" font-family="Times New Roman,serif" font-size="14.00">state_52</text>
<text text-anchor="start" x="505.5" y="-1286.8" font-family="Times New Roman,serif" font-size="14.00">incoming:1</text>
<text text-anchor="start" x="506.5" y="-1271.8" font-family="Times New Roman,serif" font-size="14.00">outgoing:9</text>
<text text-anchor="start" x="518" y="-1256.8" font-family="Times New Roman,serif" font-size="14.00">loop:0</text>
<image xlink:href="52.png" width="130px" height="230px" preserveAspectRatio="xMinYMin meet" x="471" y="-1253"/>
</a>
</g>
</g>
<!-- state_52&#45;&gt;state_6 -->
<g id="edge49" class="edge"><title>state_52&#45;&gt;state_6</title>
<path fill="none" stroke="black" d="M470.747,-1036.72C466.398,-1031.84 461.817,-1027.24 457,-1023 410.398,-982.008 361.966,-1023.28 327,-972 291.471,-919.897 298.546,-762.723 310.533,-641.272"/>
<polygon fill="black" stroke="black" points="314.036,-641.418 311.554,-631.117 307.071,-640.717 314.036,-641.418"/>
<text text-anchor="middle" x="391" y="-823.3" font-family="Times New Roman,serif" font-size="14.00"> &#160;&#160;press(&quot;MenuKey&quot;) &#160;&#160;</text>
</g>
<!-- state_52&#45;&gt;state_67 -->
<g id="edge44" class="edge"><title>state_52&#45;&gt;state_67</title>
<path fill="none" stroke="black" d="M504.964,-1022.77C507.837,-1010.9 512.934,-999.737 521,-990 548.413,-956.905 586.865,-1003.59 616,-972 659.941,-924.359 599.819,-726.436 647,-682 669.146,-661.142 1711.82,-639.592 1741,-631 1804.19,-612.396 1868.31,-574.559 1915.51,-542.338"/>
<polygon fill="black" stroke="black" points="1917.59,-545.16 1923.83,-536.6 1913.61,-539.398 1917.59,-545.16"/>
<text text-anchor="middle" x="718" y="-823.3" font-family="Times New Roman,serif" font-size="14.00"> &#160;&#160;longClick(&quot;index=0&quot;) &#160;&#160;</text>
</g>
<!-- state_87 -->
<g id="node8" class="node"><title>state_87</title>
<g id="a_node8"><a xlink:href="87.png" xlink:title="&lt;TABLE&gt;">
<polygon fill="none" stroke="black" points="928,-972 798,-972 798,-682 928,-682 928,-972"/>
<text text-anchor="start" x="839.5" y="-960.8" font-family="Times New Roman,serif" font-size="14.00">state_87</text>
<text text-anchor="start" x="832.5" y="-945.8" font-family="Times New Roman,serif" font-size="14.00">incoming:7</text>
<text text-anchor="start" x="833.5" y="-930.8" font-family="Times New Roman,serif" font-size="14.00">outgoing:9</text>
<text text-anchor="start" x="845" y="-915.8" font-family="Times New Roman,serif" font-size="14.00">loop:3</text>
<image xlink:href="87.png" width="130px" height="230px" preserveAspectRatio="xMinYMin meet" x="798" y="-912"/>
</a>
</g>
</g>
<!-- state_52&#45;&gt;state_87 -->
<g id="edge42" class="edge"><title>state_52&#45;&gt;state_87</title>
<path fill="none" stroke="black" d="M601.144,-1130.67C649.972,-1101.22 716.309,-1056.3 764,-1005 774.029,-994.212 783.425,-982.222 792.125,-969.713"/>
<polygon fill="black" stroke="black" points="795.029,-971.666 797.742,-961.424 789.235,-967.739 795.029,-971.666"/>
<text text-anchor="middle" x="845" y="-993.8" font-family="Times New Roman,serif" font-size="14.00"> &#160;&#160;longClick(&quot;index=1&quot;) &#160;&#160;</text>
</g>
<!-- state_52&#45;&gt;state_87 -->
<g id="edge46" class="edge"><title>state_52&#45;&gt;state_87</title>
<path fill="none" stroke="black" d="M517.441,-1022.97C521.165,-1010.83 527.106,-999.563 536,-990 573.631,-949.539 737.502,-1001.85 784,-972 785.998,-970.717 787.95,-969.365 789.857,-967.95"/>
<polygon fill="black" stroke="black" points="792.395,-970.396 797.927,-961.36 787.968,-964.974 792.395,-970.396"/>
<text text-anchor="middle" x="589" y="-993.8" font-family="Times New Roman,serif" font-size="14.00"> &#160;&#160;swipe(&quot;Right&quot;) &#160;&#160;</text>
</g>
<!-- state_52&#45;&gt;state_87 -->
<g id="edge47" class="edge"><title>state_52&#45;&gt;state_87</title>
<path fill="none" stroke="black" d="M601.147,-1060.41C622.616,-1028.71 645.05,-999.792 661,-990 708.083,-961.093 738.626,-1003.52 784,-972 786.152,-970.505 788.25,-968.932 790.298,-967.289"/>
<polygon fill="black" stroke="black" points="792.71,-969.829 797.94,-960.615 788.106,-964.556 792.71,-969.829"/>
<text text-anchor="middle" x="710.5" y="-993.8" font-family="Times New Roman,serif" font-size="14.00"> &#160;&#160;swipe(&quot;Left&quot;) &#160;&#160;</text>
</g>
<!-- state_52&#45;&gt;activity_1 -->
<g id="edge41" class="edge"><title>state_52&#45;&gt;activity_1</title>
<path fill="none" stroke="red" d="M518.014,-1313.37C521.854,-1325.44 527.936,-1336.6 537,-1346 563.689,-1373.69 1124.72,-1379.55 1306.61,-1380.72"/>
<polygon fill="red" stroke="red" points="1306.75,-1384.22 1316.77,-1380.78 1306.79,-1377.22 1306.75,-1384.22"/>
<text text-anchor="middle" x="594.5" y="-1334.8" font-family="Times New Roman,serif" font-size="14.00" fill="red"> &#160;&#160;click(&quot;index=1&quot;) &#160;&#160;</text>
</g>
<!-- state_52&#45;&gt;activity_1 -->
<g id="edge43" class="edge"><title>state_52&#45;&gt;activity_1</title>
<path fill="none" stroke="red" d="M601.088,-1265.91C627.313,-1301.74 655.832,-1336.07 675,-1346 730.377,-1374.69 1152.25,-1379.86 1306.63,-1380.79"/>
<polygon fill="red" stroke="red" points="1306.82,-1384.3 1316.84,-1380.85 1306.86,-1377.3 1306.82,-1384.3"/>
<text text-anchor="middle" x="732.5" y="-1334.8" font-family="Times New Roman,serif" font-size="14.00" fill="red"> &#160;&#160;click(&quot;index=0&quot;) &#160;&#160;</text>
</g>
<!-- state_52&#45;&gt;activity_1 -->
<g id="edge45" class="edge"><title>state_52&#45;&gt;activity_1</title>
<path fill="none" stroke="red" d="M601.107,-1210.27C652.489,-1242.9 725.937,-1289.68 790,-1331 800.256,-1337.61 801.418,-1342.15 813,-1346 903.324,-1376.01 1185.44,-1380.51 1306.69,-1381.03"/>
<polygon fill="red" stroke="red" points="1306.86,-1384.53 1316.87,-1381.07 1306.89,-1377.53 1306.86,-1384.53"/>
<text text-anchor="middle" x="870.5" y="-1334.8" font-family="Times New Roman,serif" font-size="14.00" fill="red"> &#160;&#160;click(&quot;index=1&quot;) &#160;&#160;</text>
</g>
<!-- state_52&#45;&gt;final -->
<g id="edge48" class="edge"><title>state_52&#45;&gt;final</title>
<path fill="none" stroke="red" d="M493.791,-1022.56C492.728,-1016.65 491.788,-1010.78 491,-1005 471.611,-862.76 423.559,-808.728 491,-682 503.335,-658.822 515.477,-658.38 540,-649 567.349,-638.539 1479.94,-517.116 1671.82,-491.662"/>
<polygon fill="red" stroke="red" points="1672.47,-495.107 1681.92,-490.323 1671.55,-488.168 1672.47,-495.107"/>
<text text-anchor="middle" x="553.5" y="-823.3" font-family="Times New Roman,serif" font-size="14.00" fill="red"> &#160;&#160;press(&quot;BackKey&quot;) &#160;&#160;</text>
</g>
<!-- state_87&#45;&gt;state_6 -->
<g id="edge58" class="edge"><title>state_87&#45;&gt;state_6</title>
<path fill="none" stroke="black" d="M797.728,-692.162C793.418,-688.421 788.847,-685.006 784,-682 742.7,-656.388 382.288,-697.413 347,-664 339.763,-657.147 334.081,-649.208 329.677,-640.565"/>
<polygon fill="black" stroke="black" points="332.818,-639.017 325.538,-631.32 326.429,-641.877 332.818,-639.017"/>
<text text-anchor="middle" x="411" y="-652.8" font-family="Times New Roman,serif" font-size="14.00"> &#160;&#160;press(&quot;MenuKey&quot;) &#160;&#160;</text>
</g>
<!-- state_87&#45;&gt;state_67 -->
<g id="edge53" class="edge"><title>state_87&#45;&gt;state_67</title>
<path fill="none" stroke="black" d="M928.111,-802.741C1019.6,-770.92 1191.95,-714.11 1343,-682 1364.8,-677.365 1719.89,-638.155 1741,-631 1803.61,-609.782 1867.99,-571.836 1915.46,-540.223"/>
<polygon fill="black" stroke="black" points="1917.47,-543.085 1923.82,-534.602 1913.57,-537.275 1917.47,-543.085"/>
<text text-anchor="middle" x="1679" y="-652.8" font-family="Times New Roman,serif" font-size="14.00"> &#160;&#160;longClick(&quot;index=0&quot;) &#160;&#160;</text>
</g>
<!-- state_87&#45;&gt;state_87 -->
<g id="edge51" class="edge"><title>state_87&#45;&gt;state_87</title>
<path fill="none" stroke="black" d="M928.072,-836.831C938.697,-835.423 946,-832.146 946,-827 946,-823.703 943.003,-821.173 938.055,-819.411"/>
<polygon fill="black" stroke="black" points="938.596,-815.945 928.072,-817.169 937.062,-822.775 938.596,-815.945"/>
<text text-anchor="middle" x="1017" y="-823.3" font-family="Times New Roman,serif" font-size="14.00"> &#160;&#160;longClick(&quot;index=1&quot;) &#160;&#160;</text>
</g>
<!-- state_87&#45;&gt;state_87 -->
<g id="edge55" class="edge"><title>state_87&#45;&gt;state_87</title>
<path fill="none" stroke="black" d="M928.098,-845.04C995.758,-852.686 1088,-846.673 1088,-827 1088,-808.288 1004.55,-801.934 938.171,-807.938"/>
<polygon fill="black" stroke="black" points="937.693,-804.468 928.098,-808.96 938.4,-811.432 937.693,-804.468"/>
<text text-anchor="middle" x="1141" y="-823.3" font-family="Times New Roman,serif" font-size="14.00"> &#160;&#160;swipe(&quot;Right&quot;) &#160;&#160;</text>
</g>
<!-- state_87&#45;&gt;state_87 -->
<g id="edge56" class="edge"><title>state_87&#45;&gt;state_87</title>
<path fill="none" stroke="black" d="M928.011,-850.336C1026.26,-867.027 1194,-859.249 1194,-827 1194,-795.822 1037.22,-787.516 938.019,-802.082"/>
<polygon fill="black" stroke="black" points="937.342,-798.646 928.011,-803.664 938.435,-805.56 937.342,-798.646"/>
<text text-anchor="middle" x="1243.5" y="-823.3" font-family="Times New Roman,serif" font-size="14.00"> &#160;&#160;swipe(&quot;Left&quot;) &#160;&#160;</text>
</g>
<!-- state_87&#45;&gt;activity_1 -->
<g id="edge50" class="edge"><title>state_87&#45;&gt;activity_1</title>
<path fill="none" stroke="red" d="M928.128,-929.605C936.906,-956.169 937.681,-983.385 920,-1005 894.448,-1036.24 856.552,-991.763 831,-1023 749.394,-1122.76 748.594,-1213.9 831,-1313 859.034,-1346.71 886.629,-1316.47 928,-1331 941.321,-1335.68 942.467,-1341.98 956,-1346 1020.2,-1365.07 1211.2,-1375.05 1306.96,-1378.98"/>
<polygon fill="red" stroke="red" points="1306.9,-1382.48 1317.04,-1379.38 1307.19,-1375.48 1306.9,-1382.48"/>
<text text-anchor="middle" x="888.5" y="-1164.3" font-family="Times New Roman,serif" font-size="14.00" fill="red"> &#160;&#160;click(&quot;index=1&quot;) &#160;&#160;</text>
</g>
<!-- state_87&#45;&gt;activity_1 -->
<g id="edge52" class="edge"><title>state_87&#45;&gt;activity_1</title>
<path fill="none" stroke="red" d="M928.168,-963.769C931.674,-972.573 934.988,-981.367 938,-990 942.972,-1004.25 943.288,-1008.15 946,-1023 957.669,-1086.88 940.629,-1262.94 982,-1313 1022.48,-1361.97 1211.06,-1375.7 1306.85,-1379.53"/>
<polygon fill="red" stroke="red" points="1306.81,-1383.03 1316.94,-1379.91 1307.08,-1376.03 1306.81,-1383.03"/>
<text text-anchor="middle" x="1039.5" y="-1164.3" font-family="Times New Roman,serif" font-size="14.00" fill="red"> &#160;&#160;click(&quot;index=0&quot;) &#160;&#160;</text>
</g>
<!-- state_87&#45;&gt;activity_1 -->
<g id="edge54" class="edge"><title>state_87&#45;&gt;activity_1</title>
<path fill="none" stroke="red" d="M928.239,-839.464C1018.43,-859.203 1177.98,-909.052 1248,-1023 1281.74,-1077.91 1289.29,-1263.52 1248,-1313 1219.34,-1347.33 1177.66,-1296.67 1149,-1331 1144.73,-1336.12 1144.68,-1340.92 1149,-1346 1168.85,-1369.36 1250.06,-1377.16 1306.52,-1379.75"/>
<polygon fill="red" stroke="red" points="1306.61,-1383.26 1316.75,-1380.17 1306.9,-1376.26 1306.61,-1383.26"/>
<text text-anchor="middle" x="1333.5" y="-1164.3" font-family="Times New Roman,serif" font-size="14.00" fill="red"> &#160;&#160;click(&quot;index=1&quot;) &#160;&#160;</text>
</g>
<!-- state_87&#45;&gt;final -->
<g id="edge57" class="edge"><title>state_87&#45;&gt;final</title>
<path fill="none" stroke="red" d="M797.912,-692.663C793.546,-688.75 788.913,-685.167 784,-682 739.792,-653.503 583.749,-702.58 548,-664 543.469,-659.11 543.624,-654.03 548,-649 557.55,-638.022 1478.77,-516.879 1671.79,-491.604"/>
<polygon fill="red" stroke="red" points="1672.48,-495.043 1681.94,-490.275 1671.57,-488.103 1672.48,-495.043"/>
<text text-anchor="middle" x="610.5" y="-652.8" font-family="Times New Roman,serif" font-size="14.00" fill="red"> &#160;&#160;press(&quot;BackKey&quot;) &#160;&#160;</text>
</g>
<!-- activity_1&#45;&gt;state_7 -->
<g id="edge62" class="edge"><title>activity_1&#45;&gt;state_7</title>
<path fill="none" stroke="red" d="M1409.14,-1380.65C1657.71,-1378.56 2828.19,-1365.94 2882,-1313 2981.86,-1214.75 2903,-1138.59 2903,-998.5 2903,-998.5 2903,-998.5 2903,-485 2903,-423.917 2912.86,-357.638 2924.72,-300.023"/>
<polygon fill="red" stroke="red" points="2928.17,-300.618 2926.79,-290.113 2921.32,-299.183 2928.17,-300.618"/>
<text text-anchor="middle" x="2951" y="-823.3" font-family="Times New Roman,serif" font-size="14.00" fill="red"> &#160;&#160;click(&quot;大约&quot;) &#160;&#160;</text>
</g>
<!-- activity_1&#45;&gt;state_32 -->
<g id="edge60" class="edge"><title>activity_1&#45;&gt;state_32</title>
<path fill="none" stroke="red" d="M1408.48,-1378.23C1454.49,-1374.36 1521.04,-1365.49 1537,-1346 1553.65,-1325.67 1553.82,-1300.44 1546.28,-1275.47"/>
<polygon fill="red" stroke="red" points="1549.57,-1274.26 1543.04,-1265.92 1542.94,-1276.52 1549.57,-1274.26"/>
<text text-anchor="middle" x="1606.5" y="-1334.8" font-family="Times New Roman,serif" font-size="14.00" fill="red"> &#160;&#160;press(&quot;BackKey&quot;) &#160;&#160;</text>
</g>
<!-- activity_1&#45;&gt;state_32 -->
<g id="edge61" class="edge"><title>activity_1&#45;&gt;state_32</title>
<path fill="none" stroke="red" d="M1408.83,-1379.14C1490.83,-1375.33 1655.72,-1365.34 1673,-1346 1723.46,-1289.52 1626.95,-1232.01 1552.56,-1198.47"/>
<polygon fill="red" stroke="red" points="1553.71,-1195.15 1543.15,-1194.29 1550.87,-1201.55 1553.71,-1195.15"/>
<text text-anchor="middle" x="1742.5" y="-1334.8" font-family="Times New Roman,serif" font-size="14.00" fill="red"> &#160;&#160;press(&quot;BackKey&quot;) &#160;&#160;</text>
</g>
<!-- activity_1&#45;&gt;state_63 -->
<g id="edge63" class="edge"><title>activity_1&#45;&gt;state_63</title>
<path fill="none" stroke="red" d="M1409.14,-1380.59C1567.88,-1378.69 2084.24,-1368.29 2131,-1313 2172.61,-1263.79 2157.11,-1081.92 2131,-1023 2102.2,-957.997 2039.84,-905.415 1989.66,-871.306"/>
<polygon fill="red" stroke="red" points="1991.34,-868.22 1981.08,-865.573 1987.45,-874.04 1991.34,-868.22"/>
<text text-anchor="middle" x="2204" y="-1164.3" font-family="Times New Roman,serif" font-size="14.00" fill="red"> &#160;&#160;click(&quot;保存&quot;) &#160;&#160;</text>
</g>
<!-- activity_1&#45;&gt;state_63 -->
<g id="edge64" class="edge"><title>activity_1&#45;&gt;state_63</title>
<path fill="none" stroke="red" d="M1409.39,-1380.84C1518.13,-1379.98 1782.27,-1374.91 1809,-1346 1831.66,-1321.5 1778.82,-1323.9 1772,-1313 1703.64,-1203.73 1687.29,-1120.14 1772,-1023 1810.62,-978.706 1862.78,-1047.85 1903,-1005 1909.58,-997.988 1914.75,-990.056 1918.76,-981.53"/>
<polygon fill="red" stroke="red" points="1922.08,-982.642 1922.66,-972.063 1915.61,-979.976 1922.08,-982.642"/>
<text text-anchor="middle" x="1820" y="-1164.3" font-family="Times New Roman,serif" font-size="14.00" fill="red"> &#160;&#160;click(&quot;删除&quot;) &#160;&#160;</text>
</g>
<!-- activity_1&#45;&gt;state_52 -->
<g id="edge65" class="edge"><title>activity_1&#45;&gt;state_52</title>
<path fill="none" stroke="red" d="M1316.81,-1381.09C1128.63,-1381.23 428.289,-1379.48 396,-1346 391.372,-1341.2 392.008,-1336.34 396,-1331 412.925,-1308.36 434.985,-1330.73 457,-1313 459.29,-1311.16 461.524,-1309.23 463.703,-1307.22"/>
<polygon fill="red" stroke="red" points="466.232,-1309.64 470.897,-1300.13 461.318,-1304.66 466.232,-1309.64"/>
<text text-anchor="middle" x="458.5" y="-1334.8" font-family="Times New Roman,serif" font-size="14.00" fill="red"> &#160;&#160;press(&quot;BackKey&quot;) &#160;&#160;</text>
</g>
<!-- activity_1&#45;&gt;state_87 -->
<g id="edge59" class="edge"><title>activity_1&#45;&gt;state_87</title>
<path fill="none" stroke="red" d="M1317.57,-1378.13C1261.34,-1373.84 1169.5,-1364.25 1141,-1346 1126.16,-1336.49 1124.74,-1329.67 1119,-1313 1097.94,-1251.9 1126.61,-1080.45 1097,-1023 1061.82,-954.733 991.242,-901.164 936.756,-867.588"/>
<polygon fill="red" stroke="red" points="938.522,-864.566 928.157,-862.372 934.892,-870.551 938.522,-864.566"/>
<text text-anchor="middle" x="1181.5" y="-1164.3" font-family="Times New Roman,serif" font-size="14.00" fill="red"> &#160;&#160;press(&quot;BackKey&quot;) &#160;&#160;</text>
</g>
</g>
</svg>
