<?xml version="1.0" encoding="UTF-8" standalone="no"?>
<!DOCTYPE svg PUBLIC "-//W3C//DTD SVG 1.1//EN"
 "http://www.w3.org/Graphics/SVG/1.1/DTD/svg11.dtd">
<!-- Generated by graphviz version 2.38.0 (20140413.2041)
 -->
<!-- Title: result Pages: 1 -->
<svg width="612pt" height="996pt"
 viewBox="0.00 0.00 612.00 995.90" xmlns="http://www.w3.org/2000/svg" xmlns:xlink="http://www.w3.org/1999/xlink">
<g id="graph0" class="graph" transform="scale(1 1) rotate(0) translate(4 991.902)">
<title>result</title>
<polygon fill="white" stroke="none" points="-4,4 -4,-991.902 608,-991.902 608,4 -4,4"/>
<!-- initial -->
<g id="node1" class="node"><title>initial</title>
<image xlink:href="-1.png" width="50px" height="50px" preserveAspectRatio="xMinYMin meet" x="0" y="-517.902"/>
</g>
<!-- activity_0 -->
<g id="node2" class="node"><title>activity_0</title>
<g id="a_node2"><a xlink:href="activity_0.svg" xlink:title="&lt;TABLE&gt;">
<polygon fill="none" stroke="black" points="217,-630.402 87,-630.402 87,-355.402 217,-355.402 217,-630.402"/>
<text text-anchor="start" x="124.5" y="-618.702" font-family="Times New Roman,serif" font-size="14.00">activity_0</text>
<text text-anchor="start" x="121.5" y="-603.702" font-family="Times New Roman,serif" font-size="14.00">incoming:7</text>
<text text-anchor="start" x="119" y="-588.702" font-family="Times New Roman,serif" font-size="14.00">outgoing:18</text>
<image xlink:href="0.png" width="130px" height="230px" preserveAspectRatio="xMinYMin meet" x="87" y="-584.902"/>
</a>
</g>
</g>
<!-- initial&#45;&gt;activity_0 -->
<g id="edge1" class="edge"><title>initial&#45;&gt;activity_0</title>
<path fill="none" stroke="black" d="M50.1013,-492.902C57.9994,-492.902 67.2332,-492.902 76.8484,-492.902"/>
<polygon fill="black" stroke="black" points="76.9667,-496.402 86.9666,-492.902 76.9666,-489.402 76.9667,-496.402"/>
</g>
<!-- activity_1 -->
<g id="node3" class="node"><title>activity_1</title>
<g id="a_node3"><a xlink:href="activity_1.svg" xlink:title="&lt;TABLE&gt;">
<polygon fill="none" stroke="black" points="604,-725.402 474,-725.402 474,-450.402 604,-450.402 604,-725.402"/>
<text text-anchor="start" x="511.5" y="-713.702" font-family="Times New Roman,serif" font-size="14.00">activity_1</text>
<text text-anchor="start" x="505" y="-698.702" font-family="Times New Roman,serif" font-size="14.00">incoming:13</text>
<text text-anchor="start" x="509.5" y="-683.702" font-family="Times New Roman,serif" font-size="14.00">outgoing:7</text>
<image xlink:href="2.png" width="130px" height="230px" preserveAspectRatio="xMinYMin meet" x="474" y="-679.902"/>
</a>
</g>
</g>
<!-- activity_0&#45;&gt;activity_1 -->
<g id="edge2" class="edge"><title>activity_0&#45;&gt;activity_1</title>
<path fill="none" stroke="black" d="M160.342,-630.619C169.567,-743.205 190.056,-889.654 235,-926.902 310.626,-989.577 378.812,-987.644 456,-926.902 486.916,-902.572 507.574,-815.6 520.422,-735.846"/>
<polygon fill="black" stroke="black" points="523.928,-736.081 522.028,-725.658 517.013,-734.991 523.928,-736.081"/>
<text text-anchor="middle" x="345.5" y="-976.702" font-family="Times New Roman,serif" font-size="14.00"> &#160;&#160;&lt;a0.s0,click(&quot;index=1&quot;),a1.s2&gt; &#160;&#160;</text>
</g>
<!-- activity_0&#45;&gt;activity_1 -->
<g id="edge11" class="edge"><title>activity_0&#45;&gt;activity_1</title>
<path fill="none" stroke="black" d="M163.283,-630.453C174.028,-731.44 195.118,-856.432 235,-888.902 254.043,-904.405 436.488,-903.809 456,-888.902 481.841,-869.159 501.482,-801.706 515.054,-735.647"/>
<polygon fill="black" stroke="black" points="518.556,-735.986 517.096,-725.492 511.693,-734.606 518.556,-735.986"/>
<text text-anchor="middle" x="345.5" y="-903.702" font-family="Times New Roman,serif" font-size="14.00"> &#160;&#160;&lt;a0.s32,click(&quot;index=1&quot;),a1.s24&gt; &#160;&#160;</text>
</g>
<!-- activity_0&#45;&gt;activity_1 -->
<g id="edge12" class="edge"><title>activity_0&#45;&gt;activity_1</title>
<path fill="none" stroke="black" d="M166.88,-630.624C178.994,-719.371 200.218,-823.186 235,-850.902 254.204,-866.204 436.221,-865.453 456,-850.902 476.675,-835.691 494.428,-787.004 508.074,-735.585"/>
<polygon fill="black" stroke="black" points="511.537,-736.176 510.661,-725.617 504.761,-734.417 511.537,-736.176"/>
<text text-anchor="middle" x="345.5" y="-865.702" font-family="Times New Roman,serif" font-size="14.00"> &#160;&#160;&lt;a0.s32,click(&quot;index=0&quot;),a1.s24&gt; &#160;&#160;</text>
</g>
<!-- activity_0&#45;&gt;activity_1 -->
<g id="edge13" class="edge"><title>activity_0&#45;&gt;activity_1</title>
<path fill="none" stroke="black" d="M171.333,-630.805C184.547,-706.617 205.324,-789.871 235,-812.902 254.399,-827.956 435.882,-826.982 456,-812.902 482.856,-794.105 500.947,-765.545 513.126,-735.018"/>
<polygon fill="black" stroke="black" points="516.465,-736.081 516.718,-725.489 509.915,-733.611 516.465,-736.081"/>
<text text-anchor="middle" x="345.5" y="-826.702" font-family="Times New Roman,serif" font-size="14.00"> &#160;&#160;&lt;a0.s32,click(&quot;index=1&quot;),a1.s2&gt; &#160;&#160;</text>
</g>
<!-- activity_0&#45;&gt;activity_1 -->
<g id="edge15" class="edge"><title>activity_0&#45;&gt;activity_1</title>
<path fill="none" stroke="black" d="M176.951,-630.78C190.825,-692.899 210.432,-756.46 235,-774.902 254.638,-789.643 435.444,-788.333 456,-774.902 471.775,-764.594 484.534,-750.505 494.85,-734.648"/>
<polygon fill="black" stroke="black" points="498.108,-736.029 500.333,-725.67 492.134,-732.38 498.108,-736.029"/>
<text text-anchor="middle" x="345.5" y="-788.702" font-family="Times New Roman,serif" font-size="14.00"> &#160;&#160;&lt;a0.s63,click(&quot;index=1&quot;),a1.s24&gt; &#160;&#160;</text>
</g>
<!-- activity_0&#45;&gt;activity_1 -->
<g id="edge16" class="edge"><title>activity_0&#45;&gt;activity_1</title>
<path fill="none" stroke="black" d="M168.325,-630.672C180.031,-671.497 200.256,-711.924 235,-736.902 254.938,-751.235 434.861,-749.397 456,-736.902 459.475,-734.847 462.813,-732.588 466.018,-730.15"/>
<polygon fill="black" stroke="black" points="468.27,-732.83 473.715,-723.741 463.791,-727.45 468.27,-732.83"/>
<text text-anchor="middle" x="345.5" y="-750.702" font-family="Times New Roman,serif" font-size="14.00"> &#160;&#160;&lt;a0.s63,click(&quot;index=0&quot;),a1.s24&gt; &#160;&#160;</text>
</g>
<!-- activity_0&#45;&gt;activity_1 -->
<g id="edge17" class="edge"><title>activity_0&#45;&gt;activity_1</title>
<path fill="none" stroke="black" d="M181.582,-630.594C193.614,-657.49 210.709,-682.426 235,-698.902 275.644,-726.469 412.154,-721.024 456,-698.902 459.352,-697.21 462.601,-695.31 465.748,-693.233"/>
<polygon fill="black" stroke="black" points="467.812,-696.059 473.835,-687.343 463.691,-690.401 467.812,-696.059"/>
<text text-anchor="middle" x="345.5" y="-720.702" font-family="Times New Roman,serif" font-size="14.00"> &#160;&#160;&lt;a0.s63,click(&quot;index=1&quot;),a1.s2&gt; &#160;&#160;</text>
</g>
<!-- activity_0&#45;&gt;activity_1 -->
<g id="edge19" class="edge"><title>activity_0&#45;&gt;activity_1</title>
<path fill="none" stroke="black" d="M202.447,-630.611C211.579,-642.501 222.338,-652.992 235,-660.902 276.652,-686.92 410.101,-678.372 456,-660.902 458.934,-659.785 461.829,-658.51 464.679,-657.101"/>
<polygon fill="black" stroke="black" points="466.547,-660.069 473.619,-652.18 463.171,-653.937 466.547,-660.069"/>
<text text-anchor="middle" x="345.5" y="-680.702" font-family="Times New Roman,serif" font-size="14.00"> &#160;&#160;&lt;a0.s52,click(&quot;index=1&quot;),a1.s43&gt; &#160;&#160;</text>
</g>
<!-- activity_0&#45;&gt;activity_1 -->
<g id="edge20" class="edge"><title>activity_0&#45;&gt;activity_1</title>
<path fill="none" stroke="black" d="M217.007,-610.253C222.583,-615.075 228.574,-619.358 235,-622.902 278.004,-646.62 407.885,-632.741 456,-622.902 458.68,-622.354 461.381,-621.714 464.086,-620.999"/>
<polygon fill="black" stroke="black" points="465.28,-624.296 473.878,-618.105 463.296,-617.583 465.28,-624.296"/>
<text text-anchor="middle" x="345.5" y="-639.702" font-family="Times New Roman,serif" font-size="14.00"> &#160;&#160;&lt;a0.s52,click(&quot;index=0&quot;),a1.s43&gt; &#160;&#160;</text>
</g>
<!-- activity_0&#45;&gt;activity_1 -->
<g id="edge21" class="edge"><title>activity_0&#45;&gt;activity_1</title>
<path fill="none" stroke="black" d="M217.158,-574.445C222.81,-578.509 228.766,-582.07 235,-584.902 274.25,-602.729 387.431,-598.96 463.795,-593.94"/>
<polygon fill="black" stroke="black" points="464.108,-597.427 473.848,-593.258 463.634,-590.443 464.108,-597.427"/>
<text text-anchor="middle" x="345.5" y="-601.702" font-family="Times New Roman,serif" font-size="14.00"> &#160;&#160;&lt;a0.s52,click(&quot;index=1&quot;),a1.s2&gt; &#160;&#160;</text>
</g>
<!-- activity_0&#45;&gt;activity_1 -->
<g id="edge23" class="edge"><title>activity_0&#45;&gt;activity_1</title>
<path fill="none" stroke="black" d="M217.275,-539.304C223.093,-542.235 229.042,-544.834 235,-546.902 328.135,-579.225 358.903,-548.84 456,-565.902 458.631,-566.364 461.301,-566.871 463.99,-567.414"/>
<polygon fill="black" stroke="black" points="463.269,-570.839 473.782,-569.524 464.744,-563.996 463.269,-570.839"/>
<text text-anchor="middle" x="345.5" y="-569.702" font-family="Times New Roman,serif" font-size="14.00"> &#160;&#160;&lt;a0.s87,click(&quot;index=1&quot;),a1.s43&gt; &#160;&#160;</text>
</g>
<!-- activity_0&#45;&gt;activity_1 -->
<g id="edge24" class="edge"><title>activity_0&#45;&gt;activity_1</title>
<path fill="none" stroke="black" d="M217.348,-506.132C223.302,-507.152 229.254,-508.096 235,-508.902 332.631,-522.583 363.691,-493.29 456,-527.902 458.88,-528.981 461.748,-530.193 464.593,-531.512"/>
<polygon fill="black" stroke="black" points="463.081,-534.67 473.583,-536.067 466.244,-528.425 463.081,-534.67"/>
<text text-anchor="middle" x="345.5" y="-531.702" font-family="Times New Roman,serif" font-size="14.00"> &#160;&#160;&lt;a0.s87,click(&quot;index=0&quot;),a1.s43&gt; &#160;&#160;</text>
</g>
<!-- activity_0&#45;&gt;activity_1 -->
<g id="edge25" class="edge"><title>activity_0&#45;&gt;activity_1</title>
<path fill="none" stroke="black" d="M217.218,-485.864C293.39,-478.621 415.189,-470.837 456,-489.902 459.213,-491.402 462.344,-493.098 465.391,-494.958"/>
<polygon fill="black" stroke="black" points="463.51,-497.911 473.755,-500.61 467.43,-492.111 463.51,-497.911"/>
<text text-anchor="middle" x="345.5" y="-493.702" font-family="Times New Roman,serif" font-size="14.00"> &#160;&#160;&lt;a0.s87,click(&quot;index=1&quot;),a1.s2&gt; &#160;&#160;</text>
</g>
<!-- final -->
<g id="node4" class="node"><title>final</title>
<image xlink:href="-2.png" width="50px" height="50px" preserveAspectRatio="xMinYMin meet" x="514" y="-137.902"/>
</g>
<!-- activity_0&#45;&gt;final -->
<g id="edge3" class="edge"><title>activity_0&#45;&gt;final</title>
<path fill="none" stroke="black" d="M174.126,-355.24C187.89,-284.875 208.279,-209.39 235,-186.902 272.728,-155.149 409.451,-183.174 456,-166.902 473.755,-160.695 491.439,-149.806 505.814,-139.425"/>
<polygon fill="black" stroke="black" points="507.951,-142.197 513.871,-133.41 503.764,-136.587 507.951,-142.197"/>
<text text-anchor="middle" x="345.5" y="-190.702" font-family="Times New Roman,serif" font-size="14.00"> &#160;&#160;&lt;a0.s0,press(&quot;BackKey&quot;),final&gt; &#160;&#160;</text>
</g>
<!-- activity_0&#45;&gt;final -->
<g id="edge14" class="edge"><title>activity_0&#45;&gt;final</title>
<path fill="none" stroke="black" d="M169.192,-355.035C182.057,-271.252 203.238,-175.291 235,-147.902 253.665,-131.806 431.592,-132.322 456,-128.902 471.72,-126.699 488.985,-123.455 503.601,-120.463"/>
<polygon fill="black" stroke="black" points="504.644,-123.821 513.716,-118.348 503.211,-116.969 504.644,-123.821"/>
<text text-anchor="middle" x="345.5" y="-151.702" font-family="Times New Roman,serif" font-size="14.00"> &#160;&#160;&lt;a0.s32,press(&quot;BackKey&quot;),final&gt; &#160;&#160;</text>
</g>
<!-- activity_0&#45;&gt;final -->
<g id="edge18" class="edge"><title>activity_0&#45;&gt;final</title>
<path fill="none" stroke="black" d="M164.433,-355.301C175.668,-258.428 196.862,-140.738 235,-109.902 275.272,-77.3391 432.831,-96.6396 503.441,-107.288"/>
<polygon fill="black" stroke="black" points="503.185,-110.79 513.601,-108.851 504.249,-103.871 503.185,-110.79"/>
<text text-anchor="middle" x="345.5" y="-113.702" font-family="Times New Roman,serif" font-size="14.00"> &#160;&#160;&lt;a0.s63,press(&quot;BackKey&quot;),final&gt; &#160;&#160;</text>
</g>
<!-- activity_0&#45;&gt;final -->
<g id="edge22" class="edge"><title>activity_0&#45;&gt;final</title>
<path fill="none" stroke="black" d="M161.363,-355.271C171.161,-246.894 191.919,-108.385 235,-72.9016 272.908,-41.6787 408.148,-61.8526 456,-72.9016 472.965,-76.8187 490.479,-84.7467 504.943,-92.519"/>
<polygon fill="black" stroke="black" points="503.534,-95.7407 513.971,-97.5603 506.947,-89.629 503.534,-95.7407"/>
<text text-anchor="middle" x="345.5" y="-76.7016" font-family="Times New Roman,serif" font-size="14.00"> &#160;&#160;&lt;a0.s52,press(&quot;BackKey&quot;),final&gt; &#160;&#160;</text>
</g>
<!-- activity_0&#45;&gt;final -->
<g id="edge26" class="edge"><title>activity_0&#45;&gt;final</title>
<path fill="none" stroke="black" d="M158.912,-355.233C167.247,-236.436 187.234,-77.8289 235,-37.9016 310.362,25.0924 364.44,-2.34435 456,-37.9016 478.101,-46.4844 497.879,-64.11 512.472,-80.1187"/>
<polygon fill="black" stroke="black" points="509.982,-82.5885 519.206,-87.8009 515.246,-77.974 509.982,-82.5885"/>
<text text-anchor="middle" x="345.5" y="-41.7016" font-family="Times New Roman,serif" font-size="14.00"> &#160;&#160;&lt;a0.s87,press(&quot;BackKey&quot;),final&gt; &#160;&#160;</text>
</g>
<!-- activity_1&#45;&gt;activity_0 -->
<g id="edge4" class="edge"><title>activity_1&#45;&gt;activity_0</title>
<path fill="none" stroke="black" d="M473.827,-468.494C468.302,-463.703 462.366,-459.441 456,-455.902 413.078,-432.035 283.012,-445.571 235,-455.902 232.209,-456.502 229.398,-457.206 226.585,-457.994"/>
<polygon fill="black" stroke="black" points="225.536,-454.655 217.035,-460.978 227.623,-461.337 225.536,-454.655"/>
<text text-anchor="middle" x="345.5" y="-459.702" font-family="Times New Roman,serif" font-size="14.00"> &#160;&#160;&lt;a1.s2,press(&quot;BackKey&quot;),a0.s87&gt; &#160;&#160;</text>
</g>
<!-- activity_1&#45;&gt;activity_0 -->
<g id="edge5" class="edge"><title>activity_1&#45;&gt;activity_0</title>
<path fill="none" stroke="black" d="M486.445,-450.351C477.77,-439.614 467.692,-430.147 456,-422.902 414.255,-397.032 281.078,-405.909 235,-422.902 231.927,-424.035 228.89,-425.34 225.9,-426.789"/>
<polygon fill="black" stroke="black" points="224.226,-423.716 217.079,-431.537 227.543,-429.88 224.226,-423.716"/>
<text text-anchor="middle" x="345.5" y="-426.702" font-family="Times New Roman,serif" font-size="14.00"> &#160;&#160;&lt;a1.s19,press(&quot;BackKey&quot;),a0.s32&gt; &#160;&#160;</text>
</g>
<!-- activity_1&#45;&gt;activity_0 -->
<g id="edge6" class="edge"><title>activity_1&#45;&gt;activity_0</title>
<path fill="none" stroke="black" d="M507.328,-450.395C495.427,-425.343 478.913,-402.3 456,-386.902 415.239,-359.508 279.089,-365.267 235,-386.902 231.769,-388.487 228.629,-390.268 225.581,-392.215"/>
<polygon fill="black" stroke="black" points="223.379,-389.485 217.235,-398.117 227.421,-395.201 223.379,-389.485"/>
<text text-anchor="middle" x="345.5" y="-390.702" font-family="Times New Roman,serif" font-size="14.00"> &#160;&#160;&lt;a1.s24,press(&quot;BackKey&quot;),a0.s32&gt; &#160;&#160;</text>
</g>
<!-- activity_1&#45;&gt;activity_0 -->
<g id="edge7" class="edge"><title>activity_1&#45;&gt;activity_0</title>
<path fill="none" stroke="black" d="M521.268,-450.384C509.42,-411.249 489.468,-372.802 456,-348.902 416.034,-320.361 277.458,-324.22 235,-348.902 231.631,-350.86 228.388,-353.015 225.269,-355.339"/>
<polygon fill="black" stroke="black" points="222.814,-352.826 217.296,-361.87 227.25,-358.241 222.814,-352.826"/>
<text text-anchor="middle" x="345.5" y="-352.702" font-family="Times New Roman,serif" font-size="14.00"> &#160;&#160;&lt;a1.s33,click(&quot;大约&quot;),a0.s7&gt; &#160;&#160;</text>
</g>
<!-- activity_1&#45;&gt;activity_0 -->
<g id="edge8" class="edge"><title>activity_1&#45;&gt;activity_0</title>
<path fill="none" stroke="black" d="M513.373,-450.05C499.466,-389.418 480.03,-327.867 456,-309.902 416.666,-280.495 276.22,-283.203 235,-309.902 220.344,-319.394 208.283,-332.192 198.364,-346.635"/>
<polygon fill="black" stroke="black" points="195.244,-345.016 192.767,-355.317 201.127,-348.808 195.244,-345.016"/>
<text text-anchor="middle" x="345.5" y="-313.702" font-family="Times New Roman,serif" font-size="14.00"> &#160;&#160;&lt;a1.s33,click(&quot;保存&quot;),a0.s63&gt; &#160;&#160;</text>
</g>
<!-- activity_1&#45;&gt;activity_0 -->
<g id="edge9" class="edge"><title>activity_1&#45;&gt;activity_0</title>
<path fill="none" stroke="black" d="M519.535,-449.992C506.297,-374.531 485.542,-291.81 456,-268.902 417.19,-238.806 275.256,-240.77 235,-268.902 208.39,-287.497 190.388,-315.708 178.217,-345.902"/>
<polygon fill="black" stroke="black" points="174.916,-344.737 174.624,-355.328 181.456,-347.23 174.916,-344.737"/>
<text text-anchor="middle" x="345.5" y="-272.702" font-family="Times New Roman,serif" font-size="14.00"> &#160;&#160;&lt;a1.s33,click(&quot;删除&quot;),a0.s63&gt; &#160;&#160;</text>
</g>
<!-- activity_1&#45;&gt;activity_0 -->
<g id="edge10" class="edge"><title>activity_1&#45;&gt;activity_0</title>
<path fill="none" stroke="black" d="M524.354,-450.377C512.311,-360.928 491.075,-255.886 456,-227.902 417.61,-197.273 274.528,-198.756 235,-227.902 214.018,-243.373 196.117,-293.151 182.445,-345.454"/>
<polygon fill="black" stroke="black" points="179.028,-344.686 179.941,-355.242 185.81,-346.421 179.028,-344.686"/>
<text text-anchor="middle" x="345.5" y="-231.702" font-family="Times New Roman,serif" font-size="14.00"> &#160;&#160;&lt;a1.s43,press(&quot;BackKey&quot;),a0.s52&gt; &#160;&#160;</text>
</g>
</g>
</svg>
